<svg xmlns="http://www.w3.org/2000/svg" width="150" height="150" viewBox="0 0 150 150"><defs><style>.cls-1,.cls-10{fill:#fff;}.cls-2{fill:#cbdf82;}.cls-3{fill:#94c667;}.cls-4{fill:#63cdf6;}.cls-5{fill:#333;}.cls-6{fill:#febe48;}.cls-7{fill:#f6b36f;}.cls-8{fill:#c67045;}.cls-9{fill:#935253;}.cls-10{opacity:0.3;}.cls-11{fill:#d44241;}</style></defs><g id="TREASURE_MAP_copy" data-name="TREASURE_MAP copy"><path class="cls-1" d="M34.26,119.7a577.94,577.94,0,0,1-27.48-67,12.71,12.71,0,0,1-.94-5.08c.38-3.67,3.92-6.18,7.68-8.35a15.56,15.56,0,0,1,2-1,5.61,5.61,0,0,1,1-.3,3,3,0,0,1,2.69.7A4.94,4.94,0,0,1,20,40l14.1,34.35v0l0,.07,14.31,34.84-.42.14c-1.06.35-2.3.76-3.5,1.23a24.24,24.24,0,0,0-3.85,1.89,12.29,12.29,0,0,0-5.51,6.68l-.09.33-.28,1.18Zm0,0"/><path class="cls-1" d="M126.43,84.37A10,10,0,0,0,122.22,83a19,19,0,0,0-8.35,1.59c-.89.35-1.75.73-2.39,1l-.39.17-.16-.39c-4.62-11.35-9.22-22.56-14.32-35l-.14-.34C91.69,38.41,86.75,26.36,81.9,14.46a4.65,4.65,0,0,1-.46-1.73c0-1.13.94-2.05,2.72-2.76a14.25,14.25,0,0,1,1.55-.49c2.53-.67,5.69-1.5,8.43-.54,3.77,1.31,5.75,5.56,7.32,9.44C106.12,30,110.66,41.75,115,53.14l.14.36C119,63.47,123,73.78,127,83.87l.44,1.11Zm0,0"/><path class="cls-2" d="M111.64,93.6a13.49,13.49,0,0,1-3.77.88,13.16,13.16,0,0,1-9-2.21,9.16,9.16,0,0,1-3.84-8,16.3,16.3,0,0,1,.44-2.3,19.77,19.77,0,0,0,.42-2,5.61,5.61,0,0,0-1.07-4.65c-1.37-1.49-3.46-1.55-5.31-1.61-.66,0-1.27,0-1.86-.11a6.83,6.83,0,0,1-5.13-3.2,5,5,0,0,1,.49-5.64,9.85,9.85,0,0,1,1.52-1.21l0,0A7,7,0,0,0,87,61.3a7.07,7.07,0,0,0,.4-4.15v-.1c0-.35-.07-.69-.08-1a10.34,10.34,0,0,1,5.84-9.73l.39-.18,2,4.8.7,1.72.16.37-.37.16a8.94,8.94,0,0,0,6.78,16.54l.37-.14.15.37c2.07,5,4.5,11,6.89,16.88a.62.62,0,0,0,.74.35h0l.15,0c1-.47,2.12-1,3.24-1.39a26.5,26.5,0,0,1,2.62-.9l.46-.13,0,.48A7.79,7.79,0,0,1,115,91.5a10.47,10.47,0,0,1-3.38,2.1Zm0,0"/><path class="cls-2" d="M43.66,73a15,15,0,0,1-8.34.75l-.21,0L32,66.08l.47-.1a9,9,0,0,0,1.08-.33,7.92,7.92,0,0,0,4.94-6.77,15.53,15.53,0,0,0-.38-3.48v0c-.32-1.71-.62-3.32,0-4.75.72-1.63,2.43-2.54,4.23-3.51,2-1.06,4.08-2.16,4.86-4.35s-.14-4.41-1-6.13l-.21-.4.42-.17,1.29-.5L49,35.06l8.49-3.37.3-.13.19.27a5,5,0,0,1-.58,6.2,9.3,9.3,0,0,1-1.13.9l0,0a6.6,6.6,0,0,0-2.12,2.12c-1,2-.05,4.27.78,5.85l0,0c.84,1.58,1.71,3.22,1.26,4.74a4.73,4.73,0,0,1-2.87,2.64l-.07,0c-.66.25-1.34.43-2.07.63h0a21.53,21.53,0,0,0-2.31.71l-.07,0a5.59,5.59,0,0,0-3.56,3.59c-.47,2,.62,3.75,1.58,5.34s1.76,2.93,1.45,4.38a4.89,4.89,0,0,1-2.67,3,14.17,14.17,0,0,1-1.88.91Zm0,0"/><path class="cls-2" d="M76,118.46c-5.34,2.1-9.74,3.7-13.86,5l-.36.12-.15-.35a8.57,8.57,0,0,0-8.4-5.24,17.81,17.81,0,0,0-2.84.54c-1.7.42-3.3.82-4.72.19-1.93-.85-2.69-3.25-3.26-5.44l-.08-.32.29-.15c.7-.35,1.44-.68,2.29-1,1.32-.52,2.66-1,4-1.38h0a.46.46,0,0,0,.19-.13l.08-.07.11,0a.35.35,0,0,0,.11,0,.58.58,0,0,0,.34-.33.64.64,0,0,0,0-.47l-1.57-3.82.3-.18a6.78,6.78,0,0,1,1.15-.6,3.56,3.56,0,0,1,2.5-.06,5.88,5.88,0,0,1,3.63,3,12.45,12.45,0,0,1,.77,2.2,8.06,8.06,0,0,0,1.88,3.84,5.39,5.39,0,0,0,4,1.35,8.51,8.51,0,0,0,2.73-.63c.38-.16.79-.34,1.21-.55a40.15,40.15,0,0,0,3.91-2.36l0,0c.87-.57,1.86-1.22,2.85-1.78a18.64,18.64,0,0,1,2.21-1.08,9.6,9.6,0,0,1,4.94-.71,9,9,0,0,1,6.53,5.55l0,0,.19.4-1.69.69c-3.06,1.25-6.22,2.55-9.38,3.8Zm0,0"/><path class="cls-3" d="M102.28,68.58a7.71,7.71,0,0,1-5.85-14.26l.39-.18.16.39,5.54,13.52.16.39Zm0,0"/><path class="cls-3" d="M33.09,64.51a5.79,5.79,0,0,1-1.2.33l-.08,0-.31,0L23.32,44.94l.39-.15c6.74-2.53,13.74-5.21,20.78-8l.34-.13L45,37c.87,1.66,1.67,3.59,1,5.35S43.66,45,41.79,46s-3.92,2.08-4.8,4.11c-.78,1.78-.43,3.65-.09,5.47a14.17,14.17,0,0,1,.36,3.21,6.68,6.68,0,0,1-4.17,5.69Zm0,0"/><path class="cls-3" d="M60.2,124.09a112.94,112.94,0,0,1-13.83,3.34c-2.8.47-6,.74-8.13-.91a6.55,6.55,0,0,1-1.93-6.94,10.84,10.84,0,0,1,4.47-5.66l.48-.32.14.56c.58,2.12,1.52,4.68,3.81,5.69,1.8.8,3.68.33,5.5-.12a15.83,15.83,0,0,1,2.64-.5,7.38,7.38,0,0,1,7.11,4.3l.19.42Zm0,0"/><path class="cls-4" d="M92.91,44.62l.15.37-.36.16a11.57,11.57,0,0,0-6.63,11c0,.41.07.83.1,1.17a6,6,0,0,1-.26,3.45,5.88,5.88,0,0,1-2,1.86A10.59,10.59,0,0,0,82.15,64a6.14,6.14,0,0,0-.66,7.09,8,8,0,0,0,6.05,3.81c.67.08,1.36.1,2,.12,1.76,0,3.43.1,4.44,1.21a4.59,4.59,0,0,1,.77,3.64c-.1.61-.24,1.21-.4,1.85v0a16,16,0,0,0-.46,2.44,10.39,10.39,0,0,0,4.33,9.07A14.2,14.2,0,0,0,108,95.71a15.17,15.17,0,0,0,4.1-1,11.6,11.6,0,0,0,3.77-2.35,9,9,0,0,0,2.83-7.56l-.06-.4.4-.06a12.52,12.52,0,0,1,3.08-.14,8.51,8.51,0,0,1,5.26,2.37,6,6,0,0,1,2,4.32,7.25,7.25,0,0,1-2.6,4.94A21.54,21.54,0,0,1,121.56,99c-10.78,5.18-22.21,9.94-33,14.37l-.41.17-.13-.42s0,0,0-.06a10.16,10.16,0,0,0-7.47-6.29,10.66,10.66,0,0,0-5.58.79,17.59,17.59,0,0,0-2.37,1.14c-1,.58-2,1.24-2.91,1.83l0,0a36.61,36.61,0,0,1-3.79,2.28,10.42,10.42,0,0,1-1.11.5,7.33,7.33,0,0,1-2.35.56,4.16,4.16,0,0,1-3.13-1,7,7,0,0,1-1.55-3.28v0a13.06,13.06,0,0,0-.84-2.39,7.14,7.14,0,0,0-4.39-3.66,4.8,4.8,0,0,0-3.29.1,7.53,7.53,0,0,0-1.07.53l-.4.23L35.67,75l.69.08a16.27,16.27,0,0,0,7.75-1,15.35,15.35,0,0,0,2-1c1.86-1.07,3-2.34,3.27-3.79.4-1.93-.67-3.7-1.61-5.26s-1.79-3-1.43-4.43,2.1-2.45,2.82-2.74l.09,0a19.16,19.16,0,0,1,2.07-.63l.1,0a20.49,20.49,0,0,0,2.2-.67l.08,0a5.65,5.65,0,0,0,3.59-3.43c.59-2-.49-4-1.35-5.66l0,0c-.7-1.33-1.54-3.26-.78-4.7A5.59,5.59,0,0,1,56.93,40h0a12.17,12.17,0,0,0,1.28-1,6.19,6.19,0,0,0,1-7.43l-.24-.4.44-.18c7.85-3.16,15.76-6.41,23.5-9.67l.38-.16.15.38"/><path class="cls-5" d="M103,17.77c-1.69-4.21-3.87-8.83-8.29-10.38-3.21-1.12-6.64-.22-9.39.5-2.47.65-5.43,2-5.49,4.81a6.13,6.13,0,0,0,.59,2.38l1.89,4.65C69.94,24.92,57.43,30,44.89,34.91a.94.94,0,0,0-.28.1l0,0q-10.76,4.22-21.5,8.25l-1.59-3.87a6.37,6.37,0,0,0-1-1.86,4.54,4.54,0,0,0-4.19-1.21,11.44,11.44,0,0,0-3.54,1.51c-4.15,2.38-8,5.2-8.49,9.61a13.8,13.8,0,0,0,1,5.76c7.54,22.66,17.35,46.27,30,72.2a.86.86,0,0,0,.23.3,6.78,6.78,0,0,0,1.81,2.1c2.67,2,6.25,1.76,9.39,1.22,10.35-1.77,20.29-5.23,30-9,3.17-1.26,6.32-2.55,9.44-3.83,12-4.91,24.36-10,36.23-15.7a22.75,22.75,0,0,0,5.56-3.39A8.83,8.83,0,0,0,131,91a6.74,6.74,0,0,0-.72-3.25,1,1,0,0,0-.08-.4C125.53,75.83,121,64,116.57,52.56s-9-23.29-13.6-34.79ZM95.16,75.11c-1.48-1.62-3.67-1.69-5.59-1.75-.65,0-1.26,0-1.83-.11a6.44,6.44,0,0,1-4.83-3,4.53,4.53,0,0,1,.44-5.16,9,9,0,0,1,1.48-1.17,7.29,7.29,0,0,0,2.52-2.43,7.37,7.37,0,0,0,.45-4.39c0-.39-.08-.75-.1-1.1a10,10,0,0,1,5.61-9.34c.6,1.46,1.19,2.91,1.79,4.36.24.58.48,1.18.72,1.77a9.35,9.35,0,0,0,7.09,17.29c2.3,5.62,4.61,11.27,6.89,16.88a1,1,0,0,0,1.23.59.83.83,0,0,0,.27-.07,42.22,42.22,0,0,1,5.79-2.27,7.33,7.33,0,0,1-2.36,6,11.6,11.6,0,0,1-6.9,2.88,12.76,12.76,0,0,1-8.68-2.14,8.78,8.78,0,0,1-3.68-7.61,15.8,15.8,0,0,1,.44-2.24c.16-.65.32-1.31.42-2a5.91,5.91,0,0,0-1.17-5Zm7-6.91A7.3,7.3,0,0,1,96.6,54.69l5.54,13.51ZM57.62,32.07a4.56,4.56,0,0,1-.52,5.67,10.38,10.38,0,0,1-1.12.88,6.84,6.84,0,0,0-2.25,2.26c-1.14,2.12-.1,4.57.78,6.23l0,0c.8,1.51,1.63,3.07,1.23,4.44A4.39,4.39,0,0,1,53.07,54a19.69,19.69,0,0,1-2,.63,20.53,20.53,0,0,0-2.43.75,6,6,0,0,0-3.81,3.87c-.51,2.12.63,4,1.63,5.65.86,1.44,1.68,2.79,1.4,4.09a4.52,4.52,0,0,1-2.47,2.72A14.47,14.47,0,0,1,35.4,73.3l-2.84-6.92A8.84,8.84,0,0,0,33.7,66a8.29,8.29,0,0,0,5.19-7.13,16,16,0,0,0-.38-3.6c-.31-1.64-.6-3.19,0-4.5.66-1.51,2.32-2.39,4.07-3.32,2.06-1.1,4.2-2.24,5-4.57s0-4.44-1-6.46l2.57-1c2.84-1.11,5.67-2.24,8.5-3.37Zm-13,5.13c.89,1.72,1.57,3.47,1,5s-2.27,2.5-4.07,3.45c-2,1.06-4,2.15-5,4.31-.83,1.89-.46,3.83-.11,5.7a14.57,14.57,0,0,1,.35,3.13,6.23,6.23,0,0,1-5,5.63h0L23.85,45.17q10.4-3.9,20.79-8ZM7.17,52.57a12.18,12.18,0,0,1-.92-4.91c.36-3.49,3.8-5.93,7.48-8a9.59,9.59,0,0,1,2.89-1.27,2.5,2.5,0,0,1,2.3.58,4.19,4.19,0,0,1,.68,1.26L33.69,74.5s0,.08,0,.12L47.87,109a33.49,33.49,0,0,0-7.45,3.16,12.72,12.72,0,0,0-5.68,6.91c0,.14-.07.28-.11.41A576.42,576.42,0,0,1,7.17,52.57ZM38.49,126.2a6.16,6.16,0,0,1-1.79-6.51A10.39,10.39,0,0,1,41,114.26c.52,1.93,1.49,4.84,4,6,1.93.85,3.88.37,5.77-.1a17.32,17.32,0,0,1,2.57-.5,7,7,0,0,1,6.7,4.07A110.56,110.56,0,0,1,46.3,127c-2.71.47-5.77.73-7.81-.82Zm46.77-11.92c-7.57,3.11-15.3,6.27-23.22,8.8a9,9,0,0,0-8.81-5.48,16.44,16.44,0,0,0-2.91.55c-1.63.4-3.16.78-4.45.21-1.76-.78-2.49-3.07-3-5.17A42.84,42.84,0,0,1,49,110.81a1,1,0,0,0,.39-.23l.16,0h0a1,1,0,0,0,.56-1.34L48.7,105.7a3.59,3.59,0,0,1,3.33-.62,5.5,5.5,0,0,1,3.38,2.81,13.29,13.29,0,0,1,.74,2.13,8.26,8.26,0,0,0,2,4,5.77,5.77,0,0,0,4.35,1.47,10.52,10.52,0,0,0,4.11-1.22,40.45,40.45,0,0,0,4-2.41c.91-.6,1.86-1.23,2.82-1.77,2.58-1.46,4.9-2,6.89-1.74a8.68,8.68,0,0,1,6.22,5.32l0,.06-1.28.53Zm43.66-23.37a6.81,6.81,0,0,1-2.46,4.65,21.43,21.43,0,0,1-5.08,3.07c-10.79,5.18-22,9.85-33,14.35l0-.08a10.58,10.58,0,0,0-7.78-6.55c-2.46-.38-5.23.28-8.22,2-1,.58-2,1.22-2.94,1.85a36.36,36.36,0,0,1-3.77,2.28,8.34,8.34,0,0,1-3.3,1,3.79,3.79,0,0,1-2.83-.9,6.81,6.81,0,0,1-1.44-3.11,13.72,13.72,0,0,0-.87-2.47,7.61,7.61,0,0,0-4.65-3.88,5.46,5.46,0,0,0-4.67.67L36.31,75.51a16.59,16.59,0,0,0,7.95-1,16.09,16.09,0,0,0,2.09-1c2-1.13,3.14-2.5,3.47-4.07.43-2.09-.68-3.93-1.66-5.56-.88-1.45-1.7-2.82-1.39-4.12s1.92-2.18,2.59-2.45a19.19,19.19,0,0,1,2.18-.68,20.09,20.09,0,0,0,2.26-.69,6.06,6.06,0,0,0,3.92-3.73c.64-2.16-.48-4.27-1.38-6l0,0c-.65-1.25-1.45-3-.78-4.32a5.23,5.23,0,0,1,1.64-1.55,12,12,0,0,0,1.34-1.06,6.63,6.63,0,0,0,1-7.93q11.82-4.75,23.51-9.67c3.16,7.75,6.34,15.51,9.47,23.16a12,12,0,0,0-6.87,11.34c0,.4.07.81.11,1.2a5.83,5.83,0,0,1-.22,3.21,5.68,5.68,0,0,1-1.87,1.71,10.79,10.79,0,0,0-1.82,1.46,6.54,6.54,0,0,0-.72,7.57,8.37,8.37,0,0,0,6.35,4c.67.08,1.35.1,2,.13,1.67,0,3.25.1,4.15,1.08a4.18,4.18,0,0,1,.66,3.3c-.09.59-.23,1.18-.38,1.81a17,17,0,0,0-.49,2.54,10.81,10.81,0,0,0,4.5,9.44A14.61,14.61,0,0,0,108,96.11a15.34,15.34,0,0,0,4.21-1,12,12,0,0,0,3.9-2.43,9.4,9.4,0,0,0,3-7.92,12.47,12.47,0,0,1,3-.13c4.14.34,6.93,3.58,6.84,6.27Zm-6.67-8.31c-3.93-.33-7.75,1.22-10.94,2.65-4.77-11.71-9.62-23.54-14.32-35-4.83-11.76-9.82-23.93-14.71-35.94a4.31,4.31,0,0,1-.43-1.57c0-1.52,2.17-2.4,4-2.87,2.48-.65,5.58-1.46,8.2-.55,3.6,1.26,5.54,5.42,7.07,9.22,4.62,11.48,9.18,23.31,13.58,34.75,3.9,10.11,7.9,20.52,12,30.73a10.6,10.6,0,0,0-4.39-1.42Zm0,0"/><path class="cls-5" d="M80.89,49.7a.6.6,0,0,0,.4,0,.63.63,0,0,0,.4-.45.66.66,0,0,0-.48-.81c-1.72-.44-3.44-.94-5.14-1.51.3-1.92.69-3.84,1.15-5.73a.65.65,0,0,0-.49-.8.66.66,0,0,0-.8.49q-.68,2.78-1.14,5.61c-1.48-.52-3-1.08-4.39-1.69A.67.67,0,0,0,69.89,46q2.31,1,4.7,1.8c-.31,2.11-.53,4.24-.65,6.37a.68.68,0,0,0,.63.71.87.87,0,0,0,.28,0,.67.67,0,0,0,.42-.58q.17-3,.6-6,2.49.81,5,1.46Zm0,0"/><path class="cls-5" d="M75.26,96.41a6.25,6.25,0,0,1-3.88,1.72.9.9,0,1,0,.12,1.8,7.84,7.84,0,0,0,2.38-.54,8,8,0,0,0,2.63-1.68.9.9,0,0,0,0-1.28.89.89,0,0,0-1.27,0Zm0,0"/><path class="cls-5" d="M79.87,91.59a4.15,4.15,0,0,1-1.56,1.76A.91.91,0,0,0,78,94.59a.93.93,0,0,0,1.11.37l.13-.07a5.89,5.89,0,0,0,2.27-2.55.9.9,0,1,0-1.64-.75Zm0,0"/><path class="cls-5" d="M82.79,83.07A.9.9,0,0,0,82,84a8.38,8.38,0,0,1-.31,3.11.9.9,0,0,0,1.19,1.1.93.93,0,0,0,.54-.59,10.25,10.25,0,0,0,.38-3.78.89.89,0,0,0-1-.81Zm0,0"/><path class="cls-5" d="M81.3,77.54a.89.89,0,0,0-.51,1.17l.72,1.84a.9.9,0,0,0,1.18.51.89.89,0,0,0,.5-1.17l-.72-1.84a.9.9,0,0,0-1.17-.51Zm0,0"/><path class="cls-5" d="M79.09,75.93a.87.87,0,0,0,.55-.64A.91.91,0,0,0,79,74.21l-3-.66a.9.9,0,1,0-.39,1.76l3,.66a.84.84,0,0,0,.52,0Zm0,0"/><path class="cls-5" d="M71.43,72.55a.84.84,0,0,0,.52,0,.87.87,0,0,0,.55-.64.9.9,0,0,0-.69-1.08,6.69,6.69,0,0,1-2.37-1,.91.91,0,0,0-1.26.23.9.9,0,0,0,.23,1.25,8.41,8.41,0,0,0,3,1.32Zm0,0"/><path class="cls-5" d="M64.26,63.75a.9.9,0,0,0-.88.92,5,5,0,0,0,1,3,.88.88,0,0,0,1,.3,1.13,1.13,0,0,0,.21-.12.9.9,0,0,0,.18-1.26,3.32,3.32,0,0,1-.66-1.91.9.9,0,0,0-.92-.89Zm0,0"/><path class="cls-5" d="M65.05,56.9a.9.9,0,0,0-1.17.5l-1.35,3.39A.91.91,0,0,0,63,62a.9.9,0,0,0,1.17-.51l1.35-3.39a.9.9,0,0,0-.51-1.17Zm0,0"/><path class="cls-5" d="M67.46,56.26a.87.87,0,0,0,.32-.22l1.82-1.88a.91.91,0,0,0,0-1.28.9.9,0,0,0-1.28,0l-1.81,1.88a.91.91,0,0,0,0,1.28.93.93,0,0,0,1,.19Zm0,0"/><circle class="cls-1" cx="117" cy="82.48" r="20.94"/><path class="cls-6" d="M118.29,110c-.44,0-.89,0-1.33,0a34.74,34.74,0,0,1-13.4-3.61,24.05,24.05,0,0,1-10.34-10A30.12,30.12,0,0,1,93.4,67a23.41,23.41,0,0,1,1.65-2.38,25,25,0,0,1,9.21-7.19,28.61,28.61,0,0,1,11.92-2.56c.47,0,.94,0,1.39,0a30.83,30.83,0,0,1,17.13,6,25.66,25.66,0,0,1,7.72,9.54,24.33,24.33,0,0,1,2.28,12,34,34,0,0,1-1.36,7.26c-1.68,5.57-5.3,13.09-13,17.34a24.69,24.69,0,0,1-12,3Zm-2-51.45A24.64,24.64,0,0,0,106,60.8a21,21,0,0,0-9.4,8.29,26,26,0,0,0-.16,25.41,20.94,20.94,0,0,0,9,8.66A29.64,29.64,0,0,0,117,106.25c.38,0,.77,0,1.15,0a21.33,21.33,0,0,0,10.44-2.63c5.29-2.91,9.17-8.08,11.24-15A28.61,28.61,0,0,0,141,82.45,21.12,21.12,0,0,0,139,72a22.24,22.24,0,0,0-6.69-8.27,26.75,26.75,0,0,0-14.76-5.15c-.4,0-.8,0-1.2,0Zm0,0"/><path class="cls-7" d="M118.1,105.51l-1.12,0a28.88,28.88,0,0,1-11.21-3,20.16,20.16,0,0,1-8.64-8.34A24.52,24.52,0,0,1,94,82.41a24.21,24.21,0,0,1,3.29-12.92,18.9,18.9,0,0,1,1.37-2,20.9,20.9,0,0,1,7.7-6,24,24,0,0,1,10-2.14l1.17,0a25.88,25.88,0,0,1,14.33,5,21.1,21.1,0,0,1,8.35,18A27.57,27.57,0,0,1,139,88.47c-1.4,4.66-4.43,11-10.87,14.5a20.69,20.69,0,0,1-10.07,2.54Zm-1.68-44.09a21.82,21.82,0,0,0-9.08,2,19.13,19.13,0,0,0-7,5.48,19.73,19.73,0,0,0-1.26,1.83,22.12,22.12,0,0,0-3,11.74c.11,8,4.33,15.13,10.76,18.27A26.21,26.21,0,0,0,118,103.53a17.2,17.2,0,0,0,4.17-.5,20.61,20.61,0,0,0,11.46-7.93,23.29,23.29,0,0,0,4.22-15.29A19,19,0,0,0,130.48,66a23.43,23.43,0,0,0-13-4.53c-.35,0-.71,0-1.06,0Zm0,0"/><path class="cls-7" d="M121.11,54.43a34.26,34.26,0,0,0-3.5-.34c-.47,0-1,0-1.43,0a31.08,31.08,0,0,0-3.61.21l-.2,0-.07-.18a6.91,6.91,0,0,1-.39-4.7,4.87,4.87,0,0,1,3.88-3.21,5.32,5.32,0,0,1,.69,0,5.57,5.57,0,0,1,4.64,2.61,6.79,6.79,0,0,1,.28,5.43v0l-.05.24Zm0,0"/><path class="cls-5" d="M143.35,69.93a26.68,26.68,0,0,0-8-9.92,31.08,31.08,0,0,0-12.91-5.61,7.62,7.62,0,0,0-.41-6.15,6.54,6.54,0,0,0-6.37-3.07,5.94,5.94,0,0,0-4.71,3.9,7.78,7.78,0,0,0,.3,5.12,27,27,0,0,0-17,9.74,25,25,0,0,0-1.72,2.49,31.16,31.16,0,0,0-.2,30.49,25.15,25.15,0,0,0,10.78,10.4,35.74,35.74,0,0,0,13.81,3.7c.46,0,.92,0,1.38,0a25.67,25.67,0,0,0,12.54-3.16c6.35-3.49,11-9.7,13.49-17.94a34.85,34.85,0,0,0,1.41-7.49,25.56,25.56,0,0,0-2.38-12.54Zm-31.2-20.44a4.62,4.62,0,0,1,3.68-3,5.27,5.27,0,0,1,5.07,2.44,6.57,6.57,0,0,1,.26,5.22.13.13,0,0,0,0,.06,34.58,34.58,0,0,0-3.53-.35,31.72,31.72,0,0,0-5.08.18,6.64,6.64,0,0,1-.39-4.52Zm32.29,32.89a32.67,32.67,0,0,1-1.35,7.2c-1.66,5.53-5.25,13-12.88,17.19a24.65,24.65,0,0,1-13.24,3,34.26,34.26,0,0,1-13.3-3.58,23.88,23.88,0,0,1-10.23-9.87,29.2,29.2,0,0,1-3.71-13.88,28.84,28.84,0,0,1,3.89-15.32,25.38,25.38,0,0,1,1.63-2.36c4.79-6.1,12.54-9.64,20.93-9.64l1.38,0a30.62,30.62,0,0,1,17,5.92,25.51,25.51,0,0,1,7.64,9.44,24.16,24.16,0,0,1,2.25,11.9Zm0,0"/><path class="cls-5" d="M132.45,63.55a26.87,26.87,0,0,0-14.91-5.2,23.5,23.5,0,0,0-19.69,8.51A21.74,21.74,0,0,0,96.4,69,25.33,25.33,0,0,0,93,82.43a25.68,25.68,0,0,0,3.26,12.2,21.23,21.23,0,0,0,9.09,8.76,30.11,30.11,0,0,0,11.62,3.12c.39,0,.77,0,1.16,0a21.77,21.77,0,0,0,10.57-2.66c5.34-2.94,9.27-8.17,11.36-15.11a29.18,29.18,0,0,0,1.18-6.3,21.44,21.44,0,0,0-2-10.56,22.53,22.53,0,0,0-6.76-8.36Zm7.47,18.83a27.78,27.78,0,0,1-1.12,6C137.41,93,134.42,99.24,128,102.75a20.52,20.52,0,0,1-11,2.47,28.62,28.62,0,0,1-11.11-3A20,20,0,0,1,97.35,94a24.27,24.27,0,0,1-3.09-11.59,24,24,0,0,1,3.25-12.79,18.91,18.91,0,0,1,1.35-2h0a22.07,22.07,0,0,1,17.47-8c.38,0,.77,0,1.15,0a25.51,25.51,0,0,1,14.19,4.95,20.78,20.78,0,0,1,8.25,17.8Zm0,0"/><path class="cls-5" d="M130.64,65.78a23.66,23.66,0,0,0-13.15-4.59,20.75,20.75,0,0,0-17.37,7.51,19.63,19.63,0,0,0-1.28,1.85,22.4,22.4,0,0,0-3,11.89c.11,8,4.39,15.31,10.9,18.49a26.7,26.7,0,0,0,11.3,2.86,17.3,17.3,0,0,0,4.24-.51,20.87,20.87,0,0,0,11.6-8,23.54,23.54,0,0,0,4.27-15.46,19.29,19.29,0,0,0-7.48-14Zm2.17,28.72A19.56,19.56,0,0,1,121.93,102c-2.47.62-7.66,1.16-14.65-2.26a17.48,17.48,0,0,1-7.47-7.2A21.38,21.38,0,0,1,97.1,82.42,21,21,0,0,1,100,71.22a15.4,15.4,0,0,1,1.18-1.72,19.43,19.43,0,0,1,16.3-7,22.43,22.43,0,0,1,12.43,4.32,18.06,18.06,0,0,1,7,13.1,22.34,22.34,0,0,1-4,14.6Zm0,0"/><path class="cls-5" d="M114.49,70h0a.64.64,0,0,0,.64-.64V67.09l1.71,1.83a.66.66,0,0,0,.66.18.64.64,0,0,0,.45-.52,13.53,13.53,0,0,0,.07-3.65.64.64,0,1,0-1.28.15A11.21,11.21,0,0,1,116.8,67l-1.86-2a.65.65,0,0,0-.71-.16.64.64,0,0,0-.4.6v3.88a.65.65,0,0,0,.65.64Zm0,0"/><path class="cls-5" d="M118.17,94.44a2.69,2.69,0,0,0-1.64.55,1.9,1.9,0,0,0-1,1.8,1.93,1.93,0,0,0,1.57,1.44l.16,0a1.61,1.61,0,0,1,.83.38.58.58,0,0,1-.2.69,1.35,1.35,0,0,1-1.14.14,5.68,5.68,0,0,1-1.4-.73.65.65,0,0,0-.7,1.09,6.59,6.59,0,0,0,1.76.88,3.21,3.21,0,0,0,.8.11,2.39,2.39,0,0,0,1.47-.47,1.85,1.85,0,0,0,.46-2.46,2.56,2.56,0,0,0-1.54-.87l-.15-.05c-.42-.12-.63-.29-.65-.4s.13-.33.43-.54a1.44,1.44,0,0,1,.85-.33.43.43,0,0,1,.38.24.64.64,0,0,0,.76.5.63.63,0,0,0,.5-.75,1.65,1.65,0,0,0-1.59-1.27Zm0,0"/><path class="cls-5" d="M102.16,83.56a3.87,3.87,0,0,1-2,.3l-.12,0s0-.1,0-.13l-.11-.92,1.19-.22a.65.65,0,0,0-.23-1.27l-1.12.21-.09-.77a4.61,4.61,0,0,1,2.13-.41.65.65,0,1,0,.06-1.29,6,6,0,0,0-3.2.77.63.63,0,0,0-.33.63l.42,3.43a1.5,1.5,0,0,0,.32.83,1.46,1.46,0,0,0,1,.44,5.83,5.83,0,0,0,.59,0,5.09,5.09,0,0,0,2.07-.43.64.64,0,0,0-.52-1.18Zm0,0"/><path class="cls-5" d="M131.41,80.69a14.18,14.18,0,0,1-.6,2.23,6.69,6.69,0,0,1-.19-3,.65.65,0,0,0-1.28-.2,8.15,8.15,0,0,0,.82,5,.66.66,0,0,0,.52.34h0a.63.63,0,0,0,.52-.27,6.37,6.37,0,0,0,.84-1.64,8.68,8.68,0,0,0,.46.85,1.33,1.33,0,0,0,.84.66,1.12,1.12,0,0,0,1.16-.6,2,2,0,0,0,.21-.82l.3-3.54a.64.64,0,1,0-1.28-.11l-.3,3.45a7.22,7.22,0,0,1-.8-2.34.63.63,0,0,0-.62-.54.64.64,0,0,0-.65.51Zm0,0"/><path class="cls-8" d="M21,85.75a1.92,1.92,0,0,1-.32,0,3.87,3.87,0,0,1-2.21-.89L16,83.27a1.91,1.91,0,0,1-.88-.91c-.14-.48.21-1,.55-1.49,1.5-2.08,3.07-4.24,4.68-6.39,2.76-3.7,5.62-7.4,8.51-11,.21-.26.43-.58.66-.91l0,0c.79-1.12,1.76-2.51,2.85-2.78h.09c1.42-.27,3.4.88,4.79,2a2.74,2.74,0,0,1,1.15,1.77,3.38,3.38,0,0,1-.91,2.07l0,0C32.89,71.82,28.13,78.22,23,84.16A4.36,4.36,0,0,1,21,85.75Zm0,0"/><path class="cls-9" d="M37.59,61.08a11.91,11.91,0,0,0-2.5-1.59l-.28-.13,2.83-3.67.19.13.44.3a18.75,18.75,0,0,0,2.07,1.16l.25.12-.15.24A40.28,40.28,0,0,1,37.93,61l-.15.19Zm0,0"/><circle class="cls-10" cx="48.98" cy="39.96" r="15.04"/><path class="cls-6" d="M53.29,57.87a19.87,19.87,0,0,1-3.61.51A18.54,18.54,0,0,1,31,35.21a18.3,18.3,0,0,1,5.33-8.63,19.06,19.06,0,0,1,8.39-4.51,17.55,17.55,0,0,1,8.34,0A19,19,0,0,1,66.09,33.52a19,19,0,0,1-5.73,20.94,18.11,18.11,0,0,1-7.07,3.41ZM45.58,26A14.87,14.87,0,0,0,39,29.49a14.25,14.25,0,0,0-4.18,6.76A14.39,14.39,0,0,0,52.31,54a14.27,14.27,0,0,0,5.55-2.68,14.83,14.83,0,0,0,4.49-16.4A14.86,14.86,0,0,0,52.13,26a13.69,13.69,0,0,0-6.55,0Zm0,0"/><path class="cls-5" d="M67,33.17a20,20,0,0,0-13.75-12,19.12,19.12,0,0,0-17.63,4.72A19.25,19.25,0,0,0,30,35a20,20,0,0,0,6.71,20.33L34,58.83a4.11,4.11,0,0,0-1.67-.07c-1.52.28-2.66,1.9-3.57,3.2-.24.33-.46.65-.66.9-2.89,3.61-5.76,7.32-8.53,11C18,76,16.39,78.16,14.85,80.3a2.26,2.26,0,0,0,.59,3.79l2.45,1.64a4.74,4.74,0,0,0,2.82,1,2.63,2.63,0,0,0,.49-.07,5.3,5.3,0,0,0,2.57-1.91c5.14-6,9.91-12.39,14.53-18.61a4.2,4.2,0,0,0,1.1-2.73,3,3,0,0,0-.76-1.72A41.68,41.68,0,0,0,41.38,58a20,20,0,0,0,8.35,1.36,20.73,20.73,0,0,0,3.78-.53A19.23,19.23,0,0,0,61,55.23a20,20,0,0,0,6-22.06ZM38.18,63.55a3.25,3.25,0,0,1-.87,1.91C32.7,71.65,28,78.06,22.84,84a3.64,3.64,0,0,1-2.2,1.55,3.61,3.61,0,0,1-2.06-.85l-2.46-1.64c-.37-.24-.71-.48-.79-.77s.19-.82.52-1.27c1.53-2.14,3.11-4.29,4.68-6.39,2.76-3.7,5.62-7.4,8.5-11,.23-.28.46-.61.71-1,.76-1.09,1.71-2.44,2.71-2.67l.07,0c1.34-.25,3.25.86,4.59,2a2.52,2.52,0,0,1,1.07,1.59Zm-.44-2.66a12,12,0,0,0-2.55-1.63L37.69,56l.45.31a18.41,18.41,0,0,0,2.09,1.17,37.34,37.34,0,0,1-2.49,3.39ZM66.27,44.82A18.32,18.32,0,0,1,38.81,55.3a18.76,18.76,0,0,1-7.62-20A18.48,18.48,0,0,1,53,22.34,18.75,18.75,0,0,1,65.86,33.6a18.31,18.31,0,0,1,.41,11.22Zm0,0"/><path class="cls-5" d="M52.19,25.75A14.9,14.9,0,0,0,34.6,36.19,14.64,14.64,0,0,0,52.37,54.24,14.24,14.24,0,0,0,58,51.51a15.07,15.07,0,0,0,4.57-16.67,15.1,15.1,0,0,0-10.39-9.09Zm9.54,17.82a13.44,13.44,0,0,1-25.94-7.06,13.67,13.67,0,0,1,16.1-9.57,13.88,13.88,0,0,1,9.54,8.33,13.55,13.55,0,0,1,.3,8.3Zm0,0"/><path class="cls-1" d="M60.94,43.53a12.2,12.2,0,0,0,.21-5.7c-.12-.63-1.08-.36-1,.27A11,11,0,0,1,60,43.27a.5.5,0,0,0,1,.26Z"/><path class="cls-1" d="M59.48,46.66a8.79,8.79,0,0,0,.67-1.38.46.46,0,0,0,0-.38.53.53,0,0,0-.3-.23.51.51,0,0,0-.38,0l-.1.08a.45.45,0,0,0-.13.22c0,.06,0,.11-.07.17l.05-.12a8.43,8.43,0,0,1-.55,1.08.51.51,0,0,0,.18.69.5.5,0,0,0,.68-.18Z"/><path class="cls-11" d="M121.35,84.82c-2.69-1.57-5.36-3.3-7.92-5.13l-.21-.15.21-.15a4.52,4.52,0,0,1,.52-.32l4.36-2.4L119.6,76l.09,0c.81-.45,1.65-.92,2.48-1.36a1,1,0,0,1,.37-.13l.12,0,.06.12a3.51,3.51,0,0,1-.08,1.69c0,.15,0,.29-.06.4l-.86,6.57a5.22,5.22,0,0,0,0,.62c0,.27,0,.62-.06.9l0,.27Zm0,0"/><path class="cls-4" d="M111.37,89.85c.33-3,.76-6,1.28-8.91a5.12,5.12,0,0,1,.17-.72l.07-.24.21.15c2.49,1.78,5.09,3.47,7.72,5l.29.17-9.78,4.87Zm0,0"/><path class="cls-5" d="M123.09,73.83a1.16,1.16,0,0,0-1.26.06c-.88.46-1.75,1-2.59,1.42L118,76l-4.37,2.41a3.4,3.4,0,0,0-1.09.82,3.35,3.35,0,0,0-.57,1.56c-.58,3.24-1,6.53-1.38,9.8a.48.48,0,0,0,.19.43.5.5,0,0,0,.26.08.54.54,0,0,0,.21-.05l10.72-5.33a.57.57,0,0,0,.16-.15,3.47,3.47,0,0,0,.33-1.77c0-.22,0-.43,0-.55l.86-6.57c0-.1,0-.23.06-.38.15-.9.35-2-.28-2.49ZM112.83,81a5.05,5.05,0,0,1,.16-.69c2.5,1.78,5.1,3.47,7.74,5l-9.18,4.56c.33-3,.76-6,1.28-8.9Zm9.63-4.8c0,.16,0,.29-.06.41l-.86,6.57c0,.17,0,.38,0,.63s0,.59,0,.88c-2.71-1.58-5.37-3.3-7.92-5.12a5.09,5.09,0,0,1,.5-.3l4.37-2.41,1.29-.72c.84-.47,1.7-1,2.57-1.41a1.12,1.12,0,0,1,.3-.11,4.54,4.54,0,0,1-.1,1.58Zm0,0"/><path class="cls-11" d="M64.4,100.07a24.42,24.42,0,0,1-7.22-5.52c-.69-.71-1.35-1.46-2-2.21a10.86,10.86,0,0,1-2.78-5.67,6.45,6.45,0,0,1,2.07-5.18,6.37,6.37,0,0,1,1.94-1.19,6.64,6.64,0,0,1,3.43-.4A6.88,6.88,0,0,1,64.57,83a12.13,12.13,0,0,1,1.48,6.23,37.07,37.07,0,0,1-.88,8.91c0,.16-.07.32-.1.48-.09.41-.19.87-.31,1.3l-.09.29ZM57.87,83l-.09,0a3.54,3.54,0,0,0-2.13,3.63,3.69,3.69,0,0,0,6.8,1.63,3.78,3.78,0,0,0-.08-3.94A3.93,3.93,0,0,0,57.87,83Zm0,0"/><path class="cls-5" d="M65.47,82.41A8,8,0,0,0,60,78.85a7.64,7.64,0,0,0-6.24,1.86,7.47,7.47,0,0,0-2.41,6.05,11.82,11.82,0,0,0,3,6.25c.64.78,1.32,1.55,2,2.28,2.14,2.19,5,4.86,8.26,6a.64.64,0,0,0,.47,0,.68.68,0,0,0,.37-.36,12.21,12.21,0,0,0,.58-2.13c0-.16.07-.31.1-.46a37.85,37.85,0,0,0,.91-9.18,13.15,13.15,0,0,0-1.64-6.77Zm.31,6.8a36.71,36.71,0,0,1-.87,8.86c0,.15-.07.31-.1.48-.09.42-.19.86-.31,1.27a23.91,23.91,0,0,1-7.13-5.46c-.68-.7-1.34-1.44-1.95-2.19a10.53,10.53,0,0,1-2.72-5.52,6.15,6.15,0,0,1,2-5,6.41,6.41,0,0,1,5.15-1.53,6.64,6.64,0,0,1,4.52,3,11.85,11.85,0,0,1,1.43,6.09Zm0,0"/><path class="cls-5" d="M57.67,82.79a3.81,3.81,0,0,0-2.28,3.91,3.91,3.91,0,0,0,3,3.53,4.07,4.07,0,0,0,4.3-1.79,4,4,0,0,0-.09-4.22,4.17,4.17,0,0,0-4.92-1.43Zm3.88,5a2.74,2.74,0,0,1-2.86,1.19,2.61,2.61,0,0,1-2-2.36A2.48,2.48,0,0,1,58.2,84a2.81,2.81,0,0,1,3.28.93,2.73,2.73,0,0,1,.07,2.81Zm0,0"/></g></svg>