<svg id="LEVELS" xmlns="http://www.w3.org/2000/svg" width="70" height="70" viewBox="0 0 70 70"><defs><style>.cls-1{fill:#d7deeb;}.cls-2{fill:#9199a8;}.cls-3{fill:#5fccf6;}.cls-4{fill:#cadf81;}.cls-5{fill:#eb6a66;}.cls-6{fill:#f8d787;}.cls-7{fill:#bdc7d7;}.cls-8{fill:#333;}</style></defs><g id="OLD_COMPUTER_copy" data-name="OLD_COMPUTER copy"><path class="cls-1" d="M12.77,45.68a2.69,2.69,0,0,0,.44,1.77,2.68,2.68,0,0,0,2.1.62l17.87.11.13-5.06c0-.15,0-.42.17-.53a.52.52,0,0,1,.3-.06h.08l6,.13a.83.83,0,0,1,.54.15.74.74,0,0,1,.13.52l.11,4.89,14.08.08h.11a2.77,2.77,0,0,0,1.76-.41,3,3,0,0,0,.74-2.42V37l-.26,0c-1.63-.16-3.3-.19-4.92-.21-.71,0-1.59,0-2.41,0-2.68-.1-5.4-.18-8.11-.25-5.38-.14-10.83-.23-16.21-.27l-5.88,0H16.39c-1.15,0-2.44.08-3.15,1a3.88,3.88,0,0,0-.56,2.55Zm17.29-1.46h0a1.15,1.15,0,0,1-1.11-1,1,1,0,0,1,.45-1A1.14,1.14,0,0,1,30,42a1.16,1.16,0,0,1,.56.13,1,1,0,0,1,.39.38,1.13,1.13,0,0,1-.92,1.67Zm6.2-5.51a1.24,1.24,0,0,1,1.23-.05,1,1,0,0,1,.38.37A1.13,1.13,0,0,1,37,40.7h0a1.16,1.16,0,0,1-1.11-1,1,1,0,0,1,.45-1Zm-3.21,0a1.27,1.27,0,0,1,.66-.19,1.2,1.2,0,0,1,.57.14.93.93,0,0,1,.39.37,1.13,1.13,0,0,1-.92,1.67h0a1.15,1.15,0,0,1-1.1-1,1,1,0,0,1,.44-1Zm-3.68,0a1.22,1.22,0,0,1,.66-.19,1.16,1.16,0,0,1,.56.14A.93.93,0,0,1,31,39a1.13,1.13,0,0,1-.92,1.67h0a1.15,1.15,0,0,1-1.11-1,1,1,0,0,1,.45-1Zm-3.21,0a1.24,1.24,0,0,1,.66-.19,1.2,1.2,0,0,1,.57.14.93.93,0,0,1,.39.37,1.26,1.26,0,0,1,.14.57,1.16,1.16,0,0,1-1.06,1.1h0a1.15,1.15,0,0,1-1.1-1,1,1,0,0,1,.44-1ZM26,42.28a2.12,2.12,0,0,1,.91.14.62.62,0,0,1,0,1.21,2.73,2.73,0,0,1-.76.09l-9.68,0a2.1,2.1,0,0,1-1.19-.25c-.31-.22-.44-.45-.37-.68a.92.92,0,0,1,.86-.52l1.2,0H26ZM15.42,38.43a2.76,2.76,0,0,1,1.25-.22h.26l4.73.09h0l.65,0h.62a1.25,1.25,0,0,1,.94.29,1.56,1.56,0,0,1,.25,1.69c-.22.33-.63.48-1.33.48h-.26L18,40.57h0l-1.47,0a3.74,3.74,0,0,1-1.09-.16,1.12,1.12,0,0,1-.72-.7,1.13,1.13,0,0,1,.7-1.23Zm0,0"/><path class="cls-1" d="M54,29.67c0-.1,0-.22,0-.35,0-.59,0-1.44,0-2.69,0-2.28,0-5.44,0-8.5,0-6.63,0-14.14-.13-16.41l0-.47-.4.24a17.37,17.37,0,0,0-2.87,2.18l-.09.09V3.9c.11,1.37.12,7.68.13,13.77v.27c0,4.25,0,8.65.06,9.52v.12L54,30.29Zm0,0"/><path class="cls-1" d="M48.88,29.85l-.15.37,5.06.05-3.21-2.56-31.1-.3h-.14l-2.88,2.52,2.59,0h.06l27.43.26-.08-.35a1.35,1.35,0,0,1-.05-.37.63.63,0,0,1,.2-.5.88.88,0,0,1,.54-.14h.15l.93,0a.84.84,0,0,1,.59.16.52.52,0,0,1,.14.45,1.13,1.13,0,0,1-.08.36Zm0,0"/><path class="cls-1" d="M19.15,3.91a1.32,1.32,0,0,1,.24,0c1.09,0,2.2-.08,3.27-.17h0c.88-.07,1.88-.14,2.86-.16,1.44,0,3,0,4.72,0,2.23,0,4.48,0,6.65,0H37c2.17,0,4.43,0,6.64,0l3.4.06h1.75a9.24,9.24,0,0,1,1.29.08h.17l.1-.12a17.24,17.24,0,0,1,2.52-2l.74-.47-.88,0-.83,0-.92,0H49.81L45.66,1C42.85,1,39.88,1,37.49,1h0c-2.65,0-5.4,0-8.14,0-2.12,0-4,0-5.79,0-1.15,0-2.31.11-3.45.2h0c-1.14.09-2.32.18-3.48.2l-.79,0L19,4Zm0,0"/><path class="cls-1" d="M15.5,1.92V2c0,1.59,0,3.21,0,4.78v.83c0,3.72.06,7.5.17,11.24V19c.16,5.48.31,9.33.42,10.55l.05.56,3.26-2.86V27q0-.3-.06-.9c0-.64-.08-1.56-.12-2.81-.06-1.41-.11-3.07-.17-5v-.1c-.09-3.06-.14-6.15-.14-9.21V8.67c0-1.38,0-2.8,0-4.21a1.1,1.1,0,0,1,0-.24l0-.17L15.52,1.33Zm0,0"/><path class="cls-2" d="M18,42.09H17c-.45,0-.85,0-1.21,0a1.08,1.08,0,0,0-1,.65c-.05.18-.06.53.44.88a2.31,2.31,0,0,0,1.34.28h9.64a2.34,2.34,0,0,0,.82-.1.87.87,0,0,0,.6-.62.9.9,0,0,0-.55-.93,2.24,2.24,0,0,0-1-.16H18Zm0,0"/><path class="cls-2" d="M22.3,40.66l0,.27h.51a1.75,1.75,0,0,0,1.49-.55A1.75,1.75,0,0,0,24,38.47a1.37,1.37,0,0,0-1.07-.35h-.73l.07,2.49Zm0,0"/><path class="cls-2" d="M21.77,40.91V38.12L17.83,38l.09,2.71Zm0,0"/><path class="cls-2" d="M18.81,35.85h0l.07.17h1.38l-.14-.38a1.56,1.56,0,0,1,0-1,3.7,3.7,0,0,1,.77-1.18l0,0a4,4,0,0,0,.76-1.1,2.14,2.14,0,0,0-.25-2s0,0,0,0l-.06-.19-2.09,0,.25.43a2.37,2.37,0,0,1,.19,2.07,4.71,4.71,0,0,1-.57.94,6.46,6.46,0,0,0-.44.67,1.39,1.39,0,0,0,.08,1.69Zm0,0"/><path class="cls-2" d="M15.38,40.53a3.51,3.51,0,0,0,1.14.17l.79,0,0-2.7h-.58a3.05,3.05,0,0,0-1.34.24,1.31,1.31,0,0,0-.8,1.45,1.27,1.27,0,0,0,.84.82Zm0,0"/><path class="cls-3" d="M50.48,27.6v-.29c0-.13,0-.28,0-.47,0-.49,0-1.21,0-2.2,0-1.72,0-4,0-6.46v-.64c0-5.57,0-11.88-.12-13.48l0-.23-.22,0a8.39,8.39,0,0,0-1.21-.07H47.08l-3.4-.06c-2.21,0-4.46,0-6.63,0h-.11c-2.18,0-4.42-.05-6.66-.05-1.73,0-3.28,0-4.72.05-1,0-1.92.09-2.85.16-1.09.09-2.21.17-3.3.17h0l-.17,0-.13,0,0,.12a1,1,0,0,0,0,.3c0,1.41,0,2.83,0,4.21v.38c0,3,.05,6.15.14,9.21v.1c.2,6.53.31,8.26.36,8.7l0,.25"/><path class="cls-4" d="M37.57,38.49a1.41,1.41,0,0,0-.65-.15,1.38,1.38,0,0,0-.76.21,1.2,1.2,0,0,0-.53,1.15,1.33,1.33,0,0,0,1.06,1.16l.16,0v0l.09,0,.09,0v0l.16,0a1.35,1.35,0,0,0,1-1.25,1.23,1.23,0,0,0-.63-1.11Zm0,0"/><path class="cls-4" d="M33.71,40.89h0A1.33,1.33,0,0,0,35,39.6a1.3,1.3,0,0,0-.23-.77l-.1-.14h0l0,0-.09-.13,0,.05-.11-.08h0a1.45,1.45,0,0,0-.66-.15,1.43,1.43,0,0,0-.76.21,1.2,1.2,0,0,0-.53,1.15,1.36,1.36,0,0,0,1.29,1.19Zm0,0"/><path class="cls-5" d="M47.15,28.66a1,1,0,0,0-.65.17.84.84,0,0,0-.28.65,1.77,1.77,0,0,0,.09.52l0,.2,2.56,0,.07-.18a2,2,0,0,0,.16-.54.74.74,0,0,0-.2-.61,1.11,1.11,0,0,0-.72-.21l-.92,0Zm0,0"/><path class="cls-5" d="M30,41.85a1.38,1.38,0,0,0-.76.22,1.2,1.2,0,0,0-.53,1.15A1.33,1.33,0,0,0,30,44.41h0a1.31,1.31,0,0,0,1.23-1.28A1.2,1.2,0,0,0,30.68,42a1.42,1.42,0,0,0-.65-.16Zm0,0"/><path class="cls-6" d="M30,38.34a1.38,1.38,0,0,0-.76.21,1.2,1.2,0,0,0-.53,1.15A1.32,1.32,0,0,0,30,40.89h.05A1.32,1.32,0,0,0,31.3,39.6a1.2,1.2,0,0,0-.62-1.11,1.41,1.41,0,0,0-.65-.15Zm0,0"/><path class="cls-6" d="M26.82,40.89h.05A1.33,1.33,0,0,0,28.1,39.6a1.17,1.17,0,0,0-.62-1.1,1.34,1.34,0,0,0-.66-.16,1.43,1.43,0,0,0-.76.21,1.2,1.2,0,0,0-.53,1.15,1.33,1.33,0,0,0,1.29,1.19Zm0,0"/><path class="cls-7" d="M23.52,36H25.4c5.39,0,10.85.13,16.22.27l4.4.12.69,0L46.24,36a12.4,12.4,0,0,0-4.61-3l-.08,0-.08,0a6.41,6.41,0,0,1-1.28.1H40l-9.66,0a12.19,12.19,0,0,1-2.48-.18l0,0-.09,0-.08,0a16.09,16.09,0,0,0-4.28,2.76l-.54.48Zm0,0"/><path class="cls-7" d="M23.87,30.6a10.63,10.63,0,0,0,4,2.09,11.85,11.85,0,0,0,2.45.18l9.67,0h.19a5.53,5.53,0,0,0,1.45-.14,5.32,5.32,0,0,0,2.54-2l.36-.46-21.34-.2Zm0,0"/><path class="cls-7" d="M40.71,43.32a.94.94,0,0,0-.19-.64.87.87,0,0,0-.67-.2l-6-.14h-.09a.69.69,0,0,0-.41.1.87.87,0,0,0-.25.68L33,48.17l7.82,0Zm0,0"/><path class="cls-7" d="M22.4,38.13h-.83l0,2.78.89,0Zm0,0"/><path class="cls-7" d="M18.1,40.76,18,38.05l-.94,0,0,2.69Zm0,0"/><path class="cls-8" d="M57.69,36.91a.33.33,0,0,0-.29-.33c-1.73-.19-3.53-.22-5.26-.24-.79,0-1.61,0-2.41-.06L47,36.19a12.87,12.87,0,0,0-4.52-3.35,8,8,0,0,0,2.32-2.26h0l9.27.09h0a.34.34,0,0,0,.33-.34.5.5,0,0,0,0-.12c-.08-.6-.09-6.43-.09-12.07,0-7.35,0-15.68-.18-17a.33.33,0,0,0-.26-.29A13.8,13.8,0,0,0,51,.72c-.42,0-.82,0-1.2,0L46.45.67h-.78c-2.73,0-5.5,0-8.18-.06-4.57,0-9.31-.1-14,0C22.35.62,21.16.71,20,.8,18.69.9,17.33,1,16,1h0a1,1,0,0,0-.56.18,1,1,0,0,0-.3.81c0,1.71,0,3.45,0,5.14v.47c0,3.73.06,7.52.17,11.25V19c.07,2.31.14,4.35.2,6.05.06,1.46.11,2.62.16,3.44,0,.49,0,.86.07,1.11,0,.4.07.72.4.72l2.85,0a2,2,0,0,1,.44,2.08,4.65,4.65,0,0,1-.53.86,6.24,6.24,0,0,0-.47.71,2,2,0,0,0-.13,1.77H16.39c-1.24,0-2.63.1-3.45,1.11a4.26,4.26,0,0,0-.64,2.8l.09,6a3,3,0,0,0,.53,2,3,3,0,0,0,2.39.75l39.39.24h.12a3.05,3.05,0,0,0,2-.5,3.39,3.39,0,0,0,.88-2.72ZM54.2,30l-.07,0,.07,0ZM46,36.16,41.62,36c-5.38-.13-10.83-.22-16.22-.26H23.52a15.9,15.9,0,0,1,4.2-2.71l.06,0a12.73,12.73,0,0,0,2.53.18l9.66,0h.22a6.11,6.11,0,0,0,1.34-.11,12.18,12.18,0,0,1,4.5,3Zm-25.41-.41a1,1,0,0,1-.11-1,3.54,3.54,0,0,1,.7-1.06l0,0a4.4,4.4,0,0,0,.82-1.2A2.51,2.51,0,0,0,22,30.35h1a.27.27,0,0,0,.07.08,15.09,15.09,0,0,0,3.74,2.32,16.42,16.42,0,0,0-4.22,3H20.62Zm-1.48-6.09H19l-1.83,0,2.23-1.95h.05l31,.29L53,30l-3.83,0a1.43,1.43,0,0,0,.1-.42.81.81,0,0,0-.22-.69,1.12,1.12,0,0,0-.79-.23l-.92,0a1.3,1.3,0,0,0-.87.2.94.94,0,0,0-.32.72,2.12,2.12,0,0,0,.06.44ZM53.47,1.74c.12,2.26.12,9.73.13,16.39,0,3.22,0,6.26,0,8.51,0,1.2,0,2.08,0,2.69,0,.13,0,.25,0,.35l-2.82-2.24c-.05-.88-.06-5.39-.06-9.77,0-6.11,0-12.42-.13-13.8a16.62,16.62,0,0,1,2.81-2.13Zm-2.8,25.61-.07,0,.07,0Zm-.55-9.68c0,2.64,0,5.13,0,7,0,1,0,1.7,0,2.2,0,.2,0,.35,0,.48L19.76,27c-.07-.74-.2-3.31-.36-8.68v-.1c-.09-3.05-.14-6.14-.14-9.2V8.67c0-1.38,0-2.8,0-4.2,0-.13,0-.18,0-.2l.12,0c1.1,0,2.23-.08,3.32-.17.93-.07,1.9-.14,2.84-.16,3.81-.08,7.68,0,11.42,0,2.19,0,4.46.05,6.69.05h.63L47.07,4c.33,0,.68,0,1,0A12.3,12.3,0,0,1,50,4.08c.1,1.6.11,8,.11,13.59ZM46.58,29.92a1.78,1.78,0,0,1-.08-.44.59.59,0,0,1,.18-.43,1,1,0,0,1,.62-.11l.92,0a.82.82,0,0,1,.53.14.45.45,0,0,1,.12.37,1.88,1.88,0,0,1-.14.46Zm-5,2.57a5.78,5.78,0,0,1-1.56.14l-9.67,0a12,12,0,0,1-2.39-.18,10.14,10.14,0,0,1-3.88-2l19.9.19a5,5,0,0,1-2.4,1.93Zm-21.48-31c1.14-.09,2.32-.18,3.48-.2,4.65-.09,9.37,0,14,0,2.68,0,5.45.06,8.17.06h0l4.14.08c.4,0,.82,0,1.23,0,.58,0,1.16,0,1.73,0a17.19,17.19,0,0,0-2.57,2s0,0,0,0a12.22,12.22,0,0,0-2.1-.07h-1l-3.4-.07c-2.23,0-4.5,0-6.69,0-3.75,0-7.63-.08-11.45,0-1,0-1.93.1-2.87.17s-2.2.17-3.29.17h0a1.43,1.43,0,0,0-.3.06l-2.51-2c1.18,0,2.36-.11,3.51-.2ZM15.94,19v-.12c-.11-3.73-.16-7.51-.16-11.23V7.14c0-1.68,0-3.43,0-5.14V1.9l2.86,2.26a1.2,1.2,0,0,0,0,.3c0,1.41,0,2.83,0,4.21v.38c0,3.06,0,6.16.14,9.22v.1c.06,1.9.11,3.57.16,5,.05,1.2.09,2.14.13,2.82,0,.39,0,.7.06.91v0l-2.74,2.4c-.09-1-.23-4.14-.42-10.54Zm3,16.68a1.15,1.15,0,0,1,0-1.35,4.6,4.6,0,0,1,.42-.63,5,5,0,0,0,.6-1,2.69,2.69,0,0,0-.2-2.33l1.38,0a.47.47,0,0,0,.05.1,1.85,1.85,0,0,1,.22,1.76,4.7,4.7,0,0,1-.71,1l0,0a4,4,0,0,0-.83,1.27,1.83,1.83,0,0,0,0,1.2h-.79a.31.31,0,0,0-.09-.11ZM33.28,47.89l.13-4.76c0-.2,0-.38.13-.46a.58.58,0,0,1,.32-.05l6,.14a.69.69,0,0,1,.47.12.73.73,0,0,1,.11.45l.09,4.61Zm23.13-.22a2.66,2.66,0,0,1-1.7.35l-13.8-.08-.1-4.62a1,1,0,0,0-.22-.71,1,1,0,0,0-.73-.23l-6-.14a1,1,0,0,0-.55.12.89.89,0,0,0-.29.76l-.13,4.77-17.58-.1a2.52,2.52,0,0,1-1.9-.52,2.48,2.48,0,0,1-.37-1.59l-.08-6a3.61,3.61,0,0,1,.49-2.37c.63-.79,1.85-.86,2.93-.86h3.13l5.88,0c5.38,0,10.83.13,16.21.27,2.68.07,5.41.15,8.1.25.8,0,1.62,0,2.42,0,1.62,0,3.29,0,4.9.21v8.26a2.76,2.76,0,0,1-.63,2.2Zm0,0"/><path class="cls-8" d="M15.34,40.62a3.81,3.81,0,0,0,1.18.18l1.44.05H18l4.49.17h.27a1.78,1.78,0,0,0,1.57-.6,1.84,1.84,0,0,0-.28-2A1.75,1.75,0,0,0,22.64,38h-1L17,37.93a3.85,3.85,0,0,0-1.72.24,1.41,1.41,0,0,0-.84,1.56,1.36,1.36,0,0,0,.89.89Zm6.85,0h-.32V38.4h.26Zm-.7,0-3.3-.13-.07-2.15,3.36.07Zm-3.68-.14-.41,0,0-2.13h.37Zm4.84-2.06a1.45,1.45,0,0,1,1.15.25A1.48,1.48,0,0,1,24,40.23c-.27.4-.89.44-1.46.42a.15.15,0,0,0,0-.09l-.06-2.15Zm-7.19.1a3,3,0,0,1,1.22-.2H17l0,2.13-.49,0a3.72,3.72,0,0,1-1.06-.15.91.91,0,0,1,0-1.76Zm0,0"/><path class="cls-8" d="M27.52,38.41a1.51,1.51,0,0,0-1.51.06,1.28,1.28,0,0,0-.57,1.24A1.43,1.43,0,0,0,26.82,41h.05A1.43,1.43,0,0,0,28.2,39.6a1.28,1.28,0,0,0-.68-1.19Zm-.66,2.19a1,1,0,0,1-1.05-.92.9.9,0,0,1,.41-.89,1.13,1.13,0,0,1,.6-.17,1.11,1.11,0,0,1,.52.12.91.91,0,0,1,.48.86,1.05,1.05,0,0,1-1,1Zm0,0"/><path class="cls-8" d="M30.73,38.41a1.53,1.53,0,0,0-1.52.06,1.3,1.3,0,0,0-.57,1.24A1.44,1.44,0,0,0,30,41h0A1.43,1.43,0,0,0,31.4,39.6a1.29,1.29,0,0,0-.67-1.19Zm-.67,2.19a1,1,0,0,1-1-.92.91.91,0,0,1,.4-.89,1.18,1.18,0,0,1,1.13,0,.92.92,0,0,1,.47.86,1.05,1.05,0,0,1-1,1Zm0,0"/><path class="cls-8" d="M34.42,38.41a1.53,1.53,0,0,0-1.52.06,1.3,1.3,0,0,0-.57,1.24A1.43,1.43,0,0,0,33.71,41h0a1.43,1.43,0,0,0,1.33-1.38,1.29,1.29,0,0,0-.67-1.19Zm-.67,2.19a1,1,0,0,1-1-.92.89.89,0,0,1,.4-.89,1.13,1.13,0,0,1,.6-.17,1.18,1.18,0,0,1,.53.12h0l-.54.65a.18.18,0,0,0,0,.26.21.21,0,0,0,.12.05.21.21,0,0,0,.15-.07l.53-.64a1,1,0,0,1,.18.6,1.05,1.05,0,0,1-1,1Zm0,0"/><path class="cls-8" d="M37.62,38.41a1.53,1.53,0,0,0-1.52.06,1.3,1.3,0,0,0-.57,1.24A1.45,1.45,0,0,0,36.92,41h0a1.41,1.41,0,0,0,1.32-1.38,1.29,1.29,0,0,0-.67-1.19Zm-.49,2.17,0-.66a.2.2,0,0,0-.2-.19.19.19,0,0,0-.18.2l0,.66a1.06,1.06,0,0,1-.84-.91.91.91,0,0,1,.4-.89,1.18,1.18,0,0,1,1.13,0,.92.92,0,0,1,.47.86,1,1,0,0,1-.78,1Zm0,0"/><path class="cls-8" d="M30.73,41.93a1.53,1.53,0,0,0-1.52.06,1.3,1.3,0,0,0-.57,1.24A1.43,1.43,0,0,0,30,44.5h0a1.44,1.44,0,0,0,1.32-1.38,1.28,1.28,0,0,0-.67-1.19Zm-.67,2.19a1.06,1.06,0,0,1-1-.92.9.9,0,0,1,.4-.89,1.08,1.08,0,0,1,.61-.17,1.17,1.17,0,0,1,.52.12.92.92,0,0,1,.47.86,1.05,1.05,0,0,1-1,1Zm0,0"/><path class="cls-8" d="M27.06,42.16A2.51,2.51,0,0,0,26,42H18c-.74,0-1.51,0-2.26,0a1.19,1.19,0,0,0-1.12.72c-.06.21-.08.6.47,1a2.35,2.35,0,0,0,1.36.3h.08l9.6,0a2.37,2.37,0,0,0,.86-.11.9.9,0,0,0,0-1.73Zm-7.87,1.42a.14.14,0,0,1,0-.11.31.31,0,0,1,.12-.24,1.06,1.06,0,0,1,.64-.09l2.55.13c.17,0,.35,0,.43.12a.21.21,0,0,1,0,.24H19.25l-.06-.06Zm8.1-.46a.59.59,0,0,1-.41.42,2.22,2.22,0,0,1-.73.08H23.29a.57.57,0,0,0-.11-.49.92.92,0,0,0-.7-.25l-2.55-.13a1.38,1.38,0,0,0-.87.16.66.66,0,0,0-.29.55,1,1,0,0,0,0,.17H16.55a2.13,2.13,0,0,1-1.22-.23c-.19-.13-.4-.34-.33-.57a.83.83,0,0,1,.77-.45c.75,0,1.51,0,2.25,0H26a2.28,2.28,0,0,1,.94.13.62.62,0,0,1,.39.62Zm0,0"/><path class="cls-8" d="M23.55,6.82a1.29,1.29,0,0,0-1.59-1,1.26,1.26,0,0,0-1,.87,1.48,1.48,0,0,0,.35,1.44,1.19,1.19,0,0,0,.88.38,1.24,1.24,0,0,0,.38-.05,1.3,1.3,0,0,0,.94-1.63ZM22.49,8a.76.76,0,0,1-.8-.2,1,1,0,0,1-.24-1,.78.78,0,0,1,.62-.55.82.82,0,0,1,1,.67.81.81,0,0,1-.6,1Zm0,0"/><path class="cls-8" d="M35.52,6.33l-11,.27a.24.24,0,0,0,0,.48h0l11-.28a.23.23,0,0,0,.23-.24.25.25,0,0,0-.24-.23Zm0,0"/><path class="cls-8" d="M30.5,8.15a.24.24,0,0,0,.24-.24.24.24,0,0,0-.24-.23l-6.17.08a.24.24,0,1,0,0,.47h0Zm0,0"/><path class="cls-8" d="M23.55,10.51a1.31,1.31,0,0,0-1.59-1,1.25,1.25,0,0,0-1,.88,1.5,1.5,0,0,0,.35,1.44,1.19,1.19,0,0,0,.88.38,1.65,1.65,0,0,0,.38,0,1.3,1.3,0,0,0,.94-1.63Zm-1.06,1.17a.78.78,0,0,1-.8-.2,1,1,0,0,1-.24-1,.78.78,0,0,1,.62-.55.81.81,0,0,1,1,.67.82.82,0,0,1-.6,1.06Zm0,0"/><path class="cls-8" d="M35.52,10l-11,.27a.25.25,0,0,0-.23.25.23.23,0,0,0,.24.23h0l11-.27a.24.24,0,0,0,.23-.24.25.25,0,0,0-.24-.24Zm0,0"/><path class="cls-8" d="M30.5,11.84a.24.24,0,0,0,.24-.24.25.25,0,0,0-.24-.24l-6.17.08a.24.24,0,0,0-.24.24.23.23,0,0,0,.24.23h0Zm0,0"/><path class="cls-8" d="M22,13.17a1.25,1.25,0,0,0-1,.88,1.5,1.5,0,0,0,.35,1.44,1.19,1.19,0,0,0,.88.38,1.65,1.65,0,0,0,.38,0A1.37,1.37,0,0,0,22,13.17Zm.53,2.19a.78.78,0,0,1-.8-.2,1,1,0,0,1-.24-1,.81.81,0,0,1,.62-.56l.22,0a.84.84,0,0,1,.8.69.82.82,0,0,1-.6,1.06Zm0,0"/><path class="cls-8" d="M22,16.86a1.26,1.26,0,0,0-1,.87,1.49,1.49,0,0,0,.35,1.44,1.19,1.19,0,0,0,.88.38,1.65,1.65,0,0,0,.38-.05A1.36,1.36,0,0,0,22,16.86ZM22.49,19a.76.76,0,0,1-.8-.2,1,1,0,0,1-.24-1,.78.78,0,0,1,.62-.55.81.81,0,0,1,1,.67.81.81,0,0,1-.6,1.05Zm0,0"/><path class="cls-8" d="M35.52,13.7l-11,.27a.24.24,0,0,0,0,.47h0l11-.27a.23.23,0,0,0,.23-.24.24.24,0,0,0-.24-.23Zm0,0"/><path class="cls-8" d="M24.09,15.36a.24.24,0,0,0,.24.24h0l6.17-.08a.24.24,0,1,0,0-.47l-6.17.07a.24.24,0,0,0-.24.24Zm0,0"/><path class="cls-8" d="M35.52,17.38l-11,.27a.23.23,0,0,0-.23.24.24.24,0,0,0,.24.24h0l11-.28a.23.23,0,0,0,.23-.24.25.25,0,0,0-.24-.23Zm0,0"/><path class="cls-8" d="M30.5,18.73l-6.17.08a.24.24,0,0,0-.24.24.24.24,0,0,0,.24.23h0l6.17-.08a.24.24,0,0,0,.24-.24.24.24,0,0,0-.24-.23Zm0,0"/></g></svg>