<svg id="LEVELS" xmlns="http://www.w3.org/2000/svg" width="70" height="70" viewBox="0 0 70 70"><defs><style>.cls-1{fill:#9c7356;}.cls-2{fill:#e0ae89;}.cls-3{fill:#ece8de;}.cls-4{fill:#333;}.cls-5{fill:#f3ab7d;}.cls-6{fill:#f6c9aa;}.cls-7{fill:#ebeade;}.cls-8{fill:#d8d6c2;}.cls-9{fill:#ffcb5e;}.cls-10{fill:#504c43;}.cls-11{fill:#35322b;}.cls-12{fill:#ffe3a9;}</style></defs><g id="Layer_182" data-name="Layer 182"><path class="cls-1" d="M59,45.53l-5.25-.16q.06-9,.14-18.09Z"/><rect class="cls-2" x="16.93" y="2.76" width="35.92" height="5.58"/><rect class="cls-2" x="17.05" y="42.03" width="35.92" height="5.58"/><rect class="cls-2" x="2" y="22.53" width="35.92" height="5.58" transform="translate(45.28 5.36) rotate(90)"/><rect class="cls-2" x="32.21" y="22.97" width="35.92" height="5.58" transform="translate(75.93 -24.4) rotate(90)"/><rect class="cls-3" x="22.75" y="8.34" width="24.62" height="33.51"/><path class="cls-4" d="M54,45V28.21L58.33,45Zm-1.15,1.5-4.92-4.91V9l4.92-4.91V46.52Zm-34.52.82,4.91-4.92H47.12L52,47.34ZM17.51,4.13,22.42,9V41.61l-4.91,4.91V4.13ZM46.78,9.38V41.27H23.58V9.38ZM52,3.31,47.12,8.22H23.24L18.33,3.31Zm7.6,42.14L54,23.66s0,0,0-.06V2.73a.58.58,0,0,0-.58-.58H16.93a.58.58,0,0,0-.58.58V47.92a.57.57,0,0,0,.58.57H53.42a.57.57,0,0,0,.58-.57V46.18h5.07a.59.59,0,0,0,.46-.23.56.56,0,0,0,.1-.5Z"/><path class="cls-5" d="M37,28.32c0,1.54.09,3.07.13,4.61a2.18,2.18,0,0,1-1.93,1,2.26,2.26,0,0,1-1.79-1.11V28.32Zm0,0"/><path class="cls-6" d="M30,24.67a2.13,2.13,0,0,1-2.34-2.09c0-1.08,1.56-1.26,1.8-1.26Zm0,0"/><path class="cls-6" d="M40.32,24.67a2.12,2.12,0,0,0,2.33-2.09c0-1.08-1.56-1.26-1.79-1.26Zm0,0"/><path class="cls-6" d="M40.86,19.06v2.26s-.23,4-1.44,5.73a15.22,15.22,0,0,1-3.29,2.53H34.22a12.91,12.91,0,0,1-3.3-2.53c-1.18-1.71-1.43-5.73-1.43-5.73V19.06a28.06,28.06,0,0,1,5.68-.63,27.46,27.46,0,0,1,5.69.63Zm0,0"/><path class="cls-7" d="M38.88,22.34A1.83,1.83,0,0,0,37.81,22a2.28,2.28,0,0,0-1.08.34l-.24.73h1.68a.71.71,0,0,0,.71-.71Zm0,0"/><path class="cls-7" d="M31.46,22.34A1.84,1.84,0,0,1,32.54,22a2.28,2.28,0,0,1,1.08.34l.24.73H32.18a.72.72,0,0,1-.72-.71Zm0,0"/><path class="cls-4" d="M40.32,25v-.6a1.81,1.81,0,0,0,2-1.79c0-.86-1.48-1-1.49-1V21c.41,0,2.09.27,2.09,1.56a2.33,2.33,0,0,1-.68,1.67,2.71,2.71,0,0,1-2,.72Zm0,0"/><path class="cls-4" d="M30,25a2.75,2.75,0,0,1-2-.72,2.33,2.33,0,0,1-.68-1.67c0-1.29,1.68-1.56,2.1-1.56v.6s-1.5.1-1.5,1a1.82,1.82,0,0,0,2,1.79Zm0,0"/><path class="cls-4" d="M35.17,26.83A2.57,2.57,0,0,1,33.28,26l.44-.4a2,2,0,0,0,1.46.62h0a2,2,0,0,0,1.43-.62l.45.4a2.6,2.6,0,0,1-1.88.82Zm0,0"/><path class="cls-4" d="M31.37,20.8l-.3-.52a3,3,0,0,1,1.48-.4,3,3,0,0,1,1.46.4l-.31.52a2.19,2.19,0,0,0-1.15-.32,2.31,2.31,0,0,0-1.18.32Zm0,0"/><rect class="cls-4" x="32.06" y="21.98" width="0.96" height="1.08"/><path class="cls-4" d="M33.52,22.61l-.2-.09a1.46,1.46,0,0,0-.77-.24h0a1.55,1.55,0,0,0-.91.3l-.35-.49a2.14,2.14,0,0,1,1.24-.41,2.28,2.28,0,0,1,1.07.3l.12.06Zm0,0"/><path class="cls-4" d="M39,20.8a2.19,2.19,0,0,0-1.18-.32,2.12,2.12,0,0,0-1.14.32l-.31-.52a2.9,2.9,0,0,1,2.94,0Zm0,0"/><rect class="cls-4" x="37.33" y="21.98" width="0.95" height="1.08"/><path class="cls-4" d="M36.83,22.61l-.2-.57.11-.05a2.27,2.27,0,0,1,1.07-.31,2.23,2.23,0,0,1,1.25.42l-.35.49a1.56,1.56,0,0,0-.91-.31,1.6,1.6,0,0,0-.78.24l-.19.09Zm0,0"/><path class="cls-4" d="M36.13,29.88H34.22a.26.26,0,0,1-.15,0,12.8,12.8,0,0,1-3.39-2.63c-1.22-1.75-1.48-5.71-1.49-5.87l.6,0s.26,4,1.38,5.57a12.31,12.31,0,0,0,3.12,2.41h1.76a14.32,14.32,0,0,0,3.13-2.41c1.13-1.6,1.37-5.53,1.38-5.57l.6,0c0,.16-.26,4.14-1.49,5.88a15.33,15.33,0,0,1-3.38,2.62.32.32,0,0,1-.16,0Zm0,0"/><rect class="cls-4" x="36.67" y="29.05" width="0.6" height="1.2"/><rect class="cls-4" x="33.08" y="29.08" width="0.6" height="1.16"/><path class="cls-8" d="M35.07,32.16,37,30.6l6.58,3.06a2.41,2.41,0,0,1,1.38,2.17v5.66H25.42V35.83a2.41,2.41,0,0,1,1.38-2.17l6.58-3.06Zm-1.69-3.84"/><path class="cls-4" d="M44.93,41.93H25.42a.45.45,0,0,1-.45-.44V35.83a2.85,2.85,0,0,1,1.64-2.57l6.58-3.07a.46.46,0,0,1,.49.08l1.41,1.3,1.59-1.32a.46.46,0,0,1,.48-.06l6.57,3.07a2.83,2.83,0,0,1,1.64,2.57v5.66A.44.44,0,0,1,44.93,41.93ZM25.86,41H44.48V35.83a2,2,0,0,0-1.12-1.77L37,31.12,35.36,32.5a.44.44,0,0,1-.59,0l-1.48-1.36L27,34.06a2,2,0,0,0-1.13,1.77Z"/><path class="cls-7" d="M38,31.07l-1,2.58L35.17,32l-1.79,1.68-1-2.58,1-.83L35.17,32,37,30.24Zm0,0"/><path class="cls-9" d="M27.61,34.07,27,32.85l2.63-1.26.58,1.23Zm0,0"/><path class="cls-9" d="M42.74,34.07l.58-1.22-2.63-1.26-.59,1.23Zm0,0"/><path class="cls-10" d="M36.13,32.87l-1-.9-1,.9.26.65-1.1,8H37l-1.11-8Zm0,0"/><path class="cls-4" d="M37,41.93H33.38a.45.45,0,0,1-.34-.15.45.45,0,0,1-.1-.35L34,33.58,33.8,33a.43.43,0,0,1,.11-.49l1-.9a.45.45,0,0,1,.61,0l1,.9a.43.43,0,0,1,.11.49l-.22.54,1.09,7.85a.42.42,0,0,1-.11.35A.41.41,0,0,1,37,41.93ZM33.89,41h2.57l-1-7.46a.45.45,0,0,1,0-.23L35.6,33l-.43-.4-.42.4.15.37a.45.45,0,0,1,0,.23Z"/><rect class="cls-10" x="37.57" y="37.24" width="3.89" height="1.2"/><path class="cls-4" d="M41.46,38.88H37.57a.45.45,0,0,1-.45-.44v-1.2a.45.45,0,0,1,.45-.45h3.89a.45.45,0,0,1,.44.45v1.2A.44.44,0,0,1,41.46,38.88ZM38,38h3v-.31H38Z"/><path class="cls-11" d="M30.53,18.85l-1,2.47a3.12,3.12,0,0,1-1.2-2.52V17Zm0,0"/><path class="cls-11" d="M39.81,18.85l1,2.47a3.12,3.12,0,0,0,1.2-2.52V17Zm0,0"/><path class="cls-8" d="M43.73,15c0,1.33-1.67,1.92-1.67,1.92l-.93,1.29s-1.29,1.19-6,1.19-6-1.19-6-1.19l-.93-1.29s-1.68-.59-1.68-1.92,3.83-3.56,8.56-3.56,8.56,2.24,8.56,3.56Zm0,0"/><path class="cls-4" d="M35.17,19.85c-4.71,0-6.11-1.18-6.26-1.32l-.05-.06L28,17.29c-.45-.2-1.83-.9-1.83-2.29,0-1.76,4.24-4,9-4s9,2.24,9,4c0,1.39-1.39,2.09-1.84,2.29l-.85,1.18-.06.06C41.29,18.67,39.88,19.85,35.17,19.85Zm-5.63-2c.2.14,1.6,1.06,5.63,1.06s5.42-.91,5.63-1.06l.89-1.24a.5.5,0,0,1,.22-.16s1.38-.5,1.38-1.5-3.43-3.11-8.12-3.11S27.06,14.08,27.06,15s1.36,1.49,1.38,1.5a.47.47,0,0,1,.21.16Zm11.59.31Z"/><path class="cls-9" d="M42.06,16.92V18.8S39.93,17,35.17,17s-6.88,1.82-6.88,1.82V16.92A14.76,14.76,0,0,1,35.17,15a14.83,14.83,0,0,1,6.89,1.89Zm0,0"/><path class="cls-4" d="M42.06,19.25a.44.44,0,0,1-.29-.11s-2.09-1.72-6.6-1.72-6.57,1.71-6.59,1.72a.44.44,0,0,1-.48.07.46.46,0,0,1-.26-.41V16.92a.45.45,0,0,1,.22-.38,15.09,15.09,0,0,1,7.11-1.95,15.15,15.15,0,0,1,7.12,1.95.44.44,0,0,1,.21.38V18.8a.44.44,0,0,1-.26.41A.39.39,0,0,1,42.06,19.25Zm-6.89-2.72A12.91,12.91,0,0,1,41.61,18v-.8a14.39,14.39,0,0,0-6.44-1.7,14.33,14.33,0,0,0-6.43,1.7V18A12.89,12.89,0,0,1,35.17,16.53Z"/><path class="cls-9" d="M37.57,14.56l.24-1.08h.55l.52-1H31.46l.52,1h.56l.24,1.08Zm0,0"/><path class="cls-4" d="M37.57,15H32.78a.45.45,0,0,1-.44-.35l-.16-.73H32a.43.43,0,0,1-.39-.24l-.52-1a.42.42,0,0,1,0-.43.46.46,0,0,1,.38-.22h7.42a.45.45,0,0,1,.38.22.44.44,0,0,1,0,.43l-.52,1a.45.45,0,0,1-.4.24h-.2l-.16.73A.43.43,0,0,1,37.57,15Zm-4.43-.89h4.07l.16-.73a.46.46,0,0,1,.44-.35h.28l.07-.12h-6l.07.12h.28a.44.44,0,0,1,.43.35Z"/><path class="cls-12" d="M36.67,14a1.5,1.5,0,1,1-1.5-1.5,1.5,1.5,0,0,1,1.5,1.5Zm0,0"/><path class="cls-4" d="M35.17,15.9A1.95,1.95,0,1,1,37.11,14,1.94,1.94,0,0,1,35.17,15.9Zm0-3a1.05,1.05,0,1,0,1,1.05A1,1,0,0,0,35.17,12.91Z"/><path class="cls-10" d="M28.61,32.1l.58,1.23-.54.26-.58-1.23Zm0,0"/><path class="cls-10" d="M42.25,32.35l-.58,1.23-.54-.26.58-1.23Zm0,0"/><path class="cls-4" d="M29.49,21.62a.27.27,0,0,1-.17-.06A3.37,3.37,0,0,1,28,18.8h.6a2.92,2.92,0,0,0,.78,2l.89-2.1.55.23-1,2.49a.29.29,0,0,1-.19.17Zm0,0"/><path class="cls-4" d="M40.86,21.62h-.09a.33.33,0,0,1-.19-.18l-1-2.48.55-.23.88,2.1a2.87,2.87,0,0,0,.79-2h.59A3.42,3.42,0,0,1,41,21.56a.27.27,0,0,1-.17.06Zm0,0"/><path class="cls-4" d="M37,34a.32.32,0,0,1-.21-.08l-1.59-1.49-1.59,1.48a.3.3,0,0,1-.27.08.34.34,0,0,1-.21-.18l-1-2.58a.31.31,0,0,1,.09-.35l1-.83a.29.29,0,0,1,.39,0l1.59,1.53L36.76,30a.29.29,0,0,1,.39,0l1,.83a.31.31,0,0,1,.09.35l-1,2.58a.28.28,0,0,1-.21.18Zm-1.36-2,1.24,1.16.78-2L37,30.63Zm-2.89-.81.78,2L34.74,32l-1.37-1.33Zm0,0"/><path class="cls-4" d="M27.61,34.37a.16.16,0,0,1-.1,0,.26.26,0,0,1-.17-.15L26.76,33a.29.29,0,0,1,.14-.39l2.63-1.26a.27.27,0,0,1,.23,0,.26.26,0,0,1,.17.15l.58,1.23a.3.3,0,0,1-.14.4l-2.64,1.25a.24.24,0,0,1-.12,0ZM27.43,33l.32.69,2.1-1L29.52,32Zm0,0"/><path class="cls-4" d="M42.74,34.37a.31.31,0,0,1-.13,0L40,33.09a.31.31,0,0,1-.14-.4l.58-1.23a.35.35,0,0,1,.17-.15.24.24,0,0,1,.22,0l2.64,1.26a.29.29,0,0,1,.14.39L43,34.2a.28.28,0,0,1-.17.15.13.13,0,0,1-.09,0Zm-2.23-1.7,2.09,1,.32-.69-2.09-1Zm0,0"/><path class="cls-4" d="M32.24,30.8l.26.55-2.42,1.12-.25-.54Zm0,0"/></g></svg>