<svg id="LEVELS" xmlns="http://www.w3.org/2000/svg" width="70" height="70" viewBox="0 0 70 70"><defs><style>.cls-1{fill:#feefed;}.cls-2{fill:#333;}.cls-3{fill:#c2c3c4;}.cls-4{fill:#f1f2f2;}.cls-5{fill:#fff;}.cls-6{fill:#f89d6d;}.cls-7{fill:#90ca77;}.cls-8{fill:#ec8176;}.cls-9{fill:#94cb67;}</style></defs><g id="HEDGEHOG_STUFF_copy" data-name="HEDGEHOG_STUFF copy"><path class="cls-1" d="M25.05,41.86a3.72,3.72,0,0,1-.8,2.26,1,1,0,0,0-.34.53.8.8,0,0,0,.14.64.81.81,0,0,0,.49.3h1.87l.22-3.74Z"/><path class="cls-2" d="M24.77,41.78a7.78,7.78,0,0,1-.32,1.43,2.71,2.71,0,0,1-.17.39l-.09.15,0,0,0,0a1.51,1.51,0,0,0-.52.9,1.09,1.09,0,0,0,.78,1.12,3.94,3.94,0,0,0,.91,0h1.12a.29.29,0,0,0,.29-.3l.22-3.74a.29.29,0,0,0-.29-.29H25.05a.29.29,0,0,0,0,.58h1.58l-.29-.29-.22,3.74.29-.29H24.69a.51.51,0,0,1-.21,0,.52.52,0,0,1-.29-.55.77.77,0,0,1,.29-.42,2.42,2.42,0,0,0,.48-.78,6.72,6.72,0,0,0,.37-1.58.29.29,0,1,0-.56-.16Z"/><path class="cls-1" d="M49.18,42.29a3.89,3.89,0,0,1-.3.87c-.32.67-.55.68-.64,1.09a1.27,1.27,0,0,0,.28,1.13l.07.06a.93.93,0,0,0,.48.19h2.65c0-1.48.07-3,.1-4.43l-2.49.08A4.84,4.84,0,0,1,49.18,42.29Z"/><path class="cls-2" d="M48.9,42.22a3.93,3.93,0,0,1-.72,1.48A1.51,1.51,0,0,0,48,45a1.3,1.3,0,0,0,.45.65,1.37,1.37,0,0,0,.9.23h2.38a.3.3,0,0,0,.29-.29c0-1.48.07-3,.1-4.43a.28.28,0,0,0-.29-.29L49.33,41a.3.3,0,0,0-.29.29,5,5,0,0,1-.14.94c-.09.36.48.52.57.15a5.72,5.72,0,0,0,.15-1.09l-.29.3,2.49-.09-.29-.29c0,1.48-.07,2.95-.11,4.43l.3-.3h-2a1.63,1.63,0,0,1-.85-.09.74.74,0,0,1-.33-.55,1.13,1.13,0,0,1,.34-.92,4,4,0,0,0,.62-1.41C49.56,42,49,41.85,48.9,42.22Z"/><path class="cls-1" d="M58,36.73,17.48,25a13.73,13.73,0,0,1-4.28,6.82,14,14,0,0,1-9.11,3.29,89.53,89.53,0,0,0,13,5.41A89.42,89.42,0,0,0,26.3,43a1.56,1.56,0,0,1-.16.65c-.27.51-.62.53-.76,1a1.17,1.17,0,0,0,.2,1A1.12,1.12,0,0,0,26,46l2.4.07a.93.93,0,0,0,.46-.2.94.94,0,0,0,.25-.47,13.27,13.27,0,0,0,.18-2.28c1.12.06,1.63.12,2.77.18a88.63,88.63,0,0,0,13,.06,61.53,61.53,0,0,0,6.29-.83,1.14,1.14,0,0,1,0,.56,1.27,1.27,0,0,1-.3.55c-.28.34-.45.36-.67.71a1.84,1.84,0,0,0-.13.25,1.43,1.43,0,0,0-.06.7,1.22,1.22,0,0,0,.75.77l2.84,0a.87.87,0,0,0,.35-.16,1.4,1.4,0,0,0,.4-1c.22-1.88.26-2.55.27-2.62l0-.66A6,6,0,0,0,58,36.73Z"/><path class="cls-2" d="M58,36.44,26.46,27.32l-8.9-2.58a.3.3,0,0,0-.36.21A13.46,13.46,0,0,1,6.6,34.62a14.11,14.11,0,0,1-2.51.22.29.29,0,0,0-.15.54A90.82,90.82,0,0,0,21.08,42q2.55.7,5.14,1.26L26,43c-.05.62-.45.78-.75,1.22a1.27,1.27,0,0,0-.15,1.07,1.42,1.42,0,0,0,.63.85,3,3,0,0,0,1.37.14c.79,0,1.87.26,2.22-.68a7.42,7.42,0,0,0,.25-2.53l-.29.29c2.81.15,5.61.37,8.43.44a70.71,70.71,0,0,0,8.85-.34c1.62-.17,3.24-.4,4.84-.69l-.36-.21c.18.8-.67,1.1-1,1.7a1.44,1.44,0,0,0,0,1.46,1.47,1.47,0,0,0,.86.6,7.24,7.24,0,0,0,1.23,0h1.32c1.49,0,1.37-1.74,1.49-2.84.06-.63.11-1.26.15-1.9l-.14.26a6.39,6.39,0,0,0,3.26-5.09c0-.38-.55-.38-.58,0a5.74,5.74,0,0,1-1.61,3.55,8.92,8.92,0,0,1-1.3,1c-.31.22-.23.6-.25.95,0,.68-.13,1.35-.2,2a4.43,4.43,0,0,1-.17,1.09c-.2.5-.77.39-1.22.4H51.69a1.83,1.83,0,0,1-.81,0,.77.77,0,0,1-.39-.9A1.56,1.56,0,0,1,51,44a1.64,1.64,0,0,0,.58-1.62.3.3,0,0,0-.36-.21,75.21,75.21,0,0,1-17.35.86c-1.54-.08-3.08-.2-4.62-.28a.29.29,0,0,0-.29.29,12.82,12.82,0,0,1-.13,2c-.06.39-.21.69-.65.69l-1.2,0a2.52,2.52,0,0,1-1-.08.8.8,0,0,1-.19-1.13,5.35,5.35,0,0,0,.51-.55,1.78,1.78,0,0,0,.28-.93.3.3,0,0,0-.21-.28,90,90,0,0,1-17.9-5.82q-2.15-1-4.24-2l-.15.54A14.09,14.09,0,0,0,16.57,28.1a14.1,14.1,0,0,0,1.19-3l-.36.21L49,34.44,57.88,37A.3.3,0,0,0,58,36.44Z"/><path class="cls-3" d="M17.48,25A49.33,49.33,0,0,1,20.05,20,48.73,48.73,0,0,1,25,13l-1.61,5.19a35.86,35.86,0,0,1,12.43-7.87l-3,5.18a44.1,44.1,0,0,1,6.41-2.88,42.57,42.57,0,0,1,8.16-2l-3.67,3.93a26.73,26.73,0,0,1,14,.81l-5.88,1.37a23.92,23.92,0,0,1,13.39,7.21,11.12,11.12,0,0,0-2.68-.27,10.88,10.88,0,0,0-2.4.31,22.19,22.19,0,0,1,2.49,3.27A21.79,21.79,0,0,1,65.22,33c-.87-.39-1.76-.78-2.68-1.16l-1.77-.72a43.84,43.84,0,0,1,1.86,4c.5,1.26.91,2.46,1.25,3.58a7.15,7.15,0,0,0-6.28-.76,5.63,5.63,0,0,1,1.21.86A5.22,5.22,0,0,1,60,40.39q-2.4-.59-5.1-1.07c-1.72-.31-3.36-.54-4.92-.72l1.7,1.79a42.62,42.62,0,0,1-4.27-.5q-1.61-.28-3-.63a3.37,3.37,0,0,0-.16,1,3.65,3.65,0,0,0,.64,2.1,9.82,9.82,0,0,1-7.69-2.49l.18,2.31a19.55,19.55,0,0,1-6.77-3.35,19.18,19.18,0,0,1-3.27-3.19,3.54,3.54,0,0,0,.85-2.72,2.29,2.29,0,0,0-1.06-1.75,1.59,1.59,0,0,0-1.79.21c-.29.35-.12.74-.26.8-.37.16-1.72-4.3-5-6.24A7.6,7.6,0,0,0,17.48,25Z"/><path class="cls-2" d="M17.73,25.17A48.63,48.63,0,0,1,25.2,13.24L24.71,13,23.1,18.14a.29.29,0,0,0,.49.28,36,36,0,0,1,12.3-7.79l-.34-.43q-1.47,2.6-2.95,5.19a.3.3,0,0,0,.4.4A43.47,43.47,0,0,1,47.51,10.9l-.29-.49-3.66,3.93a.29.29,0,0,0,.28.49,26.93,26.93,0,0,1,13.88.81v-.57l-5.88,1.37c-.27.07-.29.52,0,.57A23.88,23.88,0,0,1,65.1,24.15l.29-.49a11.88,11.88,0,0,0-5.24,0,.3.3,0,0,0-.13.49,21.76,21.76,0,0,1,4.92,8.87l.43-.33c-1.49-.68-3-1.31-4.52-1.91-.26-.1-.44.22-.33.43a43.62,43.62,0,0,1,3.08,7.53l.43-.33a7.53,7.53,0,0,0-6.51-.79.3.3,0,0,0-.07.54,5,5,0,0,1,2.24,2.35l.33-.43a82,82,0,0,0-10.09-1.8c-.26,0-.36.33-.2.5l1.69,1.79.21-.5A42.52,42.52,0,0,1,44.44,39a.29.29,0,0,0-.36.2,4,4,0,0,0,.5,3.32l.26-.44a9.68,9.68,0,0,1-7.49-2.4c-.17-.15-.52-.06-.5.21L37,42.18l.37-.29a19.35,19.35,0,0,1-9.9-6.46v.42a3.79,3.79,0,0,0,.83-3.43,2.21,2.21,0,0,0-1.11-1.5,1.93,1.93,0,0,0-2,.1,1,1,0,0,0-.44.87v.05c0,.15.08.14.31,0,0-.05,0,.07,0,0a.47.47,0,0,0-.09-.12c-.22-.34-.39-.71-.58-1.07a17,17,0,0,0-2.24-3.33,8.1,8.1,0,0,0-4.66-2.67c-.37-.06-.53.5-.16.57,3,.51,4.88,2.72,6.28,5.23l.65,1.21a2,2,0,0,0,.41.61c.29.24.58,0,.64-.28s0-.39.19-.58a1,1,0,0,1,.5-.2,1.45,1.45,0,0,1,1.21.37c1,1,.62,2.79-.19,3.76a.31.31,0,0,0,0,.42,19.86,19.86,0,0,0,10.16,6.61.3.3,0,0,0,.37-.28l-.18-2.31-.5.21a10.28,10.28,0,0,0,7.9,2.57.3.3,0,0,0,.25-.44,3.44,3.44,0,0,1-.45-2.87l-.36.2a41.47,41.47,0,0,0,7.35,1.14.3.3,0,0,0,.21-.5l-1.7-1.79-.21.5a81.46,81.46,0,0,1,9.94,1.78.3.3,0,0,0,.33-.43,5.62,5.62,0,0,0-2.45-2.56l-.07.53a7,7,0,0,1,6,.73.29.29,0,0,0,.43-.33A43.36,43.36,0,0,0,61,30.94l-.33.43q2.22.87,4.38,1.85c.23.1.51-.06.43-.33a22.34,22.34,0,0,0-5.07-9.12l-.13.49a11.24,11.24,0,0,1,4.93,0,.3.3,0,0,0,.29-.49A24.5,24.5,0,0,0,52,16.44V17l5.88-1.37a.3.3,0,0,0,0-.57,27.47,27.47,0,0,0-14.19-.8l.28.49c1.22-1.31,2.45-2.62,3.67-3.94a.3.3,0,0,0-.29-.49,44,44,0,0,0-14.64,4.95l.4.4,3-5.18c.12-.21-.08-.53-.33-.43A36.62,36.62,0,0,0,23.17,18l.49.28,1.61-5.18a.3.3,0,0,0-.49-.29,49,49,0,0,0-7.56,12.06C17.07,25.22,17.58,25.52,17.73,25.17Z"/><path class="cls-2" d="M19.62,23a29.1,29.1,0,0,1,2.63-4.47l-.18-.08a13.23,13.23,0,0,0-.1,3c0,.08.11.14.17.07a35.76,35.76,0,0,1,8.54-7.2.09.09,0,1,0-.1-.16A35.8,35.8,0,0,0,22,21.35l.17.07a12.7,12.7,0,0,1,.09-2.89.1.1,0,0,0-.18-.08,29.93,29.93,0,0,0-2.63,4.47c-.05.12.12.22.17.1Z"/><path class="cls-2" d="M52.29,18.76a18.17,18.17,0,0,1,6.2,3.82c.09.08.23-.06.14-.14a18.68,18.68,0,0,0-6.29-3.87c-.12,0-.17.14-.05.19Z"/><path class="cls-2" d="M41.57,36.9a19.06,19.06,0,0,0,6.66,1.8.1.1,0,0,0,.1-.1l-.09-2.32-.12.09a25.8,25.8,0,0,0,6.79,1.74c.13,0,.13-.18,0-.19a25.83,25.83,0,0,1-6.74-1.74.1.1,0,0,0-.12.1l.05,1.26c0,.22,0,.45,0,.67s.06.24-.19.27a5.27,5.27,0,0,1-1.11-.14c-.38-.06-.76-.13-1.14-.22a18.32,18.32,0,0,1-4-1.39c-.11-.06-.21.11-.1.17Z"/><path class="cls-2" d="M29.79,36.54a20.65,20.65,0,0,0,5.34,3.58.11.11,0,0,0,.14-.14,20.55,20.55,0,0,0-1.93-3.34c-.07-.1-.24,0-.17.1a20.55,20.55,0,0,1,1.93,3.34l.13-.13a20.55,20.55,0,0,1-5.3-3.54c-.09-.09-.23.05-.14.13Z"/><path class="cls-2" d="M26,32.39a.33.33,0,0,1,.35-.15.52.52,0,0,1,.41.32,1.35,1.35,0,0,1,.1.63,1.11,1.11,0,0,1-.21.63.2.2,0,0,0,0,.28.2.2,0,0,0,.27,0,1.7,1.7,0,0,0,.29-1.43,1,1,0,0,0-.95-.83.75.75,0,0,0-.6.35c-.12.22.22.42.34.2Z"/><path class="cls-2" d="M53.87,43.67A2.91,2.91,0,0,1,53.73,45c0,.12.15.17.19.06a3,3,0,0,0,.15-1.4c0-.05,0-.1-.1-.1a.11.11,0,0,0-.1.1Z"/><path class="cls-2" d="M28.35,44.27a1.1,1.1,0,0,1-.37,1s0,.1,0,.14a.11.11,0,0,0,.14,0,1.32,1.32,0,0,0,.42-1.2.1.1,0,0,0-.12-.07.1.1,0,0,0-.07.12Z"/><path class="cls-4" d="M5.22,34a1.65,1.65,0,0,0-1,.19,1.45,1.45,0,0,0-.69,1.11,1.33,1.33,0,0,0,.33.93,1.47,1.47,0,0,0,1.44.39,1.4,1.4,0,0,0,1-1,1.61,1.61,0,0,0-.12-.88,1.21,1.21,0,0,0-.27-.5A1.17,1.17,0,0,0,5.22,34Z"/><path class="cls-2" d="M5.22,33.68a1.77,1.77,0,0,0-1.51.53,1.59,1.59,0,0,0-.27,1.9,1.67,1.67,0,0,0,1.61.82,1.7,1.7,0,0,0,1.56-1.31,1.75,1.75,0,0,0-.07-.75,3.13,3.13,0,0,0-.24-.6,1.38,1.38,0,0,0-1.08-.59c-.15,0-.29.15-.29.29a.31.31,0,0,0,.29.3l.11,0a.61.61,0,0,1,.18.05.57.57,0,0,1,.28.23,1.54,1.54,0,0,1,.15.35,1.52,1.52,0,0,1,.1.47c0,.52-.5.88-1,1a1.18,1.18,0,0,1-.72-.12,1,1,0,0,1-.3-.23l0,0c0,.06,0,0,0,0l0-.07a1,1,0,0,1-.16-.7.92.92,0,0,1,.09-.28,1.21,1.21,0,0,1,.17-.25l.11-.1,0,0,.17-.11a1.24,1.24,0,0,1,.8-.12.3.3,0,0,0,.3-.3A.31.31,0,0,0,5.22,33.68Z"/><path class="cls-2" d="M5.05,34.62a.92.92,0,0,1,.48,1,.09.09,0,1,0,.18.05,1.11,1.11,0,0,0-.56-1.18c-.11-.06-.21.11-.1.17Z"/><path class="cls-2" d="M18.77,33.92a1.5,1.5,0,0,0,0-3,1.5,1.5,0,0,0,0,3Z"/><path class="cls-5" d="M19.33,32.42a.56.56,0,0,0,0-1.12.56.56,0,0,0,0,1.12Z"/><path class="cls-6" d="M38.74,6.82c-1.52.2-2-.39-3.09-.37a4.56,4.56,0,0,0-3.8,2.37,8.19,8.19,0,0,0,.84,8,4.75,4.75,0,0,0,3.51,2.14c1.41,0,1.76-.74,3.53-.54,1.08.12,1.56.5,2.55.28a3.8,3.8,0,0,0,1.64-.89,7.85,7.85,0,0,0,2.47-7.31,5.65,5.65,0,0,0-1.66-3.1,4.39,4.39,0,0,0-1.74-1,5.27,5.27,0,0,0-2.14,0C39.68,6.53,39.52,6.72,38.74,6.82Z"/><path class="cls-2" d="M38.74,6.63a6.28,6.28,0,0,1-2.24-.28,3.94,3.94,0,0,0-2.15.15,4.71,4.71,0,0,0-3.06,3.24c-.89,3,.11,6.92,2.85,8.71a4,4,0,0,0,2.2.68,7.25,7.25,0,0,0,1.84-.43,5.19,5.19,0,0,1,2.68.12,3.22,3.22,0,0,0,2.26-.26A6.82,6.82,0,0,0,46,15.17a7.83,7.83,0,0,0,.47-5.05,5.21,5.21,0,0,0-3.13-3.78,5,5,0,0,0-2.44-.15c-.77.09-1.49.34-2.25.45-.25,0-.14.41.1.37,1.38-.19,2.74-.78,4.14-.4a4.53,4.53,0,0,1,3,3,7.55,7.55,0,0,1-2.32,8.17,3.06,3.06,0,0,1-2.21.77,21.53,21.53,0,0,0-2.25-.37,5.66,5.66,0,0,0-1.68.35,3.36,3.36,0,0,1-2,.11,5.57,5.57,0,0,1-3.31-3.09A8.3,8.3,0,0,1,31.43,11a4.67,4.67,0,0,1,2.88-4.06,3.68,3.68,0,0,1,2.34-.12A5.47,5.47,0,0,0,38.74,7C39,7,39,6.6,38.74,6.63Z"/><path class="cls-2" d="M37.11,7.69c.12.53.75.71,1.22.77a2.56,2.56,0,0,0,1.52-.22.52.52,0,0,0,.3-.57c-.06-.24-.44-.14-.38.11h0s0,0,0,0,0,0,0,0l0,0h0l0,0h0l-.05,0a1.23,1.23,0,0,1-.23.09l-.3.06a2.56,2.56,0,0,1-1.29-.12l-.14-.08a.32.32,0,0,1-.09-.08c-.05,0,0,0-.07-.09a.32.32,0,0,1,0-.11c-.05-.24-.43-.14-.38.11Z"/><path class="cls-2" d="M38.67,7.62C39,5.78,38.3,4,38.56,2.1c.06-.37-.51-.52-.56-.15-.26,1.84.46,3.69.11,5.52-.08.36.49.52.56.15Z"/><path class="cls-7" d="M38.49,7.7a7.37,7.37,0,0,1,.44-2.3A7.61,7.61,0,0,1,41,2.32,8.35,8.35,0,0,1,43,1c0,.2,0,.5-.06.86a8.83,8.83,0,0,1-.75,3.25,4.61,4.61,0,0,1-3.7,2.61Z"/><path class="cls-2" d="M38.69,7.7A7.72,7.72,0,0,1,43.1,1.14L42.81,1a9.84,9.84,0,0,1-.89,4.22,4.49,4.49,0,0,1-3.43,2.3c-.25,0-.25.42,0,.39a4.87,4.87,0,0,0,3.7-2.39A9.9,9.9,0,0,0,43.2,1a.2.2,0,0,0-.29-.17A8.11,8.11,0,0,0,38.3,7.7C38.29,8,38.68,8,38.69,7.7Z"/><path class="cls-2" d="M40.45,6.39A7.89,7.89,0,0,0,42,4.17c0-.11-.12-.21-.17-.09a7.75,7.75,0,0,1-1.55,2.17.1.1,0,0,0,.14.14Z"/><path class="cls-2" d="M31.69,11.93a10.1,10.1,0,0,0,.94,3.66.1.1,0,0,0,.17-.1,10,10,0,0,1-.91-3.56c0-.12-.2-.12-.2,0Z"/><path class="cls-2" d="M33,16.25a8.51,8.51,0,0,0,1,1.25c.08.09.22-.05.13-.14a8.79,8.79,0,0,1-1-1.21.09.09,0,1,0-.16.1Z"/><path class="cls-2" d="M43.74,7.5A4.09,4.09,0,0,1,44.9,9c.05.12.22,0,.17-.09a4.06,4.06,0,0,0-1.2-1.55c-.09-.08-.23.06-.13.13Z"/><path class="cls-8" d="M51.4,9.08c-1.67-.25-1.86-.5-2.66-.54a4.15,4.15,0,0,0-2.41.61,4,4,0,0,0-1.19,1.19,6.89,6.89,0,0,0-.51,5.75c1.07,3.23,4.1,5,5.16,4.83a7.76,7.76,0,0,1,2.08-.39A10.6,10.6,0,0,1,54,21c1.33.18,3.14-1.58,4-2.84,1.59-2.36,2-5.67.66-7.86a3.36,3.36,0,0,0-1.55-1.51,4.58,4.58,0,0,0-2.77,0,6.93,6.93,0,0,1-2.18.37C51.9,9.15,51.73,9.12,51.4,9.08Z"/><path class="cls-2" d="M51.45,8.89a12.24,12.24,0,0,0-3.55-.51,4.4,4.4,0,0,0-3.51,3,8,8,0,0,0,3.17,8.85,3.18,3.18,0,0,0,2.79.7,4,4,0,0,1,2.61,0,2.76,2.76,0,0,0,1.81.21A7.07,7.07,0,0,0,58.32,18a8.67,8.67,0,0,0,1.25-5.16c-.14-1.57-.88-3.53-2.46-4.18a4.57,4.57,0,0,0-2.74-.07c-.42.09-.84.23-1.26.32a4.87,4.87,0,0,1-1.66,0c-.24,0-.35.34-.1.37a5.05,5.05,0,0,0,2,0,13.72,13.72,0,0,1,2.1-.43,2.91,2.91,0,0,1,2.42.9,5.14,5.14,0,0,1,1,1.88,8.18,8.18,0,0,1-3.3,8.71,2.31,2.31,0,0,1-1.93.51,7.15,7.15,0,0,0-1.93-.46,10.59,10.59,0,0,0-1.94.39,2,2,0,0,1-1.11-.23,7.62,7.62,0,0,1-4.28-7.31c.12-1.93,1.12-3.86,3.13-4.34,1.3-.31,2.5.23,3.77.42C51.6,9.3,51.7,8.93,51.45,8.89Z"/><path class="cls-2" d="M50.76,10.14a3.66,3.66,0,0,0,2.76.22c.24,0,.14-.42-.11-.37A3.24,3.24,0,0,1,51,9.8c-.21-.14-.41.2-.2.34Z"/><path class="cls-2" d="M52.33,10.05A16.6,16.6,0,0,0,52,5.18c-.08-.37-.64-.21-.56.16a16.17,16.17,0,0,1,.3,4.71c0,.38.56.37.59,0Z"/><path class="cls-9" d="M52.21,10a3.77,3.77,0,0,1,.63-2.23,3.52,3.52,0,0,1,.64-.71,15.52,15.52,0,0,1,3.15-2c-.16.26-.42.68-.7,1.22-.73,1.36-.8,1.83-1.2,2.36A4,4,0,0,1,52.21,10Z"/><path class="cls-2" d="M52.41,10a3.7,3.7,0,0,1,.33-1.67A3.77,3.77,0,0,1,53.84,7a15.59,15.59,0,0,1,2.89-1.82l-.26-.27a19.75,19.75,0,0,0-1.06,1.91c-.21.43-.39.89-.62,1.31a3.7,3.7,0,0,1-2.63,1.66c-.24.06-.14.43.1.38a4.15,4.15,0,0,0,2.81-1.74,14.56,14.56,0,0,0,.63-1.32,21.56,21.56,0,0,1,1.1-2,.2.2,0,0,0-.26-.27,15.84,15.84,0,0,0-3,1.94A4,4,0,0,0,52.33,8.3,4.18,4.18,0,0,0,52,10,.2.2,0,0,0,52.41,10Z"/><path class="cls-2" d="M56.12,19.36A12.89,12.89,0,0,0,58,17.08c.06-.11-.11-.21-.17-.1A12.88,12.88,0,0,1,56,19.23c-.09.08,0,.22.14.13Z"/><path class="cls-2" d="M47.86,9.16a3.87,3.87,0,0,0-2.21,1.78c-.06.11.11.21.17.1a3.62,3.62,0,0,1,2.09-1.69.1.1,0,0,0,0-.19Z"/><path class="cls-2" d="M45.21,11.78a3.22,3.22,0,0,0-.15.75c0,.05,0,.1.1.1a.1.1,0,0,0,.09-.1,3.36,3.36,0,0,1,.15-.7.11.11,0,0,0-.07-.12.1.1,0,0,0-.12.07Z"/><path class="cls-2" d="M53,8.77a5.74,5.74,0,0,1,1-1.33c.1-.08,0-.22-.13-.13a5.42,5.42,0,0,0-1.06,1.36.1.1,0,0,0,.17.1Z"/></g></svg>