<svg id="LEVELS" xmlns="http://www.w3.org/2000/svg" width="70" height="70" viewBox="0 0 70 70"><defs><style>.cls-1{fill:#f0f0f8;}.cls-2{fill:#d7deeb;}.cls-3{fill:#9199a8;}.cls-4{fill:#f8d787;}.cls-5{fill:#333;}</style></defs><g id="Layer_168" data-name="Layer 168"><path class="cls-1" d="M50.06,41.4a1.55,1.55,0,0,1-.67.3,1.15,1.15,0,0,1-.26,0,1.8,1.8,0,0,1-.89-.26l-.9-.54-.31,1a1.94,1.94,0,0,1-.42.71,1.63,1.63,0,0,1-1.12.47A1.4,1.4,0,0,1,45,43a1.34,1.34,0,0,1-.55-.45l-.49-.73-.7.54a1.2,1.2,0,0,1-.73.29h-.08A1.66,1.66,0,0,1,41,41.73,2.34,2.34,0,0,1,40.92,40a23,23,0,0,0,9-2.47l1.39-.71-6.7-3.63L33.58,40l-.09.19-3.66,6.5,21.55.12V40.43Zm0,0"/><path class="cls-1" d="M36,29.25a2.32,2.32,0,0,0,0-2l-1.58-5a2.36,2.36,0,0,0-1.1-1.57,1.48,1.48,0,0,0-.57-.1,3.28,3.28,0,0,0-.84.13l-5.81,1.43.09.73a10.31,10.31,0,0,0,.25,1.23l.23.91.87-.35a5.54,5.54,0,0,1,2-.48,3.58,3.58,0,0,1,.48,0,2.1,2.1,0,0,1,1.37.94,1.19,1.19,0,0,1,.14,1c-.27.81-1.39,1.14-2,1.31l-4.05,1.17,1,4.26,8.27-2.88a2.39,2.39,0,0,0,1.3-.85Zm0,0"/><path class="cls-2" d="M44.17,28.69a5.56,5.56,0,0,0,.54-3.49,15.72,15.72,0,0,0-4.51-9.27L41.36,14l-.63-.45a12.17,12.17,0,0,0-1.58-.94,11.57,11.57,0,0,0-3.09-1l-.91-.17-.13,2c-.31,0-.63,0-1,0h-.62a7.38,7.38,0,0,0-5.28,2.35,8.71,8.71,0,0,0-2.05,5.92l0,1L32,21.27a3,3,0,0,1,.71-.11,1,1,0,0,1,.36.06c.47.19.67.84.79,1.23l1.58,5A2,2,0,0,1,35.54,29a2,2,0,0,1-1,.62L26.3,32.45l1.64,7.26,4.13-2.66,1.42,3.6,11.44-7L43.3,29.73a4.58,4.58,0,0,0,.87-1Zm0,0"/><path class="cls-3" d="M34,40.4l-1.63-4.15-4.05,2.59L26.1,29.09l3.55-1c1-.3,2-.71,2.36-1.66a1.75,1.75,0,0,0-.19-1.48,2.61,2.61,0,0,0-1.74-1.2,3.43,3.43,0,0,0-.56,0,6.39,6.39,0,0,0-2.48.63,9.63,9.63,0,0,1-.41-2.77,8.09,8.09,0,0,1,1.92-5.42A6.79,6.79,0,0,1,33.44,14h1.27l.81,0,.16-2.47-.8-.06c-.35,0-.7-.05-1-.05a11.9,11.9,0,0,0-2.54.27c-.27.06-.53.14-.75.21l-.07,0a3.94,3.94,0,0,1-1.17.24,1.69,1.69,0,0,1-.73-.16,4.23,4.23,0,0,1-1.92-2.28,2.9,2.9,0,0,1,.46-3,1.72,1.72,0,0,1,1.18-.44,1.75,1.75,0,0,1,.4,0,1.46,1.46,0,0,1,.55.25l.71.52.47-.75a2.43,2.43,0,0,1,1.82-1.15h.18A2.45,2.45,0,0,1,34.25,6l.63.72L35.5,6a2.3,2.3,0,0,1,1.72-.8,2.71,2.71,0,0,1,.41,0A2.29,2.29,0,0,1,39.2,6.57l.4.93.82-.58a2.16,2.16,0,0,1,.48-.24,2,2,0,0,1,.64-.1,1.7,1.7,0,0,1,1,.3A2.41,2.41,0,0,1,43.46,9L43.4,10l1.06-.23a2.22,2.22,0,0,1,.45-.05l.28,0a1.85,1.85,0,0,1,1.65,2.33,2.27,2.27,0,0,1-.06.25l-.25.75.74.28a.79.79,0,0,1,.4.3,2.44,2.44,0,0,1-.06,2,15.34,15.34,0,0,1-2.29,4.23,12.17,12.17,0,0,0-3.65-5.61l-.74-.65L39.53,16l.43.46a15.07,15.07,0,0,1,4.21,8.79,5.26,5.26,0,0,1-.46,3.17,3.77,3.77,0,0,1-.65.79l-.25.24v.7l.12.13,1.44,3.42.33.13,6.66,3.6,0-34.74-.57-.18c-.38-.12-1.51-.47-10-.47-4.59,0-10.69.1-18.13.3l-2,.05-.05.75c-.2,3-1.23,21.66-1.29,23.45l-.67,20,11.84.06Zm0,0"/><path class="cls-4" d="M44.77,43.5a1.75,1.75,0,0,0,.72.14A2.1,2.1,0,0,0,47,43a2.45,2.45,0,0,0,.64-1.32,2.29,2.29,0,0,0,1.49.56,2.19,2.19,0,0,0,.36,0,2.28,2.28,0,0,0,1.81-1.89l.08-.15V36.13l-1.22.66a22.7,22.7,0,0,1-9.07,2.65l-.59,0-.15.57A2.76,2.76,0,0,0,40.52,42a2.22,2.22,0,0,0,1.92,1.22h.11a1.87,1.87,0,0,0,1.28-.64,1.83,1.83,0,0,0,.94.94Zm0,0"/><path class="cls-4" d="M38.91,13.12a11.57,11.57,0,0,1,5.73,6.48l.54,1.5.91-1.3a15.81,15.81,0,0,0,2-3.91,2.93,2.93,0,0,0,0-2.49,1.39,1.39,0,0,0-1-.6,3,3,0,0,0,.19-.58,2.5,2.5,0,0,0-.37-2,2.47,2.47,0,0,0-1.74-1l-.35,0a2.73,2.73,0,0,0-1,.18,3,3,0,0,0-1.09-2.95A2.29,2.29,0,0,0,41.54,6a2.54,2.54,0,0,0-.81.13,2.24,2.24,0,0,0-.91.57,2.67,2.67,0,0,0-2.59-2A2.89,2.89,0,0,0,34.88,6a3,3,0,0,0-2.45-1.32h-.22a3,3,0,0,0-2.4,1.69,1.89,1.89,0,0,0-1-.55,2.16,2.16,0,0,0-.51-.06,2.26,2.26,0,0,0-1.55.59,3.4,3.4,0,0,0-.6,3.57,4.78,4.78,0,0,0,2.2,2.59,2.26,2.26,0,0,0,.95.21,4.61,4.61,0,0,0,1.35-.27c.23-.07.48-.15.75-.21A11.93,11.93,0,0,1,33.85,12a11.56,11.56,0,0,1,5.06,1.17Zm0,0"/><path class="cls-5" d="M51.11,47.06a.55.55,0,0,0,.39-.16.57.57,0,0,0,.16-.39L51.62,3a.68.68,0,0,0-.21-.48c-.66-.64-4.61-1.14-28.83-.48l-1.71,0c-.51,0-.54.5-.56.77s0,.4,0,.71c0,.61-.09,1.49-.15,2.54-.13,2.11-.29,4.94-.45,7.83C19.36,19.4,19,25.69,19,26.59l-.65,19.72a.56.56,0,0,0,.15.41.6.6,0,0,0,.4.17l32.22.17ZM46.8,41a1.63,1.63,0,0,1-.4,1.44,1.23,1.23,0,0,1-1.31.3,1,1,0,0,1-.59-.88,2.7,2.7,0,0,0,0-.28.55.55,0,0,0-1.09-.17,1.37,1.37,0,0,0-.05.28,1.06,1.06,0,0,1-.9.69,1.39,1.39,0,0,1-1.25-.78,2,2,0,0,1-.11-1.34,23.28,23.28,0,0,0,9.4-2.75V40a.53.53,0,0,0-.08.22,1.42,1.42,0,0,1-1.14,1.23,1.44,1.44,0,0,1-1.49-.77.56.56,0,0,0-.67-.29.57.57,0,0,0-.37.64ZM20.1,26.62c.06-1.71,1.09-20.22,1.29-23.42l1.22,0c21.6-.6,26.84-.21,27.9.13l0,32.75-5.48-3-.06,0-1.36-3.24h0a4.89,4.89,0,0,0,.78-1A6.06,6.06,0,0,0,45,25.17a15.89,15.89,0,0,0-4.43-9.28l.57-.94a11.28,11.28,0,0,1,3.54,5.71.57.57,0,0,0,.41.41h.12a.54.54,0,0,0,.43-.2A16.25,16.25,0,0,0,48.39,16a3.2,3.2,0,0,0,0-2.74,1.59,1.59,0,0,0-.81-.63l.09-.33A2.68,2.68,0,0,0,45.29,9a2.84,2.84,0,0,0-1,.05A3.22,3.22,0,0,0,43,6.2a2.69,2.69,0,0,0-2.37-.3,2.42,2.42,0,0,0-.7.35,3,3,0,0,0-5.08-.77,3.16,3.16,0,0,0-5.14.41,2.17,2.17,0,0,0-.86-.38,2.6,2.6,0,0,0-2.32.6A3.71,3.71,0,0,0,25.88,10a5.14,5.14,0,0,0,2.35,2.75,3.18,3.18,0,0,0,2.49-.05c.24-.07.49-.15.74-.2a11.13,11.13,0,0,1,3.35-.21l-.06.86c-.43,0-.87,0-1.34,0a7.59,7.59,0,0,0-5.48,2.44h0a9.59,9.59,0,0,0-1.59,9.28.55.55,0,0,0,.3.33.58.58,0,0,0,.45,0,5.46,5.46,0,0,1,2.85-.65,1.86,1.86,0,0,1,1.18.81.94.94,0,0,1,.11.79c-.2.6-1,.9-1.8,1.14l-3.8,1.09a.57.57,0,0,0-.39.66L27.57,39.4a.59.59,0,0,0,.33.39.78.78,0,0,0,.21,0,.53.53,0,0,0,.3-.09l3.53-2.26,1.12,2.86L30,45.84l-10.51-.06ZM33.9,39.43l-1-2.56L42,31.05l.78-.52,1.16,2.76ZM32.07,24.79a2.9,2.9,0,0,0-1.94-1.34,5.46,5.46,0,0,0-2.91.48A8.67,8.67,0,0,1,27,22.8l5.1-1.25a1.48,1.48,0,0,1,.89-.06c.32.13.49.61.63,1l1.58,5a1.72,1.72,0,0,1,.09,1.28,1.68,1.68,0,0,1-.88.5L27,31.9l-.58-2.61,3.29-.95c.7-.2,2.14-.61,2.55-1.84a2,2,0,0,0-.21-1.71Zm2.71,5.58a2.71,2.71,0,0,0,1.45-1,2.66,2.66,0,0,0,0-2.21l-1.58-5a2.57,2.57,0,0,0-1.26-1.74,2.52,2.52,0,0,0-1.59,0l-4.91,1.21a7.81,7.81,0,0,1,1.84-5.36,6.5,6.5,0,0,1,4.69-2.07,11.2,11.2,0,0,1,1.66,0l.12,0h.08a6.38,6.38,0,0,1,4.19,2.1,14.88,14.88,0,0,1,4.39,8.9,4.76,4.76,0,0,1-.43,3,6.26,6.26,0,0,1-2.1,1.85L28.48,38.38,27.27,33Zm8.38-20a.56.56,0,0,0,.69,0,1.7,1.7,0,0,1,1.3-.35,1.66,1.66,0,0,1,1.18.66A1.72,1.72,0,0,1,46.57,12a2.25,2.25,0,0,1-.21.55,1.22,1.22,0,0,0-.82.95.54.54,0,0,0,.23.55.57.57,0,0,0,.6,0,2.71,2.71,0,0,0,.61-.51.59.59,0,0,1,.45.22c.24.38.21.94-.09,1.78a15.26,15.26,0,0,1-1.92,3.72A12.24,12.24,0,0,0,31.23,11.4c-.3.07-.57.15-.84.24a2.15,2.15,0,0,1-1.69.09,3.94,3.94,0,0,1-1.77-2.12,2.57,2.57,0,0,1,.39-2.7,1.53,1.53,0,0,1,1.31-.32,1,1,0,0,1,.74.56.55.55,0,0,0,1.05-.07,2.08,2.08,0,0,1,3.95-.34.54.54,0,0,0,.52.34.55.55,0,0,0,.51-.35,1.91,1.91,0,0,1,3.69.77.55.55,0,0,0,1.08.2A1.24,1.24,0,0,1,41,7a1.61,1.61,0,0,1,1.4.16A2.23,2.23,0,0,1,43,9.75a.56.56,0,0,0,.18.67Zm-4.38,3a10.5,10.5,0,0,1,1.48.88l-.51.83a7.34,7.34,0,0,0-3.89-1.85l0-.81a10.64,10.64,0,0,1,2.87,1ZM31.24,45.85l3-5.29a0,0,0,0,1,0,0l10.44-6.42,4.9,2.66a22.07,22.07,0,0,1-8.86,2.39.56.56,0,0,0-.48.34,3.15,3.15,0,0,0,0,2.59,2.45,2.45,0,0,0,2.3,1.38,2.07,2.07,0,0,0,1.2-.46,2,2,0,0,0,.89.74,2.21,2.21,0,0,0,.84.17,2.4,2.4,0,0,0,1.7-.71,2.49,2.49,0,0,0,.62-1,2.48,2.48,0,0,0,1.72.34,2.29,2.29,0,0,0,1-.45V46Zm0,0"/></g></svg>