<svg id="LEVELS" xmlns="http://www.w3.org/2000/svg" width="70" height="70" viewBox="0 0 70 70"><defs><style>.cls-1{fill:#ed6c66;}.cls-2{fill:#f1f2f9;}.cls-3{fill:#af7979;}.cls-4{fill:#a6def4;}.cls-5{fill:#dba1a1;}.cls-6{fill:#333;}</style></defs><g id="Layer_179" data-name="Layer 179"><path class="cls-1" d="M35.74,4.7l-16.17,10L13,20.1l2.53,2.69,12.79-8.32L37.1,8.88,48.4,19.09l4.83,3.42,3.62-3L41.33,7.23Zm0,0"/><path class="cls-2" d="M37.1,8.88,53.23,22.51S53,42.63,52.84,42.63l-34.19-.26L18.2,20.94Zm0,0"/><path class="cls-3" d="M20.35,5.15,26.42,5s-.16,5.17-.24,5.37-5.79,4-5.79,4Zm0,0"/><path class="cls-3" d="M32,29.54c.16,0,8.05.25,8.05.25l.12,12.94-8.95.2.16-12.2Zm0,0"/><path class="cls-4" d="M32.94,16.28A4.37,4.37,0,0,0,32.12,19a3.83,3.83,0,0,0,.8,2.44,3.33,3.33,0,0,0,1.76,1.05,5,5,0,0,0,2.07,0,3.08,3.08,0,0,0,1.44-.6A3.08,3.08,0,0,0,39.13,20a4.94,4.94,0,0,0-.73-3.58A3.64,3.64,0,0,0,36.34,15a3.48,3.48,0,0,0-3.4,1.26Zm0,0"/><path class="cls-4" d="M21.46,24.24c.05,0,6.45.24,6.45.24l-.22,10.44-6,.1Zm0,0"/><path class="cls-4" d="M43,24.22l6.39.34,0,10.29-6.11.1Zm0,0"/><path class="cls-5" d="M55.05,43.11l-30.37-.35-9.55-.22L14,43.71,14.82,45l3.62.22,22.34-.06,15.44.41,1.19-1.49L56.85,43Zm0,0"/><path class="cls-5" d="M25.87,2.33c-.44,0-.89-.09-1.34-.09s-.89,0-1.33.09-.61-.05-.92,0l-1.37.14c-.26,0-.5,0-.75,0a3.27,3.27,0,0,0-.77.23,1.79,1.79,0,0,0-1,1A1.11,1.11,0,0,0,18.76,5a1.85,1.85,0,0,0,1,.16l1.07,0L24.67,5l1.91-.09c.51,0,1.08.12,1.34-.42a1.53,1.53,0,0,0,0-1.15,1.1,1.1,0,0,0-.68-.6,4.56,4.56,0,0,0-1.36-.36Zm0,0"/><path class="cls-6" d="M57.77,43.41c-.7-1.48-2.92-1.09-4.24-1.08.09-1.57,0-3.15.06-4.72s0-3.44,0-5.17c0-3.17,0-6.34-.12-9.51a3.16,3.16,0,0,0,1.21-.28c1.14-.5,3.9-2.42,2.4-3.81A28,28,0,0,0,54.52,17c-.91-.67-1.81-1.36-2.69-2.08-1.51-1.23-3-2.52-4.44-3.79a48.68,48.68,0,0,0-9.46-6.82,3.09,3.09,0,0,0-2.63-.42,14.78,14.78,0,0,0-2.58,1.74C31.48,6.45,30.23,7.3,29,8.15L27.08,9.32c0-.5,0-1,0-1.46,0-.8,0-1.6.06-2.39a1.2,1.2,0,0,0,1.24-1.14c.13-.92.15-2-.61-2.35a1.47,1.47,0,0,0-.64-.15c-1.24-.05-2.49-.06-3.74,0a17.16,17.16,0,0,0-3.66.15A1.86,1.86,0,0,0,18.1,3.76c0,.82.18,1.76,1.15,1.87a3.09,3.09,0,0,0,.53,0c0,2.81-.23,5.64-.09,8.45a.09.09,0,0,0,0,.05c-2,1.37-4,2.76-5.91,4.2-.64.47-1.76,1-1.74,1.93s.95,1.61,1.47,2.18a2.34,2.34,0,0,0,2.15,1.07A5.71,5.71,0,0,0,18,22.22c-.08,1.34-.06,2.7-.09,4,0,1.73,0,3.46,0,5.19,0,3.4.08,6.82.19,10.22a.78.78,0,0,0,0,.16l-1,0a4.71,4.71,0,0,0-2.58.32,1.81,1.81,0,0,0,.05,3.24,4.72,4.72,0,0,0,2.26.41c1,0,2.07.07,3.11.09,4,.07,8,0,12.06,0s8-.1,11.92-.07q3,0,6,.12c.9,0,1.81.07,2.71.12a23.56,23.56,0,0,0,3,.15c1.31-.1,2.87-1.27,2.17-2.75ZM19.14,3.86a1,1,0,0,1,.62-.66,5.56,5.56,0,0,1,1.9-.26L24,2.83a18.45,18.45,0,0,1,2,0c.67,0,1.25.23,1.21,1a3.35,3.35,0,0,1-.08.51,20.24,20.24,0,0,1-2.34.12q-1.2.06-2.4.09c-.75,0-1.53.06-2.28,0-.38,0-1-.17-.9-.67Zm6.5,6c-1.54.13-3.08.28-4.63.38,0-.79-.09-1.59-.16-2.37l5-.28a1.79,1.79,0,0,1,0,.23,9.31,9.31,0,0,0-.16,2ZM21,10.81c1.3,0,2.61-.05,3.91-.13q-2,1.26-3.9,2.56c0-.8,0-1.62,0-2.43ZM20.82,7.5c-.05-.63-.11-1.26-.16-1.88h2L26,5.52,25.89,7c-1.69.12-3.39.27-5.07.48ZM17,21.27a8.54,8.54,0,0,1-1.19.8c-.52.24-.75.08-1.11-.31a8.66,8.66,0,0,1-.87-1.05c-.07-.1-.2-.24-.28-.37l.12-.14.2-.16c3.53-2.73,7.18-5.32,10.87-7.83,2.36-1.6,4.72-3.21,7.11-4.78,1.07-.68,2.16-1.35,3.26-2a1.32,1.32,0,0,1,1.41-.2c.4.17.77.38,1.15.58.78.42,1.54.88,2.29,1.37a49.65,49.65,0,0,1,4.31,3.21c2.78,2.3,5.44,4.75,8.32,6.94.81.62,1.63,1.22,2.46,1.82l.55.39c.1.08.26.18.29.33s-.13.3-.24.39a8.59,8.59,0,0,1-.76.59,2.19,2.19,0,0,1-2.41.44,15.94,15.94,0,0,1-2.29-1.64c-3.11-2.38-6.1-4.92-9-7.58-.71-.66-1.42-1.33-2.12-2-.53-.52-1.2-1.5-2-1.65s-1.69.64-2.34,1.05l-2.58,1.63c-3.42,2.19-6.82,4.43-10.17,6.73-1.68,1.15-3.36,2.29-5,3.45ZM51.86,42.33l-10.34,0h-.75c0-2.47,0-4.93,0-7.4V31.1c0-.9,0-1.77-1.06-2a14.52,14.52,0,0,0-3.42-.3,25.77,25.77,0,0,0-3.51.24c-1,.13-1.81.38-2,1.52a25.83,25.83,0,0,0-.08,3.52c0,2.73-.11,5.5.11,8.23h-.38L26,42.11l-6.07-.21-.39,0a1.25,1.25,0,0,0,0-.21c-.11-3.41-.2-6.81-.31-10.22-.06-1.69-.1-3.37-.17-5.05s-.06-3.24-.2-4.84c3.42-2.44,6.9-4.79,10.42-7.08q2.77-1.82,5.59-3.57l1.35-.84c.24-.14.5-.38.8-.25s.46.46.63.63c.75.74,1.51,1.48,2.28,2.2C43,15.58,46.3,18.36,49.67,21a10.09,10.09,0,0,0,2.74,1.77c-.18,3.23-.27,6.46-.38,9.69-.05,1.68-.07,3.36-.1,5s-.11,3.23-.07,4.85Zm-12.39,0-7.81,0c.22-2.55.21-5.13.28-7.69,0-.72,0-1.44.07-2.16a5.92,5.92,0,0,1,.08-1.74c.2-.58,1.23-.53,1.76-.59s1.29-.1,1.94-.1,1.2,0,1.81.06c.34,0,.68.06,1,.11s.73,0,.88.21,0,.81,0,1,0,.55,0,.82c0,.73,0,1.45,0,2.18,0,2.64-.06,5.29,0,7.94Zm17,2c-.21.7-1.22.67-1.79.66l-2.8-.1c-1.76,0-3.52-.09-5.28-.11-3.57,0-7.13,0-10.7,0s-7.14,0-10.71,0c-1.8,0-3.61,0-5.41-.09l-2.44-.08c-.68,0-2,.12-2.42-.51s0-.85.62-1c3.3.07,6.6.2,9.9.22,3.54,0,7.08,0,10.62.09l10.76.15,5.31.07,2.59,0c.4,0,2-.16,1.75.61Zm0,0"/><path class="cls-6" d="M26.24,23.82c-.8-.05-1.61-.08-2.41-.11a6.58,6.58,0,0,0-2.3,0c-.57.21-.55.79-.57,1.3-.05.93,0,1.86,0,2.79,0,.7,0,1.39,0,2.09A39.75,39.75,0,0,0,21,34.4c0,.5.16.89.7,1a11.12,11.12,0,0,0,2.31.09c.79,0,1.58,0,2.36,0,.57,0,1.33.1,1.69-.45a3.77,3.77,0,0,0,.22-1.83c0-.88.08-1.77.11-2.66.06-1.58.15-3.17.16-4.76,0-.51.13-1.27-.3-1.66s-1.45-.3-2-.34ZM24.33,34.5a9.6,9.6,0,0,0-1.6,0,1.94,1.94,0,0,0-.69.11c0-.47,0-.94-.07-1.41-.08-1.16-.15-2.33-.2-3.5a25.64,25.64,0,0,0,2.63.2c0,1.53-.06,3.06-.07,4.6Zm.09-5.59a26.37,26.37,0,0,0-2.67.12l0-1.07c0-.72,0-1.45,0-2.18,0-.19,0-1,.14-1.14a3,3,0,0,1,.58,0l2.1.06c-.06,1.39-.12,2.78-.16,4.17Zm2.87,5.4c-.14.29-.45.2-.76.2H25.24v-4.6c.75,0,1.5,0,2.25,0,0,1.16-.11,2.32-.16,3.48a3.21,3.21,0,0,1,0,.93Zm.35-8.62c0,1.08-.05,2.15-.1,3.23l-2.31,0V24.77l1.28.06a4.17,4.17,0,0,1,.94.05c.29.13.19.47.19.81Zm0,0"/><path class="cls-6" d="M47.8,23.82c-.81-.05-1.61-.08-2.42-.11a6.52,6.52,0,0,0-2.29,0c-.57.21-.55.79-.58,1.3,0,.93,0,1.86,0,2.79,0,.7,0,1.39,0,2.09a39.75,39.75,0,0,0,.05,4.5c0,.5.16.89.69,1a11.21,11.21,0,0,0,2.32.09c.79,0,1.57,0,2.36,0,.57,0,1.33.1,1.69-.45a3.89,3.89,0,0,0,.22-1.83c0-.88.07-1.77.11-2.66.06-1.58.14-3.17.16-4.76,0-.51.13-1.27-.3-1.66s-1.46-.3-2-.34ZM45.89,34.5a9.6,9.6,0,0,0-1.6,0,1.94,1.94,0,0,0-.69.11c0-.47,0-.94-.08-1.41-.08-1.16-.14-2.33-.19-3.5a25.45,25.45,0,0,0,2.62.2c0,1.53-.06,3.06-.06,4.6ZM46,28.91A26.7,26.7,0,0,0,43.3,29c0-.36,0-.71,0-1.07,0-.72,0-1.45,0-2.18,0-.19,0-1,.14-1.14a3,3,0,0,1,.58,0l2.1.06c-.07,1.39-.12,2.78-.16,4.17Zm2.87,5.4c-.14.29-.45.2-.76.2H46.8c0-1.53,0-3.07,0-4.6.76,0,1.51,0,2.26,0,0,1.16-.12,2.32-.16,3.48a3.21,3.21,0,0,1,0,.93Zm.35-8.62c0,1.08-.06,2.15-.1,3.23l-2.31,0V24.77l1.28.06a4.05,4.05,0,0,1,.93.05c.3.13.2.47.2.81Zm0,0"/><path class="cls-6" d="M33.71,14.74a4.82,4.82,0,0,0-2.13,3.07A3.67,3.67,0,0,0,32,20.66a4.46,4.46,0,0,0,5.11,2.23,3.63,3.63,0,0,0,2.26-2.6,5.49,5.49,0,0,0-.06-3.73,3.94,3.94,0,0,0-5.61-1.82Zm1.53,7.35A3.33,3.33,0,0,1,33.13,21a3.21,3.21,0,0,1-.77-2c1,0,2,.05,3,.07,0,1-.11,2-.13,3Zm.18-3.87a23.4,23.4,0,0,0-3,.14,4.49,4.49,0,0,1,1.69-2.76,3.06,3.06,0,0,1,.88-.3,2.91,2.91,0,0,1,.6-.06c0,1-.09,2-.15,3Zm3.19,1.38a4.82,4.82,0,0,1-.75,1.74,2,2,0,0,1-1.66.79H36c0-1,0-2,0-3l2.64.06c0,.15,0,.3-.07.44ZM36,18.22a28.59,28.59,0,0,1,.11-2.93,3.05,3.05,0,0,1,1.62.76,3.35,3.35,0,0,1,.94,2.23L36,18.22Zm0,0"/><path class="cls-6" d="M33.68,35.31a.86.86,0,0,0-.6,1.59.79.79,0,0,0,.82.08.82.82,0,0,0,.41-.5.64.64,0,0,0,0-.23.57.57,0,0,0,0-.13.84.84,0,0,0-.69-.81Zm0,0"/></g></svg>