<svg xmlns="http://www.w3.org/2000/svg" width="70" height="70" viewBox="0 0 70 70">
  <defs>
    <style>
      .cls-1, .cls-10 {
        fill: #fff;
      }

      .cls-2 {
        fill: #cbdf82;
      }

      .cls-3 {
        fill: #94c667;
      }

      .cls-4 {
        fill: #63cdf6;
      }

      .cls-5 {
        fill: #231f20;
      }

      .cls-6 {
        fill: #bcbec0;
      }

      .cls-7 {
        fill: #333;
      }

      .cls-8 {
        fill: #d44241;
      }

      .cls-9 {
        fill: #dc5a5a;
      }

      .cls-10 {
        opacity: 0.7;
      }
    </style>
  </defs>
  <g id="Layer_184" data-name="Layer 184">
    <g>
      <path class="cls-1" d="M22.12,44.3A223.06,223.06,0,0,1,11.49,18.4a4.89,4.89,0,0,1-.36-2c.14-1.42,1.51-2.39,3-3.23a5.56,5.56,0,0,1,.77-.39,1.64,1.64,0,0,1,.4-.12,1.11,1.11,0,0,1,1,.27,1.8,1.8,0,0,1,.29.53L22,26.77h0v0l5.53,13.48-.16,0c-.41.14-.89.3-1.35.48a8.62,8.62,0,0,0-1.49.73,4.79,4.79,0,0,0-2.14,2.58l0,.13-.11.46Zm0,0"/>
      <path class="cls-1" d="M57.76,30.64a3.76,3.76,0,0,0-1.63-.52,7.29,7.29,0,0,0-3.22.61l-.93.39-.15.07L51.77,31C50,26.65,48.2,22.31,46.23,17.51l0-.13L40.54,3.61a1.86,1.86,0,0,1-.18-.67c0-.44.37-.8,1.06-1.07A5.14,5.14,0,0,1,42,1.68a5.74,5.74,0,0,1,3.26-.21C46.73,2,47.5,3.62,48.1,5.12c1.81,4.48,3.56,9,5.26,13.45l0,.13c1.49,3.86,3,7.85,4.58,11.75l.17.43Zm0,0"/>
      <path class="cls-2" d="M52,34.21a5.3,5.3,0,0,1-1.45.34,5.1,5.1,0,0,1-3.47-.85,3.58,3.58,0,0,1-1.49-3.09,6.11,6.11,0,0,1,.18-.89c0-.23.12-.49.16-.76a2.13,2.13,0,0,0-.42-1.79,2.76,2.76,0,0,0-2-.63,5.48,5.48,0,0,1-.72,0,2.63,2.63,0,0,1-2-1.24A1.91,1.91,0,0,1,41,23.08a4,4,0,0,1,.58-.47h0a2.79,2.79,0,0,0,.92-.89,2.77,2.77,0,0,0,.16-1.6v0c0-.14,0-.27,0-.4a4,4,0,0,1,2.26-3.76l.15-.07.76,1.86.27.66.06.14-.14.07A3.45,3.45,0,0,0,48.61,25l.14,0,.06.14,2.67,6.53a.22.22,0,0,0,.28.13h.08c.41-.19.82-.37,1.25-.54a9.55,9.55,0,0,1,1-.35l.17-.05,0,.18a3.06,3.06,0,0,1-1,2.45,4,4,0,0,1-1.31.81Zm0,0"/>
      <path class="cls-2" d="M25.75,26.22a5.81,5.81,0,0,1-3.22.3l-.08,0-1.21-2.93.19,0a3.38,3.38,0,0,0,.42-.13,3.06,3.06,0,0,0,1.9-2.62,6,6,0,0,0-.14-1.34h0a3.11,3.11,0,0,1,0-1.84,3.23,3.23,0,0,1,1.63-1.35,3.44,3.44,0,0,0,1.88-1.69,3,3,0,0,0-.39-2.37L26.65,12l.16-.06.5-.2.5-.2,3.28-1.3.12,0,.07.1a1.93,1.93,0,0,1-.22,2.4,3.08,3.08,0,0,1-.44.35h0a2.38,2.38,0,0,0-.82.82,2.47,2.47,0,0,0,.3,2.26h0A2.61,2.61,0,0,1,30.58,18a1.83,1.83,0,0,1-1.11,1h0a6.75,6.75,0,0,1-.8.24h0a9.18,9.18,0,0,0-.9.28h0A2.14,2.14,0,0,0,26.34,21,2.82,2.82,0,0,0,27,23a2.51,2.51,0,0,1,.56,1.7,1.85,1.85,0,0,1-1,1.15,4.08,4.08,0,0,1-.73.35Zm0,0"/>
      <path class="cls-2" d="M38.27,43.82c-2.06.82-3.77,1.43-5.36,1.94l-.14.05-.05-.14a3.31,3.31,0,0,0-3.26-2,6.56,6.56,0,0,0-1.09.21,2.89,2.89,0,0,1-1.83.07c-.74-.33-1-1.26-1.26-2.11l0-.12.11-.06c.27-.13.56-.26.89-.39.51-.2,1-.37,1.53-.53h0a.18.18,0,0,0,.08-.05l0,0H28a.21.21,0,0,0,.13-.13.19.19,0,0,0,0-.18l-.6-1.48.11-.07a3.17,3.17,0,0,1,.44-.23,1.4,1.4,0,0,1,1,0,2.29,2.29,0,0,1,1.41,1.17,4.73,4.73,0,0,1,.29.85A3.09,3.09,0,0,0,31.46,42a2.1,2.1,0,0,0,1.57.53,3.33,3.33,0,0,0,1-.25l.47-.21a15.11,15.11,0,0,0,1.51-.91h0c.34-.22.72-.47,1.11-.69A6.67,6.67,0,0,1,38,40a3.7,3.7,0,0,1,1.91-.27,3.51,3.51,0,0,1,2.53,2.15v0l.07.15-.65.26c-1.18.49-2.41,1-3.63,1.47Zm0,0"/>
      <path class="cls-3" d="M48.42,24.54a3,3,0,0,1-4-3.19A3.07,3.07,0,0,1,46.16,19l.15-.07.06.15c.71,1.73,1.43,3.48,2.14,5.23l.07.15Zm0,0"/>
      <path class="cls-3" d="M21.67,23a2.75,2.75,0,0,1-.47.13h-.15l-3.16-7.72.15-.05c2.61-1,5.31-2,8-3.08l.14-.06.06.13a2.62,2.62,0,0,1,.4,2.06c-.23.68-.92,1-1.64,1.43a3.64,3.64,0,0,0-1.86,1.59,3.53,3.53,0,0,0,0,2.11,5.3,5.3,0,0,1,.14,1.24A2.58,2.58,0,0,1,21.67,23Zm0,0"/>
      <path class="cls-3" d="M32.15,46a42.94,42.94,0,0,1-5.35,1.29,4.06,4.06,0,0,1-3.14-.35,2.52,2.52,0,0,1-.75-2.68,4.18,4.18,0,0,1,1.73-2.19l.18-.12.06.21a3.11,3.11,0,0,0,1.47,2.2,3.24,3.24,0,0,0,2.13,0,6.79,6.79,0,0,1,1-.2,2.84,2.84,0,0,1,2.75,1.67l.07.16Zm0,0"/>
      <path class="cls-4" d="M44.8,15.27l.06.14-.14.06a4.49,4.49,0,0,0-2.57,4.24c0,.16,0,.32,0,.45a2.29,2.29,0,0,1-.1,1.34,2.32,2.32,0,0,1-.77.72,4.13,4.13,0,0,0-.68.54,2.39,2.39,0,0,0-.26,2.74A3.09,3.09,0,0,0,42.72,27c.26,0,.53,0,.77.05a2.3,2.3,0,0,1,1.71.47,1.74,1.74,0,0,1,.3,1.4c0,.24-.1.47-.16.72h0a7.25,7.25,0,0,0-.18.95,4,4,0,0,0,1.68,3.51,5.56,5.56,0,0,0,3.79,1,5.87,5.87,0,0,0,1.59-.38,4.47,4.47,0,0,0,1.45-.91,3.46,3.46,0,0,0,1.1-2.92l0-.15.15,0a4.83,4.83,0,0,1,1.19-.05,3.26,3.26,0,0,1,2,.91,2.34,2.34,0,0,1,.76,1.67,2.82,2.82,0,0,1-1,1.92,8.86,8.86,0,0,1-2,1.21c-4.17,2-8.59,3.84-12.76,5.55l-.16.07-.05-.16v0A3.91,3.91,0,0,0,40,39.3a4.22,4.22,0,0,0-2.16.3,7.07,7.07,0,0,0-.92.45c-.39.22-.78.48-1.13.7h0a15.82,15.82,0,0,1-1.46.89l-.43.19a2.76,2.76,0,0,1-.91.21,1.59,1.59,0,0,1-1.21-.39,2.73,2.73,0,0,1-.6-1.27h0a5,5,0,0,0-.33-.92A2.77,2.77,0,0,0,29.16,38a1.9,1.9,0,0,0-1.27,0,3.21,3.21,0,0,0-.41.21l-.16.09L22.66,27l.27,0a6.16,6.16,0,0,0,3-.4,5.68,5.68,0,0,0,.79-.37A2.36,2.36,0,0,0,28,24.82a2.92,2.92,0,0,0-.62-2,2.44,2.44,0,0,1-.56-1.71A1.76,1.76,0,0,1,27.9,20h0c.26-.1.52-.17.8-.25h0a6.89,6.89,0,0,0,.85-.26h0A2.19,2.19,0,0,0,31,18.14,3,3,0,0,0,30.52,16h0a2.14,2.14,0,0,1-.31-1.82,2.18,2.18,0,0,1,.69-.66h0a6.12,6.12,0,0,0,.5-.39,2.4,2.4,0,0,0,.37-2.88L31.67,10l.17-.07c3-1.22,6.09-2.48,9.09-3.74l.14-.06.06.15"/>
      <path class="cls-5" d="M48.69,4.89c-.66-1.63-1.5-3.42-3.21-4a6.26,6.26,0,0,0-3.63.2c-1,.25-2.1.77-2.12,1.86a2.19,2.19,0,0,0,.23.92c.24.59.48,1.19.73,1.79-4.77,2-9.61,4-14.46,5.88a.35.35,0,0,0-.11,0h0c-2.77,1.09-5.55,2.15-8.32,3.19l-.61-1.49a2.19,2.19,0,0,0-.41-.72,1.73,1.73,0,0,0-1.62-.47,4.23,4.23,0,0,0-1.37.58c-1.6.92-3.11,2-3.28,3.72a5.51,5.51,0,0,0,.39,2.23A229.16,229.16,0,0,0,22.48,46.51a.62.62,0,0,0,.09.12,2.77,2.77,0,0,0,.7.82,4.7,4.7,0,0,0,3.64.47,59.51,59.51,0,0,0,11.58-3.5l3.65-1.48c4.63-1.9,9.42-3.86,14-6.07a9,9,0,0,0,2.15-1.31,3.41,3.41,0,0,0,1.21-2.37,2.52,2.52,0,0,0-.28-1.25.3.3,0,0,0,0-.16c-1.79-4.44-3.55-9-5.25-13.44s-3.47-9-5.26-13.45Zm-3,22.17a2.86,2.86,0,0,0-2.16-.68,5.33,5.33,0,0,1-.71,0,2.49,2.49,0,0,1-1.87-1.15,1.77,1.77,0,0,1,.17-2,3,3,0,0,1,.58-.45,2.89,2.89,0,0,0,1-.94,2.87,2.87,0,0,0,.17-1.7c0-.15,0-.29,0-.43A3.86,3.86,0,0,1,45,16.06c.23.57.47,1.13.69,1.69.1.22.19.45.29.68a3.62,3.62,0,0,0,2.74,6.69c.89,2.17,1.78,4.36,2.66,6.53a.41.41,0,0,0,.48.23l.1,0A15.8,15.8,0,0,1,54.15,31a2.83,2.83,0,0,1-.91,2.31,4.52,4.52,0,0,1-2.67,1.12,5,5,0,0,1-3.36-.83,3.4,3.4,0,0,1-1.42-2.94,7,7,0,0,1,.17-.87c.06-.25.12-.51.16-.77a2.3,2.3,0,0,0-.45-1.93Zm2.7-2.67a2.83,2.83,0,0,1-3.8-3,2.93,2.93,0,0,1,1.66-2.21c.7,1.73,1.42,3.48,2.14,5.23Zm-17.22-14a1.78,1.78,0,0,1-.2,2.2,5,5,0,0,1-.43.34,2.68,2.68,0,0,0-.87.87,2.62,2.62,0,0,0,.3,2.41v0A2.47,2.47,0,0,1,30.43,18a1.67,1.67,0,0,1-1,.93,6.08,6.08,0,0,1-.79.24,8.45,8.45,0,0,0-.94.29,2.32,2.32,0,0,0-1.47,1.5,3,3,0,0,0,.62,2.19,2.33,2.33,0,0,1,.55,1.58,1.78,1.78,0,0,1-1,1,5.59,5.59,0,0,1-3.84.62l-1.1-2.68a3.11,3.11,0,0,0,2.45-2.89,6.43,6.43,0,0,0-.15-1.39,3,3,0,0,1,0-1.74,3.25,3.25,0,0,1,1.57-1.28,3.57,3.57,0,0,0,1.95-1.77,3.17,3.17,0,0,0-.4-2.5l1-.39,3.28-1.31Zm-5,2a2.53,2.53,0,0,1,.4,1.94c-.22.62-.88,1-1.58,1.34A3.81,3.81,0,0,0,23,17.34,3.7,3.7,0,0,0,23,19.55a5.17,5.17,0,0,1,.14,1.21,2.4,2.4,0,0,1-1.95,2.17h0l-3.06-7.46q4-1.5,8-3.08Zm-14.49,6a4.64,4.64,0,0,1-.35-1.9c.13-1.35,1.47-2.3,2.89-3.11a3.85,3.85,0,0,1,1.12-.5,1,1,0,0,1,.89.23,1.88,1.88,0,0,1,.26.49L21.9,26.83a.08.08,0,0,0,0,0l5.46,13.31A13.18,13.18,0,0,0,24.5,41.4a5,5,0,0,0-2.2,2.68c0,.05,0,.1,0,.16A224.23,224.23,0,0,1,11.64,18.35ZM23.75,46.82a2.39,2.39,0,0,1-.69-2.52,4,4,0,0,1,1.67-2.1,3.28,3.28,0,0,0,1.56,2.31,3.35,3.35,0,0,0,2.23,0,5.38,5.38,0,0,1,1-.19,2.72,2.72,0,0,1,2.59,1.57,44,44,0,0,1-5.33,1.29,4,4,0,0,1-3-.32Zm18.09-4.61c-2.93,1.2-5.92,2.42-9,3.4a3.48,3.48,0,0,0-3.41-2.12,6.92,6.92,0,0,0-1.12.21,2.64,2.64,0,0,1-1.72.08c-.68-.3-1-1.18-1.17-2a15.33,15.33,0,0,1,2.39-.92.6.6,0,0,0,.15-.09l.06,0h0a.4.4,0,0,0,.22-.52l-.56-1.35A1.4,1.4,0,0,1,29,38.65a2.15,2.15,0,0,1,1.31,1.09,4.38,4.38,0,0,1,.28.82,3.33,3.33,0,0,0,.77,1.56,2.32,2.32,0,0,0,1.69.57,4,4,0,0,0,1.58-.48,14.63,14.63,0,0,0,1.54-.93c.36-.23.72-.47,1.09-.68a4.21,4.21,0,0,1,2.67-.68A3.35,3.35,0,0,1,42.32,42s0,0,0,0l-.5.21Zm16.88-9a2.62,2.62,0,0,1-.95,1.8,8.29,8.29,0,0,1-2,1.18c-4.17,2-8.51,3.82-12.75,5.56a.06.06,0,0,0,0,0,4.08,4.08,0,0,0-3-2.53,4.94,4.94,0,0,0-3.18.77c-.39.22-.77.47-1.13.71a14.15,14.15,0,0,1-1.46.88,3.39,3.39,0,0,1-1.28.4,1.47,1.47,0,0,1-1.09-.36,2.59,2.59,0,0,1-.56-1.19,5,5,0,0,0-.34-1,2.91,2.91,0,0,0-1.79-1.5,2.1,2.1,0,0,0-1.81.26L22.91,27.22A6.31,6.31,0,0,0,26,26.81a6.81,6.81,0,0,0,.82-.39,2.43,2.43,0,0,0,1.33-1.57,3,3,0,0,0-.64-2.15A2.3,2.3,0,0,1,27,21.11a1.58,1.58,0,0,1,1-.95,5.16,5.16,0,0,1,.84-.26c.29-.08.58-.16.88-.27a2.36,2.36,0,0,0,1.51-1.44,3.15,3.15,0,0,0-.53-2.31v0c-.26-.48-.57-1.18-.31-1.67a2.19,2.19,0,0,1,.64-.6,4.66,4.66,0,0,0,.52-.41,2.57,2.57,0,0,0,.4-3.07Q36.48,8.28,41,6.38l3.66,9A4.65,4.65,0,0,0,42,19.72a3.57,3.57,0,0,0,0,.46A2.18,2.18,0,0,1,42,21.42a2,2,0,0,1-.72.66,4.67,4.67,0,0,0-.71.57,2.53,2.53,0,0,0-.27,2.93,3.23,3.23,0,0,0,2.45,1.55,6.79,6.79,0,0,0,.78,0,2.29,2.29,0,0,1,1.61.42,1.62,1.62,0,0,1,.25,1.28,6.28,6.28,0,0,1-.15.7,7.72,7.72,0,0,0-.19,1,4.19,4.19,0,0,0,1.75,3.65,5.59,5.59,0,0,0,3.9,1,5.88,5.88,0,0,0,1.63-.38,4.78,4.78,0,0,0,1.5-.94,3.64,3.64,0,0,0,1.14-3.06,4.52,4.52,0,0,1,1.16-.05,2.71,2.71,0,0,1,2.64,2.42ZM56.14,30a8.85,8.85,0,0,0-4.23,1c-1.84-4.53-3.72-9.1-5.53-13.53s-3.8-9.26-5.69-13.9a1.65,1.65,0,0,1-.17-.61c0-.59.84-.93,1.53-1.11a5.7,5.7,0,0,1,3.17-.21c1.4.49,2.15,2.09,2.74,3.56,1.79,4.44,3.55,9,5.25,13.44,1.51,3.91,3.06,7.94,4.63,11.89a4,4,0,0,0-1.7-.55Zm0,0"/>
      <path class="cls-5" d="M40.15,17.23a.22.22,0,0,0,.16,0,.24.24,0,0,0,.15-.17.25.25,0,0,0-.18-.31c-.67-.17-1.34-.37-2-.59.12-.74.27-1.48.45-2.21a.26.26,0,0,0-.5-.13c-.17.72-.32,1.45-.44,2.18-.57-.21-1.14-.42-1.69-.66a.26.26,0,0,0-.34.14.25.25,0,0,0,.14.34c.59.25,1.2.48,1.81.69-.12.82-.2,1.64-.25,2.47a.26.26,0,0,0,.25.27.18.18,0,0,0,.1,0A.26.26,0,0,0,38,19c0-.78.12-1.56.23-2.33.64.21,1.29.4,1.94.56Zm0,0"/>
    </g>
    <g>
      <path class="cls-5" d="M38,35.3a2.4,2.4,0,0,1-1.5.66.35.35,0,0,0,.05.7,2.93,2.93,0,0,0,.92-.21,3.12,3.12,0,0,0,1-.65.35.35,0,1,0-.49-.5Zm0,0"/>
      <path class="cls-5" d="M39.76,33.43a1.61,1.61,0,0,1-.61.68.35.35,0,0,0,.31.63l0,0a2.22,2.22,0,0,0,.88-1,.35.35,0,0,0-.63-.29Zm0,0"/>
      <path class="cls-5" d="M40.89,30.14a.34.34,0,0,0-.32.38,3.48,3.48,0,0,1-.12,1.2.35.35,0,0,0,.23.43.36.36,0,0,0,.23,0,.38.38,0,0,0,.21-.22,3.84,3.84,0,0,0,.14-1.47.33.33,0,0,0-.37-.31Zm0,0"/>
      <path class="cls-5" d="M40.31,28a.35.35,0,0,0-.2.45l.28.72a.35.35,0,0,0,.65-.26l-.28-.71a.35.35,0,0,0-.45-.2Zm0,0"/>
      <path class="cls-5" d="M39.46,27.38a.35.35,0,0,0-.06-.67l-1.15-.25a.35.35,0,1,0-.15.68l1.15.25a.38.38,0,0,0,.21,0Zm0,0"/>
      <path class="cls-5" d="M36.49,26.07a.34.34,0,0,0,.2,0,.35.35,0,0,0,.22-.25.34.34,0,0,0-.27-.41,2.61,2.61,0,0,1-.92-.4.35.35,0,0,0-.4.57,3.39,3.39,0,0,0,1.17.51Zm0,0"/>
      <path class="cls-5" d="M33.72,22.67a.34.34,0,0,0-.34.35,1.92,1.92,0,0,0,.39,1.15.35.35,0,0,0,.41.11l.08,0a.35.35,0,0,0,.07-.49,1.22,1.22,0,0,1-.25-.74.35.35,0,0,0-.36-.34Zm0,0"/>
      <path class="cls-5" d="M34,20a.35.35,0,0,0-.46.19l-.52,1.31a.35.35,0,1,0,.65.26l.52-1.31A.34.34,0,0,0,34,20Zm0,0"/>
      <path class="cls-5" d="M35,19.77l.12-.08.7-.73a.35.35,0,1,0-.5-.49l-.7.73a.35.35,0,0,0,0,.5.36.36,0,0,0,.37.07Zm0,0"/>
    </g>
    <g>
      <g>
        <path class="cls-6" d="M32.44,34.9c.53.67,1.07,1.34,1.61,2l-.6-2.38Z"/>
        <path class="cls-7" d="M32.33,35l1.61,2c.1.13.29,0,.25-.15l-.6-2.38a.15.15,0,0,0-.18-.1l-1,.37c-.19.07-.11.37.08.3l1-.38-.19-.11.6,2.38.25-.14-1.61-2C32.42,34.64,32.21,34.86,32.33,35Z"/>
      </g>
      <g>
        <path class="cls-8" d="M29.54,31.69l1.24,1.66a1.94,1.94,0,0,1,.07.74,1.91,1.91,0,0,1-.28.86,4,4,0,0,0,4.33-2.2,4.88,4.88,0,0,1-.54-.18,4.58,4.58,0,0,1-.83-.41c0-.2-.08-.4-.11-.61a9.77,9.77,0,0,1-.11-1.26Z"/>
        <path class="cls-7" d="M29.41,31.77c.39.52.82,1,1.18,1.58a1.62,1.62,0,0,1-.15,1.53.16.16,0,0,0,.09.22A4.17,4.17,0,0,0,35,32.82a.15.15,0,0,0-.09-.22,5.29,5.29,0,0,1-.76-.27l-.31-.15c-.11-.06-.18-.09-.23-.21a4.36,4.36,0,0,1-.13-.87c0-.27,0-.54,0-.81a.15.15,0,0,0-.19-.14l-3.77,1.4c-.18.06-.1.36.08.29l3.77-1.4-.19-.15c0,.32,0,.64.06,1,0,.15,0,.3.07.45a1.45,1.45,0,0,0,.1.51c.09.17.43.29.6.37a5.29,5.29,0,0,0,.87.31l-.1-.22a3.84,3.84,0,0,1-4.15,2.14l.1.22a2.28,2.28,0,0,0,.25-1.6,2.54,2.54,0,0,0-.54-.82l-.75-1C29.56,31.46,29.29,31.61,29.41,31.77Z"/>
      </g>
      <g>
        <path class="cls-9" d="M29.54,31.69a1.14,1.14,0,0,1,.06-1,2.55,2.55,0,0,1,3-1c.2.08.62.23.72.56.17.57-.66,1.21-.8,1.32a2.61,2.61,0,0,1-1.62.54C30.53,32.15,29.8,32.15,29.54,31.69Z"/>
        <path class="cls-7" d="M29.67,31.62c-.3-.59.29-1.27.76-1.54a2.62,2.62,0,0,1,1.94-.26,1.26,1.26,0,0,1,.75.42c.17.28,0,.6-.23.81a2.7,2.7,0,0,1-1.56.92,3,3,0,0,1-.73,0,1.1,1.1,0,0,1-.93-.37.15.15,0,0,0-.26.15c.35.57,1.2.58,1.79.52a3,3,0,0,0,1.91-1,1.17,1.17,0,0,0,.35-1,1.06,1.06,0,0,0-.74-.67,3,3,0,0,0-2.27.1c-.71.34-1.46,1.23-1,2.05C29.5,31.94,29.76,31.79,29.67,31.62Z"/>
      </g>
      <path class="cls-7" d="M30.77,33.59a2.66,2.66,0,0,0,2.88-1.41c.08-.17-.18-.33-.27-.15a2.35,2.35,0,0,1-2.53,1.27c-.19,0-.28.26-.08.29Z"/>
      <path class="cls-10" d="M30.15,31.33l0-.09s0,0,0,0l0,0L30.3,31l.05-.08,0,0s0,0,0,0l.12-.14a1.26,1.26,0,0,1,.26-.21.65.65,0,0,1,.16-.09l.09,0s0,0,0,0l0,0a.16.16,0,0,0,.11-.19.15.15,0,0,0-.19-.1,1.91,1.91,0,0,0-1.14,1.15.15.15,0,0,0,.1.19.16.16,0,0,0,.19-.11Z"/>
      <path class="cls-7" d="M33.86,33l-.14.21a1,1,0,0,0-.08.11l0,0,0,0s0,0,0,0l-.16.18-.09.09,0,0s0,0,0,0l0,0a.16.16,0,0,0-.05.21.15.15,0,0,0,.21.06,2.94,2.94,0,0,0,.72-.85.15.15,0,1,0-.26-.15Z"/>
    </g>
  </g>
</svg>
