<svg id="LEVELS" xmlns="http://www.w3.org/2000/svg" width="70" height="70" viewBox="0 0 70 70"><defs><style>.cls-1{fill:#333;}.cls-2{fill:#fff;}.cls-3{fill:#7e54a2;}</style></defs><g id="SPIDER_copy" data-name="SPIDER copy"><path class="cls-1" d="M28.74,21.92c-2.12-1.81-4.22-3.64-6.39-5.39-.23-.19-.47-.37-.71-.55l-.23-.17c-.3-.24-.25-.49,0-.78a20.57,20.57,0,0,1,1.53-1.77q1.82-2,3.66-4c.28-.29-.16-.73-.44-.44C25,10.1,23.8,11.34,22.66,12.6a27.22,27.22,0,0,0-1.8,2.07,1.1,1.1,0,0,0,0,1.46,6.55,6.55,0,0,0,.66.52c.81.63,1.59,1.29,2.37,2q2.22,1.88,4.43,3.76c.31.26.75-.18.44-.44Z"/><path class="cls-1" d="M27.59,24.35c-2.83-1.25-5.68-2.47-8.47-3.78A9,9,0,0,0,17.85,20a2,2,0,0,0-2,.46,5.14,5.14,0,0,0-1,1.72c-.3.7-.56,1.41-.81,2.13-.43,1.25-.81,2.52-1.17,3.79a.31.31,0,0,0,.6.17c.27-1,.57-2,.88-2.93a23.25,23.25,0,0,1,1.52-3.89,1.46,1.46,0,0,1,1.79-.85,8.33,8.33,0,0,1,1.18.53c1,.49,2.09.95,3.13,1.42l5.28,2.34c.36.16.68-.38.32-.54Z"/><path class="cls-1" d="M26.76,27.89c-3,.84-6,1.69-8.89,2.61-.77.25-1.55.49-2.31.77a1.61,1.61,0,0,0-1.25,1.67c0,.53.25,1.07.35,1.6.17.87.31,1.75.44,2.62.06.4.66.23.6-.16A33.34,33.34,0,0,0,15,33.28c-.15-.54-.16-1,.36-1.26a2.76,2.76,0,0,1,.46-.19c1.89-.7,3.84-1.24,5.76-1.81,1.77-.52,3.55-1,5.32-1.53a.31.31,0,0,0-.16-.6Z"/><path class="cls-1" d="M27.81,32.17Q23.94,36.57,20.09,41a.33.33,0,0,0,.06.49l3.54,2.63c.32.24.63-.3.31-.53l-3.53-2.64.06.49q3.86-4.41,7.72-8.81c.26-.3-.17-.74-.44-.44Z"/><path class="cls-1" d="M39.7,22.77l7.75-5.17c.47-.32,1.2-.63,1.47-1.16a1.45,1.45,0,0,0-.08-1.17,19.94,19.94,0,0,0-1-1.82c-.74-1.27-1.51-2.52-2.29-3.76A.31.31,0,0,0,45,10c1.07,1.71,2.18,3.43,3.1,5.23a1.47,1.47,0,0,1,.26.82c0,.23-.3.36-.48.48l-.9.6-3.56,2.38-4.06,2.71c-.34.22,0,.76.31.54Z"/><path class="cls-1" d="M40.53,25.23c2.87-1,5.76-2,8.7-2.72a7.46,7.46,0,0,1,2.48-.37c1.33.13,1.93,1.33,2.49,2.39q1.17,2.25,2.35,4.5c.18.36.72,0,.53-.31Q56,26.58,54.84,24.43a5.28,5.28,0,0,0-2.14-2.66,4.57,4.57,0,0,0-3,0c-1.2.27-2.37.61-3.54,1-2,.59-3.88,1.23-5.8,1.9-.38.13-.22.74.16.6Z"/><path class="cls-1" d="M40.92,29.42c2.83,1.09,5.66,2.17,8.52,3.18.83.29,1.66.58,2.51.83A4.72,4.72,0,0,1,54,34.2c.58.57.15,1.55,0,2.23-.24.88-.52,1.75-.82,2.61-.14.38.46.54.6.17.29-.83.55-1.67.79-2.51a5.73,5.73,0,0,0,.38-2c-.11-1.19-1.29-1.52-2.26-1.77a60.34,60.34,0,0,1-6-2c-1.87-.69-3.74-1.41-5.6-2.13-.38-.14-.54.46-.17.61Z"/><path class="cls-1" d="M40.15,32.42c2.19,1.63,4.38,3.26,6.54,4.91.49.37,1,.74,1.46,1.14s.74.73.41,1.25c-.18.28-.39.54-.58.81-.92,1.23-1.87,2.44-2.83,3.65-.24.31.19.75.44.44q1.38-1.74,2.72-3.51c.53-.7,1.39-1.56.83-2.49a5.77,5.77,0,0,0-1.54-1.37q-1.32-1-2.64-2c-1.5-1.13-3-2.24-4.49-3.35-.32-.24-.63.3-.32.53Z"/><path class="cls-1" d="M36.44,12.33a5.18,5.18,0,0,0-4.76,0,4.7,4.7,0,0,0-2.38,3.45,4.47,4.47,0,0,0,.93,3.11,5,5,0,0,0,8.1-.23,3.66,3.66,0,0,0,.53-1.12,4.24,4.24,0,0,0-.18-2.78A4.73,4.73,0,0,0,36.44,12.33Z"/><path class="cls-1" d="M36.6,12.06a5.38,5.38,0,0,0-5.31.11,4.76,4.76,0,0,0-2.23,4.9,5.28,5.28,0,0,0,10.12.45,4.88,4.88,0,0,0-2.58-5.46c-.35-.19-.67.35-.31.54a4.34,4.34,0,0,1,2.41,3.71,4.36,4.36,0,0,1-4.3,4.16,4.72,4.72,0,0,1-4.54-2.89,4,4,0,0,1,1.54-4.73,4.7,4.7,0,0,1,4.89-.25C36.64,12.78,37,12.25,36.6,12.06Z"/><path class="cls-2" d="M30.65,13.43a3.81,3.81,0,0,0-.86,4.15.33.33,0,0,0,.39.21.31.31,0,0,0,.21-.38,3.21,3.21,0,0,1,.7-3.54c.29-.28-.15-.72-.44-.44Z"/><path class="cls-1" d="M31.09,19.74a7.62,7.62,0,0,0-3.18,3.85c-1,2.52-1.54,6.92.95,10a6.48,6.48,0,0,0,7.84,1.85,6.38,6.38,0,0,0,3.51-3.74,11.08,11.08,0,0,0,.17-5,11.09,11.09,0,0,0-1.1-4.16,7.17,7.17,0,0,0-2.74-2.79A5.83,5.83,0,0,0,31.09,19.74Z"/><path class="cls-1" d="M30.93,19.47C28.26,21,27,24.16,26.78,27.08c-.29,3.59,1.21,7.53,4.8,8.87A7.14,7.14,0,0,0,39,34.22a7.24,7.24,0,0,0,1.86-5.4,27.41,27.41,0,0,0-.35-3.24,9.75,9.75,0,0,0-.86-2.94,7.19,7.19,0,0,0-3.2-3.25,6.1,6.1,0,0,0-5.55.08c-.35.19,0,.72.31.54a5.7,5.7,0,0,1,7.27,1.91,11.22,11.22,0,0,1,1.67,5.63,8,8,0,0,1-1,5.53,6.55,6.55,0,0,1-6.45,2.55,6.26,6.26,0,0,1-4-2.77,8.72,8.72,0,0,1-1.33-4.75c0-3,1.11-6.54,3.87-8.1A.31.31,0,0,0,30.93,19.47Z"/><path class="cls-2" d="M27.43,29.46a7.94,7.94,0,0,0,2.65,5.07c.3.27.74-.17.44-.44a7.28,7.28,0,0,1-2.46-4.63c0-.39-.67-.4-.63,0Z"/><path class="cls-2" d="M31.22,35.58a.75.75,0,0,0,0-1.5.75.75,0,0,0,0,1.5Z"/><path class="cls-3" d="M33.56,20.6c0,.5.07,1,.09,1.51a.25.25,0,0,0,.26.25.26.26,0,0,0,.26-.25c0-.51-.05-1-.09-1.51a.26.26,0,0,0-.26-.26.26.26,0,0,0-.26.26Z"/><path class="cls-3" d="M35.25,23.06a7.14,7.14,0,0,1,1.46.06c.13,0,.26-.13.26-.26a.27.27,0,0,0-.26-.26,7.93,7.93,0,0,0-1.46-.06.28.28,0,0,0-.26.26.26.26,0,0,0,.26.26Z"/><path class="cls-3" d="M32.31,22.53l-1.18,0a.27.27,0,0,0-.26.26.26.26,0,0,0,.26.26l1.18,0a.27.27,0,0,0,.26-.26.28.28,0,0,0-.26-.26Z"/><path class="cls-3" d="M33.7,23.88a13.84,13.84,0,0,0,0,1.58.26.26,0,0,0,.52,0,13.84,13.84,0,0,1,0-1.58.26.26,0,0,0-.26-.26.28.28,0,0,0-.26.26Z"/><path class="cls-3" d="M33.92,27.76a.52.52,0,0,0,0-1,.52.52,0,0,0,0,1Z"/><path class="cls-3" d="M33.92,29.76a.39.39,0,0,0,0-.78.39.39,0,0,0,0,.78Z"/><path class="cls-3" d="M33.83,31.48a.26.26,0,0,0,0-.52.26.26,0,0,0,0,.52Z"/><path class="cls-3" d="M29.42,25.4l2.19.21-.26-.26L31.58,30l.48-.13L29.64,25c-.15-.3-.6,0-.45.26l2.42,4.89A.27.27,0,0,0,32.1,30l-.23-4.68a.26.26,0,0,0-.26-.25l-2.19-.22C29.08,24.85,29.09,25.37,29.42,25.4Z"/><path class="cls-3" d="M36.35,30l0-4.73-.26.26h2.16L38,25.16l-2.13,4.72c-.14.3.31.56.45.26l2.13-4.72a.27.27,0,0,0-.23-.39H36.06a.26.26,0,0,0-.26.25l0,4.73A.26.26,0,0,0,36.35,30Z"/><path class="cls-1" d="M59.16,3.73q.08,6.58-.18,13.16c0,.24.36.24.37,0q.26-6.57.18-13.16a.19.19,0,0,0-.37,0Z"/><path class="cls-1" d="M54.49,10.39q5.84-.21,11.69-.27a.19.19,0,0,0,0-.37c-3.9,0-7.8.12-11.69.27-.24,0-.24.38,0,.37Z"/><path class="cls-1" d="M55.38,14.2Q59.8,9.7,63.9,4.91c.15-.19-.11-.45-.26-.27q-4.11,4.8-8.53,9.29c-.17.17.1.44.27.27Z"/><path class="cls-1" d="M55.22,5.67a29.3,29.3,0,0,1,4.35,4.69c1.47,1.74,3,3.42,4.64,5,.17.17.44-.1.27-.27-1.66-1.63-3.23-3.33-4.73-5.1a28.19,28.19,0,0,0-4.34-4.66c-.19-.15-.37.18-.19.32Z"/><path class="cls-1" d="M57.11,10.29a1.74,1.74,0,0,0,.74-1A2.14,2.14,0,0,0,58,7.84a.2.2,0,0,0-.23-.13.19.19,0,0,0-.13.23,1.7,1.7,0,0,1-.1,1.21,1.44,1.44,0,0,1-.58.82c-.21.11,0,.43.19.32Z"/><path class="cls-1" d="M57.75,8.14a1.58,1.58,0,0,0,1.73-.32c.16-.17-.1-.44-.27-.27a1.16,1.16,0,0,1-1.27.26.19.19,0,0,0-.19.33Z"/><path class="cls-1" d="M59.15,7.68a1.58,1.58,0,0,0,.23.47,1,1,0,0,0,.37.33,1,1,0,0,0,1,0,.18.18,0,0,0,.07-.25.19.19,0,0,0-.26-.07.67.67,0,0,1-.33.1.66.66,0,0,1-.32-.08l-.07,0-.06,0L59.73,8l0,0a1.81,1.81,0,0,1-.18-.37.19.19,0,1,0-.36.1Z"/><path class="cls-1" d="M60.45,8.33a1.79,1.79,0,0,0,.12,1.16,1,1,0,0,0,.83.65.18.18,0,0,0,.18-.19.19.19,0,0,0-.18-.18c-.24,0-.43-.28-.52-.5a1.34,1.34,0,0,1-.07-.84.19.19,0,0,0-.36-.1Z"/><path class="cls-1" d="M61.3,9.89a1.73,1.73,0,0,0-.33,2c.1.21.43,0,.32-.19a1.34,1.34,0,0,1,.28-1.59c.17-.16-.09-.43-.27-.26Z"/><path class="cls-1" d="M60.89,11.51a2.77,2.77,0,0,0-1.76,1.87.19.19,0,0,0,.36.1A2.39,2.39,0,0,1,61,11.87a.19.19,0,0,0,.13-.23.19.19,0,0,0-.23-.13Z"/><path class="cls-1" d="M58.05,11.31a.61.61,0,0,1,.41.34,5.86,5.86,0,0,1,.26.57,7.3,7.3,0,0,1,.37,1.29c0,.23.41.13.36-.1A7.13,7.13,0,0,0,59,11.92c-.18-.44-.41-.93-.94-1a.18.18,0,0,0-.18.18.19.19,0,0,0,.18.19Z"/><path class="cls-1" d="M57.07,10.31l.08,0h0l0,0,.07,0,0,0h0l.23.23.11.13.1.13s0,0,0,.05,0,0,0,0,0,0,0,0v0a.09.09,0,0,0,0,0h0v0c0,.06,0,0,0,0a.2.2,0,0,0,.13.23.19.19,0,0,0,.23-.13,1,1,0,0,0-.34-.86,1.37,1.37,0,0,0-.66-.48.19.19,0,0,0-.23.13.19.19,0,0,0,.13.23Z"/><path class="cls-1" d="M55.67,10.29a2.26,2.26,0,0,0,.7-.71,5.55,5.55,0,0,0,.5-.93A2,2,0,0,0,57,6.78c-.14-.19-.46,0-.33.19.33.47.07,1.12-.14,1.59a5.3,5.3,0,0,1-.42.78,1.81,1.81,0,0,1-.6.63.19.19,0,0,0,.19.32Z"/><path class="cls-1" d="M56.81,7.14a2.49,2.49,0,0,0,1.65-.27,2.39,2.39,0,0,0,1-1.19.19.19,0,0,0-.13-.23.2.2,0,0,0-.23.13s0,0,0,0l0,0a.47.47,0,0,0,0,.1,2.46,2.46,0,0,1-.17.27,2,2,0,0,1-.62.54,2.07,2.07,0,0,1-1.36.23.2.2,0,0,0-.23.13.19.19,0,0,0,.13.23Z"/><path class="cls-1" d="M59.13,5.72A2.45,2.45,0,0,0,60.3,6.8a2.89,2.89,0,0,0,1,.06,5.62,5.62,0,0,0,1-.15c.24,0,.14-.41-.1-.36a4.15,4.15,0,0,1-.87.13,2.69,2.69,0,0,1-.85,0,2,2,0,0,1-1-.91c-.13-.2-.46,0-.32.18Z"/><path class="cls-1" d="M62.1,6.55a5,5,0,0,0-.05,1.22,3,3,0,0,0,.28,1,3.12,3.12,0,0,0,1.38,1.4c.21.11.4-.21.19-.32a2.79,2.79,0,0,1-1.25-1.27,3.39,3.39,0,0,1-.18-2c0-.24-.34-.23-.37,0Z"/><path class="cls-1" d="M63.67,9.84a3,3,0,0,0-1.1,3.81c.11.21.43,0,.32-.19a2.6,2.6,0,0,1,1-3.3c.2-.13,0-.45-.19-.32Z"/><path class="cls-1" d="M59.41,15.17a2.46,2.46,0,0,1,1-1.24,2.38,2.38,0,0,1,2.23-.07c.21.1.4-.22.19-.33a2.74,2.74,0,0,0-3.82,1.55c-.08.22.28.32.36.09Z"/><path class="cls-1" d="M59.41,15.1a4.47,4.47,0,0,0-.47-.86,9.27,9.27,0,0,0-.6-.8,2.71,2.71,0,0,0-1.56-.87c-.24,0-.34.32-.1.36a2.36,2.36,0,0,1,1.39.77,6,6,0,0,1,.53.71,3.66,3.66,0,0,1,.45.79c.08.22.44.12.36-.1Z"/><path class="cls-1" d="M55.54,10.38a2,2,0,0,1,.91,2.26.19.19,0,0,0,.36.1,2.38,2.38,0,0,0-1.08-2.68.19.19,0,0,0-.19.32Z"/></g></svg>