<svg id="LEVELS" xmlns="http://www.w3.org/2000/svg" width="70" height="70" viewBox="0 0 70 70"><defs><style>.cls-1{fill:#7e54a2;}.cls-2{fill:#fff;opacity:0.8;}.cls-3{fill:#333;}</style></defs><g id="TUBE_copy" data-name="TUBE copy"><path class="cls-1" d="M40.12,22.19l-.21,23.44a6.55,6.55,0,0,1-1.82,3.07,6.72,6.72,0,0,1-4,1.79h0a6.57,6.57,0,0,1-4.64-2.1,6.33,6.33,0,0,1-1.51-3.3l.1-22.9a11.3,11.3,0,0,1,2.53-.88A12.5,12.5,0,0,1,32.8,21a19.86,19.86,0,0,1,3.09,0,10.55,10.55,0,0,1,3.46.74A8.27,8.27,0,0,1,40.12,22.19Z"/><ellipse class="cls-2" cx="34.07" cy="22.2" rx="5.75" ry="1.19"/><path class="cls-1" d="M28.08,22.12a11.1,11.1,0,0,1,4-1.2"/><path class="cls-3" d="M28.17,22.28A11.26,11.26,0,0,1,32.1,21.1c.23,0,.13-.4-.1-.36A11.67,11.67,0,0,0,28,22a.18.18,0,0,0,.18.32Z"/><path class="cls-1" d="M36.67,23.35A14.52,14.52,0,0,0,40,22.56"/><path class="cls-3" d="M36.67,23.53A14.29,14.29,0,0,0,40,22.74c.22-.08.13-.44-.1-.35a14.6,14.6,0,0,1-3.26.77c-.24,0-.24.4,0,.37Z"/><g id="Layer_24_copy" data-name="Layer 24 copy"><path class="cls-3" d="M39.9,3.73v40.5a5.83,5.83,0,0,1-11.08,2.6,7,7,0,0,1-.58-3.23V3.73a.37.37,0,0,0-.74,0V44.27a6.57,6.57,0,0,0,12.19,3.42,7.35,7.35,0,0,0,1-3.92v-40a.37.37,0,0,0-.74,0Z"/><path class="cls-3" d="M28.32,2.37a1.78,1.78,0,0,0-.84,1.15,1.16,1.16,0,0,0,.5,1,5.08,5.08,0,0,0,2.87,1.07,23.66,23.66,0,0,0,3.57.1c.77,0,1.56,0,2.33-.14a10.36,10.36,0,0,0,3-.86c.46-.21,1-.58.92-1.14a1.68,1.68,0,0,0-.83-1.16A4.43,4.43,0,0,0,38,1.67a30.13,30.13,0,0,0-3.14-.34,20.1,20.1,0,0,0-3.72.11,6,6,0,0,0-2.8.93c-.38.28,0,.92.37.64a4.79,4.79,0,0,1,2-.77A15.29,15.29,0,0,1,33.51,2c1,0,2,.07,2.92.17a13.21,13.21,0,0,1,1.87.29,3.83,3.83,0,0,1,.94.37c.22.12.74.44.68.75s-.36.32-.51.39a6.06,6.06,0,0,1-.84.32,12.16,12.16,0,0,1-1.43.4c-.23,0-.4.07-.55.08l-1,.07c-1,0-2,.09-3,.06a10.51,10.51,0,0,1-3-.32,2.93,2.93,0,0,1-1.42-.88.31.31,0,0,1-.05-.1s0,.11,0,0a1.13,1.13,0,0,1,0-.15A1.24,1.24,0,0,1,28.69,3C29.06,2.72,28.7,2.08,28.32,2.37Z"/></g><path class="cls-3" d="M39.87,25.51a9.24,9.24,0,0,1-3.56.68.1.1,0,0,0,0,.2,9.31,9.31,0,0,0,3.61-.69c.12-.05.06-.24-.05-.19Z"/><path class="cls-3" d="M40,26.48a10.06,10.06,0,0,1-4.72.78c-.13,0-.13.19,0,.2a10.34,10.34,0,0,0,4.82-.81c.11,0,0-.22-.1-.17Z"/><path class="cls-3" d="M40.08,27.59a9.47,9.47,0,0,1-4.3.74.1.1,0,0,0,0,.2,9.69,9.69,0,0,0,4.35-.75c.11,0,.06-.23-.05-.19Z"/><path class="cls-3" d="M28,42.82a8.78,8.78,0,0,0,3.61,0c.12,0,.07-.21,0-.19a8.65,8.65,0,0,1-3.51,0c-.12,0-.18.16-.05.18Z"/><path class="cls-3" d="M27.89,44.27a8.73,8.73,0,0,0,3.1.08c.12,0,.07-.21,0-.19a8.64,8.64,0,0,1-3-.08c-.12,0-.18.17-.05.19Z"/><path class="cls-3" d="M32.16,48.13a.74.74,0,0,1-.68-.45h0a.71.71,0,0,1,.07-.65.83.83,0,0,1,1.09-.12.67.67,0,0,1,.23.52.73.73,0,0,1-.55.68Zm-.37-.57a.39.39,0,0,0,.75-.14.31.31,0,0,0-.37-.33.42.42,0,0,0-.35.13A.35.35,0,0,0,31.79,47.56Z"/><path class="cls-3" d="M37.35,45.09a1,1,0,0,1-.9-.6h0a1,1,0,0,1,.09-.87,1,1,0,0,1,.82-.35,1,1,0,0,1,.64.2.85.85,0,0,1,.29.69,1,1,0,0,1-.73.9Zm-.6-.72A.63.63,0,0,0,38,44.15a.57.57,0,0,0-.18-.43.62.62,0,0,0-.42-.12.65.65,0,0,0-.56.22A.62.62,0,0,0,36.75,44.37Z"/><path class="cls-3" d="M35.19,35.4a.85.85,0,0,1-.52-.17.94.94,0,0,1-.31-.67h0a1,1,0,0,1,.37-.91A1,1,0,0,1,36,35.09a.91.91,0,0,1-.53.28A1.35,1.35,0,0,1,35.19,35.4Zm-.5-.87h0a.6.6,0,0,0,.18.43.61.61,0,0,0,.52.08.57.57,0,0,0,.36-.18.64.64,0,0,0-.11-.79.62.62,0,0,0-.73-.15.65.65,0,0,0-.22.6l-.16,0Z"/><path class="cls-3" d="M36.09,22.23H36a.71.71,0,0,1-.52-.29.79.79,0,0,1,.16-1.08.81.81,0,0,1,1.11,0,.78.78,0,0,1,.18.59.84.84,0,0,1-.84.74ZM36.18,21a.51.51,0,0,0-.44.76h0a.41.41,0,0,0,.3.16.54.54,0,0,0,.39-.12.56.56,0,0,0,.17-.33.38.38,0,0,0-.1-.33A.4.4,0,0,0,36.18,21Z"/><path class="cls-3" d="M31.51,28.32h-.07a.52.52,0,0,1-.38-.21h0a.58.58,0,0,1,.12-.78.57.57,0,0,1,.79,0,.52.52,0,0,1,.13.43.62.62,0,0,1-.2.38A.61.61,0,0,1,31.51,28.32Zm.06-.81a.27.27,0,0,0-.18.07.25.25,0,0,0-.06.33h0a.22.22,0,0,0,.15.08.27.27,0,0,0,.21-.07.31.31,0,0,0,.09-.17.25.25,0,0,0-.05-.17A.2.2,0,0,0,31.57,27.51Z"/><path class="cls-3" d="M38.38,32.65h-.09a.73.73,0,0,1-.53-.29h0a.83.83,0,0,1,1.28-1,.73.73,0,0,1,.17.59.83.83,0,0,1-.27.53A.88.88,0,0,1,38.38,32.65ZM38,32.16a.42.42,0,0,0,.3.16.54.54,0,0,0,.39-.12.56.56,0,0,0,.17-.33.41.41,0,0,0-.1-.33.48.48,0,0,0-.66,0,.49.49,0,0,0-.1.64Z"/><path class="cls-3" d="M32.52,40.09h-.09a.74.74,0,0,1-.53-.29.82.82,0,0,1,.16-1.09.84.84,0,0,1,1.12,0,.83.83,0,0,1-.1,1.13A.87.87,0,0,1,32.52,40.09Zm.09-1.25a.58.58,0,0,0-.34.12.49.49,0,0,0-.11.64h0a.43.43,0,0,0,.3.16.51.51,0,0,0,.4-.12.49.49,0,0,0,.07-.66A.43.43,0,0,0,32.61,38.84Z"/><path class="cls-3" d="M11.08,44.73c-.43-.52-.75-1.12-1.15-1.65a.13.13,0,0,0-.17,0,.13.13,0,0,0,0,.17c.41.56.74,1.17,1.18,1.7.11.12.28,0,.18-.17Z"/><path class="cls-3" d="M9.94,43.17a11.29,11.29,0,0,1,.83-1.67c.08-.14-.13-.27-.21-.13A14.65,14.65,0,0,0,9.7,43.1a.14.14,0,0,0,.09.16.13.13,0,0,0,.15-.09Z"/><path class="cls-3" d="M10.66,41.56a12.64,12.64,0,0,1,2,0c.16,0,.16-.23,0-.24a12.64,12.64,0,0,0-2,0c-.16,0-.16.26,0,.25Z"/><path class="cls-3" d="M12.6,41.53c.3.45.58.91.85,1.38a.12.12,0,0,0,.21-.13c-.27-.47-.55-.92-.85-1.37-.09-.13-.3,0-.21.12Z"/><path class="cls-3" d="M12.93,44.71a12.79,12.79,0,0,1,.73-1.8c.07-.15-.14-.27-.21-.13a13.69,13.69,0,0,0-.76,1.86c0,.15.19.22.24.07Z"/><path class="cls-3" d="M11,44.94l1.82-.14c.16,0,.16-.26,0-.25L11,44.69c-.16,0-.16.26,0,.25Z"/><path class="cls-3" d="M11.32,44.55a7.11,7.11,0,0,1,1,0c.16,0,.16-.24,0-.24a5.93,5.93,0,0,0-1,.05c-.07,0-.13,0-.13.12a.12.12,0,0,0,.13.12Z"/><path class="cls-3" d="M10.45,43A7.46,7.46,0,0,0,11,42a.13.13,0,0,0,0-.17.13.13,0,0,0-.17.05,7.46,7.46,0,0,1-.53,1,.12.12,0,0,0,0,.16.12.12,0,0,0,.17,0Z"/><path class="cls-3" d="M12.51,42a6.78,6.78,0,0,1,.52.86.13.13,0,0,0,.17,0,.13.13,0,0,0,.05-.17,9.29,9.29,0,0,0-.53-.85.13.13,0,0,0-.17-.05.13.13,0,0,0,0,.17Z"/><path class="cls-3" d="M8.51,43.47l1.34-.21a.13.13,0,0,0,.09-.16A.13.13,0,0,0,9.79,43l-1.35.22a.12.12,0,0,0-.08.15c0,.07.08.09.15.08Z"/><path class="cls-3" d="M7.85,43.52a.3.3,0,0,0,.36.12.28.28,0,0,0,.18-.3.23.23,0,0,0-.06-.11A.33.33,0,0,0,8,43.14.29.29,0,0,0,7.85,43.52Z"/><path class="cls-3" d="M7.74,43.58a.42.42,0,0,0,.39.2.43.43,0,0,0,.37-.3.31.31,0,0,0,0-.25.43.43,0,0,0-.15-.15A.5.5,0,0,0,8.09,43a.39.39,0,0,0-.25.1.41.41,0,0,0-.1.49.13.13,0,0,0,.17.05.13.13,0,0,0,0-.17s0,0,0,0,0,0,0,0v0h0v0h0s0,0,0,0,0,0,0,0v0H8l0,0v0H8l0,0s0,0,0,0h.12l0,0s0,0,0,0h0l0,0h0s0,0,0,.05,0,0,0,0v0h0v0h0v0h0a.08.08,0,0,1,0,0h0v0l0,0h0v0l0,0H8l0,0s0,0,0,0,0,0,0,0a.13.13,0,0,0-.22.12Z"/><path class="cls-3" d="M12.83,41.54a7.87,7.87,0,0,0,1.1-1.41.12.12,0,0,0-.21-.13,8.79,8.79,0,0,1-1.06,1.37c-.11.11.06.29.17.17Z"/><path class="cls-3" d="M13.76,40.17a9.32,9.32,0,0,0,1.75.75.13.13,0,0,0,.07-.24,8.76,8.76,0,0,1-1.7-.72.12.12,0,0,0-.12.21Z"/><path class="cls-3" d="M15.48,42.42a3.09,3.09,0,0,0,.23-1.59.12.12,0,0,0-.13-.12.12.12,0,0,0-.12.12,2.74,2.74,0,0,1-.2,1.47.14.14,0,0,0,.05.17.13.13,0,0,0,.17,0Z"/><path class="cls-3" d="M13.55,43a4.7,4.7,0,0,0,1.59-.14.12.12,0,0,0-.06-.24,4.37,4.37,0,0,1-1.53.13c-.06,0-.12.06-.12.12a.13.13,0,0,0,.12.13Z"/><path class="cls-3" d="M15.15,42.44a.26.26,0,0,0,0,.28.25.25,0,0,0,.25.13.25.25,0,0,0,.18-.22.25.25,0,0,0-.14-.25A.23.23,0,0,0,15.15,42.44Z"/><path class="cls-3" d="M15.06,42.36a.24.24,0,0,0-.06.11.25.25,0,0,0,0,.12.36.36,0,0,0,.06.2.36.36,0,0,0,.4.17.36.36,0,0,0,.25-.33.38.38,0,0,0-.17-.34.37.37,0,0,0-.46.07.11.11,0,0,0,0,.08.14.14,0,0,0,0,.09.14.14,0,0,0,.18,0l0,0s0,0,0,0,0,0,0,0l0,0s0,0,0,0h.09s0,0,0,0h0s0,0,0,0l0,0h0s0,0,0,0l0,0s0,0,0,0h0v0s0,0,0,0a0,0,0,0,1,0,0v0s0,0,0,0h0v0h0s0,0,0,0l0,0v0h0s0,0,0,0h0s0,0,0,0h-.1s0,0,0,0,0,0,0,0l0,0s0,0,0,0h0s0,0,0,0v0h0s0,0,0,0v0h0s0,0,0,0v0h0s0,0,0,0h0s0,0,0,0a.14.14,0,0,0,0-.09.11.11,0,0,0,0-.08A.13.13,0,0,0,15.06,42.36Z"/><path class="cls-3" d="M13.94,40a6.65,6.65,0,0,1-.23-1.94c0-.16-.24-.16-.24,0a6.51,6.51,0,0,0,.23,2,.13.13,0,0,0,.24-.07Z"/><path class="cls-3" d="M13.65,38.2a9.6,9.6,0,0,0,1.48-1c.12-.1-.05-.28-.17-.17a9.34,9.34,0,0,1-1.43,1c-.14.08,0,.3.12.22Z"/><path class="cls-3" d="M15.17,37.07c-.05-.43-.11-.86-.2-1.28a.13.13,0,0,0-.15-.09.13.13,0,0,0-.09.15c.08.41.15.81.19,1.22,0,.07.05.13.12.13a.13.13,0,0,0,.13-.13Z"/><path class="cls-3" d="M14.54,35.69a.25.25,0,0,0,.19.17.25.25,0,1,0,.08-.49A.28.28,0,0,0,14.54,35.69Z"/><path class="cls-3" d="M14.42,35.72a.39.39,0,0,0,.36.27.38.38,0,0,0,.37-.25.41.41,0,0,0-.11-.39.36.36,0,0,0-.18-.1.38.38,0,0,0-.24,0,.4.4,0,0,0-.2.43.13.13,0,0,0,.15.09.14.14,0,0,0,.09-.15h0s0,0,0,0,0,0,0,0h0s0,0,0,0l0,0h0s0,0,0,0l0,0,0,0h0l0,0h.08s0,0,0,0h0l0,0s0,0,0,0l0,0s0,0,0,0v0l0,0s0,0,0,0h0v0s0,0,0,0v.06s0,0,0,0v0s0,0,0,0h0l0,0h-.16l0,0h0s0,0,0,0h0s0,0,0,0h0a.13.13,0,0,0-.16-.09A.12.12,0,0,0,14.42,35.72Z"/><path class="cls-3" d="M57.13,17.86c-.57-.78-1-1.66-1.5-2.46-.09-.14-.3,0-.22.12.53.81.94,1.68,1.51,2.46.09.13.3,0,.21-.12Z"/><path class="cls-3" d="M55.63,15.52A17.3,17.3,0,0,1,57,13.19c.09-.13-.13-.25-.21-.12a18.51,18.51,0,0,0-1.34,2.33c-.06.14.15.26.22.12Z"/><path class="cls-3" d="M56.85,13.25a18,18,0,0,1,2.84.22c.16,0,.23-.21.07-.23A17.66,17.66,0,0,0,56.85,13a.12.12,0,1,0,0,.24Z"/><path class="cls-3" d="M59.62,13.42q.57,1,1.08,2c.07.14.28,0,.21-.13q-.49-1-1.08-2a.12.12,0,0,0-.21.13Z"/><path class="cls-3" d="M59.72,17.91a20.9,20.9,0,0,1,1.19-2.48.12.12,0,0,0-.21-.13,19.88,19.88,0,0,0-1.22,2.55c0,.15.18.21.24.06Z"/><path class="cls-3" d="M57,18l2.58,0a.12.12,0,0,0,0-.24L57,17.8c-.15,0-.15.25,0,.24Z"/><path class="cls-3" d="M57.52,17.53a10.19,10.19,0,0,1,1.46,0c.06,0,.12-.06.12-.12a.12.12,0,0,0-.12-.12,7.93,7.93,0,0,0-1.46,0c-.16,0-.16.25,0,.24Z"/><path class="cls-3" d="M56.38,15.24a9.14,9.14,0,0,0,.84-1.37c.07-.14-.14-.27-.21-.13a9.78,9.78,0,0,1-.84,1.38.12.12,0,0,0,0,.16.13.13,0,0,0,.17,0Z"/><path class="cls-3" d="M59.45,14a10.08,10.08,0,0,1,.68,1.25.12.12,0,0,0,.16.05.12.12,0,0,0,.05-.17,12.69,12.69,0,0,0-.67-1.26c-.09-.13-.3,0-.22.13Z"/><path class="cls-3" d="M53.6,15.77l1.92-.19c.16,0,.16-.26,0-.25l-1.92.19c-.15,0-.16.26,0,.25Z"/><path class="cls-3" d="M52.71,15.83a.41.41,0,0,0,.49.19.4.4,0,0,0,.29-.4.3.3,0,0,0-.08-.16.47.47,0,0,0-.49-.16A.42.42,0,0,0,52.71,15.83Z"/><path class="cls-3" d="M52.6,15.89a.52.52,0,0,0,.49.27.54.54,0,0,0,.49-.35.36.36,0,0,0,0-.32.65.65,0,0,0-.19-.21.59.59,0,0,0-.31-.12.48.48,0,0,0-.33.1.54.54,0,0,0-.15.63.13.13,0,0,0,.22-.12h0v0h0v-.08h0l0,0s0,0,0,0v0l0-.05h0l0,0s0,0,0,0l0,0h0s0,0,0,0h.18s0,0,0,0l.06,0,0,0h0l0,0,0,0v0h0l0,0s0,0,0,0v0s0,0,0,0v0s0,0,0,0,0,0,0,0v0s0,0,0,0,0,0,0,0,0,0,0,0h0s0,0-.05,0h0l0,0,0,0h-.13s0,0,0,0H53s0,0,0,0l-.05,0h0s0,0,0,0l0,0h0l0-.05a.13.13,0,1,0-.22.12Z"/><path class="cls-3" d="M59.87,13.42a11.08,11.08,0,0,0,1.66-1.89c.09-.13-.12-.25-.21-.12a11.36,11.36,0,0,1-1.62,1.84c-.12.11.06.28.17.17Z"/><path class="cls-3" d="M61.36,11.58a12.77,12.77,0,0,0,2.4,1.19c.15.06.21-.18.06-.23a12.74,12.74,0,0,1-2.33-1.18c-.14-.08-.26.13-.13.22Z"/><path class="cls-3" d="M63.51,14.9A4.2,4.2,0,0,0,64,12.7c0-.15-.26-.16-.25,0a3.94,3.94,0,0,1-.42,2.08c-.07.14.14.26.21.12Z"/><path class="cls-3" d="M60.77,15.48A6.41,6.41,0,0,0,63,15.43c.16,0,.09-.27-.06-.24a6.16,6.16,0,0,1-2.14.06c-.16,0-.22.21-.07.23Z"/><path class="cls-3" d="M63.09,14.94a.37.37,0,0,0,0,.39.36.36,0,0,0,.34.2.35.35,0,0,0,.27-.29.34.34,0,0,0-.17-.37A.34.34,0,0,0,63.09,14.94Z"/><path class="cls-3" d="M63,14.85a.48.48,0,0,0-.06.55.46.46,0,0,0,.49.24.45.45,0,0,0,.34-.37.47.47,0,0,0-.19-.48.46.46,0,0,0-.58.06A.13.13,0,0,0,63,15a.12.12,0,0,0,.17,0l0,0s0,0,0,0h.07s0,0,0,0,0,0,0,0,0,0,0,0h.06l0,0s0,0,0,0h0l0,0h0l0,0h0s0,0,0,.05v0s0,0,0,0,0,0,0,0v0s0,0,0,0v0l0,0v0l0,0s0,0,0,0h0v0h0s0,0,0,0l0,0s0,0,0,0h-.07l-.06,0h0l0,0,0,0,0,0s0,0,0,0l0-.05h0s0,0,0,0a.43.43,0,0,1,0-.05s0,0,0,0,0,0,0,0a.43.43,0,0,0,0-.05s0,0,0,0v0h0v0h0a.14.14,0,0,0,0-.18A.12.12,0,0,0,63,14.85Z"/><path class="cls-3" d="M61.54,11.44a9.19,9.19,0,0,1-.15-2.77c0-.16-.23-.16-.24,0a9.27,9.27,0,0,0,.16,2.83c0,.16.27.09.23-.06Z"/><path class="cls-3" d="M61.33,8.78a13.78,13.78,0,0,0,2.14-1.31c.12-.1,0-.31-.13-.21a12.51,12.51,0,0,1-2.13,1.3c-.15.07,0,.29.12.22Z"/><path class="cls-3" d="M63.53,7.36a18.17,18.17,0,0,0-.17-1.81.13.13,0,0,0-.15-.09.13.13,0,0,0-.09.15,17.24,17.24,0,0,1,.16,1.75c0,.16.26.16.25,0Z"/><path class="cls-3" d="M62.81,5.37a.35.35,0,0,0,.26.25.35.35,0,0,0,.42-.16.38.38,0,0,0-.27-.52A.4.4,0,0,0,62.81,5.37Z"/><path class="cls-3" d="M62.69,5.4a.5.5,0,0,0,.93.08A.53.53,0,0,0,63.51,5a.49.49,0,0,0-.22-.14.41.41,0,0,0-.29,0,.52.52,0,0,0-.31.54.12.12,0,0,0,.15.08.13.13,0,0,0,.09-.15h0v0h0a.09.09,0,0,0,0,0s0,0,0,0v0l0,0h0v0l0,0s0,0,0,0h0l0,0h0s0,0,0,0h.09l0,0h0l0,0h0v0l0,0a0,0,0,0,1,0,0h0s0,0,0,0h0s0,0,0,0v.07s0,0,0,0v0h0v0h0s0,0,0,0h0l0,0h0l-.05,0h-.15l0,0h0s0,0,0,0l0,0s0,0,0,0l0,0s0,0,0,0,0,0,0,0a.12.12,0,0,0-.15-.08A.13.13,0,0,0,62.69,5.4Z"/></g></svg>