<svg xmlns="http://www.w3.org/2000/svg" width="70" height="70" viewBox="0 0 70 70">
  <defs>
    <style>
      .cls-1 {
        fill: #333;
      }

      .cls-2 {
        fill: #e2f4f9;
      }

      .cls-3 {
        fill: #fff;
      }

      .cls-4 {
        fill: #5ac7d5;
      }

      .cls-5 {
        fill: #e06447;
      }
    </style>
  </defs>
  <g id="Layer_165" data-name="Layer 165">
    <g>
      <g>
        <path class="cls-1" d="M48.14,8.94a2.17,2.17,0,0,1,.54,1.74L44.05,47A2.21,2.21,0,0,1,41.86,49H27.43A2.21,2.21,0,0,1,25.24,47c-.77-6-3.77-29.61-4.63-36.35A2.22,2.22,0,0,1,22.8,8.19H46.49A2.17,2.17,0,0,1,48.14,8.94Zm-.65,1.58a1,1,0,0,0-.25-.79,1,1,0,0,0-.75-.34H22.8a1,1,0,0,0-.75.34,1,1,0,0,0-.25.79l.69,5.41H46.8ZM42.85,46.88l3.79-29.74h-24l3.79,29.74a1,1,0,0,0,1,.88H41.86A1,1,0,0,0,42.85,46.88Z"/>
        <path class="cls-2" d="M46.64,17.14,42.85,46.88a1,1,0,0,1-1,.88H27.43a1,1,0,0,1-1-.88L22.65,17.14Z"/>
      </g>
      <g>
        <path class="cls-1" d="M39.75,40.33a2.06,2.06,0,0,1,0,2.91l-1.62,1.62a2.06,2.06,0,0,1-2.91,0L33.6,43.24a2.06,2.06,0,0,1,0-2.91l1.62-1.62a2,2,0,0,1,2.91,0Zm-.85,2.05a.85.85,0,0,0,0-1.2l-1.62-1.62a.85.85,0,0,0-1.21,0l-1.62,1.62a.85.85,0,0,0,0,1.2L36.07,44a.85.85,0,0,0,1.21,0Z"/>
        <path class="cls-3" d="M38.9,41.18a.85.85,0,0,1,0,1.2L37.28,44a.85.85,0,0,1-1.21,0l-1.62-1.62a.85.85,0,0,1,0-1.2l1.62-1.62a.85.85,0,0,1,1.21,0Z"/>
      </g>
      <g>
        <path class="cls-1" d="M37.28,31a2.06,2.06,0,0,1,0,2.91l-1.62,1.62a2,2,0,0,1-2.91,0L31.12,33.9a2.06,2.06,0,0,1,0-2.91l1.63-1.62a2.06,2.06,0,0,1,2.91,0Zm-.86,2.06a.85.85,0,0,0,0-1.21l-1.61-1.61a.85.85,0,0,0-1.21,0L32,31.84a.86.86,0,0,0,0,1.21l1.62,1.62a.86.86,0,0,0,1.21,0Z"/>
        <path class="cls-3" d="M33.06,30.45h2.29a.85.85,0,0,1,.85.85v2.29a.85.85,0,0,1-.85.85H33.06a.86.86,0,0,1-.86-.86V31.3a.85.85,0,0,1,.85-.85Z" transform="translate(-12.93 33.76) rotate(-45.09)"/>
      </g>
    </g>
    <g id="selectable_copy_14" data-name="selectable copy 14">
      <g>
        <path class="cls-1" d="M57.16,10.94a.67.67,0,0,1-.93-.1L55.52,10A12.84,12.84,0,0,1,50.31,9l0,.7a.68.68,0,0,1-.47.65.66.66,0,0,1-.74-.28A.6.6,0,0,1,49,9.75l0-1.24c-.61-.26-1.26-.55-1.94-.89l-4.56,8.8a.66.66,0,0,1-1.14.06.65.65,0,0,1,0-.66L45.87,7c-.67-.36-1.29-.72-1.84-1.07l-1,.7a.66.66,0,0,1-.91-.18v0a.66.66,0,0,1,.18-.9l.58-.39a13.16,13.16,0,0,1-3.62-3.48,1.76,1.76,0,0,1-.14-.23l-1.14-.07a.66.66,0,0,1-.51-.31.68.68,0,0,1,0-.69A.68.68,0,0,1,38,.05L49.46.8h0s0,0,.05,0h.1l0,0,.13,0,0,0a.18.18,0,0,1,.07,0L50,1S50,1,50,1l0,0,7.25,9A.66.66,0,0,1,57.16,10.94Zm-2.71-2.3L50.19,3.37l.09,4.23A15,15,0,0,0,54.45,8.64ZM49,7.05l-.1-4.36L45.24,5.13c.55.33,1.15.67,1.82,1S48.36,6.79,49,7.05ZM44,4.36,47.52,2l-6.76-.44A15.06,15.06,0,0,0,44,4.36Z"/>
        <path class="cls-4" d="M50.19,3.37l4.26,5.27a15,15,0,0,1-4.17-1Z"/>
        <path class="cls-4" d="M48.85,2.69,49,7.05c-.59-.26-1.21-.55-1.89-.9s-1.27-.69-1.82-1Z"/>
        <path class="cls-4" d="M47.52,2,44,4.36a15.06,15.06,0,0,1-3.26-2.81Z"/>
      </g>
      <g>
        <path class="cls-1" d="M57.16,10.94a.67.67,0,0,1-.93-.1L55.52,10A12.84,12.84,0,0,1,50.31,9l0,.7a.68.68,0,0,1-.47.65.66.66,0,0,1-.74-.28A.6.6,0,0,1,49,9.75l0-1.24c-.61-.26-1.26-.55-1.94-.89l-4.56,8.8a.66.66,0,0,1-1.14.06.65.65,0,0,1,0-.66L45.87,7c-.67-.36-1.29-.72-1.84-1.07l-1,.7a.66.66,0,0,1-.91-.18v0a.66.66,0,0,1,.18-.9l.58-.39a13.16,13.16,0,0,1-3.62-3.48,1.76,1.76,0,0,1-.14-.23l-1.14-.07a.66.66,0,0,1-.51-.31.68.68,0,0,1,0-.69A.68.68,0,0,1,38,.05L49.46.8h0s0,0,.05,0h.1l0,0,.13,0,0,0a.18.18,0,0,1,.07,0L50,1S50,1,50,1l0,0,7.25,9A.66.66,0,0,1,57.16,10.94Zm-2.71-2.3L50.19,3.37l.09,4.23A15,15,0,0,0,54.45,8.64ZM49,7.05l-.1-4.36L45.24,5.13c.55.33,1.15.67,1.82,1S48.36,6.79,49,7.05ZM44,4.36,47.52,2l-6.76-.44A15.06,15.06,0,0,0,44,4.36Z"/>
        <path class="cls-5" d="M50.19,3.37l4.26,5.27a15,15,0,0,1-4.17-1Z"/>
        <path class="cls-5" d="M48.85,2.69,49,7.05c-.59-.26-1.21-.55-1.89-.9s-1.27-.69-1.82-1Z"/>
        <path class="cls-5" d="M47.52,2,44,4.36a15.06,15.06,0,0,1-3.26-2.81Z"/>
      </g>
    </g>
  </g>
</svg>