<svg xmlns="http://www.w3.org/2000/svg" width="70" height="70" viewBox="0 0 70 70">
  <defs>
    <style>
      .cls-1 {
        fill: #97cbea;
      }

      .cls-2 {
        fill: #77b8db;
      }

      .cls-3 {
        fill: #60a7c6;
      }

      .cls-4 {
        fill: #fff;
      }

      .cls-5 {
        fill: #f4f3f2;
      }

      .cls-6 {
        fill: #81c56e;
      }

      .cls-7 {
        fill: #66ad66;
      }

      .cls-8 {
        fill: #64c8d2;
      }

      .cls-9 {
        fill: #cae8f9;
      }

      .cls-10 {
        fill: #333;
      }
    </style>
  </defs>
  <g id="Layer_178" data-name="Layer 178">
    <g>
      <path class="cls-1" d="M46.77,43.77l-24.63.11A2.18,2.18,0,0,1,20,41.71l-.08-17.92,29-.13.08,17.92a2.19,2.19,0,0,1-2.17,2.19Zm0,0"/>
      <path class="cls-2" d="M48.86,23.66l-4.54,0,.08,17.9a2.18,2.18,0,0,1-2.17,2.19h4.54a2.19,2.19,0,0,0,2.17-2.19Zm0,0"/>
      <path class="cls-2" d="M49.85,25.48h-31a.38.38,0,0,1-.38-.37V22.63a.38.38,0,0,1,.38-.37h31a.37.37,0,0,1,.37.37v2.48a.37.37,0,0,1-.37.37Zm0,0"/>
      <path class="cls-3" d="M49.85,22.26h-4.1v3.22h4.1a.37.37,0,0,0,.37-.37V22.63a.37.37,0,0,0-.37-.37Zm0,0"/>
      <path class="cls-4" d="M42.23,34.69a7.48,7.48,0,1,1-7.48-7.49,7.48,7.48,0,0,1,7.48,7.49Zm0,0"/>
      <path class="cls-5" d="M42.23,34.69a7.49,7.49,0,0,0-7.48-7.49v15a7.48,7.48,0,0,0,7.48-7.48Zm0,0"/>
      <path class="cls-6" d="M12.2,2.44c3.61,2.75,6.71,6.39,10.52,8.8a10.11,10.11,0,0,0,8.72,1.11c1.23-3.47-1-7-3.89-8.87C23.21.76,17,.92,12.2,2.44Zm0,0"/>
      <path class="cls-6" d="M53.8,9c-3,1.74-5.61,4.18-8.68,5.65a7.61,7.61,0,0,1-6.65,0c-.61-2.71,1.39-5.2,3.72-6.29,3.5-1.65,8.18-1,11.61.6Zm0,0"/>
      <path class="cls-7" d="M27.55,3.48C23.21.76,17,.92,12.2,2.44a36.78,36.78,0,0,1,19.17,9.93l.07,0c1.23-3.47-1-7-3.89-8.87Zm0,0"/>
      <path class="cls-7" d="M38.52,14.67a7.67,7.67,0,0,0,6.6-.07c3.07-1.47,5.72-3.91,8.68-5.65a27.86,27.86,0,0,0-15.28,5.72Zm0,0"/>
      <path class="cls-8" d="M27.39,36.06a7.48,7.48,0,0,0,14.74-.16l-.07,0c-1.22,0-1.22.87-2.44.87s-1.22-.87-2.44-.87-1.22.87-2.44.87-1.22-.87-2.44-.87-1.22.87-2.44.87-1.22-.87-2.44-.87Zm0,0"/>
      <path class="cls-9" d="M34.75,29s-3,3.31-3,6.16a3,3,0,1,0,6,0c0-2.85-3-6.16-3-6.16Zm0,0"/>
      <path class="cls-10" d="M54.45,8.91h0s0-.05,0-.07h0s0-.05,0-.07v0a.14.14,0,0,1,0-.06h0a.43.43,0,0,0,0-.07v0l0,0,0,0,0,0,0,0,0,0,0,0,0,0h0a18.31,18.31,0,0,0-6-1.57,12.27,12.27,0,0,0-6.15,1,8,8,0,0,0-3.24,2.79,5.53,5.53,0,0,0-.91,3.89c-.91.72-1.72,1.44-2.37,2.07v-.82a12.55,12.55,0,0,1,3.93-8.46.66.66,0,0,0,0-.93.65.65,0,0,0-.92,0,14.55,14.55,0,0,0-4.21,8.1c-.6-.7-1.28-1.42-2-2.16A7.08,7.08,0,0,0,31.63,7a10.23,10.23,0,0,0-3.74-4.08A16,16,0,0,0,20.06.72,23.83,23.83,0,0,0,12,1.82h0l-.06,0h0l-.05,0h0L11.78,2h0s0,0,0,0V2l-.05.06h0l0,.06v0a.14.14,0,0,0,0,.06v0a.64.64,0,0,0,0,.07h0s0,.05,0,.07v0a.88.88,0,0,0,0,.16v0a.14.14,0,0,1,0,.06v0l0,.07h0a.1.1,0,0,0,0,0v0l.05.06h0L11.8,3h0C13.3,4.1,14.74,5.42,16.13,6.7a45.47,45.47,0,0,0,6.24,5.09,11.06,11.06,0,0,0,5.93,1.75,10.17,10.17,0,0,0,2.9-.42,39.38,39.38,0,0,1,2.89,3.2l0,1.67a.38.38,0,0,0,0,.21l0,3.4H18.49a.66.66,0,0,0-.65.66v3.22a.65.65,0,0,0,.65.65h.75l.06,15.58a2.84,2.84,0,0,0,2.83,2.82h0l24.62-.11a2.78,2.78,0,0,0,2-.84,2.84,2.84,0,0,0,.82-2l-.07-15.45h.7a.65.65,0,0,0,.66-.65V22.26a.67.67,0,0,0-.66-.66H35.44l0-3.27a32.42,32.42,0,0,1,3.2-2.9,7.82,7.82,0,0,0,3.07.61,8.6,8.6,0,0,0,3.72-.85,34.58,34.58,0,0,0,5.16-3.27c1.16-.83,2.35-1.69,3.57-2.41h0l.07,0h0l.06-.05v0l0-.05h0l0-.06v0s0,0,0-.06v0a.4.4,0,0,0,0-.15V8.93h0ZM23.07,10.69A45,45,0,0,1,17,5.74c-.73-.68-1.48-1.37-2.25-2A35.76,35.76,0,0,1,30.1,12.05a9.53,9.53,0,0,1-7-1.36Zm8,.49A36.94,36.94,0,0,0,15,2.41C18.83,1.69,23.61,1.79,27.2,4c2.38,1.49,4.31,4.32,3.87,7.15Zm18.5,11.73v1.92H27.77a.65.65,0,0,0,0,1.3H48.22l.07,15.45a1.51,1.51,0,0,1-.45,1.08,1.49,1.49,0,0,1-1.07.45l-24.63.12h0a1.53,1.53,0,0,1-1.52-1.52l-.07-15.58h2.62a.65.65,0,1,0,0-1.3h-4V22.91Zm-7.1-14A12.61,12.61,0,0,1,51,8.63,28,28,0,0,0,39,13.48a5.74,5.74,0,0,1,3.45-4.54Zm7.33,1.92a33,33,0,0,1-5,3.15,7.2,7.2,0,0,1-5,.47A26.73,26.73,0,0,1,51.11,9.93l-1.31.93Zm0,0"/>
      <path class="cls-10" d="M27,37.22v0l.09.28a.42.42,0,0,1,0,.1c0,.06.05.12.07.17s.07.15.1.23v0a8.19,8.19,0,0,0,4.05,4.05l.12,0,.19.08.18.07.12.05.23.07.08,0,.27.08.07,0,.29.07H33c.21,0,.43.09.65.12h0l.31,0h.06l.32,0h.76l.33,0h0a8,8,0,0,0,2.7-.73l.07,0,.23-.12.13-.06.13-.08a8.27,8.27,0,0,0,1.29-.9,7.93,7.93,0,0,0,1.33-1.45l0,0,.16-.22.07-.11s.05-.08.07-.13a1.37,1.37,0,0,0,.13-.2.41.41,0,0,1,0-.09c0-.09.09-.17.13-.25l0-.05c.1-.2.2-.4.28-.61h0a8.06,8.06,0,0,0,.59-3,8.14,8.14,0,0,0-16.28,0A7.89,7.89,0,0,0,27,37.22ZM41.19,37a.36.36,0,0,0,0,.11l-.09.21,0,.09a1.47,1.47,0,0,1-.1.22s0,0,0,0-.09.18-.14.27l0,0-.15.26h0A6.92,6.92,0,0,1,38,40.69h0l-.26.13,0,0-.26.12h0l-.28.12-.2.06-.1,0-.2.06-.1,0-.2.05-.11,0-.19,0-.13,0-.18,0-.15,0-.16,0H34.33l-.22,0H34l-.22,0h-.1l-.3-.06h0l-.27-.06-.08,0-.23-.06-.07,0-.27-.09h0a6.86,6.86,0,0,1-4.06-4.05l0-.06a.88.88,0,0,1-.05-.15,2.57,2.57,0,0,0,3.19,0h0A3.63,3.63,0,0,0,34.19,39h0l.17,0h.76l.17,0h0l.17,0h0A3.67,3.67,0,0,0,38,36.84a2.53,2.53,0,0,0,1.6.55,2.47,2.47,0,0,0,1.6-.56h0s0,.1-.05.16Zm-8.77-1.85c0-1.9,1.52-4.1,2.33-5.14.81,1,2.33,3.24,2.33,5.14a2.67,2.67,0,0,1-.07.64h0a1.46,1.46,0,0,1,0,.2v0l-.06.16,0,.06-.06.12-.05.1,0,.07-.1.16v0a2,2,0,0,1-.22.27v0l-.15.15h0a2.43,2.43,0,0,1-.25.2l-.06,0-.1.06-.09.05-.06,0-.14.06,0,0-.15,0h0l-.16,0h0l-.17,0h-.42l-.17,0h0l-.16,0h0l-.14,0,0,0-.13-.06-.06,0-.09-.05-.1-.06-.06,0a2.43,2.43,0,0,1-.25-.2h0L33.1,37h0a3,3,0,0,1-.22-.28h0a1.08,1.08,0,0,1-.11-.18l0-.06a.31.31,0,0,0,0-.1l0-.12s0,0,0-.06L32.55,36v0a1.05,1.05,0,0,1,0-.19h0a2.73,2.73,0,0,1-.07-.64Zm2.33-7.27a6.83,6.83,0,0,1,6.83,6.83c0,.19,0,.38,0,.57a2.62,2.62,0,0,0-1.1.51,1.29,1.29,0,0,1-1.68,0,3.66,3.66,0,0,0-.41-.26c0-.13,0-.25,0-.38,0-3.07-3-6.46-3.16-6.6a.63.63,0,0,0-.48-.21.61.61,0,0,0-.48.21c-.13.14-3.16,3.53-3.16,6.6,0,.12,0,.24,0,.37a2.45,2.45,0,0,0-.43.27,1.21,1.21,0,0,1-.84.31,1.19,1.19,0,0,1-.84-.31,2.65,2.65,0,0,0-1.08-.51c0-.19,0-.38,0-.57a6.83,6.83,0,0,1,6.83-6.83Zm0,0"/>
    </g>
  </g>
</svg>
