<svg xmlns="http://www.w3.org/2000/svg" width="70" height="70" viewBox="0 0 70 70">
  <defs>
    <style>
      .cls-1 {
        fill: #94bce4;
      }

      .cls-2 {
        fill: #fafafa;
      }

      .cls-3 {
        fill: #d9734f;
      }

      .cls-4 {
        fill: #fbc5b4;
      }

      .cls-5 {
        fill: #454b59;
      }

      .cls-6 {
        fill: #4683b6;
      }

      .cls-7 {
        fill: #ed9283;
      }

      .cls-8 {
        fill: #4d5361;
      }

      .cls-9 {
        fill: #333;
      }
    </style>
  </defs>
  <g id="Layer_181" data-name="Layer 181">
    <g>
      <path class="cls-1" d="M26.24,37.76A15.68,15.68,0,0,0,21.89,43a3.9,3.9,0,0,0,2.34,5.3,13.52,13.52,0,0,0,4.18.56H40a2.34,2.34,0,0,0,2.35-2.17v-.16s4.2.32,5.79-2.34a3.85,3.85,0,0,0,.47-2.46,7.66,7.66,0,0,0-3.65-5.8Zm0,0"/>
      <path class="cls-2" d="M21.53,26.21a26.5,26.5,0,0,1,5-5,3.73,3.73,0,0,1,2.54-.74l5.13.39s2.53-.49,4.85-.76a3.74,3.74,0,0,1,3.4,1.45,13.6,13.6,0,0,1,2.81,7.92H26.91Zm0,0"/>
      <path class="cls-3" d="M64.82,29.5a.8.8,0,0,0-.63-.19l-3.55.45a1.65,1.65,0,0,0-1.18.77h-12a6.58,6.58,0,0,0-9.37-4.31,3,3,0,0,1-3.21-.37,7.94,7.94,0,0,0-3.65-1.59,3.07,3.07,0,0,0-2.76,1l-2.9,3.29-2-1.21A7.94,7.94,0,0,0,35,38.31,2.92,2.92,0,0,1,38.12,38a6.56,6.56,0,0,0,9.36-4.24h12a1.65,1.65,0,0,0,1.18.77l3.55.46a.84.84,0,0,0,.63-.2.78.78,0,0,0,.27-.59V30.1A.8.8,0,0,0,64.82,29.5Z"/>
      <path class="cls-4" d="M31.59,16.77v3.9a2.11,2.11,0,0,0,1,1.77h0a2.1,2.1,0,0,0,3.22-1.77V15.82Zm0,0"/>
      <path class="cls-5" d="M43.9,32.14a3.8,3.8,0,1,1-3.79-3.8,3.79,3.79,0,0,1,3.79,3.8Zm0,0"/>
      <path class="cls-6" d="M42.33,46.53A8.79,8.79,0,0,0,39.84,43a4,4,0,0,1,2.08-.58,2.82,2.82,0,0,1,1.8.65A14,14,0,0,1,47,46.39a1.49,1.49,0,0,1,0,1.73l-.07.08a2.53,2.53,0,0,1-3.12.51,3.14,3.14,0,0,1-1.42-2.18Zm0,0"/>
      <path class="cls-4" d="M54.62,30.82a1.93,1.93,0,0,0-1.47-.49,2,2,0,0,0-1.39.71l-3,3.62-1-.55L47.44,34a6.62,6.62,0,0,1-1.82,3,12.9,12.9,0,0,0,2,1.45,3,3,0,0,0,3.78-.58c1.25-1.41,2.57-3.05,3.48-4.21a2,2,0,0,0-.26-2.75Zm0,0"/>
      <path class="cls-4" d="M22.34,25.18,31,30.6a2.2,2.2,0,1,1-2.37,3.7L22.11,30a2.66,2.66,0,0,1-.57-3.94c.24-.29.51-.59.8-.9Zm0,0"/>
      <path class="cls-7" d="M31.59,20.67s0,.06,0,.08l4.2-1.21V15.82l-4.21.95Zm0,0"/>
      <path class="cls-7" d="M28,10.9h1.58v4.19H28a2.1,2.1,0,1,1,0-4.19Zm0,0"/>
      <path class="cls-7" d="M38.83,15.09H37.24V10.9h1.59a2.1,2.1,0,0,1,0,4.19Zm0,0"/>
      <path class="cls-4" d="M28.41,10.08l.43,4.3A4.66,4.66,0,0,0,38.13,14,46,46,0,0,0,38,8.76L32.72,4.82Zm0,0"/>
      <path class="cls-8" d="M32.7,5.94s.92,2.86,4.87,4.59A1.32,1.32,0,0,0,39,10.25c.75-.73,1.69-2.28,1-5.15a5.89,5.89,0,0,0-3-3.84A5.16,5.16,0,0,0,31.24,2s-4.14-.28-5.63,3.13a5.44,5.44,0,0,0-.2,3.75,5.67,5.67,0,0,0,1.31,2.31,1.33,1.33,0,0,0,2-.07,11.12,11.12,0,0,1,1.93-1.76A5.31,5.31,0,0,0,32.7,5.94Zm0,0"/>
      <path class="cls-9" d="M37.86,25.68a2.42,2.42,0,0,1-2.57-.31,8.58,8.58,0,0,0-3.93-1.71,3.64,3.64,0,0,0-3.3,1.21l-.72.83a.61.61,0,0,0,.91.8l.72-.82a2.45,2.45,0,0,1,2.2-.82,7.25,7.25,0,0,1,3.37,1.47,3.62,3.62,0,0,0,3.86.43,6,6,0,0,1,7.77,2.15.6.6,0,0,0,1-.65,7.16,7.16,0,0,0-1.77-1.91,14.69,14.69,0,0,0-2.5-5.17,4.38,4.38,0,0,0-4-1.68l-1.21.15a.61.61,0,1,0,.17,1.2l1.17-.15A3.18,3.18,0,0,1,42,21.91a13.35,13.35,0,0,1,1.93,3.56,7.31,7.31,0,0,0-2.4-.56,7.22,7.22,0,0,0-3.62.77Zm0,0"/>
      <path class="cls-9" d="M32.06,13.14a.23.23,0,0,0,.11,0l.11-.06.09-.07a.62.62,0,0,0,0-.86l-.09-.07L32.17,12a.45.45,0,0,0-.11,0,.49.49,0,0,0-.24,0,.35.35,0,0,0-.11,0l-.11.06-.09.07a.61.61,0,0,0,.43,1l.12,0Zm0,0"/>
      <path class="cls-9" d="M34.87,13.16a.61.61,0,0,0,.43-1l-.09-.07a.53.53,0,0,0-.1-.06L35,12a.49.49,0,0,0-.24,0l-.11,0-.1.06-.1.07a.61.61,0,0,0,.43,1Zm0,0"/>
      <path class="cls-9" d="M64.13,35.94l.05-.37.83.11a.6.6,0,0,0,.68-.6V29.19a.6.6,0,0,0-.68-.6l-.84.11,0-.28a.61.61,0,0,0-1.2.17l0,.26L62,29l0-.28a.61.61,0,1,0-1.21.17l0,.27-.27,0a2.28,2.28,0,0,0-1.2.55H43.78a4.4,4.4,0,0,0-7.34,0H33.53a.61.61,0,1,0,0,1.21h2.35a4.37,4.37,0,0,0,0,2.43h-3.4a2.79,2.79,0,0,0-1.17-3.26l-8-5a27.33,27.33,0,0,1,3.61-3.36A3.07,3.07,0,0,1,29,21.08l2,.15A2.69,2.69,0,0,0,32.23,23h0a2.71,2.71,0,0,0,4.16-2.28V18.26a5.35,5.35,0,0,0,2-2.56h.41A2.72,2.72,0,0,0,41.53,13a3,3,0,0,0-2.72-3h-.64a2.07,2.07,0,0,1-.49-.12c-3.61-1.58-4.36-4-4.39-4.13a.61.61,0,0,0-1.19.09,4.77,4.77,0,0,1-1.82,3h0a12,12,0,0,0-2,1.86.75.75,0,0,1-.54.26.66.66,0,0,1-.53-.22A5.08,5.08,0,0,1,26,8.69a4.78,4.78,0,0,1,.18-3.33c1.29-3,4.88-2.78,5-2.77a.6.6,0,0,0,.41-.12,4.58,4.58,0,0,1,5.15-.67,5.29,5.29,0,0,1,2.67,3.45,5.73,5.73,0,0,1,0,3.35.61.61,0,0,0,.36.79A.6.6,0,0,0,40.54,9,6.93,6.93,0,0,0,40.61,5,6.47,6.47,0,0,0,37.3.72a5.69,5.69,0,0,0-6.25.66c-1,0-4.55.19-6,3.49A6,6,0,0,0,24.83,9,6.46,6.46,0,0,0,26,11.22a2.7,2.7,0,0,0,.95,4.25.61.61,0,1,0,.49-1.11A1.49,1.49,0,0,1,26.5,13a1.43,1.43,0,0,1,.36-1,1.88,1.88,0,0,0,.81.18h0a1.43,1.43,0,0,0,.29,0l.23,2.28A5.26,5.26,0,0,0,31,18.54V20l-1.89-.14a4.31,4.31,0,0,0-3,.86,28.58,28.58,0,0,0-4.25,4.05c-.28.29-.55.6-.82.91a3.26,3.26,0,0,0,.57,4.73A8.53,8.53,0,0,0,23.85,38c.18.19.37.36.56.53a14.18,14.18,0,0,0-3.07,4.19A4.52,4.52,0,0,0,24,48.88a14.23,14.23,0,0,0,4.37.58H40a3,3,0,0,0,2.42-1.22A3,3,0,0,0,45,49.64a3.22,3.22,0,0,0,2.35-1l.1-.12a2.09,2.09,0,0,0,.07-2.45l-.12-.17a4.68,4.68,0,0,0,1.28-1.38,4.46,4.46,0,0,0,.55-2.86c0-.25-.08-.51-.14-.77a.6.6,0,1,0-1.18.26c.05.22.09.45.12.68a3.26,3.26,0,0,1-.39,2.07,3.6,3.6,0,0,1-1,1,19.19,19.19,0,0,0-2.51-2.33,3.46,3.46,0,0,0-2.2-.78,4.75,4.75,0,0,0-2.24.57H36a3.5,3.5,0,0,1,1.16-.82.6.6,0,1,0-.44-1.12,5.36,5.36,0,0,0-2.3,1.94H30.64a.61.61,0,1,0,0,1.21h9a8.48,8.48,0,0,1,2.12,3v0A1.71,1.71,0,0,1,40,48.25H28.41a13,13,0,0,1-4-.53,3.3,3.3,0,0,1-2-4.47,13.59,13.59,0,0,1,2.95-4,8.54,8.54,0,0,0,10-.52,2.31,2.31,0,0,1,2.49-.26,7.24,7.24,0,0,0,7.79-.8,12.87,12.87,0,0,0,1.68,1.16,3.62,3.62,0,0,0,4.54-.7c1.06-1.19,2.16-2.54,3-3.62h4.48a2.28,2.28,0,0,0,1.2.55l.28,0-.05.37a.61.61,0,0,0,.52.68h.09a.62.62,0,0,0,.6-.53l0-.37.93.12,0,.36a.6.6,0,0,0,.52.68h.08a.61.61,0,0,0,.6-.53ZM38.74,14v-.53c0-.79,0-1.48,0-2.2h.05A1.75,1.75,0,0,1,40.32,13a1.49,1.49,0,0,1-1.49,1.49H38.7c0-.16,0-.33,0-.5Zm-3.54,6.7A1.49,1.49,0,0,1,34.42,22a1.5,1.5,0,0,1-1.52,0h0a1.5,1.5,0,0,1-.69-1.26V19a5.54,5.54,0,0,0,1.28.16,5.11,5.11,0,0,0,1.72-.3Zm-5.75-6.37-.29-2.82A11.34,11.34,0,0,1,31,9.84a6.12,6.12,0,0,0,1.88-2.28A9.81,9.81,0,0,0,37.19,11a2.06,2.06,0,0,0,.35.12c0,.75,0,1.47,0,2.29V14a4,4,0,0,1-5.67,3.66l0,0a4,4,0,0,1-2.36-3.29ZM40.9,43.17a3.93,3.93,0,0,1,1-.15,2.23,2.23,0,0,1,1.42.51,13.71,13.71,0,0,1,3.13,3.2.89.89,0,0,1,0,1l0,0a1.93,1.93,0,0,1-2.37.4,2.63,2.63,0,0,1-1.13-1.8.11.11,0,0,0,0,0,9.12,9.12,0,0,0-2-3.17ZM40.11,29a3.2,3.2,0,0,1,2.07.76H38A3.2,3.2,0,0,1,40.11,29Zm-3,2h13.9l-.52.61H38.15a.61.61,0,0,0,0,1.21h5.09a3.28,3.28,0,0,1-.18.61h-5.9a3.2,3.2,0,0,1,0-2.43Zm12.35,1.82-.51.61H44.34a4.13,4.13,0,0,0,.13-.61Zm-28-4.65A2,2,0,0,1,22,26.47q.21-.25.45-.51l8.22,5.16a1.57,1.57,0,0,1,.72,1.05A1.59,1.59,0,0,1,29,33.79l-6.5-4.28a2,2,0,0,1-.91-1.42Zm23.74,8.32a.52.52,0,0,0-.11.1l0,0a6,6,0,0,1-6.75.9,3.53,3.53,0,0,0-3.79.39,7.34,7.34,0,0,1-11.93-6c0-.22,0-.44.06-.65l5.54,3.65a2.83,2.83,0,0,0,3.41-.25h10.5a3.19,3.19,0,0,1-3.37.49.61.61,0,0,0-.49,1.11,4.41,4.41,0,0,0,5.46-1.6h2.78a6.1,6.1,0,0,1-1.29,1.85Zm9.13-3.21C53.52,34.33,52.2,36,51,37.38a2.41,2.41,0,0,1-3,.46,12.17,12.17,0,0,1-1.41-1,7.37,7.37,0,0,0,1.36-2.31h1.54l.06,0,.05,0,0,0,.05,0,0,0,0,0,0,0,1.49-1.75a.53.53,0,0,0,.12-.14l.87-1a1.41,1.41,0,0,1,2.19,1.77Zm1.3.15a2.64,2.64,0,0,0,.17-.61h2.74v.38a.28.28,0,0,0,0,.09.68.68,0,0,0,0,.14Zm2.92-2.29a.28.28,0,0,0,0,.09v.38H55.79a2.8,2.8,0,0,0-.28-.61h3.14a.68.68,0,0,0,0,.14Zm2.09,2.85a1.05,1.05,0,0,1-.89-.84V31.2a1.05,1.05,0,0,1,.89-.84l.87-.11h0l2-.26h.14l.7-.09v4.51Zm0,0"/>
    </g>
  </g>
</svg>