<svg xmlns="http://www.w3.org/2000/svg" width="70" height="70" viewBox="0 0 70 70">
  <defs>
    <style>
      .cls-1 {
        fill: #eaeae8;
      }

      .cls-1, .cls-2, .cls-3, .cls-4 {
        stroke: #333;
        stroke-linejoin: round;
        stroke-width: 2px;
      }

      .cls-2 {
        fill: #94cb67;
      }

      .cls-3 {
        fill: #e74a57;
      }

      .cls-4 {
        fill: #bedda0;
      }

      .cls-5 {
        fill: #333;
      }
    </style>
  </defs>
  <g id="Layer_164" data-name="Layer 164">
    <g>
      <path class="cls-1" d="M21,20.07l-1.87,1.87v1.87l-.94,1.87v1.87l.94.9H50.89l1.87-.9V24.74l-1.87-.93V21L49,19.13v-2.8l-1.87-1.87-.93-1.87L42.48,8.85l-13.09.94-3.74,4.67Zm0,0"/>
      <path class="cls-2" d="M49,48.09H21l-2.81-16.8H51.83Zm0,0"/>
      <path class="cls-3" d="M21,18.2v-.07a4.31,4.31,0,0,1,1.27-3.07l1.53-1.53V13.1a3.53,3.53,0,0,1,1-2.47l.85-.84a3.48,3.48,0,0,1,1.56-2.91l1.25-.83.28-.58a3.49,3.49,0,0,1,2-1.75l1.44-.48,2-1.36a3.06,3.06,0,0,1,4.42,1.17l1,2.06L43.41,7V8.85l1.25.83a3.48,3.48,0,0,1,1.56,2.91,2.81,2.81,0,0,1-2.81,2.81,1.87,1.87,0,0,1-1.87-1.87,1.87,1.87,0,1,0-3.74,0v3.73a1.87,1.87,0,1,1-3.73,0v-4.2a1.41,1.41,0,0,0-2.81,0v3.27a1.87,1.87,0,0,1-3.74,0h-.93a1.87,1.87,0,0,0-1.87,1.87,1.87,1.87,0,1,1-3.74,0Zm0,0"/>
      <path class="cls-4" d="M18.17,27.55H51.83a1.87,1.87,0,1,1,0,3.74H18.17a1.87,1.87,0,0,1,0-3.74Zm0,0"/>
      <path class="cls-5" d="M29.39,21a.93.93,0,0,0-.93.94v.93a.94.94,0,1,0,1.87,0v-.93a.94.94,0,0,0-.94-.94Zm0,0"/>
      <path class="cls-5" d="M35,21.91a.93.93,0,0,0-.93.93v.94a.93.93,0,0,0,1.86,0v-.94a.93.93,0,0,0-.93-.93Zm0,0"/>
      <path class="cls-5" d="M42.48,19.13a.94.94,0,0,0-1.87,0v.94a.94.94,0,0,0,1.87,0Zm0,0"/>
      <path class="cls-5" d="M43.41,21.91a.93.93,0,0,0-.93.93v.94a.94.94,0,0,0,1.87,0v-.94a.94.94,0,0,0-.94-.93Zm0,0"/>
      <path class="cls-5" d="M23.78,21.91a.93.93,0,0,0-.93.93v.94a.94.94,0,0,0,1.87,0v-.94a.94.94,0,0,0-.94-.93Zm0,0"/>
    </g>
  </g>
</svg>