<svg xmlns="http://www.w3.org/2000/svg" width="70" height="70" viewBox="0 0 70 70">
  <defs>
    <style>
      .cls-1 {
        isolation: isolate;
      }

      .cls-2 {
        fill: #333;
      }

      .cls-3 {
        fill: #f1b961;
      }

      .cls-4 {
        fill: #f9be64;
      }

      .cls-5 {
        fill: #4ea6dc;
      }

      .cls-6 {
        fill: #ec815e;
      }

      .cls-7 {
        fill: #fff;
        opacity: 0.17;
        mix-blend-mode: lighten;
      }
    </style>
  </defs>
  <g class="cls-1">
    <g id="Layer_161" data-name="Layer 161">
      <g>
        <g>
          <path class="cls-2" d="M61.55,20.64v.14a2.68,2.68,0,0,1-2.27,2.64v9A13.08,13.08,0,0,1,46.2,45.51H38.32a5.18,5.18,0,1,1,0-4.67H46.2a8.4,8.4,0,0,0,8.4-8.4v-9H53v1.28a8.41,8.41,0,0,1-8.42,8.42h-8a.63.63,0,0,1-.64-.64,2.15,2.15,0,0,0-4.29,0,.63.63,0,0,1-.64.64h-8a8.42,8.42,0,0,1-8.42-8.42V16.09a3.61,3.61,0,0,1,3.61-3.61H49.34A3.61,3.61,0,0,1,53,16.09V18H54.6V1.77a.64.64,0,0,1,.64-.64h3.4a.64.64,0,0,1,.64.64V18a2.68,2.68,0,0,1,2.27,2.64Zm-1.28.14v-.14a1.4,1.4,0,0,0-1.4-1.4H55.35l-.11,0-.11,0H53v2.94h5.92a1.39,1.39,0,0,0,1-.41A1.41,1.41,0,0,0,60.27,20.78ZM58,32.44v-9H55.88v9a9.68,9.68,0,0,1-9.68,9.67H38.77a4.74,4.74,0,0,1,.11,1.07,4.65,4.65,0,0,1-.11,1.06H46.2A11.8,11.8,0,0,0,58,32.44ZM58,18V2.4H55.88V18Zm-6.32,6.78V16.09a2.34,2.34,0,0,0-2.34-2.34H18.07a2.34,2.34,0,0,0-2.34,2.34v8.65a7.15,7.15,0,0,0,7.15,7.15h7.47a3.41,3.41,0,0,1,6.71,0h7.47A7.15,7.15,0,0,0,51.68,24.74ZM37.61,43.18a3.91,3.91,0,1,0-3.91,3.9A3.91,3.91,0,0,0,37.61,43.18Z"/>
          <path class="cls-3" d="M60.27,20.64v.14a1.41,1.41,0,0,1-.41,1,1.39,1.39,0,0,1-1,.41H53V19.24h2.18l.11,0,.11,0h3.52a1.4,1.4,0,0,1,1.4,1.4Z"/>
          <path class="cls-4" d="M58,23.46v9a11.8,11.8,0,0,1-11.8,11.8H38.77a4.65,4.65,0,0,0,.11-1.06,4.74,4.74,0,0,0-.11-1.07H46.2a9.68,9.68,0,0,0,9.68-9.67v-9Z"/>
          <path class="cls-4" d="M58,2.4V18H55.88V2.4Z"/>
          <path class="cls-5" d="M51.68,22.82v1.92a7.15,7.15,0,0,1-7.15,7.15H37.06a3.41,3.41,0,0,0-6.71,0H22.88a7.15,7.15,0,0,1-7.15-7.15V16.09a2.34,2.34,0,0,1,2.34-2.34H49.34a2.34,2.34,0,0,1,2.34,2.34v6.73Z"/>
          <circle class="cls-6" cx="33.7" cy="43.18" r="3.9"/>
        </g>
        <path class="cls-7" d="M48.28,17.15v7.59a3.75,3.75,0,0,1-3.75,3.75H39.2a6.81,6.81,0,0,0-11,0H22.88a3.75,3.75,0,0,1-3.75-3.75V17.15Z"/>
        <path class="cls-2" d="M19.13,17.15v7.59a3.75,3.75,0,0,0,3.75,3.75h5.33a6.81,6.81,0,0,1,11,0h5.33a3.75,3.75,0,0,0,3.75-3.75V17.15ZM33.7,27a5.51,5.51,0,0,0-4.62,2.5l0,0v0a.62.62,0,0,1-.42.25H22.88a5,5,0,0,1-5-5V16.51a.65.65,0,0,1,.64-.64H48.92a.64.64,0,0,1,.63.64v8.23a5,5,0,0,1-5,5H38.86a.64.64,0,0,1-.53-.29A5.55,5.55,0,0,0,33.7,27Z"/>
      </g>
    </g>
  </g>
</svg>
