<svg xmlns="http://www.w3.org/2000/svg" width="70" height="70" viewBox="0 0 70 70">
  <defs>
    <style>
      .cls-1 {
        fill: #fff;
      }

      .cls-1, .cls-2 {
        fill-rule: evenodd;
      }

      .cls-2 {
        fill: #a8cca5;
      }

      .cls-3 {
        fill: #333;
      }
    </style>
  </defs>
  <g id="Layer_173" data-name="Layer 173">
    <g>
      <path class="cls-1" d="M15.27,23.21c-.39,1.79-.78,3.59-1.18,5.38,7.2,3.63,34.62,3.63,41.82,0-.4-1.79-.79-3.59-1.18-5.38-.44-2-.87-4-1.31-6l-1.2-5.51c-.31-1.39-1.11-2.59-2.46-2.59H20.24c-1.35,0-2.15,1.2-2.46,2.59l-1.2,5.51c-.44,2-.87,4-1.31,6Zm0,0"/>
      <path class="cls-1" d="M55.91,28.59c-7.2,3.63-34.62,3.63-41.82,0A31,31,0,0,0,5.76,40.86c-.76,3,3.13,4.06,5.21,4.06,2.9,0,3.11-1.36,6-1.36s3.1,1.36,6,1.36,3.1-1.36,6-1.36,3.11,1.36,6,1.36,3.1-1.36,6-1.36,3.1,1.36,6,1.36,3.11-1.36,6-1.36,3.11,1.36,6,1.36c2.08,0,6-1.08,5.21-4.06a31,31,0,0,0-8.33-12.27Zm0,0"/>
      <path class="cls-2" d="M20.23,22.71a2.56,2.56,0,0,0,3.63-3.62,2.31,2.31,0,0,0-.51-.39A3.67,3.67,0,0,0,23,13.9a3,3,0,0,0-.38-.33,3.65,3.65,0,0,0-.86-3.82,3.75,3.75,0,0,0-.79-.6h-.73c-1.35,0-2.15,1.2-2.46,2.59-.14.67-.29,1.33-.44,2s-.29,1.35-.44,2c-.11.5-.21,1-.32,1.49q-.55,2.49-1.09,5a3.66,3.66,0,0,0,4.35,0,2.16,2.16,0,0,0,.39.51Zm0,0"/>
      <path class="cls-2" d="M38.93,14.89a2.56,2.56,0,1,0,3.62,3.62,2.05,2.05,0,0,0,.39-.5,3.69,3.69,0,0,0,4.8-.35,3.9,3.9,0,0,0,.33-.38,3.67,3.67,0,0,0,3.82-.86,3.62,3.62,0,0,0,1-1.73c-.21-1-.43-2-.64-2.95-.31-1.39-1.11-2.59-2.46-2.59H40.09a1.87,1.87,0,0,0,.07.22,3.9,3.9,0,0,0-.38.33,3.67,3.67,0,0,0-.34,4.8,1.92,1.92,0,0,0-.51.39Zm0,0"/>
      <path class="cls-2" d="M39.39,37a2.56,2.56,0,0,0-3.62,0,2.72,2.72,0,0,0-.4.51,3.67,3.67,0,0,0-4.79.34,3.9,3.9,0,0,0-.33.38A3.67,3.67,0,0,0,26,43.77a2.94,2.94,0,0,0-.42.64A7.2,7.2,0,0,1,29,43.56l.45,0a6.71,6.71,0,0,1,2.64.7,6.41,6.41,0,0,0,2.92.64c2.34,0,2.92-.88,4.58-1.22a3.65,3.65,0,0,0-.7-2.71,2.72,2.72,0,0,0,.51-.4,2.56,2.56,0,0,0,0-3.62Zm0,0"/>
      <path class="cls-3" d="M65.39,40.57l0-.11A32,32,0,0,0,57,28L53.38,11.48C52.91,9.31,51.52,8,49.76,8H20.24c-1.76,0-3.15,1.36-3.62,3.53L13,28a32,32,0,0,0-8.37,12.5l0,.11a3.62,3.62,0,0,0,.63,3.24c1.41,1.82,4.27,2.3,5.73,2.3a7.6,7.6,0,0,0,3.48-.78A5.44,5.44,0,0,1,17,44.76a5.36,5.36,0,0,1,2.52.57,7.68,7.68,0,0,0,3.49.78,7.63,7.63,0,0,0,3.48-.78,5.88,5.88,0,0,1,5.05,0,8.15,8.15,0,0,0,7,0,5.88,5.88,0,0,1,5.05,0,8.18,8.18,0,0,0,7,0A5.36,5.36,0,0,1,53,44.76a5.44,5.44,0,0,1,2.53.57,7.6,7.6,0,0,0,3.48.78c1.46,0,4.32-.48,5.73-2.3a3.62,3.62,0,0,0,.63-3.24ZM51.05,12l.58,2.66a2.6,2.6,0,0,1-.58.93,2.49,2.49,0,0,1-2.58.58,1.19,1.19,0,0,0-1.35.4,2.85,2.85,0,0,1-.23.26,2.49,2.49,0,0,1-3.23.23,1.19,1.19,0,0,0-.95-.21,1.17,1.17,0,0,0-.79.56,1.39,1.39,0,0,1-.21.27,1.36,1.36,0,0,1-1.94,0A1.37,1.37,0,0,1,40,15.52a1.21,1.21,0,0,0,.57-.79,1.24,1.24,0,0,0-.22-1,2.49,2.49,0,0,1,.23-3.23l.24-.21h4.52l-2.8,2.8a1.19,1.19,0,1,0,1.68,1.69l3.26-3.26v1.31a1.19,1.19,0,1,0,2.38,0V10.35c.76.13,1.07,1.28,1.15,1.64ZM20.24,10.34h.38a1.81,1.81,0,0,1,.3.25,2.49,2.49,0,0,1,.58,2.58,1.2,1.2,0,0,0,.4,1.35l.26.23A2.47,2.47,0,0,1,22.39,18a1.19,1.19,0,0,0-.21.95,1.17,1.17,0,0,0,.56.79,1.39,1.39,0,0,1,.27.21,1.37,1.37,0,0,1-1,2.34,1.35,1.35,0,0,1-1-.4,1.13,1.13,0,0,1-.22-.27,1.17,1.17,0,0,0-.79-.56,1.19,1.19,0,0,0-.95.21,2.52,2.52,0,0,1-2.28.36l.78-3.55.95,1a1.22,1.22,0,0,0,.85.35,1.2,1.2,0,0,0,.84-2l-2-2,.05-.25h.13a1.19,1.19,0,0,0,.38-2.32L19,12c.08-.38.43-1.65,1.29-1.65ZM35,43.73c-.28,0-.53,0-.75,0l1.44-1.44A1.19,1.19,0,1,0,34,40.57l-2.27,2.27a7.31,7.31,0,0,0-1-.29v0a1.19,1.19,0,0,0-2.38-.12,7.33,7.33,0,0,0-1.6.28,2.46,2.46,0,0,1,.51-2.76,2.48,2.48,0,0,1,2.58-.58,1.2,1.2,0,0,0,1.35-.41,2.62,2.62,0,0,1,.22-.25,2.49,2.49,0,0,1,3.24-.24,1.14,1.14,0,0,0,.94.22,1.2,1.2,0,0,0,.8-.56,1.86,1.86,0,0,1,.21-.28,1.38,1.38,0,0,1,1.94,0,1.38,1.38,0,0,1,0,1.94,1.46,1.46,0,0,1-.28.21,1.22,1.22,0,0,0-.56.8,1.18,1.18,0,0,0,.22.94,2.61,2.61,0,0,1,.46,1.1,9,9,0,0,0-.86.35,5.43,5.43,0,0,1-2.53.58Zm27.88-1.38A5.54,5.54,0,0,1,59,43.73a5.43,5.43,0,0,1-2.53-.58,8.15,8.15,0,0,0-7,0,5.79,5.79,0,0,1-5,0A7.63,7.63,0,0,0,41,42.37h-.27a4.91,4.91,0,0,0-.34-1.13A3.75,3.75,0,0,0,35.1,36a4.89,4.89,0,0,0-5.25.91,4.91,4.91,0,0,0-4.27,1.35,4.85,4.85,0,0,0-1,5.31,5.89,5.89,0,0,1-4.07-.38A7.63,7.63,0,0,0,17,42.37a7.6,7.6,0,0,0-3.48.78,5.43,5.43,0,0,1-2.53.58,5.54,5.54,0,0,1-3.85-1.38,1.28,1.28,0,0,1-.21-1.15A29.44,29.44,0,0,1,14.32,30c4,1.65,11.18,2.2,15.26,2.38A1.19,1.19,0,1,0,29.69,30c-6.37-.29-11.45-1-14.22-2.11L16.33,24a4.82,4.82,0,0,0,3.24-.22,3.76,3.76,0,0,0,5.3-5.3A4.91,4.91,0,0,0,24,13.17a4.91,4.91,0,0,0-.37-2.83H37.93a4.91,4.91,0,0,0,0,3.89,3.76,3.76,0,0,0,2.83,6.23,3.73,3.73,0,0,0,2.47-.93,4.89,4.89,0,0,0,5.26-.92,4.86,4.86,0,0,0,3.82-1l2.24,10.24C51.76,29,46.68,29.71,40.31,30a1.19,1.19,0,0,0,0,2.38h.06c4.08-.18,11.24-.73,15.26-2.38a29.44,29.44,0,0,1,7.41,11.2,1.28,1.28,0,0,1-.21,1.15Zm0,0"/>
      <path class="cls-3" d="M35,30.12h0a1.19,1.19,0,1,0,1.19,1.19A1.19,1.19,0,0,0,35,30.12Zm0,0"/>
    </g>
  </g>
</svg>
