<svg xmlns="http://www.w3.org/2000/svg" width="70" height="70" viewBox="0 0 70 70">
  <defs>
    <style>
      .cls-1 {
        fill: #d1ad8f;
      }

      .cls-1, .cls-2, .cls-4, .cls-5 {
        stroke: #333;
        stroke-linecap: round;
        stroke-linejoin: round;
        stroke-width: 1.5px;
      }

      .cls-2 {
        fill: #b2947b;
      }

      .cls-3 {
        fill: #333;
      }

      .cls-4 {
        fill: #ea5652;
      }

      .cls-5 {
        fill: none;
      }
    </style>
  </defs>
  <g id="Layer_168" data-name="Layer 168">
    <g>
      <rect class="cls-1" x="26.07" y="19.88" width="17.86" height="16.28"/>
      <path class="cls-2" d="M35,9.16,23.39,19.88H46.61Zm0,0"/>
      <path class="cls-2" d="M47.5,52.91h-25V32.38h3.57v2.67h3.57V32.38h3.57v2.67h3.58V32.38h3.57v2.67h3.57V32.38H47.5Zm0,0"/>
      <path class="cls-1" d="M33.21,42.2h3.58a3.57,3.57,0,0,1,3.57,3.57v7.14H29.64V45.77a3.57,3.57,0,0,1,3.57-3.57Zm0,0"/>
      <rect class="cls-2" x="32.32" y="23.45" width="5.36" height="5.36"/>
    </g>
    <g>
      <rect class="cls-1" x="10" y="27.91" width="12.5" height="25"/>
      <path class="cls-2" d="M9.11,27.91H23.39L16.25,19Zm0,0"/>
      <rect class="cls-1" x="47.5" y="27.91" width="12.5" height="25"/>
      <path class="cls-2" d="M46.61,27.91H60.89L53.75,19Zm0,0"/>
      <rect class="cls-2" x="51.07" y="33.27" width="5.36" height="5.36"/>
      <rect class="cls-2" x="13.57" y="33.27" width="5.36" height="5.36"/>
      <path class="cls-3" d="M51.07,48.45h0a.89.89,0,1,0,.9.89.89.89,0,0,0-.9-.89Zm0,0"/>
      <path class="cls-3" d="M56.43,48.45h0a.89.89,0,1,0,.89.89.89.89,0,0,0-.89-.89Zm0,0"/>
      <path class="cls-3" d="M53.75,45.77h0a.89.89,0,1,0,.89.89.89.89,0,0,0-.89-.89Zm0,0"/>
      <path class="cls-3" d="M13.57,48.45h0a.89.89,0,1,0,.9.89.89.89,0,0,0-.9-.89Zm0,0"/>
      <path class="cls-3" d="M18.93,48.45h0a.89.89,0,1,0,.89.89.89.89,0,0,0-.89-.89Zm0,0"/>
      <path class="cls-3" d="M16.25,45.77h0a.89.89,0,1,0,.9.89.89.89,0,0,0-.9-.89Zm0,0"/>
    </g>
    <g>
      <path class="cls-4" d="M35,1.13,40.36,3.8,35,6.48Zm0,0"/>
      <line class="cls-5" x1="35" y1="1.13" x2="35" y2="9.16"/>
    </g>
  </g>
</svg>
