<svg xmlns="http://www.w3.org/2000/svg" width="70" height="70" viewBox="0 0 70 70">
  <defs>
    <style>
      .cls-1 {
        fill: #dab46a;
      }

      .cls-2 {
        fill: #f6e07f;
      }

      .cls-3 {
        fill: #f1f3f4;
      }

      .cls-4 {
        fill: #787179;
      }

      .cls-5 {
        fill: #333;
      }

      .cls-6 {
        fill: #98b0c8;
        stroke-width: 0.75px;
      }

      .cls-6, .cls-7 {
        stroke: #333;
        stroke-miterlimit: 10;
      }

      .cls-7 {
        fill: #efece9;
      }
    </style>
  </defs>
  <g id="Layer_166" data-name="Layer 166">
    <g>
      <path class="cls-1" d="M50.29,53.2s-5.14-8.57-13.76-8.57S22.78,53.2,22.78,53.2Zm0,0"/>
      <path class="cls-2" d="M26,14.56H19.86a1.52,1.52,0,0,1,0-3H26Zm0,0"/>
      <path class="cls-3" d="M33.22,21.64V10A3.62,3.62,0,1,0,26,10V25.8a8.58,8.58,0,0,0,8.58,8.58H39a8.58,8.58,0,0,0,8.58-8.58V21.64Zm0,0"/>
      <path class="cls-4" d="M33.22,21.64c0,4.38,4.79,7.82,9.22,7.82s9.21-3.37,9.21-7.82Zm0,0"/>
      <path class="cls-5" d="M29.89,11.5V10.22a.71.71,0,1,0-1.42,0V11.5a.71.71,0,0,0,1.42,0Zm0,0"/>
      <path class="cls-5" d="M47.6,48.86c-1.13-1-1.71-1.5-2.26-1.89a15.49,15.49,0,0,0-6.05-2.74V35.09a9.21,9.21,0,0,0,5.33-1.89,9.42,9.42,0,0,0,3.21-4.52,10.19,10.19,0,0,0,1.34-.91,7.88,7.88,0,0,0,3.22-6.14.7.7,0,0,0-.71-.71H33.93v-11a4.34,4.34,0,0,0-8.67,0v.89H19.83a2.23,2.23,0,0,0,0,4.45h5.42v2.65h0V18h0l0,7.74a9.33,9.33,0,0,0,8.45,9.27v9.19a16.92,16.92,0,0,0-7.78,4.18,21.81,21.81,0,0,0-3.78,4.45A.71.71,0,0,0,22.76,54H50.31a.71.71,0,0,0,.62-.36.85.85,0,0,0,0-.72C50.36,51.28,47.6,48.86,47.6,48.86ZM43.69,22.34h7.24c-.49,3.71-4.69,6.41-8.48,6.41a9.68,9.68,0,0,1-5.84-2.11A6.86,6.86,0,0,1,34,22.34ZM19.83,13.82a.81.81,0,0,1,0-1.61h5.42v1.61Zm6.85,12,0-7.83,0-8a2.91,2.91,0,1,1,5.82,0V21.63h0c0,4.88,5.25,8.53,9.94,8.53a10.57,10.57,0,0,0,3.45-.6A7.93,7.93,0,0,1,39,33.68H34.57A7.9,7.9,0,0,1,26.68,25.79ZM37.86,35.1V44A11.67,11.67,0,0,0,36.54,44c-.47,0-.94,0-1.41.07V35.1ZM24.11,52.54a21.34,21.34,0,0,1,4.47-4.42,13.94,13.94,0,0,1,8-2.75,12.79,12.79,0,0,1,3.7.5,17.17,17.17,0,0,1,6.37,4c.7.67,1.37,1.44,1.37,1.44.41.47.74.89,1,1.22Z"/>
    </g>
    <g>
      <path class="cls-6" d="M35.64,6.55A4.12,4.12,0,0,1,35,8.6L27.54,4.83a4.52,4.52,0,0,1,5.51-2.26A4.29,4.29,0,0,1,35.64,6.55Z"/>
      <rect class="cls-7" x="26.03" y="6.21" width="9.83" height="2.34" rx="0.99" transform="translate(7 -13.56) rotate(27.75)"/>
    </g>
  </g>
</svg>