<svg xmlns="http://www.w3.org/2000/svg" width="70" height="70" viewBox="0 0 70 70">
  <defs>
    <style>
      .cls-1 {
        fill: #d7eac6;
      }

      .cls-2 {
        fill: #2b2b2b;
      }

      .cls-3 {
        fill: #6c8473;
      }

      .cls-4 {
        fill: #606060;
      }
    </style>
  </defs>
  <g id="Layer_176" data-name="Layer 176">
    <g>
      <path class="cls-1" d="M44.36,32.26V45H25.64V32.26a.85.85,0,0,1,.85-.85h17a.85.85,0,0,1,.85.85Zm0,0"/>
      <path class="cls-2" d="M52,29.71H49.46V17.8h.85a2.55,2.55,0,0,0,2.55-2.55v-5.1a2.56,2.56,0,0,0-2.55-2.56h-8.5V5.89A5.12,5.12,0,0,0,36.7.79H33.3a5.12,5.12,0,0,0-5.11,5.1v1.7h-8.5a2.56,2.56,0,0,0-2.55,2.56v5.1a2.55,2.55,0,0,0,2.55,2.55h.85V29.71H18a2.58,2.58,0,0,0-2.56,2.55V44.17A2.58,2.58,0,0,0,18,46.73h2.63a4.28,4.28,0,0,0,4.17,3.4H45.21a4.28,4.28,0,0,0,4.17-3.4H52a2.58,2.58,0,0,0,2.56-2.56V32.26A2.58,2.58,0,0,0,52,29.71ZM20.54,45H18a.85.85,0,0,1-.85-.85V36.52h3.4Zm0-10.2h-3.4V32.26a.85.85,0,0,1,.85-.85h2.55ZM41,9.3h1.71v6.8H41Zm0,8.5h1.71v1.7H41Zm2.56,3.41v1.7H40.1v-1.7Zm-.85,3.4v5.1H41v-5.1ZM29.9,5.89a3.36,3.36,0,0,1,1-2.4,3.41,3.41,0,0,1,2.41-1h3.4a3.41,3.41,0,0,1,2.41,1,3.36,3.36,0,0,1,1,2.4v1.7h-.85V5.89A2.55,2.55,0,0,0,36.7,3.34H33.3a2.55,2.55,0,0,0-2.55,2.55v1.7H29.9Zm9.35,18.72v5.1h-8.5v-5.1a.85.85,0,0,0,.85-.85V20.35a.86.86,0,0,0-.85-.85V17.8h8.5v1.7a.86.86,0,0,0-.85.85v3.41a.85.85,0,0,0,.85.85Zm-8.5-8.51V9.3h8.5v6.8Zm1.7-8.51V5.89A.85.85,0,0,1,33.3,5h3.4a.85.85,0,0,1,.85.85v1.7ZM27.34,9.3h1.71v6.8H27.34Zm0,8.5h1.71v1.7H27.34Zm-.85,3.41H29.9v1.7H26.49Zm2.56,3.4v5.1H27.34v-5.1Zm-2.56,6.8h17a.85.85,0,0,1,.85.85V45H25.64V32.26a.85.85,0,0,1,.85-.85ZM19.69,16.1a.85.85,0,0,1-.85-.85v-5.1a.85.85,0,0,1,.85-.85h5.95v6.8ZM47.76,45.87a2.56,2.56,0,0,1-2.55,2.56H24.79a2.56,2.56,0,0,1-2.55-2.56V17.8h3.4v1.7a.86.86,0,0,0-.85.85v3.41a.85.85,0,0,0,.85.85v5.25a2.59,2.59,0,0,0-1.7,2.4V45.87a.86.86,0,0,0,.85.86H45.21a.86.86,0,0,0,.85-.86V32.26a2.59,2.59,0,0,0-1.7-2.4V24.61a.85.85,0,0,0,.85-.85V20.35a.86.86,0,0,0-.85-.85V17.8h3.4ZM44.36,16.1V9.3h6a.85.85,0,0,1,.85.85v5.1a.85.85,0,0,1-.85.85Zm8.5,28.07A.85.85,0,0,1,52,45H49.46v-8.5h3.4Zm0-9.35h-3.4V31.41H52a.85.85,0,0,1,.85.85Zm0,0"/>
      <path class="cls-3" d="M40.1,5.89v1.7h-.85V5.89A2.55,2.55,0,0,0,36.7,3.34H33.3a2.55,2.55,0,0,0-2.55,2.55v1.7H29.9V5.89a3.36,3.36,0,0,1,1-2.4,3.41,3.41,0,0,1,2.41-1h3.4a3.41,3.41,0,0,1,2.41,1,3.36,3.36,0,0,1,1,2.4Zm0,0"/>
      <rect class="cls-3" x="27.34" y="17.8" width="1.7" height="1.7"/>
      <rect class="cls-3" x="26.49" y="21.21" width="3.4" height="1.7"/>
      <rect class="cls-3" x="27.34" y="24.61" width="1.7" height="5.1"/>
      <rect class="cls-3" x="40.95" y="24.61" width="1.7" height="5.1"/>
      <rect class="cls-3" x="40.1" y="21.21" width="3.4" height="1.7"/>
      <rect class="cls-3" x="40.95" y="17.8" width="1.7" height="1.7"/>
      <rect class="cls-3" x="40.95" y="9.3" width="1.7" height="6.81"/>
      <rect class="cls-3" x="27.34" y="9.3" width="1.7" height="6.81"/>
      <path class="cls-3" d="M38.4,20.35v3.41a.85.85,0,0,0,.85.85v5.1h-8.5v-5.1a.85.85,0,0,0,.85-.85V20.35a.86.86,0,0,0-.85-.85V17.8h8.5v1.7a.86.86,0,0,0-.85.85Zm0,0"/>
      <path class="cls-3" d="M47.76,17.8V45.87a2.56,2.56,0,0,1-2.55,2.56H24.79a2.56,2.56,0,0,1-2.55-2.56V17.8h3.4v1.7a.86.86,0,0,0-.85.85v3.41a.85.85,0,0,0,.85.85v5.25a2.59,2.59,0,0,0-1.7,2.4V45.87a.86.86,0,0,0,.85.86H45.21a.86.86,0,0,0,.85-.86V32.26a2.59,2.59,0,0,0-1.7-2.4V24.61a.85.85,0,0,0,.85-.85V20.35a.86.86,0,0,0-.85-.85V17.8Zm0,0"/>
      <path class="cls-4" d="M51.16,10.15v5.1a.85.85,0,0,1-.85.85h-6V9.3h6a.85.85,0,0,1,.85.85Zm0,0"/>
      <rect class="cls-4" x="30.75" y="9.3" width="8.51" height="6.81"/>
      <path class="cls-4" d="M25.64,9.3v6.8H19.69a.85.85,0,0,1-.85-.85v-5.1a.85.85,0,0,1,.85-.85Zm0,0"/>
      <path class="cls-2" d="M29.05,36.52H38.4v.85a.85.85,0,1,0,1.7,0v-.85H41a.85.85,0,1,0,0-1.7H29.05a.85.85,0,1,0,0,1.7Zm0,0"/>
      <path class="cls-1" d="M20.54,31.41v3.41h-3.4V32.26a.85.85,0,0,1,.85-.85Zm0,0"/>
      <path class="cls-3" d="M20.54,36.52V45H18a.85.85,0,0,1-.85-.85V36.52Zm0,0"/>
      <path class="cls-3" d="M52.86,36.52v7.65A.85.85,0,0,1,52,45H49.46v-8.5Zm0,0"/>
      <path class="cls-1" d="M52.86,32.26v2.56h-3.4V31.41H52a.85.85,0,0,1,.85.85Zm0,0"/>
    </g>
  </g>
</svg>
