<svg xmlns="http://www.w3.org/2000/svg" width="70" height="70" viewBox="0 0 70 70">
  <defs>
    <style>
      .cls-1 {
        fill: #e4a278;
      }

      .cls-2 {
        fill: #c58768;
      }

      .cls-3 {
        fill: #fbc68f;
      }

      .cls-4 {
        fill: #ffdeae;
      }

      .cls-5 {
        fill: #ffe6ad;
      }

      .cls-6 {
        fill: #eceaeb;
      }

      .cls-7 {
        fill: #2b2b2b;
      }
    </style>
  </defs>
  <g id="Layer_170" data-name="Layer 170">
    <g>
      <rect class="cls-1" x="13.26" y="26.92" width="43.49" height="15.05"/>
      <rect class="cls-1" x="13.26" y="7.68" width="43.49" height="11.71"/>
      <path class="cls-2" d="M13.26,26.92v3.34H51.73a1.67,1.67,0,0,1,1.67,1.67V42h3.34v-15Zm0,0"/>
      <rect class="cls-2" x="53.4" y="7.68" width="3.35" height="10.87"/>
      <path class="cls-3" d="M55.91,46.15H14.09l-.83-5H56.74Zm0,0"/>
      <path class="cls-3" d="M55.91,27.75H14.09l-.83-5H56.74Zm0,0"/>
      <path class="cls-4" d="M55.91,17.72H14.09l-.83,5H56.74Zm0,0"/>
      <path class="cls-4" d="M14.09,46.15H9.91a.84.84,0,0,1-.84-.84V22.73h5Zm0,0"/>
      <path class="cls-5" d="M14.09,22.73h-5V6.84A.84.84,0,0,1,9.91,6h3.35a.83.83,0,0,1,.83.83V22.73Zm0,0"/>
      <path class="cls-4" d="M55.91,46.15h4.18a.84.84,0,0,0,.84-.84V22.73h-5Zm0,0"/>
      <path class="cls-5" d="M55.91,22.73h5V6.84A.84.84,0,0,0,60.09,6H56.74a.83.83,0,0,0-.83.83Zm0,0"/>
      <path class="cls-6" d="M35,31.1a3.35,3.35,0,0,1-3.35-3.35V21.9a.85.85,0,0,1,.84-.84h5a.85.85,0,0,1,.84.84v5.85A3.35,3.35,0,0,1,35,31.1Zm0,0"/>
      <path class="cls-7" d="M60.09,5.22H56.74a1.62,1.62,0,0,0-1.61,1.62V6.9H14.87V6.84a1.62,1.62,0,0,0-1.61-1.62H9.91A1.63,1.63,0,0,0,8.29,6.84V45.31a1.62,1.62,0,0,0,1.62,1.62H60.09a1.62,1.62,0,0,0,1.62-1.62V6.84a1.63,1.63,0,0,0-1.62-1.62Zm-3.4,1.62a.05.05,0,0,1,.05,0h3.35a0,0,0,0,1,0,0V22H56.69ZM14.87,41.92H55.13v3.45H14.87Zm0-13.39H28.31a.78.78,0,1,0,0-1.56H14.87V23.52h16v4.23a4.13,4.13,0,0,0,8.18.78H55.13v5.13H14.87Zm22.69-.78a2.56,2.56,0,1,1-5.12,0V21.9a.06.06,0,0,1,.05-.06h5a.06.06,0,0,1,.05.06ZM55.13,27h-16V23.52h16Zm-16-5V21.9a1.62,1.62,0,0,0-1.62-1.62h-5a1.62,1.62,0,0,0-1.62,1.62V22h-16V18.5H52.56a.79.79,0,1,0,0-1.57H14.87V11.81H55.13V22Zm16-13.49v1.78H14.87V8.46ZM9.91,6.79h3.35a.05.05,0,0,1,.05,0V22H9.86V6.84a0,0,0,0,1,.05,0ZM9.86,45.31V23.52h3.45V36.11a.78.78,0,1,0,1.56,0v-.89H55.13v5.13H14.87v-.89a.78.78,0,1,0-1.56,0v5.91H9.91a.06.06,0,0,1-.05-.06Zm50.23.06h-3.4V23.52h3.45V45.31a.06.06,0,0,1,0,.06Zm0,0"/>
      <path class="cls-7" d="M35,26.13a.78.78,0,0,0-.78.79v.83a.78.78,0,0,0,1.56,0v-.83a.78.78,0,0,0-.78-.79Zm0,0"/>
    </g>
  </g>
</svg>
