<svg xmlns="http://www.w3.org/2000/svg" width="70" height="70" viewBox="0 0 70 70">
  <defs>
    <style>
      .cls-1 {
        fill: #b1d683;
      }

      .cls-2 {
        fill: #96cd82;
      }

      .cls-3 {
        fill: #7cbe81;
      }

      .cls-4 {
        fill: #2b2b2b;
      }
    </style>
  </defs>
  <g id="Layer_172" data-name="Layer 172">
    <g>
      <path class="cls-1" d="M53.37,28.27c-.18-2.11-1-2.1-.4-4.5.84-3.33-.35-3.84-.93-5.1s.63-2.66.88-3.9a2.51,2.51,0,0,0-1.62-3.21c-.83-.34-.93-1-.41-3a2.86,2.86,0,0,0-5.5-1.49c-.52,1.93-1,2.48-1.85,2.35a2.53,2.53,0,0,0-3,2c-.4,1.2-.16,3.09-1.2,3.81s-2.43.64-3.38,3.94c-.68,2.37-1.39,1.95-2.61,3.68-1.4,2-1.13,5.45,2.28,7.41,2.34,1.34,4,2.71,4.49,4.68a5.9,5.9,0,0,1,.66.13,4.41,4.41,0,0,1,.67.24c1.41-1.46,3.54-1.81,6.25-1.79,3.92,0,5.9-2.83,5.69-5.25Zm0,0"/>
      <path class="cls-2" d="M18.5,28.27c.18-2.11,1-2.1.4-4.5-.84-3.33.35-3.84.94-5.1S19.21,16,19,14.77a2.5,2.5,0,0,1,1.61-3.21c.83-.34.94-1,.42-3a2.76,2.76,0,0,1,2.06-3.27h0a2.76,2.76,0,0,1,3.43,1.78c.53,1.93,1,2.48,1.85,2.35a2.52,2.52,0,0,1,3,2c.41,1.2.16,3.09,1.2,3.81s2.43.64,3.38,3.94c.69,2.37,1.4,1.95,2.62,3.68,1.39,2,1.12,5.45-2.28,7.41-2.35,1.34-4,2.71-4.49,4.68a5.64,5.64,0,0,0-.67.13,4.41,4.41,0,0,0-.67.24c-1.4-1.46-3.53-1.81-6.24-1.79-3.93,0-5.9-2.83-5.7-5.25Zm0,0"/>
      <path class="cls-2" d="M46.59,24.12C45.84,22.05,45,22.29,45,19.73c-.06-3.54-1.38-3.73-2.3-4.83s-.09-2.82-.18-4.12A2.6,2.6,0,0,0,40,8c-.91-.11-1.21-.78-1.21-2.84a3,3,0,0,0-5.88,0c0,2.06-.29,2.73-1.21,2.84a2.61,2.61,0,0,0-2.48,2.77c-.08,1.3.68,3.12-.17,4.12s-2.25,1.29-2.31,4.83c0,2.56-.86,2.32-1.61,4.39-.86,2.35.35,5.73,4.27,6.76,2.7.71,4.73,1.63,5.74,3.46a5.09,5.09,0,0,1,.69-.05,5.87,5.87,0,0,1,.74.05c1-1.83,3-2.75,5.74-3.46,3.92-1,5.12-4.41,4.27-6.76Zm0,0"/>
      <path class="cls-3" d="M35.86,30.81a13.81,13.81,0,0,1-8.3-12.66,13.42,13.42,0,0,1,.15-1.91,5.28,5.28,0,0,0-1,3.49c0,2.56-.86,2.32-1.61,4.39-.86,2.35.35,5.73,4.27,6.76,2.7.71,4.73,1.63,5.74,3.46a5.09,5.09,0,0,1,.69-.05h0V30.81Zm0,0"/>
      <path class="cls-4" d="M54.23,28.18a7.47,7.47,0,0,0-.4-1.92,3.27,3.27,0,0,1,0-2.3c.75-3,0-4.1-.6-5a4.47,4.47,0,0,1-.39-.65c-.19-.41.12-1.15.42-1.86a8.38,8.38,0,0,0,.53-1.5,3.35,3.35,0,0,0-2.14-4.18c-.17-.07-.17-.09-.18-.2a6,6,0,0,1,.27-1.73A3.24,3.24,0,0,0,51,5.76a4.19,4.19,0,0,0-2-1.27,4.23,4.23,0,0,0-2.34.1,3.27,3.27,0,0,0-2.14,2.29,6.47,6.47,0,0,1-.63,1.64c-.08.09-.09.1-.26.08a3.78,3.78,0,0,0-1,0,3.41,3.41,0,0,0-2.59-1.41c-.19,0-.2-.05-.25-.17a6.2,6.2,0,0,1-.19-1.81,3.35,3.35,0,0,0-1.51-2.84,4,4,0,0,0-4.6,0,3.34,3.34,0,0,0-1.5,2.84A6.2,6.2,0,0,1,31.87,7c-.05.12-.06.15-.26.17A3.41,3.41,0,0,0,29,8.56a4.28,4.28,0,0,0-1,0c-.17,0-.19,0-.26-.08a5.79,5.79,0,0,1-.63-1.64,3.6,3.6,0,0,0-4.49-2.39,4.21,4.21,0,0,0-2,1.27A3.25,3.25,0,0,0,20,8.82a6,6,0,0,1,.28,1.73c0,.11,0,.13-.18.2A3.34,3.34,0,0,0,18,14.93a8.33,8.33,0,0,0,.52,1.5c.3.71.61,1.45.42,1.86a5.48,5.48,0,0,1-.38.65c-.6.92-1.35,2.06-.6,5a3.33,3.33,0,0,1,0,2.3,7.84,7.84,0,0,0-.41,1.92A5.51,5.51,0,0,0,19,32.33a6.69,6.69,0,0,0,5,2h.88a.86.86,0,0,0,0-1.72H24a4.88,4.88,0,0,1-3.8-1.47,3.82,3.82,0,0,1-1-2.84,6.33,6.33,0,0,1,.33-1.53,4.91,4.91,0,0,0,.05-3.25c-.56-2.23-.13-2.89.37-3.65a8.7,8.7,0,0,0,.51-.87,4,4,0,0,0-.4-3.26,7,7,0,0,1-.42-1.17c-.21-1-.1-1.76,1.09-2.24,1.81-.73,1.28-2.68.93-4A1.53,1.53,0,0,1,22,6.89a2.42,2.42,0,0,1,1.12-.73s1.94-.42,2.37,1.17c.33,1.21.81,3,2.44,3l.37,0h.12c0,.14,0,.28-.05.43a8.19,8.19,0,0,0,.12,1.63c.11.8.22,1.63-.09,2a5.77,5.77,0,0,1-.56.54,5.46,5.46,0,0,0-1.13,1.26l-1.58-5.88a.86.86,0,0,0-1.67.45L25.15,17l-1.6-2A.86.86,0,1,0,22.2,16l3.63,4.55A3,3,0,0,1,25.25,22a7.89,7.89,0,0,0-.92,1.8l-.09.26L22.79,22.5a.86.86,0,0,0-1.27,1.17l2.55,2.77a6.05,6.05,0,0,0,.62,1.9,6.87,6.87,0,0,0,4.45,3.36l.54,2a6.43,6.43,0,0,0-.95-.46.87.87,0,0,0-.61,1.62,4.5,4.5,0,0,1,2.8,3.4L35,53.38v6.28a.87.87,0,0,0,1.73,0V53.38l4.08-15.1a4.63,4.63,0,0,1,2.32-3.19,10,10,0,0,1,4.55-.74,6.68,6.68,0,0,0,5.07-2,5.46,5.46,0,0,0,1.48-4.15ZM31.09,32.31c.25.09.48.19.7.28a7.15,7.15,0,0,0-.44.68Zm1.49,5.52h0a4.49,4.49,0,0,1,.71-4.35,2.43,2.43,0,0,1,.25.2A4.84,4.84,0,0,1,35,37.52v9.25Zm4.15-.32a4.8,4.8,0,0,1,1.46-3.83l.24-.2a4.44,4.44,0,0,1,.71,4.35h0l-2.41,8.94Zm3.65-4.24a5.71,5.71,0,0,0-.45-.68l.71-.28Zm11.1-2.11a4.89,4.89,0,0,1-3.79,1.47A11.15,11.15,0,0,0,42,33.73l.55-2A6.89,6.89,0,0,0,47,28.34a6,6,0,0,0,.61-1.9l2.55-2.77a.85.85,0,0,0,0-1.21.86.86,0,0,0-1.22,0l-1.46,1.58a2.58,2.58,0,0,0-.08-.26,8.32,8.32,0,0,0-.92-1.8,3,3,0,0,1-.59-1.43L49.52,16A.86.86,0,1,0,48.18,15l-1.6,2,1.68-6.24a.86.86,0,1,0-1.66-.45L45,16.15a5.44,5.44,0,0,0-1.12-1.26,4.82,4.82,0,0,1-.56-.54A.86.86,0,1,0,42,15.46a6.15,6.15,0,0,0,.73.72c.71.64,1.33,1.18,1.37,3.57A5,5,0,0,0,45,23a6.41,6.41,0,0,1,.74,1.45,3.92,3.92,0,0,1-.26,3.13,5.11,5.11,0,0,1-3.41,2.51A11.86,11.86,0,0,0,37,32.4l-.3.3V30.36l5.42-9.95a.86.86,0,1,0-1.51-.83l-3.91,7.17v-7.5L39.42,13a.86.86,0,0,0-1.58-.68l-1.11,2.59V8A.87.87,0,0,0,35,8v6.87l-1.11-2.6A.86.86,0,0,0,32.3,13l2.7,6.3v7.5l-3.91-7.17a.87.87,0,1,0-1.52.83l5.43,10V32.7l-.31-.3a11.81,11.81,0,0,0-5.06-2.35,5.09,5.09,0,0,1-3.41-2.51A4,4,0,0,1,26,24.41,6.38,6.38,0,0,1,26.7,23a5.07,5.07,0,0,0,.92-3.21c0-2.39.65-2.93,1.36-3.57a5.53,5.53,0,0,0,.74-.72c.81-1,.63-2.23.48-3.34a7,7,0,0,1-.11-1.29c.07-1.1.39-1.81,1.72-2,2-.23,2-2.31,2-3.69,0-1.73,2.05-1.84,2.07-1.84s2.08.11,2.08,1.84c0,1.38,0,3.46,2,3.69,1.34.16,1.65.87,1.72,2a.86.86,0,1,0,1.72-.11c0-.15,0-.29,0-.43h.12c1.92.29,2.45-1.67,2.8-3,.43-1.59,2.35-1.18,2.37-1.17a2.5,2.5,0,0,1,1.12.73,1.51,1.51,0,0,1,.34,1.48c-.35,1.3-.88,3.25.92,4,1.19.48,1.3,1.21,1.09,2.24a6.12,6.12,0,0,1-.41,1.17,3.94,3.94,0,0,0-.4,3.26,7.11,7.11,0,0,0,.5.87c.51.76.94,1.42.38,3.65a4.91,4.91,0,0,0,0,3.25,5.94,5.94,0,0,1,.32,1.53,3.78,3.78,0,0,1-1,2.84Zm0,0"/>
    </g>
  </g>
</svg>
