<svg xmlns="http://www.w3.org/2000/svg" width="70" height="70" viewBox="0 0 70 70">
  <defs>
    <style>
      .cls-1 {
        fill: #fee960;
      }

      .cls-1, .cls-2, .cls-3 {
        fill-rule: evenodd;
      }

      .cls-2 {
        fill: #fec144;
      }

      .cls-3 {
        fill: #6d91ac;
      }

      .cls-4 {
        fill: #33332e;
      }
    </style>
  </defs>
  <g id="Layer_174" data-name="Layer 174">
    <g>
      <path class="cls-1" d="M7.14,26.48A12.66,12.66,0,0,1,19.81,13.82H9.68a2.54,2.54,0,0,0-2.54,2.53Zm0,0"/>
      <path class="cls-2" d="M19.81,13.82a12.66,12.66,0,1,0,12.65,13.1c0-.14,0-.29,0-.44a12.57,12.57,0,0,0-.75-4.27,12.71,12.71,0,0,0-11.91-8.39ZM11.86,26.48a7.95,7.95,0,1,1,8,7.94,7.94,7.94,0,0,1-7.95-7.94Zm0,0"/>
      <path class="cls-3" d="M25.41,20.86a7.94,7.94,0,1,1-11.22,0,7.92,7.92,0,0,1,11.22,0Zm0,0"/>
      <path class="cls-1" d="M31.72,22.21a12.57,12.57,0,0,1,.75,4.27c0,.15,0,.3,0,.44a7.55,7.55,0,0,1,5.08,0c0-.14,0-.29,0-.44a12.57,12.57,0,0,1,.75-4.27,12.18,12.18,0,0,0-6.56,0Zm0,0"/>
      <path class="cls-2" d="M38.28,22.21a12.57,12.57,0,0,0-.75,4.27c0,.15,0,.3,0,.44a12.68,12.68,0,1,0,.74-4.71Zm4,4.27a7.95,7.95,0,1,1,7.94,7.94,7.94,7.94,0,0,1-7.94-7.94Zm0,0"/>
      <path class="cls-3" d="M58,25.21a7.94,7.94,0,1,1-9.11-6.56A7.94,7.94,0,0,1,58,25.21Zm0,0"/>
      <path class="cls-1" d="M50.19,13.82A12.66,12.66,0,0,1,62.86,26.48V16.35a2.54,2.54,0,0,0-2.54-2.53Zm0,0"/>
      <path class="cls-4" d="M64,17.36v-1a3.72,3.72,0,0,0-3.72-3.71H50.19a13.84,13.84,0,0,0-12.63,8.19,13.36,13.36,0,0,0-5.12,0,13.84,13.84,0,0,0-12.63-8.19H9.68A3.72,3.72,0,0,0,6,16.35v1a1.18,1.18,0,0,0-1.18,1.18V20.9A1.18,1.18,0,0,0,6,22.08v4.4a13.84,13.84,0,0,0,27.62,1.35,6,6,0,0,1,2.84,0A13.84,13.84,0,0,0,64,26.48v-4.4a1.18,1.18,0,0,0,1.18-1.18V18.54A1.18,1.18,0,0,0,64,17.36ZM60.32,15a1.35,1.35,0,0,1,1.36,1.35v2.4A14,14,0,0,0,57.92,15ZM9.68,15h2.4a14,14,0,0,0-3.76,3.75v-2.4A1.35,1.35,0,0,1,9.68,15ZM19.81,38A11.48,11.48,0,1,1,31.29,26.48,11.5,11.5,0,0,1,19.81,38Zm13.8-12.55a13.7,13.7,0,0,0-.38-2.32,10.52,10.52,0,0,1,3.54,0,13.7,13.7,0,0,0-.38,2.32,8.84,8.84,0,0,0-2.78,0ZM50.19,38A11.48,11.48,0,1,1,61.68,26.48h0A11.5,11.5,0,0,1,50.19,38Zm0,0"/>
      <path class="cls-4" d="M25.56,19.4a1.18,1.18,0,0,0-1.49,1.83,6.77,6.77,0,1,1-8.53,0,1.18,1.18,0,1,0-1.49-1.83,9.13,9.13,0,1,0,11.51,0Zm0,0"/>
      <path class="cls-4" d="M50.19,17.36a9.12,9.12,0,1,0,9.13,9.12,9.14,9.14,0,0,0-9.13-9.12Zm0,15.88A6.76,6.76,0,1,1,57,26.48a6.77,6.77,0,0,1-6.77,6.76Zm0,0"/>
      <path class="cls-4" d="M19.81,19.72a1.18,1.18,0,0,0,0-2.36h0a1.18,1.18,0,1,0,0,2.36Zm0,0"/>
    </g>
  </g>
</svg>
