<svg id="LEVELS" xmlns="http://www.w3.org/2000/svg" width="70" height="70" viewBox="0 0 70 70"><defs><style>.cls-1{fill:#ffd17f;}.cls-2{fill:#d4504e;}.cls-3{fill:#f6b36f;}.cls-4{fill:#c67b55;}.cls-5{fill:#333;}</style></defs><g id="Layer_172" data-name="Layer 172"><path class="cls-1" d="M36,31.38c-.37.64-1,4.65-.22,4.55.28,0,.85.11.85-.35a10.9,10.9,0,0,1,.12-1.52,4,4,0,0,1,1.14-2.63c9.62-8.89,6.44-27.06-1.79-30.06a.36.36,0,0,0-.39.56,9.93,9.93,0,0,1,1.51,3.15c1.92,5.25,2,20.7-1.22,26.3Zm0,0"/><path class="cls-1" d="M31.24,31.43c1.62,1.29.87,4.65,1.62,4.5.28,0,.86.1.85-.35,0-.75-.06-3.27-.58-4.2a16.71,16.71,0,0,1-1.53-4.29C30,20.22,29.82,7,33.41,1.93a.36.36,0,0,0-.27-.58c-3.79,1.13-7.69,6.34-7.72,15-.17,5.66,2.07,12.28,5.82,15.13Zm0,0"/><path class="cls-2" d="M44.17,5c-.33-.72-7.54-5-6.44-2.78,7.62,4.78,7.82,22.12.85,28.4-1.13,1.12-2,2-2,4.93a.35.35,0,0,0,.35.35c.3,0,.92.14.93-.35,0-2.86,1.41-3.85,2-4.14C49.82,27,52.27,11.74,44.17,5Zm0,0"/><path class="cls-2" d="M34.58,1.11c-5.42,2.47-5.21,23.22-1.53,30.31a11.46,11.46,0,0,1,.57,4.16.35.35,0,0,0,.36.35h1.19a.35.35,0,0,0,.36-.35c.14-6.87,3.2-5.55,3.17-19.28C38.54,10,38,2.45,34.58,1.11Z"/><path class="cls-2" d="M31.27,31.35c-7.6-5.81-7.76-24.21.14-29.1a.36.36,0,0,0-.29-.64C20.64,4.16,16.35,18.38,23.87,27.13a17.39,17.39,0,0,0,5.44,4.31c1.29.5,2.05,2.75,2,4.14,0,.46.63.34.92.35,1-.08-.21-4.29-1-4.58Zm0,0"/><path class="cls-3" d="M38.21,40H30.93c-1.15,0-1.16,1.9,0,1.87.32-.1,8,.29,7.94-.29A1,1,0,0,0,38.21,40Zm0,0"/><path class="cls-4" d="M38.15,42.14a.36.36,0,0,0-.36-.4H31.38a.35.35,0,0,0-.35.43L31.84,46c-.22.58,5.22.16,5.39.28a.37.37,0,0,0,.36-.31Zm0,0"/><path class="cls-5" d="M44.35,4.83a15.07,15.07,0,0,0-9.77-4h0A15.31,15.31,0,0,0,19.81,16.3a16.65,16.65,0,0,0,3.85,11,17.73,17.73,0,0,0,5.53,4.38c2,1,1.85,4.09,1.85,4.19L30.7,39.7a1.22,1.22,0,0,0,0,2.37l.9,4.22a.32.32,0,0,0,.31.25H37.5a.31.31,0,0,0,.31-.27l.62-4.2a1.22,1.22,0,0,0,0-2.37l-.33-3.83c0-.11-.12-3.21,1.85-4.19a17.85,17.85,0,0,0,5.53-4.38,16.64,16.64,0,0,0,3.84-11,15,15,0,0,0-5-11.47ZM37.51,36.2l.31,3.48H31.33l.31-3.48ZM32.73,34a4.35,4.35,0,0,0-1.27-2.86A13.2,13.2,0,0,1,28.12,27,22.73,22.73,0,0,1,25.78,16.3c0-8.47,3.91-13.47,7.36-14.59A9.78,9.78,0,0,0,31.57,5a38.28,38.28,0,0,0-1.4,11.33,48.13,48.13,0,0,0,1.08,10.87,16.73,16.73,0,0,0,1.57,4.38,11.79,11.79,0,0,1,.53,4h-.49A12.48,12.48,0,0,0,32.73,34Zm2.44,1.57H34c0-.89-.07-3.37-.62-4.33C31,27,30.8,18.74,30.8,16.3A37.51,37.51,0,0,1,32.17,5.16C33,2.44,34,1.47,34.57,1.47h0c.58,0,1.55,1,2.4,3.69A37.86,37.86,0,0,1,38.35,16.3c0,9.67-2,13.88-2.56,15s-.61,3.44-.62,4.33Zm1.12,0h-.5a12,12,0,0,1,.54-4,17.12,17.12,0,0,0,1.57-4.38A48.18,48.18,0,0,0,39,16.3,38.73,38.73,0,0,0,37.58,5,10.19,10.19,0,0,0,36,1.71c3.45,1.12,7.36,6.12,7.36,14.59,0,2.43-.41,10.67-5.68,14.85A4.4,4.4,0,0,0,36.41,34a12.11,12.11,0,0,0-.12,1.57Zm-6.82-4.46a17,17,0,0,1-5.33-4.22,16,16,0,0,1-3.7-10.6,14.44,14.44,0,0,1,4.78-11,15.33,15.33,0,0,1,6-3.34,10.87,10.87,0,0,0-2.93,2.93c-1.43,2.06-3.14,5.71-3.14,11.42a23.32,23.32,0,0,0,2.42,11,12.62,12.62,0,0,0,3.5,4.39c.74.5,1.21,2.89,1.16,3.94h-.56a8.27,8.27,0,0,0-.2-1.59,4.07,4.07,0,0,0-2-2.87Zm7.76,14.79h-5l-.81-3.82h6.41Zm1.51-5.08a.55.55,0,0,1-.53.64H30.94c-.71,0-.71-1.18,0-1.17h7.27a.53.53,0,0,1,.53.53ZM45,26.9a17.1,17.1,0,0,1-5.33,4.22c-2,1-2.19,3.54-2.2,4.46h-.57c0-4.75,2.31-3.66,4.66-8.33A23.2,23.2,0,0,0,44,16.3c0-5.71-1.7-9.36-3.13-11.42A11,11,0,0,0,37.93,2a15.33,15.33,0,0,1,6,3.34,14.44,14.44,0,0,1,4.78,11A16.07,16.07,0,0,1,45,26.9Zm0,0"/></g></svg>