<svg id="LEVELS" xmlns="http://www.w3.org/2000/svg" width="70" height="70" viewBox="0 0 70 70"><defs><style>.cls-1{fill:#fff;}.cls-2{fill:#cadf81;}.cls-3{fill:#ae7878;}.cls-4{fill:#f4c088;}.cls-5{fill:#ea7d7a;}.cls-6{fill:#f8d787;}.cls-7{fill:#94c566;}.cls-8{fill:#333;}</style></defs><g id="Layer_171" data-name="Layer 171"><path class="cls-1" d="M49.18,37.75l-.81,0-.35,0-.08,7.38h.27l1.1,0h.26l-.14-7.3Zm0,0"/><path class="cls-1" d="M48.7,29.41l.19-3.12h-.77l-.29,2.81v.28l.25,0,.36,0Zm0,0"/><path class="cls-1" d="M48.56,37.64l.13-3h-.31l-.56,0h-.25l-.29,2.94h1.28Zm0,0"/><path class="cls-1" d="M43.73,34.49l1.51,0L45,34.13l.35-4.8H45.1l-.47,0h-.56l-.31,4.79v.06Zm0,0"/><path class="cls-1" d="M26.24,34.77H26l-.69,0H25l.19,3,1.29-.05Zm0,0"/><path class="cls-1" d="M24.66,37.9H24.4l.18,7.2h1.53l-.46-7.23H25.4l-.74,0Zm0,0"/><path class="cls-1" d="M23.32,26.39l.34,0-.1-.32-.46-5L22,21.11l.43,5.33Zm0,0"/><path class="cls-1" d="M22.11,34.83l.52,0,.53,0,.33,0-.09-.32h0l-.28-5h-.26l-.73,0-.26,0Zm0,0"/><path class="cls-2" d="M52.68,34.81c-1.24-.05-2.55-.09-3.9-.12h-.26l-.13,3h.27l4.21.15.31,0-.27-3Zm0,0"/><path class="cls-2" d="M47.19,34.65c-2.74-.06-5.53-.09-8.28-.09-4.09,0-8.23.06-12.3.2h-.28l.24,3h.26c4-.15,8.07-.22,12.09-.22,2.66,0,5.36,0,8,.09h.3l0-.3.27-2.65Zm0,0"/><path class="cls-2" d="M24.91,34.81l-3.15.13-.28,0,.31,2.7v.28h.28l3-.14.27,0-.19-3Zm0,0"/><path class="cls-3" d="M49,29.52l-3.53-.19H45.2l-.35,4.81-.24.37h.47l4.12.09h.27v-.3l-.24-4.77Zm0,0"/><path class="cls-3" d="M23.22,29.42l.27,5v0l-.07.33.34,0c5-.2,10.11-.3,15.15-.3,1.48,0,3,0,4.48,0h.25L44,29.27h-.27c-2.82-.11-5.68-.16-8.5-.16-3.9,0-7.84.1-11.73.31Zm0,0"/><path class="cls-3" d="M22,29.49h-.27c-1.31.08-2.53.17-3.72.26l-.26,0,0,.26c0,.33.05.66.08,1v.07c.08.93.16,1.88.16,2.81a1.06,1.06,0,0,0,.35.93A1.29,1.29,0,0,0,19,35l.52,0c.38,0,.74,0,1.13-.06l.72-.06h.09l.86,0Zm0,0"/><path class="cls-4" d="M53.15,28.48c0-.63,0-1.27-.08-1.82v-.24h-.24L49,26.29h-.26l-.19,3.11.46,0,.28,0h0l.06,0h.22c.54,0,1.1,0,1.64.07s1.14.07,1.66.07h.32v-.27c0-.21,0-.43,0-.66Zm0,0"/><path class="cls-4" d="M30.67,29.05c1.52,0,3,0,4.57,0,4.16,0,8.36.11,12.49.35H48v-.28l.28-2.81H48c-3-.07-6-.1-8.94-.1-2.68,0-5.39,0-8.07.08h-.53l-3.6.1h-.28l.2,2.79H27l3.63-.1Zm0,0"/><path class="cls-4" d="M36.16,2l-2,.69v.19a11,11,0,0,0,1.65,5.62l.06.09.1,0a5.55,5.55,0,0,0,.73.14l.52.06L37,8.35a4.2,4.2,0,0,1-.37-1v0a1.56,1.56,0,0,0-.05-.16,5.73,5.73,0,0,1-.26-1.38V5.69l-.06-.07v0A4.78,4.78,0,0,1,36,2.48Zm0,0"/><path class="cls-4" d="M26.69,29.17h-.27l-1.23.05h-.4l-.47,0-.41,0h0l-1.71.09-.25,0-.33-2.84h.28l3-.12H26.5Zm0,0"/><path class="cls-5" d="M56.44,44.76l0-.27c-.07-1-.15-1.91-.22-2.83l0-.19c-.09-1-.18-2.13-.25-3.2V38h-.24c-1.63-.09-3.3-.16-5-.22H50l-.48,0,.15,7.3,1.06,0h.08c1.91-.06,3.66-.14,5.36-.26Zm0,0"/><path class="cls-5" d="M36.61,45.08c2.25,0,4.58.05,6.89.05,1.48,0,2.81,0,4.08,0h.26l.09-7.39h-.26c-2.9-.08-5.85-.12-8.75-.12-4.29,0-8.63.09-12.9.25h-.27l.44,7v.28h.27c2.37,0,4.6,0,5.3,0H33.6l2.91,0Zm0,0"/><path class="cls-5" d="M29,8a6.93,6.93,0,0,0-.83,6.07,11.9,11.9,0,0,0,3.53,5.22,5,5,0,0,0,1.36.95,2.21,2.21,0,0,0,.89.2,1.6,1.6,0,0,0,.7-.15,3,3,0,0,0,.73-.52,2.16,2.16,0,0,1,1.12-.62h.11a2.32,2.32,0,0,1,1.33.63,4.6,4.6,0,0,0,.6.41,2.51,2.51,0,0,0,1.26.32A3.39,3.39,0,0,0,41,20.25a5.83,5.83,0,0,0,2.08-1.56,9.91,9.91,0,0,0,2.45-4.6A7.33,7.33,0,0,0,44.86,9a5.89,5.89,0,0,0-4.15-2.93h0l-.18,0-.09.14a7,7,0,0,1-1.65,1.71L38.64,8l-.09.07.25.46a4.73,4.73,0,0,0,1.64-1h.07s0,.05,0,.07a4.9,4.9,0,0,1-3.06,1.24h-.17a5,5,0,0,1-3-1l0,0a.06.06,0,0,1,0,0,0,0,0,0,1,0,0h0a5,5,0,0,0,.66.43l.77.41-.41-.77a11.32,11.32,0,0,1-.67-1.55l0-.12-.12,0a4,4,0,0,0-1.47-.26A5.14,5.14,0,0,0,29,8Zm0,0"/><path class="cls-5" d="M23.49,38h0l-.27,0c-1.77.08-3.5.18-5.16.28l-.27,0,0,.27c.16,2,.36,4.26.59,6.51l0,.26.26,0c.61-.06,2-.11,4.66-.15h.06l1.07,0-.18-7.19Zm0,0"/><path class="cls-6" d="M49.62,26.22v-.31l-.25-4.76-.24,0c-1.39-.09-2.8-.16-4.2-.22h-.26l-.38,5.21h.28c1.59,0,3.19.06,4.77.1Zm0,0"/><path class="cls-6" d="M23.19,21l.47,5h0l-.08.33h.35c5-.2,10.08-.3,15.1-.3,1.64,0,3.29,0,4.92,0h.25l.38-5.21H44.3c-3-.12-6-.18-8.94-.18-3.95,0-7.95.1-11.89.31Zm11.42,1.8-.15.05,0-.34a2.75,2.75,0,0,0,.17.29Zm0,0"/><path class="cls-6" d="M21.61,21.13c-1.23.08-2.34.15-3.41.24l-.27,0,0,.26.09,1v0c.08.92.17,1.88.16,2.81a1.1,1.1,0,0,0,.35.92,1.07,1.07,0,0,0,.56.15,4.12,4.12,0,0,0,.51,0,10.88,10.88,0,0,0,1.13-.07l.72-.05h0l0,0h0l.46,0h.27l-.42-5.33Zm0,0"/><path class="cls-7" d="M41.52,2.62h0a7.52,7.52,0,0,0,0-1.26L41.4.79l-.33.36L40.88.87a14.78,14.78,0,0,0-1.69.79l0,0h0L39,1.76h0l-.15.08c-.21.13-.39.25-.55.37l-.38.31v0l-.35.36a4.49,4.49,0,0,0-.9,1.35l0,.09.18.53-.34,0h0l0,.16a4.54,4.54,0,0,0,.22,2.1,1.45,1.45,0,0,1,.06.19A5.3,5.3,0,0,0,37,8.2l.2.44,0,.08.05,0,.09.19.06-.26.3-.14a5.1,5.1,0,0,0,.86-.57l.15-.11a7.56,7.56,0,0,0,.8-.7l-.18-.29L40,6.58l.05-.06a6.39,6.39,0,0,0,.7-1.1,6.1,6.1,0,0,0,.39-.9l.2-.57h0a7.58,7.58,0,0,0,.18-1l0-.21h0l0-.18Zm0,0"/><path class="cls-8" d="M56.55,41.54c-.1-1.17-.2-2.38-.28-3.58a.31.31,0,0,0-.29-.29l-2.46-.12-.25-2.81a.3.3,0,0,0-.3-.28l-3.14-.11v-.06l-.23-4.45c.52,0,1.06,0,1.59.07s1.12.07,1.66.07h.4a.32.32,0,0,0,.22-.1.27.27,0,0,0,.08-.23c0-.33,0-.72,0-1.13,0-.75,0-1.54-.1-2.16a.31.31,0,0,0-.3-.29L50,26a.13.13,0,0,0,0-.06l-.25-4.81a.32.32,0,0,0-.29-.3q-4-.25-7.93-.36a6.75,6.75,0,0,0,1.87-1.49,10.33,10.33,0,0,0,2.55-4.77,7.77,7.77,0,0,0-.76-5.36A6.3,6.3,0,0,0,41,5.74a1.09,1.09,0,0,0,.08-.15,7.3,7.3,0,0,0,.61-5,.31.31,0,0,0-.16-.21.34.34,0,0,0-.26,0A14.13,14.13,0,0,0,38.1,1.93,5.21,5.21,0,0,0,36.26,4.3,4.55,4.55,0,0,1,36.57,2a.32.32,0,0,0-.06-.34.31.31,0,0,0-.33-.08l-2.13.75a.33.33,0,0,0-.21.29,11.09,11.09,0,0,0,.4,3,5.41,5.41,0,0,0-5.53,2.11,7.27,7.27,0,0,0-.88,6.39,12.23,12.23,0,0,0,3.62,5.38,6.78,6.78,0,0,0,1.07.83c-4.9.06-9.8.28-14.66.66a.31.31,0,0,0-.29.33c0,.45.07.91.11,1.35.08.92.17,1.88.16,2.8a1.36,1.36,0,0,0,.51,1.22,1.45,1.45,0,0,0,.73.21,4.89,4.89,0,0,0,.54,0c.4,0,.78,0,1.16-.07l.51,0,.27,2.29c-1.29.08-2.57.17-3.85.27a.33.33,0,0,0-.29.34c0,.44.08.9.11,1.34.09.92.17,1.88.17,2.8a1.37,1.37,0,0,0,.5,1.22,1.5,1.5,0,0,0,.73.22l.54,0c.4,0,.79,0,1.17-.06l.51,0,.28,2.44c-1.24.06-2.48.13-3.71.21a.33.33,0,0,0-.22.11.38.38,0,0,0-.08.23c.18,2.17.39,4.69.66,7.16a.31.31,0,0,0,.31.28h0a.31.31,0,0,0,.13,0c.91-.17,11.82-.26,13.32-.25H33.6l3,0c6.52.07,13.26.13,19.92-.33a.31.31,0,0,0,.29-.33c-.07-1.08-.16-2.18-.25-3.24Zm-3.88-6.47.21,2.46c-1.4-.06-2.81-.12-4.22-.16L48.77,35c1.3,0,2.6.08,3.9.12Zm-7.59-.82a.13.13,0,0,0,0-.08l.33-4.57c1.18,0,2.36.12,3.53.19l.24,4.54h0c-1.38,0-2.75-.07-4.13-.09Zm3.34.69-.11,2.42-.74,0,.24-2.41ZM47,37.33c-6.7-.17-13.43-.12-20.13.12L26.62,35c6.84-.22,13.72-.26,20.56-.11L47,37.29v0ZM23.75,34.5a.25.25,0,0,0,0-.08l-.26-4.75c6.72-.35,13.48-.4,20.2-.14l-.31,4.69c-6.55-.07-13.12,0-19.64.28Zm2.44,3-.76,0-.15-2.44L26,35Zm-.94-10.8c.33,0,.68,0,1,0,0,.75.09,1.51.16,2.26l-1.2.05c-.27,0-3,.24-3,.16l-.26-2.3c0,.09,2.85-.12,3.08-.14Zm-2.38,3,.26,4.74a.14.14,0,0,0,0,.07l-.79,0-.22-4.81.73,0Zm2.05,5.37.16,2.44-3,.14v0l-.28-2.43,3.15-.13Zm19.85-.84H44v-.07a.2.2,0,0,0,0-.11l.29-4.5.77,0-.34,4.56a.3.3,0,0,0,0,.1ZM27,28.89l-.15-2.26c7-.23,14.09-.26,21.12-.09l-.26,2.53v0c-6.87-.39-13.8-.45-20.71-.2Zm21.07.22h0l.26-2.57h.25l-.16,2.58-.35,0Zm4.71-2.43c0,.56.06,1.21.08,1.85,0,.29,0,.56,0,.82-.54,0-1.12,0-1.68-.07s-1.23-.08-1.82-.07a.53.53,0,0,0-.12,0l-.48,0L49,26.56q1.92,0,3.84.12Zm-7.89-5.5c1.4.06,2.8.13,4.2.22l.23,4.53h0l-4.77-.1ZM41,4H41l-2.2,1a14.72,14.72,0,0,1,.84-1.5L41.22,3A6.91,6.91,0,0,1,41,4Zm-3.1,3.07a14.87,14.87,0,0,1,.62-1.61l2.35-1a6.68,6.68,0,0,1-.37.87,6.5,6.5,0,0,1-.68,1Zm1.41-.14a7,7,0,0,1-.77.67,1.31,1.31,0,0,0-.15.12,6.1,6.1,0,0,1-.81.54c.06-.26.12-.51.19-.76ZM41.25,2.6,39.93,3a16.43,16.43,0,0,1,1.28-1.61,6.13,6.13,0,0,1,0,1.21ZM41,1.12A15.39,15.39,0,0,0,39.6,2.85l-.28-1A15.68,15.68,0,0,1,41,1.12ZM38.47,2.44A6.18,6.18,0,0,1,39,2.08l.34,1.16a16.14,16.14,0,0,0-.83,1.46l-.43-1.94a4.16,4.16,0,0,1,.39-.32Zm-.69.61.48,2.17c-.22.48-.41,1-.58,1.46l-.75-2.36a3.93,3.93,0,0,1,.85-1.27Zm-1.07,2,0-.16.75,2.36c-.08.27-.15.54-.21.82A5.34,5.34,0,0,1,37,7.25a1.36,1.36,0,0,1-.06-.2,4.31,4.31,0,0,1-.22-2Zm-.94-2.66A5.13,5.13,0,0,0,36,5.71l.06.09a6.39,6.39,0,0,0,.28,1.44,1.06,1.06,0,0,1,.05.18,5.46,5.46,0,0,0,.4,1.07,4,4,0,0,1-.69-.14,10.56,10.56,0,0,1-1.62-5.49ZM31.88,19.08A11.53,11.53,0,0,1,28.43,14a6.66,6.66,0,0,1,.78-5.84,4.68,4.68,0,0,1,5.25-1.75A11.23,11.23,0,0,0,35.15,8a5.23,5.23,0,0,1-.63-.41.31.31,0,1,0-.38.5,5.22,5.22,0,0,0,3.14,1.07h.17a5.14,5.14,0,0,0,3.23-1.31.32.32,0,0,0,0-.44.33.33,0,0,0-.45,0,4.41,4.41,0,0,1-1.55.91l.09-.07.14-.1a7.41,7.41,0,0,0,1.71-1.78h0a5.63,5.63,0,0,1,4,2.8A7.16,7.16,0,0,1,45.31,14a9.61,9.61,0,0,1-2.39,4.47,5.62,5.62,0,0,1-2,1.49A2.67,2.67,0,0,1,38.67,20a3.86,3.86,0,0,1-.57-.39,2.39,2.39,0,0,0-1.63-.68,2.33,2.33,0,0,0-1.27.68,3.15,3.15,0,0,1-.66.48A1.71,1.71,0,0,1,33.16,20a4.6,4.6,0,0,1-1.28-.91Zm6.26,1.28H35.23l.38-.31a1.81,1.81,0,0,1,.92-.54,1.85,1.85,0,0,1,1.19.56c.14.1.28.21.42.3Zm6.15.79L44,25.84c-6.68-.09-13.38,0-20,.26V26l-.44-4.72c6.92-.37,13.89-.41,20.81-.14Zm-21.44.17.45,4.75a.13.13,0,0,0,0,.06l-.68,0-.38-4.8.6,0Zm-1.3,4.88-.09,0-.73.06a9.53,9.53,0,0,1-1.6,0,.62.62,0,0,1-.66-.81c0-1-.08-1.92-.17-2.86,0-.33-.06-.68-.08-1,1.13-.09,2.27-.16,3.41-.23L22,26.19Zm-.14,8.4-.09,0-.74.05a8.47,8.47,0,0,1-1.59,0,1,1,0,0,1-.44-.1c-.2-.14-.23-.5-.23-.71,0-.95-.08-1.92-.16-2.86,0-.33-.06-.68-.09-1,1.24-.09,2.48-.18,3.72-.25l.21,4.8-.59,0ZM23.7,44.86a9.22,9.22,0,0,0,0-1.82A1.34,1.34,0,0,0,23.17,42a.79.79,0,0,0-.89.08.7.7,0,0,0-.15.88.68.68,0,0,0,.86.28.19.19,0,0,0,.09-.24.17.17,0,0,0-.24-.08.32.32,0,0,1-.4-.14.37.37,0,0,1,.08-.44.42.42,0,0,1,.47,0c.24.14.31.5.34.8a8.82,8.82,0,0,1,0,1.78c-2.88,0-4.12.1-4.67.16-.24-2.24-.43-4.51-.59-6.5,1.71-.11,3.43-.21,5.16-.29l.09,1.62a2.41,2.41,0,0,1,0,.66A.72.72,0,0,1,23,41a.47.47,0,0,1-.37,0,.52.52,0,0,1-.29-.25.44.44,0,0,1,0-.37.46.46,0,0,1,.27-.26.18.18,0,1,0-.11-.34.84.84,0,0,0-.5,1.12.89.89,0,0,0,.51.44.84.84,0,0,0,.27,0,.74.74,0,0,0,.39-.11,1,1,0,0,0,.47-.69,2.8,2.8,0,0,0,0-.76l-.1-1.62.45,0,.17,6.66Zm1.14,0-.17-6.67.74,0,.42,6.7Zm22.74,0c-3.69.06-7.37,0-11,0l-3,0H31.87c-.47,0-2.81,0-5.41,0h0L26,38.11c7.2-.28,14.43-.33,21.63-.14Zm.63,0L48.29,38l.88,0,.13,6.78-1.09,0Zm2.59-.06-.12-1.48a1,1,0,0,1,.13-.76.35.35,0,0,1,.34-.11.27.27,0,0,1,.18.26.19.19,0,0,1-.08.13.13.13,0,0,1-.12,0,.18.18,0,0,0-.2.15.18.18,0,0,0,.14.21.54.54,0,0,0,.4-.11.57.57,0,0,0,.22-.37.62.62,0,0,0-.43-.64.73.73,0,0,0-.72.21,1.32,1.32,0,0,0-.21,1l.11,1.47-.51,0L49.79,38h.55l-.23,2.08a2.29,2.29,0,0,0,0,1,.91.91,0,0,0,.79.63H51a1,1,0,0,0,.79-.85.8.8,0,0,0-.08-.66.48.48,0,0,0-.42-.2.39.39,0,0,0-.33.2.18.18,0,0,0,.08.24.17.17,0,0,0,.24-.07s0,0,0,0a.14.14,0,0,1,.11.05.48.48,0,0,1,0,.37c-.07.27-.24.55-.48.58a.53.53,0,0,1-.48-.39,2,2,0,0,1,0-.81l.23-2.1c1.66.06,3.31.13,5,.21.07,1.11.16,2.23.25,3.31s.17,1.94.23,2.92c-1.78.12-3.56.2-5.35.25Zm0,0"/></g></svg>