<svg id="LEVELS" xmlns="http://www.w3.org/2000/svg" width="70" height="70" viewBox="0 0 70 70"><defs><style>.cls-1{fill:#fde8a1;}.cls-2{fill:#fdf8c5;}.cls-3{fill:#fff;}.cls-4{fill:#5b6576;}.cls-5,.cls-6{fill:#e96452;}.cls-6{stroke:#333;stroke-linecap:round;stroke-linejoin:round;stroke-width:0.25px;}.cls-7{fill:#e86464;}.cls-8{fill:#333;}</style></defs><g id="Layer_177" data-name="Layer 177"><path class="cls-1" d="M49.51,4.77h-29a.37.37,0,0,0-.37.37l-.36,40.47a.38.38,0,0,0,.37.38c.28-.14,26.56.93,26.75.52.32,0-.8-3.82-.75-3.95s4,.73,4,.47c.38-.19-.35-37.61-.23-37.89a.36.36,0,0,0-.37-.37Z"/><path class="cls-2" d="M50.4,1.79a.38.38,0,0,0-.47-.12c-.15.13-2.7,1.12-2.62,1.38a19,19,0,0,0,1.06,1.66,19.71,19.71,0,0,0,3,3.29.39.39,0,0,0,.49.05l1.73-1.21a.37.37,0,0,0,.09-.52Zm0,0"/><path class="cls-2" d="M22.55,3.48,20.73,2.26a.37.37,0,0,0-.48.06l-3.88,4.3a.37.37,0,0,0,0,.51c1,1,1.36,1.68,1.91,1.67s.72-.81,2-2.3,2.65-2.3,2.41-2.84A.46.46,0,0,0,22.55,3.48Zm0,0"/><path class="cls-2" d="M21.52,46c-.74-.72-1.56-1.45-2.46-2.18l-.95-.75a.38.38,0,0,0-.55.08l-1.14,1.69a.39.39,0,0,0,.08.5c.26,0,4.31,3.77,4.54,3.15C22.49,47.11,23.1,47.5,21.52,46Zm0,0"/><path class="cls-3" d="M47.16,46.3A.37.37,0,0,1,46.8,46l-.69-3a.37.37,0,0,1,.42-.45L49.6,43a.37.37,0,0,1,.21.62c-.13.08-2.48,2.87-2.65,2.69Zm0,0"/><path class="cls-3" d="M44.71,23.35a.38.38,0,0,1-.37-.31l-.46-2.91a.39.39,0,0,1,.37-.44h1.39a.37.37,0,0,1,.37.38V23c0,.58-1,.32-1.3.37Zm0,0"/><path class="cls-3" d="M37.79,23.35a.34.34,0,0,1-.22-.07c.12.13-3.7-3-2.21-3.59.24.08,3.31-.19,3.34.19,1.73,3.4,3.19,3.6-.91,3.47Zm0,0"/><path class="cls-3" d="M32.05,19.79a.37.37,0,0,1-.3-.59,20,20,0,0,0,2.88-6,.37.37,0,0,1,.72,0A17.07,17.07,0,0,0,36.88,17c.42,1,1.57,2.17,1.38,2.62.17.41-6.08.11-6.21.2Zm0,0"/><path class="cls-3" d="M30.44,23.35a.38.38,0,0,1-.35-.51l1.2-2.91a.38.38,0,0,1,.34-.24c.18.06,3.28-.14,3.29.15.28,1.39-2.38,3.28-2.5,3.44a10.71,10.71,0,0,1-2,.07Zm0,0"/><path class="cls-3" d="M24.34,23.35A.37.37,0,0,1,24,23V20.07a.38.38,0,0,1,.37-.38c.22,0,1.78-.11,1.9.12.24,0-.15,3.06-.12,3.2a.37.37,0,0,1-.37.34Zm0,0"/><path class="cls-4" d="M35.32,20.7a.38.38,0,0,0-.66,0,7.62,7.62,0,0,1-1.7,2,.38.38,0,0,0,.25.65h3.56A.37.37,0,0,0,37,22.7a8,8,0,0,1-1.7-2Zm0,0"/><path class="cls-5" d="M46.31,9.89c-.23-.27-1.73.58-2,.62a.38.38,0,0,0-.11.63l1.53,1.37a.38.38,0,0,0,.62-.26c0-.25.28-2.24-.06-2.36Zm0,0"/><path class="cls-6" d="M43.2,40.81l-1.3-.12c-.19-.21-.6-1.41-1-1.33s-.68,1.2-.85,1.43-1.52.12-1.56.52.92,1,1.09,1.24-.35,1.48,0,1.65,1.26-.57,1.52-.66c.28.07,1.31.79,1.58.5s-.16-1.37-.16-1.64c.21-.33,1.62-1.33.65-1.59Zm0,0"/><path class="cls-5" d="M39.41,11.48c-.08.41,1.59.85,1.81,1a.38.38,0,0,0,.52-.29L42,10.7a.38.38,0,0,0-.53-.39l-1.8.82a.4.4,0,0,0-.22.35Zm0,0"/><path class="cls-5" d="M36.56,7.38,35.24,7a.37.37,0,0,0-.48.37c.07.32-.14,1.35.42,1.32a12.38,12.38,0,0,0,1.41-.58.38.38,0,0,0,0-.7Zm0,0"/><path class="cls-6" d="M36.2,41.06l-1-.23c-.15-.24-.29-1.17-.67-1.16s-.68.81-.87,1-1.2-.1-1.3.27.56.91.7,1.14c0,.28-.46,1.11-.14,1.33s1-.26,1.29-.31c.26.1.92.78,1.22.54s.08-1.06.11-1.33c.28-.27,1.45-.92.62-1.27Zm0,0"/><path class="cls-5" d="M31.06,10.59,29.16,10a.37.37,0,0,0-.48.39l.16,1.68a.39.39,0,0,0,.37.34,17.09,17.09,0,0,0,1.94-1.16.37.37,0,0,0-.09-.67Zm0,0"/><path class="cls-6" d="M29.42,41l-1-.1c-.17-.21-.45-1.15-.83-1.09s-.58.93-.74,1.16-1.23.07-1.29.45.71.84.87,1.06-.31,1.2,0,1.37,1-.41,1.28-.5c.27.07,1,.67,1.32.39S29,42.66,29,42.38c.25-.3,1.35-1.12.47-1.37Zm0,0"/><path class="cls-5" d="M25.87,10.5c0-.4-2.06-.76-2.29-.9a.36.36,0,0,0-.47.39l.18,2.11a.38.38,0,0,0,.61.26c.16-.22,2.16-1.51,2-1.86Zm0,0"/><path class="cls-7" d="M44,20a.43.43,0,0,0-.51-.32.37.37,0,0,0-.09-.62,16.49,16.49,0,0,1-4.84-3.69,36.94,36.94,0,0,1-2.77-3.3.36.36,0,0,0-.3-.15.36.36,0,0,0-.36.43c.72,3.33,2.85,7.31,3.8,7.43a.37.37,0,0,0-.08.46c.17.15,1.68,3.29,2,3.1C45,23.14,44.67,24.5,44,20Zm0,0"/><path class="cls-7" d="M34.68,12a.37.37,0,0,0-.45.12c-1.18,1.6-4.27,5.48-7.61,7a.37.37,0,0,0-.08.63.37.37,0,0,0-.29.34L26,23a.37.37,0,0,0,.37.4c.26-.09,3.67.24,3.68-.23,0-.28,1.57-3.15,1.1-3.33.67.26,4.49-7,3.5-7.82Zm0,0"/><path class="cls-8" d="M46.64,9.43a.36.36,0,0,0-.32,0l-2.58,1.06a.34.34,0,0,0-.09.55L46,13.07l-.3,6.33a8.57,8.57,0,0,1-4.38-1.93L42,12.69v0l.36-2.53a.33.33,0,0,0-.46-.34l-3,1.38a.33.33,0,0,0,0,.6l2.42,1.05L40.68,17a24.7,24.7,0,0,1-2-1.82A34.37,34.37,0,0,1,35.31,11l-.1-2,2.3-1a.33.33,0,0,0,0-.61l-2.59-.81a.33.33,0,0,0-.43.33l.1,1.9h0L34.66,11a33.44,33.44,0,0,1-3.41,4.2,21,21,0,0,1-1.58,1.51l-.39-3.93,2.63-1.65a.33.33,0,0,0-.08-.59L28.77,9.6a.33.33,0,0,0-.42.34l.26,2.69h0l.45,4.56a9,9,0,0,1-4.74,2.2l-.59-6.54,2.67-2.17a.33.33,0,0,0-.12-.57L23.2,9.19a.33.33,0,0,0-.42.34l.29,3.21h0l.62,7v3.55a.32.32,0,0,0,.33.32H46a.32.32,0,0,0,.32-.32V19.75l.48-10a.31.31,0,0,0-.13-.28Zm-6.85,2,1.8-.83-.22,1.52ZM31,11,29.21,12l-.16-1.67Zm13.52-.09,1.63-.67-.1,2ZM40.82,23l-1.69-2.91h4.46L44.05,23Zm-3,0c-.69-.53-2.16-1.84-2.43-2.91h3L40.06,23Zm-7.35,0,1.19-2.91h3c-.27,1.07-1.74,2.38-2.43,2.91Zm-4,0,.22-2.91h4.31L29.73,23Zm5.65-3.57A19.74,19.74,0,0,0,35,13.26a17.29,17.29,0,0,0,1.56,3.88,24.46,24.46,0,0,0,1.38,2.27ZM35,20.88A8.47,8.47,0,0,0,36.77,23H33.21A8.07,8.07,0,0,0,35,20.88Zm8.22-1.47H38.73a19.59,19.59,0,0,1-3.28-7.11,35.11,35.11,0,0,0,2.81,3.34,16.79,16.79,0,0,0,5,3.77ZM36.45,7.74l-1.27.55,0-1Zm-1.92,4.57a15.84,15.84,0,0,1-1.67,4.52,20.9,20.9,0,0,1-1.61,2.58H26.77c3.36-1.51,6.4-5.25,7.76-7.1ZM23.48,10l2,.62-1.85,1.5Zm.86,10.12H26L25.75,23H24.34ZM44.71,23l-.46-2.91h1.39V23Zm0,0"/><path class="cls-8" d="M28.59,30.85a.33.33,0,0,0,.32-.32l.18-4.27a.33.33,0,0,0-.66,0l-.17,4.28a.33.33,0,0,0,.33.34Zm0,0"/><path class="cls-8" d="M33.24,27.25c.12-1.61-2.23-1.67-2.69-1.52a.32.32,0,0,0-.27.32v4.47a.33.33,0,0,0,.65,0V28.89a3.43,3.43,0,0,0,.89,0l1.06,1.82a.32.32,0,0,0,.56-.32l-1-1.7a1.47,1.47,0,0,0,.78-1.41Zm-1,.74a1.8,1.8,0,0,1-1.36.24V26.35C32,26.17,33.31,27,32.29,28Zm0,0"/><path class="cls-8" d="M24.64,30.84a2,2,0,0,0,3-1.63.33.33,0,0,0-.66,0c-.25,2.08-2.67,1.49-2.71-.63,0-1.83,2.19-2.85,2.5-1.16a.33.33,0,0,0,.65,0c-.34-2.53-3.91-1.63-3.8,1.21a2.56,2.56,0,0,0,1,2.24Zm0,0"/><path class="cls-8" d="M35.24,26.64c.67-.41,1.69-.37,1.77.59a.33.33,0,0,0,.66,0c-.34-2.54-3.87-1.63-3.8,1.2.07,3.22,3.89,3.3,4,.61a.33.33,0,0,0-.66,0c-.26,2.09-2.77,1.45-2.71-.6a2,2,0,0,1,.72-1.79Zm0,0"/><path class="cls-8" d="M39.3,26.17a.34.34,0,0,0-.39.26c0,.1-.51,2.61.46,3.8a1.79,1.79,0,0,0,2.7,0c.89-1.19.16-3.72.13-3.83a.32.32,0,1,0-.62.18c.18.65.54,2.49,0,3.26a1.11,1.11,0,0,1-1.66,0c-.64-.78-.45-2.61-.33-3.25a.33.33,0,0,0-.25-.39Zm0,0"/><path class="cls-8" d="M44.74,25.79a1.69,1.69,0,0,0-1.76,1c-.59,1.82,2.51,2.25,2.21,3.52a.59.59,0,0,1-.62.4c-1,0-1.14-.28-1.14-.9a.33.33,0,0,0-.65,0c0,1.1.52,1.55,1.79,1.55,1.7-.14,1.75-2,0-2.94-.8-.46-1.16-1-1-1.42.32-.81,1.75-.87,1.75.27a.33.33,0,0,0,.65,0,1.46,1.46,0,0,0-1.25-1.47Zm0,0"/><path class="cls-8" d="M24.24,34.26a.32.32,0,0,0,.34.31l7.73-.29a.33.33,0,0,0,0-.65l-7.73.29a.33.33,0,0,0-.32.34Zm0,0"/><path class="cls-8" d="M32.29,35.39l-7.73.28a.33.33,0,0,0,0,.66L32.31,36a.33.33,0,0,0,0-.65Zm0,0"/><path class="cls-8" d="M32.63,37.46a.34.34,0,0,0-.34-.32l-7.73.29a.33.33,0,0,0,0,.65l7.73-.29a.32.32,0,0,0,.32-.33Zm0,0"/><path class="cls-8" d="M44.72,34.1,37,33.47c-.42,0-.48.63-.06.65l7.71.63a.33.33,0,0,0,.06-.65Zm0,0"/><path class="cls-8" d="M44.51,35.85l-7.71-.63a.33.33,0,0,0,0,.65l7.71.63a.33.33,0,0,0,0-.65Zm0,0"/><path class="cls-8" d="M44.3,37.59,36.59,37a.33.33,0,0,0-.05.65l7.71.63a.33.33,0,0,0,0-.65Zm0,0"/><path class="cls-8" d="M54.07,6.42l-3.61-5a.33.33,0,0,0-.4-.1L47,2.72a.33.33,0,0,0-.12.49l1,1.28H22.64l.43-.57A.33.33,0,0,0,23,3.45L20.65,1.87a.32.32,0,0,0-.42.06L16,6.66a.32.32,0,0,0,0,.44l2,2.08a.33.33,0,0,0,.5,0l1.3-1.76-.32,36.46L18,42.66a.32.32,0,0,0-.47.07L16,45a.32.32,0,0,0,.07.43l4.52,3.52a.33.33,0,0,0,.42,0l1.75-1.52a.34.34,0,0,0,0-.48l-.59-.59L47,46.93a.32.32,0,0,0,.25-.1l3.22-3.48a.43.43,0,0,0,.09-.22L50.18,7.19,51.33,8.4a.35.35,0,0,0,.43,0L54,6.88a.32.32,0,0,0,.08-.46ZM47.16,45.93l-.69-3,3.07.46ZM46.1,42.18a.33.33,0,0,0-.37.4l.84,3.69-26.45-.66.35-40.47h29l.36,37.61ZM18.2,8.45,16.64,6.86l3.88-4.29L22.35,3.8l-.53.69H20.15a.33.33,0,0,0-.33.32V6.26Zm3.88,38.67L20.8,48.24l-4.07-3.16,1.14-1.69,1.6,1.28v1.26a.33.33,0,0,0,.32.33l1.48,0ZM51.61,7.74l-1.44-1.5V4.81a.32.32,0,0,0-.33-.32H48.67l-1-1.35L50.09,2l3.26,4.54Zm0,0"/></g></svg>