<svg id="LEVELS" xmlns="http://www.w3.org/2000/svg" xmlns:xlink="http://www.w3.org/1999/xlink" width="70" height="70" viewBox="0 0 70 70"><defs><style>.cls-1{fill:none;}.cls-2{fill:#ebe9df;}.cls-3{fill:#f6f5f0;}.cls-4{fill:#d7d5c2;}.cls-5{clip-path:url(#clip-path);}.cls-6{fill:#333;}.cls-7{fill:#998c85;}</style><clipPath id="clip-path"><polygon class="cls-1" points="19.12 45.37 60.87 45.71 60.87 3.54 19.12 3.2 19.12 45.37"/></clipPath></defs><g id="Layer_180" data-name="Layer 180"><path class="cls-2" d="M34,3.61c-8,0-14.42,2.77-14.42,6.18v29C19.53,42.19,26,45,34,45s14.41-2.77,14.41-6.18v-29c0-3.41-6.45-6.18-14.41-6.18"/><path class="cls-3" d="M34,3.61c-8,0-14.42,2.77-14.42,6.18S26,16,34,16,48.36,13.2,48.36,9.79,41.91,3.61,34,3.61"/><path class="cls-2" d="M50.17,13.58H48.36v4.94a4.64,4.64,0,0,1,6.21-1.2,8.23,8.23,0,0,1,0,13.92,4.63,4.63,0,0,1-6.21-1.19V35h1.81a10.71,10.71,0,1,0,0-21.41"/><path class="cls-4" d="M50,17.12V13.58H48.36v4.94A4.6,4.6,0,0,1,50,17.12"/><path class="cls-4" d="M50,31.45a4.6,4.6,0,0,1-1.65-1.4V35H50Zm0,0"/><path class="cls-2" d="M34,5.26a25.06,25.06,0,0,1,9.54,1.67c2,.86,3.22,2,3.22,2.86s-1.23,2-3.22,2.86A25.06,25.06,0,0,1,34,14.32a25.08,25.08,0,0,1-9.55-1.67c-2-.86-3.22-2-3.22-2.86s1.23-2,3.22-2.86A25.08,25.08,0,0,1,34,5.26"/><g class="cls-5"><path class="cls-6" d="M34,45.37a27.06,27.06,0,0,1-10.36-1.84c-2.88-1.24-4.47-2.92-4.47-4.75v-29C19.12,8,20.71,6.28,23.59,5A27.06,27.06,0,0,1,34,3.2,27,27,0,0,1,44.3,5C47.18,6.28,48.77,8,48.77,9.79v29c0,1.83-1.59,3.51-4.47,4.75A27,27,0,0,1,34,45.37ZM34,4a26.43,26.43,0,0,0-10,1.78c-2.52,1.08-4,2.54-4,4v29c0,1.45,1.45,2.91,4,4a26.43,26.43,0,0,0,10,1.78,26.41,26.41,0,0,0,10-1.78c2.52-1.08,4-2.54,4-4v-29c0-1.45-1.45-2.91-4-4A26.41,26.41,0,0,0,34,4Zm0,0"/><path class="cls-6" d="M48.75,35.63h-.17v-.82h.17c5.67,0,11.3-4.51,11.3-10.19S55.85,14,50.17,14h-1.4v3.47a5.05,5.05,0,0,1,6-.48,8.64,8.64,0,0,1,0,14.61A5.05,5.05,0,0,1,48,30.29l.67-.49a4.21,4.21,0,0,0,5.66,1.09,7.83,7.83,0,0,0,0-13.23,4.23,4.23,0,0,0-5.66,1.09.41.41,0,0,1-.46.15.41.41,0,0,1-.28-.4V13.56a.41.41,0,0,1,.41-.41h1.81c6.13,0,10.7,5.33,10.7,11.46s-6,11-12.13,11Zm0,0"/></g><path class="cls-7" d="M34,9.79a25.08,25.08,0,0,0-9.55,1.67c-.44.19-.83.39-1.2.59a9.58,9.58,0,0,0,1.2.59A24.88,24.88,0,0,0,34,14.32a25.06,25.06,0,0,0,9.54-1.67c.44-.19.83-.39,1.2-.59-.36-.2-.76-.4-1.2-.59A24.86,24.86,0,0,0,34,9.79"/><path class="cls-6" d="M34,14.73A25.48,25.48,0,0,1,24.24,13c-2.17-.93-3.47-2.14-3.47-3.23s1.3-2.3,3.47-3.23A25.48,25.48,0,0,1,34,4.85a25.43,25.43,0,0,1,9.7,1.71c2.17.93,3.47,2.13,3.47,3.23s-1.3,2.3-3.47,3.23A25.43,25.43,0,0,1,34,14.73Zm0-9.06a24.63,24.63,0,0,0-9.39,1.64c-2,.88-3,1.88-3,2.48s.92,1.6,3,2.48A24.63,24.63,0,0,0,34,13.91a24.81,24.81,0,0,0,9.38-1.64c2.05-.88,3-1.88,3-2.48s-.92-1.6-3-2.48A24.61,24.61,0,0,0,34,5.67Zm0,0"/></g></svg>