<svg id="LEVELS" xmlns="http://www.w3.org/2000/svg" width="70" height="70" viewBox="0 0 70 70"><defs><style>.cls-1{fill:#e0ae89;}.cls-2{fill:#333;}.cls-3{fill:#999898;}.cls-4{opacity:0.7;}.cls-5{fill:#fff;}.cls-6{fill:#db4233;stroke-linecap:round;stroke-linejoin:round;}.cls-14,.cls-15,.cls-6{stroke:#333;}.cls-15,.cls-6{stroke-width:0.5px;}.cls-7{fill:#e15d55;}.cls-8{fill:#b22a25;}.cls-9{fill:#e96b4e;}.cls-10,.cls-15{fill:#f7c9ab;}.cls-11{fill:#ebe9df;}.cls-12{fill:#f3ab7d;}.cls-13{fill:#f6f5f0;}.cls-14{fill:#d7d5c2;stroke-width:0.65px;}.cls-14,.cls-15{stroke-miterlimit:10;}</style></defs><g id="Layer_181" data-name="Layer 181"><rect class="cls-1" x="20.7" y="10.69" width="28.25" height="4.1"/><rect class="cls-1" x="8.78" y="26.39" width="28.25" height="4.1" transform="translate(51.34 5.54) rotate(90)"/><rect class="cls-1" x="32.97" y="26.16" width="28.25" height="4.1" transform="translate(75.31 -18.89) rotate(90)"/><rect class="cls-1" x="20.7" y="42.13" width="28.25" height="4.1"/><path class="cls-2" d="M48.7,44.46l-3.21-3.21V15.64l3.21-3.21v32ZM22.44,45.6l3.21-3.21h18.7l3.21,3.21ZM21.3,12.43l3.21,3.21V41.25L21.3,44.46v-32Zm22.58,3.68V40.77H26.12V16.11Zm3.68-4.83-3.21,3.21H25.65l-3.21-3.21Zm1.95-1.61h-29a.8.8,0,0,0-.81.8V46.41a.81.81,0,0,0,.81.81h29a.81.81,0,0,0,.81-.81V10.47a.8.8,0,0,0-.81-.8Z"/><path class="cls-2" d="M20.73,11c4.16-2.44,8.35-4.84,12.49-7.32.42-.24.83-.54,1.26-.75a2.27,2.27,0,0,1,2.38.33C38.26,4.14,39.64,5,41,5.87q4.17,2.58,8.31,5.2c.82.52,1.58-.78.76-1.29C46,7.17,41.84,4.55,37.66,2a4.66,4.66,0,0,0-1.95-.78A4.1,4.1,0,0,0,33.12,2c-1.4.85-2.82,1.67-4.24,2.5L20,9.73a.75.75,0,0,0,.76,1.3Z"/><path class="cls-3" d="M35.73,1.07a1.57,1.57,0,0,0-1.34.3,1.69,1.69,0,0,0-.59,1.27,1.39,1.39,0,0,0,.07.61,1.52,1.52,0,0,0,1.7.87A1.6,1.6,0,0,0,36.8,2.58,1.57,1.57,0,0,0,35.73,1.07Z"/><path class="cls-2" d="M35.88.53a2.12,2.12,0,0,0-2.1.64,2.4,2.4,0,0,0-.45,2.23,2.07,2.07,0,0,0,2.22,1.29A2.12,2.12,0,0,0,37.32,3,2.15,2.15,0,0,0,35.88.53a.56.56,0,0,0-.69.39.57.57,0,0,0,.39.69l.12,0c-.11,0,0,0,0,0l.18.12c-.11-.08.05.05.08.08l.08.09c-.06-.07,0,0,0,0a1.14,1.14,0,0,1,.1.19c.06.12,0-.08,0,0a1,1,0,0,0,0,.1.78.78,0,0,1,0,.21c0-.12,0,0,0,0V2.7c0,.14,0-.12,0,0a1.17,1.17,0,0,1,0,.2.69.69,0,0,1,0,.08l0-.06a.59.59,0,0,0,0,.08l-.12.2c0,.07.09-.1,0,0l-.08.08-.07.07s-.12.09,0,0l0,0-.07,0-.12.06c.13-.06,0,0,0,0l-.13,0h-.23s-.17,0,0,0l-.1,0-.13,0s-.15-.07,0,0l-.2-.11-.07,0c.11.07,0,0,0,0a.71.71,0,0,1-.15-.15c0,.09,0,0,0,0s-.09-.11-.08-.14,0,.14,0,0,0-.11,0-.16,0-.11,0,0a1,1,0,0,0,0-.17,2.46,2.46,0,0,1,0-.26c0-.1,0,.16,0,0a.13.13,0,0,0,0-.06s0-.11,0-.16,0-.15.06-.17l0,.06a.25.25,0,0,0,0-.07L34.54,2l.06-.09,0,0,.06-.07c.06-.06.28-.2,0-.06l.21-.13L35,1.66c.11,0-.12,0,0,0l.23-.07h.09c-.16,0,0,0,.07,0h.1c-.13,0,.07,0,.1,0a.56.56,0,1,0,.3-1.08Z"/><g class="cls-4"><path class="cls-5" d="M35.07,2.93s0,.07,0,0l0,0s0,0,0-.08l0,.09a1.05,1.05,0,0,1,0-.19v.1a.89.89,0,0,1,0-.23v.1a.86.86,0,0,1,.06-.23l0,.09a2.12,2.12,0,0,1,.11-.21s.07-.06,0,0a.1.1,0,0,0,0-.05l.08-.08a.37.37,0,0,0-.53-.53,1.46,1.46,0,0,0-.44.77,1.3,1.3,0,0,0,0,.52,1,1,0,0,0,.23.46.39.39,0,0,0,.27.11.36.36,0,0,0,.26-.11.33.33,0,0,0,.11-.26.39.39,0,0,0-.11-.27Z"/></g><path class="cls-6" d="M35.58,36.15a1.74,1.74,0,0,0,1.1-1,1.7,1.7,0,0,0-.42-1.73,2.53,2.53,0,0,0,1.29-2.36,2.43,2.43,0,0,0-1.09-1.89,1.49,1.49,0,0,0,.45-1.59,1.59,1.59,0,0,0-1.19-1,1.81,1.81,0,0,0-.65-1.56c-.77-.59-2.11,0-2.11,0a2.2,2.2,0,0,0-1.84-1,1.76,1.76,0,0,0-1.66,1,2.14,2.14,0,0,0-1.7.77,1.7,1.7,0,0,0,.08,1.73s-1.38.61-1.38,1.72a3.68,3.68,0,0,0,.71,2,1.53,1.53,0,0,0-.46,1.59,1.93,1.93,0,0,0,1.47,1.29s-1,.89.25,1.94Zm0,0"/><path class="cls-7" d="M42.65,32.74c0-3-.89-3.91-2.89-3.91s-2.89.93-2.89,3.91Zm0,0"/><path class="cls-8" d="M27.76,30.4c0,1.63.85,1.65.85,1.65a1.48,1.48,0,0,0,.9,2A2.78,2.78,0,0,0,32,35.72,2.33,2.33,0,0,0,34.25,34a1.32,1.32,0,0,0,1-1.85s1-.17,1-1.73Zm0,0"/><path class="cls-9" d="M33,33.66H31V35l-3.35,1.55a2,2,0,0,0-1.18,1.85v2.78H37.55V38.36a2,2,0,0,0-1.18-1.85L33,35Zm0,0"/><path class="cls-10" d="M34.25,35.53a3.13,3.13,0,0,1-4.49,0L31,35v-1.3h2V35Zm0,0"/><path class="cls-11" d="M32,36.48l-1.09,1.14a2,2,0,0,1-1.64-1.87l.48-.23a3.1,3.1,0,0,0,2.25,1"/><path class="cls-11" d="M33.09,37.62,32,36.48a3.15,3.15,0,0,0,2.24-.95l.48.22a2,2,0,0,1-1.64,1.87"/><path class="cls-10" d="M29.05,31.59a1.17,1.17,0,0,1-1.29-1.19c0-.61.88-.72,1-.72Zm0,0"/><path class="cls-10" d="M35,31.59a1.18,1.18,0,0,0,1.3-1.19c0-.61-.89-.72-1-.72Zm0,0"/><path class="cls-12" d="M33,34.66v-1H31v1a8,8,0,0,0,1,.4,8,8,0,0,0,1-.4"/><path class="cls-10" d="M35.24,29.68a8,8,0,0,1-.82,3.26A5.32,5.32,0,0,1,32,34.38a5.38,5.38,0,0,1-2.42-1.44,8,8,0,0,1-.81-3.26c1.49,0,4.11-2.65,4.11-2.65s1.16,2.65,2.35,2.65"/><path class="cls-12" d="M32.75,28a3,3,0,0,0,2.49,1.7c-1.19,0-2.35-2.65-2.35-2.65s-2.62,2.65-4.11,2.65c1.86,0,3.56-.92,4-1.7"/><path class="cls-13" d="M29.9,30.26a1.1,1.1,0,0,1,.61-.2,1.24,1.24,0,0,1,.61.2l.14.41h-1a.41.41,0,0,1-.41-.41"/><path class="cls-13" d="M34.11,30.26a1.1,1.1,0,0,0-.61-.2,1.29,1.29,0,0,0-.61.2l-.14.41h1a.4.4,0,0,0,.4-.41"/><path class="cls-6" d="M39.76,25.86c-.33-.84-1.19-.79-1.19.17s1.19,1.61,1.19,1.61S41,27,41,26s-.86-1-1.19-.17"/><path class="cls-12" d="M42.65,32.74h.2a.69.69,0,0,1,0,1.37h-.51Zm0,0"/><path class="cls-12" d="M37.17,34.11h-.51a.69.69,0,0,1,0-1.37h.21Zm0,0"/><path class="cls-14" d="M39.08,37.06V36h1.36v1l1.93.64a1.7,1.7,0,0,1,1.16,1.61v1.83H36V39.31a1.7,1.7,0,0,1,1.17-1.61Zm0,0"/><path class="cls-12" d="M41.06,37.27s-.21.71-1.3.71-1.3-.71-1.3-.71l.62-.21V36h1.36v1Zm0,0"/><path class="cls-15" d="M42.65,32.74a5.89,5.89,0,0,1-.73,2.61,4.78,4.78,0,0,1-2.16,1.2,4.78,4.78,0,0,1-2.16-1.2,5.89,5.89,0,0,1-.73-2.61c.47,0,1-2,1-2a5.29,5.29,0,0,1,1.94-.34,5.36,5.36,0,0,1,1.94.34s.56,2,.95,2"/><path class="cls-13" d="M41.7,33a1.13,1.13,0,0,0-.62-.21,1.41,1.41,0,0,0-.61.2l-.13.42h.95A.42.42,0,0,0,41.7,33"/><path class="cls-13" d="M37.82,33a1.09,1.09,0,0,1,.61-.21,1.36,1.36,0,0,1,.61.2l.14.42h-1a.41.41,0,0,1-.41-.41"/><path class="cls-2" d="M29.05,31.76a1.34,1.34,0,0,1-1.46-1.36c0-.73.95-.89,1.19-.89v.34s-.85.06-.85.55a1,1,0,0,0,1.12,1Zm0,0"/><path class="cls-2" d="M35,31.76v-.34a1,1,0,0,0,1.13-1c0-.49-.85-.55-.85-.55v-.34c.23,0,1.19.16,1.19.89A1.35,1.35,0,0,1,35,31.76Zm0,0"/><path class="cls-2" d="M37.25,37.68a1.84,1.84,0,0,0-1-1L33,35.11a.16.16,0,0,1-.09-.15V34h.34v.87l3.24,1.51a2.19,2.19,0,0,1,1.13,1.19Zm0,0"/><path class="cls-2" d="M26.29,41V38.36a2.21,2.21,0,0,1,1.28-2l3.25-1.51V34h.34v1a.18.18,0,0,1-.1.15l-3.35,1.56a1.86,1.86,0,0,0-1.08,1.69V41Zm9,.32"/><path class="cls-2" d="M32,32.82a1.46,1.46,0,0,1-1.08-.47l.25-.23a1.16,1.16,0,0,0,.83.35h0a1.09,1.09,0,0,0,.81-.35l.26.23a1.49,1.49,0,0,1-1.07.47Zm0,0"/><path class="cls-2" d="M29.85,29.39l-.18-.29a1.62,1.62,0,0,1,.84-.23h0a1.54,1.54,0,0,1,.82.23l-.17.29a1.29,1.29,0,0,0-.65-.18h0a1.34,1.34,0,0,0-.66.18Zm0,0"/><rect class="cls-2" x="30.24" y="30.06" width="0.54" height="0.61"/><path class="cls-2" d="M29.9,30.43h-.14v-.34h.09a1.22,1.22,0,0,1,.66-.2h0a1.3,1.3,0,0,1,.6.17l.06,0-.11.32L31,30.36a.88.88,0,0,0-.44-.13h0a.92.92,0,0,0-.52.17.19.19,0,0,1-.1,0Zm0,0"/><path class="cls-2" d="M34.16,29.39a1.3,1.3,0,0,0-1.32,0l-.17-.29a1.55,1.55,0,0,1,.83-.23h0a1.58,1.58,0,0,1,.83.23Zm0,0"/><rect class="cls-2" x="33.23" y="30.06" width="0.54" height="0.61"/><path class="cls-2" d="M34.25,30.43h-.14a.16.16,0,0,1-.09,0,.92.92,0,0,0-.52-.17,1,1,0,0,0-.45.13.3.3,0,0,1-.11.06l-.11-.32.06,0a1.23,1.23,0,0,1,.61-.18h0a1.15,1.15,0,0,1,.66.21h.09Zm0,0"/><path class="cls-2" d="M32,34.55h0a5.38,5.38,0,0,1-2.5-1.5,7.8,7.8,0,0,1-.85-3.35.13.13,0,0,1,0-.12.16.16,0,0,1,.13-.06c1.4,0,4-2.57,4-2.6a.17.17,0,0,1,.15-.05.21.21,0,0,1,.13.1c.31.71,1.3,2.55,2.19,2.55a.16.16,0,0,1,.12.06.17.17,0,0,1,0,.12A8.12,8.12,0,0,1,34.56,33a5.45,5.45,0,0,1-2.51,1.5Zm-3-4.71a7.09,7.09,0,0,0,.77,3A5,5,0,0,0,32,34.2a4.93,4.93,0,0,0,2.27-1.36,7.22,7.22,0,0,0,.78-3c-.51-.09-1-.56-1.59-1.39a9.77,9.77,0,0,1-.63-1.13c-.6.58-2.54,2.37-3.88,2.52Zm0,0"/><path class="cls-2" d="M32,36.65a3.33,3.33,0,0,1-2.38-1l.26-.23a3,3,0,0,0,2.11.9,3,3,0,0,0,2.12-.9l.25.23a3.26,3.26,0,0,1-2.36,1Zm0,0"/><path class="cls-2" d="M30.92,37.79h-.05a2.43,2.43,0,0,1-1.55-1.22,2.06,2.06,0,0,1-.21-.83h.34a1.86,1.86,0,0,0,1.42,1.68l1-1.07.25.23L31,37.74a.13.13,0,0,1-.12,0Zm0,0"/><path class="cls-2" d="M33.09,37.79a.15.15,0,0,1-.12,0l-1.09-1.15.25-.23,1,1.07a1.87,1.87,0,0,0,1.42-1.68h.34a1.88,1.88,0,0,1-.21.83,2.43,2.43,0,0,1-1.55,1.22Zm0,0"/><path class="cls-2" d="M42.85,34.28h-.51v-.34h.51a.52.52,0,0,0,0-1h-.2v-.34h.2a.86.86,0,0,1,0,1.71Zm0,0"/><path class="cls-2" d="M37.17,34.28h-.51a.86.86,0,0,1,0-1.71h.21v.34h-.21a.52.52,0,0,0,0,1h.51Zm0,0"/><path class="cls-2" d="M39.76,35.16a1.22,1.22,0,0,1-.92-.47l.28-.2a.83.83,0,0,0,.64.34h0a.86.86,0,0,0,.63-.34l.28.2a1.2,1.2,0,0,1-.91.47Zm0,0"/><path class="cls-2" d="M37.77,32.31,37.6,32a1.65,1.65,0,0,1,.83-.23h0a1.79,1.79,0,0,1,.83.23l-.18.29a1.29,1.29,0,0,0-.65-.18,1.35,1.35,0,0,0-.67.18Zm0,0"/><path class="cls-2" d="M41.75,32.31a1.32,1.32,0,0,0-1.33,0L40.25,32a1.75,1.75,0,0,1,.83-.23,1.69,1.69,0,0,1,.84.23Zm0,0"/><rect class="cls-2" x="38.16" y="32.74" width="0.54" height="0.61"/><path class="cls-2" d="M39,33.1l-.11-.05a.88.88,0,0,0-.44-.14h0a.93.93,0,0,0-.52.18l-.2-.28a1.26,1.26,0,0,1,.71-.24h0a1.18,1.18,0,0,1,.6.18l.06,0Zm0,0"/><rect class="cls-2" x="40.81" y="32.74" width="0.54" height="0.61"/><path class="cls-2" d="M40.53,33.1l-.12-.32.07,0a1.2,1.2,0,0,1,.61-.17,1.25,1.25,0,0,1,.71.23l-.2.28a.92.92,0,0,0-.52-.17,1,1,0,0,0-.44.13l-.11.05Zm0,0"/><path class="cls-2" d="M42.82,32.74h-.34c0-3.12-1-3.74-2.72-3.74S37,29.62,37,32.74H36.7c0-2.93.86-4.08,3.06-4.08s3.06,1.15,3.06,4.08Zm0,0"/><path class="cls-2" d="M39.76,38.15a1.38,1.38,0,0,1-1.46-.83l.32-.1-.16.05.16-.05s.2.59,1.14.59,1.13-.57,1.13-.59l.33.1a1.38,1.38,0,0,1-1.46.83Zm0,0"/></g></svg>