<svg xmlns="http://www.w3.org/2000/svg" width="70" height="70" viewBox="0 0 70 70"><defs><style>.cls-1{isolation:isolate;}.cls-2{fill:#333;}.cls-3{fill:#e28559;}.cls-4{fill:#ebc58d;}.cls-5{fill:#e8c2a7;}.cls-6{fill:#e79c98;}.cls-7{opacity:0.2;}.cls-8{fill:#f1f2f2;}.cls-9{fill:#fff;}.cls-10{opacity:0.3;mix-blend-mode:multiply;}</style></defs><g class="cls-1"><g id="LEVELS"><g id="HAT_copy" data-name="HAT copy"><path class="cls-2" d="M35,19.44a.21.21,0,0,0,.12.34,5.87,5.87,0,0,1,3,1.08,6.12,6.12,0,0,0,2.26,1,.2.2,0,0,0,.13.31,14.84,14.84,0,0,0,3-.12,17.48,17.48,0,0,0-2,7.56c0,.34.53.29.53,0a16.79,16.79,0,0,1,1.67-7.21,7.36,7.36,0,0,0,1.14,3.38c.11.17.35,0,.35-.13v0a6,6,0,0,0,1.93,1.64.2.2,0,0,0,.23,0,15.59,15.59,0,0,0,3.4,1.8.19.19,0,0,0,.24-.29,2.91,2.91,0,0,1-.43-1,.44.44,0,0,0,.17-.25,2.24,2.24,0,0,0,0-.52l-.09-.59c-.11-.78-.21-1.58-.34-2.36a4.75,4.75,0,0,0,2.67-.11,5.56,5.56,0,0,1,1.56-.63c.56-.08,1.15-.1,1.72-.14a.2.2,0,0,0,.14-.08l2,.4a.19.19,0,0,0,.18-.29c-.4-.6-.8-1.19-1.21-1.78a.2.2,0,0,0,.13-.34,22.16,22.16,0,0,0-3.52-2.64.2.2,0,0,0-.1-.34,11.77,11.77,0,0,0-3.24-.21,5.59,5.59,0,0,0,1.62-2.08,12.61,12.61,0,0,0,.7-2,8.48,8.48,0,0,0,.26-1,.63.63,0,0,0-.07-.43,30.73,30.73,0,0,1,1.76-4.49.19.19,0,0,0-.23-.25,17.86,17.86,0,0,0-4.24,2.43c-.09.07-.35.35-.46.36s-.1-.08-.14-.1a.35.35,0,0,0-.18-.05c-.33,0-.67.29-.91.48a5.52,5.52,0,0,0-1.33,1.52c-.34-.08-.67.27-.88.54s-.49.69-.71,1a6.1,6.1,0,0,0-1.17-2.38.19.19,0,0,0-.29,0,9.36,9.36,0,0,0-5-3.5.19.19,0,0,0-.19.29,6.28,6.28,0,0,1,1,1.88l-.07,0a.18.18,0,0,0-.21.2,13.93,13.93,0,0,1,.34,3.34,6.8,6.8,0,0,0,0,1.56,9.46,9.46,0,0,0,.36,1.39,20.4,20.4,0,0,0-3.74,1,.19.19,0,0,0,0,.34A12.48,12.48,0,0,0,35,19.44Zm3.06.89a6.14,6.14,0,0,0-2.44-.92,13.25,13.25,0,0,1,1.66-1.33.19.19,0,0,0,.07-.25,24.57,24.57,0,0,1,3.52-.91A.19.19,0,0,0,41,16.6a.14.14,0,0,0,0-.09A7.29,7.29,0,0,1,40.59,15a10.89,10.89,0,0,1,0-1.51,12.86,12.86,0,0,0-.29-2.84l0,0a.19.19,0,0,0,.33-.17,6.88,6.88,0,0,0-.9-2,8.85,8.85,0,0,1,4.48,3.56.16.16,0,0,0,.29,0,5.78,5.78,0,0,1,.94,2.26l0,0c-.13.22.24.4.37.17s1.19-2,1.47-1.81a.21.21,0,0,0,.32-.07,5,5,0,0,1,1.51-1.71c.11-.08.34-.29.48-.22s.14.15.28.15a.56.56,0,0,0,.34-.17l.45-.36a17.53,17.53,0,0,1,3.63-2.17,27.62,27.62,0,0,0-1.62,4.22.18.18,0,0,0,.06.17c.14.14-.09.68-.13.82s-.15.54-.23.8a9.51,9.51,0,0,1-.64,1.63,4.74,4.74,0,0,1-2,2.13c-.18.1,0,.4.16.31l0,0a.18.18,0,0,0,.16.06,11.51,11.51,0,0,1,3.21.07.18.18,0,0,0,.11.19A22.47,22.47,0,0,1,56.87,21h0a.19.19,0,0,0,0,.26c.39.56.77,1.13,1.15,1.69l-1.84-.38a.2.2,0,0,0-.22.16c-.48,0-1,.06-1.44.12a3.89,3.89,0,0,0-1.35.51,4.65,4.65,0,0,1-3.08.2.17.17,0,0,0-.14.31h0c.07.6.17,1.2.25,1.8,0,.3.09.6.13.9s.05.32.07.48a.76.76,0,0,0,0,.21v0a.19.19,0,0,0-.21.21,3.36,3.36,0,0,0,.27.9,15.14,15.14,0,0,1-3.13-1.78.19.19,0,0,0-.28.05,5.55,5.55,0,0,1-1.84-1.86c-.1-.16-.31-.06-.35.09a7,7,0,0,1-.77-3.09.14.14,0,0,0-.15-.15.16.16,0,0,0-.17-.06,15.44,15.44,0,0,1-2.63.18c0-.12,0-.25-.15-.26a4.6,4.6,0,0,1-1.54-.39A13.12,13.12,0,0,1,38.07,20.33Z"/><path class="cls-3" d="M35.63,19.41a6.14,6.14,0,0,1,2.44.92,13.12,13.12,0,0,0,1.34.84,4.6,4.6,0,0,0,1.54.39c.15,0,.19.14.15.26a15.44,15.44,0,0,0,2.63-.18.16.16,0,0,1,.17.06.14.14,0,0,1,.15.15,7,7,0,0,0,.77,3.09c0-.15.25-.25.35-.09A5.55,5.55,0,0,0,47,26.71a.19.19,0,0,1,.28-.05,15.14,15.14,0,0,0,3.13,1.78,3.36,3.36,0,0,1-.27-.9.19.19,0,0,1,.21-.21v0a.76.76,0,0,1,0-.21c0-.16,0-.32-.07-.48s-.08-.6-.13-.9c-.08-.6-.18-1.2-.25-1.8h0a.17.17,0,0,1,.14-.31,4.65,4.65,0,0,0,3.08-.2,3.89,3.89,0,0,1,1.35-.51c.48-.06,1-.08,1.44-.12a.2.2,0,0,1,.22-.16L58,23c-.38-.56-.76-1.13-1.15-1.69a.19.19,0,0,1,0-.26h0a22.47,22.47,0,0,0-3.42-2.46.18.18,0,0,1-.11-.19,11.51,11.51,0,0,0-3.21-.07.18.18,0,0,1-.16-.06l0,0c-.17.09-.34-.21-.16-.31a4.74,4.74,0,0,0,2-2.13,9.51,9.51,0,0,0,.64-1.63c.08-.26.16-.53.23-.8s.27-.68.13-.82a.18.18,0,0,1-.06-.17,27.62,27.62,0,0,1,1.62-4.22,17.53,17.53,0,0,0-3.63,2.17l-.45.36a.56.56,0,0,1-.34.17c-.14,0-.18-.1-.28-.15s-.37.14-.48.22a5,5,0,0,0-1.51,1.71.21.21,0,0,1-.32.07c-.28-.24-1.35,1.6-1.47,1.81s-.5.05-.37-.17l0,0A5.78,5.78,0,0,0,44.57,12a.16.16,0,0,1-.29,0A8.85,8.85,0,0,0,39.8,8.49a6.88,6.88,0,0,1,.9,2,.19.19,0,0,1-.33.17l0,0a12.86,12.86,0,0,1,.29,2.84,10.89,10.89,0,0,0,0,1.51A7.29,7.29,0,0,0,41,16.51a.14.14,0,0,1,0,.09.19.19,0,0,1-.09.32,24.57,24.57,0,0,0-3.52.91.19.19,0,0,1-.07.25A13.25,13.25,0,0,0,35.63,19.41Z"/><path class="cls-2" d="M39.57,19.42a9.88,9.88,0,0,1,2.67.78,4.3,4.3,0,0,1,1,.67,3.23,3.23,0,0,1,.39.44l.07.08c0-.13,0-.26,0-.39,0-.3,0-.6,0-.89q0-.86-.06-1.71a22.1,22.1,0,0,0-.49-3.33c-.15-.63-.33-1.26-.51-1.89a.06.06,0,0,1,.11,0,19.06,19.06,0,0,1,.82,3.33,21.84,21.84,0,0,1,.3,3.42c0,.32,0,.65,0,1s0,.52,0,.77c.3-.57.65-1.12,1-1.67s.75-1.2,1.14-1.79c.8-1.2,1.63-2.37,2.51-3.51.49-.63,1-1.27,1.52-1.87,0-.06.14,0,.09.08-.85,1.14-1.73,2.25-2.56,3.41s-1.62,2.34-2.38,3.55c-.36.58-.69,1.17-1,1.74A15.23,15.23,0,0,1,50,20.84c.61,0,1.21.07,1.81.13.09,0,.06.15,0,.14a23.51,23.51,0,0,0-6.27.23,12.6,12.6,0,0,0-1.37.38,4.92,4.92,0,0,1,.58.19,7.8,7.8,0,0,1,1,.45,5.88,5.88,0,0,1,1.67,1.26c0,.06,0,.14-.1.09a10.3,10.3,0,0,0-1.68-1.17,7.47,7.47,0,0,0-.92-.39,6.89,6.89,0,0,0-.81-.23.09.09,0,0,1-.14,0h0l-.06,0a.12.12,0,0,1-.08-.19v0l-.15-.22A3.88,3.88,0,0,0,43,21a4.48,4.48,0,0,0-.95-.66,10.26,10.26,0,0,0-2.54-.79C39.46,19.54,39.48,19.4,39.57,19.42Z"/><path class="cls-4" d="M48.77,33.33,48.52,33c-.57-.91-.92-1.44-1.05-1.63a6.1,6.1,0,0,1-1-2.26c-.31-2,1.49-3.29,2.69-4.54a6.94,6.94,0,0,0,.85-1,6.78,6.78,0,0,0,.65-1.29c.34-.88.63-1.78,1-2.64a18.63,18.63,0,0,1,3-4.59c.3-.34.62-.67,1-1a6.25,6.25,0,0,1,1-.85.94.94,0,0,1,1.08.07,1.52,1.52,0,0,1,.56,1A5.32,5.32,0,0,1,58,16.81a12.28,12.28,0,0,1-1.2,2.44c-.49.8-1,1.56-1.52,2.34-.25.39-.5.79-.73,1.19A4.9,4.9,0,0,0,54,24c-.17.8.45,1.34.92,1.89a3.12,3.12,0,0,1,.74,1.87,4.76,4.76,0,0,1-1.73,3.86A8.41,8.41,0,0,1,51.78,33c-.2.09-.6.22-1.17.47s-.81.38-1,.51l-.73.43Z"/><path class="cls-2" d="M58.73,14.77a9.85,9.85,0,0,1-1.92,5.17c-.52.83-1.08,1.63-1.59,2.46-.25.4-.49.81-.7,1.23a1.15,1.15,0,0,0-.05,1.2,6.05,6.05,0,0,0,.72.87,3.36,3.36,0,0,1,.55.93A4.06,4.06,0,0,1,56,28.76a5.63,5.63,0,0,1-2.57,3.76,10.6,10.6,0,0,1-2.33,1.17c-.4.16-.81.28-1.22.43a2.73,2.73,0,0,0-1,.57c-.05.53-.09,1.06-.11,1.6,0,.13-.21.12-.21,0,0-.5,0-1,.09-1.49a.18.18,0,0,1-.1-.27l.13-.14c0-.23,0-.45.07-.67l-.66-1c-.93-1.42-2.28-3-1.83-4.85s2.34-2.9,3.4-4.41a13,13,0,0,0,1.22-2.81,19.2,19.2,0,0,1,4.69-7c.58-.56,1.28-1.29,2.15-.89A2.12,2.12,0,0,1,58.73,14.77Zm-.74,2a5.32,5.32,0,0,0,.33-2.59,1.52,1.52,0,0,0-.56-1,.94.94,0,0,0-1.08-.07,6.25,6.25,0,0,0-1,.85c-.33.32-.65.65-1,1a18.63,18.63,0,0,0-3,4.59c-.4.86-.69,1.76-1,2.64A6.78,6.78,0,0,1,50,23.49a6.94,6.94,0,0,1-.85,1c-1.2,1.25-3,2.57-2.69,4.54a6.21,6.21,0,0,0,1,2.26l1.3,2c.08-.64.18-1.28.32-1.91a3.4,3.4,0,0,1,.07-.34.1.1,0,0,1,0-.08c-.07-.37-.17-.74-.26-1.12a5.54,5.54,0,0,0-.14-.55c-.06-.17-.15-.35-.2-.53s0-.07.08,0a3.67,3.67,0,0,1,.27.52c.08.17.17.34.24.52a4.57,4.57,0,0,1,.19.63c.2-.81.43-1.62.69-2.42a.11.11,0,0,1-.06-.09,7.49,7.49,0,0,0-.13-1.06c0-.17-.08-.34-.11-.51a3,3,0,0,1-.12-.52s0-.08.08,0a2.3,2.3,0,0,1,.24.5,3.1,3.1,0,0,1,.15.52,4.57,4.57,0,0,1,.1.73c.31-.89.65-1.78,1-2.64a.07.07,0,0,1,0-.06c0-.25,0-.5.05-.75s0-.25,0-.38a1.27,1.27,0,0,1,0-.34,0,0,0,0,1,.07,0,.75.75,0,0,1,.07.36c0,.12,0,.25,0,.37s0,.22,0,.33c.18-.4.36-.8.55-1.2s.47-.94.71-1.4a.19.19,0,0,1,0-.07c0-.09,0-.16,0-.25a2.12,2.12,0,0,1,0-.24V21c0-.08,0-.16,0-.24a0,0,0,0,1,.08,0,.59.59,0,0,1,.12.22l.08.24,0,.15c.37-.69.76-1.37,1.16-2s.81-1.34,1.23-2c0,0,0,0,0,0a1.49,1.49,0,0,1,0-.21.93.93,0,0,1,0-.22,1.33,1.33,0,0,1,0-.19l0-.11s0,0,.06-.06h0a.13.13,0,0,1,0,.08s0,.07,0,.11a1.27,1.27,0,0,1,0,.2l0,.13c.32-.48.64-1,1-1.41a.13.13,0,0,1,.22.15c-.69,1-1.38,2.06-2,3.11l.14,0,.17-.05.17-.06s0,0,0,0a.83.83,0,0,1-.16.09l-.16.09-.16.1-.17.07-.47.78c-.67,1.16-1.3,2.36-1.88,3.58l.29-.2a2.27,2.27,0,0,1,.34-.19l.17-.08a.19.19,0,0,1,.16,0,0,0,0,0,1,0,0s-.11.07-.16.1l-.14.12-.29.25a3.47,3.47,0,0,1-.29.25,1.15,1.15,0,0,1-.27.14c-.39.86-.76,1.73-1.09,2.62l.06-.08c.11-.12.22-.25.34-.36a1.75,1.75,0,0,1,.42-.29,0,0,0,0,1,0,0,2.69,2.69,0,0,1-.3.37c-.11.12-.23.24-.34.37s-.32.39-.46.59-.17.45-.24.68-.22.66-.32,1l.11-.11a6,6,0,0,1,.46-.4,3.55,3.55,0,0,1,.53-.32l.29-.12a1.31,1.31,0,0,1,.28-.09s.07,0,0,.07a2.2,2.2,0,0,1-.26.15l-.24.16-.48.33c-.16.12-.31.25-.46.38s-.25.27-.39.38c-.2.66-.37,1.32-.52,2a2,2,0,0,1,.17-.23,5.59,5.59,0,0,1,.45-.52,4,4,0,0,1,.55-.45,3.47,3.47,0,0,1,.57-.37s.06,0,0,.05c-.17.16-.36.29-.53.45s-.31.31-.47.48a6,6,0,0,0-.48.52,2.43,2.43,0,0,0-.2.25s-.06.1-.11.13l-.06,0c-.15.7-.28,1.4-.38,2.11l.11.17c.06.09-.07.2-.15.16s0,.1,0,.15a3.26,3.26,0,0,1,.55-.31c.37-.15.77-.26,1.15-.4A11.9,11.9,0,0,0,51.78,33a8.41,8.41,0,0,0,2.11-1.32,4.76,4.76,0,0,0,1.73-3.86,3.12,3.12,0,0,0-.74-1.87c-.47-.55-1.09-1.09-.92-1.89a4.9,4.9,0,0,1,.58-1.25c.23-.4.48-.8.73-1.19.5-.78,1-1.54,1.52-2.34A12.28,12.28,0,0,0,58,16.81Z"/><path class="cls-2" d="M37,18.65a.22.22,0,0,1-.24.28,5.89,5.89,0,0,0-3.17-.11,6,6,0,0,1-2.48.13c0,.14-.09.3-.24.25A15.17,15.17,0,0,1,28.1,18a17.45,17.45,0,0,1-1,7.75c-.12.32-.6.08-.48-.24a16.65,16.65,0,0,0,1.12-7.32,7.32,7.32,0,0,1-2.31,2.72c-.17.12-.34-.09-.28-.25l0,0a6,6,0,0,1-2.41.81.21.21,0,0,1-.19-.13,15.41,15.41,0,0,1-3.83.42.2.2,0,0,1-.12-.36,2.93,2.93,0,0,0,.79-.78.39.39,0,0,1-.07-.3,2,2,0,0,1,.24-.46c.1-.17.2-.34.29-.51.4-.69.78-1.39,1.2-2.08a4.64,4.64,0,0,1-2.44-1.08A6.09,6.09,0,0,0,17.46,15c-.5-.28-1-.51-1.56-.76a.18.18,0,0,1-.09-.13l-2-.36a.19.19,0,0,1-.07-.34l1.79-1.21a.19.19,0,0,1,0-.36,23.22,23.22,0,0,1,4.25-1.15.2.2,0,0,1,.22-.27,12,12,0,0,1,3.09,1,5.59,5.59,0,0,1-.74-2.53,13,13,0,0,1,.07-2.07,8.72,8.72,0,0,1,.13-1,.61.61,0,0,1,.22-.37,31,31,0,0,0,0-4.82.18.18,0,0,1,.3-.15,17.81,17.81,0,0,1,3,3.82c.07.1.2.46.3.51s.12,0,.16,0a.4.4,0,0,1,.19,0c.31.1.52.52.67.79a5.58,5.58,0,0,1,.67,1.91c.35.05.53.5.62.82s.2.82.27,1.24a6.11,6.11,0,0,1,2-1.78.18.18,0,0,1,.27.09,9.32,9.32,0,0,1,5.91-1.42.19.19,0,0,1,.06.34,6.33,6.33,0,0,0-1.64,1.36h.07a.18.18,0,0,1,.12.27,13.4,13.4,0,0,0-1.55,3,7.23,7.23,0,0,1-.55,1.45A10,10,0,0,1,32.83,14a20.53,20.53,0,0,1,3.11,2.28.2.2,0,0,1-.09.34A12.89,12.89,0,0,1,37,18.65Zm-3.17-.3a6.16,6.16,0,0,1,2.6,0,11.71,11.71,0,0,0-1-1.85.19.19,0,0,1,0-.25,24.85,24.85,0,0,0-2.93-2.16.18.18,0,0,1,0-.33.3.3,0,0,1,0-.08,7.29,7.29,0,0,0,.92-1.28A10.12,10.12,0,0,0,33.94,11a13.53,13.53,0,0,1,1.32-2.53l0,0A.19.19,0,0,1,35,8.23a6.71,6.71,0,0,1,1.58-1.52,8.86,8.86,0,0,0-5.49,1.66.17.17,0,0,1-.26-.12A5.6,5.6,0,0,0,29.11,10v.05c0,.26-.37.28-.41,0S28.36,7.73,28,7.85a.21.21,0,0,1-.28-.18A5.09,5.09,0,0,0,27,5.52c-.08-.12-.21-.4-.37-.38s-.19.08-.31,0A.51.51,0,0,1,26,4.89l-.28-.5A17.82,17.82,0,0,0,23.19,1a28.41,28.41,0,0,1-.06,4.52c0,.06-.06.11-.12.13s-.16.67-.18.82-.06.55-.09.82a10.34,10.34,0,0,0,0,1.76,4.75,4.75,0,0,0,1.07,2.72c.13.15-.14.37-.27.22l0,0a.19.19,0,0,1-.18,0,10.88,10.88,0,0,0-3-1.12.21.21,0,0,1-.18.13,22.25,22.25,0,0,0-4.09,1h0a.19.19,0,0,1,0,.26l-1.69,1.14,1.85.34a.19.19,0,0,1,.14.23c.44.2.88.4,1.3.64a3.81,3.81,0,0,1,1.07,1,4.67,4.67,0,0,0,2.79,1.33.18.18,0,0,1,0,.34h0c-.29.53-.6,1.05-.9,1.58l-.45.79-.24.42a.67.67,0,0,1-.11.18l0,0a.2.2,0,0,1,.12.28,3.26,3.26,0,0,1-.59.74,15.37,15.37,0,0,0,3.57-.5.2.2,0,0,1,.25.15,5.57,5.57,0,0,0,2.39-1c.16-.12.32.05.29.21a7,7,0,0,0,1.86-2.59.16.16,0,0,1,.2-.09.19.19,0,0,1,.18,0,14.76,14.76,0,0,0,2.37,1.14c0-.12.09-.23.24-.18a4.41,4.41,0,0,0,1.57.2A11.86,11.86,0,0,0,33.79,18.35Z"/><path class="cls-5" d="M36.39,18.4a6.16,6.16,0,0,0-2.6,0,11.86,11.86,0,0,1-1.56.28,4.41,4.41,0,0,1-1.57-.2c-.15-.05-.23.06-.24.18a14.76,14.76,0,0,1-2.37-1.14.19.19,0,0,0-.18,0,.16.16,0,0,0-.2.09,7,7,0,0,1-1.86,2.59c0-.16-.13-.33-.29-.21a5.57,5.57,0,0,1-2.39,1,.2.2,0,0,0-.25-.15,15.37,15.37,0,0,1-3.57.5,3.26,3.26,0,0,0,.59-.74.2.2,0,0,0-.12-.28l0,0a.67.67,0,0,0,.11-.18l.24-.42.45-.79c.3-.53.61-1.05.9-1.58h0a.18.18,0,0,0,0-.34,4.67,4.67,0,0,1-2.79-1.33,3.81,3.81,0,0,0-1.07-1c-.42-.24-.86-.44-1.3-.64a.19.19,0,0,0-.14-.23l-1.85-.34L16,12.29a.19.19,0,0,0,0-.26h0a22.25,22.25,0,0,1,4.09-1,.21.21,0,0,0,.18-.13,10.88,10.88,0,0,1,3,1.12.19.19,0,0,0,.18,0l0,0c.13.15.4-.07.27-.22a4.75,4.75,0,0,1-1.07-2.72,10.34,10.34,0,0,1,0-1.76c0-.27.05-.55.09-.82s0-.74.18-.82.12-.07.12-.13A28.41,28.41,0,0,0,23.19,1a17.82,17.82,0,0,1,2.57,3.36l.28.5a.51.51,0,0,0,.26.28c.12,0,.2,0,.31,0s.29.26.37.38a5.09,5.09,0,0,1,.76,2.15.21.21,0,0,0,.28.18c.34-.12.66,2,.69,2.23s.45.23.41,0V10a5.6,5.6,0,0,1,1.71-1.75.17.17,0,0,0,.26.12,8.86,8.86,0,0,1,5.49-1.66A6.71,6.71,0,0,0,35,8.23a.19.19,0,0,0,.24.28l0,0A13.53,13.53,0,0,0,33.94,11a10.12,10.12,0,0,1-.51,1.43,7.29,7.29,0,0,1-.92,1.28.3.3,0,0,0,0,.08.18.18,0,0,0,0,.33,24.85,24.85,0,0,1,2.93,2.16.19.19,0,0,0,0,.25A11.71,11.71,0,0,1,36.39,18.4Z"/><path class="cls-2" d="M32.73,17A9.87,9.87,0,0,0,30,16.69a4.38,4.38,0,0,0-1.15.26,2.9,2.9,0,0,0-.53.26l-.09.06.12-.38c.1-.28.2-.56.31-.83.21-.53.44-1.06.69-1.57A21.5,21.5,0,0,1,31,11.59c.37-.54.77-1.06,1.17-1.58,0,0,0-.13-.09-.07a18.34,18.34,0,0,0-2,2.79,23.11,23.11,0,0,0-1.55,3.06c-.12.3-.24.6-.35.9s-.18.49-.25.74c-.07-.64-.19-1.29-.3-1.92s-.26-1.4-.4-2.09c-.3-1.41-.64-2.8-1-4.18-.22-.77-.45-1.55-.72-2.3a.06.06,0,0,0-.12,0c.37,1.37.78,2.73,1.12,4.11s.64,2.78.89,4.18c.12.67.22,1.34.34,2A15.23,15.23,0,0,0,22.5,14.4c-.57-.19-1.15-.37-1.73-.54-.09,0-.11.11,0,.14a23.62,23.62,0,0,1,5.75,2.53,11.61,11.61,0,0,1,1.13.86l-.61,0a9.59,9.59,0,0,0-1.07.06,6.19,6.19,0,0,0-2,.55c-.07,0,0,.15.06.12a9.83,9.83,0,0,1,2-.46,8.19,8.19,0,0,1,1,0c.29,0,.56.06.84.09a.1.1,0,0,0,.15,0H28a.12.12,0,0,0,.14-.14l0,0,.22-.15a4,4,0,0,1,.51-.25A4.34,4.34,0,0,1,30,16.88a10.75,10.75,0,0,1,2.66.21A.07.07,0,0,0,32.73,17Z"/><path class="cls-3" d="M26.18,27.81c.58-.81,1.19-1.6,1.83-2.36l1.11-1.27s0-.1-.07-.06a29.67,29.67,0,0,0-1.93,2.27c-.62.79-1.2,1.6-1.74,2.44"/><path class="cls-3" d="M25.39,30.2c.32,0,.65,0,1-.05q1,0,1.95.06l.54,0,.28,0h.14a.57.57,0,0,0,.13,0s0-.05,0-.07a.23.23,0,0,0-.11,0l-.12,0a2.13,2.13,0,0,0-.25,0l-.48-.05-1-.05c-.65,0-1.3,0-1.94.05"/><path class="cls-3" d="M24.08,31.2a4,4,0,0,0-.36.8l-.32.92a.81.81,0,0,1-.07-.22c0-.13-.22-.21-.3-.08-.38.63-.76,1.26-1.13,1.89a.19.19,0,0,0-.25,0,4,4,0,0,0-.52.49.17.17,0,0,0-.23,0,9.87,9.87,0,0,1-2.13,1.24,2.23,2.23,0,0,1,.49-.69.17.17,0,0,0-.05-.29c-.17,0-.14-.23-.05-.35a1.21,1.21,0,0,1,.35-.24,1.28,1.28,0,0,0,.56-.44.17.17,0,0,0,0-.24c-.27-.22-.05-.6.1-.82l.5-.66c.21-.28.51-.74.24-1.07s-.66-.15-.94,0l-1.28.81,0-.31a.18.18,0,0,0-.2-.14,5.86,5.86,0,0,1-1.62-.07l.09,0a.18.18,0,0,0,0-.34c-.42-.06-.84-.1-1.27-.12a.15.15,0,0,0,0-.17c-.11-.23-.36-.3-.58-.4l-.88-.39-1.37-.6.32-.13a5.76,5.76,0,0,0,.62-.26.52.52,0,0,0,.23-.37h.35c.16,0,.32,0,.44-.08a1.07,1.07,0,0,0,.24-.69,3.2,3.2,0,0,1,.62.09,5.6,5.6,0,0,0,.7.2.45.45,0,0,0,.43-.22c.15-.21.28-.44.41-.66a8.9,8.9,0,0,0,2,.58c.55.09,1.34.19,1.73-.32s0-1.23-.48-1.6A17.39,17.39,0,0,0,18.58,25a.16.16,0,0,0,0-.15,2.28,2.28,0,0,0-1-.8,2.66,2.66,0,0,1-.71-.47c.66.14,1.71.24,1.62-.46a2.75,2.75,0,0,0-.23-.6,6.27,6.27,0,0,0-.31-.73c0-.1-.19-.38-.34-.75-.07-.17-.12-.29-.06-.35s.32,0,.35,0a1.3,1.3,0,0,0,.23.07c.14,0,.21.05.25,0s0-.37,0-.48L18,19.07a1.52,1.52,0,0,0,.27.06h.08a.19.19,0,0,0,.11-.15,4.62,4.62,0,0,0,.08-1.57c.43.59.89,1.15,1.35,1.72a.18.18,0,0,0,.25,0q.16-.15.3-.3c.4.84.82,1.68,1.24,2.51a.19.19,0,0,0,.32,0l1.2-1.59c0,.21,0,.3,0,.35s.21.05.26.14,0,.07,0,.19,0,.19,0,.29,0,.41-.05.62l-.12,1.29c0,.11.1.23.21.2a1,1,0,0,0,.37-.2c.08-.06.14-.16.21,0s0,.19,0,.25a10.28,10.28,0,0,0,0,1.11c0,.51.12,1.38.69,1.58a.84.84,0,0,0,.75-.21,3.44,3.44,0,0,0,.71-.66,3.75,3.75,0,0,0,.71-1.28,2.35,2.35,0,0,0,.26.29.18.18,0,0,0,.25-.05c.59-.73,1.22-1.44,1.87-2.11a.18.18,0,0,0,0,.11c0,.08.15.11.23.11a.31.31,0,0,0,.15-.06,10,10,0,0,1,1.69-1.08s-.16.34-.28.78c0,.07-.06.22,0,.28h.1a.54.54,0,0,0,.21-.05c-.17.45-.34.89-.53,1.34-.05.11.07.28.2.24l.59-.16a2.06,2.06,0,0,1-.7.74,1.7,1.7,0,0,0-.71,1.05.2.2,0,0,0,.17.21h.26a18.45,18.45,0,0,0-1.35,1.58,3.77,3.77,0,0,0-1,1.94.18.18,0,0,0,.21.2A2.93,2.93,0,0,1,30,29l0,.05a.19.19,0,0,0,.13.3,6.34,6.34,0,0,1,1.93.72,4.08,4.08,0,0,1-2.63,1c-.11,0-.23.1-.21.21a7.49,7.49,0,0,0-1.48-.53.61.61,0,0,0-.68.25,1.84,1.84,0,0,0-.21.55,2.25,2.25,0,0,0-1.13-.9,1.67,1.67,0,0,0-1-.07"/><path class="cls-3" d="M17.68,29.19c-.06,0-.06.1,0,.11"/><path class="cls-2" d="M31.07,21.46c.12-.44.32-.75.28-.78a10,10,0,0,0-1.69,1.08.31.31,0,0,1-.15.06c-.08,0-.2,0-.23-.11a.18.18,0,0,1,0-.11c-.65.67-1.28,1.38-1.87,2.11a.18.18,0,0,1-.25.05,2.35,2.35,0,0,1-.26-.29,3.75,3.75,0,0,1-.71,1.28,3.44,3.44,0,0,1-.71.66.84.84,0,0,1-.75.21c-.57-.2-.67-1.07-.69-1.58a10.28,10.28,0,0,1,0-1.11c0-.06,0-.19,0-.25s-.13-.06-.21,0a1,1,0,0,1-.37.2c-.11,0-.22-.09-.21-.2l.12-1.29c0-.21,0-.42.05-.62s0-.2,0-.29,0-.15,0-.19-.17-.06-.26-.14-.08-.14,0-.35L22,21.39a.19.19,0,0,1-.32,0c-.42-.83-.84-1.67-1.24-2.51q-.14.15-.3.3a.18.18,0,0,1-.25,0c-.46-.57-.92-1.13-1.35-1.72A4.62,4.62,0,0,1,18.43,19a.19.19,0,0,1-.11.15h-.08a1.52,1.52,0,0,1-.27-.06l.41,1.22c0,.11.14.4,0,.48s-.11,0-.25,0a1.3,1.3,0,0,1-.23-.07s-.28-.12-.35,0,0,.18.06.35c.15.37.3.65.34.75a6.27,6.27,0,0,1,.31.73,2.75,2.75,0,0,1,.23.6c.09.7-1,.6-1.62.46a2.66,2.66,0,0,0,.71.47,2.28,2.28,0,0,1,1,.8.16.16,0,0,1,0,.15,17.39,17.39,0,0,1,1.83,1.25c.46.37.94,1,.48,1.6s-1.18.41-1.73.32a8.9,8.9,0,0,1-2-.58c-.13.22-.26.45-.41.66a.45.45,0,0,1-.43.22,5.6,5.6,0,0,1-.7-.2,3.2,3.2,0,0,0-.62-.09,1.07,1.07,0,0,1-.24.69c-.12.12-.28.08-.44.08h-.35a.52.52,0,0,1-.23.37,5.76,5.76,0,0,1-.62.26l-.32.13,1.37.6.88.39c.22.1.47.17.58.4a.15.15,0,0,1,0,.17c.42,0,.85.06,1.27.12a.18.18,0,0,1,0,.34l-.09,0a5.86,5.86,0,0,0,1.62.07.18.18,0,0,1,.2.14l0,.31,1.28-.81c.28-.18.69-.35.94,0s0,.79-.24,1.07l-.5.66c-.15.22-.37.6-.1.82a.17.17,0,0,1,0,.24,1.28,1.28,0,0,1-.56.44,1.21,1.21,0,0,0-.35.24c-.09.12-.12.31.05.35a.17.17,0,0,1,.05.29,2.23,2.23,0,0,0-.49.69A9.87,9.87,0,0,0,20.9,35a.17.17,0,0,1,.23,0,4,4,0,0,1,.52-.49.19.19,0,0,1,.25,0c.37-.63.75-1.26,1.13-1.89.08-.13.27,0,.3.08a.81.81,0,0,0,.07.22l.32-.92a4,4,0,0,1,.36-.8,1.34,1.34,0,0,1,.41-.5l.06,0-.15-.4h0a4.12,4.12,0,0,1-.4.33l-.42.33c-.48.39-.94.8-1.39,1.24-.22.22-.45.45-.66.69s-.41.47-.62.69c0,0-.08,0-.06-.05a10.54,10.54,0,0,1,.7-.8c.43-.45.89-.89,1.36-1.31.24-.21.48-.41.74-.6l.36-.28a2.41,2.41,0,0,1,.39-.26h0l-.25,0-.37-.09L23,29.94c-.88-.18-1.77-.33-2.67-.43s-1.79-.16-2.69-.21c-.06,0-.06-.11,0-.11.51,0,1,0,1.52,0a24.39,24.39,0,0,1,2.69.33c.45.08.9.17,1.34.27l.66.16.32.09.14.05a2.31,2.31,0,0,1-.1-.28c-.11-.32-.24-.64-.36-.95-.46-1.15-1-2.27-1.53-3.38l-.82-1.65c-.15-.27-.28-.55-.42-.83l-.21-.42c-.07-.14-.13-.28-.19-.42s0-.06.06,0a4.17,4.17,0,0,1,.26.46l.24.46.48.93c.57,1.1,1.13,2.21,1.65,3.34.25.56.5,1.13.72,1.7l.33.87a2.41,2.41,0,0,0,.08.25h0c.25-.45.52-.89.8-1.32.54-.84,1.12-1.65,1.74-2.44a29.67,29.67,0,0,1,1.93-2.27s.11,0,.07.06L28,25.45c-.64.76-1.25,1.55-1.83,2.36s-1.06,1.54-1.56,2.33l.36,0,.55-.05c.64-.05,1.29-.06,1.94-.05l1,.05.48.05a2.13,2.13,0,0,1,.25,0l.12,0a.23.23,0,0,1,.11,0s0,.06,0,.07a.57.57,0,0,1-.13,0h-.14l-.28,0-.54,0q-1-.08-1.95-.06c-.32,0-.65,0-1,.05l-.48,0-.34,0a3.37,3.37,0,0,1,.1.34,1.67,1.67,0,0,1,1,.07,2.25,2.25,0,0,1,1.13.9,1.84,1.84,0,0,1,.21-.55.61.61,0,0,1,.68-.25,7.49,7.49,0,0,1,1.48.53c0-.11.1-.21.21-.21a4.08,4.08,0,0,0,2.63-1,6.34,6.34,0,0,0-1.93-.72.19.19,0,0,1-.13-.3L30,29a2.93,2.93,0,0,0-1.55-.16.18.18,0,0,1-.21-.2,3.77,3.77,0,0,1,1-1.94,18.45,18.45,0,0,1,1.35-1.58h-.26a.2.2,0,0,1-.17-.21A1.7,1.7,0,0,1,31,23.86a2.06,2.06,0,0,0,.7-.74l-.59.16c-.13,0-.25-.13-.2-.24.19-.45.36-.89.53-1.34a.54.54,0,0,1-.21.05h-.1C31,21.68,31.05,21.53,31.07,21.46Zm.58-.2c.14,0,.24.13.2.24q-.24.67-.51,1.32l.53-.14c.12,0,.21.1.21.2a1.43,1.43,0,0,1-.63,1.05,2.35,2.35,0,0,0-.78.82h.45c.17,0,.19.23.1.33a21.31,21.31,0,0,0-1.54,1.76c-.23.3-.45.6-.66.91a2.16,2.16,0,0,0-.34.7,3.2,3.2,0,0,1,1.84.36.22.22,0,0,1,.1.27,6.79,6.79,0,0,1,1.92.82c.19.11,0,.37-.15.33a4.26,4.26,0,0,1-2.66,1.23,2.39,2.39,0,0,1,.13.21.19.19,0,0,1-.24.26A10.73,10.73,0,0,0,28,31.24a1,1,0,0,0-.44-.11c-.17,0-.24.22-.28.36a2.1,2.1,0,0,1-.27.68.19.19,0,0,1-.34-.08A1.51,1.51,0,0,0,24.85,31a6.22,6.22,0,0,1,.41,1.52c.09.48.17,1,.22,1.44a10,10,0,0,1,.08,1.45,4,4,0,0,1-.23,1.37.21.21,0,0,1-.4-.09c0-.23.11-.45.14-.68a5.4,5.4,0,0,0,.08-.69,8.54,8.54,0,0,0,0-1.34c0-.46-.1-.91-.17-1.36a5.78,5.78,0,0,0-.37-1.5,7.16,7.16,0,0,0-.93,2.27c0,.13-.2.21-.3.08a1.6,1.6,0,0,1-.21-.32l-1.23,2.05c-.1.16-.31,0-.31-.11V35a5,5,0,0,0-.37.42.16.16,0,0,1-.28,0v0a9.77,9.77,0,0,1-2.37,1.3.17.17,0,0,1-.23-.21,2.77,2.77,0,0,1,.57-1,.54.54,0,0,1-.07-.64c.19-.36.64-.41.9-.68-.51-.62.4-1.47.74-2,.09-.12.35-.6,0-.6s-.42.2-.58.3l-1.29.83c-.1.06-.26,0-.27-.1s0-.29,0-.43a5.91,5.91,0,0,1-2.17-.22c-.12,0-.14-.22-.05-.3-.33,0-.66,0-1-.05a.18.18,0,0,1-.15-.24.54.54,0,0,1,.16-.25l-.26-.1-.39-.18-.71-.31-1.5-.67a.17.17,0,0,1,0-.32L13,29.2l.35-.14s.36-.14.28-.19,0-.32.12-.32h.78a.93.93,0,0,0,.13-.57.19.19,0,0,1,.2-.21A4.16,4.16,0,0,1,16,28c.07,0,.23.11.3.09s.15-.14.19-.21l.39-.64a.18.18,0,0,1,.21-.07,9,9,0,0,0,1.83.57c.46.08,1.19.27,1.59-.07.59-.51-.39-1.18-.75-1.44-.55-.4-1.11-.77-1.7-1.12a.19.19,0,0,1,0-.31c-.49-.58-1.47-.64-1.74-1.44a.18.18,0,0,1,.22-.24c.22.06,1.58.38,1.58,0a1.31,1.31,0,0,0-.15-.37l-.16-.39-.31-.73c-.29-.72-.52-1.27-.36-1.4s.19,0,.48,0l.29.07h0c-.14-.46-.27-.92-.41-1.38,0-.11.09-.21.2-.2l.33,0a7.84,7.84,0,0,0,0-1.24c0-.65-.14-1.16,0-1.2s.17.14.2.18c.31.44.89,1.2,1.72,2.24a3.11,3.11,0,0,0,.29-.33.18.18,0,0,1,.31,0c.4.83.81,1.66,1.23,2.48l1.29-1.7a.18.18,0,0,1,.33.08l.09.63c.25.07.28.52.26.77-.05.55-.09,1.11-.14,1.67a.45.45,0,0,1,.41-.16.5.5,0,0,1,.35.51c0,.31,0,.64,0,.95a3.75,3.75,0,0,0,.12,1.06c.07.27.23.66.57.48a2.83,2.83,0,0,0,.75-.63A3.57,3.57,0,0,0,26.67,23c0-.16.28-.24.35,0a1.76,1.76,0,0,0,.24.42,27.58,27.58,0,0,1,2.23-2.48c.14-.13.36.05.3.21a2.17,2.17,0,0,0-.07.24c.61-.45,1.24-.88,1.89-1.27.14-.08.3.1.25.23l-.41,1Z"/><path class="cls-6" d="M19.4,47.51a3,3,0,0,1-.57-.56c-.8-1-.41-4-.16-7.17a2.59,2.59,0,0,1,.65-1.9c.54-.46,1.09-.25,1.62-.7a2.6,2.6,0,0,0,.64-2c0-11,3.09-16.34,3.09-16.34a12.58,12.58,0,0,1,11.8-6.45,12.73,12.73,0,0,1,2.55.45,10.76,10.76,0,0,1,3.92,2.38c2.3,2,4.06,3.52,5.16,6,1.85,4.16,1.81,11,2.3,13.59A1.83,1.83,0,0,0,51,36c.45.32.88.13,1.28.45a1.74,1.74,0,0,1,.5,1.3c.2,2.43.67,4.64.36,6.9a2.45,2.45,0,0,1-.33,1,2.86,2.86,0,0,1-1.13,1C46.62,49,37.29,49.34,37.29,49.34s-9.91.38-16.83-1.34A3.23,3.23,0,0,1,19.4,47.51Z"/><path class="cls-2" d="M19.54,47.26l-.13-.11c-.1-.1-.21-.2-.3-.31a1.4,1.4,0,0,1-.26-.48,4.74,4.74,0,0,1-.2-1.4,33.33,33.33,0,0,1,.2-3.87A20.21,20.21,0,0,1,19,39a1.77,1.77,0,0,1,.29-.74,1.48,1.48,0,0,1,.93-.5,2.15,2.15,0,0,0,1.61-2.26c.05-1.29,0-2.57.11-3.86s.2-2.49.37-3.72a36.69,36.69,0,0,1,1.16-5.39,15.58,15.58,0,0,1,2.39-5.12,12.32,12.32,0,0,1,12.46-4.5c2.23.5,3.94,2.05,5.6,3.53a14,14,0,0,1,4.19,5.62C49.58,26,49.45,30.27,50,34.36c.14,1,.41,2,1.52,2.14a.94.94,0,0,1,.78.43,2.12,2.12,0,0,1,.18.75c.06.71.14,1.42.22,2.13A22.6,22.6,0,0,1,53,44a3,3,0,0,1-.38,1.5,2.73,2.73,0,0,1-1.12.87,24.74,24.74,0,0,1-5.85,1.72c-1.86.35-3.75.6-5.64.77-1.64.15-3.27.22-4.91.23a68.49,68.49,0,0,1-12.72-1,6.78,6.78,0,0,1-2.79-.85c-.3-.22-.59.29-.29.51a7.22,7.22,0,0,0,2.92.9c1.19.23,2.39.39,3.59.53,2.28.26,4.58.39,6.87.44,1.92,0,3.84.06,5.75-.07a48,48,0,0,0,11.29-1.89,8.82,8.82,0,0,0,2.83-1.27,3.27,3.27,0,0,0,1-2.54,24.94,24.94,0,0,0-.26-4.4c-.08-.69-.12-1.39-.21-2.07a1.67,1.67,0,0,0-.71-1.27,2.57,2.57,0,0,0-.81-.22,1,1,0,0,1-.75-.74A5.49,5.49,0,0,1,50.57,34c-.11-.9-.18-1.81-.26-2.72a54.72,54.72,0,0,0-.9-6.87,13.63,13.63,0,0,0-2.84-6.18,25.77,25.77,0,0,0-2.75-2.68,17.64,17.64,0,0,0-3.18-2.39,11,11,0,0,0-6.15-1.09,12.87,12.87,0,0,0-10.94,8.52,38.46,38.46,0,0,0-2.18,11.49c0,.71-.06,1.43-.07,2.15,0,.53,0,1.07,0,1.59a1.46,1.46,0,0,1-1.05,1.36,2.07,2.07,0,0,0-1.45.88,3.62,3.62,0,0,0-.39,1.59L18.2,42a18.79,18.79,0,0,0-.08,3.75,2.83,2.83,0,0,0,1.13,2.06C19.55,48,19.84,47.49,19.54,47.26Z"/><g class="cls-7"><path class="cls-2" d="M19.7,37.61a1.45,1.45,0,0,0-.58.63c-.66,1.24-.37,2-.72,4.24a8.86,8.86,0,0,0-.13,2.28c0,.1,0,.21,0,.36A5.17,5.17,0,0,0,19,47.19a3,3,0,0,0,1.78,1,43.42,43.42,0,0,0,11,1.12h0c2.92.05,5.08,0,6.47-.06.77,0,1.43-.06,2.23-.13s1.78-.18,3.66-.5c2.11-.36,3.46-.69,4.77-1a6.25,6.25,0,0,0,3.71-1.88,2.77,2.77,0,0,0,.27-.39c.57-1,.38-1.71.26-3.81-.07-1.22-.25-2.43-.32-3.64a1.9,1.9,0,0,0-.34-1.16A2.32,2.32,0,0,0,50.84,36c-.72,0-1.16.25-2.4.9,0,0-1.25.65-2.3,1.16a22.48,22.48,0,0,1-3.89,1.42,30.06,30.06,0,0,1-3.71.82,32.09,32.09,0,0,1-6.39.28,19.61,19.61,0,0,1-4.65-.47,49.08,49.08,0,0,1-5.84-2.26A2.31,2.31,0,0,0,19.7,37.61Z"/></g><path class="cls-8" d="M33,14c-.11-.06-.13-.18-.24-.25a.41.41,0,0,0-.4,0,1,1,0,0,0-.17-.43,1,1,0,0,0-.62-.35c-.22,0-.27.1-.54,0s-.36-.31-.56-.38c-.36-.13-.69,0-1-.19-.56-.28-.59-.78-.83-1.34a10.57,10.57,0,0,1-1.17-2.94,6.77,6.77,0,0,1,.11-1.43c0-.17.28-.33.35-.56s0-.8.13-1,.39.14.68-.16.07-.67.34-.78.39.38.69.19.29-.64.39-.82c.45.46.44-.12.75-.3s.67-.13,1-.42c.15-.12.23-.37.39-.49s.28-.12.41-.2a2,2,0,0,1,1-.37,8.71,8.71,0,0,1,.86.17c.32.06.67.37,1,.4.67.08,1.23-1,1.6.13,1.24-.35,1.8,1,2.23,2A14.35,14.35,0,0,1,40.1,6c.18.62,0,1.33.57,1.68-.68.21-.27,1.4-.12,2-.09,0-.27.07-.41,0-.23.51,0,.92-.3,1.43-.12.18-.43.34-.58.51s-.09.44-.27.61-.43,0-.58.07-.27.53-.47.69c-.37.31-.63.09-1.06.15-.76.1-1,.75-2.13.78-.58,0-.92-.23-1.32,0C33.35,14,33.14,14.12,33,14Z"/><path class="cls-2" d="M33.18,13.82c-.13-.11-.2-.26-.37-.33a.66.66,0,0,0-.55,0l.35.2a1.19,1.19,0,0,0-1-1c-.2,0-.41.07-.59,0a1.86,1.86,0,0,0-.74-.38,1.78,1.78,0,0,1-.88-.2,1.37,1.37,0,0,1-.4-.69,17.17,17.17,0,0,0-.72-1.57,4.12,4.12,0,0,1-.51-2.93c.06-.22.24-.36.33-.57a1.53,1.53,0,0,0,.08-.64.73.73,0,0,1,0-.33c-.07.09.08.07.18.07A.68.68,0,0,0,29,5.13a4.19,4.19,0,0,0,.14-.61,1.29,1.29,0,0,1,.18.16.62.62,0,0,0,.3.09c.52,0,.59-.65.77-1l-.46.06c.21.2.48.36.75.18a1.68,1.68,0,0,0,.24-.29.69.69,0,0,1,.44-.26,1.58,1.58,0,0,0,.92-.52,1.1,1.1,0,0,1,.43-.4c.2-.08.37-.2.57-.28a1.72,1.72,0,0,1,1.14,0c.38.09.7.36,1.09.43a1.37,1.37,0,0,0,.83-.2c.09-.05.21-.16.32-.17s.19.14.24.29a.3.3,0,0,0,.36.21c1.2-.3,1.59,1.25,2,2.06.14.29.31.54.46.82a2.75,2.75,0,0,1,.27.94A1.72,1.72,0,0,0,40.52,8l.07-.53c-1,.37-.5,1.62-.32,2.35l.28-.37a1.94,1.94,0,0,1-.34,0,.3.3,0,0,0-.35.21c-.17.43,0,1-.31,1.4a6.26,6.26,0,0,0-.49.41c-.13.15-.11.33-.21.48V12h-.18a.76.76,0,0,0-.26,0,.68.68,0,0,0-.36.29,4,4,0,0,1-.24.46c-.17.19-.37.14-.58.12-.75-.06-1.17.42-1.83.66a2.56,2.56,0,0,1-1.29,0,1.4,1.4,0,0,0-.5,0c-.15,0-.4.22-.55.16-.35-.13-.5.43-.15.56a.73.73,0,0,0,.56,0,.89.89,0,0,1,.58-.09,3.1,3.1,0,0,0,1.42,0,5.46,5.46,0,0,0,1-.51,2.3,2.3,0,0,1,1.1-.14,1,1,0,0,0,.87-.66c.14-.28.14-.22.42-.23a.55.55,0,0,0,.46-.26c.13-.2.12-.43.3-.6a3.42,3.42,0,0,0,.49-.44c.3-.47.14-1,.33-1.5l-.36.2a2,2,0,0,0,.49,0,.3.3,0,0,0,.28-.37c-.08-.3-.52-1.46-.08-1.63a.3.3,0,0,0,.07-.53,1.1,1.1,0,0,1-.32-.83,3.45,3.45,0,0,0-.2-.9,5.81,5.81,0,0,0-.47-.89c-.16-.29-.27-.61-.41-.92-.43-1-1.14-2-2.36-1.67l.36.2c-.1-.3-.25-.64-.59-.72a1,1,0,0,0-.76.21,1.36,1.36,0,0,1-.39.17,1.12,1.12,0,0,1-.56-.2,3.39,3.39,0,0,0-1.07-.32,1.79,1.79,0,0,0-1.18.18,2.48,2.48,0,0,0-.93.58c-.16.19-.26.37-.5.46s-.38.09-.57.17a.89.89,0,0,0-.37.26.62.62,0,0,0-.14.19.35.35,0,0,0-.05.08c.12,0,.11,0,0-.11a.29.29,0,0,0-.45.06,6.25,6.25,0,0,0-.24.6.54.54,0,0,1-.07.13s.09,0,0-.06A1.88,1.88,0,0,0,29.31,4c-.47-.19-.72.26-.8.64,0,.14,0,.23-.18.24s-.19,0-.29,0a.5.5,0,0,0-.37.37,2.54,2.54,0,0,0-.06.67c0,.29-.21.42-.33.67a3.39,3.39,0,0,0-.16,1.27,3.68,3.68,0,0,0,.28,1.46c.23.58.54,1.13.8,1.7a5.56,5.56,0,0,0,.69,1.43,1.35,1.35,0,0,0,.79.41c.16,0,.33,0,.49.05a1,1,0,0,1,.48.25.89.89,0,0,0,.72.18.63.63,0,0,1,.69.55.27.27,0,0,0,.35.2c.2-.07.23,0,.36.17S33.47,14.06,33.18,13.82Z"/><path class="cls-2" d="M20.54,37.59a22.18,22.18,0,0,0,5.89,2.5,29.14,29.14,0,0,0,6.58.83A30.1,30.1,0,0,0,44.48,39a59.85,59.85,0,0,0,6.38-2.88c.33-.18,0-.68-.29-.51A42.77,42.77,0,0,1,40,39.73a28.4,28.4,0,0,1-5.81.63,31.09,31.09,0,0,1-6.67-.62,21.59,21.59,0,0,1-6.64-2.65.29.29,0,0,0-.3.5Z"/><path class="cls-2" d="M21.91,38.19a10.7,10.7,0,0,0-.71,5.07c.13,1.72.35,3.44.62,5.15,0,.27.46.15.42-.12-.27-1.67-.47-3.34-.61-5a10.59,10.59,0,0,1,.7-4.95c.1-.26-.32-.37-.42-.12Z"/><path class="cls-2" d="M25.67,39.62a17,17,0,0,0-.71,5A11.54,11.54,0,0,0,26,49.06c.11.26.49,0,.38-.22a11.05,11.05,0,0,1-1-4.34,16.67,16.67,0,0,1,.7-4.76c.07-.27-.35-.39-.42-.12Z"/><path class="cls-2" d="M29.38,40.68a17.64,17.64,0,0,0,.34,8.63.22.22,0,0,0,.42-.12,17.27,17.27,0,0,1-.34-8.39c.05-.28-.36-.39-.42-.12Z"/><path class="cls-2" d="M34.55,40.71a35,35,0,0,1,0,4.22c0,1.47-.19,2.93-.26,4.39,0,.28.42.28.43,0,.08-1.46.25-2.92.27-4.39a33,33,0,0,0,0-4.22c0-.28-.47-.28-.43,0Z"/><path class="cls-2" d="M39.14,40.35a20.83,20.83,0,0,1-.31,8.82c-.07.27.35.39.42.12a21.42,21.42,0,0,0,.31-9c-.05-.28-.47-.16-.42.11Z"/><path class="cls-2" d="M42.86,39.62a19.65,19.65,0,0,1,.22,8.83c-.06.27.36.39.42.11a20.1,20.1,0,0,0-.22-9.06c-.07-.27-.49-.15-.42.12Z"/><path class="cls-2" d="M46.88,38a15.4,15.4,0,0,1,.64,9.76.22.22,0,0,0,.42.11,15.77,15.77,0,0,0-.64-10c-.11-.25-.53-.14-.42.12Z"/><path class="cls-2" d="M49.69,36.68a14.4,14.4,0,0,1,1.27,10c-.06.28.36.39.42.12a14.89,14.89,0,0,0-1.31-10.34c-.13-.25-.5,0-.38.22Z"/><path class="cls-2" d="M28.62,6.75a1.71,1.71,0,0,0,.11-.63s0-.15.09-.17,0,0,.05,0L29,6a.43.43,0,0,0,.4-.24l.09-.18,0,0s0,0,0,0h0a.5.5,0,0,0,.32,0,1,1,0,0,0,.29-.15c.17-.13.34-.28.5-.42a3.89,3.89,0,0,0,.85-1,.22.22,0,0,0-.37-.22,3.87,3.87,0,0,1-.84,1L30,4.94a1.2,1.2,0,0,1-.26.18c-.09,0-.19,0-.29,0a.33.33,0,0,0-.23.1,1.06,1.06,0,0,0-.22.33l0,0s.08,0,0,0a.48.48,0,0,0-.29,0,.59.59,0,0,0-.37.4c-.06.19,0,.42-.09.6a.22.22,0,0,0,.38.22Z"/><path class="cls-2" d="M39,6.67a2.78,2.78,0,0,1,.29.94l.37-.16a.46.46,0,0,0-.71.16.55.55,0,0,0,0,.47.72.72,0,0,0,.14.24s.14.14.15.2-.07.06-.11.11a.39.39,0,0,0-.12.19.67.67,0,0,0,0,.46c.07.15.21.3.2.47a.38.38,0,0,1-.25.33c-.25.11,0,.49.22.37a.76.76,0,0,0,.46-.63.75.75,0,0,0-.07-.41c0-.12-.18-.25-.18-.39s.14-.15.2-.24a.44.44,0,0,0,0-.4A3,3,0,0,0,39.44,8a.34.34,0,0,1-.07-.19c0-.07.08,0,0-.06.13.1.4.06.38-.15a3.62,3.62,0,0,0-.35-1.16c-.13-.25-.5,0-.38.22Z"/><path class="cls-2" d="M32.21,13.22a3.28,3.28,0,0,0-1,1,13.78,13.78,0,0,0-.92,1.46,15.19,15.19,0,0,0-.78,1.81,5.78,5.78,0,0,0-.29.89,2.84,2.84,0,0,1-.21.87c-.12.25.25.47.38.22A14,14,0,0,0,29.8,18a16.42,16.42,0,0,1,.77-1.9,15.6,15.6,0,0,1,.86-1.41,3.47,3.47,0,0,1,1-1.12.22.22,0,0,0-.22-.38Z"/><path class="cls-2" d="M33.86,14.1a6,6,0,0,1,.53,3c0,1-.16,2.06-.24,3.09,0,.28.41.27.43,0,.09-1.09.24-2.18.25-3.28a6.13,6.13,0,0,0-.6-3.07c-.13-.24-.51,0-.37.22Z"/><path class="cls-2" d="M36.56,13.29A7.45,7.45,0,0,1,39.14,16a15.77,15.77,0,0,1,1.54,3.49c.08.27.5.15.42-.11-.74-2.41-2-5.15-4.32-6.44a.22.22,0,0,0-.22.38Z"/><path class="cls-9" d="M32,43.74c-.73-.09-1.12-.16-1.38.09a1.5,1.5,0,0,0-.28,1,3.77,3.77,0,0,0,.07.76,4.81,4.81,0,0,0,.21.87c.34.68,2.51.29,3.31.17,4.39-.67,7.49.51,7.93-.61a2.94,2.94,0,0,0,.08-1,1.81,1.81,0,0,0-.3-1.31,1.29,1.29,0,0,0-.45-.28,4,4,0,0,0-2.31.12,20.51,20.51,0,0,1-2.18.28,13.24,13.24,0,0,1-2.71.11C32.73,43.83,32,43.74,32,43.74Z"/><path class="cls-2" d="M32,43.45a2.18,2.18,0,0,0-1.45.07c-.45.28-.49.9-.5,1.38a5.4,5.4,0,0,0,.22,1.44.94.94,0,0,0,.64.68,5.68,5.68,0,0,0,2.56,0,23.66,23.66,0,0,1,3.66-.29c1,0,2.06.1,3.09.12a2.39,2.39,0,0,0,1.7-.38,1.38,1.38,0,0,0,.31-1A3.24,3.24,0,0,0,42,43.74c-.65-1.13-2.29-.66-3.29-.46-.54.11-1.09.16-1.64.22s-1.39.16-2.09.18a20.1,20.1,0,0,1-3-.23c-.37-.05-.37.53,0,.58.72.09,1.45.17,2.18.22a18.63,18.63,0,0,0,3-.18l1.32-.15c.49-.08,1-.22,1.46-.3s1.29-.08,1.58.42a3.12,3.12,0,0,1,.13,1.49c0,.25,0,.47-.27.58a1.6,1.6,0,0,1-.65.12,22.1,22.1,0,0,1-2.3-.08,26.45,26.45,0,0,0-3.21,0c-.89.07-1.76.25-2.64.33a4.5,4.5,0,0,1-1.27,0c-.41-.07-.47-.23-.55-.63a3.44,3.44,0,0,1-.08-1.53c.14-.63.84-.39,1.32-.33S32.32,43.49,32,43.45Z"/><path class="cls-2" d="M31.22,44.49c0,.44-.2,1,.07,1.44a.49.49,0,0,0,.58.18c.22-.1.29-.33.44-.49s-.07-.06,0,0a1.43,1.43,0,0,1,.21.12,1.9,1.9,0,0,0,.43.21.47.47,0,0,0,.31,0c.09,0,.18-.21.23-.23s.28.09.37.09a5.63,5.63,0,0,0,.59,0,1.94,1.94,0,0,0,.94-.41l-.26,0a1,1,0,0,0,.77.22,4.78,4.78,0,0,1,.53-.06c.18,0,.32.14.5.16a3.34,3.34,0,0,0,1-.13c.37-.07.67-.4,1-.41l-.22-.22c-.08.78.94.72,1.45.65.27,0,.27-.47,0-.44s-1.06.19-1-.21a.21.21,0,0,0-.22-.21,1.44,1.44,0,0,0-.75.26,3,3,0,0,1-1,.26.79.79,0,0,1-.5-.08.82.82,0,0,0-.38-.06c-.25,0-.73.17-.93,0a.23.23,0,0,0-.27,0,1.69,1.69,0,0,1-.89.37,1.4,1.4,0,0,1-.5,0,1.32,1.32,0,0,0-.3-.08c-.22,0-.25.23-.41.26s-.5-.3-.67-.36a.37.37,0,0,0-.38.1c-.08.07-.29.45-.37.45s-.05-1.07,0-1.21-.43-.28-.44,0Z"/><g class="cls-10"><path class="cls-2" d="M40.05,23.27l2.16,3.87a22.29,22.29,0,0,1,4.18-2l-1.61-3.55a.24.24,0,0,0-.11-.16.3.3,0,0,0-.24,0C44.23,21.47,42.46,22.22,40.05,23.27Z"/></g><path class="cls-2" d="M39.8,23.41,42,27.28a.28.28,0,0,0,.39.11,23.25,23.25,0,0,1,4.12-2,.3.3,0,0,0,.17-.43l-1.4-3.09c-.16-.35-.28-.82-.75-.79a1.66,1.66,0,0,0-.38.11c-1.42.56-2.81,1.19-4.21,1.8-.34.14,0,.65.3.5,1.3-.57,2.61-1.15,3.93-1.68a1.4,1.4,0,0,1,.34-.13l0,0s0,0,0,0l.06.15c.11.23.21.46.31.68l1.25,2.76.17-.43a24,24,0,0,0-4.25,2l.4.1L40.3,23.12C40.12,22.79,39.62,23.09,39.8,23.41Z"/><path class="cls-2" d="M40.62,21.68a5.45,5.45,0,0,1,1.07,1.65.22.22,0,0,0,.27.15.2.2,0,0,0,.15-.26,6.41,6.41,0,0,0-1.18-1.85c-.19-.2-.5.11-.31.31Z"/><path class="cls-2" d="M42.29,21.34a6.06,6.06,0,0,1,.57,1.4.21.21,0,0,0,.27.15.22.22,0,0,0,.15-.26,6.24,6.24,0,0,0-.62-1.51.23.23,0,0,0-.3-.08.22.22,0,0,0-.07.3Z"/><path class="cls-2" d="M43.55,25.05l.86,1.75a.21.21,0,0,0,.3.08.22.22,0,0,0,.07-.3l-.86-1.75a.21.21,0,0,0-.29-.08.22.22,0,0,0-.08.3Z"/><path class="cls-2" d="M44.8,23.43a9.37,9.37,0,0,1,2.1-1.05.22.22,0,0,0,.15-.27.22.22,0,0,0-.26-.15,9.67,9.67,0,0,0-2.21,1.09c-.23.15,0,.53.22.38Z"/><path class="cls-2" d="M40.63,25.87a3.7,3.7,0,0,1,1.51-.57c.11,0,.18-.16.15-.27a.23.23,0,0,0-.27-.15,4,4,0,0,0-1.61.61.23.23,0,0,0-.08.3.22.22,0,0,0,.3.08Z"/><path class="cls-2" d="M40,25a4,4,0,0,1,1.45-.26.22.22,0,0,0,.21-.22.21.21,0,0,0-.21-.22,4.35,4.35,0,0,0-1.56.28A.22.22,0,1,0,40,25Z"/></g></g></g></svg>