<svg id="LEVELS" xmlns="http://www.w3.org/2000/svg" width="70" height="70" viewBox="0 0 70 70"><defs><style>.cls-1{fill:#8382be;}.cls-2{fill:#6b6db2;}.cls-3{fill:#9a9bcd;}.cls-4{fill:#f6c899;}.cls-5{fill:#333;}.cls-6{fill:#fee07b;stroke:#333;stroke-miterlimit:10;stroke-width:0.75px;}</style></defs><g id="ICECREAM_copy" data-name="ICECREAM copy"><path class="cls-1" d="M24.69,29.15c-2.39,5,.87,5.06,1.53,9.33a1.74,1.74,0,0,0,1,1.67.92.92,0,0,0,1.22-1.21c-.46-1.84,0-4.06,1.43-6.68a7.3,7.3,0,0,0-.28-3.39c-2-7.23,3.76-.34,6.18-6.46,1.73-4.32-1.15-9.46-6.09-9.3-3,0-6.07,1.89-6.57,4.93-.42,1.66.13,3.75,1.68,6.39,1,1.73.84,2.36-.08,4.72Zm0,0"/><path class="cls-2" d="M40.35,13A8.76,8.76,0,0,0,35,15.17a.45.45,0,0,0-.08.61,7,7,0,0,1-.27,8.31c-.57,1,2.2,1.83,3,1.73,1.1.11,2.72-.66,3.48.27a2.58,2.58,0,0,1,.24,2.44c-.5,1.22-.13,3.87,1.78,3.74,1.49,0,1.44-1.93,1.51-3.31a11.79,11.79,0,0,1,1.1-3.2C49,20.67,45.36,12.68,40.35,13Zm0,0"/><path class="cls-3" d="M27.37,13.45a.43.43,0,0,0,.38.07,8.51,8.51,0,0,1,2.07-.26,5.81,5.81,0,0,1,4.62,1.93.45.45,0,0,0,.6.08c.73-.54,3.28-2.28,5.65-2.28.49-.07,1.25.39,1.41-.29a10.13,10.13,0,0,0-2-7.49c-2.43-3-7.94-2.59-10.34.06a10.5,10.5,0,0,0-2.36,8.18Zm0,0"/><path class="cls-4" d="M42.74,32.88a.42.42,0,0,0-.21-.08.45.45,0,0,0-.08-.76c-2.67-1.53.33-4.92-1.2-5.37.61-1.72-2.64-.92-3.53-1a4.12,4.12,0,0,1-3-1.11.44.44,0,0,0-.57,0c-.41.47-1.34.41-1.6.92a.45.45,0,0,0-.5-.17c-3.48-.32-3.13.6-2.55,3.55a10.92,10.92,0,0,1,.35,2.76.42.42,0,0,0,.26.46c-.59.22-1,1.43-1.26,2.06-.1.22.2.71.26.91-1.12-.58-1.23,4.06-.45,4.57a.45.45,0,0,0-.19.53c.15.09,2.28,6.81,2.67,6.41A.45.45,0,0,0,31,47L35.1,57.86a.45.45,0,0,0,.84,0l1-3.63c.09-.21-.23-.73-.28-.92a.45.45,0,0,0,.62-.28l2.55-9a.44.44,0,0,0-.39-.56c.65-.45.83-.64.41-1.37a.45.45,0,0,0,.61-.28c-.09-.2,2.94-9,2.24-8.95ZM37.17,36.3l-.11,0a.4.4,0,0,0,.09-.27.39.39,0,0,0,.21.06.47.47,0,0,0-.09.28l-.1-.05Zm-2.36-6a.41.41,0,0,0-.09.23.5.5,0,0,0-.23-.09.46.46,0,0,0,.09-.23.43.43,0,0,0,.23.09Zm-4.2,8.74a.4.4,0,0,0,.09-.2A.47.47,0,0,0,31,39a.4.4,0,0,0-.09.2.47.47,0,0,0-.25-.11ZM33.44,46a.5.5,0,0,0,.1-.19.44.44,0,0,0,.29.14.44.44,0,0,0-.1.19.44.44,0,0,0-.29-.14Zm0,0"/><path class="cls-5" d="M47.39,21.56a11.52,11.52,0,0,0-1.22-5.07,7.76,7.76,0,0,0-3.75-3.61c.11-1.15.31-5.21-2-7.82A6.89,6.89,0,0,0,35,2.84,7.24,7.24,0,0,0,29.49,5c-2.56,2.73-2.65,7.08-2.63,8.27a6,6,0,0,0-4.09,4.63c-.6,2.33.59,5,1.7,6.63,1.77,2.52-1.62,6.11-1,8.54.56,1.92,2.26,3.21,2.4,5.4.22,1.82,1.26,2.32,2.31,1.89l7,18.68a.39.39,0,0,0,.73,0l7.55-26.49c1.72-.4,1.39-2.45,1.52-3.62.22-2,2.47-5.29,2.38-7.38Zm-17.34-16a6.5,6.5,0,0,1,4.95-2c5.58-.35,7.12,5.69,6.66,9-2.72-.57-5.9,1.55-6.88,2.27-1.67-2-4.65-2.46-7.14-1.81,0-1.33.2-5.18,2.41-7.53ZM27.36,39.74c-.19-.07-.63-.34-.7-1.29a7.18,7.18,0,0,0-1.45-3.63c-1.36-2-1.1-3.06-.11-5.5s1.17-3.2,0-5.11c-.92-1.57-2.16-4-1.63-6.08.89-5,8.26-6.12,11-2.27a6.75,6.75,0,0,1,.79,6.39c-1.5,3.74-4,2-6.11,2.82-1.47.57.76,5.59.21,7-1,1.87-2.06,4.51-1.44,7,.18.49-.18.84-.64.67ZM41.07,28.5c-.57,1.31-.17,3.31,1.2,3.94a40.16,40.16,0,0,1-4.88,3.2l-2.23-5.06a36.65,36.65,0,0,0,6.06-3.47,2.42,2.42,0,0,1-.15,1.39ZM36.89,52.88l-2.73-6.65a18.17,18.17,0,0,0,5.29-2.31Zm-3-7.38-2.57-6.26A41.67,41.67,0,0,0,37,36.72l2.66,6a15.24,15.24,0,0,1-5.83,2.76Zm-2.86-7-1.75-4.26a12.81,12.81,0,0,1,.86-1.74,42.41,42.41,0,0,0,4.34-1.64L36.71,36A40.85,40.85,0,0,1,31,38.53Zm-2.42-.66a7,7,0,0,1,.32-2.43l1.37,3.33-1.4.46a3.9,3.9,0,0,1-.29-1.36Zm3.58-12.15,2,4.47c-1.71.75-3.13,1.24-3.87,1.48.16-1.25-.69-3.85-.73-5.34.17-1.19,1.82-.35,2.62-.61Zm2.68,4.15L33,25.59a3.74,3.74,0,0,0,1.44-.69c2.58,2.47,5.93.29,6.55,1.46a35.14,35.14,0,0,1-6.1,3.51Zm-4.28,9.62,2.55,6.21c-.86.21-1.56.35-1.94.42L28.87,40c.36-.09.94-.25,1.69-.49Zm5,18.22L31.44,46.85c.44-.08,1.13-.21,2-.42l3.14,7.65Zm4.56-16-2.37-5.37a42.65,42.65,0,0,0,4.78-3.1Zm4.16-12.77c-.07,1.43,0,2.89-1.09,2.89A1.2,1.2,0,0,1,42,31.28c-1.29-1.82.91-3.6-.54-5.46-1.19-1.66-4.1.8-6.53-1.44a7.49,7.49,0,0,0,.29-8.86c5.68-4.62,10.92-1.25,11.36,6,.1,2-2.29,5.52-2.38,7.38Zm0,0"/><path class="cls-6" d="M29.84,11.86,28.08,12c-1.63-1.92-1.41-2-1.92.49-2.34,1-2.31.73-.13,2,.19,2.52,0,2.43,1.84.74,2.46.6,2.3.77,1.27-1.53l.91-1.48a.25.25,0,0,0-.21-.38Zm0,0"/><path class="cls-6" d="M44.69,17.28l-1.52-.62c-.49-2.29-.29-2.22-1.78-.44-2.33-.24-2.21-.41-1,1.56-.94,2.14-1.07,2,1.19,1.41,1.74,1.56,1.54,1.63,1.7-.69l1.4-.82a.23.23,0,0,0,0-.4Zm0,0"/><path class="cls-6" d="M38.77,6.57l-1.63-.12c-1.18-2-1-2-1.84.13-2.28.5-2.22.3-.44,1.79-.23,2.33-.4,2.21,1.57,1,2.14.94,2,1.07,1.4-1.19L38.9,6.94a.22.22,0,0,0-.13-.37Zm0,0"/></g></svg>