<svg id="LEVELS" xmlns="http://www.w3.org/2000/svg" width="70" height="70" viewBox="0 0 70 70"><defs><style>.cls-1{fill:#d7deeb;}.cls-2{fill:#5f6ab1;}.cls-3{fill:#fff;}.cls-4{fill:#333;}.cls-5{fill:#eb6a66;}.cls-6{fill:#cadf81;}</style></defs><g id="Layer_169" data-name="Layer 169"><path class="cls-1" d="M20.39,41.15l.17-.37-9.95-3.84L9.15,40.57A2.16,2.16,0,0,0,9,42.2a1.62,1.62,0,0,0,.77.71c.19.09.38.16.56.23l8,3,.15-.34c.65-1.46,1.32-3,2-4.61Zm0,0"/><path class="cls-1" d="M28.12,21.67c.12-.32.24-.65.35-1,.06-.15.14-.33.21-.48.3-.68.67-1.53.19-2.06a2.66,2.66,0,0,0-.74-.53,11.57,11.57,0,0,0-1.7-.61h0c-.35-.11-.68-.21-.94-.31l-4-1.59a2,2,0,0,0-1.8-.09,1.88,1.88,0,0,0-.57.89l-1,2.56L28,22Zm0,0"/><path class="cls-2" d="M21.38,38.84l.15-.37-9.92-4-.94,2.35,9.94,3.84.15-.35.62-1.46Zm0,0"/><path class="cls-2" d="M27.29,23.91l.14-.37c.12-.33.25-.66.37-1l.14-.37L18,18.61l-.72,1.79,9.65,3.39Zm0,0"/><path class="cls-2" d="M21.88,26.32a1.87,1.87,0,0,0-.77-.8,1.26,1.26,0,0,0-.57-.14C19.31,25.38,18,27,17.38,28a6.85,6.85,0,0,0-.9,3.78,3.8,3.8,0,0,0,.41,1.61,2.16,2.16,0,0,0,.91.89,1.56,1.56,0,0,0,.41.15c1.28.25,2.29-1.06,2.57-1.47a9.77,9.77,0,0,0,1.34-3.14,5.15,5.15,0,0,0-.24-3.5Zm0,0"/><path class="cls-2" d="M25,9.93a5.94,5.94,0,0,0-1.32-.33h-.07l-.27,0-2.55,5.15.42.15.31.11h0L24,16l1.52.6c.27.1.6.2.94.31h0a12.56,12.56,0,0,1,1.6.57l.37.17,1.92-4.5a.86.86,0,0,0,.11-.53l0-.1-.07-.07a.4.4,0,0,0-.16-.12,1.86,1.86,0,0,0-.34-.13h0l-.36-.13a.54.54,0,0,1-.31-.34.83.83,0,0,1,0-.47h0a15.73,15.73,0,0,0,.66-4.3.87.87,0,0,0-.07-.37l0,0v0a.59.59,0,0,0-.19-.15l-.26-.1c-.66-.21-1.33-.41-2-.59L27,5.59l-.13.31c-.55,1.35-1.16,2.7-1.82,4a.06.06,0,0,1-.09,0Zm0,0"/><path class="cls-3" d="M24.3,31.7c.94-2.38,1.89-4.84,2.82-7.32l.11-.3.15-.4-10-3.52L11.52,34.7l9.91,4,.15-.36c1-2.27,1.87-4.51,2.72-6.65Zm-3.73,1.12c-.69,1-1.55,1.51-2.31,1.35a1.12,1.12,0,0,1-.35-.12,1.85,1.85,0,0,1-.79-.78,3.47,3.47,0,0,1-.38-1.5,6.58,6.58,0,0,1,.86-3.64c.57-1,1.89-2.5,2.93-2.49a1,1,0,0,1,.46.1,1.72,1.72,0,0,1,.67.71c1,1.8-.07,4.87-1.09,6.37Zm0,0"/><path class="cls-4" d="M27.62,24.57c.46-1.23.91-2.47,1.36-3.69a3.72,3.72,0,0,1,.19-.45c.34-.78.81-1.84.1-2.63a2.09,2.09,0,0,0-.22-.2l1.82-4.26a1.28,1.28,0,0,0,.09-1,1.25,1.25,0,0,0-.93-.66,1.34,1.34,0,0,1-.31-.12,1.13,1.13,0,0,1,0-.18,16.28,16.28,0,0,0,.68-4.46,1.25,1.25,0,0,0-.16-.66,1.36,1.36,0,0,0-.75-.5c-.8-.26-1.62-.49-2.44-.7a.47.47,0,0,0-.54.28C26,6.67,25.41,8,24.77,9.3a6.47,6.47,0,0,0-1.06-.23,1,1,0,0,0-.63.09,1,1,0,0,0-.39.47l-2.32,4.68a1.6,1.6,0,0,0-1,.28,2.39,2.39,0,0,0-.75,1.13L8.66,40.37a2.65,2.65,0,0,0-.2,2.05,2.14,2.14,0,0,0,1,1,4.65,4.65,0,0,0,.61.25l8,3a.47.47,0,0,0,.58-.25c2.12-4.77,4.17-9.64,6.09-14.48,1-2.42,1.91-4.89,2.83-7.33Zm-3.69,7c-.88,2.22-1.79,4.44-2.71,6.65L12,34.48,17.6,20.66l9.27,3.25-.12.33c-.91,2.44-1.86,4.9-2.82,7.31Zm-3.53,8.6-9.22-3.56L11.83,35,21,38.69c-.2.48-.41,1-.61,1.46Zm-2.17-21,9.2,3.29-.37,1L17.8,20.16ZM23.52,10l0,0h.05a5.93,5.93,0,0,1,1.24.31.46.46,0,0,0,.57-.22c.67-1.31,1.28-2.67,1.84-4,.66.18,1.33.37,2,.59a.52.52,0,0,1,.25.11s0,.09,0,.19a15.6,15.6,0,0,1-.66,4.21,1.26,1.26,0,0,0,0,.68,1.2,1.2,0,0,0,.94.72,2.77,2.77,0,0,1,.34.13A.87.87,0,0,1,30,13L28.25,17.1a13.63,13.63,0,0,0-1.66-.59c-.34-.1-.66-.2-.92-.3l-1.34-.53-2.68-1.06-.34-.12Zm-3.63,5.31c.33-.24.91-.07,1.42.14h0l2.68,1,1.34.53c.29.11.63.22,1,.33A10.88,10.88,0,0,1,28,18a2.24,2.24,0,0,1,.63.43c.31.35,0,1.06-.26,1.64-.08.18-.16.35-.22.51-.11.32-.23.64-.35,1l-9.18-3.28.89-2.19a1.54,1.54,0,0,1,.43-.71ZM10.42,42.77A1.88,1.88,0,0,1,9.31,42a1.86,1.86,0,0,1,.21-1.32l1.31-3.27L20,41c-.66,1.54-1.32,3.08-2,4.6Zm0,0"/><path class="cls-4" d="M22,26.26a1.69,1.69,0,0,0-1.46-1c-1.29,0-2.7,1.65-3.28,2.69a7,7,0,0,0-.92,3.86,4.09,4.09,0,0,0,.43,1.67,2.34,2.34,0,0,0,1,.94,2,2,0,0,0,.45.16A2.81,2.81,0,0,0,20.89,33C22,31.41,23.08,28.23,22,26.26Zm-1.55,6.48c-.24.36-1.12,1.51-2.16,1.3a1.62,1.62,0,0,1-1.05-.84,3.34,3.34,0,0,1-.37-1.44,6.55,6.55,0,0,1,.85-3.57c.55-1,1.82-2.42,2.81-2.42a.88.88,0,0,1,.4.1,1.49,1.49,0,0,1,.61.65c1,1.75-.08,4.75-1.09,6.22Zm0,0"/><path class="cls-1" d="M39.65,40.26l.08-.4L29.22,38.12,28.52,42a2.15,2.15,0,0,0,.13,1.65,1.61,1.61,0,0,0,.9.53l.59.12,8.4,1.29.08-.37c.33-1.56.68-3.22,1-4.92Zm0,0"/><path class="cls-1" d="M43.27,19.62l.15-1c0-.16.07-.35.1-.52.16-.72.35-1.63-.23-2a2.38,2.38,0,0,0-.83-.36,11.24,11.24,0,0,0-1.78-.26h0c-.36,0-.7-.07-1-.12l-4.26-.74a2,2,0,0,0-1.78.28,1.86,1.86,0,0,0-.38,1l-.49,2.73L43.21,20Zm0,0"/><path class="cls-5" d="M40.14,37.8l.08-.39L29.69,35.49,29.24,38l10.52,1.75.07-.38c.11-.51.21-1,.31-1.55Zm0,0"/><path class="cls-5" d="M42.91,22l.06-.39c.06-.35.11-.7.16-1.05l.06-.4L32.74,18.67l-.34,1.9,10.13,1.37Zm0,0"/><path class="cls-5" d="M38.1,25.44a1.78,1.78,0,0,0-.92-.63,1.18,1.18,0,0,0-.59,0C35.39,25,34.38,26.88,34,28a6.89,6.89,0,0,0-.11,3.89,3.65,3.65,0,0,0,.73,1.49,2.2,2.2,0,0,0,1.06.69,1.67,1.67,0,0,0,.44.06c1.3,0,2-1.5,2.22-1.95A10.09,10.09,0,0,0,39,28.82a5.13,5.13,0,0,0-.94-3.38Zm0,0"/><path class="cls-5" d="M37.81,8.76a5.64,5.64,0,0,0-1.36,0h-.07l-.27,0-1.46,5.56.45,0,.33.05h0l2.64.46,1.61.27c.29,0,.63.09,1,.12h0a12.45,12.45,0,0,1,1.67.23l.4.1,1-4.8a.79.79,0,0,0,0-.54l0-.09-.08-.06a.44.44,0,0,0-.18-.09l-.36,0h0l-.38-.06a.55.55,0,0,1-.37-.26.79.79,0,0,1-.07-.47h0A15.86,15.86,0,0,0,42,4.82a.76.76,0,0,0-.15-.35v0l0,0a.49.49,0,0,0-.21-.1,1.46,1.46,0,0,0-.27,0c-.69-.08-1.39-.13-2.09-.17l-.34,0-.06.34c-.27,1.43-.6,2.87-1,4.28a.06.06,0,0,1-.08,0Zm0,0"/><path class="cls-3" d="M41.55,30.22c.45-2.53.88-5.13,1.29-7.75,0-.1,0-.21,0-.31l.06-.43-10.5-1.42-2.8,15.43,10.52,1.92.07-.38c.47-2.42.91-4.8,1.31-7.06Zm-3.42,1.85c-.47,1.12-1.21,1.79-2,1.79a1.58,1.58,0,0,1-.38,0,1.89,1.89,0,0,1-.93-.61,3.47,3.47,0,0,1-.67-1.39,6.55,6.55,0,0,1,.11-3.74c.34-1.1,1.34-2.82,2.36-3a1.11,1.11,0,0,1,.48,0,1.68,1.68,0,0,1,.79.56c1.33,1.56.92,4.78.22,6.46Zm0,0"/><path class="cls-4" d="M43.36,22.56c.21-1.29.4-2.6.59-3.88,0-.14.06-.31.09-.48.18-.83.43-2-.43-2.6l-.25-.16.92-4.54a1.28,1.28,0,0,0-.12-1,1.28,1.28,0,0,0-1-.46,1.39,1.39,0,0,1-.34-.06V9.2a16.23,16.23,0,0,0-.23-4.5,1.29,1.29,0,0,0-.3-.62,1.27,1.27,0,0,0-.83-.33c-.84-.09-1.69-.16-2.53-.19a.47.47,0,0,0-.48.38c-.25,1.42-.56,2.84-.93,4.24a6.49,6.49,0,0,0-1.08,0,1,1,0,0,0-.6.21,1,1,0,0,0-.28.53L34.19,14a1.65,1.65,0,0,0-.95.49,2.37,2.37,0,0,0-.5,1.25L28,41.87a2.67,2.67,0,0,0,.23,2.05,2.11,2.11,0,0,0,1.2.74,5,5,0,0,0,.64.12l8.46,1.3a.47.47,0,0,0,.53-.36c1.1-5.09,2.12-10.28,3-15.41.45-2.57.88-5.17,1.28-7.75Zm-2.19,7.59c-.42,2.34-.86,4.7-1.32,7.05L30.1,35.43l2.67-14.68,9.73,1.32,0,.35c-.4,2.57-.83,5.17-1.28,7.73Zm-1.72,9.13L29.7,37.66,30,36l9.74,1.77-.3,1.56ZM33.06,19.12l9.68,1.36c-.05.35-.1.71-.16,1.07l-9.72-1.32Zm3.35-10,0-.06h0a5.41,5.41,0,0,1,1.27.05.46.46,0,0,0,.52-.34c.39-1.41.72-2.86,1-4.31.69,0,1.38.09,2.07.17a.89.89,0,0,1,.27.06,1.45,1.45,0,0,1,.06.19,15.45,15.45,0,0,1,.2,4.25,1.28,1.28,0,0,0,.13.67,1.19,1.19,0,0,0,1.06.52,1.32,1.32,0,0,1,.36.06.76.76,0,0,1,0,.3l-.89,4.4a12.92,12.92,0,0,0-1.75-.24l-1-.11-1.42-.25L35.51,14,35.15,14Zm-2.48,5.93c.28-.3.88-.24,1.42-.15h0l2.84.49,1.42.25c.3.05.66.09,1,.12a10.64,10.64,0,0,1,1.72.25,2.05,2.05,0,0,1,.7.3c.37.27.21,1,.08,1.65,0,.19-.08.37-.11.54l-.15,1L33.23,18.2l.42-2.32a1.56,1.56,0,0,1,.28-.79ZM30.21,43.87a1.89,1.89,0,0,1-1.24-.5A1.84,1.84,0,0,1,28.9,42l.63-3.47,9.73,1.62c-.33,1.64-.68,3.28-1,4.91Zm0,0"/><path class="cls-4" d="M38.21,25.35a1.68,1.68,0,0,0-1.64-.7c-1.27.26-2.31,2.16-2.67,3.3a7,7,0,0,0-.11,4,3.76,3.76,0,0,0,.75,1.54,2.3,2.3,0,0,0,1.13.73,2,2,0,0,0,.48.06c.94,0,1.81-.76,2.34-2,.76-1.82,1.17-5.16-.28-6.87ZM38,32c-.16.4-.79,1.71-1.85,1.71a1.65,1.65,0,0,1-1.21-.6,3.49,3.49,0,0,1-.64-1.34,6.48,6.48,0,0,1,.11-3.67c.33-1.07,1.29-2.74,2.26-2.94a1.13,1.13,0,0,1,.41,0,1.51,1.51,0,0,1,.72.52c1.3,1.52.89,4.67.2,6.31Zm0,0"/><path class="cls-1" d="M56.25,41.05l.06-.41-10.61-1-.42,3.88a2.13,2.13,0,0,0,.25,1.63,1.57,1.57,0,0,0,.93.47,4.25,4.25,0,0,0,.6.07l8.47.68,0-.36c.23-1.59.45-3.27.67-5Zm0,0"/><path class="cls-1" d="M58.38,20.19c0-.34.06-.68.08-1,0-.17,0-.36.06-.53.11-.73.24-1.65-.37-2a2.69,2.69,0,0,0-.86-.3,11,11,0,0,0-1.79-.13h0c-.36,0-.7,0-1,0l-4.3-.43a2,2,0,0,0-1.76.4,1.8,1.8,0,0,0-.3,1l-.3,2.75,10.53.71Zm0,0"/><path class="cls-6" d="M56.57,38.55l0-.39L46,37l-.27,2.52,10.61,1,0-.38c.07-.52.13-1,.2-1.57Zm0,0"/><path class="cls-6" d="M58.2,22.57l0-.38c0-.36.06-.72.08-1.07l0-.4L47.82,20l-.21,1.91,10.2.64Zm0,0"/><path class="cls-6" d="M53.65,26.37a1.94,1.94,0,0,0-1-.57,1.42,1.42,0,0,0-.58,0c-1.19.33-2.06,2.25-2.33,3.38a6.84,6.84,0,0,0,.17,3.89,3.63,3.63,0,0,0,.83,1.43,2.19,2.19,0,0,0,1.11.61,1.66,1.66,0,0,0,.44,0c1.3-.1,1.92-1.64,2.07-2.11a9.84,9.84,0,0,0,.44-3.39,5.15,5.15,0,0,0-1.18-3.3Zm0,0"/><path class="cls-6" d="M52.16,9.76a5.6,5.6,0,0,0-1.36,0h-.07l-.27,0-1.05,5.65.45,0,.33,0h0l2.67.26,1.63.17c.28,0,.63,0,1,0h0a11.47,11.47,0,0,1,1.68.11l.41.07.62-4.86a.79.79,0,0,0,0-.54l0-.09-.09-.05a.36.36,0,0,0-.19-.07,1.79,1.79,0,0,0-.36,0h0a1.67,1.67,0,0,1-.38,0,.53.53,0,0,1-.39-.23.87.87,0,0,1-.11-.46v0a15.62,15.62,0,0,0-.53-4.31.72.72,0,0,0-.17-.34l0,0,0,0a.53.53,0,0,0-.22-.09,1.7,1.7,0,0,0-.27,0c-.7,0-1.4,0-2.1,0h-.34l0,.34c-.16,1.45-.39,2.91-.66,4.34a.08.08,0,0,1-.08.06Zm0,0"/><path class="cls-3" d="M57.43,30.89c.27-2.55.51-5.18.73-7.82,0-.1,0-.21,0-.32l0-.42-10.58-.67L46,37.25l10.64,1.16,0-.39c.3-2.44.57-4.84.8-7.13ZM54.15,33c-.38,1.15-1.07,1.87-1.85,1.93a1.53,1.53,0,0,1-.37,0,1.92,1.92,0,0,1-1-.54A3.56,3.56,0,0,1,50.18,33,6.59,6.59,0,0,1,50,29.27c.27-1.12,1.14-2.91,2.14-3.19a1,1,0,0,1,.48,0,1.66,1.66,0,0,1,.82.5c1.45,1.47,1.27,4.7.69,6.43Zm0,0"/><path class="cls-4" d="M58.69,23.12c.11-1.3.21-2.62.3-3.92,0-.13,0-.3.06-.48.12-.84.28-2-.62-2.56L58.17,16l.59-4.59a1.25,1.25,0,0,0-.19-1,1.25,1.25,0,0,0-1.07-.38,1.65,1.65,0,0,1-.34,0,1,1,0,0,1,0-.18,16.21,16.21,0,0,0-.56-4.47,1.24,1.24,0,0,0-.34-.6,1.3,1.3,0,0,0-.85-.27c-.84,0-1.7,0-2.54,0a.47.47,0,0,0-.45.41c-.15,1.44-.36,2.88-.62,4.3a7.83,7.83,0,0,0-1.08.07,1,1,0,0,0-.58.26,1.09,1.09,0,0,0-.25.55l-1,5.14a1.65,1.65,0,0,0-.91.55,2.43,2.43,0,0,0-.41,1.29L44.74,43.49a2.65,2.65,0,0,0,.38,2,2,2,0,0,0,1.25.65,4.4,4.4,0,0,0,.65.08l8.53.69a.47.47,0,0,0,.5-.39c.74-5.17,1.38-10.41,1.91-15.6.27-2.59.51-5.22.73-7.82ZM57,30.85q-.36,3.56-.8,7.13l-9.85-1.07L48,22.08l9.8.61,0,.35c-.22,2.6-.46,5.22-.73,7.81ZM56,40.07l-9.84-.91.19-1.73,9.85,1.07c-.07.53-.13,1-.2,1.57ZM48.17,20.43l9.75.66c0,.36-.05.72-.08,1.08l-9.79-.62Zm2.62-10.18V10.2h.05a5.47,5.47,0,0,1,1.28,0,.46.46,0,0,0,.49-.37c.28-1.45.51-2.91.67-4.37.69,0,1.38,0,2.07,0a.83.83,0,0,1,.27,0,.5.5,0,0,1,.08.19,15.59,15.59,0,0,1,.51,4.22,1.2,1.2,0,0,0,.17.66,1.23,1.23,0,0,0,1.1.45,1.17,1.17,0,0,1,.36,0,.7.7,0,0,1,0,.3l-.57,4.45a13,13,0,0,0-1.76-.11l-1,0-1.43-.15-2.87-.28a3.25,3.25,0,0,0-.36,0Zm-2,6.1c.26-.32.86-.31,1.41-.25h0l2.87.29,1.43.14c.31,0,.66,0,1,0a11,11,0,0,1,1.73.13,2,2,0,0,1,.72.25c.39.24.28,1,.19,1.64,0,.19-.05.38-.06.55,0,.34,0,.68-.08,1l-9.72-.66.25-2.34a1.67,1.67,0,0,1,.22-.81Zm-1.64,29a1.91,1.91,0,0,1-1.27-.4,1.88,1.88,0,0,1-.16-1.34l.37-3.5,9.82.91c-.21,1.67-.43,3.33-.67,5Zm0,0"/><path class="cls-4" d="M53.74,26.28a1.65,1.65,0,0,0-1.68-.58c-1.24.34-2.14,2.32-2.42,3.48a6.91,6.91,0,0,0,.17,4,3.93,3.93,0,0,0,.86,1.49,2.34,2.34,0,0,0,1.18.64,1.94,1.94,0,0,0,.48,0c.94-.07,1.76-.89,2.19-2.2.63-1.87.8-5.22-.78-6.82ZM54,32.94c-.14.41-.67,1.75-1.73,1.83a1.61,1.61,0,0,1-1.24-.52A3.38,3.38,0,0,1,50.31,33a6.52,6.52,0,0,1-.16-3.67c.26-1.09,1.09-2.82,2.05-3.09a.82.82,0,0,1,.41,0,1.53,1.53,0,0,1,.76.46c1.4,1.42,1.22,4.59.65,6.29Zm0,0"/></g></svg>