<svg xmlns="http://www.w3.org/2000/svg" width="70" height="70" viewBox="0 0 70 70">
  <defs>
    <style>
      .cls-1 {
        fill: #b29381;
      }

      .cls-2 {
        fill: #f7dd6d;
      }

      .cls-3 {
        fill: #7e604e;
      }

      .cls-4 {
        fill: #333;
      }

      .cls-5 {
        fill: #e6f4f3;
      }

      .cls-6 {
        fill: #148acb;
      }

      .cls-7 {
        fill: #ffc94e;
      }

      .cls-8 {
        fill: #75c0eb;
      }

      .cls-9 {
        fill: #fbbb8b;
      }

      .cls-10 {
        fill: #ac9e7e;
      }

      .cls-11 {
        fill: #ed9b5e;
      }

      .cls-12 {
        fill: #06bce8;
      }

      .cls-13 {
        fill: #b76157;
      }

      .cls-14 {
        fill: #e0b9c2;
      }
    </style>
  </defs>
  <g id="Layer_183" data-name="Layer 183">
    <g>
      <path class="cls-1" d="M13,11.7,53,11.29,59.81,11l1.56,2,.06,22-.61,8.65-2.23,1.83-17.23.2-20.42-.34-8.86-.81-1.35-3.11.14-24.87.27-3.72Zm0,0"/>
      <path class="cls-2" d="M16.12,11.59,14,11.74a3.38,3.38,0,0,0-2.05.51,2.08,2.08,0,0,0-.6,2v0c0,.18,0,.36,0,.54s0,.12,0,.18a2.26,2.26,0,0,1-.35.78,1.12,1.12,0,0,0,.67,1.65l.32.06a1.1,1.1,0,0,0,1.35-1.29,4.17,4.17,0,0,0,.26-.75,5.13,5.13,0,0,0,.11-1h0a10.72,10.72,0,0,0,1.6-.17c.72-.08,1.55-.19,1.89-1a1.19,1.19,0,0,0-1-1.76Zm0,0"/>
      <path class="cls-2" d="M15.88,42.6a2.38,2.38,0,0,0-1.83-.12c-.22.05-.32.09-.53-.15a2.09,2.09,0,0,1-.38-1.16l0-.4a1.85,1.85,0,0,0,.26-.45,1,1,0,0,0-.13-.89,1.09,1.09,0,0,0-.94-.54c-2.05.15-1.59,3-1,4.28A3.09,3.09,0,0,0,13,44.73a2.54,2.54,0,0,0,1,.16,3.23,3.23,0,0,0,.61-.1h0a1.11,1.11,0,0,0,.85.06l.11,0a1.23,1.23,0,0,0,.29-2.21Zm0,0"/>
      <path class="cls-2" d="M60.74,38.89a1.76,1.76,0,0,0-2.66.57A2.28,2.28,0,0,0,57.89,41c0,.21.25.74.24.88l-.08,0L57.7,42c-.45,0-.9,0-1.36.06a1.94,1.94,0,0,0-.64.22,1.11,1.11,0,0,0-1.28.74,1.89,1.89,0,0,0,.55,2.4,1.48,1.48,0,0,0,1.52,0,3.81,3.81,0,0,0,4-1.21,4.92,4.92,0,0,0,1-2.64,2.67,2.67,0,0,0-.7-2.67Zm0,0"/>
      <path class="cls-2" d="M61.53,13.66a4.85,4.85,0,0,0-5.68-2.53,1.08,1.08,0,0,0-1.54.93,1.54,1.54,0,0,0,.27,1,1.08,1.08,0,0,0,.76.69,2.33,2.33,0,0,0,.49.21,3.54,3.54,0,0,0,1.45,0,2.17,2.17,0,0,1,.76-.08c.09,0,.17.21.22.41a8.15,8.15,0,0,0,.19,1.08,1.76,1.76,0,0,0,2.47,1.09,2.06,2.06,0,0,0,.61-2.78Zm0,0"/>
      <path class="cls-2" d="M52.41,45.83c-.38,0-.75,0-1.13,0-.94,0-1.89,0-2.83,0a1,1,0,0,0-.84.38l-.15,0a.91.91,0,0,0,.48,1.75H48a1.14,1.14,0,0,0,.46.09c1.32,0,2.64,0,4,0a1.08,1.08,0,0,0,0-2.16Zm0,0"/>
      <path class="cls-2" d="M23.84,45.17a28.47,28.47,0,0,1-5.14,0,1.06,1.06,0,0,0-1.05,1,1.07,1.07,0,0,0,1.05,1,23.87,23.87,0,0,0,5.14.06,1.1,1.1,0,1,0,0-2.19Zm0,0"/>
      <path class="cls-2" d="M33,10.32a1.19,1.19,0,0,0-1.16-1.16,29.31,29.31,0,0,0-5.62.12A1.22,1.22,0,0,0,25,10.46a1.18,1.18,0,0,0,1.18,1.17,44,44,0,0,1,5.26-.16l.06,0,0,0a1,1,0,0,0,.36.21A.92.92,0,0,0,33,11.06a.82.82,0,0,0,0-.44,1,1,0,0,0,.05-.3Zm0,0"/>
      <path class="cls-2" d="M46.09,8.9a59.22,59.22,0,0,0-6,.13,1.15,1.15,0,1,0,0,2.3c2-.07,4-.14,6-.11a1.16,1.16,0,0,0,0-2.32Zm0,0"/>
      <path class="cls-3" d="M26.21,9.28,27,3.72l1-.88,11.09-.27,5.2.47.81,1.63.14,4.05L40.13,9,39.6,5.14,32,5.48l-.2,3.68Zm0,0"/>
      <path class="cls-4" d="M62.19,14.68a4.82,4.82,0,0,0-.94-3.38A4.12,4.12,0,0,0,58,10.37c-3.1.06-6.2.28-9.29.4l-.56,0h0c-.25-.45,0-1.07-.14-1.57a1.15,1.15,0,0,0-1-.8,7.51,7.51,0,0,0-1.06,0h0c-.12-1.11-.23-2.21-.34-3.32a2.93,2.93,0,0,0-.85-2.21,4.06,4.06,0,0,0-2.34-.57c-1.11-.06-2.22-.1-3.33-.13-2.22,0-4.44,0-6.67,0-1.11,0-2.22.1-3.32.19A3.46,3.46,0,0,0,27,3c-.8.66-.72,1.8-.78,2.73a23.2,23.2,0,0,0,0,3.23,1.77,1.77,0,0,0-1.34.45c-.48.53-.16,1,0,1.58l-3.21,0-4.77,0a16.09,16.09,0,0,0-4.1.27,2.84,2.84,0,0,0-2.11,2.41,24.85,24.85,0,0,0-.13,3.95c0,6.29-.11,12.58-.18,18.87,0,1.53-.06,3.07-.05,4.6a4.92,4.92,0,0,0,1,3.34,4.49,4.49,0,0,0,3.26,1.2c1,.07,2.06.12,3.09.17a1.55,1.55,0,0,0,.48,1.83,2.18,2.18,0,0,0,1.28.26l1.78,0H22.8a6.92,6.92,0,0,0,1.51,0c.85-.19,1.07-.94,1-1.7q6.29.21,12.58.26c2.81,0,5.62,0,8.44,0a1.48,1.48,0,0,0,.53,1.64,2.65,2.65,0,0,0,1.37.18h3.41A3.51,3.51,0,0,0,53,48.12a1.56,1.56,0,0,0,.88-1.8l2.83-.07a6.15,6.15,0,0,0,3.5-.81,4.12,4.12,0,0,0,1.46-3c.17-1.41.17-2.86.23-4.28.06-1.58.12-3.16.16-4.74q.23-9.37.14-18.75Zm-7.28-3.13h.28l1.67-.09h.64c1,0,2.39.05,3,1s.42,2.49.43,3.6a1.62,1.62,0,0,1,0,.22c-.8.14-1.82.32-2.24-.49-.21-.42.11-.87,0-1.31a1.19,1.19,0,0,0-.51-.75c-.77-.53-1.5-.12-2.34-.13-1.07,0-1.08-1.19-1-2.07ZM46.45,9.37c.24,0,.48-.07.61.17s0,.42,0,.58a2.7,2.7,0,0,0,0,.7l-6.6,0H39.08c0-.73.13-1.37,1.06-1.44s2.07,0,3.1,0Zm-8.09,1.48-4.5,0-.12-1.32a.45.45,0,0,0-.43-.44c-.42,0-.85-.07-1.27-.09.06-.34.1-.67.13-1a8.47,8.47,0,0,1,.15-1.68c.15-.44.86-.4,1.25-.44l1.8-.12c1.13,0,2.26-.1,3.39-.08.23,0,.49,0,.6.23a3.33,3.33,0,0,1,.09.95c0,.54.09,1.07.13,1.61a1.74,1.74,0,0,0-.61.23,1.84,1.84,0,0,0-.61,2.12ZM27.18,6.79q.06-.7.09-1.41A4.19,4.19,0,0,1,27.4,4.1c.27-.72,1.21-.77,1.86-.82.93-.06,1.86-.12,2.79-.16C33.91,3,35.78,3,37.64,3a45.15,45.15,0,0,1,5.58.29,1.54,1.54,0,0,1,1.08.51,2.55,2.55,0,0,1,.3,1.33q.12,1.61.21,3.21v0l-2.11,0H40.53l-.18-2.06c-.05-.56-.11-1.13-.66-1.43a4,4,0,0,0-1.78-.18c-.81,0-1.62,0-2.44.07s-1.55.09-2.32.15a2.28,2.28,0,0,0-1.48.47,2.07,2.07,0,0,0-.38,1.66q0,.94.09,1.89c-1.44-.07-2.89-.09-4.34-.06h-.1c.13-.71.18-1.44.24-2.15ZM25.8,10a3.05,3.05,0,0,1,1.13-.13c.43,0,.85-.05,1.28-.05a42.79,42.79,0,0,1,4.67.18c0,.31,0,.62,0,.94L25.66,11c0-.06,0-.13,0-.19,0-.3-.15-.64.16-.81Zm-14,3.56c.66-1.21,2-1.12,3.16-1.11h1.82l0,.06a.93.93,0,0,1,0,1.06c-.29.38-.85.34-1.27.34-.66,0-1.81-.26-2.19.44a1.5,1.5,0,0,0,0,1.1,1.73,1.73,0,0,1-.15,1.07,1.6,1.6,0,0,1-1.83.8V17a7.32,7.32,0,0,1,.4-3.48Zm4.17,31-1.27-.08c-1.1-.08-2.34-.26-2.81-1.42a9.86,9.86,0,0,1-.36-3.59v0c.75-.15,1.66-.3,1.74.56,0,.47-.28.93-.36,1.39A1.65,1.65,0,0,0,13,42.43c.41.78,1.3.72,2,.56.48-.1,1-.22,1,.44,0,.38-.12.73-.14,1.1Zm8.3,2.38c-.2.14-.68.07-.9.07l-2.1,0c-.65,0-1.31,0-2,0-.36,0-.7,0-.87-.39a1.25,1.25,0,0,1,0-.79l.66,0c1.77.08,3.54.16,5.31.22,0,.24.12.62-.11.79ZM52.87,47c-.12.33-.49.3-.79.3H48.15c-.31,0-.81.08-1-.2a.93.93,0,0,1-.14-.67c2,0,3.92,0,5.89-.08a1.43,1.43,0,0,1,0,.65Zm7.58-4.62a2.47,2.47,0,0,1-1.9,2.41A16.51,16.51,0,0,1,55,45c-.21-.76-.61-2.35.5-2.6.86-.18,1.67.37,2.51-.12s.63-1.29.49-2c-.25-1.3,1.22-1.33,2.14-1.28,0,1.14,0,2.29-.15,3.41Zm.41-13c-.06,2.87-.15,5.74-.24,8.61a3.22,3.22,0,0,0-2.92,1,1.77,1.77,0,0,0-.28,1.38c0,.25.25.62.2.87s-.37.38-.64.39a15.37,15.37,0,0,0-1.66-.08,1.74,1.74,0,0,0-1.11.73,2.86,2.86,0,0,0,0,2.78c-1.34,0-2.67.07-4,.09-3,.06-6,.09-9,.1q-8.91,0-17.81-.35c-2.18-.09-4.36-.16-6.54-.28,0-.48.16-1,.1-1.44a1.36,1.36,0,0,0-.68-1A1.94,1.94,0,0,0,15,42c-.54.09-1.31.3-1.17-.53A6.37,6.37,0,0,0,14.17,40a1.6,1.6,0,0,0-.51-1.07c-.67-.64-1.42-.41-2.18-.23q-.06-8.57-.11-17.11c0-1.22,0-2.44,0-3.66a2.39,2.39,0,0,0,2.93-2.84c0-.14-.12-.21,0-.32a1.41,1.41,0,0,1,.41,0h1a2.43,2.43,0,0,0,1.49-.4,1.88,1.88,0,0,0,.7-2l1.59,0c5.92-.12,11.84-.2,17.76-.33,3-.06,6-.11,9-.2,2.67-.07,5.36-.1,8-.23a2.66,2.66,0,0,0,.29,2.33,1.66,1.66,0,0,0,1.13.66c.58.07,1.18-.24,1.74-.1.29.07.33.19.28.48a2.44,2.44,0,0,0-.06.76,1.86,1.86,0,0,0,.65,1.15,3.11,3.11,0,0,0,2.67.51c0,1,0,2.08,0,3.12q0,4.41-.1,8.84Zm0,0"/>
    </g>
    <g>
      <g>
        <path class="cls-5" d="M25.78,19.15A16,16,0,0,1,29,18.73c.69,0,1.25.05,1.57.7a6.62,6.62,0,0,1,.46,2.37,23.67,23.67,0,0,1,.24,2.51c0,1.19-.29,2.58-1.52,3a20.49,20.49,0,0,1-4.54.67c-1,.09-2,.09-2.94.09a12.55,12.55,0,0,1-1.94,0,2,2,0,0,1-1.44-.77,4.1,4.1,0,0,1-.33-1.55c-.11-1.05-.3-2.09-.36-3.16a1.93,1.93,0,0,1,.93-2,11.94,11.94,0,0,1,3-.65c.85-.19,1.69-.31,2.53-.48l1.12-.23Zm0,0"/>
        <path class="cls-6" d="M18.81,26.2a.61.61,0,0,1,.34-.23,9.36,9.36,0,0,0,1.47-.77c.64-.35,1.3-.66,2-1,.2-.1.45-.29.7-.24a1.38,1.38,0,0,1,.56.4,2.46,2.46,0,0,0,1.64.65,3.77,3.77,0,0,0,1.16-.14,6,6,0,0,0,1.1-.63,1.39,1.39,0,0,1,.82-.31,5.5,5.5,0,0,1,1.12.32,11.48,11.48,0,0,1,1.22.34c.91.43,0,2-.6,2.29a8.77,8.77,0,0,1-3.57.8c-.8.09-1.6.12-2.4.2a22.86,22.86,0,0,1-2.47.21,10.15,10.15,0,0,1-1.65-.17,2,2,0,0,1-1-.28,1.69,1.69,0,0,1-.37-.83.88.88,0,0,1,0-.63Zm0,0"/>
        <path class="cls-7" d="M26.25,20.47c-.59.31-1.24.71-1.11,1.48A1.21,1.21,0,0,0,26.24,23a1.51,1.51,0,0,0,1.61-.54,1.29,1.29,0,0,0,0-1.63,1.51,1.51,0,0,0-1.58-.4Zm0,0"/>
        <path class="cls-4" d="M31.58,23.05a24.26,24.26,0,0,0-.29-2.55c-.09-.53-.17-1.44-.69-1.74a2.14,2.14,0,0,0-1-.28,3.53,3.53,0,0,0-1.21,0c-.4.09-.79.15-1.2.23s-.56.12-.85.16-.41,0-.62,0a12.7,12.7,0,0,0-1.25.32c-.44.1-.92.09-1.37.18l-.79.16a22.84,22.84,0,0,0-2.45.43,3.06,3.06,0,0,0-1.76,1.13A2.82,2.82,0,0,0,18,23c.1.93.26,1.85.38,2.78.06.42.13.84.18,1.26a1.28,1.28,0,0,0,.36.8,3.16,3.16,0,0,0,2.1.56,22.92,22.92,0,0,0,5.1-.2c.86-.13,1.73-.25,2.6-.36a3.82,3.82,0,0,0,2-.68,2.51,2.51,0,0,0,.76-1.7,11.14,11.14,0,0,0,.1-2.38Zm-13.11-.34a2.29,2.29,0,0,1,0-1c.21-.78,1.22-1.19,1.93-1.33s1.39-.24,2.09-.36l.63-.09a15,15,0,0,0,1.76-.28l.59-.09,1-.15c.16,0,.31,0,.46-.06a8.3,8.3,0,0,1,1.1-.15,7.56,7.56,0,0,1,1-.18,6.73,6.73,0,0,1,.89.1.81.81,0,0,1,.71.63,14.73,14.73,0,0,1,.37,2.19A14.55,14.55,0,0,1,31,24.09v.27c-.47-.18-1-.26-1.48-.42a2.64,2.64,0,0,1-.46-.13c-.13-.06-.22-.18-.35-.24a.8.8,0,0,0-.59,0,3.5,3.5,0,0,0-.71.5,3.13,3.13,0,0,1-.9.44,2.76,2.76,0,0,1-2.13-.14c-.38-.26-.71-.71-1.2-.75a2.1,2.1,0,0,0-1.12.49c-1,.65-2.17,1.08-3.16,1.79-.12-.69-.26-1.37-.32-2.06,0-.37-.07-.75-.12-1.12Zm12.28,3.41a1.94,1.94,0,0,1-1.62,1.05c-.7.14-1.45.23-2.16.31s-1.33.17-2,.28c-.37.06-.75,0-1.13,0s-.88.05-1.33.05c-.69,0-1.37,0-2.06-.07a2,2,0,0,1-1.17-.37A1.84,1.84,0,0,1,19,26.34a4.72,4.72,0,0,0,1.23-.57c.57-.31,1.18-.56,1.75-.88.36-.19.92-.76,1.34-.61.19.07.4.33.57.45a2.23,2.23,0,0,0,.58.33,3.66,3.66,0,0,0,3.06-.32,5.2,5.2,0,0,1,.72-.54c.3-.11.58.13.86.22l.76.24.14.05c.32.11.67.15,1,.26a4.69,4.69,0,0,1-.23,1.15Zm0,0"/>
        <path class="cls-4" d="M25.94,23.23a1.71,1.71,0,0,0,2.37-1.51,1.62,1.62,0,0,0-.7-1.27,1.53,1.53,0,0,0-1.35-.16,1.72,1.72,0,0,0-1.2.86,1.16,1.16,0,0,0,0,1.19,1.54,1.54,0,0,0,.91.89Zm-.11-2.32c.73-.49,1.93-.44,2.09.61a1.32,1.32,0,0,1-1.68,1.4,1.22,1.22,0,0,1-.93-.78,1.11,1.11,0,0,1,.52-1.23Zm0,0"/>
      </g>
      <g>
        <path class="cls-8" d="M21.52,32.21a3.68,3.68,0,0,0-.38.8c-.14.33-.28.65-.41,1s-.33.9-.47,1.36a2,2,0,0,0,.27,2,2.85,2.85,0,0,0,1.17.5c.5.14,1,.32,1.49.47,1.13.36,2.25.75,3.36,1.18.94.37,1.86.76,2.81,1.11a3.8,3.8,0,0,0,1.34.17,1.87,1.87,0,0,0,.88-.16,2.2,2.2,0,0,0,1-1.57c.19-.68.29-1.39.48-2.08s.37-1,0-1.55a2.26,2.26,0,0,0-.89-.66,11.05,11.05,0,0,0-1.49-.66c-1.15-.43-2.29-.83-3.46-1.18s-2.18-.7-3.3-.92a5,5,0,0,0-2-.16.82.82,0,0,0-.45.34Zm0,0"/>
        <path class="cls-9" d="M21.91,36.67c.27-.46.49-1,.79-1.43.11-.17.24-.32.37-.49s.18-.23.16-.34c0-.29-.68-.59-.39-1,.11-.14.38-.08.53-.07a6.57,6.57,0,0,1,.89.12,3.71,3.71,0,0,1,1.31.56c.13.1.3.19.34.35s-.16.38-.34.47-.55.13-.64.32a1.54,1.54,0,0,0-.06.52,5.51,5.51,0,0,1-.06.71c0,.35-.16.69-.21,1a3.55,3.55,0,0,1-.25,1.08c-.21.42-1,0-1.26-.12l-.77-.31a4.41,4.41,0,0,1-.59-.26c-.2-.12-.33-.2-.21-.41s.33-.66.39-.78Zm0,0"/>
        <path class="cls-10" d="M32.5,39.29c-.18,0-.37.05-.57,0a2,2,0,0,1-.63-.13,5.94,5.94,0,0,1-1.18-.82,5.4,5.4,0,0,0-3.36-.59,3.43,3.43,0,0,1-1.26-.31c-.16-.07-.65-.51-.79-.36s-.07.33-.08.43a3.85,3.85,0,0,1-.08.58c-.05.21-.21.57-.1.77a.86.86,0,0,0,.38.27,9.11,9.11,0,0,0,.86.35c.79.28,1.58.54,2.38.78s1.33.4,2,.58a2.19,2.19,0,0,0,1.45,0,2.2,2.2,0,0,0,.89-1,1.34,1.34,0,0,0,.11-.39c0-.07-.05-.15,0-.2Zm0,0"/>
        <path class="cls-10" d="M22.18,35.87c-.35-.22-1.34-1.26-1.75-.78a2.64,2.64,0,0,0-.37,1.17,1,1,0,0,0,.42,1.12,1.09,1.09,0,0,0,.81.25c.14-.05.23-.2.31-.31a6.11,6.11,0,0,0,.52-.94c.06-.13.25-.42.06-.51Zm0,0"/>
        <path class="cls-4" d="M33.49,35.38a2.35,2.35,0,0,0-.76-.6,3.82,3.82,0,0,0-.95-.47,11.92,11.92,0,0,1-1.29-.51,6.55,6.55,0,0,0-.74-.27A8.87,8.87,0,0,0,28.14,33c-.39-.11-.79-.2-1.18-.34a4.71,4.71,0,0,0-1.43-.37c-.49-.14-1-.28-1.46-.4a4.78,4.78,0,0,0-2.24-.27,1.52,1.52,0,0,0-1,1.18c-.17.65-.4,1.32-.58,2s-.67,1.46-.49,2.12.83.74,1.27.93.69.23,1,.37.72.34,1.09.47a7.59,7.59,0,0,1,1.13.4,10.78,10.78,0,0,0,1.05.46c.75.29,1.51.59,2.28.83.37.11.74.23,1.13.31s.84.28,1.28.39,1.22.45,1.74.08a2.51,2.51,0,0,0,1-1.54c.09-.39.2-.78.27-1.17s.07-.82.18-1.22.56-1.34.25-1.85Zm-12.1,2a5.83,5.83,0,0,1-.72-.32c-.14-.07-.31-.13-.37-.3s.1-.61.16-.81.13-.42.19-.63c.14,0,.32,0,.44,0l.15,0,.3.23A1.76,1.76,0,0,0,22,36l-.11.18a5.52,5.52,0,0,0-.44,1,2.41,2.41,0,0,0-.08.25Zm2.9,1-.15-.07c-.32-.12-.65-.17-1-.29l-1.45-.56c.11-.2.19-.41.28-.62s.27-.5.39-.76.41-.6.58-.92c.06-.12.13-.22.19-.32.26-.29.47-.16.84,0s.65.16.74.42c-.13.72-.22,1.46-.29,2.19-.06.32-.12.63-.16.95ZM25,34.89l0,0c-.19-.18-.57-.21-.78-.29a2.3,2.3,0,0,0-.84-.27,3,3,0,0,1-.36-.42l.27-.43h.2a6.69,6.69,0,0,1,.66.23c.31.1.6.23.91.33a1.84,1.84,0,0,1,.53.18c.29.25.18.41-.12.5a3,3,0,0,0-.42.14Zm7.1,4.86a1.45,1.45,0,0,1-.48.73c-.36.31-.58.22-1,.11-.62-.17-1.23-.38-1.86-.52a11.31,11.31,0,0,1-1.87-.6c-.63-.25-1.27-.43-1.9-.69l-.19-.09c0-.44.1-.89.16-1.33l.05,0a1.76,1.76,0,0,0,1.12.52,8.42,8.42,0,0,0,2.3.07,2.54,2.54,0,0,1,.41,0,3.56,3.56,0,0,1,.72.23l.35.22.74.56a3.39,3.39,0,0,0,.93.47,1.25,1.25,0,0,0,.59,0,1.18,1.18,0,0,1-.07.2Zm.61-2.93a5.8,5.8,0,0,0-.2.92,8,8,0,0,1-.19,1.19,2.54,2.54,0,0,1-1-.18,5.77,5.77,0,0,1-.88-.66,4.2,4.2,0,0,0-1.87-.69,19.82,19.82,0,0,1-2.31,0,3.85,3.85,0,0,1-.57-.2,4.91,4.91,0,0,1-.64-.38l.06-.42c0-.29,0-.76.13-1s.53-.25.78-.42a.61.61,0,0,0,.07-1,3.06,3.06,0,0,0-.93-.34c-.43-.15-.84-.32-1.28-.44s-1.05-.41-1.38.1a.86.86,0,0,0-.07.72c.08.2.44.42.45.59,0-.06-.16.2-.16.19-.1.15-.17.34-.27.5a1.74,1.74,0,0,1-.11.18,1.75,1.75,0,0,0-1-.6,1.17,1.17,0,0,0-.55-.06c.05-.18.1-.36.16-.54a8.94,8.94,0,0,1,.32-1,3,3,0,0,1,.38-.86c.51-.58,1.62-.09,2.24.05.81.19,1.6.43,2.39.65.34.1.68.17,1,.25s.6.21.9.29c1.19.31,2.31.87,3.47,1.27a2.85,2.85,0,0,1,.73.39c.17.12.51.27.55.5a3.08,3.08,0,0,1-.26,1Zm0,0"/>
        <path class="cls-7" d="M30.67,35.32c-.39,0-.7.4-.77.74a1.1,1.1,0,0,0,.4,1.09c.75.51,1.6-.38,1.28-1.15a1.19,1.19,0,0,0-.91-.68Zm0,0"/>
        <path class="cls-4" d="M31.72,35.72a1.09,1.09,0,0,0-1.57-.5.44.44,0,0,0-.15.08,1.19,1.19,0,0,0-.48,1A1.22,1.22,0,0,0,31,37.45a1,1,0,0,0,.75-.57,1.77,1.77,0,0,0-.05-1.16ZM30,36a.76.76,0,0,1,.34-.41l.17-.09h.21a1.18,1.18,0,0,1,.4.27,1.11,1.11,0,0,1,.27.45,1,1,0,0,1,0,.25c0,.33-.23.44-.52.52a.73.73,0,0,1-.84-.43A1.18,1.18,0,0,1,30,36Zm0,0"/>
      </g>
      <g>
        <path class="cls-11" d="M38.92,27.25c-.19.06-.39.4-.48.55a4.76,4.76,0,0,0-.51,1.31,6.69,6.69,0,0,0-.14,2.67,7.78,7.78,0,0,0,.28,1.08,1.73,1.73,0,0,0,.43.77,2.07,2.07,0,0,0,1,.39c.57.1,1.12.22,1.68.31s1.3.2,2,.26a14.07,14.07,0,0,0,1.83.13,12.43,12.43,0,0,0,1.49-.1,1.79,1.79,0,0,0,1-.43A3,3,0,0,0,48.15,33c.2-.62.38-1.25.52-1.88a4.9,4.9,0,0,0,.15-1.86,2.17,2.17,0,0,0-.53-1.27,4.46,4.46,0,0,0-2.21-.66c-1.09-.17-2.19-.22-3.28-.29-.88-.06-1.75,0-2.63,0a2.42,2.42,0,0,0-1.25.25Zm0,0"/>
        <path class="cls-12" d="M37.89,32.57c0-.31-.34-1.38.23-1.37a.64.64,0,0,0,.46-.1,4.79,4.79,0,0,0,.67-.68c.38-.36,1.06-.84,1.62-.69.21.05.41.13.44.37a1.92,1.92,0,0,1-.26,1,1.07,1.07,0,0,0,.05,1.13,1.54,1.54,0,0,0,.83.53.91.91,0,0,0,1-.19,3.59,3.59,0,0,0,.4-.38,4.67,4.67,0,0,0,.38-.6c.17-.27.5-.56.81-.28s.11.74.25,1.1a.81.81,0,0,0,1,.38c.52-.14.68-.8,1.11-1.09s.89.06,1.22.28.29.46.23.79a2.29,2.29,0,0,1-.77,1.52,5.88,5.88,0,0,1-2.79.51,15.64,15.64,0,0,1-3.67-.4,8.53,8.53,0,0,1-2.22-.57,1.56,1.56,0,0,1-.77-.71c-.12-.24-.09-.51-.16-.51Zm0,0"/>
        <path class="cls-4" d="M48.78,28a3.34,3.34,0,0,0-2-.81,12.28,12.28,0,0,0-1.7-.19l-.66-.1a16.48,16.48,0,0,0-2-.12c-.43,0-.85,0-1.27,0H41l-.91,0a2.45,2.45,0,0,0-1.5.39,4.68,4.68,0,0,0-1.11,3.48,15.94,15.94,0,0,0,.2,2.07,1.48,1.48,0,0,0,.72,1.2,10.38,10.38,0,0,0,4,.92c.72.07,1.46.11,2.18.19a7.89,7.89,0,0,0,2.06,0,2.27,2.27,0,0,0,1.53-.89,7.53,7.53,0,0,0,.72-2.24,11.33,11.33,0,0,0,.24-2.26c0-.55.12-1.26-.27-1.73Zm-2,6.41a5.6,5.6,0,0,1-1.83.1,16,16,0,0,1-2-.16,17,17,0,0,1-3.48-.52c-.49-.16-1.07-.32-1.22-.86a8.67,8.67,0,0,1-.23-1.54,1.14,1.14,0,0,0,.82-.31h0l0,0c.31-.26,1.92-1.91,2-.75.05.42-.3.82-.31,1.26a1.44,1.44,0,0,0,.2.76,1.67,1.67,0,0,0,1.58.68,1.93,1.93,0,0,0,1.35-1c.07-.09.19-.39.3-.43.33-.14.35.17.38.38s0,.47.23.67a.93.93,0,0,0,.48.25.85.85,0,0,0,.42,0,1.86,1.86,0,0,0,.62-.24c.29-.18.44-.5.73-.67s.7,0,1,.28a.39.39,0,0,0,.11.06c-.05.16-.09.33-.14.5-.2.68-.4,1.29-1.13,1.56Zm1.54-3.64a7.24,7.24,0,0,1-.15,1,1.45,1.45,0,0,0-1.33-.37,2.26,2.26,0,0,0-.65.54,1.3,1.3,0,0,1-.59.36c-.55.12-.51-.09-.58-.5s-.37-1-.9-.9-.77.94-1.15,1.26a1.16,1.16,0,0,1-1.34.13c-.59-.31-.43-.84-.25-1.36s.26-1.13-.3-1.43a1.68,1.68,0,0,0-1.69.36c-.3.23-.53.54-.82.78a1.4,1.4,0,0,1-.55.26A5,5,0,0,1,38.6,28c.38-.57.94-.59,1.54-.63h0c.31,0,.62,0,.93,0s.47.06.7.05a10.28,10.28,0,0,1,1.66.1c.58.06,1.19.07,1.77.08a10.53,10.53,0,0,1,1.83.28c.56.11,1.27.28,1.32.94a11.32,11.32,0,0,1-.06,1.93Zm0,0"/>
      </g>
      <g>
        <path class="cls-12" d="M51.86,17.62c-.41,0-.81.12-1.22.16-.18,0-.36,0-.54,0a4.47,4.47,0,0,0-1,.23,1.79,1.79,0,0,0-1,1.45,6.65,6.65,0,0,0,0,2,2.94,2.94,0,0,0,.5,1.48c.36.42,1.06.43,1.56.47a10.4,10.4,0,0,0,2.16-.1,2.56,2.56,0,0,0,.92-.19,1.7,1.7,0,0,0,.65-.68A4.82,4.82,0,0,0,54,19.87a6,6,0,0,0-.35-1.38A1.25,1.25,0,0,0,53,17.7a2.57,2.57,0,0,0-1.17-.08Zm0,0"/>
        <path class="cls-13" d="M49.85,21.84a11.46,11.46,0,0,0,.37-1.74,5,5,0,0,1,.09-.66c0-.1,0-.31.13-.37.35.75.52,1.58.81,2.35a7,7,0,0,0,.91,1.6c.2.28-.23.29-.43.34s-.43.14-.59-.11-.32-.71-.6-.61-.22.55-.47.71a.77.77,0,0,1-.56,0c-.21,0-.36,0-.23-.25a10.65,10.65,0,0,0,.57-1.31Zm0,0"/>
        <path class="cls-14" d="M53.93,21.43c-.61,0-1.24.24-1.85.29a2.32,2.32,0,0,0-.46,0c-.17,0-.14.11-.08.25a4.15,4.15,0,0,0,.58,1,1,1,0,0,0,1.29,0A1.37,1.37,0,0,0,54,22c0-.12.06-.53-.09-.55Zm0,0"/>
        <path class="cls-14" d="M49.72,21.87a4.26,4.26,0,0,0-1.24.06c-.37.12-.21.43-.08.71s.29.59.59.68.38-.39.46-.59.36-.61.27-.86Zm0,0"/>
        <path class="cls-14" d="M50.18,23.41c-.07-.14.19-.63.35-.72s.68.5.48.7-.85.22-.83,0Zm0,0"/>
        <path class="cls-4" d="M54.49,20.13a4.62,4.62,0,0,0-.88-2.47c-.58-.62-1.77-.29-2.51-.24a5.39,5.39,0,0,0-2.91.85.17.17,0,0,0-.06.12,2,2,0,0,0-.27.52c-.13.35-.38,1-.19,1.36A6.92,6.92,0,0,0,48,22.58a1.92,1.92,0,0,0,1.76,1.31,12.45,12.45,0,0,0,2.66-.11,2,2,0,0,0,1.83-1.12,3.59,3.59,0,0,0,.23-1.07,6,6,0,0,0,.05-1.46Zm-5.87,2.62a2,2,0,0,1-.22-.56c.21,0,.42,0,.63,0a1.77,1.77,0,0,0,.32,0,9,9,0,0,0-.32,1,1,1,0,0,1-.41-.36Zm1.79.59a1,1,0,0,0,.12-.17l.09-.12a.75.75,0,0,1,.06.13l.07.15Zm1-.05-.07,0s0,0,0-.07a.52.52,0,0,0-.1-.11s0,0,0,0a.59.59,0,0,0,0-.08.57.57,0,0,0-.08-.13l0-.05a1.19,1.19,0,0,0-.09-.15.34.34,0,0,0-.15-.19.3.3,0,0,0-.3,0,.63.63,0,0,0-.24.33c0,.1-.11.21-.16.33a.72.72,0,0,0-.12.23,4.22,4.22,0,0,1-.59-.09,4.16,4.16,0,0,0,.25-.52,8.06,8.06,0,0,0,.47-1.18c.12-.41.18-.82.27-1.23l0-.31.06-.31a5.52,5.52,0,0,0,.16.54c.18.51.3,1,.53,1.53A5,5,0,0,0,52,23.22l-.66.07Zm2.2-.68a1.41,1.41,0,0,1-1,.56,1.16,1.16,0,0,0-.24-.6c-.14-.22-.3-.41-.44-.63a7,7,0,0,0,.71-.05,6.76,6.76,0,0,0,1.27-.23,2.09,2.09,0,0,1-.27.95Zm.32-1.46a3.18,3.18,0,0,0-.53.14h0c-.2,0-.41.05-.61.08l-.31,0a3.16,3.16,0,0,0-.8.12c-.21-.42-.33-.85-.51-1.3a5.72,5.72,0,0,1-.32-1,1.65,1.65,0,0,0-.1-.5.22.22,0,0,0-.37,0,4.2,4.2,0,0,0-.26,1c-.12.41-.24.82-.34,1.23-.05.21-.11.4-.17.6a6,6,0,0,0-.61.07,4.22,4.22,0,0,0-.61.07q0-.24-.06-.45c-.15-.87-.2-2.2.68-2.72A4.87,4.87,0,0,1,50.37,18,5.82,5.82,0,0,1,51.1,18a8.6,8.6,0,0,1,1.34-.07,1,1,0,0,1,1,.56,5.39,5.39,0,0,1,.48,2.71Zm0,0"/>
      </g>
    </g>
  </g>
</svg>
