<svg id="LEVELS" xmlns="http://www.w3.org/2000/svg" width="70" height="70" viewBox="0 0 70 70"><defs><style>.cls-1{fill:#c75c6e;}.cls-2{fill:#333;}.cls-3{fill:#eee2d1;}.cls-4{fill:#e6e7e8;}.cls-5{opacity:0.3;}.cls-6{fill:#f1f2f2;}.cls-7{fill:#e1a07c;}</style></defs><g id="MUSHROOM_copy" data-name="MUSHROOM copy"><path class="cls-1" d="M24.75,30.59A7.42,7.42,0,0,1,21,28.84c-1.92-1.9-1.84-5.18-1.16-7.28.74-2.27,2.42-3.92,4.29-5.75a33.1,33.1,0,0,0,3-3.44,13.29,13.29,0,0,0,.78-1.2c.56-.94.91-1.73,2.07-3.68a18.13,18.13,0,0,1,1.88-2.87c.36-.36,2.22-2.16,4.5-1.83,2.12.3,3.45,2.28,4.88,4.4a41.32,41.32,0,0,1,2,3.76c2.17,3.9,3.53,4.65,6,9.09a8.92,8.92,0,0,1,1.28,3.25,6.94,6.94,0,0,1-1.68,5.61c-1.46,1.45-3.36,1.66-5,1.84a15.39,15.39,0,0,1-3,0c-3.36-.24-3.53-.63-5.51-.73-2.41-.11-2.63.45-7.7.75A10.2,10.2,0,0,1,24.75,30.59Z"/><g id="Layer_35_copy" data-name="Layer 35 copy"><path class="cls-2" d="M24.8,30.39a6.73,6.73,0,0,1-3.91-2,6.45,6.45,0,0,1-1.21-4.59,8.66,8.66,0,0,1,.43-2.2,8.88,8.88,0,0,1,1.31-2.47,40.17,40.17,0,0,1,3.44-3.7,23.29,23.29,0,0,0,3.38-4.35c.3-.52.57-1.05.86-1.58.46-.84.95-1.67,1.44-2.49a18.93,18.93,0,0,1,1.19-1.86,4.94,4.94,0,0,1,.85-.86,4.76,4.76,0,0,1,4.31-1.14c1.67.51,2.77,2.11,3.71,3.48a19.82,19.82,0,0,1,1.22,2c.29.58.55,1.17.84,1.75a33.34,33.34,0,0,0,2.75,4.36c.94,1.27,1.88,2.53,2.7,3.87.53.88,1,1.78,1.49,2.71a9.06,9.06,0,0,1,.62,1.67,1.7,1.7,0,0,1,0,.22s0,.06,0,.09,0,.12,0,0c0,.12,0,.24,0,.36a7.49,7.49,0,0,1,0,1.57A5.69,5.69,0,0,1,48,29.35a6.7,6.7,0,0,1-2.48.95,15.74,15.74,0,0,1-2.45.29,25.2,25.2,0,0,1-2.75-.14A21.52,21.52,0,0,1,38,30.16c-.48-.08-1-.19-1.45-.27a13.59,13.59,0,0,0-1.69-.13,15,15,0,0,0-2.59.26,44.56,44.56,0,0,1-4.47.48,11.53,11.53,0,0,1-3-.11c-.26-.06-.38.35-.11.41a12,12,0,0,0,3.17.12c.92-.05,1.85-.13,2.76-.24s2.05-.34,3-.44a10.86,10.86,0,0,1,3,.1c.51.09,1,.21,1.54.29a25.59,25.59,0,0,0,2.62.29A17,17,0,0,0,43.5,31a15.64,15.64,0,0,0,2.56-.37,6.36,6.36,0,0,0,2.49-1.18,5.56,5.56,0,0,0,1.64-2.17,7.66,7.66,0,0,0,.55-3.73,8,8,0,0,0-.82-2.6,32.44,32.44,0,0,0-3-4.92c-.9-1.24-1.84-2.44-2.65-3.74A28.12,28.12,0,0,1,42.84,9.7c-.27-.54-.51-1.11-.81-1.65a21.62,21.62,0,0,0-1.41-2.16,12.42,12.42,0,0,0-1.79-2.11,4.76,4.76,0,0,0-2.18-1.16,4.55,4.55,0,0,0-2.58.26,6.51,6.51,0,0,0-2.72,2c-.46.62-.84,1.3-1.24,2-.49.83-1,1.66-1.44,2.5-.28.53-.56,1.06-.86,1.58A18.11,18.11,0,0,1,26,13.44c-.55.65-1.11,1.29-1.71,1.9s-1.14,1.12-1.7,1.7a11.68,11.68,0,0,0-3,4.75,9,9,0,0,0-.07,4.82,5.65,5.65,0,0,0,1.18,2.18,5.92,5.92,0,0,0,2.21,1.49,11.3,11.3,0,0,0,1.78.52C25,30.85,25.07,30.44,24.8,30.39Z"/><path class="cls-3" d="M23.46,28.44A3,3,0,0,1,22,26.16a3,3,0,0,1,1.55-2.25,4.6,4.6,0,0,1,2.79-.58c5.61.48,7.93,1,10.56,1.09,3.85.09,7.44-.92,9.91.28,1.14.56,1.34,1.23,1.38,1.37a2.6,2.6,0,0,1-.77,2.14c-.4.43-1.42,1.25-4.87,1.06-2.31-.12-2.86-.55-4.8-.83-3-.43-6.17,0-10.4.49A5.56,5.56,0,0,1,23.46,28.44Z"/><path class="cls-2" d="M23.57,28.25a3.1,3.1,0,0,1-1.3-1.45A2.11,2.11,0,0,1,23,24.51a4,4,0,0,1,2.26-1,6.87,6.87,0,0,1,1.2,0l1.93.18c1.84.19,3.66.44,5.49.66.68.08,1.36.15,2,.2a25.69,25.69,0,0,0,3,0c1.22-.07,2.45-.2,3.67-.25a10,10,0,0,1,3.18.25,3,3,0,0,1,2,1.41s0,0,0,0,0,0,0,0a1.16,1.16,0,0,1,0,.18,1.53,1.53,0,0,1-.08.73,2.86,2.86,0,0,1-.58,1,2.23,2.23,0,0,1-.77.59,5.43,5.43,0,0,1-2,.48,14.75,14.75,0,0,1-3.45-.11c-.86-.13-1.69-.38-2.53-.55a23.15,23.15,0,0,0-6.33-.22c-1.23.1-2.45.24-3.67.39a15,15,0,0,1-3.41.26,3.74,3.74,0,0,1-1.62-.56.22.22,0,0,0-.22.37,5.24,5.24,0,0,0,3.39.59c1.28-.14,2.55-.32,3.84-.46a28.93,28.93,0,0,1,6.77-.14c.95.12,1.87.36,2.8.57a15.74,15.74,0,0,0,3.42.33,5.71,5.71,0,0,0,3.84-1,3.12,3.12,0,0,0,1-1.76,2,2,0,0,0-.93-1.84,5.72,5.72,0,0,0-3-.94,23.8,23.8,0,0,0-3.58.1,38.31,38.31,0,0,1-4,.18c-.68,0-1.37-.07-2-.14-1.75-.18-3.49-.44-5.23-.63-1.17-.13-2.35-.28-3.53-.34a4.63,4.63,0,0,0-2.76.71,3.3,3.3,0,0,0-1.47,1.87,2.6,2.6,0,0,0,.94,2.47,5.61,5.61,0,0,0,.62.47C23.58,28.77,23.8,28.4,23.57,28.25Z"/><path class="cls-2" d="M39.31,27.84a23.82,23.82,0,0,0,2.42,1.45c.16.08.31-.16.15-.24a21.89,21.89,0,0,1-2.42-1.46c-.15-.1-.3.14-.15.25Z"/><path class="cls-2" d="M39.2,27q3.6,1,7.25,1.89c.17,0,.25-.23.07-.27q-3.65-.87-7.24-1.89a.14.14,0,0,0-.08.27Z"/><path class="cls-2" d="M42.46,25.92a40.31,40.31,0,0,0,5-.53c.18,0,.1-.31-.08-.28a39,39,0,0,1-4.94.53c-.18,0-.19.29,0,.28Z"/><path class="cls-2" d="M32,27.13a36.93,36.93,0,0,0-3.51,1.44c-.17.08,0,.33.14.25a34.64,34.64,0,0,1,3.45-1.41c.17-.06.09-.34-.08-.28Z"/><path class="cls-2" d="M32.41,26.37a40.92,40.92,0,0,0-7.39,1c-.69.15-1.38.33-2.06.52a.14.14,0,0,0,.08.27,41.6,41.6,0,0,1,7.27-1.36q1-.11,2.1-.15c.18,0,.18-.29,0-.28Z"/><path class="cls-2" d="M22.83,24.56q3.74.44,7.43,1.22c.7.15,1.41.3,2.11.47.17,0,.25-.23.07-.27-2.48-.59-5-1.07-7.51-1.43l-2.1-.28c-.18,0-.18.26,0,.29Z"/><path class="cls-2" d="M30.89,24a7.35,7.35,0,0,1,1.92,2,.14.14,0,0,0,.24-.15,7.62,7.62,0,0,0-2-2.1c-.15-.11-.29.14-.14.24Z"/><path class="cls-2" d="M34.75,24.33a10.62,10.62,0,0,1,0,1.26c0,.07.07.14.14.14a.15.15,0,0,0,.14-.14A10.62,10.62,0,0,0,35,24.33c0-.18-.29-.18-.28,0Z"/><path class="cls-2" d="M37.93,25.69a5.22,5.22,0,0,1,1.53-1.15c.16-.09,0-.33-.15-.25a5.6,5.6,0,0,0-1.58,1.2c-.12.13.08.33.2.2Z"/><path class="cls-2" d="M33.5,22.73a36.81,36.81,0,0,0,8.06.14c.18,0,.18-.3,0-.28a36.81,36.81,0,0,1-8.06-.14c-.18,0-.18.26,0,.28Z"/><path class="cls-2" d="M37.92,5a6.9,6.9,0,0,1,1.71,2.26c.08.16.32,0,.25-.15a7.39,7.39,0,0,0-1.76-2.31c-.14-.12-.34.08-.2.2Z"/><path class="cls-4" d="M35.54,25.59c-1.4,0-2.26,0-2.87.58A3.17,3.17,0,0,0,32,28.33c-.19,2.27,0,4.59-.45,6.82A49.31,49.31,0,0,1,29.91,40a8,8,0,0,0-.26,5,5.83,5.83,0,0,0,3.63,3.48c2.44.86,5.56,0,6.75-2.28a8.9,8.9,0,0,0,.55-4.76q-.46-6.66-1.28-13.28a2.81,2.81,0,0,0-.5-1.75C38.15,25.59,37,25.59,35.54,25.59Z"/><path class="cls-2" d="M35.54,25.37a6.18,6.18,0,0,0-2.46.27,2.3,2.3,0,0,0-1.23,1.94c-.28,2.19,0,4.42-.35,6.61s-1.4,4.21-2,6.36a8.85,8.85,0,0,0-.33,3.24,5.36,5.36,0,0,0,1,2.63,6.38,6.38,0,0,0,4.37,2.51,6.08,6.08,0,0,0,4.49-1.27,4.69,4.69,0,0,0,1.42-2,8.1,8.1,0,0,0,.38-3c0-1.12-.14-2.24-.23-3.35s-.19-2.38-.3-3.57q-.33-3.52-.75-7c0-.4-.07-.81-.12-1.21A2.28,2.28,0,0,0,39,26.27a2.8,2.8,0,0,0-2-.86c-.47,0-1,0-1.42,0a.22.22,0,0,0,0,.43,6.59,6.59,0,0,1,2.5.26,1.57,1.57,0,0,1,.77.67,2.39,2.39,0,0,1,.26,1.08c0,.45.09.89.15,1.34s.13,1.11.19,1.67c.12,1.12.24,2.24.35,3.35q.33,3.39.58,6.79c.13,1.85.34,3.95-.78,5.55a5.12,5.12,0,0,1-3.85,2,6,6,0,0,1-4.4-1.5,5.14,5.14,0,0,1-1.44-2.09,6.11,6.11,0,0,1-.21-3c.32-2.09,1.34-4,1.91-6a27.09,27.09,0,0,0,.57-6.49c0-.49.06-1,.1-1.48a3,3,0,0,1,.27-1.18,1.9,1.9,0,0,1,1.68-.93c.45,0,.9,0,1.35,0A.22.22,0,0,0,35.54,25.37Z"/></g><g class="cls-5"><path class="cls-6" d="M35.57,5.16c-.32-.19-.77,0-1.19.25a4.47,4.47,0,0,0-2.45,3.15c-.05.36-.18,1.43.39,1.81a1.43,1.43,0,0,0,1.87-.4,7.19,7.19,0,0,0,1.47-2.39C35.74,7.31,36.21,5.54,35.57,5.16Z"/><path class="cls-2" d="M35.64,5c-.48-.26-1.06.09-1.48.33a5.31,5.31,0,0,0-.88.61,4.13,4.13,0,0,0-1.51,2.7,2.6,2.6,0,0,0,.15,1.44,1.24,1.24,0,0,0,1.49.53,3.22,3.22,0,0,0,1.52-1.4,5.13,5.13,0,0,0,.87-1.63A6.7,6.7,0,0,0,36,6.37c0-.44,0-1.06-.39-1.33-.15-.1-.29.14-.14.24s.27.71.25,1a5.87,5.87,0,0,1-.18,1.1,4.24,4.24,0,0,1-.5,1.13q-.27.44-.57.84a4.28,4.28,0,0,1-.66.75,1.18,1.18,0,0,1-1.58,0A1.83,1.83,0,0,1,32,8.85a3.8,3.8,0,0,1,1.2-2.46,5.66,5.66,0,0,1,.93-.7l.27-.15c.29-.15.73-.43,1.06-.26C35.66,5.37,35.8,5.12,35.64,5Z"/></g><g class="cls-5"><path class="cls-6" d="M39.52,9.84a1.54,1.54,0,0,0-1.65-.06,2,2,0,0,0-.69,1,3.15,3.15,0,0,0-.15.76,1,1,0,0,0,0,.35,6.53,6.53,0,0,0,1.63,3.44c.6.66,1.8,1.81,2.76,1.17C43.31,15.21,40.85,10.72,39.52,9.84Z"/><path class="cls-2" d="M39.59,9.72a1.63,1.63,0,0,0-2.16.28,3.1,3.1,0,0,0-.55,1.58,3.37,3.37,0,0,0,.22,1.29,6.75,6.75,0,0,0,.51,1.21,7,7,0,0,0,1.48,1.86,2.5,2.5,0,0,0,1.86.85,1.48,1.48,0,0,0,1.14-.95,2.84,2.84,0,0,0,.1-1.5,6.86,6.86,0,0,0-.53-1.72,9.94,9.94,0,0,0-1-1.77,4.43,4.43,0,0,0-1.07-1.13c-.15-.1-.29.14-.14.25a3.59,3.59,0,0,1,.82.83,8.27,8.27,0,0,1,.85,1.35,5.78,5.78,0,0,1,.83,3,1.54,1.54,0,0,1-.48,1.07,1.33,1.33,0,0,1-1.65-.09,5.71,5.71,0,0,1-1.46-1.44,6.42,6.42,0,0,1-1-2.15,3.06,3.06,0,0,1-.14-1.12,3.09,3.09,0,0,1,.24-.89,1.41,1.41,0,0,1,.74-.76,1.43,1.43,0,0,1,1.3.17C39.6,10.06,39.74,9.82,39.59,9.72Z"/></g><g class="cls-5"><path class="cls-6" d="M34,15.15a1.92,1.92,0,0,0-.19-1.32,2.17,2.17,0,0,0-1.41-.94c-1.88-.5-4.76.83-4.89,2.63a2.26,2.26,0,0,0,.94,1.93c1.12.81,2.6.17,3.29-.12C32.21,17.12,33.71,16.48,34,15.15Z"/><path class="cls-2" d="M34.11,15.19a2,2,0,0,0-.52-1.83,2.71,2.71,0,0,0-1.51-.67,4.91,4.91,0,0,0-3.58,1A3.05,3.05,0,0,0,27.45,15a2.22,2.22,0,0,0,.29,2,2.32,2.32,0,0,0,1.88,1,4.65,4.65,0,0,0,1.94-.43c1.08-.45,2.29-1.11,2.55-2.36,0-.18-.24-.25-.28-.08a3.13,3.13,0,0,1-2.06,2c-1,.45-2.39.93-3.37.11a2.08,2.08,0,0,1-.77-1.85,2.28,2.28,0,0,1,.73-1.27,4.76,4.76,0,0,1,3.13-1.22,3.08,3.08,0,0,1,1.6.41,1.65,1.65,0,0,1,.74,1.78C33.8,15.29,34.07,15.37,34.11,15.19Z"/></g><path class="cls-2" d="M35.68,5c-.51-.27-1.11.08-1.55.33a5,5,0,0,0-.9.62A4.23,4.23,0,0,0,31.7,8.68a2.67,2.67,0,0,0,.16,1.48,1.33,1.33,0,0,0,1.57.56A3.33,3.33,0,0,0,35,9.29a5.47,5.47,0,0,0,.88-1.65,6.76,6.76,0,0,0,.23-1.27c0-.47,0-1.11-.42-1.39-.23-.15-.45.22-.22.36s.24.68.22,1a5.67,5.67,0,0,1-.18,1.08A4.29,4.29,0,0,1,35,8.5c-.18.28-.37.56-.58.83a3.79,3.79,0,0,1-.64.74,1.1,1.1,0,0,1-1.47,0,1.77,1.77,0,0,1-.21-1.24,3.73,3.73,0,0,1,1.18-2.41,4.71,4.71,0,0,1,.92-.69l.27-.15c.26-.13.69-.41,1-.26S35.92,5.1,35.68,5Z"/><path class="cls-2" d="M39.63,9.66a1.7,1.7,0,0,0-2.25.29,2.6,2.6,0,0,0-.4.73,3.5,3.5,0,0,0-.13.56l0,.21s0,.1,0,0a.52.52,0,0,1,0,.11A3.69,3.69,0,0,0,37,12.89a8.24,8.24,0,0,0,.52,1.23A6.91,6.91,0,0,0,39,16a2.58,2.58,0,0,0,1.91.87,1.57,1.57,0,0,0,1.21-1,3,3,0,0,0,.1-1.54,6.75,6.75,0,0,0-.54-1.74,9.36,9.36,0,0,0-1-1.77,4.59,4.59,0,0,0-1.09-1.15c-.23-.15-.44.22-.22.37a3.62,3.62,0,0,1,.8.81,8.19,8.19,0,0,1,.85,1.34,5.79,5.79,0,0,1,.82,3,1.51,1.51,0,0,1-.46,1,1.27,1.27,0,0,1-1.57-.1,5.8,5.8,0,0,1-1.43-1.41,6.35,6.35,0,0,1-1-2.14,2.75,2.75,0,0,1-.13-1.1,2.81,2.81,0,0,1,.22-.85,1.32,1.32,0,0,1,.7-.73,1.34,1.34,0,0,1,1.24.16C39.64,10.17,39.86,9.81,39.63,9.66Z"/><path class="cls-2" d="M34.17,15.21a2.07,2.07,0,0,0-.53-1.9,2.75,2.75,0,0,0-1.54-.69,5,5,0,0,0-3.64,1A3.26,3.26,0,0,0,27.38,15a2.26,2.26,0,0,0,.3,2,2.42,2.42,0,0,0,1.94,1.08,4.8,4.8,0,0,0,2-.45c1.1-.45,2.33-1.12,2.59-2.4.06-.27-.35-.38-.41-.11a3.1,3.1,0,0,1-2,2c-1,.44-2.33.91-3.28.12a2,2,0,0,1-.75-1.78,2.17,2.17,0,0,1,.71-1.24A4.66,4.66,0,0,1,31.49,13a3,3,0,0,1,1.56.4,1.58,1.58,0,0,1,.71,1.71C33.71,15.36,34.12,15.48,34.17,15.21Z"/><path class="cls-2" d="M39.28,10.49A6.63,6.63,0,0,1,40.38,12c.06.12.24,0,.18-.11a6.9,6.9,0,0,0-1.13-1.56c-.09-.09-.24.06-.15.15Z"/><path class="cls-2" d="M32.43,8.82A3,3,0,0,1,33,7.46a.11.11,0,0,0,0-.14.11.11,0,0,0-.15,0,3,3,0,0,0-.56,1.41.11.11,0,0,0,.07.13.11.11,0,0,0,.13-.07Z"/><path class="cls-2" d="M30.33,17.2a9.48,9.48,0,0,0,1.92-.66c.13-.05,0-.24-.1-.18a9.93,9.93,0,0,1-1.88.64c-.13,0-.08.23.06.2Z"/><path class="cls-2" d="M33.25,15.75l.31-.42a.12.12,0,0,0,0-.08.15.15,0,0,0,0-.06.08.08,0,0,0-.08,0,.1.1,0,0,0-.07,0l-.31.43a.11.11,0,0,0,0,.08.15.15,0,0,0,.05.06.12.12,0,0,0,.08,0,.12.12,0,0,0,.07-.05Z"/><path class="cls-2" d="M30.74,41.28A10.49,10.49,0,0,0,30.48,43c0,.18.28.18.29,0A9.78,9.78,0,0,1,31,41.35c0-.17-.23-.25-.27-.07Z"/><path class="cls-2" d="M30.63,44.64l.25.57a.2.2,0,0,0,.09.07.15.15,0,0,0,.11,0,.14.14,0,0,0,.05-.19l-.26-.57s-.05,0-.08-.06a.14.14,0,0,0-.11,0,.15.15,0,0,0-.05.19Z"/><path class="cls-2" d="M39.36,42.2a7.15,7.15,0,0,1-.53,3.33c-.07.17.17.31.24.15a7.42,7.42,0,0,0,.58-3.48c0-.18-.3-.18-.29,0Z"/><path class="cls-2" d="M37.17,45.1a9.43,9.43,0,0,1-.57,1.48.15.15,0,0,0,.25.15,9.69,9.69,0,0,0,.59-1.55.14.14,0,0,0-.27-.08Z"/><path class="cls-2" d="M33.09,30.8a18.88,18.88,0,0,1-.48,5.4c0,.17.23.25.27.07a18.64,18.64,0,0,0,.49-5.47c0-.18-.29-.18-.28,0Z"/><path class="cls-7" d="M23.7,44.88a8.09,8.09,0,0,1,4.5-1.82c2.09-.11,3.49.8,6.13,2a62.94,62.94,0,0,0,7.5,3,12.49,12.49,0,0,1-14.63.54A12.19,12.19,0,0,1,23.7,44.88Z"/><path class="cls-2" d="M23.81,45.06A8.45,8.45,0,0,1,27,43.46a6.26,6.26,0,0,1,3.51.14,32.8,32.8,0,0,1,3.63,1.64c1,.47,2,.92,3,1.33q2.3.95,4.66,1.71l-.05-.39a12.3,12.3,0,0,1-14.62.4,11.81,11.81,0,0,1-3.23-3.52c-.14-.23-.51,0-.37.21A12.21,12.21,0,0,0,31,50.53a12.66,12.66,0,0,0,11-2.27.22.22,0,0,0,0-.39,61.18,61.18,0,0,1-7.46-2.95,37,37,0,0,0-3.62-1.66,6.62,6.62,0,0,0-3.5-.3,8.6,8.6,0,0,0-3.72,1.73C23.38,44.86,23.59,45.23,23.81,45.06Z"/><path class="cls-2" d="M19.61,43.91Q25.76,46,32,47.54l3.57.84c.26.06.38-.35.11-.41-4.21-.95-8.39-2.06-12.51-3.34-1.17-.36-2.33-.74-3.49-1.13-.25-.08-.37.33-.11.41Z"/><path class="cls-2" d="M27.94,46.25a3.79,3.79,0,0,1,2.64-.51c.2,0,.2-.3,0-.31a4,4,0,0,0-2.86.59c-.16.13.07.36.22.23Z"/><path class="cls-2" d="M32.05,47.34a6.31,6.31,0,0,1,2.45-.07c.2,0,.29-.27.09-.31A6.84,6.84,0,0,0,32,47c-.2,0-.11.36.09.31Z"/><path class="cls-2" d="M29.72,47a6,6,0,0,0,2.44,1.52c.19.06.28-.25.08-.31A5.51,5.51,0,0,1,30,46.76c-.14-.15-.37.08-.23.23Z"/><path class="cls-2" d="M34.59,48.19a2.38,2.38,0,0,0,.89.68c.08,0,.18,0,.22-.06a.15.15,0,0,0-.06-.21,3.47,3.47,0,0,1-.46-.27s0,0,0,0l0,0,0,0-.1-.09a1.8,1.8,0,0,1-.19-.2.16.16,0,0,0-.22.22Z"/><path class="cls-2" d="M39.06,48.53c-.79.28-1.59.52-2.4.73a.16.16,0,0,0,.08.3q1.21-.3,2.4-.72c.19-.07.11-.38-.08-.31Z"/><path class="cls-2" d="M26.93,44.27a7.4,7.4,0,0,1,1.55-.2.16.16,0,0,0,0-.32,8.87,8.87,0,0,0-1.63.21.16.16,0,0,0,.08.31Z"/></g></svg>