<svg xmlns="http://www.w3.org/2000/svg" width="70" height="70" viewBox="0 0 70 70">
  <defs>
    <style>
      .cls-1 {
        fill: #7dc266;
      }

      .cls-2 {
        fill: #333;
      }
    </style>
  </defs>
  <g id="Layer_182" data-name="Layer 182">
    <path class="cls-1" d="M52,4.75c-2.78,0-5.54.35-8.33.24-3.56-.14-7.16.08-10.72.11-2.6,0-5.19.09-7.77.3-2.37.19-4.75-.2-7.12-.12a4.31,4.31,0,0,0-1.73.41c-.92.43-.76,1.2-.9,2.12a64.46,64.46,0,0,0-.22,9.53c0,8,.41,15.94.41,23.92,0,1.08-.37,2.69.07,3.72.35.82,1.36,1,2.16,1.16a43.66,43.66,0,0,0,9.28.35,6.84,6.84,0,0,0,2.82-.3c.86-.52.59-1.84.59-2.7,0-3.06,0-6.12,0-9.18,0-2.86,1.4-6.75,4.67-7.14a3.78,3.78,0,0,1,3,1c1.14,1.12,1.23,2.61,1.3,4.14.1,2.06.08,4.17.08,6.21,0,1.72.08,3.4.16,5.11,0,.92-.51,2.13.72,2.35a13.39,13.39,0,0,0,2.28,0c1.37,0,2.75,0,4.12-.08s2.55,0,3.83,0a7.41,7.41,0,0,0,3.14-.42c1.15-.55,1-2.9,1-4-.06-2.36,0-4.74-.14-7.1-.13-2.15.3-4.23.31-6.35s0-4-.18-6c-.14-2.22-.47-4.45-.47-6.68,0-2-.17-3.95-.23-5.92a10.37,10.37,0,0,0-.54-3.89A1.85,1.85,0,0,0,52,4.75Zm0,0"/>
    <path class="cls-2" d="M55.34,26.59c-.12-3.29-.25-6.58-.55-9.86-.08-.91-.19-1.82-.23-2.73s-.15-1.73-.17-2.6c0-1.69-.35-3.38-.33-5.07,0-.67,0-1.42-.67-1.8a3,3,0,0,0-1.85-.29c-.75.11-1.51,0-2.26.1a7.92,7.92,0,0,1-1.09,0H45.13c-.64,0-1.28,0-1.91,0-1.14,0-2.25.07-3.38.07s-2.41.14-3.62.24l-.85,0-5.46,0c-1.74,0-3.49,0-5.23.07-1.54,0-3.07.15-4.62.13s-3.35-.54-4.52.65a1.36,1.36,0,0,0-.34.86c0,.38-.18.74-.23,1.12a10.55,10.55,0,0,0-.06,1.13c0,.41-.11.81-.14,1.22-.06.81-.1,1.61-.12,2.42,0,.42.07.81.06,1.22a10.89,10.89,0,0,0,0,1.28,19.11,19.11,0,0,1,0,2.51c0,.89,0,1.77,0,2.66.11,1.78,0,3.58,0,5.36s.09,3.56.08,5.34,0,3.54,0,5.31c0,.89,0,1.79,0,2.69s.08,1.63.07,2.45,0,1.73,0,2.59c0,.68-.25,1.44.18,2a2.69,2.69,0,0,0,1.57.79,12.16,12.16,0,0,0,2.33.28c.79,0,1.59.07,2.38.12s1.56,0,2.33.11a22.94,22.94,0,0,0,5-.06c.56-.06,1.53-.08,1.88-.59a1.92,1.92,0,0,0,.22-1c0-.42.12-.82.16-1.24.07-.88,0-1.78,0-2.67s0-1.73-.1-2.6a37,37,0,0,1-.12-5.16,8.27,8.27,0,0,1,.52-2.55,4.64,4.64,0,0,1,.45-.89c.23-.35.39-.72.65-1.05a4.06,4.06,0,0,1,4.08-1.51c1.66.41,2,2.37,2.24,3.81a22.36,22.36,0,0,1,.14,2.59,23.08,23.08,0,0,1,0,2.63c-.14,1.66.08,3.32,0,5,0,.85-.14,1.68-.13,2.53a3.28,3.28,0,0,0,.19,1.76c.39.67,1.23.54,1.89.54.84,0,1.67-.06,2.51-.07,1.73,0,3.49,0,5.22-.11.83-.06,1.66-.22,2.49-.23A12.56,12.56,0,0,0,53.47,46C55,45.75,55,43.49,55.1,42.3c.13-1.76-.11-3.5,0-5.25,0-.88.06-1.76.06-2.65s.11-1.69.17-2.54,0-1.73,0-2.6,0-1.78,0-2.67ZM51.25,5.41c.42,0,1.42-.28,1.63.23a3.11,3.11,0,0,1,0,1c0,.41,0,.83.09,1.24s.08,1,.1,1.43c-1,0-2,0-3.08.12,0-.07,0-.15,0-.23a2.82,2.82,0,0,0,0-.41,1.41,1.41,0,0,1,0-.2c0-.5,0-1,0-1.49a8.21,8.21,0,0,0-.06-1.71h.18c.4,0,.8,0,1.19,0Zm-5.6,0h1c.84,0,1.69.06,2.53,0h.14c-.06.72,0,1.48,0,2.19,0,.48,0,.94,0,1.41,0,.14,0,.28,0,.41-.45,0-.91,0-1.36,0s-1.11.1-1.67.09h-.54v0c0-.84,0-1.68,0-2.51a14.68,14.68,0,0,0-.11-1.61Zm-2.13.1c.35,0,.68-.09,1-.09h.53a6.56,6.56,0,0,0,0,1.76c.06.79,0,1.58,0,2.38-1.3,0-2.6,0-3.9,0-.05-.76,0-1.51,0-2.27a8.84,8.84,0,0,0-.06-1.78Zm-3,0a.13.13,0,0,0,0,.06,21.52,21.52,0,0,0-.11,2.65,5.84,5.84,0,0,0,0,1.34H36.73s0-.09,0-.13a.39.39,0,0,0,0-.27,9.29,9.29,0,0,1,0-1.18c0-.4-.06-.78-.09-1.18s0-.83-.05-1.23l3.92-.08Zm4.81,4.87c1.75,0,3.49-.1,5.24-.18a2.22,2.22,0,0,1-.12.46c-.15.32-.3.37-.63.44a3.5,3.5,0,0,0-.65.2,2.78,2.78,0,0,0-.69.28,1.65,1.65,0,0,0-.76,1.15,1.41,1.41,0,0,0,0,.84,2.85,2.85,0,0,0,.12.31A3.34,3.34,0,0,0,49,15.5l.27.28a20.36,20.36,0,0,1,2.27,2.08,5,5,0,0,1,.78,1.53,2.23,2.23,0,0,1-.13,1.84c-.53,1-1.75,2.07-2.83,1.06a1.71,1.71,0,0,1-.44-1.44A6.94,6.94,0,0,1,49,19.09a1.7,1.7,0,0,0-.85-2,2.75,2.75,0,0,0-2.64.08,2.72,2.72,0,0,0-1.09,1.19,5.27,5.27,0,0,0-.52,1l-.08.13a6,6,0,0,0-.64,1.29,4,4,0,0,1-.92,1.59,3,3,0,0,1-1.4.85,1.77,1.77,0,0,1-1.79-.8c-.73-1.1,0-2.3.78-3.14.37-.43.75-.85,1.12-1.29l.06-.06c.1-.11.21-.22.3-.33a3.75,3.75,0,0,0,.62-.75A2,2,0,0,0,39.52,14a7.77,7.77,0,0,0-1.31.75,12.4,12.4,0,0,0-1,.76,7.78,7.78,0,0,1-1.63,1.1,2.28,2.28,0,0,1-1.87.12c-.6-.38-.71-1.26-.78-1.91A5,5,0,0,1,33.22,13a4.06,4.06,0,0,1,.7-1.56c.26-.33.59-.68.83-1,3.53,0,7.07,0,10.6,0ZM36,5.63h0c0,.15,0,.29,0,.44a8.51,8.51,0,0,0,0,1c0,.16,0,.31,0,.46s0,.17,0,.25a11.16,11.16,0,0,0,0,1.53.44.44,0,0,0,.08.22v.08l-3.76,0a.28.28,0,0,0,0-.13c0-.17,0-.33-.05-.5s0-.3,0-.38c0-.41,0-.83,0-1.25a9.3,9.3,0,0,0-.06-1.74l3.78,0Zm-5.26,0h.93a10.47,10.47,0,0,0-.05,2.16c0,.45,0,.9,0,1.35a2,2,0,0,0,0,.49h-3.6a.25.25,0,0,0,0-.08,21.38,21.38,0,0,0-.21-2.25c-.06-.51.07-1.1,0-1.62l3-.06Zm-5,.09,1.59,0a2.73,2.73,0,0,0-.06.5,6.23,6.23,0,0,0-.09,1.06c0,.79.09,1.59.14,2.38h-.82c-.6,0-1.19.07-1.78.07H23.49c0-.7-.15-1.41-.16-2.12s0-1.19-.06-1.78c.82,0,1.64-.07,2.46-.08ZM21.16,6c.54,0,1.07-.09,1.61-.13-.06.64-.05,1.29-.06,1.94,0,.39,0,.79,0,1.19a6.51,6.51,0,0,0,.07.76h-.05c-.64,0-1.29,0-1.94.06-.5,0-1-.05-1.5-.06a.22.22,0,0,0,0-.08c0-.17,0-.33,0-.5V8.94s0-.1,0-.15,0-.13,0-.2c0-.29,0-.59,0-.88,0-.08,0-.16,0-.24a7.71,7.71,0,0,0,0-1.52c.68,0,1.35,0,2,0ZM15.81,8.05A7.4,7.4,0,0,1,16.1,7c.1-.32,0-.62.36-.79a1.92,1.92,0,0,1,1-.27c.39,0,.79,0,1.18,0a3.63,3.63,0,0,0,0,.58,10.66,10.66,0,0,0,0,1.6c.06.46-.06,1.11,0,1.62-.5,0-1,0-1.51.07s-1,0-1.44,0a17.15,17.15,0,0,1,.13-1.76Zm.08,17.18c0-1.72.07-3.46,0-5.17,0-.78-.08-1.55-.07-2.32a4.49,4.49,0,0,1,.56-.27l.73-.35a2.62,2.62,0,0,1,1.65-.24c1.22.29.47,1.71.14,2.4-.18.37-.36.71-.52,1.09A5.13,5.13,0,0,0,18,22,3.2,3.2,0,0,0,18.14,23c.09.37.07.71.39,1a2.06,2.06,0,0,0,2.14.18A16.84,16.84,0,0,0,23,22.12a10.71,10.71,0,0,1,2.32-1.75A1.77,1.77,0,0,1,27,20.15a1.66,1.66,0,0,1,1,.91c.53,1.27-.54,1.85-1.39,2.54s-1.69,1.31-2.53,2c-.37.3-.71.65-1.11.92a5.88,5.88,0,0,0-1.1.83A3,3,0,0,0,21,29.75,3.58,3.58,0,0,0,22.14,32c.28.26.66.41,1,.65s.79.54,1.16.84a3.23,3.23,0,0,1,1.17,2.34,4,4,0,0,1-1,3c-.7.74-2.23,1.37-3.09.57s-.91-1.86-1.38-2.76c-.06-.13-.12-.25-.17-.38l0-.16c0-.13-.09-.26-.14-.39s-.14-.41-.22-.62a2,2,0,0,0-.86-1A2.58,2.58,0,0,0,17,33.64a2.26,2.26,0,0,0-.68.08,1.23,1.23,0,0,0-.35.16q0-.47,0-.93c0-.86,0-1.72,0-2.59,0-1.71-.09-3.42-.09-5.13Zm38,17.25a4.94,4.94,0,0,1-.46,2.22c-.18.25-.48.2-.77.24a6.9,6.9,0,0,1-1.2.06,23,23,0,0,0-2.35.18c-.89.09-1.77.09-2.66.1-1.6,0-3.19.1-4.79.13-.42,0-.84,0-1.26,0a2.06,2.06,0,0,1-.43,0h-.07a.55.55,0,0,1,0-.22,13.07,13.07,0,0,1,.07-2c.08-.83.09-1.67.09-2.5S40,39.1,40,38.3c0-1.63.08-3.25,0-4.88A16.2,16.2,0,0,0,39.77,31c0-.08,0-.16,0-.25a3.2,3.2,0,0,1,.17-.43.83.83,0,0,0,.08-.12c.28-.42.6-.84.9-1.25A9,9,0,0,1,42,27.89a4.14,4.14,0,0,1,1.41-.74c.78-.19,2.14-.2,2.69.51.36.45-.07,1.05-.31,1.44a9.38,9.38,0,0,1-1,1.39,11.3,11.3,0,0,0-.78.93c-.26.34-.58.63-.83,1a4.69,4.69,0,0,0-.6,2.41,2.74,2.74,0,0,0,.76,2.11,1.22,1.22,0,0,0,.37.2,1.12,1.12,0,0,0,.88,0,1.64,1.64,0,0,0,.67-.37,5.93,5.93,0,0,0,.51-.72c.2-.39.47-.71.67-1.09l.23-.44,0,0c.37-.59,1-1.45,1.67-1.6a1.48,1.48,0,0,1,.47,0,1.39,1.39,0,0,1,.44.22.3.3,0,0,0,.14,0l.22.19a2,2,0,0,1,.22,1.16,2,2,0,0,1-.33.82c-.41.45-1,.85-1.38,1.24a5.33,5.33,0,0,0-.64.72,2.4,2.4,0,0,0-.51.88A2.6,2.6,0,0,0,47.09,40a2.3,2.3,0,0,0,1.11,1.39,3,3,0,0,0,2,.19,2.82,2.82,0,0,0,1.92-2.56c0-.45,0-.94,0-1.39a2.28,2.28,0,0,1,.07-1.37,1,1,0,0,1,1.73.15l.05.09c0,.33,0,.66,0,1,0,.82.06,1.63.08,2.45a23.4,23.4,0,0,1-.09,2.51Zm.23-10.06c0,.86-.14,1.69-.14,2.55,0,.19,0,.39,0,.59a1.58,1.58,0,0,0-2.05,0,1.6,1.6,0,0,0-.49.94,4,4,0,0,0,0,2c0,.07,0,.14,0,.21a1.94,1.94,0,0,1-.24.95c-.15.25-.16.48-.39.7s-.22.21-.33.3a1.9,1.9,0,0,1-1.15.39H49.3a2.06,2.06,0,0,1-1.25-.53,2.4,2.4,0,0,1-.5-1,2.23,2.23,0,0,1,1-2.39,6.19,6.19,0,0,0,1.55-1.72,2.48,2.48,0,0,0,.2-.44,1.37,1.37,0,0,0,.14-.91,1.74,1.74,0,0,0,0-.22,3,3,0,0,0-.19-.61,1.66,1.66,0,0,0-.82-.79,1.84,1.84,0,0,0-1.8.1,6.12,6.12,0,0,0-1.66,2,8.58,8.58,0,0,0-.74,1.2,1.92,1.92,0,0,1-.36.6.88.88,0,0,1-1,.17c-.5-.27-.59-1.09-.61-1.59a4.78,4.78,0,0,1,.28-1.63,8.75,8.75,0,0,1,.62-1.07l.15-.16c.35-.37.62-.79,1-1.15a6.61,6.61,0,0,0,.71-1,6,6,0,0,0,.48-.68,2.73,2.73,0,0,0,.37-.77,1.36,1.36,0,0,0-.84-1.66,3.84,3.84,0,0,0-2.48-.26,5.81,5.81,0,0,0-2.61,1.6,7.68,7.68,0,0,0-1.12,1.48c-.06.08-.11.16-.16.24a4.72,4.72,0,0,0-.35-1,3.75,3.75,0,0,0-3.3-2.3A5.17,5.17,0,0,0,32.11,28,8.76,8.76,0,0,0,30,31.76a16.05,16.05,0,0,0-.29,5c0,1.66.25,3.3.21,5,0,.82,0,1.65-.06,2.47,0,.39-.11.77-.14,1.15a2.86,2.86,0,0,0,0,.34,1.73,1.73,0,0,0-.31.07,23.54,23.54,0,0,1-2.51.3,9.73,9.73,0,0,1-1.08,0c-.42,0-.83,0-1.25,0-1.51-.15-3-.16-4.54-.3-.77-.07-1.55,0-2.32-.15a5.91,5.91,0,0,1-.94-.25c-.18-.06-.53-.1-.65-.28s0-.72,0-1a8.29,8.29,0,0,0,0-1.22c0-.83,0-1.66,0-2.49s-.08-1.56-.08-2.34,0-1.77,0-2.65c0-.21,0-.42,0-.63a4.3,4.3,0,0,1,.43-.21,1.76,1.76,0,0,1,.91-.08,1.52,1.52,0,0,1,1.31,1.12,10.82,10.82,0,0,0,.53,1.44,10.18,10.18,0,0,1,.61,1.62,3,3,0,0,0,1.67,1.82A3.53,3.53,0,0,0,24.3,40a4.94,4.94,0,0,0,1.81-5.18,3.93,3.93,0,0,0-1.64-2.14c-.39-.28-.77-.58-1.17-.84a3.4,3.4,0,0,1-1.08-.95,2.47,2.47,0,0,1,.33-3.08c.41-.41,1-.65,1.4-1s.87-.76,1.34-1.1c.91-.64,1.78-1.35,2.65-2a2.24,2.24,0,0,0,.92-2.46,2.63,2.63,0,0,0-1.72-1.76c-1-.38-1.86.14-2.72.61a5,5,0,0,0-1.12.88c-.42.41-.88.76-1.29,1.18s-.87.81-1.32,1.2a1.41,1.41,0,0,1-.79.39,2.24,2.24,0,0,1-.44,0,1.23,1.23,0,0,1-.44-.31.63.63,0,0,1-.11-.12c0-.15-.05-.33-.08-.43a2.38,2.38,0,0,1,0-.92A3.46,3.46,0,0,1,19,20.7c.11-.24.21-.47.33-.71.42-.8,1.07-1.86.72-2.78a1.88,1.88,0,0,0-2.26-1.06,4.6,4.6,0,0,0-1.62.63l-.38.2c0-.65,0-1.32,0-2a34.51,34.51,0,0,1-.14-4.66,7.73,7.73,0,0,0,1.29.12c.6,0,1.19-.05,1.79-.05,1.11,0,2.2.11,3.32.06,2.47-.13,4.93-.12,7.4-.11H33.9l0,.06-.52.66a3.16,3.16,0,0,0-.68,1.23,6.39,6.39,0,0,0-.36,3.12l0,.07a1.82,1.82,0,0,0,.19.64,1.87,1.87,0,0,0,1.4,1.4,3.78,3.78,0,0,0,2.72-.79,9.38,9.38,0,0,0,.83-.57l.48-.35c.44-.33.89-.63,1.34-.94a1.57,1.57,0,0,1,1.53-.26,1.36,1.36,0,0,1,.69,1.64c-.2.55-.76.94-1.12,1.39s-.82.93-1.24,1.38a3.93,3.93,0,0,0-.9,1.62,2.29,2.29,0,0,0-.15,1.07,2.16,2.16,0,0,0,1.45,2,1.14,1.14,0,0,0,.25.06l.09,0A2.84,2.84,0,0,0,42.62,23a3.85,3.85,0,0,0,.91-1.18c.26-.55.36-1.15.67-1.67s.53-1,.81-1.46a2.18,2.18,0,0,1,1.42-1.16,1.74,1.74,0,0,1,1.82.47,1,1,0,0,1,.17.84.07.07,0,0,0,0,0c0,.29-.16.59-.18.87v0a3.37,3.37,0,0,0,.35,2.7,2.11,2.11,0,0,0,1.9.84h.09a2.13,2.13,0,0,0,.61-.17A3.71,3.71,0,0,0,53,21c.38-1.18-.27-2.37-.85-3.35s-1.77-1.6-2.57-2.45c-.18-.19-.28-.42-.46-.6a3.12,3.12,0,0,1-.67-.87c-.32-.7.07-1.24.66-1.65a2.55,2.55,0,0,1,.79-.35,2.71,2.71,0,0,0,.68-.17,1,1,0,0,0,.45-.65.65.65,0,0,0,0-.13c0-.19.07-.37.11-.53.66,0,1.31-.05,2-.05,0,.89.09,1.78.2,2.67s.08,1.69.16,2.53.17,1.74.21,2.61c0,.35.11.69.12,1s0,.83.07,1.25c.08.83.15,1.67.15,2.5,0,1.56.15,3.11.15,4.68s0,3.32-.08,5Zm0,0"/>
  </g>
</svg>
