<svg id="LEVELS" xmlns="http://www.w3.org/2000/svg" width="70" height="70" viewBox="0 0 70 70"><defs><style>.cls-1{fill:none;}.cls-2{fill:#cbdf82;}.cls-3{fill:#ffd993;}.cls-4{fill:#ae89be;}.cls-5{fill:#6e9bc9;}.cls-6{fill:#333;}.cls-7{fill:#6b8fad;}.cls-8{fill:#9adbf4;}.cls-9{fill:#494a57;}.cls-10{fill:#946ba6;}</style></defs><g id="SEAL_copy" data-name="SEAL copy"><path class="cls-1" d="M17.45,52.09h1L21.62,44a.36.36,0,0,1,.21-.19A70.1,70.1,0,0,1,32,42.64h-16V55h1.52A1.45,1.45,0,0,1,17.45,52.09Z"/><path class="cls-1" d="M35.36,42.66a65.94,65.94,0,0,1,10.76,1.11.32.32,0,0,1,.23.19l3.17,8.13h.59a1.45,1.45,0,0,1,0,2.9h1.52V42.64H35.36Z"/><path class="cls-1" d="M33,42.64h0Z"/><path class="cls-2" d="M45.68,44.31c-1.37-.25-2.7-.45-4-.6l2,7.54Z"/><path class="cls-2" d="M37.75,51.54l3.08-7.92c-2.2-.23-4.3-.34-6.23-.36Z"/><path class="cls-2" d="M33.69,43.26c-2.1,0-4,.11-5.62.25l2.3,8Z"/><path class="cls-2" d="M27.21,43.59c-2.51.25-4.24.57-4.92.71l2.05,7.11Z"/><path class="cls-3" d="M34.74,42.65h0Z"/><polygon class="cls-4" points="48.87 52.09 46.11 45.02 44.07 52.09 48.87 52.09"/><polygon class="cls-4" points="41.21 44.34 38.19 52.09 43.27 52.09 41.21 44.34"/><polygon class="cls-4" points="30.77 52.09 37.3 52.09 34.14 43.78 30.77 52.09"/><polygon class="cls-4" points="27.63 44.21 24.75 52.09 29.91 52.09 27.63 44.21"/><polygon class="cls-4" points="19.06 52.09 23.9 52.09 21.86 45.02 19.06 52.09"/><path class="cls-5" d="M17.45,52.7a.84.84,0,0,0,0,1.67H50.11a.84.84,0,0,0,0-1.67H17.45Z"/><path class="cls-6" d="M34,43.39l0,.08a.37.37,0,0,1,.15,0,.34.34,0,0,1,.17,0l0-.09a.39.39,0,0,1,0-.33l.07-.06a3.8,3.8,0,0,0-.47,0A.34.34,0,0,1,34,43.39Z"/><path class="cls-6" d="M24.42,52l.09-.26a.35.35,0,0,1-.18,0,.43.43,0,0,1-.18-.06l.09.29a.35.35,0,0,1-.06.31s0,0-.05.05h.4A.33.33,0,0,1,24.42,52Z"/><path class="cls-6" d="M30.45,52l.08-.19a.42.42,0,0,1-.31,0c0,.3,0,.48-.25.58h.57A.35.35,0,0,1,30.45,52Z"/><path class="cls-6" d="M43.73,52a3.47,3.47,0,0,0,.23-.71c-.12.25-.22.38-.28.32a.35.35,0,0,1-.2-.07l.12.47a.33.33,0,0,1-.06.3s0,0-.06.05h.37A.35.35,0,0,1,43.73,52Z"/><path class="cls-6" d="M50.11,52.09h-.59L46.35,44a.32.32,0,0,0-.23-.19,65.94,65.94,0,0,0-10.76-1.11v0h-.28a.36.36,0,0,1-.13.28c2,0,4,.15,5.92.35a.36.36,0,0,1,.29.47l-.11.29a.39.39,0,0,1,.35,0l-.06-.25a.34.34,0,0,1,.07-.32.35.35,0,0,1,.3-.12c1.35.16,2.71.36,4,.61a.35.35,0,0,1,.27.44,3.76,3.76,0,0,0-.19.59c.12-.26.22-.39.29-.32a.33.33,0,0,1,.32.22L49.19,52a.35.35,0,0,1,0,.33s0,0-.08.06h1.05a1.19,1.19,0,0,1,0,2.37H17.43a1.19,1.19,0,0,1-1-1.82,1.1,1.1,0,0,1,1-.55h1.41a.34.34,0,0,1-.1-.39c.18-.13,2.69-7.59,3.13-7.29a.28.28,0,0,1,.18.06L22,44.4a.39.39,0,0,1,0-.28c.86-.47,2.39-.5,5.18-.88a.36.36,0,0,1,.37.47l-.08.2a.38.38,0,0,1,.36,0l-.09-.31a.35.35,0,0,1,.05-.3,25.07,25.07,0,0,1,5.6-.39l-.06,0s-.07-.11-.07-.24H32a70.1,70.1,0,0,0-10.13,1.13.36.36,0,0,0-.21.19l-3.21,8.13h-1a1.45,1.45,0,0,0,0,2.9H50.11A1.45,1.45,0,0,0,50.11,52.09Z"/><path class="cls-6" d="M37.53,52.35H38a.34.34,0,0,1-.1-.39l0-.11a.35.35,0,0,1-.33,0l.05.12A.34.34,0,0,1,37.53,52.35Z"/><path class="cls-6" d="M41.55,44.25l1.93,7.28a.35.35,0,0,0,.2.07c.06.06.16-.07.28-.32.43-1.54,1.34-5.14,1.86-6.28a3.76,3.76,0,0,1,.19-.59.35.35,0,0,0-.27-.44c-1.32-.25-2.68-.45-4-.61a.35.35,0,0,0-.3.12.34.34,0,0,0-.07.32l.06.25A.38.38,0,0,1,41.55,44.25Zm4.13.06-2,6.94-2-7.54C43,43.86,44.31,44.06,45.68,44.31Z"/><path class="cls-6" d="M34.38,43l-.07.06a.39.39,0,0,0,0,.33l0,.09a.35.35,0,0,1,.16.18l3.11,8.18a.35.35,0,0,0,.33,0l3-7.64a.3.3,0,0,1,.17-.18l.11-.29a.36.36,0,0,0-.29-.47c-1.94-.2-3.93-.32-5.92-.35A.86.86,0,0,1,34.38,43Zm3.37,8.54L34.6,43.26c1.93,0,4,.13,6.23.36Z"/><path class="cls-6" d="M28,44.11c1.13,4.63,2.18,6.73,2.25,7.66a.42.42,0,0,0,.31,0l3.29-8.12a.33.33,0,0,1,.17-.18l0-.08a.34.34,0,0,0-.11-.4h0c-.22,0-.35,0-.48-.07a25.07,25.07,0,0,0-5.6.39.35.35,0,0,0-.05.3l.09.31A.32.32,0,0,1,28,44.11Zm5.72-.85-3.32,8.2-2.3-8C29.69,43.37,31.59,43.26,33.69,43.26Z"/><path class="cls-6" d="M22.19,44.92l2,6.78a.43.43,0,0,0,.18.06.35.35,0,0,0,.18,0l2.79-7.62a.29.29,0,0,1,.16-.18l.08-.2a.36.36,0,0,0-.37-.47c-2.79.38-4.32.41-5.18.88a.39.39,0,0,0,0,.28l.1.33A.3.3,0,0,1,22.19,44.92Zm5-1.33-2.87,7.82L22.29,44.3C23,44.16,24.7,43.84,27.21,43.59Z"/><path class="cls-6" d="M34.74,42.65H33.25c0,.13,0,.22.07.24l.06,0h.31a.33.33,0,0,1,.22.08,3.8,3.8,0,0,1,.47,0,.36.36,0,0,1,.22-.09H35a.36.36,0,0,0,.13-.28h-.34Z"/><path class="cls-6" d="M34.38,43a.86.86,0,0,0,.57-.08H34.6A.36.36,0,0,0,34.38,43Z"/><path class="cls-6" d="M33.86,43h0a.33.33,0,0,0-.22-.08h-.31C33.51,43,33.64,43,33.86,43Z"/><path class="cls-6" d="M43.73,52a.35.35,0,0,0,.12.36h5.23c.06,0,.09,0,.08-.06a.35.35,0,0,0,0-.33L46.43,44.9a.33.33,0,0,0-.32-.22c-.07-.07-.17.06-.29.32-.41,1.46-1.33,5.16-1.86,6.28A3.47,3.47,0,0,1,43.73,52Zm2.38-7,2.76,7.06h-4.8Z"/><path class="cls-6" d="M45.82,45c-.52,1.14-1.43,4.74-1.86,6.28C44.49,50.16,45.41,46.46,45.82,45Z"/><path class="cls-6" d="M37.91,51.85l0,.11a.34.34,0,0,0,.1.39h5.51s.05,0,.06-.05a.33.33,0,0,0,.06-.3l-.12-.47a.3.3,0,0,1-.14-.19L41.4,44.05a.39.39,0,0,0-.35,0l-3,7.64A.37.37,0,0,1,37.91,51.85Zm3.3-7.51,2.06,7.75H38.19Z"/><path class="cls-6" d="M43.48,51.53l-1.93-7.28a.38.38,0,0,0-.15-.2l1.94,7.29A.3.3,0,0,0,43.48,51.53Z"/><path class="cls-6" d="M40.88,44.21l-3,7.64a.37.37,0,0,0,.17-.18l3-7.64A.3.3,0,0,0,40.88,44.21Z"/><path class="cls-6" d="M34,43.47l-3.3,8.12a.32.32,0,0,1-.16.18l-.08.19a.35.35,0,0,0,.09.39h7a.34.34,0,0,0,.1-.39l-.05-.12a.3.3,0,0,1-.16-.17l-3.11-8.19a.34.34,0,0,0-.17,0A.37.37,0,0,0,34,43.47Zm-3.22,8.62,3.37-8.31,3.16,8.31Z"/><path class="cls-6" d="M37.58,51.84l-3.11-8.18a.35.35,0,0,0-.16-.18l3.11,8.19A.3.3,0,0,0,37.58,51.84Z"/><path class="cls-6" d="M30.69,51.59,34,43.47a.33.33,0,0,0-.17.18l-3.29,8.12A.32.32,0,0,0,30.69,51.59Z"/><path class="cls-6" d="M24.51,51.71l-.09.26a.33.33,0,0,0,.11.38H30c.2-.1.27-.28.25-.58a.33.33,0,0,1-.19-.21l-2.21-7.64a.38.38,0,0,0-.36,0l-2.79,7.62A.35.35,0,0,1,24.51,51.71Zm3.12-7.5,2.28,7.88H24.75Z"/><path class="cls-6" d="M30.22,51.77c-.07-.93-1.12-3-2.25-7.66a.32.32,0,0,0-.15-.19L30,51.56A.33.33,0,0,0,30.22,51.77Z"/><path class="cls-6" d="M27.3,44.09l-2.79,7.62a.35.35,0,0,0,.16-.18l2.79-7.62A.29.29,0,0,0,27.3,44.09Z"/><path class="cls-6" d="M24.18,52.3a.35.35,0,0,0,.06-.31l-.09-.29a.34.34,0,0,1-.14-.19l-2-6.78a.28.28,0,0,0-.18-.06c-.44-.3-2.95,7.16-3.13,7.29a.34.34,0,0,0,.1.39h5.29S24.19,52.32,24.18,52.3Zm-5.12-.21L21.86,45l2,7.07Z"/><path class="cls-6" d="M24.15,51.7l-2-6.78a.3.3,0,0,0-.14-.19l2,6.78A.34.34,0,0,0,24.15,51.7Z"/><path class="cls-6" d="M44.07,52.44a.39.39,0,0,1-.22-.09h-.37a.33.33,0,0,1-.21.09H38.19a.31.31,0,0,1-.22-.09h-.44a.32.32,0,0,1-.23.09H30.77a.35.35,0,0,1-.23-.09H30c-.56.29-2.09,0-5.22.09a.34.34,0,0,1-.22-.09h-.4c-.54.2-5,0-5.07.09a.31.31,0,0,1-.22-.09H17.43a1.1,1.1,0,0,0-1,.55,1.19,1.19,0,0,0,1,1.82h32.7a1.19,1.19,0,0,0,0-2.37H49.08C48.47,52.56,44.18,52.38,44.07,52.44Zm6,.26a.84.84,0,0,1,0,1.67H17.45a.84.84,0,0,1,0-1.67H50.11Z"/><path class="cls-6" d="M44.07,52.44c.11-.06,4.4.12,5-.09H43.85A.39.39,0,0,0,44.07,52.44Z"/><path class="cls-6" d="M43.27,52.44a.33.33,0,0,0,.21-.09H38a.31.31,0,0,0,.22.09Z"/><path class="cls-6" d="M30.77,52.44H37.3a.32.32,0,0,0,.23-.09h-7A.35.35,0,0,0,30.77,52.44Z"/><path class="cls-6" d="M24.75,52.44c3.13-.08,4.66.2,5.22-.09H24.53A.34.34,0,0,0,24.75,52.44Z"/><path class="cls-6" d="M24.13,52.35H18.84a.31.31,0,0,0,.22.09C19.14,52.4,23.59,52.55,24.13,52.35Z"/><path class="cls-7" d="M32,42.64h0Z"/><path class="cls-7" d="M49.93,21.91a2.83,2.83,0,0,0-3.78-.77.45.45,0,0,0-.22.41,10.86,10.86,0,0,1-2.11,7.21,5,5,0,0,1-5.88,1.37C29.07,26.82,34.38,17.66,29.48,14c-2.38-1.75-3.68.16-6.8-1.09a.43.43,0,0,0-.26.25c-1,2.16-3,.29-3.13,1.39a4.54,4.54,0,0,0,1.09,3.31c.74,1,1.29,1.88.28,4a21,21,0,0,0-1.06,4,.45.45,0,0,0,.64.47,6.49,6.49,0,0,1,2.88-.76c7.34.61,5.33,13.22,7.59,17.33,1.22,3.2,2.06,6.29,4.64,5.16a.46.46,0,0,0,.23-.51C36,48,37.64,45.72,37,45.41c1.59-.49,1.09-6.23.88-7.27a.44.44,0,0,0,.56,0C40.59,36.52,45,35,47.92,36a.46.46,0,0,0,.26-.25,22.64,22.64,0,0,0,1.08-4.06c.7-4.24.23-6,.67-9.76Z"/><path class="cls-8" d="M52.24,15.44c-1.9-1.56-6.33-1.46-8.27-.71a.45.45,0,0,0-.3.3.48.48,0,0,0,.08.42,10.5,10.5,0,0,1,2.11,5.29c.24,1.11,2-.89,3.63.84a.46.46,0,0,0,.43.11.47.47,0,0,0,.32-.31A37.36,37.36,0,0,1,52.4,16a.44.44,0,0,0-.16-.57Zm0,0"/><path class="cls-8" d="M47.61,35.87c-3.07-1.38-8.51,1.51-9.55,2.43a.45.45,0,0,0-.19.43,16.16,16.16,0,0,1,.1,3.84.44.44,0,0,0,.11.35c4.5.51,8.11-2.51,9.8-6.44a.47.47,0,0,0-.27-.61Z"/><path class="cls-8" d="M30.18,42.89a.45.45,0,0,0,.43-.57A38.46,38.46,0,0,1,29,34c-.22-5.38-3.74-10.74-9.31-7.43-.67,1-.19,3.88-.06,5.36.18,4.75,6,10,10.53,11Z"/><path class="cls-9" d="M19.75,14.25a2.09,2.09,0,0,0,2.78-1.05.44.44,0,0,0-.22-.56,1.76,1.76,0,0,0-2.79,1,.45.45,0,0,0,.23.6Zm0,0"/><path class="cls-6" d="M24.84,16a1.85,1.85,0,0,0,.58-.11.39.39,0,0,0-.26-.74.66.66,0,0,1-.9-.38.4.4,0,0,0-.75.27,1.44,1.44,0,0,0,1.33,1Zm0,0"/><path class="cls-10" d="M26.08,6.56C25.94-1,14.65-1,14.52,6.56c.14,7.59,11.43,7.59,11.56,0Z"/><path class="cls-6" d="M36.24,47.83A7,7,0,0,0,37.52,46a9,9,0,0,0,.79-2.54,9.32,9.32,0,0,0,2.24-.2,11.43,11.43,0,0,0,1.81-.58,12.17,12.17,0,0,0,5-4.38,15.41,15.41,0,0,0,2.25-6.53A38.21,38.21,0,0,0,50,24.46c-.05-2.93,2.79-8.54,2.82-8.6a.4.4,0,0,0-.12-.49c-3.95-2.91-9.25-.85-9.47-.76a.4.4,0,0,0-.13.65,9,9,0,0,1,2.45,6c.12,4.75-2.06,10.45-7.53,8.51-3.08-1.06-5.72-4.44-5.55-7.74.12-3.79-.91-6.82-2.82-8.32-2.73-2.06-4,.45-7.28-1.44a6.13,6.13,0,1,0-2.69.34c-1.34,1.86-.89,4,.8,6,.64.74.41,1.5-.16,3.15a20.63,20.63,0,0,0-1.19,4.88v0A21.07,21.07,0,0,0,19.32,32,12.07,12.07,0,0,0,20.13,35a13.59,13.59,0,0,0,5.39,6.18,20.66,20.66,0,0,0,2.86,1.5,21,21,0,0,0,2,.74l.31.74c.84,2.35,1.91,4.24,3.19,4.62a1.88,1.88,0,0,0,.62.08,2,2,0,0,0,1.08-.42A5.45,5.45,0,0,0,36.24,47.83ZM15,6.56a5.33,5.33,0,1,1,5.33,5.33A5.33,5.33,0,0,1,15,6.56ZM22.11,13a1.62,1.62,0,0,1-2.18.79C20.38,12.86,20.73,12.37,22.11,13Zm-2,18.86A20.6,20.6,0,0,1,19.93,27c6-3.3,8.37,2.76,8.64,7.07a38.16,38.16,0,0,0,1.61,8.4C25.81,41.33,20.39,36.72,20.09,31.9Zm25,8a9.47,9.47,0,0,1-6.71,2.77,16.92,16.92,0,0,0-.1-3.95c1-.68,5.48-3.67,9.14-2.37A11.83,11.83,0,0,1,45.13,39.85Zm3.68-8.26a21.55,21.55,0,0,1-1.05,4c-2.43-1.18-7.38.54-9.58,2.23a19.24,19.24,0,0,0-.64-2.59.4.4,0,0,0-.75.26c0,.06,1.82,5.4.3,9.5a7.64,7.64,0,0,1-1.37-2.5.39.39,0,0,0-.76.21,8.89,8.89,0,0,0,1.77,3.1,6.81,6.81,0,0,1-1,1.45A6.36,6.36,0,0,1,33.63,43a.39.39,0,0,0-.78.12,7.33,7.33,0,0,0,2.29,4.69c-1.9,1-2.85-1.71-4-4.9A38.81,38.81,0,0,1,29.35,34c-.2-4.43-3-11.08-9.31-7.94a21.09,21.09,0,0,1,1.05-4C23,17.86,19.47,18,19.74,14.6a2.38,2.38,0,0,0,3.1-1.25c2.62,1.41,4.21-.65,6.36,1C30,15,31.87,17,31.71,22.05a9.14,9.14,0,0,0,6.08,8.51c2.56.91,4.94.34,6.38-1.53a11.2,11.2,0,0,0,2.21-7.51,2.36,2.36,0,0,1,3.18.64C48.83,25.47,49.64,27.05,48.81,31.59Zm1-10.34a3,3,0,0,0-3.5-.56,10.89,10.89,0,0,0-2.21-5.53c1.37-.41,5-1.24,7.89.65A39.61,39.61,0,0,0,49.81,21.25Z"/></g></svg>