<svg id="LEVELS" xmlns="http://www.w3.org/2000/svg" width="70" height="70" viewBox="0 0 70 70"><defs><style>.cls-1{fill:#fee07b;}.cls-2{fill:#fad864;}.cls-3{fill:#333;}.cls-4{fill:#fff;stroke:#333;stroke-miterlimit:10;}.cls-5{fill:#538dc9;}.cls-6{fill:#8db8e2;}</style></defs><g id="Layer_176" data-name="Layer 176"><path class="cls-1" d="M26.7,24c-.12-.95-.25-1.75-.35-2.33,0-.15-.06-.39-.11-.68-.81-4.73-1.22-6.14-2.35-8.54-1.46-3.08-1.23-8.84-1.13-10.53a.4.4,0,0,0-.46-.41c-9.68,2-11.11,6-9.84,16,1.13,7.87,5.71,15.05,13.46,15.26.36,0,1,.1,1-.4.08-1.22.1-2.27.09-3.07A44.11,44.11,0,0,0,26.7,24Z"/><path class="cls-2" d="M32.78,3.16C30.67,1.21,26.42.9,23,1.35c-1,.8-.45,8.46.78,11.09A43.67,43.67,0,0,1,26.15,21c0,.12.07.3.11.55a40.22,40.22,0,0,1,.49,4.06c0,.38.05.57.05.67a36.08,36.08,0,0,1,.07,5.93.39.39,0,0,0,.45.41C39.7,31,39.76,9.68,32.78,3.16Z"/><path class="cls-3" d="M37.48,13.79C36.67,8.2,35.27,4.85,33,2.94,29.36-.91,15.74,1.09,13.38,5.81c-1.66,2.49-2,6.1-1.21,11.69.75,5.12,2.73,9.32,5.72,12.13a10.94,10.94,0,0,0,17.59-2.57c2.06-3.56,2.75-8.15,2-13.27ZM18.36,29.13c-2.88-2.7-4.79-6.76-5.52-11.73C12.05,12,12.39,8.53,14,6.19,15.39,4,18,2.68,22.37,1.85c-.1,1.67-.34,7.54,1.16,10.72A35.61,35.61,0,0,1,25.85,21a3.17,3.17,0,0,1-1.3-.36.34.34,0,0,0-.34.6,3.78,3.78,0,0,0,1.73.45h0c.21,1.33.37,2.67.48,4-1.82.38-5.37-.81-6.25-1.47a2.66,2.66,0,0,1,1.09-.85.34.34,0,0,0-.27-.63A3.9,3.9,0,0,0,18.83,26a.35.35,0,0,0,.69,0,3.55,3.55,0,0,1,.32-1.24c1,.72,4.64,2,6.67,1.55a45.87,45.87,0,0,1,.06,5.95,10.83,10.83,0,0,1-8.21-3.16Zm16.52-2.42a10.65,10.65,0,0,1-7.62,5.5,44.27,44.27,0,0,0-.07-6A8.54,8.54,0,0,0,32.24,23a4,4,0,0,1,.65,1.07.34.34,0,0,0,.65-.22,3.92,3.92,0,0,0-3-2.52.34.34,0,0,0-.08.68,2.76,2.76,0,0,1,1.32.52,8,8,0,0,1-4.6,3c-.12-1.36-.29-2.69-.49-4A2.5,2.5,0,0,0,28,20.66a.34.34,0,0,0-.55-.41,1.83,1.83,0,0,1-.9.66,36.89,36.89,0,0,0-2.39-8.63C22.69,9.18,23,3.11,23.06,1.74c4.52-.49,7.45.05,9.47,1.73s3.48,5,4.28,10.42c.72,5,.06,9.4-1.93,12.82Zm0,0"/><path class="cls-4" d="M20.87,14.22a2.23,2.23,0,0,1,1.07.9c-1.79,1-3.3,1.26-4.36.83a2.45,2.45,0,0,1-1.27-1.18C18.22,14,19.79,13.75,20.87,14.22Z"/><path class="cls-4" d="M28.19,13.15c.9-.76,2.47-1,4.54-.78a2.47,2.47,0,0,1-.87,1.48c-.89.72-2.42.88-4.42.47A2.25,2.25,0,0,1,28.19,13.15Z"/><path class="cls-3" d="M34,9.35A5.74,5.74,0,0,0,28.6,9a6.88,6.88,0,0,0-2.12,1.51c-.29.34.24.79.52.45a5.25,5.25,0,0,1,6.68-1A.34.34,0,0,0,34,9.35Zm0,0"/><path class="cls-3" d="M21.38,11.73a.34.34,0,0,0,.37-.57,6.46,6.46,0,0,0-2.46-.85,5.75,5.75,0,0,0-5.08,1.94.34.34,0,0,0,.5.47,5.24,5.24,0,0,1,6.67-1Zm0,0"/><path class="cls-5" d="M40.9,39.93a60.55,60.55,0,0,0-2.11,8.36,14.4,14.4,0,0,0,9.43-1.35c3.42-1.89,5.09-4.93,6.62-7.72a21.22,21.22,0,0,0,2.28-5.7c.69-2.88,1.47-6.18-.12-9.34-2.1-4.17-6.91-5.26-7.79-5.44a18.63,18.63,0,0,1-2.37,9A50.7,50.7,0,0,0,44,32.27a55.75,55.75,0,0,0-2.29,5.36C41.55,38.05,41.23,38.94,40.9,39.93Z"/><path class="cls-6" d="M49.1,18.46c-3.73-1.41-8.38-1.7-11.11.61C33.06,22.81,29.52,35,32,41c1.21,3.45,3.67,6.52,6.93,7.14C40.1,42.87,40.68,40.79,41,40l.45-1.25c.35-1,.6-1.67.62-1.72a59.69,59.69,0,0,1,4-7.88,26,26,0,0,0,2.45-5.84,26.74,26.74,0,0,0,.85-4.55Z"/><path class="cls-3" d="M57.63,24.78c-1.08-2.68-3.53-4.85-8.16-6.51C39.73,14.79,36.15,18,32.4,27.7c-1.77,4.87-2,9.5-.72,13.4a10.93,10.93,0,0,0,16.69,6.09c3.5-2.14,6.3-5.85,8.07-10.72,1.94-5.3,2.3-8.91,1.19-11.69Zm-25.3,16.1c-1.25-3.75-1-8.22.72-13,3.19-9.26,7.54-12,15.92-9.1-.2,1.36-1.15,7.36-3.21,10.1a37.52,37.52,0,0,0-4.09,8,1.8,1.8,0,0,1-.74-.84.34.34,0,0,0-.62.29,2.42,2.42,0,0,0,1.12,1.19c-.21.55-.42,1.12-.62,1.7a11.23,11.23,0,0,0-5.32.37,3.09,3.09,0,0,1-.05-1.11.35.35,0,0,0-.68-.12,3.6,3.6,0,0,0,1.35,3.36c.36.26.77-.31.4-.56a2.41,2.41,0,0,1-.79-.92,10.64,10.64,0,0,1,4.87-.37,48,48,0,0,0-1.92,7.93,10.68,10.68,0,0,1-6.34-6.94ZM55.8,36.24C54.08,41,51.38,44.54,48,46.61A10.78,10.78,0,0,1,39.34,48a47.17,47.17,0,0,1,1.93-8,6.94,6.94,0,0,1,4.31,3.79,2.45,2.45,0,0,1-1.21.21.34.34,0,0,0-.06.68A3.55,3.55,0,0,0,47.5,43a.34.34,0,0,0-.59-.35,3.09,3.09,0,0,1-.74.8,7.65,7.65,0,0,0-4.68-4.07c.19-.55.38-1.09.59-1.64h0a3.7,3.7,0,0,0,1.79-.09.34.34,0,0,0-.21-.65,3.58,3.58,0,0,1-1.35.08,36,36,0,0,1,4-7.78c2.11-2.81,3.08-8.61,3.32-10.26C53.74,20.77,56,22.62,57,25c1,2.61.68,6.06-1.19,11.2Zm0,0"/><path class="cls-4" d="M41.62,29a2.3,2.3,0,0,1,.52,1.31c-2,0-3.5-.47-4.24-1.35a2.44,2.44,0,0,1-.55-1.63C39.42,27.45,40.89,28,41.62,29Z"/><path class="cls-4" d="M52.93,33a2.38,2.38,0,0,1-1.46.89c-1.14.22-2.55-.37-4.12-1.69C48.85,30.78,50.78,31.5,52.93,33Z"/><path class="cls-3" d="M36.7,25.69a.34.34,0,0,0,.26-.05,5.22,5.22,0,0,1,6.72.55c.31.32.81-.17.49-.48A6.29,6.29,0,0,0,42,24.33a5.73,5.73,0,0,0-5.39.74.35.35,0,0,0,.12.62Zm0,0"/><path class="cls-3" d="M48.9,27.78a5.24,5.24,0,0,1,5.15,4.35.34.34,0,0,0,.67-.13,5.74,5.74,0,0,0-3.29-4.32,6.48,6.48,0,0,0-2.54-.59.35.35,0,0,0,0,.69Zm0,0"/></g></svg>