<svg id="LEVELS" xmlns="http://www.w3.org/2000/svg" width="70" height="70" viewBox="0 0 70 70"><defs><style>.cls-1{fill:#4cafaf;}.cls-2,.cls-4{fill:#fff;}.cls-2{opacity:0.5;}.cls-3{fill:#333;}.cls-4{opacity:0.8;}</style></defs><g id="TUBE2_copy" data-name="TUBE2 copy"><path class="cls-1" d="M21,40.4a4.82,4.82,0,0,0-.53,3.38A4,4,0,0,0,22.22,46q6,.3,12.64.28c4.34,0,8.5-.18,12.45-.42a3.8,3.8,0,0,0,2.3-2c.55-1.43-.36-3.28-.72-4-1.29-2.49-3-6-5.06-10.41a1.12,1.12,0,0,0-.17-.35.8.8,0,0,0-.14-.14c-2.2-1.72-8.33-1.78-8.33-1.78s-6.46-.07-8.39,1.64a1.9,1.9,0,0,0-.21.23,1.71,1.71,0,0,0-.22.42C25.93,30.32,23.32,35.43,21,40.4Z"/><path class="cls-2" d="M43.66,29.09a.38.38,0,0,1-.11.22,5.39,5.39,0,0,1-2.93,1.39c-3.52.38-5.28.57-6.28.57A14.62,14.62,0,0,1,28,30.2c-1-.44-1.42-.81-1.4-1.16s.81-.78,1.95-1.1a23.12,23.12,0,0,1,7.3-.76,24.7,24.7,0,0,1,5,.64C41.58,28,43.68,28.51,43.66,29.09Z"/><g id="Layer_28_copy" data-name="Layer 28 copy"><path class="cls-3" d="M29.24,5.55c0,2.74,0,5.49,0,8.23,0,.77,0,1.54-.1,2.3l0,.34s0,.1,0,.14,0,0,0,0c-.09.41-.19.82-.31,1.21a16.82,16.82,0,0,1-1,2.26l-2,4.15-6.9,14.42A18.83,18.83,0,0,0,17.41,42a6.1,6.1,0,0,0,.23,3.89,4.06,4.06,0,0,0,2.71,2.46,10.6,10.6,0,0,0,2.32.29c3.75.22,7.52.09,11.28,0,3.38-.08,6.76-.08,10.15-.17.95,0,1.89-.06,2.84-.11a7.89,7.89,0,0,0,2.81-.5,5.09,5.09,0,0,0,2.49-2.18,5.37,5.37,0,0,0,.4-3.76,8.45,8.45,0,0,0-.37-1.21c-.22-.57-.53-1.08-.79-1.62q-1.08-2.16-2.14-4.32-1.85-3.72-3.66-7.45c-1.35-2.75-2.72-5.5-4-8.29l-.12-.26c.06.14,0,.09,0,.05s-.14-.34-.2-.51-.2-.52-.28-.79-.18-.65-.26-1-.07-.36-.11-.54a1.85,1.85,0,0,0,0-.23s-.05-.39,0-.17a2.28,2.28,0,0,1,0-.26c-.14-1.82-.1-3.66-.1-5.48,0-1.49,0-3,0-4.45a.39.39,0,0,0-.78,0c0,2.63,0,5.27,0,7.9a15.09,15.09,0,0,0,.55,4.38,19.71,19.71,0,0,0,1.06,2.56c.62,1.31,1.25,2.61,1.88,3.92q3.45,7.09,7,14.16a22.59,22.59,0,0,1,1.5,3.19,5.08,5.08,0,0,1,0,3.46,4.28,4.28,0,0,1-2.48,2.24,8.22,8.22,0,0,1-2.52.37c-3.81.18-7.62.19-11.44.24-3.25,0-6.49.15-9.75.11-.93,0-1.87,0-2.8-.09a9.71,9.71,0,0,1-2.22-.28c-2.52-.72-2.94-3.81-2.18-6a19.29,19.29,0,0,1,.82-1.79l1-2.14,1.95-4.06,3.31-6.93c1.19-2.5,2.39-5,3.57-7.48A9,9,0,0,0,29.87,16C30,14,30,12,30,10c0-1.48,0-3,0-4.44a.39.39,0,0,0-.78,0Z"/><path class="cls-3" d="M31.6,10.61c0,1.22,0,2.43,0,3.65,0,.86,0,1.73,0,2.59a11,11,0,0,1-.44,2.54,4.34,4.34,0,0,1-.2.5c-.84,1.88-1.77,3.73-2.68,5.58-1.28,2.62-2.58,5.23-3.89,7.85l-3,6a15.12,15.12,0,0,0-.88,1.92c-.63,1.82-.16,4.12,1.78,4.93a8.62,8.62,0,0,0,3.08.33l3.35.06c2.33,0,4.66,0,7-.08,3.3-.09,6.62-.23,9.93-.22.32,0,.65,0,1,0A3.33,3.33,0,0,0,49,45.05a4,4,0,0,0,.83-1.76,5.25,5.25,0,0,0-.52-3c-.49-1.07-1.06-2.11-1.58-3.16-.6-1.23-1.18-2.47-1.77-3.71-1.14-2.44-2.26-4.9-3.39-7.34-.58-1.25-1.16-2.49-1.76-3.72s-1.08-2.14-1.58-3.23a10,10,0,0,1-.86-3.43c-.06-.94,0-1.88-.07-2.81,0-1.14-.06-2.27-.13-3.41,0-.33-.53-.33-.51,0,.06,1.14.11,2.27.13,3.41,0,.93,0,1.87.06,2.81A10.5,10.5,0,0,0,38.68,19c.42,1,1,2,1.43,2.94,2.33,4.8,4.47,9.69,6.78,14.49q.87,1.8,1.77,3.57a5.6,5.6,0,0,1,.75,2.75,3.47,3.47,0,0,1-.76,1.94,2.91,2.91,0,0,1-2.48,1.09c-.77,0-1.54,0-2.31,0q-2.51,0-5,.12c-4.59.11-9.17.2-13.76.1A6.07,6.07,0,0,1,22,45.55a3.05,3.05,0,0,1-1.35-2.2,5.64,5.64,0,0,1,.85-3.29q1.32-2.66,2.66-5.31C25.45,32.17,26.74,29.59,28,27c1-2,2-4.09,3-6.16a11.43,11.43,0,0,0,.58-1.35,19.05,19.05,0,0,0,.5-5.37l0-3.51a.26.26,0,0,0-.51,0Z"/><path class="cls-3" d="M31.64,3.16A4.14,4.14,0,0,0,29.53,4.7a1.3,1.3,0,0,0-.2,1.21,1.85,1.85,0,0,0,.83.83,6.84,6.84,0,0,0,3.29.8c1.14,0,2.3,0,3.45-.07a5.62,5.62,0,0,0,2-.43c.69-.34,1.66-.92,1.68-1.79s-1.09-1.46-1.82-1.77A9.59,9.59,0,0,0,35,2.7a9.9,9.9,0,0,0-3.33.46c-.46.17-.26.92.21.75a8.3,8.3,0,0,1,2.47-.41,9.19,9.19,0,0,1,3.09.3,5.34,5.34,0,0,1,2.22,1.07c.57.58-.42,1.13-.87,1.37a3.63,3.63,0,0,1-1.4.42c-1,.1-2.06.11-3.08.11a13.24,13.24,0,0,1-1.78-.06h0l-.11,0-.18,0c-.2-.05-.41-.1-.62-.17-.4-.12-1.76-.51-1.5-1.13a3,3,0,0,1,1.79-1.44C32.31,3.73,32.11,3,31.64,3.16Z"/><path class="cls-3" d="M26.44,29.41a6.87,6.87,0,0,0,3.16,1.83,14.5,14.5,0,0,0,3.77.43.26.26,0,0,0,0-.51,15,15,0,0,1-3.53-.39,6.33,6.33,0,0,1-3-1.73c-.23-.24-.6.13-.37.37Z"/><path class="cls-3" d="M32.18,27.58a24.19,24.19,0,0,1,4.34-.09c.33,0,.33-.5,0-.52a26.2,26.2,0,0,0-4.34.09c-.33,0-.33.56,0,.52Z"/><path class="cls-4" d="M23.64,39l3.27-6.6c.3-.6-.59-1.12-.89-.52q-1.64,3.3-3.28,6.6c-.29.6.6,1.12.9.52Z"/></g><path class="cls-3" d="M42.54,32.51a1.23,1.23,0,0,0-.78,1.17,1.34,1.34,0,0,0,.91,1.17,1,1,0,0,0,1.21-.55A1.31,1.31,0,0,0,44,33a1.14,1.14,0,0,0-.63-.42,1.29,1.29,0,0,0-.8-.06c-.24.08-.13.45.1.38a.87.87,0,0,1,.53,0,1.08,1.08,0,0,1,.38.17c.26.22.18.57.07.85a.76.76,0,0,1-.69.57,1,1,0,0,1-.76-.68.82.82,0,0,1,.47-.94.2.2,0,0,0,.14-.24A.21.21,0,0,0,42.54,32.51Z"/><path class="cls-3" d="M27.51,36.07a1.21,1.21,0,0,0-.76,1.13,1.33,1.33,0,0,0,.89,1.14,1,1,0,0,0,1.17-.54,1.26,1.26,0,0,0,.09-1.27,1.17,1.17,0,0,0-.61-.41,1.3,1.3,0,0,0-.78,0c-.23.08-.13.45.11.37a1.33,1.33,0,0,1,.86.2c.25.21.17.55.07.81a.76.76,0,0,1-.66.55.92.92,0,0,1-.73-.66.8.8,0,0,1,.46-.9.19.19,0,0,0,.13-.23A.2.2,0,0,0,27.51,36.07Z"/><path class="cls-3" d="M38.24,42.2a1.19,1.19,0,0,0-.75,1.12,1.29,1.29,0,0,0,.88,1.12,1,1,0,0,0,1.15-.53,1.23,1.23,0,0,0,.09-1.25,1.18,1.18,0,0,0-.6-.41,1.27,1.27,0,0,0-.77,0c-.24.08-.13.45.1.38a.78.78,0,0,1,.5,0,1.11,1.11,0,0,1,.35.16c.25.2.17.54.07.8a.73.73,0,0,1-.65.53.9.9,0,0,1-.71-.64.78.78,0,0,1,.44-.88.2.2,0,1,0-.1-.38Z"/><path class="cls-3" d="M34.46,39.09a.91.91,0,0,0,0,.79.74.74,0,0,0,.79.38.78.78,0,0,0,.63-.61.85.85,0,0,0-.45-.86.75.75,0,0,0-1,.3.21.21,0,0,0,.07.27.22.22,0,0,0,.27-.07s0,0,0,0h0s0,0,.05,0h0l0,0,0,0,0,0s0,0,0,0h0s0,0,0,0h.1s0,0,0,0h.08l0,0,.06,0h0l0,0,.06.07h0l0,0,0,0s0,0,0,0l0,.08s0,.06,0,0v.11h0a.43.43,0,0,1,0,0s0,.06,0,0l0,.06a.08.08,0,0,0,0,0s0,0,0,0l0,0s0,0,0,0,0,0,0,0l0,0a.11.11,0,0,1-.06,0h-.2l-.08,0h0l0,0s0,0-.06,0,0,0,0,0l0,0h0s0,0,0,0,0,0,0,0l0,0v0s0,0,0,0a.64.64,0,0,1,0-.07v0s0,0,0,0h0a.09.09,0,0,1,0,0,.15.15,0,0,1,0-.07s0,0,0,0v0a.14.14,0,0,0,0-.06,0,0,0,0,0,0,0c0,.05,0,0,0,0a.2.2,0,1,0-.34-.2Z"/><path class="cls-3" d="M24,42.93a.9.9,0,0,0,0,.77.75.75,0,0,0,.79.38.77.77,0,0,0,.62-.6.82.82,0,0,0-.45-.85.73.73,0,0,0-.95.3.19.19,0,0,0,.33.19l0,0s0,0,0,0a.12.12,0,0,1,.05,0h0a0,0,0,0,1,0,0l0,0,0,0s0,0,0,0h0s0,0,0,0a.17.17,0,0,1,.1,0s0,0,0,0h.07l0,0,.06,0h0l0,0,.06.07h0l0,0,0,0s0,.06,0,0l0,.08h0v.11h0s0,0,0,.05v0l0,.06,0,0h0l0,0-.05,0s0,0,0,0l0,0-.06,0h-.2l-.08,0h0l0,0-.06,0h0l0,0h0l0,0,0,0v0s0,0,0,0,0-.07,0-.07v0s0-.06,0,0h0a.09.09,0,0,1,0-.05.17.17,0,0,1,0-.07s0,0,0,0v0s0,0,0-.07,0,0,0,0,0,0,0,0a.18.18,0,0,0-.07-.26A.19.19,0,0,0,24,42.93Z"/></g></svg>