<svg xmlns="http://www.w3.org/2000/svg" width="70" height="70" viewBox="0 0 70 70">
  <defs>
    <style>
      .cls-1 {
        fill: #f6bd7a;
      }

      .cls-1, .cls-2, .cls-3 {
        stroke: #333;
        stroke-linejoin: round;
      }

      .cls-2 {
        fill: #de6077;
      }

      .cls-3 {
        fill: none;
      }

      .cls-4 {
        fill: #559a62;
      }

      .cls-5 {
        fill: #ffe7b5;
      }

      .cls-6 {
        fill: #f9af52;
      }

      .cls-7 {
        fill: #d28e4b;
      }

      .cls-8 {
        fill: #333;
      }
    </style>
  </defs>
  <g id="Layer_198" data-name="Layer 198">
    <g id="selectable_copy_83" data-name="selectable copy 83">
      <g>
        <path class="cls-1" d="M51.7,44.27,23.25,8.2l-8-4.77,2.7,9L46.4,48.47a3.38,3.38,0,0,0,5.3-4.2Z"/>
        <path class="cls-2" d="M46.4,48.47l-1.69-2.12L50,42.17l1.69,2.12a3.3,3.3,0,0,1,.71,1.77,3.26,3.26,0,0,1-.36,1.88,3.39,3.39,0,0,1-5.66.53Zm0,0"/>
        <line class="cls-3" x1="17.94" y1="12.38" x2="23.25" y2="8.2"/>
        <line class="cls-3" x1="47.38" y1="44.25" x2="20.67" y2="10.23"/>
        <line class="cls-3" x1="16.04" y1="6.07" x2="17.56" y2="4.81"/>
      </g>
      <g>
        <path class="cls-4" d="M45.7,20.25,18.19,49.09a2.4,2.4,0,0,1-1.46.72A2.06,2.06,0,0,1,15,46.45L40.44,15.94l3.57.89Zm0,0"/>
        <path class="cls-5" d="M38.58,27.72l7.12-7.47L44,16.83l-3.57-.89-6.6,7.9Zm0,0"/>
        <path class="cls-6" d="M45.7,20.25l-5.26-4.31C39.73,8.81,44.74,5.72,49,5.24S55.2.58,55.2.58c.95,9.61.32,18.7-9.5,19.67Zm0,0"/>
        <path class="cls-7" d="M45.7,20.25c8.62-.86,10.17-8,9.77-16.18-.06-1.15-.15-2.32-.27-3.49a9.18,9.18,0,0,1-1,1.55A8.34,8.34,0,0,1,50.4,5.81a16.06,16.06,0,0,0-9,10.89l.78.64,0-.24A15.22,15.22,0,0,1,50.75,6.63a8.18,8.18,0,0,0,2.82-2.06,9.39,9.39,0,0,1-1.7,2.3A103.24,103.24,0,0,0,43.32,17l-.6.76.7.58.61-.79A103,103,0,0,1,52.51,7.52,10.89,10.89,0,0,0,54.37,5a16.62,16.62,0,0,1-1,3c-1.8,4-4.31,8.5-9.19,10.77l-.2.09Zm0,0"/>
        <path class="cls-8" d="M14.61,46.15,40,15.8a9.84,9.84,0,0,1,2.56-8,10.72,10.72,0,0,1,6.39-3C52.84,4.34,54.77.43,54.79.39a.46.46,0,0,1,.49-.25.45.45,0,0,1,.37.4c.6,6,.37,10.13-.74,13.28a10.05,10.05,0,0,1-3.17,4.66,11.12,11.12,0,0,1-5.83,2.21l-7,7.35a.46.46,0,0,1-.61,0l-4.4-3.61L15.3,46.74a1.52,1.52,0,0,0-.36,1.18,1.6,1.6,0,0,0,1.75,1.44,1.86,1.86,0,0,0,1.17-.57L37,28.72l.65.62L18.51,49.4a2.7,2.7,0,0,1-1.73.85,2.51,2.51,0,0,1-2.17-4.1Zm23.94-19L45,20.3l-3.49-2.86.57-.7,3.72,3.05c4.21-.47,6.9-2.53,8.23-6.28,1-2.77,1.23-6.36.81-11.53A8.54,8.54,0,0,1,49,5.69c-4.17.47-8.8,3.42-8.13,10.21a.44.44,0,0,1-.1.33l-6.31,7.55Z"/>
      </g>
    </g>
  </g>
</svg>
