<svg xmlns="http://www.w3.org/2000/svg" width="70" height="70" viewBox="0 0 70 70">
  <defs>
    <style>
      .cls-1 {
        fill: #f36f50;
      }

      .cls-2 {
        fill: #e94c50;
      }

      .cls-3 {
        fill: #f9b296;
      }

      .cls-4 {
        fill: #ba705c;
      }

      .cls-5 {
        fill: #262626;
      }
    </style>
  </defs>
  <g id="Layer_201" data-name="Layer 201">
    <g>
      <g>
        <path class="cls-1" d="M42.8,23.92l1.74-15-5.35,3.21L35,1.44l-4.18,10.7L25.48,8.93l1.75,15-11.6-4.07v4.07l-7.5,1.93,5.3,5.71L10.51,35.7,25.32,38l-4,7.23,1.9-.34A33.49,33.49,0,0,0,35,40.32a33.49,33.49,0,0,0,11.8,4.57l1.91.34L44.7,38l14.83-2.3-2.89-4.14,5.25-5.71-7.5-1.93V19.85Zm0,0"/>
        <path class="cls-2" d="M25.32,38l-4,7.23,1.9-.34A33.49,33.49,0,0,0,35,40.32a33.49,33.49,0,0,0,11.8,4.57l1.91.34L44.7,38,35,34.42Zm0,0"/>
        <path class="cls-3" d="M36.84,27a16.75,16.75,0,0,0,6.57-8.29l1.13-9.75-5.35,3.21L35,1.44l-4.18,10.7L25.48,8.93l1.14,9.75A16.68,16.68,0,0,0,33.18,27L35,28.17Zm0,0"/>
        <path class="cls-3" d="M56.64,31.56l5.25-5.71-7.5-1.93V19.85l-9.1,3.2-3.43,9.18L52.44,36.8l7.09-1.1Zm0,0"/>
        <path class="cls-3" d="M17.56,36.79l10.59-4.56-3.43-9.18h0l-9.08-3.2v4.07l-7.5,1.93,5.3,5.71L10.51,35.7Zm0,0"/>
      </g>
      <g>
        <path class="cls-4" d="M35,34.42,33.4,55.19h3.22Zm0,0"/>
        <path class="cls-5" d="M62.38,25.73a.48.48,0,0,0-.38-.36l-7.08-1.82V19.9a.54.54,0,0,0-.23-.44.55.55,0,0,0-.48-.07L43.43,23.18,45.07,9a.54.54,0,0,0-.25-.51.56.56,0,0,0-.57,0L38.9,11.73a.51.51,0,0,0-.25.35,13.23,13.23,0,0,1-3.1,6.26V4.28l2.28,5.84,1-.38-3.31-8.5a.54.54,0,0,0-1,0L30.57,11.36,25.76,8.47a.56.56,0,0,0-.57,0A.54.54,0,0,0,25,9l1.63,14.14L15.8,19.35a.52.52,0,0,0-.48.07.54.54,0,0,0-.23.43v3.67L8,25.34a.5.5,0,0,0-.39.36.53.53,0,0,0,.12.51l5,5.39-2.67,3.79a.59.59,0,0,0-.05.52.53.53,0,0,0,.41.32l14,2.19L20.83,45a.56.56,0,0,0,0,.57.54.54,0,0,0,.44.23s.06,0,.07,0l1.91-.35a34.34,34.34,0,0,0,9.27-3.11l-.48-1a32.36,32.36,0,0,1-9,3l-.79.14,3.37-6.05,8.73-3.23L32.87,55.15a.49.49,0,0,0,.14.4.54.54,0,0,0,.39.17h3.22a.51.51,0,0,0,.39-.17.52.52,0,0,0,.14-.4l-1-13.56a34.24,34.24,0,0,0,10.61,3.82l1.91.35h.1a.51.51,0,0,0,.41-.21.54.54,0,0,0,0-.56l-3.64-6.56L59.6,36.26a.52.52,0,0,0,.4-.32.51.51,0,0,0,0-.52L57.3,31.63l5-5.38A.55.55,0,0,0,62.38,25.73Zm-7.82-1.19,5.38,1.38-9.45,3Zm-.71-3.9v3.09l-5.43,5.86L42.74,31.4l3-7.9ZM44.38,24l-2.93,7.85-5.9,1.88V28.46l1.58-1a17.1,17.1,0,0,0,5.37-5.63l-.24,2.1a.53.53,0,0,0,.71.57ZM39.66,12.52,43.88,10l-1,8.57a16.23,16.23,0,0,1-6.33,8l-1,.65V19.9A14.45,14.45,0,0,0,39.66,12.52ZM34.48,4.29V18.37a13.33,13.33,0,0,1-3.1-6.14ZM26.14,10l4.21,2.52a14.48,14.48,0,0,0,4.13,7.43v7.27l-1-.65a16.24,16.24,0,0,1-6.33-8Zm.91,14.48a.54.54,0,0,0,.52-.09.55.55,0,0,0,.19-.48l-.24-2.07a17.37,17.37,0,0,0,5.37,5.62l1.59,1v5.23l-5.91-1.88-2.93-7.87ZM16.17,20.61l8.15,2.87,2.95,7.91-5.68-1.81-5.42-5.85Zm-.73,3.91,4.08,4.4L10,25.9ZM9.92,27l9.21,2.94L13.63,31Zm1.52,8.33L13.73,32l7.55-1.44,5.35,1.71-9.12,3.94Zm13.81,2.15-5.75-.9,8.68-3.75,5.18,1.64ZM34,54.65l1-13.28,1,13.28ZM47.7,44.5l-.79-.14A33,33,0,0,1,36,40.28l-.39-5.07,8.71,3.22Zm-2.92-7-8.12-3,5.18-1.65,8.7,3.76ZM58.6,35.32l-6.07.94-9.14-3.95,5.37-1.71L56.32,32ZM56.45,31l-5.56-1.06L60.13,27Z"/>
      </g>
    </g>
  </g>
</svg>
