<svg xmlns="http://www.w3.org/2000/svg" width="70" height="70" viewBox="0 0 70 70">
  <defs>
    <style>
      .cls-1 {
        fill: #f0d9a7;
      }

      .cls-2 {
        fill: #fee11b;
      }

      .cls-3 {
        fill: #262626;
      }

      .cls-4 {
        fill: #c88a46;
      }

      .cls-5 {
        fill: #edac59;
      }

      .cls-6 {
        fill: #e6e7e8;
      }
    </style>
  </defs>
  <g id="Layer_204" data-name="Layer 204">
    <g>
      <g>
        <g>
          <rect class="cls-1" x="22.91" y="12.33" width="3.49" height="7.54"/>
          <path class="cls-2" d="M26.26,6.42,24.65,4.81,23,6.42a2.28,2.28,0,1,0,3.22,0Zm0,0"/>
          <path class="cls-3" d="M24.65,11a2.89,2.89,0,0,1-2.08-.86,3,3,0,0,1,0-4.18l1.61-1.61a.67.67,0,0,1,1,0L26.75,6a3,3,0,0,1,0,4.18,3.05,3.05,0,0,1-2.1.86Zm0-5.23L23.51,6.9a1.61,1.61,0,1,0,2.27,0Zm0,0"/>
          <path class="cls-3" d="M26.4,20.57H22.91a.67.67,0,0,1-.68-.67V12.33a.67.67,0,0,1,.68-.67H26.4a.66.66,0,0,1,.67.67V19.9a.67.67,0,0,1-.67.67Zm-2.82-1.34h2.15V13H23.58Zm0,0"/>
        </g>
        <g>
          <rect class="cls-1" x="33.25" y="12.33" width="3.49" height="7.54"/>
          <path class="cls-2" d="M36.61,6.42,35,4.81,33.39,6.42a2.28,2.28,0,1,0,3.22,0Zm0,0"/>
          <path class="cls-3" d="M35,11a2.89,2.89,0,0,1-2.08-.86,3,3,0,0,1,0-4.18l1.61-1.61a.66.66,0,0,1,.95,0L37.1,6a3,3,0,0,1,0,4.18A3.05,3.05,0,0,1,35,11Zm0-5.23L33.86,6.9a1.61,1.61,0,1,0,2.27,0Zm0,0"/>
          <path class="cls-3" d="M36.75,20.57h-3.5a.66.66,0,0,1-.67-.67V12.33a.67.67,0,0,1,.67-.67h3.5a.67.67,0,0,1,.67.67V19.9a.68.68,0,0,1-.67.67Zm-2.83-1.34h2.16V13H33.92Zm0,0"/>
        </g>
        <g>
          <rect class="cls-1" x="43.6" y="12.33" width="3.49" height="8.24"/>
          <path class="cls-2" d="M47,6.42,45.35,4.81,43.74,6.42a2.28,2.28,0,1,0,3.22,0Zm0,0"/>
          <path class="cls-3" d="M45.35,11a2.93,2.93,0,0,1-2.09-.86,3,3,0,0,1,0-4.18l1.62-1.61a.66.66,0,0,1,.95,0L47.44,6a3,3,0,0,1,0,4.18,3,3,0,0,1-2.09.86Zm0-5.23L44.21,6.9a1.59,1.59,0,0,0,0,2.28A1.61,1.61,0,0,0,46.48,6.9Zm0,0"/>
          <path class="cls-3" d="M44.27,19.9H42.93V12.33a.66.66,0,0,1,.67-.67h3.49a.67.67,0,0,1,.68.67v4.88H46.42V13H44.27Zm0,0"/>
        </g>
      </g>
      <g>
        <g>
          <rect class="cls-1" x="28.06" y="12.33" width="3.49" height="7.54"/>
          <path class="cls-2" d="M31.42,6.42,29.81,4.81,28.2,6.42a2.28,2.28,0,1,0,3.22,0Zm0,0"/>
          <path class="cls-3" d="M29.81,11a2.89,2.89,0,0,1-2.08-.86,3,3,0,0,1,0-4.18l1.61-1.61a.66.66,0,0,1,.95,0L31.91,6a3,3,0,0,1,0,4.18,3.05,3.05,0,0,1-2.1.86Zm0-5.23L28.67,6.9a1.61,1.61,0,1,0,2.27,0Zm0,0"/>
          <path class="cls-3" d="M31.56,20.57h-3.5a.66.66,0,0,1-.67-.67V12.33a.67.67,0,0,1,.67-.67h3.5a.67.67,0,0,1,.67.67V19.9a.68.68,0,0,1-.67.67Zm-2.82-1.34h2.15V13H28.74Zm0,0"/>
        </g>
        <g>
          <rect class="cls-1" x="38.41" y="12.33" width="3.49" height="7.54"/>
          <path class="cls-2" d="M41.77,6.42,40.16,4.81,38.55,6.42a2.28,2.28,0,1,0,3.22,0Zm0,0"/>
          <path class="cls-3" d="M40.16,11a2.89,2.89,0,0,1-2.08-.86,3,3,0,0,1,0-4.18l1.61-1.61a.66.66,0,0,1,1,0L42.25,6a3,3,0,0,1,0,4.18,3,3,0,0,1-2.09.86Zm0-5.23L39,6.9a1.59,1.59,0,0,0,0,2.28A1.61,1.61,0,0,0,41.29,6.9Zm0,0"/>
          <path class="cls-3" d="M41.91,20.57h-3.5a.66.66,0,0,1-.67-.67V12.33a.66.66,0,0,1,.67-.67h3.5a.67.67,0,0,1,.67.67V19.9a.68.68,0,0,1-.67.67Zm-2.83-1.34h2.15V13H39.08Zm0,0"/>
        </g>
      </g>
      <g>
        <rect class="cls-1" x="33.25" y="12.33" width="3.49" height="7.54"/>
        <path class="cls-2" d="M36.61,6.42,35,4.81,33.39,6.42a2.28,2.28,0,1,0,3.22,0Zm0,0"/>
        <path class="cls-3" d="M35,11a2.89,2.89,0,0,1-2.08-.86,3,3,0,0,1,0-4.18l1.61-1.61a.66.66,0,0,1,.95,0L37.1,6a3,3,0,0,1,0,4.18A3.05,3.05,0,0,1,35,11Zm0-5.23L33.86,6.9a1.61,1.61,0,1,0,2.27,0Zm0,0"/>
        <path class="cls-3" d="M36.75,20.57h-3.5a.66.66,0,0,1-.67-.67V12.33a.67.67,0,0,1,.67-.67h3.5a.67.67,0,0,1,.67.67V19.9a.68.68,0,0,1-.67.67Zm-2.83-1.34h2.16V13H33.92Zm0,0"/>
      </g>
      <g>
        <rect class="cls-4" x="7.72" y="32.77" width="54.56" height="12.89"/>
        <rect class="cls-4" x="14.3" y="19.9" width="41.39" height="12.89"/>
        <path class="cls-5" d="M62.28,41.76H59.73A5.85,5.85,0,0,1,55.56,40L54,38.4a5.86,5.86,0,0,0-8.35,0L44.1,40a5.83,5.83,0,0,1-4.18,1.76h0A5.79,5.79,0,0,1,35.73,40l-1.52-1.57A5.84,5.84,0,0,0,30,36.66h0a5.85,5.85,0,0,0-4.19,1.77L24.33,40a5.81,5.81,0,0,1-4.19,1.77h0A5.87,5.87,0,0,1,15.9,40l-1.46-1.52a5.85,5.85,0,0,0-4.21-1.78H7.72V32.77H62.28Zm0,0"/>
        <path class="cls-5" d="M55.7,28.27H53.76a4.45,4.45,0,0,1-3.16-1.33l-1.19-1.22a4.43,4.43,0,0,0-6.33,0l-1.17,1.21a4.43,4.43,0,0,1-6.35,0l-1.15-1.18a4.41,4.41,0,0,0-3.17-1.34h0A4.43,4.43,0,0,0,28,25.73L26.91,26.9a4.42,4.42,0,0,1-3.19,1.34h0a4.37,4.37,0,0,1-3.18-1.35l-1.12-1.16a4.41,4.41,0,0,0-3.18-1.36H14.3v-4.5H55.7Zm0,0"/>
      </g>
      <g>
        <path class="cls-6" d="M62.28,52.11H7.72a6.45,6.45,0,0,1-6.45-6.45H68.73a6.45,6.45,0,0,1-6.45,6.45Zm0,0"/>
        <path class="cls-3" d="M68.73,45H63V32.77a.66.66,0,0,0-.67-.67H56.37V19.89a.67.67,0,0,0-.67-.68H14.3a.67.67,0,0,0-.67.68v10.2H15v-5h1.25a3.8,3.8,0,0,1,2.7,1.16L20,27.37a5.09,5.09,0,0,0,3.67,1.56h0a5.09,5.09,0,0,0,3.67-1.56l1.13-1.17a3.82,3.82,0,0,1,2.71-1.14,3.78,3.78,0,0,1,2.69,1.14l1.15,1.18a5.1,5.1,0,0,0,7.3,0l1.17-1.21a3.74,3.74,0,0,1,5.36,0l1.2,1.22a5.09,5.09,0,0,0,3.64,1.53H55V32.1H7.72a.66.66,0,0,0-.67.67V45H1.27a.66.66,0,0,0-.67.67,7.14,7.14,0,0,0,7.12,7.12H62.28a7.14,7.14,0,0,0,7.12-7.12A.66.66,0,0,0,68.73,45Zm-15-17.39a3.8,3.8,0,0,1-2.67-1.13l-1.2-1.22a5.09,5.09,0,0,0-7.28,0l-1.17,1.21a3.81,3.81,0,0,1-2.69,1.13A3.75,3.75,0,0,1,36,26.44l-1.15-1.18a5.13,5.13,0,0,0-7.34,0l-1.13,1.17a3.79,3.79,0,0,1-2.7,1.15h0A3.78,3.78,0,0,1,21,26.43l-1.12-1.16a5.09,5.09,0,0,0-3.67-1.55H15V20.56H55v7Zm7.88,5.84v7.65h-1.9A5.21,5.21,0,0,1,56,39.55l-1.57-1.62a6.61,6.61,0,0,0-4.65-2,6.53,6.53,0,0,0-4.65,2l-1.55,1.58a5.12,5.12,0,0,1-3.69,1.56,5.21,5.21,0,0,1-3.7-1.57L34.7,38A6.51,6.51,0,0,0,30,36h0a6.55,6.55,0,0,0-4.68,2l-1.49,1.55a5.21,5.21,0,0,1-3.71,1.57h0a5.19,5.19,0,0,1-3.72-1.59L14.94,38a6.51,6.51,0,0,0-4.69-2H8.39V33.44Zm.67,18H7.72A5.79,5.79,0,0,1,2,46.33H59.59V45H8.39V37.3h1.86A5.19,5.19,0,0,1,14,38.89l1.46,1.53a6.51,6.51,0,0,0,4.69,2h0a6.52,6.52,0,0,0,4.68-2l1.49-1.54A5.17,5.17,0,0,1,30,37.32h0a5.17,5.17,0,0,1,3.7,1.57l1.52,1.57a6.49,6.49,0,0,0,9.32,0l1.55-1.58a5.14,5.14,0,0,1,3.69-1.56,5.19,5.19,0,0,1,3.68,1.54l1.58,1.62a6.6,6.6,0,0,0,4.65,1.95h1.88v3.22a.66.66,0,0,0,.67.67H68A5.79,5.79,0,0,1,62.28,51.44Z"/>
      </g>
    </g>
  </g>
</svg>
