<svg xmlns="http://www.w3.org/2000/svg" width="70" height="70" viewBox="0 0 70 70">
  <defs>
    <style>
      .cls-1 {
        fill: #c4c1ab;
      }

      .cls-2 {
        fill: #ebe9de;
      }

      .cls-3 {
        fill: #747e6c;
      }

      .cls-4 {
        fill: #db3427;
      }

      .cls-5 {
        fill: #b42025;
      }

      .cls-6 {
        fill: #fffdfb;
      }

      .cls-7 {
        fill: #0d121c;
      }

      .cls-8 {
        fill: #b2614a;
      }

      .cls-9 {
        fill: #993f28;
      }

      .cls-10 {
        fill: #bebf32;
      }

      .cls-11 {
        fill: #a38c32;
      }

      .cls-12 {
        fill: #1e4077;
      }

      .cls-13 {
        fill: #162850;
      }

      .cls-14 {
        fill: #4c64ae;
      }

      .cls-15 {
        fill: #231f20;
      }
    </style>
  </defs>
  <g id="Layer_217" data-name="Layer 217">
    <g>
      <g>
        <path class="cls-1" d="M50.75,9.67H19.25l5.17,35.82H55.91Zm0,0"/>
        <path class="cls-2" d="M45.58,45.49H14.09L19.25,9.67h31.5Zm0,0"/>
        <path class="cls-1" d="M15.05,38.83l-1,6.66h6.66l1-6.66Zm0,0"/>
        <path class="cls-3" d="M50.75,38.83l-5.17,6.66H55.91Zm0,0"/>
        <path class="cls-4" d="M18.1,17.66H49.6l1.15-8H19.25Zm0,0"/>
        <path class="cls-5" d="M28.17,13.58a1.25,1.25,0,1,1-1.25-1.25,1.25,1.25,0,0,1,1.25,1.25Zm0,0"/>
        <path class="cls-5" d="M35.67,13.58a1.25,1.25,0,1,1-1.25-1.25,1.25,1.25,0,0,1,1.25,1.25Zm0,0"/>
        <path class="cls-5" d="M43.16,13.58a1.25,1.25,0,1,1-1.25-1.25,1.24,1.24,0,0,1,1.25,1.25Zm0,0"/>
        <path class="cls-6" d="M21.71,38.83H15.05l5.7,6.66Zm0,0"/>
        <path class="cls-7" d="M51.16,9.61h0a.43.43,0,0,0-.09-.22.41.41,0,0,0-.31-.14H46.05q0-.32,0-.63c0-3-1.87-5.37-4.17-5.37a4.22,4.22,0,0,0-3.74,3,4.25,4.25,0,0,0-3.75-3,4.24,4.24,0,0,0-3.75,3,4.25,4.25,0,0,0-3.75-3c-2.3,0-4.17,2.41-4.17,5.37,0,.21,0,.42,0,.63H19.25a.42.42,0,0,0-.41.36l-1.15,8a.41.41,0,0,0,.41.47h31l-3.9,27h-24l.89-6.18a.41.41,0,0,0-.1-.33.42.42,0,0,0-.32-.14H15.53l2.74-19-.82-.12L13.67,45.43a.44.44,0,0,0,.1.33.41.41,0,0,0,.32.15H54.24v-.84h-7.8l4.31-5.56,4.83,6.24a.44.44,0,0,0,.33.16.35.35,0,0,0,.17,0,.43.43,0,0,0,.25-.44ZM21.23,39.24l-.76,5.28L16,39.24Zm-5.9.56,4.52,5.27H14.57ZM41.91,4.09c1.85,0,3.34,2,3.34,4.53,0,.21,0,.42,0,.63H38.62c0-.21,0-.42,0-.63C38.58,6.12,40.07,4.09,41.91,4.09Zm-7.49,0c1.84,0,3.33,2,3.33,4.53,0,.21,0,.42,0,.63H31.12c0-.21,0-.42,0-.63C31.08,6.12,32.58,4.09,34.42,4.09ZM23.58,8.62c0-2.5,1.49-4.53,3.33-4.53s3.33,2,3.33,4.53q0,.32,0,.63H23.62A4.44,4.44,0,0,1,23.58,8.62Zm-.67,1.46a5.13,5.13,0,0,0,2.35,3.46s0,0,0,0a1.68,1.68,0,1,0,.25-.86,4.38,4.38,0,0,1-1.74-2.64h6.65a5.12,5.12,0,0,0,2.34,3.46v0a1.67,1.67,0,1,0,.25-.87,4.31,4.31,0,0,1-1.73-2.63h6.64a5.12,5.12,0,0,0,2.34,3.46v0a1.67,1.67,0,1,0,.25-.87,4.31,4.31,0,0,1-1.73-2.63H50.26l-1,7.17H18.58l1-7.17Zm3.36,3a.85.85,0,0,1,.65-.31.83.83,0,0,1,.83.83.84.84,0,0,1-.83.84.83.83,0,0,1-.77-.53,3.16,3.16,0,0,0,.76.09v-.83A2.3,2.3,0,0,1,26.27,13.06Zm7.5,0a.85.85,0,0,1,.65-.31.83.83,0,0,1,.83.83.84.84,0,0,1-.83.84.85.85,0,0,1-.78-.53,3.33,3.33,0,0,0,.78.09v-.83A2.37,2.37,0,0,1,33.77,13.06Zm7.5,0a.81.81,0,0,1,.64-.31.84.84,0,0,1,.84.83.85.85,0,0,1-.84.84.83.83,0,0,1-.77-.53,3.31,3.31,0,0,0,.77.09v-.83A2.3,2.3,0,0,1,41.27,13.06ZM46.9,39.24h3L46.21,44Zm4.19-.66a.44.44,0,0,0-.34-.16H47l3-20.67v0l.75-5.16L55.29,44Z"/>
      </g>
      <g>
        <path class="cls-8" d="M24.62,31.16H23.8v-.71a3.67,3.67,0,0,1,.85-2.36l.63.53a2.89,2.89,0,0,0-.66,1.83Zm0,0"/>
        <path class="cls-8" d="M29.44,29.8H27.67A4.29,4.29,0,0,1,25.11,29l-1.87-1.39.49-.66,1.87,1.38a3.43,3.43,0,0,0,2.07.68h1.77Zm0,0"/>
        <path class="cls-9" d="M24.21,29.8l-.36,0a3.35,3.35,0,0,0-.05.63v.71h.82v-.71a3.18,3.18,0,0,1,.07-.62,3.87,3.87,0,0,0-.48,0Zm0,0"/>
        <path class="cls-9" d="M27.56,29a3.14,3.14,0,0,0-.16.82h2.05V29H27.56Zm0,0"/>
        <path class="cls-10" d="M34.49,28.81h-.64a4.31,4.31,0,0,1-4.31-4.31v-.64h.64a4.31,4.31,0,0,1,4.31,4.31Zm0,0"/>
        <path class="cls-11" d="M30.11,26.64a4.3,4.3,0,0,0,3.74,2.17h.62v-.64a4.23,4.23,0,0,0-.11-1,3.37,3.37,0,0,0-2.44-1,3.47,3.47,0,0,0-1.81.51Zm0,0"/>
        <path class="cls-11" d="M34.49,28.81h-.64a4.31,4.31,0,0,1-4.31-4.31v-.64Zm0,0"/>
        <path class="cls-8" d="M34.84,29l-.69-.46.62-.94a6.15,6.15,0,0,0,1-3.41h.83a7,7,0,0,1-1.16,3.87Zm0,0"/>
        <path class="cls-9" d="M35,27.27l-.23.37-.58.88.18.17.12.12.34.23.63-.94a7.24,7.24,0,0,0,.7-1.39,4.14,4.14,0,0,0-1.16.56Zm0,0"/>
        <path class="cls-12" d="M27.63,33.84a3.42,3.42,0,1,1-3.42-3.42,3.42,3.42,0,0,1,3.42,3.42Zm0,0"/>
        <path class="cls-13" d="M26,35.2a3.36,3.36,0,0,0,.28,1.35,3.43,3.43,0,0,0,1.33-2.71,3.36,3.36,0,0,0-.28-1.35A3.46,3.46,0,0,0,26,35.2Zm0,0"/>
        <path class="cls-14" d="M24.07,32.11a.94.94,0,1,1-.93-.94.93.93,0,0,1,.93.94Zm0,0"/>
        <path class="cls-14" d="M24.91,33a.42.42,0,1,1-.41-.41.42.42,0,0,1,.41.41Zm0,0"/>
        <path class="cls-12" d="M34.85,30.05a3.43,3.43,0,1,1-3.43-3.43,3.43,3.43,0,0,1,3.43,3.43Zm0,0"/>
        <path class="cls-13" d="M34,27.74a3.43,3.43,0,0,0-2.86,3.38.22.22,0,0,0,0,.08,3.67,3.67,0,0,0-.75-.08,3.43,3.43,0,0,0-1.92.59,3.42,3.42,0,1,0,5.52-4Zm0,0"/>
        <path class="cls-14" d="M31.66,28a.94.94,0,1,1-.94-.93.94.94,0,0,1,.94.93Zm0,0"/>
        <path class="cls-12" d="M39,32.19a3.42,3.42,0,1,1-3.42-3.42A3.42,3.42,0,0,1,39,32.19Zm0,0"/>
        <path class="cls-13" d="M32.17,32.17v0a3.43,3.43,0,0,0,2.3,3.24v0a3.41,3.41,0,0,0-2.3-3.24Zm0,0"/>
        <path class="cls-14" d="M35.08,31.49a.94.94,0,1,1-.94-.94.93.93,0,0,1,.94.94Zm0,0"/>
        <path class="cls-10" d="M34.49,28.81l.45.45a4.31,4.31,0,0,0,6.09,0l.46-.45L41,28.36a4.29,4.29,0,0,0-6.09,0Zm0,0"/>
        <path class="cls-12" d="M33.77,36.11a3.43,3.43,0,1,1-1-2.42,3.42,3.42,0,0,1,1,2.42Zm0,0"/>
        <path class="cls-14" d="M30.5,36.64a.94.94,0,1,1-.93-.93.94.94,0,0,1,.93.93Zm0,0"/>
        <path class="cls-14" d="M29.57,37.67a.42.42,0,1,1-.41-.41.42.42,0,0,1,.41.41Zm0,0"/>
        <path class="cls-11" d="M34.47,28.81h0l.46.44a4.32,4.32,0,0,0,6.1,0l.45-.45Zm0,0"/>
        <g>
          <path class="cls-7" d="M41.63,28.66l-.45-.45a4.51,4.51,0,0,0-5-.93,7.24,7.24,0,0,0,.67-3,.2.2,0,0,0-.2-.21h-.83a.2.2,0,0,0-.2.21,5.9,5.9,0,0,1-1,3.23,4.44,4.44,0,0,0-1.29-2.53,4.49,4.49,0,0,0-3.16-1.28h-.64a.2.2,0,0,0-.21.2v.64a4.51,4.51,0,0,0,.61,2.24,3.63,3.63,0,0,0-1.91,2h-.36a3.26,3.26,0,0,1-2-.65l-1.87-1.38a.21.21,0,0,0-.15,0,.16.16,0,0,0-.14.08l-.49.66a.2.2,0,0,0,.05.29l1,.74a3.73,3.73,0,0,0-.44,1.1l.4.09a3.12,3.12,0,0,1,.49-1.12.22.22,0,0,0,0-.28l-1-.74.24-.33,1.71,1.26a3.68,3.68,0,0,0,2.19.72h.23a2.7,2.7,0,0,0-.07.41h-.16a4.05,4.05,0,0,1-2.44-.8l0,0a.21.21,0,0,0-.17,0,.21.21,0,0,0-.13.1,3.06,3.06,0,0,0-.46,1.4h-.22a3.63,3.63,0,1,0,2.53,6.22A3.63,3.63,0,0,0,34,36.11a4.17,4.17,0,0,0-.07-.71,3.63,3.63,0,0,0,5.19-4.15l-.4.11a3.32,3.32,0,0,1,.11.83,3.23,3.23,0,0,1-3.22,3.22,3.14,3.14,0,0,1-1.85-.6,3.7,3.7,0,0,0-1.2-1.59,3.22,3.22,0,0,1-.17-1,3.18,3.18,0,0,1,2.17-3l.25.25a4.53,4.53,0,0,0,6.39,0l.45-.46A.21.21,0,0,0,41.63,28.66ZM36,24.44h.41a6.87,6.87,0,0,1-.9,3.19,4,4,0,0,0-.72.58l-.15.15a.56.56,0,0,1,0-.08l.35-.53A6.33,6.33,0,0,0,36,24.44Zm-6.25.06v-.43h.43a4.13,4.13,0,0,1,4.08,3.72,3.62,3.62,0,0,0-1.68-1.18L31,25l-.29.29,1.15,1.16a2.73,2.73,0,0,0-.41,0,3.67,3.67,0,0,0-1.1.17A4.13,4.13,0,0,1,29.75,24.5Zm-4.62,4.73a4.49,4.49,0,0,0,2.54.77h.13v.05A3.61,3.61,0,0,0,29,32.74a3.7,3.7,0,0,0-1.18.77,3.63,3.63,0,0,0-3-3.24A2.46,2.46,0,0,1,25.13,29.23Zm-.92,7.82a3.22,3.22,0,1,1,3.21-3.22V34a3.55,3.55,0,0,0-.68,1.84A3.22,3.22,0,0,1,24.21,37.05Zm9.36-.94a3.22,3.22,0,1,1-3.22-3.22A3.22,3.22,0,0,1,33.57,36.11ZM32.69,30A3.56,3.56,0,0,0,32,32.19a4.27,4.27,0,0,0,.07.71,3.52,3.52,0,0,0-1.68-.42,3.66,3.66,0,0,0-.88.11,3.21,3.21,0,1,1,4.86-3.91.19.19,0,0,0,0,.14A3.66,3.66,0,0,0,32.69,30Zm8.2-.9a4.12,4.12,0,0,1-5.81,0L35,29h4.1V28.6H35l.09-.1a4.12,4.12,0,0,1,5.81,0l.3.31Z"/>
          <polygon class="cls-7" points="23.06 34.49 22.77 34.2 22.48 34.49 22.19 34.2 21.89 34.49 22.19 34.78 21.89 35.08 22.19 35.37 22.48 35.08 22.77 35.37 23.06 35.08 22.77 34.78 23.06 34.49"/>
          <polygon class="cls-7" points="29.85 33.75 29.56 34.04 29.85 34.33 29.56 34.62 29.85 34.91 30.14 34.62 30.44 34.91 30.73 34.62 30.44 34.33 30.73 34.04 30.44 33.75 30.14 34.04 29.85 33.75"/>
          <polygon class="cls-7" points="35.17 33.55 35.46 33.26 35.76 33.55 36.05 33.26 35.75 32.97 36.05 32.68 35.75 32.39 35.46 32.68 35.17 32.39 34.88 32.68 35.17 32.97 34.88 33.26 35.17 33.55"/>
        </g>
      </g>
      <path class="cls-15" d="M42.8,19.92a1.66,1.66,0,0,1,1.05-.32,1.78,1.78,0,0,1,.76.15,1.19,1.19,0,0,1,.48.43,1.14,1.14,0,0,1,.17.61,1,1,0,0,1-.21.66,1.07,1.07,0,0,1-.5.38v0a1.07,1.07,0,0,1,.58.41,1.43,1.43,0,0,1,0,1.42,1.17,1.17,0,0,1-.5.46,1.81,1.81,0,0,1-.8.16A1.76,1.76,0,0,1,42.75,24a1.31,1.31,0,0,1-.46-1H43a.77.77,0,0,0,.25.55.92.92,0,0,0,.63.21.79.79,0,0,0,.59-.21.74.74,0,0,0,.21-.55.68.68,0,0,0-.28-.62,1.61,1.61,0,0,0-.86-.19h-.16v-.59h.17a1.55,1.55,0,0,0,.77-.16.56.56,0,0,0,.27-.52.62.62,0,0,0-.19-.48.8.8,0,0,0-.56-.18.77.77,0,0,0-.54.18.7.7,0,0,0-.23.44h-.7A1.17,1.17,0,0,1,42.8,19.92Z"/>
    </g>
  </g>
</svg>
