<svg xmlns="http://www.w3.org/2000/svg" width="70" height="70" viewBox="0 0 70 70">
  <defs>
    <style>
      .cls-1 {
        fill: #c4c1ab;
      }

      .cls-2 {
        fill: #747e6c;
      }

      .cls-3 {
        fill: #ebe9de;
      }

      .cls-4 {
        fill: #b2614a;
      }

      .cls-5 {
        fill: #d27762;
      }

      .cls-6 {
        fill: #0d121c;
      }

      .cls-7 {
        fill: #97593e;
        stroke: #0d121c;
        stroke-linejoin: round;
        stroke-width: 0.75px;
      }
    </style>
  </defs>
  <g id="Layer_218" data-name="Layer 218">
    <g>
      <rect class="cls-1" x="21.22" y="38.94" width="21.25" height="8.31"/>
      <path class="cls-1" d="M52.08,31.74H46.26V28h5.82a4,4,0,0,0,0-7.94H46.26V16.4h5.82a7.67,7.67,0,0,1,0,15.34Zm0,0"/>
      <rect class="cls-2" x="46.26" y="16.4" width="5.82" height="3.7"/>
      <path class="cls-2" d="M51.29,31.74h-5V28h5.82Zm0,0"/>
      <path class="cls-1" d="M42.47,41.71H21.22A21.67,21.67,0,0,1,13.37,25V16.4h37V25a21.67,21.67,0,0,1-7.85,16.69Zm0,0"/>
      <rect class="cls-3" x="23.44" y="41.71" width="3.7" height="2.77"/>
      <rect class="cls-3" x="30.26" y="41.71" width="7.02" height="2.77"/>
      <rect class="cls-4" x="13.37" y="44.48" width="38.02" height="2.77"/>
      <rect class="cls-5" x="18.2" y="44.48" width="11.83" height="2.77"/>
      <path class="cls-6" d="M51.38,44H42.93V41.93A22.07,22.07,0,0,0,50.51,28.5h1.57a4.44,4.44,0,0,0,0-8.87h-1.3V16.86h1.3a7.21,7.21,0,0,1,0,14.41h-1v.93h1a8.13,8.13,0,0,0,0-16.26H13.37a.45.45,0,0,0-.46.46V25a22.05,22.05,0,0,0,7.85,16.91V44H13.37a.46.46,0,0,0-.46.46v2.78a.46.46,0,0,0,.46.46h38a.47.47,0,0,0,.47-.46V44.48A.47.47,0,0,0,51.38,44Zm.7-23.46a3.51,3.51,0,0,1,0,7H50.63A21.85,21.85,0,0,0,50.78,25V20.56ZM21.52,41.36A21.13,21.13,0,0,1,13.83,25V16.86h36V25A21.15,21.15,0,0,1,42.3,41.25H23.07v.92H42V44H21.68v-2.3A.47.47,0,0,0,21.52,41.36Zm29.4,5.43H13.83V45H50.92Z"/>
    </g>
    <path class="cls-7" d="M40.45,38.2H23.23a17.56,17.56,0,0,1-6.35-13.52V21.76H46.81v2.92A17.54,17.54,0,0,1,40.45,38.2Zm0,0"/>
    <g>
      <path class="cls-6" d="M25.19,12.43h-.92V10.28a5.49,5.49,0,0,1,2-4.24A4.5,4.5,0,0,0,28,2.52V.42h.93V2.51a5.44,5.44,0,0,1-2,4.24,4.53,4.53,0,0,0-1.68,3.53Zm0,0"/>
      <path class="cls-6" d="M31.11,12.43h-.93V10.28A5.47,5.47,0,0,1,32.2,6a4.53,4.53,0,0,0,1.68-3.52V.42h.92V2.51a5.46,5.46,0,0,1-2,4.24,4.53,4.53,0,0,0-1.68,3.53Zm0,0"/>
      <path class="cls-6" d="M37,12.43h-.93V10.28a5.47,5.47,0,0,1,2-4.24,4.53,4.53,0,0,0,1.68-3.52V.42h.92V2.51a5.46,5.46,0,0,1-2,4.24A4.53,4.53,0,0,0,37,10.28Zm0,0"/>
    </g>
  </g>
</svg>
