<svg xmlns="http://www.w3.org/2000/svg" xmlns:xlink="http://www.w3.org/1999/xlink" width="70" height="70" viewBox="0 0 70 70">
  <defs>
    <style>
      .cls-1 {
        fill: none;
      }

      .cls-2 {
        fill: #f7c363;
      }

      .cls-3 {
        fill: #f4f4e6;
      }

      .cls-4 {
        fill: #f597a1;
      }

      .cls-5 {
        fill: #d3843b;
      }

      .cls-6 {
        fill: #3a4d5c;
      }

      .cls-7 {
        fill: #262626;
      }

      .cls-8 {
        clip-path: url(#clip-path);
      }

      .cls-9 {
        fill: #e8e7d6;
      }

      .cls-10 {
        clip-path: url(#clip-path-2);
      }

      .cls-11 {
        clip-path: url(#clip-path-3);
      }

      .cls-12 {
        fill: #445765;
      }

      .cls-13 {
        fill: #de4951;
      }
    </style>
    <clipPath id="clip-path">
      <rect class="cls-1" x="0.17" y="16.93" width="20.68" height="22.03" transform="translate(-5.15 2.53) rotate(-11.04)"/>
    </clipPath>
    <clipPath id="clip-path-2">
      <rect class="cls-1" x="45.65" y="15.25" width="22.84" height="25.38" transform="translate(18.54 78.47) rotate(-78.75)"/>
    </clipPath>
    <clipPath id="clip-path-3">
      <rect class="cls-1" x="13.78" y="1.29" width="42.15" height="42.86"/>
    </clipPath>
  </defs>
  <g id="Layer_191" data-name="Layer 191">
    <g>
      <g>
        <path class="cls-2" d="M19.57,27.31a3.14,3.14,0,0,1-1.4-2.19c0-.21-.06-.4-.09-.53a4,4,0,0,0-.95-1.89c1.17-2.55-.37-6.83-.37-6.83-1.69.64-3.91,3.57-4.7,4.67a11.67,11.67,0,0,0-5.5,1C5.35,20.78,2.3,19,.54,19c0,0,.17,4.18,2,6.21a4.09,4.09,0,0,0-.3,2.44c0,.12.07.31.12.52a3.22,3.22,0,0,1-.47,2.56,3,3,0,0,0-.47,2.31c.62,3.19,5.76,6.36,11.14,5.31s8.94-5.92,8.32-9.1a3.06,3.06,0,0,0-1.3-2Zm0,0"/>
        <path class="cls-3" d="M12.55,38.39c5.37-1,8.94-5.92,8.32-9.1A3,3,0,0,0,20,27.66a4.9,4.9,0,0,1-2.8,2c-2.71.53-3.52-1.93-6.62-1.33S7.65,31.49,4.94,32a4.87,4.87,0,0,1-3.33-.77,3,3,0,0,0-.2,1.83c.62,3.19,5.76,6.36,11.14,5.31Zm0,0"/>
        <path class="cls-4" d="M11.91,35.15a1.47,1.47,0,0,0,1.16-1.73L13,33.06c-1,.2-1.53-.2-1.65-.8.12.6-.23,1.17-1.23,1.37l.07.36a1.48,1.48,0,0,0,1.72,1.16Zm0,0"/>
        <path class="cls-3" d="M7.49,25.91c.08.4-.41.45-1,.57a1.27,1.27,0,0,1-1.29-.87c-.08-.4.41-.45,1-.57a1.26,1.26,0,0,1,1.29.87Zm0,0"/>
        <path class="cls-3" d="M12.54,24.93c.08.39.55.26,1.15.15a1.28,1.28,0,0,0,.87-1.3c-.08-.39-.55-.26-1.15-.15a1.28,1.28,0,0,0-.87,1.3Zm0,0"/>
        <path class="cls-5" d="M5.78,22.88a27.63,27.63,0,0,0-3.37-2,12.75,12.75,0,0,0,1.42,3.46Zm0,0"/>
        <path class="cls-5" d="M13.35,21.4a27.28,27.28,0,0,1,2.39-3.08,13,13,0,0,1,0,3.74Zm0,0"/>
        <path class="cls-6" d="M12.44,30.18a1.61,1.61,0,0,1-1.16,1.72,1.6,1.6,0,0,1-1.72-1.16c-.12-.59.5-.84,1.3-1s1.47-.16,1.58.44Zm0,0"/>
        <path class="cls-7" d="M12.93,32.7c-.4.08-1.1.12-1.22-.51v0a2,2,0,0,0,1.1-2c-.21-1.08-1.57-.82-2-.73S9,29.73,9.2,30.81A2,2,0,0,0,11,32.29v0c.12.63-.54.86-.94.94-.82.16-1.51-.1-1.58-.44L7.75,33c.14.72,1,1.16,2.08,1.07v0a1.83,1.83,0,1,0,3.6-.71v0c1-.31,1.67-1,1.53-1.77l-.73.14c.07.34-.47.84-1.3,1Zm-3-2c0-.1-.07-.36,1-.57s1.13,0,1.15.15a1.24,1.24,0,0,1-.87,1.29,1.24,1.24,0,0,1-1.29-.87Zm2.79,2.82a1.1,1.1,0,1,1-2.16.43v0a2.17,2.17,0,0,0,.67-.36l.12.61.72-.14L12,33.39a2.14,2.14,0,0,0,.76.08Zm0,0"/>
        <path class="cls-7" d="M6,24.71c-.46.08-.86.16-1.06.46a.66.66,0,0,0-.1.51,1.62,1.62,0,0,0,1.72,1.16l.28-.05a1.39,1.39,0,0,0,.93-.44.65.65,0,0,0,.09-.51,1.61,1.61,0,0,0-1.72-1.16ZM7.13,26a2.37,2.37,0,0,1-.57.14l-.15,0a.91.91,0,0,1-.85-.55,2.64,2.64,0,0,1,.57-.14l.14,0a.93.93,0,0,1,.86.55Zm0,0"/>
        <path class="cls-7" d="M4.6,28.34a5.51,5.51,0,0,1,2.82.14l.28-.68a6.15,6.15,0,0,0-3.24-.18Zm0,0"/>
        <path class="cls-7" d="M13.49,25.49l.27,0a1.63,1.63,0,0,0,1.16-1.72.66.66,0,0,0-.28-.44,1.52,1.52,0,0,0-1.16,0l-.14,0A1.61,1.61,0,0,0,12.18,25a.66.66,0,0,0,.28.44,1.36,1.36,0,0,0,1,0Zm0-1.5.14,0a2.91,2.91,0,0,1,.58-.09.92.92,0,0,1-.58.84l-.14,0a2.91,2.91,0,0,1-.58.09.92.92,0,0,1,.58-.84Zm0,0"/>
        <path class="cls-7" d="M13.58,27.28a5.21,5.21,0,0,1,2.55-1.18L16,25.37a6.09,6.09,0,0,0-2.93,1.39Zm0,0"/>
        <g class="cls-8">
          <path class="cls-7" d="M3.76,24.74a.34.34,0,0,0,.29-.07l2-1.5a.37.37,0,0,0,.15-.3.43.43,0,0,0-.16-.3,28.71,28.71,0,0,0-3.44-2,.4.4,0,0,0-.38.05.38.38,0,0,0-.12.36,12.91,12.91,0,0,0,1.46,3.57.36.36,0,0,0,.25.18ZM5.15,22.9l-1.21.93A15.14,15.14,0,0,1,3,21.6c.77.41,1.66,1,2.17,1.3Zm0,0"/>
          <path class="cls-7" d="M19.78,27a2.77,2.77,0,0,1-1.25-1.93c0-.23-.06-.42-.09-.56a4.23,4.23,0,0,0-.89-1.89c1.05-2.66-.39-6.7-.45-6.88a.36.36,0,0,0-.19-.21.39.39,0,0,0-.28,0c-1.7.63-3.81,3.33-4.75,4.63a12,12,0,0,0-5.29,1C5,20.14,2.26,18.62.53,18.67a.34.34,0,0,0-.26.12.4.4,0,0,0-.1.26c0,.17.19,4.11,1.93,6.27a4.41,4.41,0,0,0-.23,2.44c0,.13.07.32.13.54a2.79,2.79,0,0,1-.43,2.26,3.39,3.39,0,0,0-.52,2.59c.67,3.43,6,6.69,11.57,5.6s9.28-6.11,8.61-9.53A3.4,3.4,0,0,0,19.78,27ZM2.18,31a3.52,3.52,0,0,0,.53-2.85c0-.2-.1-.38-.12-.51a3.73,3.73,0,0,1,.27-2.21A.35.35,0,0,0,2.8,25C1.41,23.45,1,20.49.94,19.42c1.76.2,4.56,1.89,5.42,2.43a.34.34,0,0,0,.35,0,11.47,11.47,0,0,1,5.33-1,.37.37,0,0,0,.32-.15c.61-.85,2.6-3.52,4.18-4.38.33,1.08,1.15,4.21.26,6.17a.35.35,0,0,0,.05.39,3.66,3.66,0,0,1,.87,1.72,4.25,4.25,0,0,1,.08.51,3.59,3.59,0,0,0,1.56,2.45l.13.09a4.32,4.32,0,0,1-2.36,1.56,4,4,0,0,1-2.84-.61,5.22,5.22,0,0,0-3.78-.72A5.3,5.3,0,0,0,7.27,30a4,4,0,0,1-2.4,1.63A4.27,4.27,0,0,1,2.1,31.1L2.18,31Zm18.33-1.61c.6,3.08-3,7.69-8,8.67S2.37,36.09,1.77,33a2.74,2.74,0,0,1,0-1.24A4.87,4.87,0,0,0,5,32.38a4.7,4.7,0,0,0,2.81-1.87A4.47,4.47,0,0,1,14,29.31a4.67,4.67,0,0,0,3.31.68A4.89,4.89,0,0,0,20,28.22a2.79,2.79,0,0,1,.5,1.14Zm0,0"/>
        </g>
        <path class="cls-7" d="M13.25,21.76l2.37.66a.35.35,0,0,0,.3-.05.39.39,0,0,0,.17-.26,13.14,13.14,0,0,0,0-3.86.36.36,0,0,0-.25-.28.36.36,0,0,0-.37.09A26.63,26.63,0,0,0,13,21.2a.38.38,0,0,0,0,.33.37.37,0,0,0,.25.22Zm2.21-2.59a14,14,0,0,1-.06,2.42l-1.46-.4c.35-.5,1-1.36,1.52-2Zm0,0"/>
      </g>
      <g>
        <path class="cls-9" d="M69.19,29.92a35.42,35.42,0,0,0-3.82-4.64l1.41-.59-1.5-1.16a11.39,11.39,0,0,0,2.24-4.73,10.78,10.78,0,0,0-5.23.26A16.79,16.79,0,0,0,59.06,18a16.27,16.27,0,0,0-3.41-.24,10.69,10.69,0,0,0-4.73-2.24,11.51,11.51,0,0,0,.26,5.23l-1.83.5,1.08,1.08a34.51,34.51,0,0,0-5.3,2.82l1.57.75a23.2,23.2,0,0,0-2.32,3L46,29.2s-.25,1.24,1.58,5.06L51,34.5l3.9,4.23,5.22-2.41,3.24,1.07c3.15-2.82,3.4-4.07,3.4-4.07l1.66.33a24.34,24.34,0,0,0-1-3.65Zm0,0"/>
        <path class="cls-4" d="M56.71,30.46l-.26-.06a3,3,0,0,1-2.61.78l-.24,1.24a2.53,2.53,0,1,0,5,1l.25-1.24a2.93,2.93,0,0,1-2.11-1.71Zm0,0"/>
        <g class="cls-10">
          <path class="cls-6" d="M58.75,28.19a1.69,1.69,0,1,1-3.32-.66c.13-.64,1-1,1.89-.83s1.56.85,1.43,1.49Zm0,0"/>
          <path class="cls-7" d="M69.57,30.11a.42.42,0,0,0,0-.43,34.93,34.93,0,0,0-3.44-4.25l.84-.34a.44.44,0,0,0,.26-.34.42.42,0,0,0-.16-.39l-1.15-.89a12.13,12.13,0,0,0,2-4.58.42.42,0,0,0-.33-.5,11.23,11.23,0,0,0-5.28.22,15.57,15.57,0,0,0-3.18-1,16.25,16.25,0,0,0-3.34-.26A11.26,11.26,0,0,0,51,15.09a.42.42,0,0,0-.5.33,12.14,12.14,0,0,0,.13,5l-1.4.38a.43.43,0,0,0-.3.3.44.44,0,0,0,.11.41l.64.64a34.31,34.31,0,0,0-4.8,2.61.41.41,0,0,0-.19.38.42.42,0,0,0,.25.35L46,26a19.83,19.83,0,0,0-2,2.64A.39.39,0,0,0,44,29a.41.41,0,0,0,.3.24l1.31.26a14.29,14.29,0,0,0,1.63,4.9.44.44,0,0,0,.35.24l3.24.23L54.62,39a.41.41,0,0,0,.49.1l5.07-2.34,3.08,1a.41.41,0,0,0,.41-.08,14.16,14.16,0,0,0,3.38-3.9l1.31.26a.44.44,0,0,0,.51-.47A19.57,19.57,0,0,0,68,30.4l1.18-.06a.43.43,0,0,0,.36-.23Zm-2.14-.53a.42.42,0,0,0-.33.19.4.4,0,0,0,0,.38,27.35,27.35,0,0,1,.87,3l-.8-.16a5.53,5.53,0,0,0-1.32-2.38l-.52.67a5,5,0,0,1,1.06,2.06c-.12.31-.7,1.46-3.05,3.6l-3-1a.5.5,0,0,0-.32,0L55,38.21l-3.69-4a.4.4,0,0,0-.23-.12h0l-3.16-.23c-1.36-2.89-1.45-4.18-1.45-4.49a5,5,0,0,1,1.78-1.5L48,27a5.41,5.41,0,0,0-2.12,1.69l-.81-.16a26.33,26.33,0,0,1,2-2.41.44.44,0,0,0,.1-.37.45.45,0,0,0-.24-.3L46,25.07a36.21,36.21,0,0,1,4.59-2.37.45.45,0,0,0,.26-.31.41.41,0,0,0-.12-.38l-.56-.57,1.12-.3a.42.42,0,0,0,.26-.21.41.41,0,0,0,0-.34,10.63,10.63,0,0,1-.3-4.58,10.55,10.55,0,0,1,4.1,2,.38.38,0,0,0,.3.11,15.2,15.2,0,0,1,3.3.24,15,15,0,0,1,3.14,1,.47.47,0,0,0,.33,0A10.2,10.2,0,0,1,67,19.14a10.37,10.37,0,0,1-2,4.11.42.42,0,0,0-.11.32.43.43,0,0,0,.16.3l.92.71-.73.31a.43.43,0,0,0-.26.3.46.46,0,0,0,.12.39,36,36,0,0,1,3.34,4Zm0,0"/>
        </g>
        <path class="cls-7" d="M58.9,31.75c-1.15-.23-1.89-1.3-1.82-1.65V30a2.49,2.49,0,0,0,2.08-1.77c.17-.88-.6-1.76-1.76-2A1.89,1.89,0,0,0,55,27.44a2.49,2.49,0,0,0,1.24,2.44v.05a2.28,2.28,0,0,1-2.32.83,1.61,1.61,0,0,1-1.42-1.57L51.68,29a2.36,2.36,0,0,0,1.67,2.46l-.17.86A3,3,0,0,0,59,33.5l.17-.86A2.36,2.36,0,0,0,61.64,31l-.83-.17a1.6,1.6,0,0,1-1.91.91Zm-3-4.14c.07-.35.66-.65,1.39-.5s1.17.64,1.1,1a1.59,1.59,0,0,1-1.51,1.08,1.58,1.58,0,0,1-1-1.58Zm2.31,5.72A2.12,2.12,0,0,1,54,32.51l.17-.86a3.63,3.63,0,0,0,1.8-.38l-.56,2.81.83.17.56-2.81a3.52,3.52,0,0,0,1.52,1Zm0,0"/>
        <path class="cls-7" d="M53.87,19.79a.41.41,0,0,0,.13-.36l-.17-1.33-.84.11.1.74-.67-.13-.17.83,1.25.25a.46.46,0,0,0,.37-.11Zm0,0"/>
        <path class="cls-7" d="M65,20.59l-.73-.42-.66,1.17a.39.39,0,0,0,0,.38.41.41,0,0,0,.3.24l1.25.25.16-.83-.67-.14Zm0,0"/>
        <path class="cls-7" d="M55.5,25a.85.85,0,0,1-1,.66.83.83,0,0,1-.66-1,.84.84,0,0,1,1-.67.85.85,0,0,1,.67,1Zm0,0"/>
        <path class="cls-7" d="M61.3,26.19a.84.84,0,0,1-1,.67.85.85,0,1,1,.33-1.66.83.83,0,0,1,.66,1Zm0,0"/>
      </g>
      <g>
        <g class="cls-11">
          <path class="cls-9" d="M54.74,16.33c-1.42-4.26,2.13-14.92-4.26-14.21-5.57.62-7.91,8.25-8.41,10.2a16.4,16.4,0,0,0-14.43,0c-.51-2-2.84-9.58-8.42-10.2-6.39-.71-2.84,10-4.26,14.21s.71,7.81,3.55,6.39c.09,0,0,3.24,0,4.27,0,0-2.84,9.23.71,12.07,2.89,2.32,5.31,2.28,7.65,2.18a16.33,16.33,0,0,0,16,0c2.33.09,4.75.13,7.64-2.18,3.53-2.83.74-12,.71-12.07V22.72c2.84,1.42,5-2.13,3.55-6.39Zm0,0"/>
          <path class="cls-12" d="M50.48,39.06c3.54-2.83.74-12,.71-12.07V22.72c2.84,1.42,5-2.13,3.55-6.39S56.87,1.41,50.48,2.12c-5.57.62-7.91,8.25-8.41,10.2A17.16,17.16,0,0,0,39,11.17c-.45,4.08-1.31,17,5.85,19.37,5.52,1.84,6,6.07,5,9,.21-.15.43-.31.65-.49Zm0,0"/>
          <path class="cls-12" d="M19.22,2.12c-6.39-.71-2.84,10-4.26,14.21s.71,7.81,3.55,6.39V27s-2.84,9.23.71,12.07c.22.18.44.34.66.49-.95-2.94-.5-7.17,5-9,7.15-2.39,6.3-15.29,5.84-19.37a17.06,17.06,0,0,0-3.11,1.15c-.51-2-2.84-9.58-8.42-10.2Zm0,0"/>
        </g>
        <path class="cls-4" d="M24.91,14.2S22.06,5,19.22,6.38s-.71,5-.71,8.53.71,5,1.42,5,5-5.68,5-5.68Zm0,0"/>
        <path class="cls-13" d="M34.85,40.48a2.84,2.84,0,0,0,2.84-2.84v-.71c-2,0-2.84-1-2.84-2.13,0,1.18-.88,2.13-2.84,2.13v.71a2.84,2.84,0,0,0,2.84,2.84Zm0,0"/>
        <path class="cls-12" d="M37.69,31.25a3.12,3.12,0,0,1-2.84,2.84A3.12,3.12,0,0,1,32,31.25c0-1.18,1.27-1.42,2.84-1.42s2.84.24,2.84,1.42Zm0,0"/>
        <g class="cls-11">
          <path class="cls-7" d="M17.8,14.91c0,4.7,1.16,5.68,2.13,5.68.35,0,1.07,0,5.54-6a.68.68,0,0,0,.11-.63c-.22-.73-2.26-7.16-4.88-8.28a2.07,2.07,0,0,0-1.8,0c-2.41,1.2-1.95,3.63-1.5,6a17.08,17.08,0,0,1,.4,3.19ZM19.54,7A.59.59,0,0,1,19.83,7a.67.67,0,0,1,.31.07c1.45.62,3.15,4.51,4,7.05a47.1,47.1,0,0,1-4.22,5c-.24-.32-.68-1.46-.68-4.18a18.39,18.39,0,0,0-.43-3.46C18.33,9,18.15,7.71,19.54,7Zm0,0"/>
          <path class="cls-7" d="M17.84,23.7c0,.58,0,1.35,0,1.9s0,1,0,1.28c-.32,1.11-2.73,9.77,1,12.74A10.63,10.63,0,0,0,26.7,42,17,17,0,0,0,43,42a10.57,10.57,0,0,0,7.91-2.34c3.71-3,1.31-11.63,1-12.74V23.7A2.89,2.89,0,0,0,54.37,23c1.56-1.35,2-4.12,1.05-6.91a18.09,18.09,0,0,1-.28-5.46c.12-3.3.24-6.72-1.52-8.35a3.92,3.92,0,0,0-3.22-.88c-5.38.6-7.9,7-8.79,9.92a17.05,17.05,0,0,0-13.51,0C27.21,8.38,24.69,2,19.3,1.41a3.92,3.92,0,0,0-3.22.88c-1.76,1.63-1.63,5.05-1.51,8.36a18.47,18.47,0,0,1-.28,5.46c-.93,2.78-.51,5.56,1,6.91a2.93,2.93,0,0,0,2.51.68ZM39.57,12.09a15.24,15.24,0,0,1,2.18.87.71.71,0,0,0,1-.46c.4-1.51,2.63-9.1,7.81-9.67a2.49,2.49,0,0,1,2.09.5c1.28,1.19,1.17,4.42,1.07,7.26a18.45,18.45,0,0,0,.36,6c.86,2.58.27,4.6-.63,5.39a1.64,1.64,0,0,1-1.94.15.68.68,0,0,0-.69,0,.72.72,0,0,0-.34.61V27a.76.76,0,0,0,0,.21c.64,2.08,1.73,7.33.42,10.12.08-2.93-1.42-6-5.91-7.46-6.24-2.08-5.87-13.23-5.45-17.77Zm-4.72-.73a15.67,15.67,0,0,1,3.34.36c-1.55,15.13,3.93,18.67,6.38,19.49,5.73,1.91,5.11,6.27,4.65,7.89a9.44,9.44,0,0,1-6.35,1.43.79.79,0,0,0-.38.09,15.63,15.63,0,0,1-15.28,0,.67.67,0,0,0-.34-.09h0a9.46,9.46,0,0,1-6.36-1.43c-.46-1.62-1.08-6,4.65-7.89,2.46-.82,7.93-4.36,6.39-19.49a15.51,15.51,0,0,1,3.33-.36ZM15.63,16.55a18.42,18.42,0,0,0,.36-6c-.1-2.84-.22-6.07,1.07-7.26a2.51,2.51,0,0,1,2.08-.5C24.33,3.4,26.56,11,27,12.5a.71.71,0,0,0,.39.47A.69.69,0,0,0,28,13a15.24,15.24,0,0,1,2.18-.87c.43,4.54.79,15.69-5.45,17.77-4.49,1.5-6,4.53-5.9,7.46-1.32-2.79-.23-8,.41-10.13a.64.64,0,0,0,0-.2c0-.31,0-.81,0-1.37.05-3.25.05-3.25-.35-3.5a.73.73,0,0,0-.7,0,1.63,1.63,0,0,1-1.93-.15c-.9-.79-1.49-2.81-.63-5.39Zm0,0"/>
        </g>
        <path class="cls-7" d="M35.56,34.8v-.09a3.92,3.92,0,0,0,2.84-3.46c0-2.13-2.67-2.13-3.55-2.13s-3.55,0-3.55,2.13a3.94,3.94,0,0,0,2.84,3.46v.09c0,1.24-1.33,1.42-2.13,1.42-1.63,0-2.84-.75-2.84-1.42H27.75c0,1.43,1.51,2.58,3.55,2.8v0a3.55,3.55,0,1,0,7.1,0v0c2-.22,3.56-1.37,3.56-2.8H40.54c0,.67-1.22,1.42-2.85,1.42-.79,0-2.13-.18-2.13-1.42Zm-2.84-3.55c0-.22,0-.71,2.13-.71S37,31,37,31.25a2.41,2.41,0,0,1-2.13,2.13,2.42,2.42,0,0,1-2.13-2.13ZM37,37.64a2.13,2.13,0,0,1-4.26,0v0a3.9,3.9,0,0,0,1.42-.43v1.19h1.42V37.16a4,4,0,0,0,1.42.43Zm0,0"/>
        <rect class="cls-7" x="23.49" y="34.09" width="1.42" height="1.42"/>
        <rect class="cls-7" x="24.91" y="36.93" width="1.42" height="1.42"/>
        <rect class="cls-7" x="27.04" y="31.96" width="1.42" height="1.42"/>
        <rect class="cls-7" x="41.25" y="31.96" width="1.42" height="1.42"/>
        <rect class="cls-7" x="43.38" y="35.51" width="1.42" height="1.42"/>
        <rect class="cls-7" x="46.22" y="34.09" width="1.42" height="1.42"/>
        <path class="cls-7" d="M31.66,28.31a6.53,6.53,0,0,1,6.38,0l.73-1.22a8,8,0,0,0-7.84,0Zm0,0"/>
        <path class="cls-7" d="M26.33,24.14a1.42,1.42,0,1,1-1.42-1.42,1.42,1.42,0,0,1,1.42,1.42Zm0,0"/>
        <path class="cls-7" d="M45.51,24.14a1.42,1.42,0,1,1-1.42-1.42,1.42,1.42,0,0,1,1.42,1.42Zm0,0"/>
        <path class="cls-7" d="M24.06,19.86l.28-1.39,3.55.71-.27,1.39Zm0,0"/>
        <path class="cls-7" d="M41.83,19.2l3.55-.71.28,1.39-3.55.71Zm0,0"/>
        <path class="cls-4" d="M44.8,14.2S47.64,5,50.48,6.38s.71,5,.71,8.53-.71,5-1.42,5-5-5.68-5-5.68Zm0,0"/>
        <path class="cls-7" d="M49.77,20.59c1,0,2.13-1,2.13-5.68a17.09,17.09,0,0,1,.41-3.19c.45-2.35.91-4.76-1.51-6a2,2,0,0,0-1.79,0c-2.62,1.12-4.67,7.55-4.89,8.28a.68.68,0,0,0,.11.63c4.48,6,5.19,6,5.54,6ZM49.56,7a.64.64,0,0,1,.6,0c1.4.69,1.22,2,.75,4.43a19.15,19.15,0,0,0-.43,3.46c0,2.81-.46,3.93-.66,4.2a44.37,44.37,0,0,1-4.23-5c.82-2.53,2.52-6.42,4-7Zm0,0"/>
      </g>
    </g>
  </g>
</svg>
