<svg xmlns="http://www.w3.org/2000/svg" width="70" height="70" viewBox="0 0 70 70">
  <defs>
    <style>
      .cls-1 {
        fill: #262626;
      }

      .cls-2 {
        fill: #e35446;
      }

      .cls-3 {
        fill: #da5d57;
      }
    </style>
  </defs>
  <g id="Layer_200" data-name="Layer 200">
    <g>
      <path class="cls-1" d="M22.14,5.9c-.55.37-1.08.77-1.59,1.19l-.2.15c-.48.4-.93.82-1.38,1.26l-.28.27-.48.46a2,2,0,0,0-.21.3,22.68,22.68,0,0,0,.09,30.66,1.88,1.88,0,0,0,.12.18l.27.25c.31.33.64.64,1,1s.43.41.66.61c.39.33.8.64,1.21,1l.56.41a18.77,18.77,0,0,0,1.6,1c.1.06.19.13.29.18a22.67,22.67,0,0,0,22.26,0c.1,0,.2-.12.3-.18.54-.31,1.08-.65,1.6-1,.19-.13.37-.28.55-.41.41-.31.82-.62,1.21-1,.23-.2.44-.4.66-.61s.67-.62,1-1c.08-.08.18-.16.26-.25a1.15,1.15,0,0,0,.14-.19,22.68,22.68,0,0,0,.07-30.66,1.94,1.94,0,0,0-.21-.29c-.15-.16-.32-.3-.48-.46l-.28-.27q-.66-.66-1.38-1.26l-.19-.15c-.52-.42-1-.82-1.59-1.19l-.12-.07a22.58,22.58,0,0,0-25.31,0Zm.52,3.16c.3-.22.59-.45.89-.66L24,8.08c.39-.26.79-.5,1.21-.73l.33-.18c.46-.25.93-.48,1.42-.69l.28-.12q.57-.23,1.14-.42a21,21,0,0,0-2.62,5,30.22,30.22,0,0,1-4-1.19L22,9.63C22.19,9.43,22.43,9.25,22.66,9.06ZM42.84,6.48q.72.31,1.41.69l.34.18c.41.23.81.47,1.2.73l.48.32c.31.21.6.44.89.66s.48.37.7.57l.17.15A30.83,30.83,0,0,1,44,11a21,21,0,0,0-2.62-5q.59.19,1.14.42Zm12,16.91H46.29a41.94,41.94,0,0,0-1.36-9.69A30.21,30.21,0,0,0,50.18,12,19.82,19.82,0,0,1,54.82,23.39ZM50.2,37.65a31,31,0,0,0-5.27-1.75,41.14,41.14,0,0,0,1.36-9.66h8.53A19.91,19.91,0,0,1,50.2,37.65ZM47.86,40c-.22.2-.46.38-.7.57s-.58.45-.88.66l-.49.32c-.39.26-.79.5-1.2.73l-.34.18q-.69.38-1.41.69l-.29.12q-.55.23-1.14.42a21,21,0,0,0,2.62-5,30.83,30.83,0,0,1,4,1.19ZM27,43.15c-.49-.21-1-.44-1.42-.69l-.33-.18c-.41-.23-.81-.47-1.21-.73l-.48-.32c-.3-.21-.6-.44-.89-.66s-.47-.37-.7-.57l-.16-.15a30.22,30.22,0,0,1,4-1.19,21,21,0,0,0,2.62,5q-.57-.19-1.14-.42ZM15,26.24h8.53a41.84,41.84,0,0,0,1.36,9.67,30.61,30.61,0,0,0-5.26,1.75A19.91,19.91,0,0,1,15,26.24ZM19.64,12A30,30,0,0,0,24.9,13.7a41.39,41.39,0,0,0-1.37,9.69H15A19.89,19.89,0,0,1,19.64,12ZM33.49,34.81a44.29,44.29,0,0,0-5.78.54,39,39,0,0,1-1.33-9.11h7.11Zm0,2.88v6.78c-1.57-.69-3.09-2.47-4.34-5.13-.18-.39-.35-.8-.52-1.21A40.07,40.07,0,0,1,33.49,37.69Zm2.85,0a39.9,39.9,0,0,1,4.85.44c-.16.41-.33.82-.51,1.21-1.23,2.66-2.76,4.44-4.34,5.13Zm0-2.88V26.24h7.1a38.82,38.82,0,0,1-1.32,9.1A44.64,44.64,0,0,0,36.34,34.81Zm0-11.42v-8.6a44.32,44.32,0,0,0,5.77-.53,38.55,38.55,0,0,1,1.33,9.13Zm0-11.45V5.16c1.58.69,3.11,2.47,4.34,5.13.18.39.35.8.51,1.21A39.9,39.9,0,0,1,36.34,11.94ZM33.49,5.16v6.78a40.07,40.07,0,0,1-4.86-.44c.17-.41.34-.82.52-1.21C30.38,7.63,31.91,5.85,33.49,5.16Zm0,9.63v8.6H26.38a39.07,39.07,0,0,1,1.33-9.13A44.48,44.48,0,0,0,33.49,14.79Z"/>
      <g>
        <path class="cls-2" d="M58.2,34.91H12.29a2,2,0,0,1-2-2V17a2,2,0,0,1,2-2H58.2a2,2,0,0,1,2,2v15.9a2,2,0,0,1-2,2"/>
        <path class="cls-3" d="M56.22,31.93H14.28a1,1,0,0,1-1-1V19a1,1,0,0,1,1-1H56.22a1,1,0,0,1,1,1V30.94a1,1,0,0,1-1,1"/>
        <path class="cls-1" d="M56.22,32.43H14.28a1.49,1.49,0,0,1-1.49-1.49V19a1.49,1.49,0,0,1,1.49-1.49H56.22A1.49,1.49,0,0,1,57.71,19V30.94a1.49,1.49,0,0,1-1.49,1.49ZM14.28,18.51a.5.5,0,0,0-.5.5V30.94a.49.49,0,0,0,.5.49H56.22a.48.48,0,0,0,.49-.49V19a.49.49,0,0,0-.49-.5Zm0,0"/>
        <path class="cls-1" d="M52.74,35.41H12.29a2.48,2.48,0,0,1-2.48-2.49V17a2.48,2.48,0,0,1,2.48-2.48H23.52v1H12.29A1.49,1.49,0,0,0,10.8,17v15.9a1.49,1.49,0,0,0,1.49,1.49H52.74Zm0,0"/>
        <path class="cls-1" d="M25.81,29.45a.5.5,0,0,1-.42-.23l-4.05-6.49v6.72h-1V21a.5.5,0,0,1,.92-.26l4,6.48V20.5h1V29a.5.5,0,0,1-.35.48l-.14,0Zm0,0"/>
        <path class="cls-1" d="M34.25,21.5v-1H28.79a.5.5,0,0,0-.5.5v8a.5.5,0,0,0,.5.5h5.46v-1h-5v-3h5v-1h-5v-3Z"/>
        <path class="cls-1" d="M41.71,29.45a.5.5,0,0,1-.42-.23l-2.07-3.31-2.06,3.3a.5.5,0,0,1-.92-.26V20.5h1v6.72l1.57-2.5a.47.47,0,0,1,.41-.23.5.5,0,0,1,.42.23l1.57,2.5V20.5h1V29a.5.5,0,0,1-.35.48l-.14,0Zm0,0"/>
        <path class="cls-1" d="M47.67,29.45H44.19v-1h3.48a1.49,1.49,0,0,0,0-3h-1a2.49,2.49,0,1,1,0-5h3.47v1H46.68a1.49,1.49,0,1,0,0,3h1a2.49,2.49,0,0,1,0,5Zm0,0"/>
      </g>
    </g>
  </g>
</svg>
