<svg xmlns="http://www.w3.org/2000/svg" width="70" height="70" viewBox="0 0 70 70">
  <defs>
    <style>
      .cls-1 {
        fill: #ffce58;
      }

      .cls-2 {
        fill: #333;
      }

      .cls-3 {
        fill: #feeb95;
      }

      .cls-4 {
        fill: #a9ba5a;
      }

      .cls-5 {
        fill: #fff;
      }

      .cls-6 {
        fill: #bf7e68;
      }
    </style>
  </defs>
  <g id="Layer_220" data-name="Layer 220">
    <g>
      <path class="cls-1" d="M40.37,8.31a6.44,6.44,0,1,1-6.44-6.43,6.43,6.43,0,0,1,6.44,6.43Zm0,0"/>
      <path class="cls-2" d="M33.93,15.5a7.19,7.19,0,1,1,7.19-7.19,7.19,7.19,0,0,1-7.19,7.19Zm0-12.86a5.68,5.68,0,1,0,5.68,5.67,5.68,5.68,0,0,0-5.68-5.67Zm0,0"/>
      <path class="cls-3" d="M36.61,8.31a2.68,2.68,0,1,1-2.68-2.67,2.67,2.67,0,0,1,2.68,2.67Zm0,0"/>
      <path class="cls-2" d="M33.93,11.74a3.43,3.43,0,1,1,3.43-3.43,3.43,3.43,0,0,1-3.43,3.43Zm0-5.34a1.92,1.92,0,1,0,1.92,1.91A1.92,1.92,0,0,0,33.93,6.4Zm0,0"/>
      <path class="cls-2" d="M34.31,38.2a.76.76,0,0,1-.75-.76V14.74a.76.76,0,0,1,1.51,0v22.7a.76.76,0,0,1-.76.76Zm0,0"/>
      <path class="cls-4" d="M42.57,25.71,40.9,24.17l3.19-2.74-2-1,3.48-3.32L45.2,15.5l-.32-3-2.41,2.4-1.76-.15-.54,4.77-2-1L38,22.71l-2.24-.4-.54,4.77-1.76-.15,2,4.59,4.86-1.18L39.09,29Zm0,0"/>
      <path class="cls-2" d="M35.41,32.28a.75.75,0,0,1-.69-.46l-2-4.59a.73.73,0,0,1,.08-.74.72.72,0,0,1,.68-.31l1,.09.45-4a.79.79,0,0,1,.3-.52.73.73,0,0,1,.59-.14l1.41.24.2-3.34a.72.72,0,0,1,.37-.61.77.77,0,0,1,.72,0l1,.5.42-3.7a.75.75,0,0,1,.82-.67l1.4.12,2.16-2.15a.76.76,0,0,1,1.29.45l.32,3L46.34,17a.76.76,0,0,1-.21.73l-2.7,2.57,1,.49A.75.75,0,0,1,44.58,22L42,24.19l1,1a.73.73,0,0,1,.25.55.76.76,0,0,1-.24.55l-2.94,2.81.69.76a.75.75,0,0,1,.16.73.77.77,0,0,1-.54.51l-4.87,1.19-.18,0Zm-.79-4.48,1.24,2.84,3-.74-.33-.36a.77.77,0,0,1,0-1.06l2.9-2.76-1.09-1a.8.8,0,0,1-.24-.57.77.77,0,0,1,.27-.56l2.32-2-.94-.47a.76.76,0,0,1-.41-.56.75.75,0,0,1,.23-.66l3.16-3-.3-1.22a.3.3,0,0,1,0-.1l-.16-1.47L43,15.4a.75.75,0,0,1-.6.22l-1-.09-.46,4a.74.74,0,0,1-.39.58.75.75,0,0,1-.7,0l-.93-.46-.18,3.05a.76.76,0,0,1-.89.7l-1.45-.25-.45,4a.76.76,0,0,1-.82.67Zm0,0"/>
      <path class="cls-4" d="M27.27,27.41,29,25.88l-3.12-2.6,2-1-3.4-3.16.43-1.59.37-2.95,2.36,2.29,1.74-.18.46,4.62,2-1,.18,4.06L34.13,24l.45,4.62,1.75-.18-2,4.48-4.81-1.07,1.2-1.29Zm0,0"/>
      <path class="cls-2" d="M34.28,33.67h-.17l-4.8-1.08a.76.76,0,0,1-.56-.51.77.77,0,0,1,.17-.74l.68-.73L26.76,28a.75.75,0,0,1-.25-.56.81.81,0,0,1,.25-.55l1-1-2.45-2a.74.74,0,0,1-.27-.67.78.78,0,0,1,.42-.59l1-.48-2.59-2.41a.75.75,0,0,1-.22-.75l.42-1.55.36-2.89a.74.74,0,0,1,.5-.62.75.75,0,0,1,.78.17l2.1,2L29.21,16a.76.76,0,0,1,.56.17.78.78,0,0,1,.27.51l.35,3.52,1-.48a.74.74,0,0,1,.72,0,.75.75,0,0,1,.37.62l.15,3.19L34,23.26a.74.74,0,0,1,.59.14.76.76,0,0,1,.3.53l.38,3.86,1-.1a.75.75,0,0,1,.69.31.77.77,0,0,1,.08.76L35,33.23a.75.75,0,0,1-.69.44Zm-3.35-2.28,2.92.66,1.24-2.72-.43,0a.73.73,0,0,1-.55-.17.75.75,0,0,1-.28-.51l-.38-3.79L32,25.17a.78.78,0,0,1-.61-.16.74.74,0,0,1-.28-.55L31,21.56l-.91.45a.77.77,0,0,1-.71,0,.76.76,0,0,1-.38-.59l-.39-3.86-1,.1a.75.75,0,0,1-.6-.21l-1.27-1.23-.18,1.44a.3.3,0,0,1,0,.1l-.31,1.16,3.07,2.84a.76.76,0,0,1,.23.67.78.78,0,0,1-.41.57l-.92.45,2.23,1.86a.75.75,0,0,1,0,1.14l-1.07,1L31.18,30a.69.69,0,0,1,.24.52.75.75,0,0,1-.2.55Zm0,0"/>
      <path class="cls-5" d="M43.85,31.39H26.34l2.1,13H41.75Zm0,0"/>
      <path class="cls-2" d="M41.75,45.14H28.44a.76.76,0,0,1-.75-.63l-2.1-13a.79.79,0,0,1,.17-.61.78.78,0,0,1,.58-.27H43.85a.76.76,0,0,1,.75.88l-2.1,13a.75.75,0,0,1-.75.63ZM29.08,43.63h12L43,32.14H27.23Zm0,0"/>
      <path class="cls-6" d="M28.44,44.25l.46,3H41.29l.46-3Zm0,0"/>
      <path class="cls-2" d="M41.29,48H28.9a.74.74,0,0,1-.74-.64l-.47-3a.76.76,0,0,1,.17-.6.78.78,0,0,1,.58-.27H41.75a.76.76,0,0,1,.58.27.73.73,0,0,1,.17.6l-.46,3a.76.76,0,0,1-.75.64ZM29.55,46.52H40.64L40.87,45H29.32Zm0,0"/>
    </g>
  </g>
</svg>
