<svg xmlns="http://www.w3.org/2000/svg" width="70" height="70" viewBox="0 0 70 70">
  <defs>
    <style>
      .cls-1 {
        fill: #a9ba5a;
      }

      .cls-2 {
        fill: #333;
      }

      .cls-3 {
        fill: #fff;
      }

      .cls-4 {
        fill: #bf7e68;
      }
    </style>
  </defs>
  <g id="Layer_219" data-name="Layer 219">
    <g>
      <path class="cls-1" d="M38.72,10.09a14.9,14.9,0,0,1-2.07,7.19,1.82,1.82,0,0,1-3.28,0,15,15,0,0,1-2.07-7.19,15,15,0,0,1,2-7.14,1.85,1.85,0,0,1,3.34,0,14.9,14.9,0,0,1,2,7.14Zm0,0"/>
      <path class="cls-2" d="M35,19.06a2.65,2.65,0,0,1-2.29-1.41,15.78,15.78,0,0,1-2.17-7.56,15.79,15.79,0,0,1,2.14-7.5A2.67,2.67,0,0,1,35,1.15h0a2.7,2.7,0,0,1,2.33,1.44,15.8,15.8,0,0,1,2.13,7.5,15.9,15.9,0,0,1-2.16,7.56A2.66,2.66,0,0,1,35,19.06ZM35,2.65a1.2,1.2,0,0,0-1,.67,14.27,14.27,0,0,0-2,6.77,14.26,14.26,0,0,0,2,6.82,1.09,1.09,0,0,0,2,0,14.26,14.26,0,0,0,2-6.82A14.39,14.39,0,0,0,36,3.32a1.2,1.2,0,0,0-1-.67Zm0,0"/>
      <path class="cls-1" d="M42.12,13.44a14.92,14.92,0,0,1-4.79,5.75,1.82,1.82,0,0,1-3-1.33,15,15,0,0,1,1-7.41,15.1,15.1,0,0,1,4.75-5.71,1.85,1.85,0,0,1,3.05,1.35,14.85,14.85,0,0,1-1,7.35Zm0,0"/>
      <path class="cls-2" d="M36.11,20.36a2.49,2.49,0,0,1-1-.21,2.63,2.63,0,0,1-1.53-2.21,15.75,15.75,0,0,1,1.07-7.79,15.71,15.71,0,0,1,5-6A2.6,2.6,0,0,1,43.88,6a15.76,15.76,0,0,1-1.07,7.73h0a15.78,15.78,0,0,1-5,6,2.76,2.76,0,0,1-1.66.57Zm5.21-15.3a1.31,1.31,0,0,0-.79.28A14.3,14.3,0,0,0,36,10.75a14.29,14.29,0,0,0-1,7,1.08,1.08,0,0,0,1.81.8,14.45,14.45,0,0,0,4.56-5.45h0a14.29,14.29,0,0,0,1-7,1.2,1.2,0,0,0-.66-1,1,1,0,0,0-.41-.08Zm.8,8.38h0Zm0,0"/>
      <path class="cls-1" d="M27.9,13.44a15,15,0,0,0,4.8,5.75,1.82,1.82,0,0,0,3-1.33,14.88,14.88,0,0,0-1-7.41,15,15,0,0,0-4.75-5.71,1.85,1.85,0,0,0-3.05,1.35,15,15,0,0,0,1,7.35Zm0,0"/>
      <path class="cls-2" d="M33.92,20.36a2.79,2.79,0,0,1-1.67-.57,15.85,15.85,0,0,1-5-6A15.76,15.76,0,0,1,26.15,6a2.59,2.59,0,0,1,4.24-1.87,15.63,15.63,0,0,1,5,6,15.87,15.87,0,0,1,1.07,7.79,2.65,2.65,0,0,1-1.53,2.21,2.49,2.49,0,0,1-1,.21ZM28.71,5.06a.94.94,0,0,0-.41.08,1.17,1.17,0,0,0-.66,1,14.29,14.29,0,0,0,.95,7,14.36,14.36,0,0,0,4.56,5.45,1.07,1.07,0,0,0,1.8-.8,14.39,14.39,0,0,0-.94-7,14.31,14.31,0,0,0-4.52-5.41,1.29,1.29,0,0,0-.78-.28Zm0,0"/>
      <path class="cls-1" d="M38.3,18.14A6.39,6.39,0,1,0,45.54,7.62Zm0,0"/>
      <path class="cls-2" d="M41.91,20a7.06,7.06,0,0,1-4-1.26.74.74,0,0,1-.19-1L44.92,7.19A.76.76,0,0,1,46,7a7.14,7.14,0,0,1-2.75,12.9,7.34,7.34,0,0,1-1.31.12Zm-2.54-2.11a5.65,5.65,0,0,0,7.2-1.84,5.65,5.65,0,0,0-.86-7.37Zm0,0"/>
      <path class="cls-1" d="M31.72,18.14A6.38,6.38,0,1,1,24.49,7.62Zm0,0"/>
      <path class="cls-2" d="M28.11,20A7.13,7.13,0,0,1,24.06,7a.73.73,0,0,1,.56-.12.76.76,0,0,1,.48.31l7.24,10.53a.75.75,0,0,1-.19,1,7.1,7.1,0,0,1-4,1.25ZM24.32,8.7a5.64,5.64,0,0,0-.86,7.37,5.64,5.64,0,0,0,7.19,1.84Zm0,0"/>
      <path class="cls-3" d="M49.82,18H20.18l3.55,21.68H46.27Zm0,0"/>
      <path class="cls-4" d="M23.73,39.72,24.52,45h21l.79-5.24Zm0,0"/>
      <path class="cls-2" d="M47,39.78,50.56,18.1a.7.7,0,0,0-.17-.6.74.74,0,0,0-.57-.27H20.18a.74.74,0,0,0-.57.27.7.7,0,0,0-.17.6L23,39.78h0v0l.79,5.25a.75.75,0,0,0,.74.63h21a.74.74,0,0,0,.74-.63L47,39.83v0Zm-25.95-21H48.94L45.63,38.91H24.37ZM44.83,44.21H25.17l-.57-3.74H45.4Z"/>
      <path class="cls-2" d="M42.93,36.08h-.14a.76.76,0,0,1-.6-.87l.32-1.71a.75.75,0,1,1,1.47.28l-.31,1.7a.75.75,0,0,1-.74.61Zm0,0"/>
      <path class="cls-2" d="M43.82,31.33l-.14,0a.74.74,0,0,1-.6-.87l1.49-8a.75.75,0,0,1,.88-.6.76.76,0,0,1,.6.88l-1.5,8a.74.74,0,0,1-.73.61Zm0,0"/>
    </g>
  </g>
</svg>
