<svg xmlns="http://www.w3.org/2000/svg" width="70" height="70" viewBox="0 0 70 70">
  <defs>
    <style>
      .cls-1 {
        fill: #f6851f;
      }

      .cls-2 {
        fill: #eb5628;
      }

      .cls-3 {
        fill: #c4c1ab;
      }

      .cls-4 {
        fill: #1e4077;
      }

      .cls-5 {
        fill: #4c64ae;
      }

      .cls-6 {
        fill: #262626;
      }
    </style>
  </defs>
  <g id="Layer_222" data-name="Layer 222">
    <g>
      <path class="cls-1" d="M54.4,13.84c-3.66-4.16-11-7-19.4-7-12.1,0-21.92,5.87-21.92,13.1H56.92a8.5,8.5,0,0,0-1.2-4.28"/>
      <path class="cls-2" d="M14.28,15.66a8.39,8.39,0,0,0-1.2,4.28H56.92a8.47,8.47,0,0,0-1.19-4.28Zm0,0"/>
    </g>
    <g>
      <path class="cls-3" d="M35.87,6.84H34.13V3.31c0-.32.39-.57.87-.57s.87.25.87.57Zm0,0"/>
      <rect class="cls-3" x="34.13" y="19.94" width="1.75" height="18.95"/>
      <path class="cls-4" d="M32.21,46.57a4.11,4.11,0,0,1-4.11-4.1V39.68h2.62v2.79a1.49,1.49,0,0,0,3,0V35.83h2.62v6.64a4.11,4.11,0,0,1-4.1,4.1Zm0,0"/>
      <path class="cls-5" d="M34.56,42.64a.87.87,0,0,1-.87-.87V35.83h1.75v5.94a.88.88,0,0,1-.88.87Zm0,0"/>
      <path class="cls-5" d="M29,42.64a.87.87,0,0,1-.87-.87V39.68h1.75v2.09a.88.88,0,0,1-.88.87Zm0,0"/>
      <path class="cls-6" d="M56.11,15.44l-.76.44a8,8,0,0,1,1.12,3.62H46.34c-.14-5.32-2.87-9.87-6.73-11.93,6.15.8,11.47,3.16,14.47,6.56l.66-.57C51.05,9.38,44.08,6.7,36.31,6.43V3.61a1.31,1.31,0,1,0-2.62,0V6.43A30.57,30.57,0,0,0,19.28,10.3c-4.28,2.56-6.63,6-6.63,9.64v3.32h.87V20.38H23.65v2.88h.87V20.38h9.17V34.09h.87V23.26h.88V35.4H33.69a.44.44,0,0,0-.44.43v6.64a1,1,0,1,1-2.09,0V39.68a.43.43,0,0,0-.44-.44H28.1a.44.44,0,0,0-.44.44v2.79a4.55,4.55,0,0,0,9.09,0V35.83a.44.44,0,0,0-.44-.43v-15h7.86V19.5H35.44V7.29c5.58.28,10,5.84,10,12.65v3.32h.87V20.38H56.48v2.88h.87V19.94A8.91,8.91,0,0,0,56.11,15.44Zm-20.24,27a3.67,3.67,0,1,1-7.33,0V40.11h1.74v2.36a1.93,1.93,0,0,0,3.85,0v-6.2h1.74ZM34.56,6.4V3.61a.44.44,0,0,1,.88,0V6.4ZM30.39,7.58c-3.86,2.05-6.59,6.6-6.73,11.92H13.53C13.87,13.65,21,8.79,30.39,7.58ZM34.13,19.5h-9.6c.19-6.61,4.57-11.94,10-12.21V19.5Z"/>
    </g>
  </g>
</svg>
