<svg xmlns="http://www.w3.org/2000/svg" width="70" height="70" viewBox="0 0 70 70">
  <defs>
    <style>
      .cls-1 {
        fill: #e8cc3a;
      }

      .cls-2 {
        fill: #608747;
      }

      .cls-3 {
        fill: #e5dcb6;
      }

      .cls-4 {
        fill: #c7a73e;
      }

      .cls-5 {
        fill: #292928;
      }
    </style>
  </defs>
  <g id="Layer_207" data-name="Layer 207">
    <g>
      <path class="cls-1" d="M28.72,41.46,26.43,20.37a5.86,5.86,0,0,1,1.23-4.27s-3.08-3.36-6.82.14c-5.11,4.77.34,24.61,4.35,28.65,1.58,1.59,3.48.63,4.82-.51a5.22,5.22,0,0,1-1.29-2.92Zm0,0"/>
      <path class="cls-2" d="M37,14a27.85,27.85,0,0,1,1.85-5.83,2.2,2.2,0,0,0,0-1.67,2.15,2.15,0,0,0-1.15-1.2,1.25,1.25,0,0,0-.25-.09,2.17,2.17,0,0,0-2.62,1.22A31.31,31.31,0,0,0,32.57,14Zm0,0"/>
      <path class="cls-1" d="M26.43,20.37l2.29,21.09a5.18,5.18,0,0,0,5.11,4.65H36a5.17,5.17,0,0,0,5.11-4.65l2.29-21.09A5.74,5.74,0,0,0,37.75,14H32.08a5.74,5.74,0,0,0-5.65,6.41Zm0,0"/>
      <path class="cls-3" d="M33,22.11c0,2.74-.15,4.51-1.55,4.51s-2.53-2.23-2.53-5,1.14-4.84,2.53-5c3.62-.33,1.55,2.68,1.55,5.42Zm0,0"/>
      <path class="cls-4" d="M41.09,41.46l2.28-21.09a5.81,5.81,0,0,0-1.23-4.27s3.08-3.36,6.83.14c5.11,4.77-.34,24.61-4.35,28.65-1.58,1.59-3.48.63-4.83-.51a5.23,5.23,0,0,0,1.3-2.92Zm0,0"/>
      <path class="cls-5" d="M52,22.92c-.06-3.48-.85-6-2.34-7.34a6.32,6.32,0,0,0-3.4-1.77,5,5,0,0,0-2.77.39,5.36,5.36,0,0,0-1.18.69,6.56,6.56,0,0,0-4.2-1.81,28.12,28.12,0,0,1,1.58-4.69,3,3,0,0,0-3.88-4A3,3,0,0,0,34.18,6,33,33,0,0,0,32,13.08a6.51,6.51,0,0,0-4.29,1.81,5.51,5.51,0,0,0-3.06-1.13,5.9,5.9,0,0,0-4.3,1.82C18.81,17,18,19.44,18,22.92A44.19,44.19,0,0,0,20.07,36c1.35,4.44,3.06,8,4.58,9.54a3.51,3.51,0,0,0,2.5,1.1A5,5,0,0,0,30,45.57,6,6,0,0,0,33.92,47H36.1A6,6,0,0,0,40,45.58a5,5,0,0,0,2.87,1.08,3.51,3.51,0,0,0,2.49-1.1c1.52-1.53,3.23-5.1,4.58-9.54A44.19,44.19,0,0,0,52,22.92ZM35.73,6.64a1.33,1.33,0,0,1,1.61-.75l.16.05a1.34,1.34,0,0,1,.69,1.77,29.79,29.79,0,0,0-1.77,5.36H33.67a30.89,30.89,0,0,1,2.06-6.43ZM25.84,44.37c-2.77-2.79-6.35-13.89-6.2-21.41.05-3,.68-5.1,1.81-6.15a3.93,3.93,0,0,1,3.94-1.22,4.5,4.5,0,0,1,1.22.61,6.7,6.7,0,0,0-.95,4.23L28,41.61a6.17,6.17,0,0,0,.95,2.69c-1.88,1.27-2.76.38-3.07.07Zm10.26,1H33.92a4.35,4.35,0,0,1-4.29-3.92l-2.3-21.18a5,5,0,0,1,1.25-3.88,4.71,4.71,0,0,1,3.58-1.61h5.7a4.71,4.71,0,0,1,3.58,1.61,5,5,0,0,1,1.25,3.88l-2.3,21.18a4.35,4.35,0,0,1-4.29,3.92Zm8.06-1c-.31.32-1.19,1.2-3.06-.06a6.1,6.1,0,0,0,1-2.7l2.3-21.18a6.68,6.68,0,0,0-1-4.23,3.85,3.85,0,0,1,2.07-.76,4.29,4.29,0,0,1,3.08,1.37C49.68,17.86,50.31,20,50.36,23c.15,7.52-3.43,18.62-6.2,21.41Zm0,0"/>
    </g>
  </g>
</svg>
