<svg id="LEVELS" xmlns="http://www.w3.org/2000/svg" xmlns:xlink="http://www.w3.org/1999/xlink" width="70" height="70" viewBox="0 0 70 70"><defs><style>.cls-1,.cls-4{fill:#a59284;}.cls-1,.cls-10,.cls-11{stroke:#2b2e31;stroke-linecap:round;}.cls-1,.cls-11{stroke-linejoin:round;stroke-width:0.5px;}.cls-10,.cls-11,.cls-2{fill:none;}.cls-3{fill:#131718;}.cls-10,.cls-3{opacity:0.19;}.cls-5{fill:#2b2e31;}.cls-6{fill:#fff4dc;}.cls-7{clip-path:url(#clip-path);}.cls-17,.cls-8{fill:#fff;}.cls-9{clip-path:url(#clip-path-2);}.cls-10{stroke-miterlimit:10;stroke-width:2px;}.cls-12{fill:#f89b41;}.cls-13{fill:#7082c0;}.cls-14{fill:#73ccd2;}.cls-15{fill:#f3db56;}.cls-16{fill:#69b64d;}.cls-17{opacity:0.38;}</style><clipPath id="clip-path"><path class="cls-1" d="M12.47,29.62A6.16,6.16,0,0,1,12.64,28a5.25,5.25,0,0,1,.54-1.32,5.41,5.41,0,0,1,.81-1,5.71,5.71,0,0,1,3.21-1.45,5.06,5.06,0,0,1,3.89,1.46,5,5,0,0,1,1.33,3.09,5.49,5.49,0,0,1-1,3.5,4.59,4.59,0,0,1-3.05,1.92,6.28,6.28,0,0,1-1.76,0,5.06,5.06,0,0,1-1.76-.51,4.4,4.4,0,0,1-1.59-1.46A4.28,4.28,0,0,1,12.71,31,5.43,5.43,0,0,1,12.47,29.62Z"/></clipPath><clipPath id="clip-path-2"><path class="cls-2" d="M12.44,31.46a5.39,5.39,0,0,1,.17-1.64,4.75,4.75,0,0,1,.53-1.31,5.07,5.07,0,0,1,.81-1,5.71,5.71,0,0,1,3.21-1.45,5.06,5.06,0,0,1,3.89,1.46,5,5,0,0,1,1.33,3.08,5.49,5.49,0,0,1-1,3.5A4.61,4.61,0,0,1,18.33,36a6.28,6.28,0,0,1-1.76,0,5.06,5.06,0,0,1-1.76-.51,4.44,4.44,0,0,1-1.59-1.45,4.75,4.75,0,0,1-.55-1.19A5.7,5.7,0,0,1,12.44,31.46Z"/></clipPath></defs><g id="Layer_184" data-name="Layer 184"><path class="cls-3" d="M9.07,39.35c1.68,2.09,4.39,4.75,8.12,5.27,5.95.85,8.87-4.53,14.75-3.42,4.31.81,4,3.94,9.35,5.27a17.65,17.65,0,0,0,11.29-1.28,19,19,0,0,0,6.94-5.51,20.4,20.4,0,0,0,4.1-10.42A22.67,22.67,0,0,0,60.29,15Z"/><path class="cls-4" d="M7.75,36.14c-2.19-7.72,2.43-16.48,7.12-21.3a44.58,44.58,0,0,1,7.21-5.72A35.58,35.58,0,0,1,27.74,6,30.28,30.28,0,0,1,46.08,4.46a25.2,25.2,0,0,1,4.79,1.67,23.58,23.58,0,0,1,4.28,2.64,18.47,18.47,0,0,1,6,7c1.14,2.53,1.31,4.82,1.57,8.35a24.41,24.41,0,0,1,.05,3.37,19.63,19.63,0,0,1-3.92,10.34,21.75,21.75,0,0,1-13.76,7.41,9.21,9.21,0,0,1-3.63-.2,10.55,10.55,0,0,1-3.13-1.56c-1.81-1.15-2-1.71-3.85-2.68A7.41,7.41,0,0,0,32.36,40a7.15,7.15,0,0,0-2.67,0,15.17,15.17,0,0,0-3.76,1.08c-3,1.29-5.06,2.2-7.13,2.46a10.93,10.93,0,0,1-8-2.23A10.18,10.18,0,0,1,7.75,36.14Z"/><path class="cls-5" d="M8.05,36.06c-1.64-6,.69-12.41,4.09-17.37,3-4.33,7.18-7.49,11.6-10.23a29.53,29.53,0,0,1,18.38-4.3A24.49,24.49,0,0,1,55.18,9.24a19,19,0,0,1,5.21,5.82c1.4,2.63,1.7,5.5,1.92,8.42a22.05,22.05,0,0,1-.61,7.93,18.46,18.46,0,0,1-3.11,6.22,20.3,20.3,0,0,1-7.16,5.46A17.72,17.72,0,0,1,43.11,45c-2.67-.16-4.77-1.86-6.81-3.41a10.45,10.45,0,0,0-3.39-1.8,7.7,7.7,0,0,0-3.54-.07c-2.7.45-5.06,1.81-7.61,2.72a12.25,12.25,0,0,1-5.39.78,9.09,9.09,0,0,1-7-4.12A12,12,0,0,1,8.09,36a.36.36,0,0,0-.69.2,10.17,10.17,0,0,0,4.45,6.29A11.24,11.24,0,0,0,18.38,44c2.48-.18,4.83-1.29,7.08-2.27s5-2,7.48-1.15c2.78,1,4.71,3.38,7.4,4.53,2.53,1.08,5.43.65,8-.07a22.13,22.13,0,0,0,10.34-6.38,18.92,18.92,0,0,0,4.47-11.51A35.26,35.26,0,0,0,63,22.63a29.64,29.64,0,0,0-.59-4.3,15.64,15.64,0,0,0-4.24-7.44,25.15,25.15,0,0,0-12.86-7A30.42,30.42,0,0,0,27.57,5.69a40.68,40.68,0,0,0-6.86,4A36.87,36.87,0,0,0,14,15.34C10,19.75,7,25.7,6.87,31.73a16.18,16.18,0,0,0,.57,4.49A.32.32,0,0,0,8.05,36.06Z"/><path class="cls-6" d="M7.13,33.82c-2.19-7.72,2.43-16.48,7.12-21.3a43.76,43.76,0,0,1,7.21-5.71,34.78,34.78,0,0,1,5.66-3.15A30.25,30.25,0,0,1,45.45,2.14a25.37,25.37,0,0,1,4.79,1.67,22.86,22.86,0,0,1,4.28,2.65,18.35,18.35,0,0,1,6,7c1.14,2.54,1.31,4.82,1.57,8.35a22.07,22.07,0,0,1,0,3.37,19.38,19.38,0,0,1-1.47,6.12,19.17,19.17,0,0,1-2.45,4.22A21.69,21.69,0,0,1,44.47,43a9.21,9.21,0,0,1-3.63-.2,10.77,10.77,0,0,1-3.13-1.55c-1.81-1.16-2-1.72-3.85-2.69a6.6,6.6,0,0,0-4.79-.82,15.17,15.17,0,0,0-3.76,1.08c-3,1.29-5.06,2.2-7.13,2.46a10.88,10.88,0,0,1-8-2.23A10.1,10.1,0,0,1,7.13,33.82Z"/><path class="cls-5" d="M7.43,33.74c-1.64-6,.69-12.41,4.09-17.37,3-4.33,7.17-7.49,11.6-10.23a29.51,29.51,0,0,1,18.37-4.3A24.49,24.49,0,0,1,54.56,6.92a18.81,18.81,0,0,1,5.2,5.82c1.41,2.63,1.71,5.5,1.93,8.43a22,22,0,0,1-.61,7.92A18.12,18.12,0,0,1,58,35.31a20.27,20.27,0,0,1-7.15,5.46,17.6,17.6,0,0,1-8.32,1.9c-2.67-.16-4.77-1.86-6.81-3.41a10.64,10.64,0,0,0-3.39-1.8,7.84,7.84,0,0,0-3.54-.07c-2.7.45-5.06,1.81-7.61,2.72a12.25,12.25,0,0,1-5.39.78,9.09,9.09,0,0,1-7-4.12,12.06,12.06,0,0,1-1.26-3,.36.36,0,0,0-.69.19,10.25,10.25,0,0,0,4.44,6.3,11.45,11.45,0,0,0,6.54,1.43c2.48-.19,4.83-1.3,7.08-2.27s5-2,7.48-1.16c2.78,1,4.71,3.38,7.4,4.53,2.53,1.08,5.43.65,8-.07A22,22,0,0,0,58.05,36.3a18.87,18.87,0,0,0,4.48-11.51,35.33,35.33,0,0,0-.18-4.48,29.64,29.64,0,0,0-.59-4.3,15.56,15.56,0,0,0-4.24-7.43,25.09,25.09,0,0,0-12.86-7A30.42,30.42,0,0,0,27,3.37a40.68,40.68,0,0,0-6.86,4A36.87,36.87,0,0,0,13.33,13c-4,4.42-7,10.37-7.08,16.39a16.29,16.29,0,0,0,.57,4.5A.32.32,0,0,0,7.43,33.74Z"/><path class="cls-4" d="M12.47,29.62A6.16,6.16,0,0,1,12.64,28a5.25,5.25,0,0,1,.54-1.32,5.41,5.41,0,0,1,.81-1,5.71,5.71,0,0,1,3.21-1.45,5.06,5.06,0,0,1,3.89,1.46,5,5,0,0,1,1.33,3.09,5.49,5.49,0,0,1-1,3.5,4.59,4.59,0,0,1-3.05,1.92,6.28,6.28,0,0,1-1.76,0,5.06,5.06,0,0,1-1.76-.51,4.4,4.4,0,0,1-1.59-1.46A4.28,4.28,0,0,1,12.71,31,5.43,5.43,0,0,1,12.47,29.62Z"/><g class="cls-7"><path class="cls-8" d="M12.44,31.46a5.39,5.39,0,0,1,.17-1.64,4.75,4.75,0,0,1,.53-1.31,5.07,5.07,0,0,1,.81-1,5.71,5.71,0,0,1,3.21-1.45,5.06,5.06,0,0,1,3.89,1.46,5,5,0,0,1,1.33,3.08,5.49,5.49,0,0,1-1,3.5A4.61,4.61,0,0,1,18.33,36a6.28,6.28,0,0,1-1.76,0,5.06,5.06,0,0,1-1.76-.51,4.44,4.44,0,0,1-1.59-1.45,4.75,4.75,0,0,1-.55-1.19A5.7,5.7,0,0,1,12.44,31.46Z"/><path class="cls-5" d="M12.69,31.46a4.83,4.83,0,0,1,3.23-4.83,4.67,4.67,0,0,1,3.54.11,4.6,4.6,0,0,1,2.65,4.55,5.11,5.11,0,0,1-1.42,3.22,4.5,4.5,0,0,1-3.4,1.29,4.78,4.78,0,0,1-3.14-1.08,4.62,4.62,0,0,1-1.44-3.26c0-.35-.57-.35-.55,0a5.42,5.42,0,0,0,1.17,3.21,4.8,4.8,0,0,0,3,1.59,5.75,5.75,0,0,0,3.61-.49A5.48,5.48,0,0,0,20.83,27a5.19,5.19,0,0,0-4.36-1A5.65,5.65,0,0,0,13.16,28a5.4,5.4,0,0,0-1,3.42A.26.26,0,0,0,12.69,31.46Z"/><g class="cls-9"><path class="cls-10" d="M12.7,31.72A5.56,5.56,0,0,1,14.22,28a5.49,5.49,0,0,1,3-1.52,6,6,0,0,1,3.17.23"/></g></g><path class="cls-11" d="M12.47,29.62A6.16,6.16,0,0,1,12.64,28a5.25,5.25,0,0,1,.54-1.32,5.41,5.41,0,0,1,.81-1,5.71,5.71,0,0,1,3.21-1.45,5.06,5.06,0,0,1,3.89,1.46,5,5,0,0,1,1.33,3.09,5.49,5.49,0,0,1-1,3.5,4.59,4.59,0,0,1-3.05,1.92,6.28,6.28,0,0,1-1.76,0,5.06,5.06,0,0,1-1.76-.51,4.4,4.4,0,0,1-1.59-1.46A4.28,4.28,0,0,1,12.71,31,5.43,5.43,0,0,1,12.47,29.62Z"/><path class="cls-5" d="M12.34,40.42c0,.66.05,1.33,0,2a.2.2,0,0,0,.4,0,19,19,0,0,0,0-2,.2.2,0,1,0-.39,0Z"/><path class="cls-5" d="M17.5,41.28a5.81,5.81,0,0,0,.09.58c0,.18.05.37.07.56q.06.57.09,1.14c0,.26.42.26.41,0s-.06-.78-.11-1.17c0-.19,0-.38-.07-.57a3.84,3.84,0,0,0-.11-.59c-.06-.19-.38-.17-.37.05Z"/><path class="cls-5" d="M22.16,40.11c0,.38.1.75.16,1.12,0,.19.05.37.08.56a3.31,3.31,0,0,0,.08.55.19.19,0,0,0,.38-.05,3.68,3.68,0,0,0-.06-.57l-.09-.55q-.08-.56-.18-1.11c0-.2-.4-.16-.37,0Z"/><path class="cls-5" d="M27,38.45c.05.34.1.67.16,1s.09.66.15,1,.43.17.4,0-.11-.69-.16-1-.12-.67-.17-1a.2.2,0,0,0-.24-.13.2.2,0,0,0-.14.23Z"/><path class="cls-5" d="M32.32,38l0,1c0,.33,0,.66,0,1a.21.21,0,0,0,.41,0c0-.33,0-.66,0-1s0-.67,0-1a.19.19,0,0,0-.38,0Z"/><path class="cls-5" d="M36.59,40.52c0,.29-.05.57-.07.85s-.05.57-.05.85a.19.19,0,0,0,.17.19.2.2,0,0,0,.22-.14,8.67,8.67,0,0,0,.06-.88c0-.29,0-.58,0-.87a.19.19,0,0,0-.19-.19.2.2,0,0,0-.19.19Z"/><path class="cls-5" d="M39.84,42.63a8.27,8.27,0,0,0,0,1,6.9,6.9,0,0,0,.15,1,.21.21,0,0,0,.26.14.21.21,0,0,0,.14-.25c-.06-.31-.13-.62-.16-.93s-.05-.64-.06-1a.19.19,0,0,0-.38,0Z"/><path class="cls-5" d="M43.92,43.06c0,.8.09,1.6.16,2.4,0,.26.42.26.41,0,0-.8-.12-1.6-.18-2.4,0-.24-.4-.25-.39,0Z"/><path class="cls-5" d="M14.17,25.34a5.16,5.16,0,0,0,0,.88,3.32,3.32,0,0,0,.15.89.2.2,0,0,0,.39-.1c-.05-.28-.12-.54-.15-.82a6,6,0,0,1,0-.85.19.19,0,0,0-.19-.19.21.21,0,0,0-.2.19Z"/><path class="cls-5" d="M17,24.22v.92c0,.31,0,.62,0,.93a.2.2,0,0,0,.4,0c0-.31,0-.62,0-.93l0-.92c0-.25-.4-.25-.39,0Z"/><path class="cls-5" d="M19.78,25c0,.58,0,1.15,0,1.73a.21.21,0,0,0,.41,0c0-.58,0-1.15,0-1.73a.19.19,0,0,0-.38,0Z"/><path class="cls-5" d="M47.6,42.31c0,.74.14,1.47.25,2.19a.21.21,0,0,0,.25.15.2.2,0,0,0,.14-.25c-.11-.7-.2-1.39-.26-2.09a.2.2,0,0,0-.19-.19.19.19,0,0,0-.19.19Z"/><path class="cls-5" d="M51.25,41.05c0,.76.12,1.52.2,2.28a.21.21,0,0,0,.42,0q-.13-1.14-.24-2.28c0-.25-.4-.25-.38,0Z"/><path class="cls-5" d="M54.59,38.75a16.56,16.56,0,0,0,.35,2.53c.06.26.48.15.41-.12-.19-.81-.27-1.64-.38-2.46,0-.22-.4-.17-.38,0Z"/><path class="cls-5" d="M57.69,36.1c.05.81.17,1.63.29,2.44a.21.21,0,0,0,.26.15.23.23,0,0,0,.16-.27c-.12-.79-.2-1.59-.32-2.38,0-.22-.4-.17-.39.06Z"/><path class="cls-5" d="M59.84,32.9c.09.84.2,1.67.32,2.51a.22.22,0,0,0,.43-.12c-.12-.82-.23-1.63-.37-2.44,0-.22-.41-.17-.38,0Z"/><path class="cls-5" d="M61.4,29.2c0,.44.05.88.09,1.33s.07.89.15,1.32c0,.25.45.19.43-.06,0-.43-.11-.86-.15-1.29s-.1-.86-.14-1.3c0-.24-.4-.25-.38,0Z"/><path class="cls-5" d="M8.35,25.84a15.44,15.44,0,0,0-.11,7.09,10.27,10.27,0,0,0,3.31,5c.2.17.5-.12.29-.3a10,10,0,0,1-3.2-4.85,15,15,0,0,1,.08-6.88c0-.24-.33-.34-.37-.1Z"/><path class="cls-5" d="M15,39.37a17.27,17.27,0,0,0,2.87.42c.25,0,.24-.37,0-.38A17.34,17.34,0,0,1,15.05,39c-.24,0-.35.33-.1.39Z"/><path class="cls-5" d="M57.19,11.18a24,24,0,0,1,2.88,9c0,.24.41.25.39,0A22.21,22.21,0,0,0,57.52,11c-.12-.21-.45,0-.33.2Z"/><path class="cls-5" d="M59.53,35.42v.43a.76.76,0,0,0,0,.15.07.07,0,0,0,.08,0s.06,0,.06-.07a.65.65,0,0,0,0-.14V35.7l0-.28a.07.07,0,0,0-.14,0Z"/><path class="cls-5" d="M58.88,35.85c0,.19.06.37.08.56l0,.27a2.74,2.74,0,0,0,0,.28.08.08,0,0,0,.15,0,1.35,1.35,0,0,0,0-.28l0-.28L59,35.81a.08.08,0,0,0-.09-.05s-.06.05-.06.09Z"/><path class="cls-5" d="M53,41.19c.08.43.15.87.25,1.3,0,.09.15,0,.13,0-.06-.43-.15-.87-.24-1.3,0-.1-.16-.06-.14,0Z"/><path class="cls-5" d="M19.15,42.38c0,.41,0,.83.07,1.25,0,.08.13.08.13,0,0-.42,0-.84-.06-1.25a.07.07,0,0,0-.14,0Z"/><path class="cls-5" d="M24.52,39l.13.52c0,.17.08.35.13.52a.08.08,0,0,0,.15,0c0-.17-.08-.35-.13-.52L24.67,39c0-.09-.17,0-.15,0Z"/><path class="cls-5" d="M25.76,39.88l.09.46,0,.23c0,.07,0,.15.05.22s.16.08.16,0,0-.15-.05-.23L26,40.3l-.09-.46c0-.1-.17-.06-.15,0Z"/><path class="cls-5" d="M16.08,25.37v.24c0,.08,0,.16,0,.24a.07.07,0,0,0,.08,0,.07.07,0,0,0,.06-.07.49.49,0,0,0,0-.12V25.6l0-.23a.07.07,0,0,0-.07-.07s-.08,0-.07.07Z"/><path class="cls-5" d="M18.05,24.61c0,.2,0,.4,0,.6a.06.06,0,0,0,.06.06.07.07,0,0,0,.07-.06l0-.6a.08.08,0,0,0-.07-.07.08.08,0,0,0-.07.07Z"/><path class="cls-5" d="M19,24.9c0,.35,0,.7,0,1.05a.07.07,0,1,0,.13,0c0-.35,0-.7,0-1.05,0-.09-.13-.09-.13,0Z"/><path class="cls-12" d="M20.06,19.06a2,2,0,0,1-.07-1.3c.08-.53.16-.54.17-.79,0-.77-.72-1.33-.95-2.06a1.73,1.73,0,0,1,1.58-2.15c.35,0,.69.12,1,.13a2.82,2.82,0,0,0,2-1.12,6,6,0,0,1,1.7-1.56,1.48,1.48,0,0,1,2,.54,3.74,3.74,0,0,1,0,1.66,2.3,2.3,0,0,0,1.06,2.05c.31.2.67.32,1,.52a1.68,1.68,0,0,1,.81,1.49,1.14,1.14,0,0,1-1.18,1.06c-.24,0-.45-.14-.68-.18a1.89,1.89,0,0,0-1.69.89,7.09,7.09,0,0,1-1.28,1.54,1.74,1.74,0,0,1-1.77-.19,2.45,2.45,0,0,0-.53-.36,1.67,1.67,0,0,0-1-.13c-.64.13-.78.58-1.3.52a1.1,1.1,0,0,1-.45-.17A1,1,0,0,1,20.06,19.06Z"/><path class="cls-13" d="M34.72,9a1.51,1.51,0,0,1,.33-.94C35.51,7.41,36.12,7.53,37,7s.61-1,1.31-1.37,1.71.1,2.49-.19c.6-.22,1-.86,1.65-.9.85,0,1.33,1,1.34,1.84a4.42,4.42,0,0,0,.32,2.49,12.58,12.58,0,0,0,1,.95,2.25,2.25,0,0,1,.05,2.76,2.68,2.68,0,0,1-2.66,1A2.5,2.5,0,0,0,41,13.37c-.45.2-.64.72-.93,1.11a2.12,2.12,0,0,1-3.82-1c-.07-.65.15-1.35-.13-1.94s-.47-.34-.88-1a4,4,0,0,1-.48-1.16A1.81,1.81,0,0,1,34.72,9Z"/><path class="cls-14" d="M47.45,20.82c-.46-.59-.68-.58-.86-1a1.87,1.87,0,0,1,0-1.3c.37-.9,1.26-.69,1.84-1.64.43-.72.09-1.12.54-1.51s1-.15,2.16-.26a5.64,5.64,0,0,0,2-.91,1.88,1.88,0,0,1,2.07,0c.61.54.12,1.32.69,2.71s1.76,1.62,1.79,2.83a2.63,2.63,0,0,1-.52,1.52,2.8,2.8,0,0,1-1.22.9c-1,.39-1.38-.09-2.14.26s-.56.91-1.4,1.53a2.79,2.79,0,0,1-2.73.41,2.68,2.68,0,0,1-1.16-1.21c-.23-.48-.14-.67-.46-1.35A4.47,4.47,0,0,0,47.45,20.82Z"/><path class="cls-15" d="M37.85,22.42c-.2-.64-.08-.81-.28-1.13a1.63,1.63,0,0,0-1-.67c-.86-.18-1.16.6-2.17.55-.76,0-.9-.5-1.42-.37s-.61.66-1.3,1.5-1.07.39-1.7,1A2.33,2.33,0,0,0,29.21,25c.08.74.73.74,1.38,1.75.84,1.29.35,2.18,1.22,2.81a2.45,2.45,0,0,0,1.41.38c.58,0,.67-.29,1.3-.46,1.17-.32,1.63.33,2.26-.05s.25-1,.95-1.82,1.35-.55,1.66-1.23a2.4,2.4,0,0,0-.32-2,12,12,0,0,1-.78-1A4.59,4.59,0,0,1,37.85,22.42Z"/><path class="cls-16" d="M52.07,32.71c0-1.07.38-1.17.27-1.95a1.92,1.92,0,0,0-.69-1.38c-.46-.29-.83,0-1.89-.34a2.48,2.48,0,0,1-.62-.25c-.57-.35-1-.94-1.7-1a2.16,2.16,0,0,0-1.69.75,5.65,5.65,0,0,1-1.46,1.22c-.67.3-1.51.22-2.09.67a2.41,2.41,0,0,0-.5,2.48,2.82,2.82,0,0,0,.68,1.42c.69.68,1.07.55,1.75,1.28s.39,1,1,1.47a2.9,2.9,0,0,0,2,.62,3.27,3.27,0,0,0,2.1-1.11c.35-.39.33-.58.68-.79.57-.36.95-.07,1.49-.41a1.92,1.92,0,0,0,.72-1.07C52.26,33.71,52.05,33.55,52.07,32.71Z"/><path class="cls-17" d="M20.31,15c0-.25,0,.08,0,.09s.11-.39.05-.22.15-.26.07-.15.06-.06.07-.07l.16-.16c-.14.15-.09.07,0,0s-.14,0,.11,0c-.35.05,0,0,0,0-.22,0-.27,0-.13,0l.07,0,.27,0a5.51,5.51,0,0,0,.71.06,4.62,4.62,0,0,0,1.8-.35,5.43,5.43,0,0,0,1.89-1.92c.17-.22-.18.21,0,0l.2-.21.21-.2c.24-.22-.23.13.05,0,.09-.06.2-.11.28-.17s-.26.07,0,0l.36-.1c.05,0,.41-.1.24-.08a1.27,1.27,0,0,0,0-2.53,4,4,0,0,0-3.28,1.37,13.94,13.94,0,0,1-.92,1.25c.13-.16.14-.18.05-.06l-.08.09-.2.22c-.16.18.24-.12,0,0s.22,0,0,0l-.41.13c-.16,0-.16,0,0,0H21.6c-.17,0-.17,0,0,0l-.16,0a2.78,2.78,0,0,0-1.94.22A3.26,3.26,0,0,0,17.83,15a1.25,1.25,0,0,0,1.24,1.24A1.27,1.27,0,0,0,20.31,15Z"/><path class="cls-5" d="M24.85,20.19a2.42,2.42,0,0,1-1.28-.4,1.73,1.73,0,0,1-.2-.15,1,1,0,0,0-.29-.19,1.51,1.51,0,0,0-.89-.11,1.55,1.55,0,0,0-.58.26,1.1,1.1,0,0,1-.8.26,1.29,1.29,0,0,1-.56-.22,1.27,1.27,0,0,1-.41-.47h0a2.3,2.3,0,0,1-.09-1.45,3.23,3.23,0,0,1,.12-.55.52.52,0,0,0,0-.21,1.94,1.94,0,0,0-.45-1.09A3.33,3.33,0,0,1,19,15a1.84,1.84,0,0,1,.32-1.67,1.89,1.89,0,0,1,1.47-.79h0a3.06,3.06,0,0,1,.54.07l.49.06h0a2.55,2.55,0,0,0,1.77-1l.27-.31A5,5,0,0,1,25.38,10a2.06,2.06,0,0,1,1.56-.06,1.31,1.31,0,0,1,.78.73,2.25,2.25,0,0,1,0,1.26,4.26,4.26,0,0,0-.06.5,2.08,2.08,0,0,0,.95,1.83,4,4,0,0,0,.46.25,5.48,5.48,0,0,1,.53.28,2,2,0,0,1,.93,1.71,1.48,1.48,0,0,1-.54,1,1.27,1.27,0,0,1-.92.29,2.58,2.58,0,0,1-.42-.11l-.28-.08c-.66-.12-1.24.52-1.45.8s-.22.3-.33.46a4.47,4.47,0,0,1-1,1.13A1.31,1.31,0,0,1,24.85,20.19Zm-2.39-1.36a2.11,2.11,0,0,1,.82.17,1.7,1.7,0,0,1,.41.27l.15.12a1.54,1.54,0,0,0,1.5.19,4,4,0,0,0,.88-1l.34-.48a2.1,2.1,0,0,1,1.93-1,2.3,2.3,0,0,1,.35.1,1.36,1.36,0,0,0,.32.08.7.7,0,0,0,.55-.18,1,1,0,0,0,.36-.66,1.43,1.43,0,0,0-.7-1.26,3.67,3.67,0,0,0-.48-.26,3.56,3.56,0,0,1-.51-.27,2.58,2.58,0,0,1-1.18-2.27,5.17,5.17,0,0,1,.07-.55,1.88,1.88,0,0,0,0-1,.85.85,0,0,0-.5-.46,1.56,1.56,0,0,0-1.18,0,4.41,4.41,0,0,0-1.34,1.19c-.1.1-.19.21-.28.31a3.06,3.06,0,0,1-2.15,1.2,2.6,2.6,0,0,1-.56-.07,4,4,0,0,0-.47-.05,1.33,1.33,0,0,0-1.1.59,1.35,1.35,0,0,0-.25,1.23,3.07,3.07,0,0,0,.42.77A2.42,2.42,0,0,1,20.4,17a1,1,0,0,1-.07.34,3,3,0,0,0-.11.47c-.12.82,0,1.07.05,1.15a.76.76,0,0,0,.25.31,1.18,1.18,0,0,0,.35.13c.17,0,.28-.05.47-.18a2,2,0,0,1,.76-.34A2.19,2.19,0,0,1,22.46,18.83Z"/><path class="cls-17" d="M36.72,10.25l-.06-.11s0-.11,0-.12.2.48,0,.07a1.21,1.21,0,0,0-.1-.23c-.1-.09.12.21.08.19s0-.11,0-.11l-.06-.18-.06-.22s0-.07,0-.1c0-.19,0,.13,0,.15s0-.17,0-.24,0,.21,0,.19,0-.07,0-.1,0-.22.06-.24-.17.3-.07.18a.83.83,0,0,0,.07-.13c.06-.12-.1.13-.1.13a1.43,1.43,0,0,0,.11-.12l.09-.08c.09-.1-.15.1-.14.1L36.85,9,37,8.92a.6.6,0,0,0,.11-.06s-.28.1-.15.07l.36-.11A2.74,2.74,0,0,0,38.64,8a2.83,2.83,0,0,0,.41-.61,1.21,1.21,0,0,1,.09-.2c0-.07.18-.28,0-.06s-.07.06,0,0L39,7.25l.15-.09s-.44.15-.26.12l.07,0,.26,0a.86.86,0,0,0,.17,0A2.27,2.27,0,0,0,39.74,7c.2-.1-.28.06-.12.05a1.4,1.4,0,0,0,.56-.2s-.3.11-.07,0l.16-.06a3,3,0,0,0,1-.5,1.34,1.34,0,0,0-.59-2.22,2.51,2.51,0,0,0-.82,0l-.34.07-.17,0c-.18,0,.26,0,.08,0a2.27,2.27,0,0,0-.67.1h.77a2.76,2.76,0,0,0-2,.32,2.55,2.55,0,0,0-.75.75,2,2,0,0,0-.11.2s-.25.59-.1.23-.06.15,0,.11a1.65,1.65,0,0,0-.1.24c0-.1.16-.34.07-.18l-.1.18s-.11.16,0,0,0-.05,0,0,.11-.08.13-.09l-.12.07c-.18.13.37-.12.14-.06l-.14,0a4.6,4.6,0,0,0-.75.33,5.31,5.31,0,0,0-1,.69,2.8,2.8,0,0,0-.87,1.34,2.4,2.4,0,0,0-.08.75l0,.19c0,.26,0,.24,0,0,0,.06,0,.24,0,.25a2.63,2.63,0,0,0,.06.39,4.38,4.38,0,0,0,1,1.82,1.26,1.26,0,0,0,2-1.52Z"/><path class="cls-5" d="M38.36,15.58a2.33,2.33,0,0,1-.59-.08,2.4,2.4,0,0,1-1.74-2,4,4,0,0,1,0-.77,2.29,2.29,0,0,0-.11-1.09.71.71,0,0,0-.28-.31,2.21,2.21,0,0,1-.58-.64,4.07,4.07,0,0,1-.51-1.24A1.57,1.57,0,0,1,34.48,9a1.73,1.73,0,0,1,.37-1.09,1.88,1.88,0,0,1,1.06-.72,3.82,3.82,0,0,0,.91-.45A2,2,0,0,0,37.48,6a1.55,1.55,0,0,1,.69-.68,2.64,2.64,0,0,1,1.42-.14,2.61,2.61,0,0,0,1.09-.06,2.65,2.65,0,0,0,.62-.39,2.09,2.09,0,0,1,1.1-.52,1.22,1.22,0,0,1,.91.34A2.51,2.51,0,0,1,44,6.33c0,.19,0,.39,0,.6a2.86,2.86,0,0,0,.29,1.75,2.43,2.43,0,0,0,.51.5,6,6,0,0,1,.45.43,2.49,2.49,0,0,1,.07,3.06,3,3,0,0,1-2.91,1.05l-.32-.07a1.5,1.5,0,0,0-1-.05,1.45,1.45,0,0,0-.59.65l-.24.38A2.44,2.44,0,0,1,38.36,15.58ZM39,5.67a1.43,1.43,0,0,0-.65.13,1,1,0,0,0-.48.48,2.39,2.39,0,0,1-.8.87,4.67,4.67,0,0,1-1,.5,1.51,1.51,0,0,0-.85.55A1.33,1.33,0,0,0,35,9h0a1.81,1.81,0,0,0,.06.32,3.64,3.64,0,0,0,.45,1.09,1.58,1.58,0,0,0,.47.51,1.21,1.21,0,0,1,.42.5,2.67,2.67,0,0,1,.15,1.31,5.44,5.44,0,0,0,0,.7,1.89,1.89,0,0,0,3.39.91,4,4,0,0,0,.22-.34,1.87,1.87,0,0,1,.8-.85,2,2,0,0,1,1.27,0l.3.07a2.45,2.45,0,0,0,2.42-.87,2,2,0,0,0,0-2.45,3.7,3.7,0,0,0-.41-.37,3.36,3.36,0,0,1-.59-.6,3.23,3.23,0,0,1-.37-2.05c0-.19,0-.39,0-.57A2,2,0,0,0,43,5a.68.68,0,0,0-.55-.21,1.6,1.6,0,0,0-.84.42,3.29,3.29,0,0,1-.74.46,2.87,2.87,0,0,1-1.3.08Z"/><path class="cls-17" d="M48.3,20.84l0-.05c0-.14-.05,0,0,.32l0-.23a2.18,2.18,0,0,0-.08-.49c-.05-.23,0,.18,0,.06a3.18,3.18,0,0,0-.06-.43c0-.15-.1-.28-.14-.43s0,.14,0,0c0-.31-.12.18,0-.07-.08.17-.06.13,0,0s-.19.21,0,0l.36-.38c.18-.19-.25.14,0,0l.2-.11a3.08,3.08,0,0,0,1.78-1.92,4.31,4.31,0,0,0,.12-.79c0-.3-.05,0,0,.1s.06-.16,0-.22c-.11.22-.12.27,0,.13-.13.15-.15.18-.08.11l.19-.17c.09-.1-.27.18,0,0l.21-.13a1.19,1.19,0,0,0,.6-1c-.18-1.37-1.73-1.45-2.64-.9a2.47,2.47,0,0,0-.82.82,2.55,2.55,0,0,0-.33,1.15,1.64,1.64,0,0,0,0,.22c0-.26,0-.31,0-.15a1.09,1.09,0,0,1-.05.17c.09-.21.1-.23,0-.08s-.06.09.08-.1a.6.6,0,0,1-.08.08c-.08.08,0,0,.16-.12a5.62,5.62,0,0,0-1.12.75,3.25,3.25,0,0,0-1,3.21,2.4,2.4,0,0,0,.53.93,1.5,1.5,0,0,0,.34.27l.12,0,.1.06a1.65,1.65,0,0,0,.72.2.47.47,0,0,0,.26,0c-.35,0-.45,0-.31,0a2.13,2.13,0,0,0,.25,0,.72.72,0,0,0,.69-.9Z"/><path class="cls-5" d="M50.59,24.8a2.26,2.26,0,0,1-1-.22,2.88,2.88,0,0,1-1.28-1.33,2.8,2.8,0,0,1-.2-.6,3.74,3.74,0,0,0-.26-.75,4.24,4.24,0,0,0-.57-.93,3.55,3.55,0,0,0-.48-.51,1.36,1.36,0,0,1-.41-.49,2,2,0,0,1,0-1.5,1.8,1.8,0,0,1,1-.94,2,2,0,0,0,.88-.73,1.65,1.65,0,0,0,.23-.76,1.08,1.08,0,0,1,.36-.81,1.54,1.54,0,0,1,1.27-.31,7.21,7.21,0,0,0,1,0,3.6,3.6,0,0,0,1.41-.6L53,14a2,2,0,0,1,2.35,0,1.58,1.58,0,0,1,.44,1.26,4.35,4.35,0,0,0,.31,1.53,4,4,0,0,0,1,1.39,2.1,2.1,0,0,1,.82,1.53,2.87,2.87,0,0,1-.57,1.67,3,3,0,0,1-1.33,1,2.59,2.59,0,0,1-1.3.16,1.52,1.52,0,0,0-.83.1,1.15,1.15,0,0,0-.58.59,2.5,2.5,0,0,1-.78.91A3.38,3.38,0,0,1,50.59,24.8Zm-.84-9.4a.79.79,0,0,0-.62.19c-.15.13-.17.25-.2.5a2,2,0,0,1-.3,1,2.32,2.32,0,0,1-1.06.91,1.31,1.31,0,0,0-.75.69,1.61,1.61,0,0,0,0,1.11.93.93,0,0,0,.29.34,3.41,3.41,0,0,1,.54.57h0a5.1,5.1,0,0,1,.63,1,4.22,4.22,0,0,1,.29.85,1.85,1.85,0,0,0,.17.5,2.42,2.42,0,0,0,1,1.11,2.63,2.63,0,0,0,2.49-.4A2.1,2.1,0,0,0,52.9,23a1.57,1.57,0,0,1,.8-.79,1.83,1.83,0,0,1,1.07-.14,2.11,2.11,0,0,0,1.09-.13A2.57,2.57,0,0,0,57,21.11a2.35,2.35,0,0,0,.47-1.36,1.65,1.65,0,0,0-.67-1.21A4.53,4.53,0,0,1,55.66,17a4.61,4.61,0,0,1-.34-1.7c0-.47,0-.71-.28-.92a1.66,1.66,0,0,0-1.8.08c-.16.08-.32.18-.48.27a3.82,3.82,0,0,1-1.61.66,6.7,6.7,0,0,1-1.09,0Z"/><path class="cls-17" d="M34.59,19.93a3.13,3.13,0,0,0-1.55,0A2.7,2.7,0,0,0,31.54,21a7.27,7.27,0,0,0-.43.83l-.07.11c.15-.19.18-.22.08-.11A.65.65,0,0,0,31,22c.18-.14.21-.16.1-.09s-.07.05.18-.07l-.18.06a3.92,3.92,0,0,0-1,.35,3.62,3.62,0,0,0-1.26,1.17,1.11,1.11,0,0,0-.09.19c-.18.41-.19.44,0,.09l0,.07a3.46,3.46,0,0,0-.25.6c-.05.19-.07.4-.1.59V25c0-.32,0-.27,0,.14a1.8,1.8,0,0,0,0,.73,1.27,1.27,0,0,0,1.21.93,1.32,1.32,0,0,0,1.22-.93,1,1,0,0,0,0-.26c.08-.54-.05.26,0,0a.9.9,0,0,0,0-.16c0-.13-.15.29,0,.06l.17-.31c0-.06.16-.23,0,0s0,0,.09-.06l.26-.26s.24-.2.05-.06,0,0,.06,0a2.69,2.69,0,0,1,.29-.16l-.34.15a6.86,6.86,0,0,0,1.09-.43,3.06,3.06,0,0,0,1.19-1.28c.08-.16.15-.33.22-.5s-.15.3-.07.16a1.17,1.17,0,0,1,.05-.11c0-.07.19-.3,0-.1s0,0,0,0l.12-.09s-.25.16-.09.07l.14-.08a.42.42,0,0,1,.13-.07s-.29.09-.11.06l.17,0c.15,0-.29,0-.15,0a2.43,2.43,0,0,0,.54-.08,1.25,1.25,0,0,0,.91-1.19,1.32,1.32,0,0,0-.91-1.19Z"/><path class="cls-5" d="M33.12,30.21a2.54,2.54,0,0,1-1.45-.43,1.92,1.92,0,0,1-.74-1.39,3.65,3.65,0,0,0-.54-1.47,3.37,3.37,0,0,0-.78-.86,1.43,1.43,0,0,1-.64-1,2.35,2.35,0,0,1,.86-1.88,1.87,1.87,0,0,1,.91-.53,1.33,1.33,0,0,0,.77-.5,5.85,5.85,0,0,0,.54-.76c.24-.39.43-.7.89-.82a1,1,0,0,1,.81.15,1.43,1.43,0,0,0,.68.22,1.71,1.71,0,0,0,1-.29,1.69,1.69,0,0,1,1.22-.26,1.87,1.87,0,0,1,1.14.78,1.23,1.23,0,0,1,.17.57,3,3,0,0,0,.13.62h0a4.07,4.07,0,0,0,.42.9,3.23,3.23,0,0,0,.44.61,1.92,1.92,0,0,1,.33.42,2.58,2.58,0,0,1,.34,2.23,1.31,1.31,0,0,1-.83.7,2.06,2.06,0,0,0-1.33,1.57,1.23,1.23,0,0,1-.55.89,1.35,1.35,0,0,1-1.07.08,2.32,2.32,0,0,0-1.24,0A2.46,2.46,0,0,0,34,30a1.77,1.77,0,0,1-.81.24ZM33.18,21h-.12c-.26.07-.37.23-.6.6a7.92,7.92,0,0,1-.57.82,1.86,1.86,0,0,1-1,.65,1.53,1.53,0,0,0-.72.41A1.92,1.92,0,0,0,29.45,25c0,.32.19.45.48.69a4,4,0,0,1,1.48,2.61A1.46,1.46,0,0,0,32,29.39a2.21,2.21,0,0,0,1.26.34,1.29,1.29,0,0,0,.6-.19,3.65,3.65,0,0,1,.65-.27,2.74,2.74,0,0,1,1.47,0c.34.07.51.1.72,0s.25-.27.33-.59a2.54,2.54,0,0,1,.57-1.17,2.5,2.5,0,0,1,1-.72c.29-.13.46-.2.58-.46a2.36,2.36,0,0,0-.59-2.13,3.83,3.83,0,0,1-.5-.68,5.16,5.16,0,0,1-.46-1,3.93,3.93,0,0,1-.15-.71.77.77,0,0,0-.11-.38,1.37,1.37,0,0,0-.82-.55,1.17,1.17,0,0,0-.89.21,2.28,2.28,0,0,1-1.24.34,1.87,1.87,0,0,1-.89-.27A.73.73,0,0,0,33.18,21Z"/><path class="cls-17" d="M45.75,26.88c-.36.37-.67.79-1,1.17s-.5.46-.76.69c.4-.35.11-.09,0,0-.29.18.38-.11.09,0l-.12,0,.3,0-.43,0a4.21,4.21,0,0,0-.48.12,3.85,3.85,0,0,0-2.75,2.66,4.86,4.86,0,0,0,0,1.9,3.87,3.87,0,0,0,.29.87c-.21-.53,0,.11.12.27l.11.2a1.47,1.47,0,0,0,2,.51,1.48,1.48,0,0,0,.51-2,2,2,0,0,0-.1-.21c.08.09.12.34,0,.07a2.45,2.45,0,0,1-.08-.29l0-.14c0-.15,0-.12,0,.1,0,0,0-.33,0-.32,0,.18,0,.22,0,.12l0-.11a1.59,1.59,0,0,0,.07-.2c.11-.32,0,0,0,0s.13-.31.2-.36c-.11.15-.13.18-.06.1A.57.57,0,0,1,43.7,32c.22-.23-.29.18,0,0l.29-.18s.25-.16.29-.14c-.21.09-.25.1-.1,0l.15,0,.32-.09a3.63,3.63,0,0,0,1.51-.92,8.36,8.36,0,0,0,1.6-2.23,1.3,1.3,0,0,0-.33-1.65,1.28,1.28,0,0,0-1.68.1Z"/><path class="cls-5" d="M46.91,37.91a3,3,0,0,1-2-.69,1.8,1.8,0,0,1-.53-.77,2.07,2.07,0,0,0-.44-.71,2.85,2.85,0,0,0-.85-.64,3.16,3.16,0,0,1-.9-.64,3,3,0,0,1-.75-1.54,2.59,2.59,0,0,1,.59-2.72,3,3,0,0,1,1.31-.48,4.2,4.2,0,0,0,.83-.22,3.83,3.83,0,0,0,1.08-.87c.11-.1.21-.21.31-.31a2.37,2.37,0,0,1,1.9-.81,2.7,2.7,0,0,1,1.27.7,5.71,5.71,0,0,0,.52.38,3,3,0,0,0,.57.22A4,4,0,0,0,51,29a1.48,1.48,0,0,1,.83.2,2.15,2.15,0,0,1,.8,1.55,2.1,2.1,0,0,1-.1,1,3.31,3.31,0,0,0-.17,1,3.65,3.65,0,0,0,0,.74,1.83,1.83,0,0,1,0,.89,2.11,2.11,0,0,1-.82,1.2,1.59,1.59,0,0,1-.84.24A1.28,1.28,0,0,0,50,36a1,1,0,0,0-.31.34,4,4,0,0,1-.31.41,3.49,3.49,0,0,1-2.26,1.19ZM47.26,28a2,2,0,0,0-1.34.69l-.3.3a3.22,3.22,0,0,1-2.17,1.23,2.48,2.48,0,0,0-1.1.38c-.72.56-.53,1.75-.42,2.23a2.73,2.73,0,0,0,.62,1.31,3.24,3.24,0,0,0,.79.56,3,3,0,0,1,1,.73,2.77,2.77,0,0,1,.54.85,1.32,1.32,0,0,0,.4.6,2.63,2.63,0,0,0,1.83.56,3,3,0,0,0,1.94-1,2.78,2.78,0,0,0,.27-.36,1.28,1.28,0,0,1,.46-.48,1.62,1.62,0,0,1,.87-.24,1.19,1.19,0,0,0,.62-.17,1.6,1.6,0,0,0,.61-.93,1.22,1.22,0,0,0,0-.68,4.44,4.44,0,0,1-.05-.83h0A4,4,0,0,1,52,31.58a1.52,1.52,0,0,0,.09-.79,1.68,1.68,0,0,0-.57-1.2,1,1,0,0,0-.6-.12,4.2,4.2,0,0,1-1.24-.2A3.45,3.45,0,0,1,49,29a4.54,4.54,0,0,1-.56-.42,2.45,2.45,0,0,0-1-.59Z"/></g></svg>