<svg id="LEVELS" xmlns="http://www.w3.org/2000/svg" width="70" height="70" viewBox="0 0 70 70"><defs><style>.cls-1{fill:#ffecd5;}.cls-2{fill:#d3d3d3;}.cls-3{fill:#7c7c7c;}.cls-4{fill:#c8b3d7;}.cls-5{fill:#fff;}.cls-6{fill:#333;}.cls-7{fill:#c67045;}.cls-8{fill:#ed6c66;}.cls-9{fill:#feeb8c;}</style></defs><g id="LETTER_copy" data-name="LETTER copy"><path class="cls-1" d="M52.27,1.32l-34.73.5,1.74,22.25L33.6,32.63l1.81.1,15.77-8.5Zm0,0"/><path class="cls-2" d="M11.77,20.48,21.93,25.4l11.74,7.5,4-1.13L58.14,21,55.68,47.1l-.94,1.95L18,48.93l-2.46-.51-1.07-1.89Zm0,0"/><path class="cls-3" d="M18.21,13.54c.19.06,1.07,10.53,1.07,10.53l-7.51-3.59L13,18.27Zm0,0"/><path class="cls-3" d="M52,14.54c.09,0,6.24,6,6.24,6l-7.06,3.7Zm0,0"/><path class="cls-4" d="M15.33,22.19,15,23.6l2.56,20.58.5,1.65,1.26.35L28,45.73l10.49-.5L46.3,45l4.72-.4L53,34.24l1.71-11.79,3.56-1.92v2.22L56.69,38l-1,9.15-.94,1.95-17.83-.11-15.5,0-5.85-.47-1.07-1.89-2.72-26Zm0,0"/><path class="cls-5" d="M15,25.21a3.84,3.84,0,0,1-.53.78c-.19.29-.36.59-.57.87a13,13,0,0,0-1,1.37c-.11.19-.07.26,0,.48.12.63.21,1.27.34,1.9s.31,1.4.4,2.11a9.62,9.62,0,0,0,1.2-1.83c.14-.31.34-.59.51-.89a2.47,2.47,0,0,0,.07-1.3A12.29,12.29,0,0,0,15,25.21Zm0,0"/><path class="cls-5" d="M16.15,36.2a4.08,4.08,0,0,0-.54.7c-.32.37-.67.7-1,1.09s-.54.65-.77,1,0,.27,0,.53c.19.77.25,1.57.39,2.36.11.59.29,1.16.39,1.75a1.13,1.13,0,0,0,.11.41c.06.1.12.09.18.18a3.25,3.25,0,0,0,.37-.58,2.76,2.76,0,0,1,.38-.56c.21-.23.44-.42.64-.65a2,2,0,0,0,.47-.6,1.36,1.36,0,0,0,0-.45,5.9,5.9,0,0,0-.14-1.45c-.1-.47-.23-.93-.34-1.39a7.77,7.77,0,0,1-.1-1,5,5,0,0,1-.13-1.36Zm0,0"/><path class="cls-5" d="M15.56,48.42l2.81-2.37,3.93,0L20.57,49Zm0,0"/><path class="cls-5" d="M26.16,48.83c0-.07,1.87-3.1,1.87-3.1l5.7-.3-2,3.63Zm0,0"/><path class="cls-5" d="M40.58,45.09l-2.3,4.06,7.06-.2,2.29-3.86s-7,0-7.05,0Zm0,0"/><path class="cls-5" d="M55.92,42l-4.3,2.82s4,2.79,4,2.69.31-5.51.31-5.51Zm0,0"/><path class="cls-5" d="M57.12,30.48l-4,3.45-.84,5.78,4.91-4.07Zm0,0"/><path class="cls-5" d="M57.8,21.07l-3.41,1.64L54,28.17l4-4.41Zm0,0"/><path class="cls-6" d="M58.52,20a8.83,8.83,0,0,0-1.43-1.44L55.43,17l-1.6-1.51a10.53,10.53,0,0,0-1.38-1.19c.21-4.31.32-8.63.49-12.93a.51.51,0,0,0-.51-.51C47.87.69,43.28.78,38.72.82S29.65.9,25.12,1c-2.59,0-5.17.08-7.76.1a.55.55,0,0,0-.55.55c.39,3.76.73,7.52,1.09,11.28a1.23,1.23,0,0,1,0,.2c-1.21,1-2.29,2.22-3.42,3.36-.58.59-1.17,1.17-1.73,1.77s-1.51,1.4-1.63,2.3a14.38,14.38,0,0,0,.45,3.37c.2,1.3.47,2.61.59,3.92.08.93.17,1.86.26,2.79.35,3.3.69,6.6,1.07,9.9.18,1.6.37,3.2.55,4.8.15,1.3.11,3,1.43,3.7,1.12.6,2.6.42,3.81.45,1.69,0,3.37,0,5.06,0,6.6,0,13.21,0,19.81,0H49c1.57,0,3.21.12,4.78,0a2.47,2.47,0,0,0,2.45-2.08c.29-1.56.34-3.2.48-4.78.35-3.71.73-7.42,1.09-11.14q.27-2.74.52-5.49a27.94,27.94,0,0,0,.5-5,2.19,2.19,0,0,0-.33-1Zm-5.35-4c.52.56,1.06,1.11,1.58,1.67l1.53,1.58c.37.38.73.77,1.12,1.13q-2.8,1.56-5.62,3.07c.28-2.75.48-5.51.62-8.27.25.29.52.56.77.82Zm2.72,23.42-.23,2.43c-1.3.81-2.61,1.61-3.9,2.43.26-1.31.5-2.63.73-4l0,0c.82-.69,1.53-1.53,2.27-2.29.46-.47.92-1,1.37-1.43-.09.94-.17,1.89-.27,2.83ZM51,44q-7.38-5.39-14.53-11.09c.54-.27,1.07-.61,1.58-.88l9.65-5.21,6.54-3.53C53.32,30.25,52.09,37.14,51,44Zm-25.9-3.19,4.34-3.78c1.43-1.24,2.8-2.58,4.29-3.76a2.84,2.84,0,0,0,2.07-.06q6.87,5.9,14.15,11.29c-1.8,0-3.64.08-5.43.12q-3.19.08-6.37.2c-4.27.15-8.54.37-12.81.63-2,.13-4.07.28-6.1.45q2.93-2.55,5.86-5.09Zm-6.88,4.75a162.52,162.52,0,0,1-2.73-22.84,109.12,109.12,0,0,1,14,7.78l2.08,1.4c.46.32.92.68,1.4,1-1.28,1.19-2.66,2.27-4,3.4l-4.43,3.83-6.32,5.45ZM44.67,1.81c2.41,0,4.83.07,7.25.06,0,7.4-.68,14.77-1.2,22.15-3.83,2.05-7.67,4.08-11.5,6.14l-2.39,1.28c-.67.36-1.51,1-2.3,1a5,5,0,0,1-2.09-1.15c-.66-.46-1.33-.91-2-1.35Q26.32,27.19,22,24.83c-.81-.44-1.63-.87-2.45-1.29a23.43,23.43,0,0,0,0-2.37c-.08-.94-.16-1.88-.25-2.82-.2-1.84-.32-3.69-.47-5.53-.28-3.55-.59-7.1-.85-10.65,8.89-.4,17.81-.42,26.72-.36ZM12.09,20.06a13.29,13.29,0,0,0,1.31-1.18c.6-.57,1.17-1.17,1.75-1.76,1-1,2-1.93,2.88-3,.14,1.46.29,2.93.39,4.4.07.94.16,1.88.25,2.81.07.65.2,1.27.33,1.9q-3.4-1.72-6.91-3.21Zm.23,1.31c.82.34,1.63.7,2.44,1.07,0,.81.08,1.63.13,2.44-.62.85-1.22,1.72-1.8,2.59-.25-2-.51-4.07-.77-6.1Zm.87,6.87c.6-.87,1.18-1.77,1.74-2.67.09,1.48.21,3,.34,4.46-.54.73-1.08,1.47-1.59,2.22-.16-1.34-.33-2.67-.49-4ZM14,35.4c0-.21,0-.41,0-.61s-.29-1.41-.15-1.63c.54-.84,1-1.7,1.54-2.56.16,1.73.35,3.45.57,5.17-.33.39-.61.83-.9,1.25a5.83,5.83,0,0,0-.71,1c0-.19,0-.39-.09-.59A15.66,15.66,0,0,1,14,35.4Zm.79,6.33c-.11-.93-.22-1.85-.34-2.78.36-.51.68-1,1-1.55.18-.28.37-.56.55-.85.23,1.73.49,3.47.78,5.2A22.12,22.12,0,0,0,15,43.87c-.08-.71-.17-1.43-.26-2.14Zm.56,4.6c-.07-.53-.13-1.06-.19-1.59a25.63,25.63,0,0,1,1.71-2.54c.22,1.31.46,2.61.72,3.92l-1.88,1.61a3.23,3.23,0,0,1-.36-1.4Zm2.42,2.09a4.87,4.87,0,0,1-1.26-.14l2.1-1.82,3.47-.19c-.58.7-1.1,1.42-1.64,2.15Zm3.36,0a23,23,0,0,1,1.6-2.18L27.47,46l-1.7,2.4-4.67,0Zm5.89,0h-.45c.51-.81,1-1.61,1.55-2.42h0l5.33-.22c-.61.88-1.2,1.77-1.8,2.66Zm5.38,0c.55-.89,1.1-1.78,1.62-2.68,2.06-.07,4.13-.14,6.2-.19-.61,1-1.23,1.91-1.84,2.86Zm6.71,0,1.7-2.87q1.44,0,2.88-.06l3.56,0c-.65,1-1.3,2-1.94,3Zm15.6-.32a2.69,2.69,0,0,1-1.61.31h-7l1.61-3c1.09,0,2.19,0,3.27-.06H51Q52.86,46.7,54.73,48l0,0Zm.77-4c-.07.73-.15,1.47-.21,2.21,0,.25,0,.54-.08.82l-3.09-2.23c1.19-.81,2.36-1.64,3.54-2.47Zm.79-8.22L54.37,37.6c-.55.54-1.15,1.06-1.69,1.61.26-1.59.5-3.2.73-4.8.76-.66,1.42-1.51,2.12-2.24.38-.41.77-.81,1.16-1.22-.16,1.63-.3,3.25-.45,4.87ZM56.78,30c-.6.6-1.18,1.24-1.76,1.85s-1,1-1.46,1.47c.22-1.58.42-3.16.61-4.75h0c1.09-1.15,2.09-2.4,3.09-3.63L56.78,30Zm.56-5.79c-1,1.11-2.07,2.2-3.05,3.34.18-1.5.35-3,.51-4.51l2.81-1.49-.27,2.66Zm0,0"/><path class="cls-7" d="M33.37,12.84l-1.21.07L30.69,14.1l-.21,1.74L29.1,17.51l-.24,1.54,1.57,1.52,2,.26,2.26,1,1.61-.37,1.28-.79L39,21l1.42-.23,1-1.26.07-1.5-.62-1.33-.77-1.22,0-1.21-.6-.59L38.34,13l-1-.08-.26.15-.3,1-.69.11-2.43-.12Zm0,0"/><path class="cls-8" d="M30.21,22.59,31,26.31l1.19,1.33L36,28l2.68-.42L39.39,26l.41-4.71L39,21s-1.21-.48-1.39-.33-1.28.79-1.28.79l-1.88.26L33.19,21l-1.62-.46-1.14.05-.34-.07Zm0,0"/><path class="cls-5" d="M32,23.59l.72,4.17,1.59,0-.29-3.56-.24-2.71-2.25-.94Zm0,0"/><path class="cls-5" d="M36.32,21.46S35.94,28.13,36,28a7.34,7.34,0,0,1,1.61-.26L38.34,21l-.74-.31Zm0,0"/><path class="cls-9" d="M36.32,8.8,33.4,9l.26,5.13,1.92.15,1.2-.14L37,12Zm0,0"/><path class="cls-8" d="M34.9,5.26S33.66,6.49,34,7.07a2,2,0,0,0,1.28.73l.57-.59.08-.88-.48-.64Zm0,0"/><path class="cls-6" d="M41.64,17.64a6.42,6.42,0,0,0-.48-.85,1.81,1.81,0,0,1-.28-1,3.68,3.68,0,0,0-.43-1.85,3,3,0,0,0-3.12-1.44c0-.38,0-.76-.07-1.15a22.41,22.41,0,0,0-.35-2.7.41.41,0,0,0-.49-.27,8.57,8.57,0,0,1-1.24.15l0-.5a1.21,1.21,0,0,0,1.12-1.13A2,2,0,0,0,35.08,5a.24.24,0,0,0-.29,0,2.56,2.56,0,0,0-1,2,1.08,1.08,0,0,0,1,1c0,.16,0,.33,0,.5-.23,0-.45,0-.68,0h-.21a.23.23,0,0,0-.12,0,.92.92,0,0,0-.81.91c0,.89.12,1.83.16,2.72,0,.17,0,.34,0,.51A2.82,2.82,0,0,0,30.52,14c-.38.64-.31,1.44-.7,2.06a11.15,11.15,0,0,0-1.19,1.63,2.37,2.37,0,0,0,1.05,2.91l.05,0c.23,1.55.49,3.09.76,4.63A3.84,3.84,0,0,0,31.14,27a3,3,0,0,0,1.52.94,12.17,12.17,0,0,0,4.46.26,3.83,3.83,0,0,0,1.62-.43,1.85,1.85,0,0,0,.83-1.41c.12-.82.21-1.65.32-2.48s.28-1.8.32-2.7a2.7,2.7,0,0,0,.59-.35,2.83,2.83,0,0,0,.84-3.18ZM34.76,7c0,.18,0,.36,0,.53l0,.06a.91.91,0,0,1-.35-1.09A2.55,2.55,0,0,1,35,5.53a1.63,1.63,0,0,1,.73.94.74.74,0,0,1-.5.94V7c0-.31-.49-.31-.48,0Zm-.84,2.22a2.75,2.75,0,0,1,.86,0h.32a10.09,10.09,0,0,0,1.1,0c.17,1.16.34,2.31.4,3.48a3.89,3.89,0,0,1,0,.9c-.06.36-.41.26-.69.25l-1,0a2.76,2.76,0,0,1-.91,0c-.23-.11-.16-.66-.18-.87l-.06-1c0-.62-.06-1.23-.08-1.84,0-.28-.13-.72.19-.85ZM31.31,25.41c-.37-1.51-.64-3.05-1-4.58.37.08.76.09,1.14.14.08,1,.32,2,.5,3l.54,3a2,2,0,0,1-1.2-1.56Zm1.74,1.75c-.2-1.07-.39-2.13-.58-3.19s-.31-2-.57-2.94a10.73,10.73,0,0,1,1.82.85c.15,1.82.3,3.65.48,5.48a7.27,7.27,0,0,1-1.15-.2Zm3.08-2.77c0,1-.16,2.05-.1,3.05q-.56,0-1.08,0h-.19c-.2-1.8-.45-3.6-.69-5.41a3.71,3.71,0,0,0,2.14-.06c0,.82-.05,1.64-.08,2.46Zm.46,3c.1-1,0-2,0-3s0-1.75,0-2.63a4.51,4.51,0,0,0,1.08-.69,3.56,3.56,0,0,0,.41.17c-.3,2-.53,4.07-.79,6.11-.25,0-.51.06-.77.07Zm2.23-1.27a1.16,1.16,0,0,1-.48.92,1.54,1.54,0,0,1-.46.19c.23-2,.48-3.94.67-5.92a3,3,0,0,0,1,0c-.33,1.56-.42,3.2-.68,4.78ZM40.47,20a2,2,0,0,1-2.59.23.35.35,0,0,0-.38,0,3.63,3.63,0,0,1-4,.54,5.11,5.11,0,0,0-2.15-.67,2,2,0,0,1-1.78-.8,1.55,1.55,0,0,1,0-1.68,5.28,5.28,0,0,0,1.14-1.88,3.64,3.64,0,0,1,.74-2,2.63,2.63,0,0,1,1.76-.83l0,.6a.87.87,0,0,0,.31.71,1.41,1.41,0,0,0,.81.18l1.42.06c.64,0,1.4.1,1.57-.69a2.64,2.64,0,0,0,0-.57,2.39,2.39,0,0,1,2.46,1.35,5.49,5.49,0,0,1,.22,1.61,3.22,3.22,0,0,0,.6,1.3A2.09,2.09,0,0,1,40.47,20Zm0,0"/></g></svg>