<svg id="LEVELS" xmlns="http://www.w3.org/2000/svg" width="70" height="70" viewBox="0 0 70 70"><defs><style>.cls-1{fill:#4a80b6;}.cls-2{fill:#c0c5d7;}.cls-3{fill:#9499a9;}.cls-4{fill:#fdeaac;}.cls-5{fill:#343417;}.cls-6{fill:#ffc965;}.cls-7{fill:#fff;opacity:0.7;}</style></defs><g id="Layer_174" data-name="Layer 174"><path class="cls-1" d="M35.32.68c-24.45.44-24.45,36.78,0,37.22,24.45-.44,24.45-36.79,0-37.22Z"/><path class="cls-2" d="M46.91,35.37c-.23-.49-.36-1.22-.93-.95-6.36,4.68-15.22,4.28-21.59-.06-3.33,5,3.56,6.71,10.93,6.66,7.37-.2,12.64-.9,11.59-5.65Zm0,0"/><path class="cls-3" d="M47,37.79c-1.72,2-4.9,3.19-11.63,3.14-6.29,0-10.09-1-11.3-3a.38.38,0,0,0-.58-.07c-6.19,6.79.67,9.68,11.88,9.49,11.23.26,18.53-3.07,11.63-9.59Z"/><path class="cls-4" d="M56.16,3.58c-.6-2.7-.44-2.64-2.34-.65-2.69.6-2.63.45-.64,2.34.6,2.7.45,2.63,2.34.64,2.69-.6,2.63-.44.64-2.33Zm0,0"/><path class="cls-5" d="M53.92,7.65a.36.36,0,0,1-.14,0c-.41-.11-.52-.62-.8-1.86l-.07-.35-.29-.27c-.9-.85-1.28-1.21-1.16-1.62s.62-.52,1.86-.8l.35-.07.27-.29c.85-.9,1.21-1.28,1.62-1.16s.52.62.8,1.86l.07.35.29.27c.9.85,1.28,1.21,1.16,1.62s-.62.52-1.86.8l-.35.08-.27.29C54.64,7.27,54.28,7.65,53.92,7.65ZM52.05,3.7a6.8,6.8,0,0,0,1,1l.42.41.12.52A7,7,0,0,0,54,7a7.13,7.13,0,0,0,1-1l.4-.43.54-.12a7.91,7.91,0,0,0,1.39-.37,6.27,6.27,0,0,0-1-1l-.42-.4-.12-.53a7.26,7.26,0,0,0-.38-1.4,7.39,7.39,0,0,0-1,1L54,3.2l-.53.12A7,7,0,0,0,52.05,3.7Z"/><path class="cls-4" d="M48.43,13.8l-2.68-1c-2.47-3.28-1.94-3.33-3.37.48-3.27,2.47-3.33,1.94.49,3.37,2.46,3.27,1.93,3.33,3.36-.49l2.3-1.72a.37.37,0,0,0-.1-.64Zm0,0"/><path class="cls-5" d="M44.9,19.36c-.41,0-.75-.46-1.5-1.49-.21-.28-.44-.61-.72-1-.44-.17-.82-.3-1.16-.42-1.26-.45-1.79-.64-1.85-1.08s.39-.78,1.49-1.59l1-.71c.17-.44.3-.83.42-1.16.45-1.27.64-1.79,1.08-1.85s.78.39,1.59,1.49l.71,1,2.6,1a.67.67,0,0,1,.17,1.16l-2.22,1.67-.42,1.15c-.45,1.27-.64,1.79-1.08,1.86Zm-1.2-8.68a9.55,9.55,0,0,0-.59,1.46c-.12.36-.27.77-.45,1.25l0,.08-.07,0-1,.77a6,6,0,0,0-1.26,1,9.39,9.39,0,0,0,1.47.59l1.24.45.08,0,.06.07.77,1.05a5.74,5.74,0,0,0,1,1.25,8.76,8.76,0,0,0,.58-1.47L46,16.06,46,16l2.37-1.78s0-.06,0-.07,0,0,0-.05h0l-2.77-1L45.51,13c-.3-.4-.56-.75-.77-1.05A6.09,6.09,0,0,0,43.7,10.68Z"/><path class="cls-4" d="M34.23,28.6c-.14-4.09.33-3.83-3-1.53-4.1.14-3.83-.33-1.53,3,.14,4.1-.33,3.84,3,1.54,4.1-.14,3.84.33,1.54-3Zm0,0"/><path class="cls-5" d="M30.08,33.59a.54.54,0,0,1-.25-.06c-.4-.2-.41-.76-.44-2.13q0-.52,0-1.2c-.26-.39-.5-.72-.71-1-.77-1.1-1.09-1.55-.89-2s.77-.41,2.14-.44l1.19,0c.39-.26.72-.5,1-.7,1.1-.78,1.55-1.1,1.95-.9s.42.77.44,2.13c0,.35,0,.75,0,1.21l.71,1c.77,1.1,1.1,1.55.89,1.95s-.76.42-2.13.44l-1.2,0-1,.71C30.9,33.26,30.43,33.59,30.08,33.59Zm3.69-7.9a9.5,9.5,0,0,0-1.32.86c-.31.22-.67.48-1.09.76l-.07.05H31.2l-1.29,0a5.74,5.74,0,0,0-1.63.13,8.2,8.2,0,0,0,.86,1.31c.22.31.48.67.76,1.1L30,30v.08c0,.5,0,.93,0,1.3A5.84,5.84,0,0,0,30.12,33a9.5,9.5,0,0,0,1.31-.87l1.09-.76.07-.05h.09l1.3,0a6.13,6.13,0,0,0,1.62-.13,8.58,8.58,0,0,0-.86-1.32L34,28.77l0-.07v-.09c0-.49,0-.92,0-1.3A6.13,6.13,0,0,0,33.77,25.69Z"/><path class="cls-6" d="M43.43,23.62c-.67-4.29-.12-4.06-3.36-1.22-4.29.67-4.06.11-1.22,3.36.67,4.29.11,4.06,3.36,1.22,4.29-.67,4.06-.12,1.22-3.36Zm0,0"/><path class="cls-5" d="M39.65,29.36a.58.58,0,0,1-.19,0c-.43-.15-.51-.73-.7-2.11,0-.38-.11-.82-.19-1.32l-.92-1c-.92-1-1.3-1.43-1.14-1.86s.72-.51,2.11-.7l1.31-.19c.4-.35.74-.65,1-.92,1-.92,1.43-1.3,1.86-1.14s.51.72.7,2.1c0,.38.11.82.19,1.33l.91,1c.92,1,1.31,1.44,1.15,1.87s-.73.51-2.11.7l-1.32.19-1,.92C40.45,29,40,29.36,39.65,29.36Zm2.94-8.75a8.23,8.23,0,0,0-1.23,1c-.31.28-.67.61-1.1,1l-.06.06h-.09l-1.41.21a5.94,5.94,0,0,0-1.64.33,8.09,8.09,0,0,0,1,1.24c.28.31.61.67,1,1.1l.06.06v.09c.09.54.15,1,.21,1.41a6,6,0,0,0,.33,1.64,8.09,8.09,0,0,0,1.24-1l1.09-1,.07-.05.08,0,1.42-.2a5.8,5.8,0,0,0,1.64-.34,8.58,8.58,0,0,0-1-1.23l-1-1.1-.05-.06,0-.09c-.08-.54-.15-1-.2-1.41A5.8,5.8,0,0,0,42.59,20.61Z"/><path class="cls-6" d="M37.61,12.8l-5.7-1.16C26,6.16,27.74,5.68,26,13.48c-5.48,5.89-6,4.17,1.84,5.94,5.89,5.48,4.17,6,5.94-1.83l4-4.17a.38.38,0,0,0-.19-.62Zm0,0"/><path class="cls-5" d="M32.23,23.8c-.45,0-1-.53-2-1.62-.65-.66-1.45-1.48-2.53-2.49-1.45-.32-2.64-.53-3.5-.69-1.68-.3-2.38-.42-2.54-.92s.36-1,1.6-2.22c.66-.65,1.47-1.45,2.48-2.53.33-1.45.54-2.64.69-3.5.3-1.68.42-2.38.92-2.53s1,.35,2.22,1.59c.65.66,1.45,1.48,2.53,2.48l5.6,1.14a.66.66,0,0,1,.51.46.65.65,0,0,1-.17.66l-4,4.1c-.33,1.46-.54,2.64-.69,3.51-.3,1.68-.42,2.37-.92,2.53A.57.57,0,0,1,32.23,23.8ZM27.49,7.87h0A6.84,6.84,0,0,0,27,9.93c-.16.89-.37,2.11-.72,3.62l0,.07,0,.06c-1,1.12-1.92,2-2.56,2.61s-1.44,1.42-1.43,1.62a6.64,6.64,0,0,0,2.06.5c.89.16,2.11.38,3.61.72l.08,0,.06.05c1.12,1,2,1.92,2.61,2.56a6.93,6.93,0,0,0,1.61,1.44h0a7.06,7.06,0,0,0,.5-2.06c.16-.89.38-2.11.72-3.62l0-.08,4.1-4.23s0-.06,0-.07,0,0,0,0h0l-5.78-1.17-.06-.06c-1.11-1-2-1.91-2.6-2.55A7.1,7.1,0,0,0,27.49,7.87Z"/><path class="cls-6" d="M17.12,39.83a.37.37,0,0,0,.62-.18l.58-2.58c2.7-2.69,2.81-2.24-.89-3.07-2.69-2.7-2.24-2.81-3.07.89-2.7,2.68-2.81,2.24.89,3.06Zm0,0"/><path class="cls-5" d="M17.37,40.24a.67.67,0,0,1-.47-.2l-1.8-1.81-1-.23c-1.29-.26-1.82-.37-1.94-.8s.27-.81,1.23-1.74l.74-.72c.09-.39.16-.74.22-1,.27-1.29.38-1.82.81-1.94s.81.27,1.73,1.23l.73.74,1,.22c1.29.27,1.82.38,1.94.8s-.27.81-1.23,1.74c-.22.21-.47.45-.74.73L18,39.72a.64.64,0,0,1-.46.49A.69.69,0,0,1,17.37,40.24Zm-2.11-7.91a10.11,10.11,0,0,0-.36,1.49L14.66,35l0,.09-.07.06-.81.79a5.62,5.62,0,0,0-1.06,1.17,9.49,9.49,0,0,0,1.48.36l1.14.24.08,0,1.94,2s.05,0,.06,0a.09.09,0,0,0,.05,0L18,36.92l.07-.07.8-.79A5.48,5.48,0,0,0,20,34.89a11.63,11.63,0,0,0-1.48-.35l-1.14-.25-.08,0-.06-.06c-.3-.3-.57-.57-.79-.81A6.41,6.41,0,0,0,15.26,32.33Z"/><path class="cls-5" d="M54.21,19.29A18.89,18.89,0,1,0,23.93,34.34a3.85,3.85,0,0,0-.52,3.2c-.72.68-3.4,3.45-2.44,6,1,2.73,5.86,4.11,14.35,4.11s13.33-1.38,14.36-4.11c1-2.55-1.72-5.32-2.44-6a3.85,3.85,0,0,0-.52-3.2,18.85,18.85,0,0,0,7.49-15.05Zm-5.14,24C47.92,46.37,41,47,35.32,47s-12.59-.64-13.74-3.7c-.76-2,1.32-4.35,2.12-5.15C25,40.24,28.89,41.3,35.32,41.3S45.66,40.24,47,38.16c.8.8,2.88,3.15,2.12,5.15ZM46.56,35.5a2.61,2.61,0,0,1-.05,2.11c-.68,1.39-3.18,3-11.19,3s-10.45-1.67-11.18-3a3.12,3.12,0,0,1,.31-2.88,18.85,18.85,0,0,0,21.74,0,4,4,0,0,1,.37.77Zm-11.24,2A18.24,18.24,0,1,1,53.57,19.29,18.26,18.26,0,0,1,35.32,37.53Zm0,0"/><path class="cls-7" d="M19.32,11.84a19.09,19.09,0,0,0-.9,11.23c.13.56,1,.32.87-.24a18.14,18.14,0,0,1,.89-10.75c.22-.54-.65-.77-.86-.24Z"/><path class="cls-7" d="M19.51,26.11A12.08,12.08,0,0,0,21.28,29a.45.45,0,0,0,.63,0,.47.47,0,0,0,0-.64A10,10,0,0,1,21,27.08a10.74,10.74,0,0,1-.74-1.43.45.45,0,0,0-.61-.16.47.47,0,0,0-.16.62Z"/></g></svg>