<svg xmlns="http://www.w3.org/2000/svg" width="70" height="70" viewBox="0 0 70 70">
  <defs>
    <style>
      .cls-1 {
        fill: #dddbd1;
      }

      .cls-2 {
        fill: #404b3c;
      }

      .cls-3 {
        fill: #545f4e;
      }

      .cls-4 {
        fill: #3b4536;
      }

      .cls-5 {
        fill: #262626;
      }
    </style>
  </defs>
  <g id="Layer_211" data-name="Layer 211">
    <g>
      <polygon class="cls-1" points="22.87 41.39 16.31 41.39 20.95 36.75 20.07 35.87 15.44 40.51 15.44 33.96 14.2 33.96 14.2 40.5 9.57 35.87 8.7 36.75 13.33 41.39 6.77 41.39 6.77 42.63 13.32 42.63 8.7 47.25 9.57 48.13 14.2 43.5 14.2 50.05 15.44 50.05 15.44 43.49 20.07 48.13 20.95 47.25 16.32 42.63 22.87 42.63 22.87 41.39"/>
      <path class="cls-2" d="M14.82,31.11A10.9,10.9,0,1,0,25.72,42a10.89,10.89,0,0,0-10.9-10.9Zm0,18.32A7.43,7.43,0,1,1,22.25,42a7.43,7.43,0,0,1-7.43,7.42Zm0,0"/>
      <path class="cls-3" d="M15.23,31.12a10,10,0,0,0-1.82.09.58.58,0,0,0,.07,1.15h.16A10.94,10.94,0,0,1,24.48,43.19v.17a.58.58,0,0,0,1.15.07,13.7,13.7,0,0,0,.09-1.82A11,11,0,0,0,15.23,31.12Zm0,0"/>
      <path class="cls-4" d="M20.27,47.45h-.4A7.42,7.42,0,0,1,9.39,37c0-.13,0-.26,0-.39v-.05a1.79,1.79,0,0,0-3.2-1.13,10.8,10.8,0,0,0-2.24,6.73,10.89,10.89,0,0,0,17.51,8.55,1.79,1.79,0,0,0-1.12-3.21Zm0,0"/>
      <path class="cls-5" d="M17.93,35.26a7.48,7.48,0,0,1,1.86,1.22L22,33.84a10.89,10.89,0,0,0-2.52-1.66Zm0,0"/>
      <polygon class="cls-1" points="63.23 41.39 56.66 41.39 61.3 36.74 60.43 35.87 55.8 40.5 55.8 33.96 54.56 33.96 54.56 40.5 49.92 35.87 49.05 36.74 53.69 41.39 47.13 41.39 47.13 42.63 53.67 42.63 49.05 47.25 49.92 48.12 54.56 43.49 54.56 50.05 55.8 50.05 55.8 43.49 60.43 48.12 61.3 47.25 56.68 42.63 63.23 42.63 63.23 41.39"/>
      <path class="cls-2" d="M55.18,31.11A10.9,10.9,0,1,0,66.07,42a10.9,10.9,0,0,0-10.89-10.9Zm0,18.32A7.43,7.43,0,1,1,62.61,42a7.43,7.43,0,0,1-7.43,7.42Zm0,0"/>
      <path class="cls-3" d="M55.59,31.12a10,10,0,0,0-1.82.09.58.58,0,0,0,.07,1.15H54A11,11,0,0,1,64.84,43.19v.17a.58.58,0,0,0,1.15.07,12.2,12.2,0,0,0,.08-1.82A10.94,10.94,0,0,0,55.59,31.12Zm0,0"/>
      <path class="cls-4" d="M60.63,47.45h-.4A7.42,7.42,0,0,1,49.74,37c0-.13,0-.26,0-.39v-.05a1.79,1.79,0,0,0-3.2-1.13A10.9,10.9,0,0,0,61.8,50.66a1.79,1.79,0,0,0-1.12-3.21Zm0,0"/>
      <path class="cls-2" d="M31.34,17.05s0,0,0-.05a1.72,1.72,0,0,0-1.74-1.73H20.89A1.74,1.74,0,0,0,19.15,17v1.84a1.74,1.74,0,0,0,2.1,1.7L30,18.69a1.73,1.73,0,0,0,1.37-1.64h0Z"/>
      <path class="cls-2" d="M38.43,42A3.43,3.43,0,1,1,35,38.58,3.43,3.43,0,0,1,38.43,42Zm0,0"/>
      <path class="cls-5" d="M64.53,35.28l-1,.72a10.28,10.28,0,1,1-12.76-3.26l.83,2.08A8,8,0,1,0,55.18,34a8.43,8.43,0,0,0-1.33.12l-.53-2.17a10.15,10.15,0,0,1,8.62,2.36l.81-.93a11.52,11.52,0,0,0-7.57-2.85A11.8,11.8,0,0,0,53,30.7L47.86,9.94h6.58a2.36,2.36,0,0,1,0,4.71H50.85v1.23h3.59a3.59,3.59,0,1,0,0-7.18H47.06a.62.62,0,0,0-.6.77l3.25,13.09H27.49l-1-2.49,3.65-.77a2.35,2.35,0,0,0-.49-4.65H26.47v1.23H29.6a1.12,1.12,0,0,1,.24,2.21l-8.73,1.84a1.08,1.08,0,0,1-.93-.22,1.12,1.12,0,0,1-.41-.87V17a1.12,1.12,0,0,1,1.12-1.12H24V14.65H20.9A2.35,2.35,0,0,0,18.55,17v1.84a2.36,2.36,0,0,0,.86,1.84,2.34,2.34,0,0,0,1.95.47l3.85-.82,1.17,2.78L20.56,32a11.51,11.51,0,1,0,5.61,11.82h5.26A4,4,0,0,0,35,46.05a3.85,3.85,0,0,0,1-.13l.54,1.27a.62.62,0,0,0,.57.39h4.6V46.33H37.49l-.38-.89a4,4,0,0,0,.9-6.11L50.2,24.52,51.8,31a11.5,11.5,0,1,0,12.73,4.28Zm-49.71,17a10.28,10.28,0,0,1,0-20.55,10.13,10.13,0,0,1,5.07,1.35L18.67,35a7.93,7.93,0,0,0-3.85-1,8,8,0,1,0,7.82,9.9h2.28A10.28,10.28,0,0,1,14.82,52.28ZM25.1,42c0,.2,0,.41,0,.61H22.84c0-.2,0-.41,0-.61s0-.42,0-.62h2.22C25.08,41.59,25.1,41.8,25.1,42Zm-3.73-1.86h-4.6L19,36.67A6.83,6.83,0,0,1,21.37,40.15Zm-6.09,0H13.82a1.86,1.86,0,1,0,0,3.71h7.55a6.81,6.81,0,1,1-6.55-8.66A6.62,6.62,0,0,1,18,36Zm-1.46,2.47a.62.62,0,1,1,0-1.23H21.6c0,.2,0,.41,0,.62s0,.41,0,.61Zm8.82-2.47a8,8,0,0,0-2.93-4.52l1.22-1.87a10.27,10.27,0,0,1,4,6.39Zm3.66,2.47c0-.2,0-.41,0-.61s0-.42,0-.62H31a3.18,3.18,0,0,0,0,1.23Zm5.13-2.47H26.17a11.52,11.52,0,0,0-4.57-7.43L27,24.49l5.95,14.07A4,4,0,0,0,31.43,40.15Zm5.2,4.14-1.07-2.53-1.14.48,1.07,2.53a3.87,3.87,0,0,1-.49,0,2.83,2.83,0,1,1,1.63-.53Zm.43-5.75A4,4,0,0,0,35,38a4.26,4.26,0,0,0-1,.12L28,23.81H49.2ZM55.18,35.2a6.81,6.81,0,1,1-2.24.38l1.63,6.57,1.22-.29-1.64-6.58A7,7,0,0,1,55.18,35.2Z"/>
    </g>
  </g>
</svg>
