<svg xmlns="http://www.w3.org/2000/svg" width="70" height="70" viewBox="0 0 70 70">
  <defs>
    <style>
      .cls-1 {
        fill: #68a0d6;
      }

      .cls-2 {
        fill: #3279af;
      }

      .cls-3 {
        fill: #c4c1ab;
      }

      .cls-4 {
        fill: #262626;
      }

      .cls-5 {
        fill: #db3f31;
      }
    </style>
  </defs>
  <g id="Layer_205" data-name="Layer 205">
    <g>
      <g>
        <rect class="cls-1" x="6.58" y="28.25" width="34.72" height="24.34"/>
        <rect class="cls-2" x="28.34" y="28.25" width="12.95" height="24.34"/>
        <rect class="cls-3" x="32.79" y="28.25" width="4.06" height="6.71"/>
        <path class="cls-4" d="M41.29,27.9H28.34a.35.35,0,0,0-.35.35v24H6.92V28.59H27V27.9H6.58a.34.34,0,0,0-.35.35V52.59a.34.34,0,0,0,.35.34H41.29a.34.34,0,0,0,.35-.34V28.25A.34.34,0,0,0,41.29,27.9Zm-4.79.69v6H33.13v-6ZM41,52.24H28.71V28.59h3.73V35a.34.34,0,0,0,.35.35h4.06a.35.35,0,0,0,.34-.35V28.59H41Z"/>
      </g>
      <g>
        <rect class="cls-1" x="28.43" y="28.25" width="34.72" height="24.34"/>
        <rect class="cls-2" x="50.19" y="28.25" width="12.95" height="24.34"/>
        <rect class="cls-3" x="54.64" y="28.25" width="4.06" height="6.71"/>
        <path class="cls-4" d="M63.15,27.9H28.43a.35.35,0,0,0-.35.35V52.59a.35.35,0,0,0,.35.34H63.15a.34.34,0,0,0,.34-.34V28.25A.34.34,0,0,0,63.15,27.9Zm-34.37.69H49.85V52.24H28.78Zm34,23.65H50.56V28.59h7.79v6H55v-5h-.7V35a.35.35,0,0,0,.35.35H58.7A.34.34,0,0,0,59,35V28.59H62.8Z"/>
      </g>
      <g>
        <rect class="cls-1" x="28.43" y="3.95" width="34.72" height="24.34"/>
        <rect class="cls-2" x="50.19" y="3.95" width="12.95" height="24.34"/>
        <rect class="cls-3" x="54.64" y="3.95" width="4.06" height="6.71"/>
        <path class="cls-4" d="M63.15,3.61h-13a.34.34,0,0,0-.34.34V28H28.78V4.3h20V3.61H28.43a.35.35,0,0,0-.35.34V28.3a.35.35,0,0,0,.35.34H63.15a.34.34,0,0,0,.34-.34V4A.34.34,0,0,0,63.15,3.61Zm-4.8.69v6H55v-6ZM62.8,28H50.56V4.3h3.73v6.36a.35.35,0,0,0,.35.35H58.7a.34.34,0,0,0,.34-.35V4.3H62.8Z"/>
      </g>
      <g>
        <path class="cls-5" d="M17.8,42.73a5.31,5.31,0,0,0,4.88-6.29l-.55-2.86H12.78l-.55,2.86a5.31,5.31,0,0,0,4.88,6.29V47.3l-3.52,1.49h7.73L17.8,47.3Z"/>
        <path class="cls-4" d="M21.83,41A5.63,5.63,0,0,0,23,36.37l-.55-2.86a.34.34,0,0,0-.34-.28H16.39a.35.35,0,0,0-.33.24l-.76,2.42a.34.34,0,0,0,.2.43l1.28.49-.71,2.89.67.16.78-3.18a.35.35,0,0,0-.21-.41L16,35.78l.59-1.87h5.22l.49,2.57a5,5,0,1,1-9.77,0l.49-2.57h1.86v-.69H12.78a.34.34,0,0,0-.34.28l-.55,2.86a5.66,5.66,0,0,0,5.22,6.71v3.85l-3.65,1.54a.34.34,0,0,0,.13.66h7.73a.36.36,0,0,0,.35-.27.37.37,0,0,0-.21-.39L17.8,46.93V43.08A5.7,5.7,0,0,0,21.83,41Zm-6.53,7.4,2.15-.9,2.16.9Z"/>
      </g>
      <g>
        <rect class="cls-5" x="32.77" y="45.73" width="13.33" height="2.72"/>
        <path class="cls-5" d="M35.48,32.69l-2.71,4.7h1.38V44h2.7V37.39H38.2Zm0,0"/>
        <path class="cls-5" d="M46.09,37.39l-2.71-4.7-2.72,4.7H42V44h2.7V37.39Zm0,0"/>
        <path class="cls-4" d="M46.09,48.8H32.77a.34.34,0,0,1-.35-.34V45.73a.34.34,0,0,1,.35-.34H46.09a.34.34,0,0,1,.35.34v2.73a.35.35,0,0,1-.35.34Zm-13-.69H45.75v-2H33.11Zm0,0"/>
        <path class="cls-4" d="M36.85,44.31h-2.7A.35.35,0,0,1,33.8,44V41.54h.7v2.08h2V37.39a.34.34,0,0,1,.35-.34h.75l-2.12-3.67-2.11,3.67h.78a.35.35,0,0,1,.35.34v2.77h-.7V37.74h-1a.34.34,0,0,1-.3-.18.34.34,0,0,1,0-.34l2.72-4.7a.33.33,0,0,1,.29-.18.34.34,0,0,1,.3.18l2.72,4.7a.34.34,0,0,1,0,.34.34.34,0,0,1-.3.18h-1V44a.34.34,0,0,1-.34.35Zm0,0"/>
        <path class="cls-4" d="M44.73,44.31H42a.34.34,0,0,1-.34-.35V37.74h-1a.33.33,0,0,1-.29-.18.3.3,0,0,1,0-.34l2.71-4.7a.36.36,0,0,1,.3-.18.34.34,0,0,1,.3.18l2.72,4.7a.34.34,0,0,1,0,.34.36.36,0,0,1-.3.18h-1V44a.35.35,0,0,1-.35.35Zm-2.35-.69h2V37.39a.35.35,0,0,1,.35-.34h.76l-2.11-3.67-2.12,3.67H42a.34.34,0,0,1,.35.34Zm0,0"/>
      </g>
      <g>
        <path class="cls-5" d="M37.4,25.49a2.27,2.27,0,0,1-2.26-2.26v-1.8h.69v1.8a1.57,1.57,0,0,0,3.14,0V14h.69v9.27a2.26,2.26,0,0,1-2.26,2.26Zm0,0"/>
        <path class="cls-5" d="M39.32,8.64a7.64,7.64,0,0,0-7.66,7.65h0a4.23,4.23,0,0,1,5.08,0h0a4.25,4.25,0,0,1,5.09,0h0a4.25,4.25,0,0,1,5.09,0h0a7.64,7.64,0,0,0-7.65-7.65Zm0,0"/>
        <path class="cls-4" d="M45,10.62a8,8,0,0,0-11.06-.25l.46.51a7.32,7.32,0,0,1,12.22,4.75,4.62,4.62,0,0,0-4.73.23,4.62,4.62,0,0,0-5.09,0A4.64,4.64,0,0,0,32,15.63a7.2,7.2,0,0,1,1.46-3.76l-.56-.42a8,8,0,0,0-1.61,4.84.33.33,0,0,0,.19.31.36.36,0,0,0,.36,0h0a3.9,3.9,0,0,1,4.66,0l0,0a.36.36,0,0,0,.42,0,3.78,3.78,0,0,1,2-.75v7.41a1.57,1.57,0,0,1-3.14,0v-1.8h-.69v1.8a2.26,2.26,0,0,0,4.52,0V15.82a3.78,3.78,0,0,1,2,.75.36.36,0,0,0,.42,0l0,0a3.92,3.92,0,0,1,4.67,0h0a.31.31,0,0,0,.2.07.37.37,0,0,0,.15,0,.36.36,0,0,0,.19-.32A8,8,0,0,0,45,10.62Z"/>
      </g>
    </g>
  </g>
</svg>
