<svg xmlns="http://www.w3.org/2000/svg" width="70" height="70" viewBox="0 0 70 70">
  <defs>
    <style>
      .cls-1 {
        fill: #763e46;
      }

      .cls-2 {
        fill: #522129;
      }

      .cls-3 {
        fill: #b6b39f;
      }

      .cls-4 {
        fill: #dddbd1;
      }

      .cls-5 {
        fill: #677061;
      }

      .cls-6 {
        fill: #fff;
      }

      .cls-7 {
        fill: #3c4438;
      }

      .cls-8 {
        fill: #191717;
      }
    </style>
  </defs>
  <g id="Layer_210" data-name="Layer 210">
    <g>
      <path class="cls-1" d="M55.11,34.07h-40l-4.15,8.85H59.27Zm0,0"/>
      <path class="cls-2" d="M48.94,41H22L19.71,38H13.25l-2.33,5H59.27l-2.33-5H51.22Zm0,0"/>
      <path class="cls-3" d="M52.16,39.83l-2.28,3.09H20.12l-2.28-3.09H1.34L6,48.41v5.37H59.27l9.39-14Zm0,0"/>
      <path class="cls-4" d="M66.64,39.83l-9.38,14h2l9.39-14Zm0,0"/>
      <path class="cls-5" d="M11.27,46.81l-4.3-7H1.34L6,48.41v5.37H59.27L61,51.23H15.69a4.42,4.42,0,0,1-4.42-4.42Zm0,0"/>
      <path class="cls-4" d="M43.59,25.49H17.84v8.56H52.16a8.56,8.56,0,0,0-8.57-8.56Zm0,0"/>
      <path class="cls-6" d="M38,30.82H25a1.58,1.58,0,0,1,0-3.16H38a1.58,1.58,0,1,1,0,3.16Zm0,0"/>
      <path class="cls-1" d="M28.44,25.49H21.86V16.9H26.3Zm0,0"/>
      <rect class="cls-2" x="21.86" y="16.9" width="2.01" height="8.58"/>
      <path class="cls-1" d="M38.23,25.49H31.65V16.9h4.44Zm0,0"/>
      <rect class="cls-2" x="31.65" y="16.9" width="2.01" height="8.58"/>
      <path class="cls-4" d="M21.86,22.8h5.9L27,19.59H21.86Zm0,0"/>
      <rect class="cls-3" x="21.86" y="19.59" width="2.01" height="3.22"/>
      <path class="cls-4" d="M31.65,22.8h5.9l-.78-3.21H31.65Zm0,0"/>
      <path class="cls-5" d="M49.78,28.17h-9A3.21,3.21,0,0,0,44,31.39h7.77a8.73,8.73,0,0,0-2-3.22Zm0,0"/>
      <path class="cls-7" d="M27.09,47.44a2,2,0,1,1-2-2,2,2,0,0,1,2,2Zm0,0"/>
      <path class="cls-7" d="M37,47.44a2,2,0,1,1-2-2,2,2,0,0,1,2,2Zm0,0"/>
      <path class="cls-7" d="M46.93,47.44a2,2,0,1,1-2-2,2,2,0,0,1,2,2Zm0,0"/>
      <rect class="cls-3" x="31.65" y="19.59" width="2.01" height="3.22"/>
      <path class="cls-3" d="M49.48,31.39H46.57L44,28.17h2.91Zm0,0"/>
      <g>
        <path class="cls-8" d="M69.21,40.21a.66.66,0,0,0,0-.69.68.68,0,0,0-.59-.36H58.24l-2.52-5.37a.65.65,0,0,0-.61-.39H52.8a8.85,8.85,0,0,0-.42-2.19v0l-.13-.33c-.07-.18-.14-.35-.22-.53L52,30.16a9.23,9.23,0,0,0-8.37-5.34H38.76l-.54-2.18h0l-.79-3.21,0-.07-.66-2.62a.69.69,0,0,0-.65-.51H31.65a.66.66,0,0,0-.67.67v7.92H29l-.54-2.18-.79-3.21,0-.07L27,16.74a.68.68,0,0,0-.65-.51H21.86a.66.66,0,0,0-.67.67v7.92H17.84a.66.66,0,0,0-.67.67v7.89H15.09a.67.67,0,0,0-.61.39L12,39.16H8.45V40.5H17.5l2.08,2.82a.68.68,0,0,0,.54.27H49.88a.65.65,0,0,0,.54-.27L52.5,40.5H67.41L58.92,53.11H6.71v-4.7a.76.76,0,0,0-.08-.32L2.47,40.5h3.3V39.16H1.34a.67.67,0,0,0-.57.34.7.7,0,0,0,0,.66l4.62,8.43v4.52H.67v1.34H69.33V53.11H60.52ZM49.48,28.84a8.26,8.26,0,0,1,1.2,1.75l.06.13H44a2.55,2.55,0,0,1-2.45-1.88ZM32.32,20.26h3.91l.47,1.87H32.32Zm3.24-2.69.34,1.35H32.32V17.57Zm-3.24,5.9H37l.33,1.35h-5Zm-5.41-1.34H22.53V20.26h3.91l.47,1.87Zm-1.14-4.56.34,1.35H22.53V17.57Zm-3.24,5.9h4.72l.33,1.35h-5ZM52.16,39.16a.65.65,0,0,0-.53.27l-2.08,2.82H20.45l-2.08-2.82a.68.68,0,0,0-.53-.27H13.43l2.07-4.44H36.9V33.38H18.51V26.16H43.59A7.8,7.8,0,0,1,48,27.5H40.77a.67.67,0,0,0-.68.67A3.9,3.9,0,0,0,44,32.06h7.25a8.33,8.33,0,0,1,.23,1.34H39.57v1.34H54.68l2.09,4.42Z"/>
        <rect class="cls-8" x="17.84" y="37.42" width="5.36" height="1.34"/>
        <rect class="cls-8" x="27.49" y="37.42" width="5.36" height="1.34"/>
        <rect class="cls-8" x="37.14" y="37.42" width="5.36" height="1.34"/>
        <rect class="cls-8" x="46.8" y="37.42" width="5.36" height="1.34"/>
        <path class="cls-8" d="M27.76,47.44a2.68,2.68,0,1,0-2.68,2.68A2.7,2.7,0,0,0,27.76,47.44Zm-4,0a1.34,1.34,0,1,1,1.34,1.34A1.35,1.35,0,0,1,23.74,47.44Z"/>
        <path class="cls-8" d="M37.68,47.44A2.68,2.68,0,1,0,35,50.12,2.7,2.7,0,0,0,37.68,47.44Zm-4,0A1.34,1.34,0,1,1,35,48.78,1.35,1.35,0,0,1,33.66,47.44Z"/>
        <path class="cls-8" d="M47.6,47.44a2.68,2.68,0,1,0-2.68,2.68A2.69,2.69,0,0,0,47.6,47.44Zm-4,0a1.34,1.34,0,1,1,1.34,1.34A1.35,1.35,0,0,1,43.58,47.44Z"/>
        <rect class="cls-8" x="34.19" y="28.57" width="1.34" height="1.34"/>
        <rect class="cls-8" x="31.11" y="28.57" width="1.34" height="1.34"/>
        <rect class="cls-8" x="28.03" y="28.57" width="1.34" height="1.34"/>
        <rect class="cls-8" x="24.94" y="28.57" width="1.34" height="1.34"/>
        <rect class="cls-8" x="21.86" y="28.57" width="1.34" height="1.34"/>
      </g>
    </g>
  </g>
</svg>
