<svg xmlns="http://www.w3.org/2000/svg" width="70" height="70" viewBox="0 0 70 70">
  <defs>
    <style>
      .cls-1 {
        isolation: isolate;
      }

      .cls-2 {
        fill: #fddcce;
      }

      .cls-3 {
        fill: #231f20;
        opacity: 0.07;
        mix-blend-mode: multiply;
      }

      .cls-4 {
        fill: #333;
      }

      .cls-5 {
        fill: #fbcbbf;
      }

      .cls-11, .cls-12, .cls-5, .cls-6 {
        stroke: #333;
      }

      .cls-5, .cls-6 {
        stroke-linejoin: round;
      }

      .cls-11, .cls-12, .cls-6 {
        fill: none;
      }

      .cls-12, .cls-6 {
        stroke-linecap: round;
      }

      .cls-7 {
        fill: #b5da9e;
      }

      .cls-8 {
        fill: #97d0a2;
      }

      .cls-9 {
        fill: #ffd066;
      }

      .cls-10 {
        fill: #fec252;
      }

      .cls-11, .cls-12 {
        stroke-miterlimit: 10;
      }
    </style>
  </defs>
  <g class="cls-1">
    <g id="Layer_66" data-name="Layer 66">
      <g id="Man_copy_5" data-name="Man copy 5">
        <g id="selectable_copy_4" data-name="selectable copy 4">
          <g>
            <g>
              <path class="cls-2" d="M45.2,49.64a2.51,2.51,0,0,0-.23-.21,15.58,15.58,0,0,0-6.69-3.26V40.49H31.72v5.68a15.23,15.23,0,0,0-2,.57l-.6.23a15.67,15.67,0,0,0-7.54,6.51H48.42A15.63,15.63,0,0,0,45.2,49.64Z"/>
              <path class="cls-3" d="M33.74,40.49h-2v2.35h0v3.33a15.23,15.23,0,0,0-2,.57l-.43.17a15.65,15.65,0,0,0-7.71,6.57h8.24A22.59,22.59,0,0,1,30.9,50l.22-.51.11-.22c.06-.13.12-.26.19-.39l.11-.21a6,6,0,0,1,2.21-2.51V43.06H36a11.65,11.65,0,0,0,2.3-.23V40.49Z"/>
              <path class="cls-4" d="M48.42,54H21.58a.54.54,0,0,1-.46-.27.52.52,0,0,1,0-.54,16.27,16.27,0,0,1,7.8-6.74l.62-.23a13.63,13.63,0,0,1,1.65-.5V40.49a.54.54,0,0,1,.53-.54h6.56a.54.54,0,0,1,.53.54v5.25A16.24,16.24,0,0,1,45.32,49l.25.23a16,16,0,0,1,3.31,4,.52.52,0,0,1,0,.54A.54.54,0,0,1,48.42,54ZM22.56,52.94H47.44a15.41,15.41,0,0,0-2.59-2.89l0,0-.19-.17a15.08,15.08,0,0,0-6.47-3.16.54.54,0,0,1-.42-.52V41H32.26v5.14a.54.54,0,0,1-.42.52,15.93,15.93,0,0,0-1.94.55l-.57.23A15.18,15.18,0,0,0,22.56,52.94Z"/>
            </g>
            <path class="cls-5" d="M24.63,28.9a4.2,4.2,0,1,1-1.23-3,4.19,4.19,0,0,1,1.23,3Zm0,0"/>
            <path class="cls-5" d="M53.76,28.9a4.2,4.2,0,1,1-4.2-4.2,4.19,4.19,0,0,1,4.2,4.2Zm0,0"/>
            <g>
              <path class="cls-2" d="M35.07,8.05h-.14a12.4,12.4,0,0,0-12.39,12.4v8.79A11.48,11.48,0,0,0,34,40.72h2A11.48,11.48,0,0,0,47.46,29.24V20.45A12.4,12.4,0,0,0,35.07,8.05Zm0,0"/>
              <path class="cls-3" d="M38.59,40.42a11.23,11.23,0,0,1-2.61.3H34A11.48,11.48,0,0,1,22.54,29.24V20.45A12.4,12.4,0,0,1,34.93,8.05h.14a12.43,12.43,0,0,1,3.52.51,12.41,12.41,0,0,0-8.88,11.89v8.79a11.48,11.48,0,0,0,8.88,11.18Zm0,0"/>
              <path class="cls-4" d="M36,41.26H34a12,12,0,0,1-12-12V20.45A12.94,12.94,0,0,1,34.93,7.52h.14A12.94,12.94,0,0,1,48,20.45v8.79A12,12,0,0,1,36,41.26Zm-1-32.67A11.87,11.87,0,0,0,23.07,20.45v8.79A11,11,0,0,0,34,40.18h2a11,11,0,0,0,11-10.94V20.45A11.87,11.87,0,0,0,35.07,8.59Z"/>
            </g>
          </g>
        </g>
        <g>
          <path class="cls-6" d="M50.68,28.06a2.32,2.32,0,0,0-1.46-.32A2.5,2.5,0,0,0,47.46,29"/>
          <path class="cls-6" d="M19.32,28.06a2.32,2.32,0,0,1,1.46-.32A2.5,2.5,0,0,1,22.54,29"/>
          <path class="cls-4" d="M31.43,23.06a.79.79,0,0,0,0-1.12,3.2,3.2,0,0,0-4.53,0A.79.79,0,0,0,28,23.06a1.62,1.62,0,0,1,2.29,0,.79.79,0,0,0,.56.23.82.82,0,0,0,.56-.23Zm0,0"/>
          <path class="cls-4" d="M43.22,23.06a.79.79,0,0,0,0-1.12,3.2,3.2,0,0,0-4.53,0,.79.79,0,0,0,1.12,1.12,1.62,1.62,0,0,1,2.29,0,.82.82,0,0,0,.56.23.8.8,0,0,0,.56-.23Zm0,0"/>
          <path class="cls-4" d="M36.68,31a1.75,1.75,0,0,1-3.36,0,.79.79,0,0,0-1.52.46,3.34,3.34,0,0,0,6.4,0A.79.79,0,0,0,36.68,31Zm0,0"/>
          <g>
            <path class="cls-4" d="M29.08,24.71c-.77,0-1.39.86-1.39,1.91s.62,1.9,1.39,1.9,1.39-.85,1.39-1.9-.62-1.91-1.39-1.91Zm0,0"/>
            <path class="cls-4" d="M40.92,24.71c-.77,0-1.39.86-1.39,1.91s.62,1.9,1.39,1.9,1.39-.85,1.39-1.9-.62-1.91-1.39-1.91Zm0,0"/>
          </g>
        </g>
        <g id="selectable_copy_4-2" data-name="selectable copy 4">
          <g>
            <path class="cls-7" d="M41.26,47.09h0a9.17,9.17,0,0,1-6.2,2.41c-.3,0-.61,0-.91,0a9.12,9.12,0,0,1-5.26-2.35l-.2.07a15.59,15.59,0,0,0-7,6.3H48.49A15.63,15.63,0,0,0,41.26,47.09Z"/>
            <path class="cls-8" d="M28.69,47.17a15.59,15.59,0,0,0-7,6.3h7a16.72,16.72,0,0,1,2.22-5,9.46,9.46,0,0,1-2-1.4Z"/>
            <path class="cls-4" d="M48.49,54H21.65a.53.53,0,0,1-.46-.81,16.07,16.07,0,0,1,7.28-6.51l.27-.1a.56.56,0,0,1,.51.12,8.55,8.55,0,0,0,5,2.22,8.12,8.12,0,0,0,.86,0,8.64,8.64,0,0,0,5.75-2.19.51.51,0,0,1,.62-.19h0A16.37,16.37,0,0,1,49,53.19a.52.52,0,0,1,0,.54A.52.52,0,0,1,48.49,54ZM22.63,52.93H47.51a15.25,15.25,0,0,0-6.16-5.21A9.68,9.68,0,0,1,35.06,50c-.32,0-.65,0-1,0a9.62,9.62,0,0,1-5.31-2.27A15,15,0,0,0,22.63,52.93Z"/>
          </g>
        </g>
        <g id="selectable_copy_4-3" data-name="selectable copy 4">
          <g>
            <path class="cls-9" d="M27.46,15.55l1.34.63,4.87,2.29a4,4,0,0,0,5.2-1.65L41.75,18a4,4,0,0,0,4.66-1.13l1.12-1.36v9.14h2.1l2.49-12.08A9.81,9.81,0,0,0,42.52.83H39.71A15.16,15.16,0,0,0,29,5.26L27.72,4.6A4.94,4.94,0,0,0,20.5,9V24.69h2.39Z"/>
            <path class="cls-10" d="M27.46,15.55l1.34.63,1.58.74-.16-.75A12.78,12.78,0,0,1,42.56.83H39.71A15.14,15.14,0,0,0,29,5.26L27.72,4.6A4.94,4.94,0,0,0,20.5,9V24.69h2.39Z"/>
            <path class="cls-4" d="M49.63,25.23h-2.1a.54.54,0,0,1-.54-.54V17l-.17.21a4.55,4.55,0,0,1-5.28,1.28l-2.46-1A4.6,4.6,0,0,1,33.44,19l-5.74-2.7-4.33,8.67a.56.56,0,0,1-.48.3H20.5a.54.54,0,0,1-.53-.54V9a5.47,5.47,0,0,1,8-4.86l.94.49A15.54,15.54,0,0,1,39.71.3h2.81A10.33,10.33,0,0,1,52.64,12.72L50.16,24.8A.54.54,0,0,1,49.63,25.23Zm-1.56-1.08h1.12l2.4-11.65A9.26,9.26,0,0,0,42.52,1.37H39.71A14.51,14.51,0,0,0,29.39,5.64a.53.53,0,0,1-.63.1l-1.28-.67A4.4,4.4,0,0,0,21,9V24.15h1.51L27,15.31a.54.54,0,0,1,.71-.25L33.9,18a3.49,3.49,0,0,0,4.5-1.44.55.55,0,0,1,.68-.23L42,17.55a3.51,3.51,0,0,0,4-1l1.12-1.35a.53.53,0,0,1,1,.34Z"/>
          </g>
        </g>
        <g id="selectable_copy_4-4" data-name="selectable copy 4">
          <g>
            <circle class="cls-11" cx="26.61" cy="24.48" r="7.01"/>
            <circle class="cls-11" cx="43.39" cy="24.48" r="7.01"/>
            <path class="cls-12" d="M36.24,24.27A1.86,1.86,0,0,0,35,23.7a1.83,1.83,0,0,0-1.19.45"/>
          </g>
        </g>
      </g>
    </g>
  </g>
</svg>