<svg xmlns="http://www.w3.org/2000/svg" width="70" height="70" viewBox="0 0 70 70">
  <defs>
    <style>
      .cls-1 {
        fill: #e1566f;
      }

      .cls-2 {
        fill: #ffe5af;
      }

      .cls-3 {
        fill: #ffcf6a;
      }

      .cls-4 {
        fill: #333;
      }
    </style>
  </defs>
  <g id="Layer_216" data-name="Layer 216">
    <g>
      <path class="cls-1" d="M37.32,23.59a2.2,2.2,0,1,1-2.23-2.17,2.21,2.21,0,0,1,2.23,2.17Zm0,0"/>
      <path class="cls-1" d="M37.4,31.29c.06,4.55-.86,11-2.07,11s-2.27-6.42-2.32-11,.92-5.51,2.13-5.52,2.21.92,2.26,5.47Zm0,0"/>
      <path class="cls-2" d="M33.75,29.08a55.41,55.41,0,0,0-4.4-7.94c-1.57-2-10.66-13.66-15.5-13.6S7.36,9.37,7.41,13.77s3.38,3.95,5.31,8.35-1,7.21,4.64,7.15l16.39-.19Zm0,0"/>
      <path class="cls-1" d="M24.77,15.64c-5-3-5.46.33-5.46.33-7.66-3.4-2.52,3.63-2.52,3.63C13.86,22.93,18,23.82,18,23.82c-4,3.4.72,5.43.72,5.43l-1.33,0c-5.65.06-2.71-2.76-4.64-7.15s-5.26-3.95-5.31-8.35S9,7.59,13.86,7.54c2.94,0,7.47,4.28,10.91,8.1Zm0,0"/>
      <path class="cls-2" d="M33.75,29.08l-16.93.19c-1,0-2.61,2.53-2.54,8.31S17,47.3,24.17,47.22c2.9,0,2.88-3.42,5.18-5.78,1.77-1.81,4.49-4.58,4.46-7.36l-.06-5Zm0,0"/>
      <path class="cls-1" d="M27.76,43.72c-1,1.81-1.56,3.47-3.59,3.5-7.14.08-9.82-3.85-9.89-9.64s1.52-8.3,2.54-8.31H18s-1.41,1.61-.35,2.86c0,0-1.62,3,.43,4,0,0-1.77,4,1.49,5.15,0,0,1.62,3,4.22,1.93,0,0,1.27,2,3.94.51Zm0,0"/>
      <path class="cls-2" d="M18.37,12.26a1.1,1.1,0,1,1-1.11-1.09,1.1,1.1,0,0,1,1.11,1.09Zm0,0"/>
      <path class="cls-2" d="M14.52,11.75a1.65,1.65,0,1,1-1.67-1.63,1.65,1.65,0,0,1,1.67,1.63Zm0,0"/>
      <path class="cls-2" d="M36.61,29a55.67,55.67,0,0,1,4.22-8C42.35,19,51.17,7.11,56,7.05s6.53,1.69,6.58,6.08-3.28,4-5.11,8.47,1.17,7.19-4.48,7.26L36.61,29Zm0,0"/>
      <path class="cls-2" d="M36.61,29l16.93-.19s2.66,2.46,2.73,8.25S53.74,46.88,46.6,47c-2.89,0-3-3.35-5.31-5.66-1.81-1.77-4.59-4.47-4.62-7.25l-.06-5Zm0,0"/>
      <path class="cls-3" d="M55.35,31c-.56-1.5-1.27-2.19-1.81-2.18L36.61,29l0,2.2Zm0,0"/>
      <path class="cls-1" d="M45.28,15.4c4.94-3.1,5.47.21,5.47.21,7.57-3.58,2.6,3.56,2.6,3.56,3,3.26-1.08,4.24-1.08,4.24,4.1,3.31-.6,5.45-.6,5.45l1.33,0c5.65-.06,2.65-2.81,4.48-7.25s5.16-4.06,5.11-8.46S60.86,7,56,7.05c-2.94,0-7.37,4.45-10.72,8.35Zm0,0"/>
      <path class="cls-1" d="M42.93,43.55c1,1.78,1.65,3.43,3.67,3.41,7.14-.08,9.74-4.07,9.67-9.86s-1.71-8.26-2.73-8.25H52.33s1.45,1.58.42,2.86c0,0,1.68,3-.34,4,0,0,1.86,3.94-1.37,5.19,0,0-1.55,3-4.18,2,0,0-1.22,2-3.93.61Zm0,0"/>
      <path class="cls-2" d="M53.79,11.85a1.1,1.1,0,0,1-2.2,0,1.11,1.11,0,0,1,1.09-1.12,1.1,1.1,0,0,1,1.11,1.09Zm0,0"/>
      <path class="cls-2" d="M58.73,11.24a1.65,1.65,0,1,1-1.67-1.63,1.65,1.65,0,0,1,1.67,1.63Zm0,0"/>
      <path class="cls-3" d="M15.06,31.49l18.72-.21,0-2.2-16.93.19c-.54,0-1.23.71-1.76,2.22Zm0,0"/>
      <path class="cls-4" d="M17.31,13.92a1.65,1.65,0,1,1,1.63-1.67,1.65,1.65,0,0,1-1.63,1.67Zm0-2.2a.55.55,0,0,0,0,1.1.55.55,0,0,0,.55-.56.56.56,0,0,0-.56-.54Zm0,0"/>
      <path class="cls-4" d="M12.91,14a2.2,2.2,0,1,1,2.17-2.22A2.21,2.21,0,0,1,12.91,14Zm0-3.3a1.1,1.1,0,1,0,0,2.2,1.1,1.1,0,0,0,0-2.2Zm0,0"/>
      <path class="cls-4" d="M52.7,13.51a1.65,1.65,0,1,1,1.63-1.67,1.65,1.65,0,0,1-1.63,1.67Zm0-2.2a.56.56,0,0,0-.55.56.54.54,0,0,0,.56.54.53.53,0,0,0,.54-.55.55.55,0,0,0-.55-.55Zm0,0"/>
      <path class="cls-4" d="M57.1,13.46a2.2,2.2,0,1,1,2.17-2.22,2.19,2.19,0,0,1-2.17,2.22Zm0-3.3A1.12,1.12,0,0,0,56,11.28a1.1,1.1,0,1,0,1.09-1.12Zm0,0"/>
      <path class="cls-4" d="M56.82,37.09c0-3.94-.82-6.6-1.81-7.89,2.06-.46,2.24-1.73,2.29-3.56A10.24,10.24,0,0,1,58,21.81a9.86,9.86,0,0,1,2.74-3.69c1.26-1.18,2.44-2.29,2.41-5,0-2.43-.55-4.06-1.66-5.11S58.61,6.47,56,6.5c-1.74,0-3.94,1.29-6.74,3.87A67,67,0,0,0,43,17.28l.86.7c.6-.75,1.18-1.45,1.76-2.12,2.17-1.35,3.29-1.34,3.85-1.09a1.34,1.34,0,0,1,.7.8c-.57,1.07-3.67,6.58-7.84,8.57A32.08,32.08,0,0,0,39,25.31a31.09,31.09,0,0,1,2.3-4l0-.07c.2-.25.47-.62.82-1.09l-.87-.67c-.36.47-.64.85-.82,1.1l0,.07a40.67,40.67,0,0,0-3.24,5.85,2.39,2.39,0,0,0-.46-.64,2.73,2.73,0,0,0,.07-4.46c0-3.17.72-9.37,5.82-9.43v-1.1a6,6,0,0,0-5.37,3.32,14.63,14.63,0,0,0-1.53,6.72,2.76,2.76,0,0,0-.57-.06,2.79,2.79,0,0,0-.58.07,14.56,14.56,0,0,0-1.68-6.68,6,6,0,0,0-5.44-3.2v1.1c5.09-.05,5.94,6.13,6,9.3a2.73,2.73,0,0,0,.17,4.45,2.62,2.62,0,0,0-.46.68,39.58,39.58,0,0,0-3.38-5.79l0-.05a95,95,0,0,0-6.6-7.65C19.15,9,16,7,13.84,7c-2.61,0-4.33.55-5.43,1.64s-1.58,2.72-1.55,5.14c0,2.71,1.24,3.79,2.54,5a9.54,9.54,0,0,1,2.82,3.61A9.77,9.77,0,0,1,13,26.16c.13,2.23.4,3.61,4,3.65a2.47,2.47,0,0,0,0,2.36,4.63,4.63,0,0,0-.39,3,2.23,2.23,0,0,0,.78,1.12A5.48,5.48,0,0,0,17.37,40a3.29,3.29,0,0,0,1.85,1.75c.67,1.13,2.3,2.75,4.41,2.14a3.09,3.09,0,0,0,2.3,1,3.22,3.22,0,0,0,.67-.08c-.67,1.23-1.24,1.91-2.43,1.93-3.24,0-5.66-.79-7.2-2.44-1.39-1.5-2.11-3.73-2.14-6.65a17.39,17.39,0,0,1,.74-5.9l-1-.36a19,19,0,0,0-.81,6.28c0,3.19.86,5.68,2.44,7.39,1.76,1.89,4.45,2.83,8,2.79,2.12,0,2.92-1.57,3.74-3.19a11.32,11.32,0,0,1,1.81-2.76l0,0a24.68,24.68,0,0,0,3.3-3.93,24.72,24.72,0,0,0,.61,2.77c.47,1.55,1,2.23,1.67,2.23s1.18-.71,1.61-2.28a22,22,0,0,0,.54-2.75,25.59,25.59,0,0,0,3.39,3.84l0,0a10.53,10.53,0,0,1,1.88,2.72c.86,1.59,1.69,3.11,3.82,3.09,3.56,0,6.23-1,7.94-3C56.09,42.79,56.86,40.29,56.82,37.09Zm-9.56,5.38-2.48-4.93a3.78,3.78,0,0,0,1.06.16,3.37,3.37,0,0,0,1.38-.33L50.36,41A2.85,2.85,0,0,1,47.26,42.47ZM37.22,34l0-2.43,2.59,2.13L40,39.17C38.57,37.65,37.24,35.84,37.22,34Zm0-3.87v-.58l4.41-.05L46,29.49c.22.53.65,1.65,1,2.84.88,3,.43,3.56.38,3.62a2.4,2.4,0,0,1-3.25,0C43.28,35.19,38.26,31.06,37.17,30.17Zm14,10.07-3-3.49,0,0c.28-.27.57-.77.48-2L52,36.14a4.52,4.52,0,0,1,.22,3A2.14,2.14,0,0,1,51.17,40.24Zm1.17-5.15-3.91-1.6c-.09-.43-.2-.9-.36-1.47l0-.06,4.36.29a3.55,3.55,0,0,1,.39,2.23A1.15,1.15,0,0,1,52.34,35.09Zm-4.66-4.26c-.18-.53-.35-1-.49-1.36l4.89,0a1.78,1.78,0,0,1,.36,1.73Zm2.24-17.06a3.53,3.53,0,0,0-2.47,0c3.69-4,6.65-6.15,8.55-6.17,4.45,0,6,1.35,6,5.54,0,2.22-.86,3-2.07,4.18a10.62,10.62,0,0,0-3,4.07,11.17,11.17,0,0,0-.77,4.22,3.25,3.25,0,0,1-.39,2,3.37,3.37,0,0,1-2.32.66,3.22,3.22,0,0,0,1-1.85,3.37,3.37,0,0,0-1.18-2.79A2.94,2.94,0,0,0,54.91,22,3,3,0,0,0,54,19.15c.73-1.11,2.07-3.48,1.14-4.58-.64-.75-1.92-.66-4.12.31A2.36,2.36,0,0,0,49.92,13.77Zm2.39,9.07h0a27.86,27.86,0,0,0-6.87.54,19.85,19.85,0,0,0,2.49-2.54,14,14,0,0,1,5.16-1.11,2.32,2.32,0,0,1,.77,1.91C53.67,22.28,52.8,22.69,52.31,22.84Zm-1.18-6.77c2.73-1.27,3.19-.81,3.21-.79.28.34-.32,1.9-1.28,3.35a14.85,14.85,0,0,0-3.91.62A32,32,0,0,0,51.13,16.07Zm-8.46,9.1h0l.06,0A30.77,30.77,0,0,1,52,23.91c1,.83,1.5,1.62,1.41,2.36-.12,1-1.26,1.75-1.82,2l-14.12.16c.19-.42.46-1,.77-1.65A31.35,31.35,0,0,1,42.67,25.17Zm-9.2-1.53a1.65,1.65,0,1,1,1.67,1.63A1.65,1.65,0,0,1,33.47,23.64ZM30.61,39.28l.07-5.43,2.54-2.2,0,2.43C33.27,35.88,32,37.73,30.61,39.28Zm-4.24-3.09a2.4,2.4,0,0,1-3.25,0c-.05,0-.52-.59.29-3.61.32-1.2.73-2.33.93-2.88l8.86-.1v.58C32.14,31.13,27.21,35.38,26.37,36.19Zm-7.56-7.5c-.36-.18-1.73-.93-1.9-2-.1-.71.35-1.5,1.3-2.34a31.67,31.67,0,0,1,13.87,2.57c.32.63.59,1.2.8,1.62Zm.1-12.29A28.58,28.58,0,0,0,21,19.56,15.09,15.09,0,0,0,17.07,19c-1-1.44-1.64-3-1.36-3.33C15.73,15.69,16.17,15.21,18.91,16.4Zm-1.86,3.74a14,14,0,0,1,5.19,1,19.51,19.51,0,0,0,2.56,2.49A28.7,28.7,0,0,0,18,23.25c-.44-.12-1.43-.51-1.65-1.18A2.33,2.33,0,0,1,17.05,20.14ZM28.9,21.47a28.55,28.55,0,0,1,2.39,3.92A33.9,33.9,0,0,0,28,24.31c-4.21-1.88-7.46-7.36-8-8.4a1.39,1.39,0,0,1,.67-.82c.77-.36,2.13,0,3.82,1q2.13,2.37,4.47,5.37ZM14.52,28.09a3.46,3.46,0,0,1-.44-2,11.22,11.22,0,0,0-.86-4.2,10.88,10.88,0,0,0-3.09-4C8.88,16.79,8,16,8,13.76c0-4.19,1.44-5.62,5.89-5.67,1.9,0,4.93,2.08,8.67,5.94a3.43,3.43,0,0,0-2.43.08A2.31,2.31,0,0,0,19,15.24c-2.22-.92-3.51-1-4.12-.22-.92,1.13.49,3.46,1.24,4.55a3,3,0,0,0-.81,2.84A3,3,0,0,0,16.94,24a3.34,3.34,0,0,0-1.11,2.81,3.14,3.14,0,0,0,1.06,1.84A3.4,3.4,0,0,1,14.52,28.09ZM18.3,29.8l4.87-.05c-.13.37-.3.84-.47,1.38L18,31.55A1.8,1.8,0,0,1,18.3,29.8ZM18,32.65l4.34-.39,0,.06c-.15.56-.25,1-.33,1.47l-3.87,1.69a1.12,1.12,0,0,1-.46-.59A3.64,3.64,0,0,1,18,32.65Zm.35,6.88a4.44,4.44,0,0,1,.16-3l3.31-1.44c-.06,1.19.24,1.69.53,2l0,0-3,3.56A2.12,2.12,0,0,1,18.38,39.53Zm1.89,1.78,3.05-3.67a3.16,3.16,0,0,0,1.4.3,3.66,3.66,0,0,0,1-.18l-2.37,5C21.83,43.26,20.7,41.94,20.27,41.31Zm4.18,1.8,3.06-6.49,2.06-1.81-.07,5.68L29,41l0,0a9.76,9.76,0,0,0-1.58,2.24C25.73,44.13,24.8,43.48,24.45,43.11ZM35.33,41.7c-.35-.38-1-2.07-1.41-5.49a5.72,5.72,0,0,0,.43-2.14l-.06-4.94v-.06h0a.59.59,0,0,0,0-.22L33.82,28c.36-1.57,1-1.59,1.33-1.59s1,0,1.35,1.54c-.23.51-.38.86-.4.91a.06.06,0,0,1,0,0,.58.58,0,0,0,0,.19l.06,5a5.83,5.83,0,0,0,.48,2.15C36.23,39.61,35.66,41.31,35.33,41.7Zm6.31-.83-.53-.52-.2-5.67c.85.71,1.62,1.35,2.09,1.76l3.23,6.43c-.35.38-1.27,1-2.91.24a10.24,10.24,0,0,0-1.65-2.21ZM53.72,43.8c-1.5,1.69-3.91,2.56-7.14,2.6-1.19,0-1.78-.66-2.48-1.87a3.33,3.33,0,0,0,.69.06,3.09,3.09,0,0,0,2.29-1c2.11.56,3.7-1.1,4.36-2.24a3.23,3.23,0,0,0,1.8-1.79,5.41,5.41,0,0,0-.14-3.62,2.2,2.2,0,0,0,.76-1.14,4.62,4.62,0,0,0-.47-3,2.48,2.48,0,0,0,0-2.34h.18c.44,0,2.11,1.91,2.18,7.7C55.74,40,55.08,42.27,53.72,43.8Z"/>
    </g>
  </g>
</svg>
