<svg xmlns="http://www.w3.org/2000/svg" width="70" height="70" viewBox="0 0 70 70">
  <defs>
    <style>
      .cls-1 {
        fill: #c9c9c9;
      }

      .cls-2 {
        fill: #ee7778;
      }

      .cls-3 {
        fill: #7c7c7c;
      }

      .cls-4 {
        fill: #919191;
      }

      .cls-5 {
        fill: #afafaf;
      }

      .cls-6 {
        fill: #fff;
      }

      .cls-7 {
        fill: #aa1f23;
      }
    </style>
  </defs>
  <g id="Layer_206" data-name="Layer 206">
    <g>
      <path class="cls-1" d="M66.33,32.56a14.48,14.48,0,0,0,2.87-8.13.42.42,0,0,0-.39-.44,10.85,10.85,0,0,0-6.27,1.47A9.73,9.73,0,0,0,60.34,24a10.18,10.18,0,0,0-2.52-.7,10.84,10.84,0,0,0-3-5.67.42.42,0,0,0-.59,0A14.44,14.44,0,0,0,50,25.2l0,0-1.77.87c-4.13,9.15,5.17,13.34,5.17,13.34s9.3,4.2,13.42-5l-.51-1.88Zm0,0"/>
      <path class="cls-2" d="M55.71,23.22a12,12,0,0,0-.9-4.25,16,16,0,0,0-3.1,5.39l.51-.25a9.19,9.19,0,0,1,3.49-.89Zm0,0"/>
      <path class="cls-3" d="M54.77,17.66a.42.42,0,0,0-.59,0,11.92,11.92,0,0,1,1.53,5.56,10.67,10.67,0,0,1,2.11.11,10.84,10.84,0,0,0-3-5.67Zm0,0"/>
      <path class="cls-3" d="M68.81,24a.42.42,0,0,1,.39.44A11.93,11.93,0,0,0,64,27a10.49,10.49,0,0,0-1.47-1.51A10.81,10.81,0,0,1,68.81,24Zm0,0"/>
      <path class="cls-4" d="M57.8,27.17l1.87-3.4a11.84,11.84,0,0,0-2.29-.5l0,3.77a.25.25,0,0,0,.46.13Zm0,0"/>
      <path class="cls-5" d="M53.93,38.27S45.37,34.41,48.32,26l-.07,0c-4.13,9.15,5.17,13.34,5.17,13.34s9.3,4.2,13.42-5l0-.08c-4.34,7.76-12.89,3.91-12.89,3.91Zm0,0"/>
      <path class="cls-4" d="M49.88,28c-.69-.06-1.61-.12-2.3-.15a10,10,0,0,0-.37,2L50,28.46a.23.23,0,0,0-.08-.43Zm0,0"/>
      <path class="cls-4" d="M47.53,32.92l2.2-1.18a.23.23,0,0,0-.08-.43c-.74-.07-1.73-.12-2.44-.16a8.23,8.23,0,0,0,.32,1.77Zm0,0"/>
      <path class="cls-4" d="M64.28,34.53c.5.47,1.15,1.12,1.64,1.62a11.19,11.19,0,0,1-1.29,1.62l-.73-3a.23.23,0,0,1,.38-.22Zm0,0"/>
      <path class="cls-4" d="M62.17,39.52l-.58-2.43a.23.23,0,0,1,.38-.22c.54.5,1.24,1.21,1.73,1.72a8.8,8.8,0,0,1-1.53.93Zm0,0"/>
      <path class="cls-4" d="M55.33,25.74a.25.25,0,0,0,.48,0l.34-2.48a9.69,9.69,0,0,0-1.7.16Zm0,0"/>
      <path class="cls-4" d="M62.38,28.92l2.36-.9a9.79,9.79,0,0,0-1-1.39l-1.63,1.9a.25.25,0,0,0,.27.39Zm0,0"/>
      <path class="cls-4" d="M60.08,28.28l2.8-2.53A10.72,10.72,0,0,0,61,24.37L59.68,28a.25.25,0,0,0,.4.27Zm0,0"/>
      <path class="cls-2" d="M64,27a12.29,12.29,0,0,1,3.78-2.15,16.14,16.14,0,0,1-2,5.9l-.15-.55A9.12,9.12,0,0,0,64,27Zm0,0"/>
      <path class="cls-6" d="M55.51,34.76l-1.82-.83L53,35.43l3.65,1.65.67-1.5Zm0,0"/>
      <path d="M54.74,29.19a1.09,1.09,0,1,0-2.08-.48,1.09,1.09,0,0,0,2.08.48Zm0,0"/>
      <path d="M61.62,31.1a1.09,1.09,0,0,0-1.19.2,1.09,1.09,0,0,0,.71,1.88,1.09,1.09,0,0,0,.48-2.08Zm0,0"/>
      <path d="M58.55,35.67l-2.49-1.12.35-.78L57,33.7c.7-.12,1.1-.33,1.25-.66A.86.86,0,0,0,58,32a3.77,3.77,0,0,0-1-.55,3.81,3.81,0,0,0-1-.35.86.86,0,0,0-1,.49c-.15.33,0,.76.34,1.37.12.19.24.36.33.49l-.35.78-2.5-1.13a.42.42,0,0,0-.34.76l.68.3-.51,1.13a.41.41,0,0,0,.21.54l3.65,1.65a.41.41,0,0,0,.54-.21l.51-1.12.66.3a.42.42,0,0,0,.55-.21.41.41,0,0,0-.21-.55Zm-4.66-1.19L55,35l-.34.75-1.06-.48Zm2.56,2.05-1.07-.48.34-.75,1.06.49Zm0,0"/>
      <path d="M50.84,29.72l1.18.77a.43.43,0,0,0,.31.06.44.44,0,0,0,.27-.19.42.42,0,0,0-.13-.57L51.29,29a.42.42,0,0,0-.58.13.41.41,0,0,0,.13.57Zm0,0"/>
      <path d="M51.75,31.18l-1.4-.3a.43.43,0,0,0-.49.32.42.42,0,0,0,.32.5l1.39.3a.42.42,0,0,0,.18-.82Zm0,0"/>
      <path d="M62.6,34.12l-1.36-.38a.41.41,0,0,0-.22.8l1.36.38a.42.42,0,0,0,.31,0,.41.41,0,0,0,.16-.57.39.39,0,0,0-.25-.2Zm0,0"/>
      <path d="M61.83,36.06l-1.15-.85a.41.41,0,0,0-.58.09.41.41,0,0,0,.08.58l1.15.85a.42.42,0,0,0,.58-.09.41.41,0,0,0-.08-.58Zm0,0"/>
      <path d="M67.24,34.33l-.46-1.68a13.15,13.15,0,0,0,1.29-2.12,15.3,15.3,0,0,0,1.55-6.08v0a.84.84,0,0,0-.77-.84A11.32,11.32,0,0,0,62.58,25a9.73,9.73,0,0,0-2.07-1.29A10.28,10.28,0,0,0,58.17,23a11.29,11.29,0,0,0-3.11-5.61.82.82,0,0,0-1.14,0l0,0a15.45,15.45,0,0,0-3.53,5.19,14.27,14.27,0,0,0-.74,2.36l-1.56.77a.41.41,0,0,0-.19.2,10.52,10.52,0,0,0-1,6.19A9.25,9.25,0,0,0,49,36.42a13,13,0,0,0,4.28,3.35,13,13,0,0,0,5.35,1,9.31,9.31,0,0,0,4.62-1.34,10.56,10.56,0,0,0,4-4.81.39.39,0,0,0,0-.28Zm.55-9.95a12.84,12.84,0,0,0-3.71,2,11.23,11.23,0,0,0-.83-.86,10.14,10.14,0,0,1,4.54-1.15ZM57.3,22.84c-.4,0-.8-.05-1.2-.05a12.44,12.44,0,0,0-1-4.11,10.32,10.32,0,0,1,2.15,4.16Zm5.5,15.87a8.52,8.52,0,0,1-4.2,1.22,12.48,12.48,0,0,1-5-.92,12.45,12.45,0,0,1-4-3.12,8.5,8.5,0,0,1-1.89-4,9.76,9.76,0,0,1,.84-5.57l3.32-1.63a.4.4,0,0,0,.23-.23.42.42,0,0,0,0-.33.4.4,0,0,0-.25-.21.38.38,0,0,0-.33,0l-.93.45a14.45,14.45,0,0,1,3.49-6.09,11.7,11.7,0,0,1,1.19,4.49c-.3,0-.6.07-.9.13a.41.41,0,0,0-.33.48.4.4,0,0,0,.48.33,9.65,9.65,0,0,1,1.19-.14h0a10.24,10.24,0,0,1,4.44.77h0a9.19,9.19,0,0,1,2.1,1.36,9.8,9.8,0,0,1,1.42,1.46h0a10.75,10.75,0,0,1,.67,1,.42.42,0,0,0,.72-.43c-.16-.26-.32-.51-.5-.76A11.88,11.88,0,0,1,68.76,25a14.55,14.55,0,0,1-1.43,5.17,11.92,11.92,0,0,1-.83,1.48l-.28-1a.44.44,0,0,0-.2-.25.42.42,0,0,0-.31,0,.39.39,0,0,0-.25.2.38.38,0,0,0,0,.31l1,3.57a9.73,9.73,0,0,1-3.6,4.31Zm0,0"/>
    </g>
    <g>
      <path class="cls-1" d="M20,26.6a14.77,14.77,0,0,0-2.73-8.33.43.43,0,0,0-.59-.11,10.89,10.89,0,0,0-4.13,5.07,10.27,10.27,0,0,0-2.66.22,10.08,10.08,0,0,0-2.48,1,11,11,0,0,0-6-2.68.43.43,0,0,0-.47.37,14.75,14.75,0,0,0,1.3,8.67l0,0-.89,1.8c2.36,9.93,12.44,7.53,12.44,7.53s10.09-2.39,7.73-12.32L20,26.6Zm0,0"/>
      <path class="cls-2" d="M5.65,25.67A12.23,12.23,0,0,0,2.29,22.8a16.31,16.31,0,0,0,.85,6.27l.25-.52a9.32,9.32,0,0,1,2.26-2.88Zm0,0"/>
      <path class="cls-3" d="M1.44,21.77a.43.43,0,0,0-.47.37,12.1,12.1,0,0,1,4.68,3.53,11.35,11.35,0,0,1,1.77-1.22,11.06,11.06,0,0,0-6-2.68Zm0,0"/>
      <path class="cls-3" d="M16.68,18.16a.43.43,0,0,1,.59.11,12.12,12.12,0,0,0-2.6,5.26,10.83,10.83,0,0,0-2.12-.3,10.89,10.89,0,0,1,4.13-5.07Zm0,0"/>
      <path class="cls-4" d="M9.78,27.55l-.59-3.89a11,11,0,0,0-2.17,1l2.31,3.06a.25.25,0,0,0,.45-.19Zm0,0"/>
      <path class="cls-5" d="M13.55,38.89s-9.28,2.2-12.11-6.38l0,.07c2.36,9.93,12.44,7.53,12.44,7.53s10.09-2.39,7.73-12.32l-.06,0c1.32,8.94-8,11.14-8,11.14Zm0,0"/>
      <path class="cls-4" d="M3.94,33.16c-.59.38-1.36.9-1.95,1.3a9.79,9.79,0,0,0,1,1.87l1.3-2.88a.23.23,0,0,0-.33-.29Zm0,0"/>
      <path class="cls-4" d="M5.08,38.55l1-2.31A.23.23,0,0,0,5.79,36c-.63.39-1.47,1-2.06,1.38a9.19,9.19,0,0,0,1.35,1.22Zm0,0"/>
      <path class="cls-4" d="M19.56,29.45c.7.07,1.63.19,2.33.29a10.63,10.63,0,0,1,0,2.11l-2.46-2a.24.24,0,0,1,.16-.42Zm0,0"/>
      <path class="cls-4" d="M21,34.78l-2-1.59a.24.24,0,0,1,.17-.42c.74.08,1.75.21,2.46.31a8,8,0,0,1-.65,1.7Zm0,0"/>
      <path class="cls-4" d="M6.91,27.93a.25.25,0,0,0,.35-.34L6,25.39a8.91,8.91,0,0,0-1.27,1.19Zm0,0"/>
      <path class="cls-4" d="M14.56,26.12l1.34-2.19a9.72,9.72,0,0,0-1.67-.5L14.1,26a.25.25,0,0,0,.46.15Zm0,0"/>
      <path class="cls-4" d="M12.31,27,13,23.26a10.61,10.61,0,0,0-2.39.06l1.21,3.74a.25.25,0,0,0,.49,0Zm0,0"/>
      <path class="cls-2" d="M14.67,23.53a12.44,12.44,0,0,1,1.71-4.07,16.29,16.29,0,0,1,2.07,6L18,25.09a9.42,9.42,0,0,0-3.31-1.56Zm0,0"/>
      <path d="M15.68,33.86a2.42,2.42,0,0,1-2.9.06l0-.19c.12-.11.27-.25.43-.42.49-.53.68-1,.6-1.3a.88.88,0,0,0-.89-.68,4.1,4.1,0,0,0-1.11.15,4,4,0,0,0-1.06.36.87.87,0,0,0-.49,1c.08.35.44.64,1.12.89l.58.19,0,.18a2.9,2.9,0,0,1-.53.68,2.4,2.4,0,0,1-2.08.57.4.4,0,0,0-.32.08.41.41,0,0,0-.17.27.42.42,0,0,0,.36.48,3.62,3.62,0,0,0,1.39,0A3.08,3.08,0,0,0,12,35.41a3.44,3.44,0,0,0,.55-.65,2.82,2.82,0,0,0,.78.33,3.13,3.13,0,0,0,1.58,0,3.57,3.57,0,0,0,1.25-.58.43.43,0,0,0,.18-.28.42.42,0,0,0-.34-.49.4.4,0,0,0-.32.08Zm0,0"/>
      <path d="M8.79,30.45a.43.43,0,0,0-.51-.32.43.43,0,0,0-.31.51.72.72,0,0,1-.53.86A.71.71,0,0,1,6.59,31a.42.42,0,0,0-.51-.31.41.41,0,0,0-.31.5,1.55,1.55,0,1,0,3-.71Zm0,0"/>
      <path d="M16.48,28.19a.42.42,0,0,0-.31.5.71.71,0,0,1-.53.86.7.7,0,0,1-.85-.53.44.44,0,0,0-.51-.31.41.41,0,0,0-.31.51,1.55,1.55,0,1,0,3-.72.41.41,0,0,0-.51-.31Zm0,0"/>
      <path d="M5.76,33.93l1.43-.12a.41.41,0,0,0,.29-.15.45.45,0,0,0,.1-.31A.41.41,0,0,0,7.12,33l-1.43.11a.43.43,0,0,0,.07.85Zm0,0"/>
      <path d="M7.4,34.54l-1.31.62a.43.43,0,1,0,.37.77l1.31-.63a.42.42,0,0,0,.2-.56.43.43,0,0,0-.57-.2Zm0,0"/>
      <path d="M18,30.17l-1.33.54a.42.42,0,0,0,.32.78L18.28,31a.47.47,0,0,0,.23-.23.36.36,0,0,0,0-.32.43.43,0,0,0-.22-.24.47.47,0,0,0-.33,0Zm0,0"/>
      <path d="M18.54,32.21l-1.45,0a.42.42,0,0,0-.41.43.41.41,0,0,0,.43.41l1.45,0a.42.42,0,1,0,0-.84Zm0,0"/>
      <path d="M21.83,27.46l-1.41-1.07a12.82,12.82,0,0,0-.29-2.51A15.58,15.58,0,0,0,17.61,18l0,0a.86.86,0,0,0-1.14-.2,11.63,11.63,0,0,0-4.19,5A10,10,0,0,0,9.79,23a10.71,10.71,0,0,0-2.31.89,11.66,11.66,0,0,0-6-2.58A.87.87,0,0,0,.56,22v0a15.64,15.64,0,0,0,.38,6.36,13.26,13.26,0,0,0,.87,2.37L1,32.39a.48.48,0,0,0,0,.29,10.78,10.78,0,0,0,3.06,5.57,9.45,9.45,0,0,0,4.36,2.23,13.23,13.23,0,0,0,5.53,0A13.28,13.28,0,0,0,18.86,38a9.44,9.44,0,0,0,2.89-4A10.68,10.68,0,0,0,22,27.7a.38.38,0,0,0-.15-.24ZM16.1,19.11A12.54,12.54,0,0,0,14.36,23a12.16,12.16,0,0,0-1.21-.18,10.46,10.46,0,0,1,3-3.74ZM6.7,24.38a11.24,11.24,0,0,0-1,.7,13,13,0,0,0-3.31-2.72,10.46,10.46,0,0,1,4.31,2ZM21,33.74a8.59,8.59,0,0,1-2.63,3.59,12.85,12.85,0,0,1-4.6,2.37,12.51,12.51,0,0,1-5.14-.05,8.57,8.57,0,0,1-4-2,9.85,9.85,0,0,1-2.77-5c.16-.34.65-1.34,1.66-3.37a.42.42,0,0,0,0-.33.42.42,0,0,0-.22-.25.38.38,0,0,0-.33,0,.43.43,0,0,0-.24.22l-.47.95a14.6,14.6,0,0,1-1-7.08,12.25,12.25,0,0,1,3.75,2.88,6.86,6.86,0,0,0-.65.67.41.41,0,0,0,0,.59.43.43,0,0,0,.6,0A10,10,0,0,1,5.91,26h0a9.55,9.55,0,0,1,1.7-1.18,10.13,10.13,0,0,1,2.36-1h0a9.81,9.81,0,0,1,2.54-.21,10.89,10.89,0,0,1,2.05.29h0a7.7,7.7,0,0,1,1.15.37.42.42,0,0,0,.55-.24.42.42,0,0,0-.24-.55q-.42-.16-.87-.3A11.93,11.93,0,0,1,17.24,19a14.82,14.82,0,0,1,2.06,5,12.56,12.56,0,0,1,.24,1.71l-.84-.63a.43.43,0,0,0-.31-.08.41.41,0,0,0-.28.17.39.39,0,0,0-.08.31.4.4,0,0,0,.16.28c1.81,1.35,2.7,2,3,2.26a9.82,9.82,0,0,1-.22,5.7Zm0,0"/>
    </g>
    <g>
      <path class="cls-1" d="M49.35,21A24,24,0,0,0,48.16,6.77a.7.7,0,0,0-.89-.4,17.88,17.88,0,0,0-8.46,6.48,16.77,16.77,0,0,0-4.3-.65,16.77,16.77,0,0,0-4.3.65,17.88,17.88,0,0,0-8.46-6.48.7.7,0,0,0-.89.4A24,24,0,0,0,19.67,21l0,0c-1.52,1.83-2.08,2.52-2.08,2.52,0,16.63,16.89,16.63,16.89,16.63s16.89,0,16.89-16.62c0,0-.55-.69-2-2.49Zm0,0"/>
      <path class="cls-2" d="M27,14.13a19.91,19.91,0,0,0-4.25-5.81,26.67,26.67,0,0,0-1,10.25l.6-.72A15.07,15.07,0,0,1,27,14.13Zm0,0"/>
      <path class="cls-3" d="M21.75,6.37a.7.7,0,0,0-.89.4A19.83,19.83,0,0,1,27,14.13a18,18,0,0,1,3.26-1.28,17.94,17.94,0,0,0-8.47-6.48Zm0,0"/>
      <path class="cls-3" d="M47.27,6.37a.7.7,0,0,1,.89.4,19.75,19.75,0,0,0-6.09,7.36,18,18,0,0,0-3.26-1.28,17.88,17.88,0,0,1,8.46-6.48Zm0,0"/>
      <path class="cls-4" d="M32.8,18.66l.52-6.39a18.46,18.46,0,0,0-3.81.8L32,18.79a.41.41,0,0,0,.78-.13Zm0,0"/>
      <path class="cls-5" d="M34.51,38.06S19,38.06,17.7,23.38l-.08.1c0,16.63,16.89,16.63,16.89,16.63s16.89,0,16.89-16.62l-.08-.11C50.05,38.06,34.51,38.06,34.51,38.06Zm0,0"/>
      <path class="cls-4" d="M21.43,25.36c-1.09.37-2.51.91-3.58,1.33A17.38,17.38,0,0,0,18.69,30L21.85,26a.38.38,0,0,0-.42-.59Zm0,0"/>
      <path class="cls-4" d="M21.21,34.33l2.53-3.27a.38.38,0,0,0-.42-.59c-1.16.4-2.7,1-3.79,1.42a13.56,13.56,0,0,0,1.68,2.44Zm0,0"/>
      <path class="cls-4" d="M47.59,25.36c1.09.37,2.51.91,3.58,1.33A17.38,17.38,0,0,1,50.33,30L47.17,26a.38.38,0,0,1,.42-.59Zm0,0"/>
      <path class="cls-4" d="M47.81,34.33l-2.53-3.27a.38.38,0,0,1,.42-.59c1.16.4,2.7,1,3.79,1.42a13.56,13.56,0,0,1-1.68,2.44Zm0,0"/>
      <path class="cls-4" d="M28.11,18.19a.41.41,0,0,0,.68-.41l-1.18-4a15.71,15.71,0,0,0-2.45,1.41Zm0,0"/>
      <path class="cls-4" d="M40.92,18.19l2.94-3a15.71,15.71,0,0,0-2.45-1.41l-1.18,4a.42.42,0,0,0,.69.41Zm0,0"/>
      <path class="cls-4" d="M37,18.79l2.51-5.72a18.32,18.32,0,0,0-3.81-.8l.52,6.39a.41.41,0,0,0,.78.13Zm0,0"/>
      <path class="cls-2" d="M42.07,14.13a19.93,19.93,0,0,1,4.24-5.82,26.74,26.74,0,0,1,1,10.26l-.6-.72a15.15,15.15,0,0,0-4.66-3.72Zm0,0"/>
      <path class="cls-7" d="M30.63,33.55a4.26,4.26,0,0,0,7.65,0Zm0,0"/>
      <path class="cls-6" d="M30.63,33.55h7.65a6.56,6.56,0,0,0,.42-2.33H30.21a6.56,6.56,0,0,0,.42,2.33Zm0,0"/>
      <path class="cls-7" d="M28.3,22.9s1-1.47,2.15-.59c1.41,1.06.6,2.63-2.15,4.5-2.74-1.87-3.56-3.44-2.15-4.5,1.18-.88,2.15.59,2.15.59Zm0,0"/>
      <path class="cls-7" d="M40.72,22.9s-1-1.47-2.15-.59c-1.41,1.06-.6,2.63,2.15,4.5,2.74-1.87,3.56-3.44,2.15-4.5-1.18-.88-2.15.59-2.15.59Zm0,0"/>
      <path d="M38.7,30.54H35.2v-1c.22-.13.53-.31.83-.51,1-.66,1.45-1.25,1.45-1.84a1.42,1.42,0,0,0-1.15-1.41,6.54,6.54,0,0,0-1.82-.18,6.54,6.54,0,0,0-1.82.18,1.42,1.42,0,0,0-1.15,1.41c0,.59.46,1.18,1.45,1.84.3.21.61.38.83.51v1H30.21a.67.67,0,0,0-.68.68,7.07,7.07,0,0,0,.48,2.6,4.93,4.93,0,0,0,8.89,0,7.08,7.08,0,0,0,.49-2.6.68.68,0,0,0-.69-.68ZM38,31.91a7.58,7.58,0,0,1-.18.95H31.12a7.58,7.58,0,0,1-.18-.95Zm-3.51,3.34a3.45,3.45,0,0,1-2.56-1H37a3.49,3.49,0,0,1-2.57,1Zm0,0"/>
      <path d="M31.82,23.54a2.14,2.14,0,0,0-.95-1.78,1.94,1.94,0,0,0-1.5-.39,2.35,2.35,0,0,0-1.07.53,2.25,2.25,0,0,0-1.07-.53,1.92,1.92,0,0,0-1.49.39,2.09,2.09,0,0,0-.95,1.78c0,1.17,1,2.41,3.1,3.82l.05,0a.76.76,0,0,0,.36.11h0a.66.66,0,0,0,.42-.15c2.06-1.4,3.07-2.65,3.1-3.81Zm-1.37,0c0,.29-.24,1.09-2.15,2.46-1.9-1.37-2.13-2.17-2.14-2.46s0-.37.41-.65a.52.52,0,0,1,.35-.14H27a1.46,1.46,0,0,1,.72.55.7.7,0,0,0,.59.32.68.68,0,0,0,.58-.33,1.38,1.38,0,0,1,.72-.54.56.56,0,0,1,.43.14c.37.28.41.5.41.65Zm0,0"/>
      <path d="M43.28,21.76a1.92,1.92,0,0,0-1.49-.39,2.25,2.25,0,0,0-1.07.53,2.35,2.35,0,0,0-1.07-.53,2,2,0,0,0-1.5.39,2.14,2.14,0,0,0-.95,1.78c0,1.17,1,2.41,3.11,3.82l0,0a.79.79,0,0,0,.36.11h0a.63.63,0,0,0,.41-.15c2.06-1.4,3.08-2.65,3.1-3.81a2.11,2.11,0,0,0-.95-1.78Zm-.42,1.75c0,.29-.24,1.09-2.14,2.46-1.91-1.37-2.14-2.17-2.15-2.46s0-.37.41-.65a.52.52,0,0,1,.36-.14h.07a1.44,1.44,0,0,1,.72.54.69.69,0,0,0,.59.33.68.68,0,0,0,.58-.33,1.38,1.38,0,0,1,.72-.54.56.56,0,0,1,.43.14c.37.28.41.5.41.65Zm0,0"/>
      <path d="M22.79,28.5l2.31.35a.69.69,0,0,0,.21-1.37L23,27.13a.69.69,0,1,0-.21,1.37Zm0,0"/>
      <path d="M25.16,30.08l-2.31.5a.69.69,0,1,0,.29,1.35l2.31-.5a.69.69,0,0,0-.29-1.35Zm0,0"/>
      <path d="M46,27.13l-2.31.36a.69.69,0,0,0-.58.78.71.71,0,0,0,.79.58l2.31-.35A.69.69,0,0,0,46,27.13Zm0,0"/>
      <path d="M46.17,30.58l-2.31-.5a.69.69,0,0,0-.29,1.35l2.31.5a.69.69,0,1,0,.29-1.35Zm0,0"/>
      <path d="M51.93,23.05s-.52-.64-1.83-2.22a21.33,21.33,0,0,0,.49-4.08A25.47,25.47,0,0,0,48.8,6.51l0,0A1.38,1.38,0,0,0,47,5.72a18.79,18.79,0,0,0-8.53,6.34,17.28,17.28,0,0,0-4-.55,17.94,17.94,0,0,0-4,.55A18.79,18.79,0,0,0,22,5.72a1.38,1.38,0,0,0-1.73.74l0,.06a25.4,25.4,0,0,0-1.79,10.23,22.08,22.08,0,0,0,.49,4.08c-1.31,1.58-1.83,2.21-1.83,2.22a.67.67,0,0,0-.16.43,17.5,17.5,0,0,0,2.76,10,15.29,15.29,0,0,0,6.07,5.16,21.75,21.75,0,0,0,8.75,2.15,21.75,21.75,0,0,0,8.75-2.15,15.29,15.29,0,0,0,6.07-5.16,17.5,17.5,0,0,0,2.76-10,.67.67,0,0,0-.16-.43ZM46,7.66a21,21,0,0,0-4.23,5.55,17.33,17.33,0,0,0-1.85-.73A17,17,0,0,1,46,7.66ZM29.11,12.48a17.33,17.33,0,0,0-1.85.73A21,21,0,0,0,23,7.66a17,17,0,0,1,6.08,4.82Zm19.1,20.2a14,14,0,0,1-5.52,4.71,20.78,20.78,0,0,1-8.18,2,20.84,20.84,0,0,1-8.14-2,14,14,0,0,1-5.54-4.7,16,16,0,0,1-2.52-9c.39-.48,1.54-1.88,3.91-4.72a.68.68,0,0,0-.07-1,.69.69,0,0,0-.52-.15.7.7,0,0,0-.47.26l-1.1,1.33A24.14,24.14,0,0,1,21.18,7.87a20,20,0,0,1,4.87,6,14,14,0,0,0-1.29.8.7.7,0,0,0-.17,1,.69.69,0,0,0,1,.17,13.91,13.91,0,0,1,1.7-1h0a17.06,17.06,0,0,1,7.24-1.86h0a17.06,17.06,0,0,1,7.24,1.86h0a14.58,14.58,0,0,1,1.69,1,.69.69,0,0,0,1-.17.7.7,0,0,0-.17-1c-.42-.28-.84-.55-1.28-.8a19.73,19.73,0,0,1,4.86-6,24.08,24.08,0,0,1,1.38,8.78,23.69,23.69,0,0,1-.26,2.8l-1.1-1.32a.72.72,0,0,0-.47-.24.66.66,0,0,0-.5.16.68.68,0,0,0-.25.46.7.7,0,0,0,.16.5l3.91,4.72a16,16,0,0,1-2.5,9Zm0,0"/>
    </g>
  </g>
</svg>