<svg xmlns="http://www.w3.org/2000/svg" width="70" height="70" viewBox="0 0 70 70">
  <defs>
    <style>
      .cls-1 {
        fill: #eaba67;
      }

      .cls-2 {
        fill: #6f5434;
      }

      .cls-3 {
        fill: #e0f2f6;
      }

      .cls-4 {
        fill: #2e2e2e;
      }
    </style>
  </defs>
  <g id="Layer_202" data-name="Layer 202">
    <g>
      <path class="cls-1" d="M35,4.17c-14,0-24.5,12.66-21.7,27.12H56.7C59.5,16.83,49,4.17,35,4.17Zm0,0"/>
      <path class="cls-2" d="M19.5,22s-2.32,1.18-2.32,3.1c0,.86,1,1.55,2.32,1.55s2.33-.69,2.33-1.55c0-1.92-2.33-3.1-2.33-3.1Zm0,0"/>
      <path class="cls-2" d="M35,22s-2.32,1.18-2.32,3.1c0,.86,1,1.55,2.32,1.55s2.32-.69,2.32-1.55C37.32,23.17,35,22,35,22Zm0,0"/>
      <path class="cls-2" d="M35,5s-2.32,1.17-2.32,3.1c0,.85,1,1.55,2.32,1.55s2.32-.7,2.32-1.55C37.32,6.12,35,5,35,5Zm0,0"/>
      <path class="cls-2" d="M27.25,13.47s-2.32,1.17-2.32,3.1c0,.85,1,1.55,2.32,1.55s2.33-.7,2.33-1.55c0-1.93-2.33-3.1-2.33-3.1Zm0,0"/>
      <path class="cls-2" d="M50.5,22s-2.33,1.18-2.33,3.1c0,.86,1,1.55,2.33,1.55s2.32-.69,2.32-1.55c0-1.92-2.32-3.1-2.32-3.1Zm0,0"/>
      <path class="cls-2" d="M42.75,13.47s-2.33,1.17-2.33,3.1c0,.85,1,1.55,2.33,1.55s2.32-.7,2.32-1.55c0-1.93-2.32-3.1-2.32-3.1Zm0,0"/>
      <polygon class="cls-3" points="47.4 31.29 41.2 31.29 35 31.29 28.8 31.29 22.6 31.29 16.4 31.29 21.83 46.79 26.22 46.79 30.61 46.79 35 46.79 39.39 46.79 43.78 46.79 48.17 46.79 53.6 31.29 47.4 31.29"/>
      <path class="cls-4" d="M52.61,11.66a22.9,22.9,0,0,0-35.22,0,23.83,23.83,0,0,0-4.85,19.78.78.78,0,0,0,.76.63h2.55l5.25,15a.76.76,0,0,0,.73.51H48.17a.76.76,0,0,0,.73-.51l5.25-15H56.7a.78.78,0,0,0,.76-.63,23.83,23.83,0,0,0-4.85-19.78ZM35,5.85a3.06,3.06,0,0,1,1.55,2.2c0,.31-.6.77-1.55.77s-1.55-.46-1.55-.77A3.06,3.06,0,0,1,35,5.85ZM22.38,46,17.5,32.07H22L25.24,46Zm4.45,0L23.58,32.07h4.53L29.74,46Zm13.5-13.94L38.7,46H35.77V32.07ZM43.17,46H40.26l1.63-13.94h4.53Zm-8.94,0H31.3L29.67,32.07h4.56Zm13.39,0H44.76L48,32.07H52.5Zm8.43-15.49H14a22.22,22.22,0,0,1,4.63-17.87A21.18,21.18,0,0,1,33.55,5,4.1,4.1,0,0,0,31.9,8.05c0,1.3,1.36,2.32,3.1,2.32s3.1-1,3.1-2.32A4.1,4.1,0,0,0,36.45,5a21.18,21.18,0,0,1,15,7.65,22.22,22.22,0,0,1,4.63,17.87Zm0,0"/>
      <path class="cls-4" d="M19.85,21.3a.78.78,0,0,0-.7,0c-.11.06-2.75,1.42-2.75,3.79,0,1.31,1.36,2.33,3.1,2.33s3.1-1,3.1-2.33c0-2.37-2.63-3.73-2.75-3.79Zm-.35,4.57c-.94,0-1.55-.46-1.55-.78a3.08,3.08,0,0,1,1.55-2.2,3.08,3.08,0,0,1,1.55,2.2c0,.32-.6.78-1.55.78Zm0,0"/>
      <path class="cls-4" d="M35.35,21.3a.78.78,0,0,0-.7,0c-.12.06-2.75,1.42-2.75,3.79,0,1.31,1.36,2.33,3.1,2.33s3.1-1,3.1-2.33c0-2.37-2.63-3.73-2.75-3.79ZM35,25.87c-1,0-1.55-.46-1.55-.78A3.08,3.08,0,0,1,35,22.89a3.08,3.08,0,0,1,1.55,2.2c0,.32-.6.78-1.55.78Zm0,0"/>
      <path class="cls-4" d="M27.6,12.78a.78.78,0,0,0-.7,0c-.11.06-2.75,1.41-2.75,3.79,0,1.3,1.36,2.32,3.1,2.32s3.1-1,3.1-2.32c0-2.38-2.63-3.73-2.75-3.79Zm-.35,4.56c-.94,0-1.55-.45-1.55-.77a3.06,3.06,0,0,1,1.55-2.2,3.06,3.06,0,0,1,1.55,2.2c0,.32-.6.77-1.55.77Zm0,0"/>
      <path class="cls-4" d="M50.15,21.3c-.12.06-2.75,1.42-2.75,3.79,0,1.31,1.36,2.33,3.1,2.33s3.1-1,3.1-2.33c0-2.37-2.64-3.73-2.75-3.79a.78.78,0,0,0-.7,0Zm1.9,3.79c0,.32-.61.78-1.55.78S49,25.41,49,25.09a3.08,3.08,0,0,1,1.55-2.2,3.08,3.08,0,0,1,1.55,2.2Zm0,0"/>
      <path class="cls-4" d="M43.1,12.78a.78.78,0,0,0-.7,0c-.12.06-2.75,1.41-2.75,3.79,0,1.3,1.36,2.32,3.1,2.32s3.1-1,3.1-2.32c0-2.38-2.64-3.73-2.75-3.79Zm-.35,4.56c-1,0-1.55-.45-1.55-.77a3.06,3.06,0,0,1,1.55-2.2,3.06,3.06,0,0,1,1.55,2.2c0,.32-.61.77-1.55.77Zm0,0"/>
    </g>
  </g>
</svg>
