<svg xmlns="http://www.w3.org/2000/svg" width="70" height="70" viewBox="0 0 70 70">
  <defs>
    <style>
      .cls-1 {
        isolation: isolate;
      }

      .cls-2 {
        fill: #fddcce;
      }

      .cls-3 {
        fill: #231f20;
        opacity: 0.07;
        mix-blend-mode: multiply;
      }

      .cls-4 {
        fill: #333;
      }

      .cls-5 {
        fill: #fbcbbf;
      }

      .cls-11, .cls-5, .cls-6 {
        stroke: #333;
      }

      .cls-5, .cls-6 {
        stroke-linejoin: round;
      }

      .cls-11, .cls-6 {
        fill: none;
        stroke-linecap: round;
      }

      .cls-7 {
        fill: #b5da9e;
      }

      .cls-8 {
        fill: #97d0a2;
      }

      .cls-9 {
        fill: #375e7d;
      }

      .cls-10 {
        fill: #2b4e66;
      }

      .cls-11 {
        stroke-miterlimit: 10;
      }
    </style>
  </defs>
  <g class="cls-1">
    <g id="Layer_56" data-name="Layer 56">
      <g id="GIRL_copy" data-name="GIRL copy">
        <g>
          <g>
            <path class="cls-2" d="M45.33,50.08a1.6,1.6,0,0,0-.23-.21,15.54,15.54,0,0,0-6.74-3.29V40.87h-6.6v5.71a15,15,0,0,0-2,.58l-.6.23A15.71,15.71,0,0,0,21.55,54h27A15.63,15.63,0,0,0,45.33,50.08Z"/>
            <path class="cls-3" d="M33.79,40.87h-2v2.36h0v3.35a15,15,0,0,0-2,.58l-.44.16A15.79,15.79,0,0,0,21.55,54h8.3a21.93,21.93,0,0,1,1.08-3.5c.08-.17.15-.35.23-.51s.07-.15.1-.22.13-.27.2-.39a1.51,1.51,0,0,1,.11-.22,6.27,6.27,0,0,1,2.22-2.53V43.45h2.26a11.75,11.75,0,0,0,2.31-.23V40.87Z"/>
            <path class="cls-4" d="M48.57,54.49h-27a.56.56,0,0,1-.47-.28.55.55,0,0,1,0-.54,16.37,16.37,0,0,1,7.85-6.78c.18-.08.39-.16.62-.24a16.62,16.62,0,0,1,1.66-.5V40.86a.54.54,0,0,1,.54-.54h6.6a.54.54,0,0,1,.54.54v5.29a16.2,16.2,0,0,1,6.55,3.31l.25.22a16.2,16.2,0,0,1,3.33,4,.52.52,0,0,1,0,.54A.56.56,0,0,1,48.57,54.49Zm-26-1.08H47.59A15.69,15.69,0,0,0,45,50.49l0,0-.19-.17a15.15,15.15,0,0,0-6.51-3.18.54.54,0,0,1-.43-.53V41.41H32.3v5.17a.54.54,0,0,1-.43.53,14.79,14.79,0,0,0-1.94.56c-.22.07-.41.15-.58.22A15.21,15.21,0,0,0,22.54,53.41Z"/>
          </g>
          <path class="cls-5" d="M24.62,29.2a4.23,4.23,0,1,1-1.24-3,4.22,4.22,0,0,1,1.24,3Zm0,0"/>
          <path class="cls-5" d="M54,29.2A4.23,4.23,0,1,1,49.72,25,4.22,4.22,0,0,1,54,29.2Zm0,0"/>
          <g>
            <path class="cls-2" d="M35.13,8.21H35A12.48,12.48,0,0,0,22.51,20.69v8.84A11.57,11.57,0,0,0,34.08,41.1h2A11.57,11.57,0,0,0,47.61,29.53V20.69A12.48,12.48,0,0,0,35.13,8.21Zm0,0"/>
            <path class="cls-3" d="M38.67,40.8a11.89,11.89,0,0,1-2.62.3h-2A11.57,11.57,0,0,1,22.51,29.53V20.69A12.48,12.48,0,0,1,35,8.21h.14a12.52,12.52,0,0,1,3.54.51,12.49,12.49,0,0,0-8.93,12v8.84A11.56,11.56,0,0,0,38.67,40.8Zm0,0"/>
            <path class="cls-4" d="M36.05,41.64h-2A12.12,12.12,0,0,1,22,29.53V20.69a13,13,0,0,1,13-13h.14a13,13,0,0,1,13,13v8.84A12.12,12.12,0,0,1,36.05,41.64ZM35,8.75A12,12,0,0,0,23.05,20.69v8.84a11,11,0,0,0,11,11h2a11,11,0,0,0,11-11V20.69A12,12,0,0,0,35.13,8.75Z"/>
          </g>
          <path class="cls-6" d="M50.85,28.35A2.33,2.33,0,0,0,49.38,28a2.48,2.48,0,0,0-1.77,1.27"/>
          <path class="cls-6" d="M19.27,28.35A2.39,2.39,0,0,1,20.75,28a2.48,2.48,0,0,1,1.76,1.27"/>
          <path class="cls-4" d="M31.47,23.32a.8.8,0,0,0,0-1.13,3.24,3.24,0,0,0-4.57,0A.8.8,0,1,0,28,23.32a1.62,1.62,0,0,1,2.3,0,.82.82,0,0,0,1.14,0Zm0,0"/>
          <path class="cls-4" d="M43.34,23.32a.8.8,0,0,0,0-1.13,3.22,3.22,0,0,0-4.56,0,.79.79,0,0,0,0,1.13.8.8,0,0,0,1.13,0,1.62,1.62,0,0,1,2.3,0,.81.81,0,0,0,1.13,0Zm0,0"/>
          <path class="cls-4" d="M36.75,31.34a1.76,1.76,0,0,1-3.38,0,.8.8,0,0,0-1.53.46,3.37,3.37,0,0,0,6.45,0,.8.8,0,0,0-1.54-.46Zm0,0"/>
          <g>
            <path class="cls-4" d="M29.1,25.06a1.18,1.18,0,0,0-.81.36l-.53-.37a.79.79,0,0,0-1.11.18.8.8,0,0,0,.18,1.12l.87.62h0c0,1.06.63,1.92,1.4,1.92S30.5,28,30.5,27s-.63-1.92-1.4-1.92Zm0,0"/>
            <path class="cls-4" d="M42.36,25.05l-.53.37a1.18,1.18,0,0,0-.81-.36c-.77,0-1.4.86-1.4,1.92s.63,1.92,1.4,1.92,1.4-.86,1.4-1.92h0l.87-.62a.81.81,0,0,0,.19-1.12.8.8,0,0,0-1.12-.18Zm0,0"/>
          </g>
        </g>
        <g id="clothes_copy" data-name="clothes copy">
          <g>
            <g>
              <path class="cls-7" d="M48.57,54h-27a15.73,15.73,0,0,1,10.21-7.37V40.94h6.6v5.71A15.71,15.71,0,0,1,48.57,54Zm0,0"/>
              <path class="cls-8" d="M33.59,40.94v5.71C31.64,47.58,30,50.31,29,54H21.55a15.73,15.73,0,0,1,10.21-7.37V40.94Zm0,0"/>
              <path class="cls-4" d="M48.57,54.56h-27a.54.54,0,0,1-.46-.82,16.28,16.28,0,0,1,10.13-7.52V40.94a.54.54,0,0,1,.54-.54h6.6a.54.54,0,0,1,.54.54v5.28A16.3,16.3,0,0,1,49,53.74a.54.54,0,0,1,0,.55A.55.55,0,0,1,48.57,54.56Zm-26-1.08H47.59a15.22,15.22,0,0,0-9.34-6.3.54.54,0,0,1-.43-.53V41.48H32.3v5.17a.53.53,0,0,1-.42.53A15.19,15.19,0,0,0,22.54,53.48Z"/>
            </g>
            <g>
              <path class="cls-7" d="M38.45,44.49h-6.9a1.36,1.36,0,0,1-1.36-1.36V42.3a1.36,1.36,0,0,1,1.36-1.36h6.9a1.36,1.36,0,0,1,1.36,1.36v.83a1.36,1.36,0,0,1-1.36,1.36Zm0,0"/>
              <path class="cls-8" d="M35.59,44.49h-4a1.36,1.36,0,0,1-1.36-1.36V42.3a1.36,1.36,0,0,1,1.36-1.36h4a1.36,1.36,0,0,0-1.36,1.36v.83a1.36,1.36,0,0,0,1.36,1.36Zm0,0"/>
              <path class="cls-4" d="M38.45,45h-6.9a1.9,1.9,0,0,1-1.9-1.9V42.3a1.9,1.9,0,0,1,1.9-1.9h6.9a1.9,1.9,0,0,1,1.9,1.9v.83A1.9,1.9,0,0,1,38.45,45Zm-6.9-3.55a.82.82,0,0,0-.82.82v.83a.82.82,0,0,0,.82.82h6.9a.82.82,0,0,0,.82-.82V42.3a.82.82,0,0,0-.82-.82Z"/>
            </g>
          </g>
        </g>
        <g id="hair_copy" data-name="hair copy">
          <g>
            <g>
              <path class="cls-9" d="M26.9,7.57a7,7,0,1,1-7-7,7,7,0,0,1,7,7Zm0,0"/>
              <path class="cls-10" d="M22.64,14A7,7,0,1,1,19.89.56a7,7,0,0,1,2.75.56,7,7,0,0,0,0,12.89Zm0,0"/>
              <path class="cls-4" d="M19.89,15.11a7.55,7.55,0,1,1,7.55-7.54A7.55,7.55,0,0,1,19.89,15.11Zm0-14a6.47,6.47,0,1,0,6.47,6.47A6.47,6.47,0,0,0,19.89,1.1Z"/>
            </g>
            <g>
              <path class="cls-9" d="M57.11,7.57a7,7,0,1,1-7-7,7,7,0,0,1,7,7Zm0,0"/>
              <path class="cls-10" d="M52.85,14A7,7,0,1,1,50.11.56a7,7,0,0,1,2.74.56,7,7,0,0,0,0,12.89Zm0,0"/>
              <path class="cls-4" d="M50.11,15.11a7.55,7.55,0,1,1,7.54-7.54A7.56,7.56,0,0,1,50.11,15.11Zm0-14a6.47,6.47,0,1,0,6.46,6.47A6.47,6.47,0,0,0,50.11,1.1Z"/>
            </g>
            <g>
              <path class="cls-9" d="M35,5.35A15.25,15.25,0,0,0,19.75,20.6v4a3.81,3.81,0,0,1,.59-.05,4.2,4.2,0,0,1,2.11.57V25l1.21-2.66A5.85,5.85,0,0,1,29,18.89a5.87,5.87,0,0,0,5.6-4.15L35,13.4l.41,1.34A5.86,5.86,0,0,0,41,18.89a5.84,5.84,0,0,1,5.33,3.43L47.55,25v.17a4.19,4.19,0,0,1,2.11-.57,3.81,3.81,0,0,1,.59.05v-4A15.25,15.25,0,0,0,35,5.35Z"/>
              <path class="cls-10" d="M22.45,25.15V25l1.21-2.66A5.85,5.85,0,0,1,29,18.89a6,6,0,0,0,1.13-.12,15.27,15.27,0,0,1,10-12.53A15,15,0,0,0,35,5.35,15.25,15.25,0,0,0,19.75,20.6v4a3.81,3.81,0,0,1,.59-.05A4.2,4.2,0,0,1,22.45,25.15Z"/>
              <path class="cls-4" d="M23,26.09l-.81-.47a3.63,3.63,0,0,0-1.84-.5,3.37,3.37,0,0,0-.52,0l-.61.09V20.6a15.79,15.79,0,0,1,31.58,0v4.65l-.61-.09a3.37,3.37,0,0,0-.52,0,3.63,3.63,0,0,0-1.84.5l-.81.47v-1l-1.16-2.55A5.32,5.32,0,0,0,41,19.43a6.43,6.43,0,0,1-6-4.21,6.36,6.36,0,0,1-6,4.21,5.28,5.28,0,0,0-4.84,3.12L23,25.1ZM20.34,24a4.71,4.71,0,0,1,1.78.35l1-2.29A6.39,6.39,0,0,1,29,18.34a5.28,5.28,0,0,0,5.08-3.76l.93-3,.93,3A5.3,5.3,0,0,0,41,18.34a6.42,6.42,0,0,1,5.83,3.76l1,2.29A4.59,4.59,0,0,1,49.71,24V20.6a14.71,14.71,0,0,0-29.42,0V24Z"/>
            </g>
          </g>
        </g>
        <g id="acces_copy" data-name="acces copy">
          <g>
            <path class="cls-11" d="M21.55,33.76a1.94,1.94,0,0,1-1.77,2.08,2.11,2.11,0,0,1,0-4.16"/>
            <path class="cls-11" d="M48.57,33.76a1.8,1.8,0,1,0,1.78-2.08"/>
          </g>
        </g>
      </g>
    </g>
  </g>
</svg>