<svg xmlns="http://www.w3.org/2000/svg" width="70" height="70" viewBox="0 0 70 70">
  <defs>
    <style>
      .cls-1 {
        fill: #a9ba5a;
      }

      .cls-2 {
        fill: #333;
      }

      .cls-3 {
        fill: #fff;
      }
    </style>
  </defs>
  <g id="Layer_221" data-name="Layer 221">
    <g>
      <path class="cls-1" d="M35,3.45S28.83,8.5,28.83,14.91c0,6.18,6.17,11.47,6.17,11.47s6.17-5.29,6.17-11.47C41.17,8.5,35,3.45,35,3.45Zm0,0"/>
      <path class="cls-2" d="M35,27.19a.76.76,0,0,1-.53-.2c-.26-.22-6.46-5.6-6.46-12.08C28,8.19,34.22,3,34.48,2.82a.84.84,0,0,1,1,0C35.78,3,42,8.19,42,14.91c0,6.48-6.2,11.86-6.46,12.08a.76.76,0,0,1-.53.2ZM35,4.55C33.57,5.89,29.64,10,29.64,14.91c0,4.69,3.91,8.94,5.36,10.35,1.45-1.41,5.36-5.66,5.36-10.35,0-4.88-3.93-9-5.36-10.36Zm0,0"/>
      <path class="cls-1" d="M51.31,10.21s.87,7.92-3.63,12.5c-4.32,4.41-12.43,3.86-12.43,3.86s-.7-8.09,3.62-12.5c4.5-4.58,12.44-3.86,12.44-3.86Zm0,0"/>
      <path class="cls-2" d="M36.17,27.41c-.56,0-.91,0-1,0a.82.82,0,0,1-.76-.75c0-.34-.68-8.52,3.85-13.14C43,8.7,51,9.37,51.38,9.4a.82.82,0,0,1,.74.72c0,.34.86,8.36-3.85,13.16-3.67,3.74-9.74,4.13-12.1,4.13ZM36,25.78h0c2.06,0,7.77-.32,11-3.64C50.52,18.66,50.62,13,50.54,11c-2,0-7.66.16-11.08,3.65C36.18,18,36,23.75,36,25.78Zm0,0"/>
      <path class="cls-1" d="M18.7,10.21s-.88,7.92,3.62,12.5c4.32,4.41,12.43,3.86,12.43,3.86s.7-8.09-3.62-12.5c-4.5-4.58-12.43-3.86-12.43-3.86Zm0,0"/>
      <path class="cls-2" d="M33.83,27.41c-2.36,0-8.43-.39-12.1-4.13-4.71-4.8-3.88-12.82-3.85-13.16a.83.83,0,0,1,.74-.72c.34,0,8.38-.7,13.09,4.1,4.53,4.62,3.88,12.8,3.85,13.14a.82.82,0,0,1-.76.75c-.06,0-.41,0-1,0ZM19.46,11c-.08,2,0,7.67,3.44,11.15S32,25.79,34,25.78c0-2-.15-7.8-3.42-11.14C27.12,11.15,21.43,11,19.46,11Zm0,0"/>
      <path class="cls-3" d="M47.22,43.28H22.78a8.56,8.56,0,1,1,0-17.11H47.22a8.56,8.56,0,1,1,0,17.11Zm0,0"/>
      <path class="cls-2" d="M47.22,44.1H22.78a9.37,9.37,0,0,1,0-18.74H47.22a9.37,9.37,0,1,1,0,18.74ZM22.78,27a7.74,7.74,0,0,0,0,15.48H47.22a7.74,7.74,0,1,0,0-15.48Zm0,0"/>
      <path class="cls-2" d="M52.37,35.79a.82.82,0,0,1-.82-.81,3.88,3.88,0,0,0-2.87-3.75.82.82,0,0,1,.41-1.58A5.51,5.51,0,0,1,53.18,35a.81.81,0,0,1-.81.81Zm0,0"/>
    </g>
  </g>
</svg>
