<svg xmlns="http://www.w3.org/2000/svg" width="70" height="70" viewBox="0 0 70 70">
  <defs>
    <style>
      .cls-1 {
        fill: #a9ba5a;
      }

      .cls-2 {
        fill: #333;
      }

      .cls-3 {
        fill: #fff;
      }
    </style>
  </defs>
  <g id="Layer_214" data-name="Layer 214">
    <g>
      <g>
        <path class="cls-1" d="M37.52,10.81A16.12,16.12,0,0,1,35,19a16.12,16.12,0,0,1-2.52-8.2A16.11,16.11,0,0,1,35,2.62a16.11,16.11,0,0,1,2.52,8.19Zm0,0"/>
        <path class="cls-2" d="M35,19.81a.8.8,0,0,1-.66-.35,16.81,16.81,0,0,1-2.66-8.65,16.81,16.81,0,0,1,2.66-8.65.84.84,0,0,1,1.32,0,16.81,16.81,0,0,1,2.66,8.65,16.81,16.81,0,0,1-2.66,8.65.8.8,0,0,1-.66.35ZM35,4.23a14.94,14.94,0,0,0-1.72,6.58A15,15,0,0,0,35,17.4a15,15,0,0,0,1.72-6.59A14.94,14.94,0,0,0,35,4.23Zm0,0"/>
      </g>
      <path class="cls-1" d="M26.58,17.41A16.15,16.15,0,0,0,35,19,16,16,0,0,0,28.93,13a16,16,0,0,0-8.42-1.6,16.18,16.18,0,0,0,6.07,6.06Zm0,0"/>
      <path class="cls-2" d="M33.73,19.87a16.49,16.49,0,0,1-7.53-1.75,16.84,16.84,0,0,1-6.4-6.4.83.83,0,0,1,0-.75.81.81,0,0,1,.62-.42,16.78,16.78,0,0,1,8.89,1.69,16.78,16.78,0,0,1,6.4,6.39.83.83,0,0,1,0,.75.77.77,0,0,1-.62.42,10.76,10.76,0,0,1-1.36.07ZM21.93,12.1a15,15,0,0,0,5,4.6,15,15,0,0,0,6.63,1.56,14.83,14.83,0,0,0-5-4.6,14.72,14.72,0,0,0-6.63-1.56Zm0,0"/>
      <g>
        <path class="cls-1" d="M43.42,17.41A16.15,16.15,0,0,1,35,19,16,16,0,0,1,41.07,13a16,16,0,0,1,8.42-1.6,16.18,16.18,0,0,1-6.07,6.06Zm0,0"/>
        <path class="cls-2" d="M36.27,19.87a10.76,10.76,0,0,1-1.36-.07.77.77,0,0,1-.62-.42.83.83,0,0,1,0-.75,16.78,16.78,0,0,1,6.4-6.39,16.78,16.78,0,0,1,8.89-1.69.81.81,0,0,1,.62.42.83.83,0,0,1,0,.75,16.84,16.84,0,0,1-6.4,6.4,16.49,16.49,0,0,1-7.53,1.75Zm11.8-7.77a14.93,14.93,0,0,0-6.63,1.56,14.93,14.93,0,0,0-5,4.6,15,15,0,0,0,6.63-1.56,15,15,0,0,0,5-4.6Zm0,0"/>
      </g>
      <path class="cls-2" d="M35,42.5a.8.8,0,0,1-.8-.8V19a.8.8,0,1,1,1.6,0V41.7a.8.8,0,0,1-.8.8Zm0,0"/>
      <path class="cls-1" d="M31.5,26.56a9.9,9.9,0,0,1-1.54,5,9.9,9.9,0,0,1-1.54-5,9.84,9.84,0,0,1,1.54-5,9.84,9.84,0,0,1,1.54,5Zm0,0"/>
      <path class="cls-2" d="M30,32.38A.79.79,0,0,1,29.3,32a10.57,10.57,0,0,1-1.69-5.47,10.61,10.61,0,0,1,1.69-5.47.81.81,0,0,1,.66-.34.82.82,0,0,1,.66.34,10.65,10.65,0,0,1,1.68,5.47A10.6,10.6,0,0,1,30.62,32a.8.8,0,0,1-.66.35Zm0-9.12a8.47,8.47,0,0,0-.74,3.3,8.29,8.29,0,0,0,.74,3.3,8.47,8.47,0,0,0,.74-3.3,8.47,8.47,0,0,0-.74-3.3Zm0,0"/>
      <path class="cls-1" d="M24.8,30.6a9.93,9.93,0,0,0,5.16,1,9.88,9.88,0,0,0-3.71-3.71,9.81,9.81,0,0,0-5.16-1A10,10,0,0,0,24.8,30.6Zm0,0"/>
      <path class="cls-2" d="M29.19,32.41a10.49,10.49,0,0,1-4.76-1.1h0a10.67,10.67,0,0,1-4.05-4A.8.8,0,0,1,21,26.09a10.62,10.62,0,0,1,5.62,1.07,10.68,10.68,0,0,1,4.05,4,.8.8,0,0,1-.62,1.17,6.63,6.63,0,0,1-.86,0Zm-6.58-4.72a8.57,8.57,0,0,0,2.57,2.2h0a8.57,8.57,0,0,0,3.27.89,8.48,8.48,0,0,0-2.58-2.2,8.48,8.48,0,0,0-3.26-.89Zm0,0"/>
      <path class="cls-1" d="M35.11,30.6a9.9,9.9,0,0,1-5.15,1,9.79,9.79,0,0,1,3.71-3.71,9.78,9.78,0,0,1,5.15-1,9.87,9.87,0,0,1-3.71,3.71Zm0,0"/>
      <path class="cls-2" d="M30.73,32.41a6.33,6.33,0,0,1-.86,0,.8.8,0,0,1-.62-1.17,10.61,10.61,0,0,1,4-4,10.62,10.62,0,0,1,5.62-1.07.8.8,0,0,1,.62.42.77.77,0,0,1,0,.75,10.6,10.6,0,0,1-4,4,10.55,10.55,0,0,1-4.76,1.1Zm6.58-4.72a8.52,8.52,0,0,0-3.27.89,8.31,8.31,0,0,0-2.57,2.2,8.48,8.48,0,0,0,3.26-.89h0a8.57,8.57,0,0,0,2.57-2.2Zm0,0"/>
      <path class="cls-2" d="M30.18,45.73a.8.8,0,0,1-.8-.8V31.27a.8.8,0,1,1,1.6,0V44.93a.8.8,0,0,1-.8.8Zm0,0"/>
      <path class="cls-3" d="M38.06,52.16H26.5L24.83,38.5H39.72Zm0,0"/>
      <path class="cls-2" d="M38.06,53H26.5a.8.8,0,0,1-.8-.7L24,38.6a.8.8,0,0,1,.19-.63.82.82,0,0,1,.6-.27H39.72a.84.84,0,0,1,.61.27.8.8,0,0,1,.19.63L38.86,52.26a.8.8,0,0,1-.8.7Zm-10.85-1.6H37.35l1.47-12H25.74Zm0,0"/>
    </g>
  </g>
</svg>
