<svg xmlns="http://www.w3.org/2000/svg" width="70" height="70" viewBox="0 0 70 70">
  <defs>
    <style>
      .cls-1 {
        fill: #68a0d6;
      }

      .cls-2, .cls-6 {
        fill: #3279af;
      }

      .cls-10, .cls-3 {
        fill: #ebe9de;
      }

      .cls-3, .cls-5, .cls-6, .cls-7, .cls-8 {
        stroke: #262626;
      }

      .cls-3, .cls-5, .cls-7 {
        stroke-linejoin: round;
      }

      .cls-4 {
        fill: #262626;
      }

      .cls-11, .cls-5 {
        fill: #c4c1ab;
      }

      .cls-6, .cls-8 {
        stroke-miterlimit: 10;
      }

      .cls-7 {
        fill: #fffef3;
      }

      .cls-8 {
        fill: none;
      }

      .cls-9 {
        fill: #9ed0f0;
      }
    </style>
  </defs>
  <g id="Layer_209" data-name="Layer 209">
    <g>
      <g>
        <polygon class="cls-1" points="55.04 16.28 43.92 16.28 43.92 32.85 10.2 32.85 10.2 38.33 43.92 38.33 59.8 38.33 59.8 27.3 55.04 16.28"/>
        <path class="cls-2" d="M27.16,36.27l-2.4-2.05H19l-2.4,2.05v2.06H27.16Zm0,0"/>
        <path class="cls-2" d="M55.52,36.27l-2.4-2.05H47.37L45,36.27v2.06H55.52Zm0,0"/>
      </g>
      <g>
        <rect class="cls-3" x="10.2" y="3.42" width="33.73" height="29.44"/>
        <path class="cls-4" d="M59.8,38.72H10.2a.39.39,0,0,1-.39-.39V32.85a.39.39,0,0,1,.39-.39H43.53V16.28a.4.4,0,0,1,.39-.39H55a.4.4,0,0,1,.36.24l4.76,11a.41.41,0,0,1,0,.16v11A.39.39,0,0,1,59.8,38.72Zm-49.21-.78H59.41V27.39L54.78,16.67H44.31V32.85a.38.38,0,0,1-.39.39H10.59Z"/>
        <path class="cls-5" d="M46.4,18.91h7.09l3,7v1.71H52.14l-1.49-2.57H46.4Zm0,0"/>
        <rect class="cls-5" x="57.51" y="31.14" width="2.29" height="3.58"/>
        <g>
          <path class="cls-1" d="M26.16,39.57a4.29,4.29,0,1,1-4.29-4.28,4.29,4.29,0,0,1,4.29,4.28Zm0,0"/>
          <path class="cls-2" d="M24,37.79a4.29,4.29,0,0,1-3.86,3.86h0a.85.85,0,0,0-.38,1.58,4.28,4.28,0,0,0,6.49-3.41,4.14,4.14,0,0,0-.61-2.47.86.86,0,0,0-1.59.38.13.13,0,0,1,0,.06Zm0,0"/>
          <path class="cls-4" d="M21.87,44.24a4.67,4.67,0,1,1,4.68-4.67A4.68,4.68,0,0,1,21.87,44.24Zm0-8.56a3.89,3.89,0,1,0,3.9,3.89A3.89,3.89,0,0,0,21.87,35.68Z"/>
        </g>
        <g>
          <path class="cls-1" d="M54.52,39.57a4.28,4.28,0,1,1-4.28-4.28,4.28,4.28,0,0,1,4.28,4.28Zm0,0"/>
          <path class="cls-2" d="M52.32,37.79a4.31,4.31,0,0,1-3.86,3.86h-.05A.85.85,0,0,0,48,43.23a4.28,4.28,0,0,0,6.49-3.41,4.14,4.14,0,0,0-.61-2.47.85.85,0,0,0-1.58.38.13.13,0,0,1,0,.06Zm0,0"/>
          <path class="cls-4" d="M50.24,44.24a4.67,4.67,0,1,1,4.67-4.67A4.68,4.68,0,0,1,50.24,44.24Zm0-8.56a3.89,3.89,0,1,0,3.89,3.89A3.89,3.89,0,0,0,50.24,35.68Z"/>
        </g>
        <path class="cls-6" d="M51.86,39.57A1.62,1.62,0,1,1,50.24,38a1.63,1.63,0,0,1,1.62,1.62Zm0,0"/>
        <path class="cls-6" d="M23.49,39.57A1.62,1.62,0,1,1,21.87,38a1.62,1.62,0,0,1,1.62,1.62Zm0,0"/>
        <rect class="cls-7" x="14.79" y="8.3" width="26.1" height="21.44"/>
        <line class="cls-8" x1="43.92" y1="32.86" x2="43.92" y2="38.33"/>
      </g>
    </g>
    <g>
      <path class="cls-9" d="M23,14.17,30,10.53l6.94,3.64v7.26L30,25.07,23,21.43Zm0,0"/>
      <path class="cls-2" d="M36.89,14.17v7.26L30,25.07V17.8Zm0,0"/>
      <path class="cls-1" d="M30,17.8v7.27L23,21.43V14.17Zm0,0"/>
      <path class="cls-10" d="M25.49,12.87l7.1,3.54v2.83l2-1V15.4l-7.09-3.58Zm0,0"/>
      <path class="cls-11" d="M32.59,19.24l2-1V15.4h0l-2,1Zm0,0"/>
      <g>
        <rect class="cls-4" x="27.42" y="20.6" width="0.41" height="2.99" transform="translate(-4.4 37.11) rotate(-63.76)"/>
        <rect class="cls-4" x="28.1" y="20.2" width="0.41" height="1.5" transform="translate(-3.08 36.9) rotate(-63.45)"/>
        <path class="cls-4" d="M37,14,30,10.35a.21.21,0,0,0-.19,0l-3.73,2h-5.5v.41h4.71L22.92,14a.21.21,0,0,0-.11.19v.33H16v.41h6.86v2h-4.5v.41h4.5v4.14a.21.21,0,0,0,.11.18l1.14.6H20.49v.41h4.36L27,23.78l.19-.37-4-2.1v-6.8l6.52,3.41v6.8L28,23.81l-.19.37,2,1.07a.18.18,0,0,0,.1,0,.13.13,0,0,0,.09,0L37,21.62a.21.21,0,0,0,.11-.19V14.17A.21.21,0,0,0,37,14Zm-7-3.22,6.49,3.41-1.89,1-6.14-3.1-.19.37,5.88,3-1.51.79L26,12.86Zm0,6.81-6.49-3.41,2-1.06,6.64,3.32Zm2.85-1,1.57-.82v2.43l-1.57.76Zm-2.64,8.18V17.93l2.23-1.17v2.48a.2.2,0,0,0,.1.18.19.19,0,0,0,.1,0l.1,0,2-1a.2.2,0,0,0,.12-.18V15.5l1.89-1v6.8Z"/>
      </g>
    </g>
  </g>
</svg>