<svg xmlns="http://www.w3.org/2000/svg" width="70" height="70" viewBox="0 0 70 70">
  <defs>
    <style>
      .cls-1 {
        fill: #68a0d6;
      }

      .cls-2, .cls-6 {
        fill: #3279af;
      }

      .cls-10, .cls-3 {
        fill: #ebe9de;
      }

      .cls-3, .cls-5, .cls-6, .cls-7, .cls-8 {
        stroke: #262626;
        stroke-width: 1.5px;
      }

      .cls-3, .cls-5, .cls-7 {
        stroke-linejoin: round;
      }

      .cls-4 {
        fill: #262626;
      }

      .cls-11, .cls-5 {
        fill: #c4c1ab;
      }

      .cls-6, .cls-8 {
        stroke-miterlimit: 10;
      }

      .cls-7 {
        fill: #fffef3;
      }

      .cls-8 {
        fill: none;
      }

      .cls-9 {
        fill: #9ed0f0;
      }
    </style>
  </defs>
  <g id="Layer_209" data-name="Layer 209">
    <g>
      <g>
        <polygon class="cls-1" points="58.32 20.05 45.38 20.05 45.38 39.33 6.13 39.33 6.13 45.7 45.38 45.7 63.87 45.7 63.87 32.87 58.32 20.05"/>
        <path class="cls-2" d="M25.87,43.31l-2.79-2.39h-6.7l-2.79,2.39V45.7H25.87Zm0,0"/>
        <path class="cls-2" d="M58.88,43.31l-2.79-2.39h-6.7L46.6,43.31V45.7H58.88Zm0,0"/>
      </g>
      <g>
        <rect class="cls-3" x="6.13" y="5.08" width="39.25" height="34.26"/>
        <path class="cls-4" d="M63.87,46.16H6.13a.46.46,0,0,1-.45-.46V39.33a.46.46,0,0,1,.45-.46h38.8V20.05a.45.45,0,0,1,.45-.46H58.32a.48.48,0,0,1,.42.27l5.54,12.83a.39.39,0,0,1,0,.18V45.7A.46.46,0,0,1,63.87,46.16ZM6.59,45.25H63.41V33L58,20.5H45.84V39.33a.46.46,0,0,1-.46.45H6.59Z"/>
        <path class="cls-5" d="M48.27,23.11h8.25l3.54,8.19v2H55l-1.74-3H48.27Zm0,0"/>
        <rect class="cls-5" x="61.2" y="37.34" width="2.67" height="4.17"/>
        <g>
          <path class="cls-1" d="M24.71,47.15a5,5,0,1,1-5-5,5,5,0,0,1,5,5Zm0,0"/>
          <path class="cls-2" d="M22.14,45.08a5,5,0,0,1-4.49,4.49h0a1,1,0,0,0-.44,1.84,5.16,5.16,0,0,0,2.87.71,5,5,0,0,0,4.68-4.68A4.83,4.83,0,0,0,24,44.57a1,1,0,0,0-1.84.44.11.11,0,0,1,0,.07Zm0,0"/>
          <path class="cls-4" d="M19.73,52.59a5.44,5.44,0,1,1,5.44-5.44A5.45,5.45,0,0,1,19.73,52.59Zm0-10a4.53,4.53,0,1,0,4.53,4.53A4.53,4.53,0,0,0,19.73,42.62Z"/>
        </g>
        <g>
          <path class="cls-1" d="M57.72,47.15a5,5,0,1,1-5-5,5,5,0,0,1,5,5Zm0,0"/>
          <path class="cls-2" d="M55.15,45.08a5,5,0,0,1-4.49,4.49h0a1,1,0,0,0-.44,1.84,5.13,5.13,0,0,0,2.87.71,5,5,0,0,0,4.68-4.68A4.9,4.9,0,0,0,57,44.57a1,1,0,0,0-1.84.44.11.11,0,0,1,0,.07Zm0,0"/>
          <path class="cls-4" d="M52.73,52.59a5.44,5.44,0,1,1,5.44-5.44A5.45,5.45,0,0,1,52.73,52.59Zm0-10a4.53,4.53,0,1,0,4.53,4.53A4.54,4.54,0,0,0,52.73,42.62Z"/>
        </g>
        <path class="cls-6" d="M54.62,47.15a1.89,1.89,0,1,1-1.89-1.89,1.89,1.89,0,0,1,1.89,1.89Zm0,0"/>
        <path class="cls-6" d="M21.61,47.15a1.89,1.89,0,1,1-1.88-1.89,1.88,1.88,0,0,1,1.88,1.89Zm0,0"/>
        <rect class="cls-7" x="11.48" y="10.76" width="30.38" height="24.95"/>
        <line class="cls-8" x1="45.38" y1="39.34" x2="45.38" y2="45.7"/>
      </g>
    </g>
    <g>
      <path class="cls-9" d="M21.05,17.58l8.07-4.23,8.08,4.23V26l-8.08,4.23L21.05,26Zm0,0"/>
      <path class="cls-2" d="M37.2,17.58V26l-8.08,4.23V21.81Zm0,0"/>
      <path class="cls-1" d="M29.12,21.81v8.46L21.05,26V17.58Zm0,0"/>
      <path class="cls-10" d="M23.94,16.07,32.2,20.2v3.29l2.3-1.13V19l-8.26-4.16Zm0,0"/>
      <path class="cls-11" d="M32.2,23.49l2.3-1.13V19h0L32.2,20.2Zm0,0"/>
      <g>
        <rect class="cls-4" x="26.18" y="25.07" width="0.48" height="3.48" transform="translate(-9.31 38.66) rotate(-63.76)"/>
        <rect class="cls-4" x="26.97" y="24.6" width="0.48" height="1.74" transform="translate(-7.74 38.43) rotate(-63.45)"/>
        <path class="cls-4" d="M37.31,17.37l-8.08-4.23a.22.22,0,0,0-.22,0l-4.35,2.28h-6.4v.48h5.49l-2.81,1.47a.23.23,0,0,0-.13.21V18h-8v.48h8v2.3H15.57v.49h5.24v4.81a.26.26,0,0,0,.13.21l1.33.69H18.12v.48h5.07l2.55,1.34.22-.43L21.29,25.9V18l7.59,4v7.91l-2-1.06-.22.43L29,30.48a.23.23,0,0,0,.11,0,.2.2,0,0,0,.11,0l8.08-4.23a.23.23,0,0,0,.13-.21V17.58A.27.27,0,0,0,37.31,17.37Zm-8.19-3.75,7.56,4-2.21,1.16-7.14-3.6-.22.42L34,19l-1.75.92-7.74-3.87Zm0,7.92-7.55-4,2.37-1.24,7.74,3.87Zm3.32-1.19,1.83-1v2.83l-1.83.89Zm-3.08,9.52V22L32,20.6v2.89a.25.25,0,0,0,.11.21.31.31,0,0,0,.13,0l.11,0,2.31-1.12a.25.25,0,0,0,.13-.22V19.14L37,18V25.9Z"/>
      </g>
    </g>
  </g>
</svg>
