<svg xmlns="http://www.w3.org/2000/svg" width="150" height="150" viewBox="0 0 150 150"><defs><style>.cls-1{fill:#d9ab80;}.cls-2{fill:#d29b6e;}.cls-3{fill:#333;}.cls-4{fill:#adc46e;}.cls-5{fill:#b8d179;}.cls-6{fill:#8fad69;}.cls-20,.cls-7{fill:#fff;}.cls-22,.cls-7,.cls-8{stroke:#333;stroke-linejoin:round;stroke-width:1.2px;}.cls-8{fill:#eef3e0;}.cls-9{fill:#f15835;}.cls-10{fill:#f58159;}.cls-11{fill:#fcd3c8;}.cls-12{fill:#cee181;}.cls-13{fill:#fbc5b4;}.cls-14{fill:#ed9283;}.cls-15{fill:#f9a44f;}.cls-16{fill:#333947;}.cls-17{fill:#f6978e;}.cls-18{fill:#94bce4;}.cls-19{fill:#f2696a;}.cls-21{fill:#afd35d;}.cls-22{fill:#f2829b;fill-rule:evenodd;}.cls-23{fill:#f16470;}</style></defs><g id="Layer_190" data-name="Layer 190"><path class="cls-1" d="M112,28.18H106l-1.52,96.47h9.11Zm0,0"/><path class="cls-2" d="M112.18,35.49,112,28.18H106l-1.52,96.47H109l-.1-86.09a3,3,0,0,1,2.78-3Zm0,0"/><path class="cls-3" d="M113.55,125.4h-9.11a.75.75,0,0,1-.53-.22.77.77,0,0,1-.22-.54l1.52-96.48a.74.74,0,0,1,.75-.73H112a.74.74,0,0,1,.75.73l1.51,96.48a.72.72,0,0,1-.21.54A.77.77,0,0,1,113.55,125.4Zm-8.35-1.5h7.59l-1.49-95h-4.6Z"/><path class="cls-4" d="M129.82,9.63c-12.17-3.73-18.27,2.63-20.82,9.9-2.55-7.27-8.66-13.63-20.83-9.9a1.08,1.08,0,0,0-.34,1.88L109,27.38l21.16-15.87a1.07,1.07,0,0,0-.34-1.88Zm0,0"/><path class="cls-5" d="M87.49,10.33a1,1,0,0,0,.34,1.18l21.11,15.82v-.65C106.54,15,93.34,11.36,87.49,10.33Zm0,0"/><path class="cls-5" d="M130.5,10.33a1,1,0,0,1-.34,1.18l-21.1,15.82v-.65c2.4-11.73,15.6-15.32,21.44-16.35Zm0,0"/><path class="cls-3" d="M109,28.13a.74.74,0,0,1-.45-.15L87.38,12.11A1.83,1.83,0,0,1,88,8.91c9.74-3,17.31.14,21,8.58,3.74-8.44,11.31-11.56,21-8.58h0a1.82,1.82,0,0,1,1.27,1.43,1.79,1.79,0,0,1-.7,1.76L109.45,28A.76.76,0,0,1,109,28.13ZM94.84,9.28a22.06,22.06,0,0,0-6.45,1.06.33.33,0,0,0-.22.26.28.28,0,0,0,.12.31L109,26.44l20.71-15.53a.33.33,0,0,0-.11-.57c-13-4-18.06,4.2-19.89,9.44a.76.76,0,0,1-.71.5h0a.76.76,0,0,1-.71-.5C106.79,15.51,103.18,9.28,94.84,9.28Z"/><path class="cls-4" d="M126.82,28.52H91.17C80.44,32.58,78.6,44.06,78.31,48.84a1.05,1.05,0,0,0,1.66.92l29-20.19,29,20.19a1.06,1.06,0,0,0,1.67-.92c-.29-4.78-2.13-16.26-12.87-20.32Zm0,0"/><path class="cls-5" d="M113.83,28.52h-9.66c-6.86,1.06-19.23,5.25-25.08,21.39a1,1,0,0,0,.88-.15l29-20.19,29,20.19a1,1,0,0,0,.89.15c-5.86-16.14-18.23-20.33-25.08-21.39Zm0,0"/><path class="cls-3" d="M138.63,50.71a1.83,1.83,0,0,1-1-.33L109,30.49,80.4,50.38a1.81,1.81,0,0,1-2.84-1.59c.3-4.9,2.2-16.76,13.35-21a.75.75,0,0,1,.26,0h35.65a.84.84,0,0,1,.27,0c11.14,4.22,13,16.08,13.35,21a1.83,1.83,0,0,1-1.81,1.92ZM91.31,29.27c-10.21,3.94-12,15-12.26,19.61a.29.29,0,0,0,.16.28.31.31,0,0,0,.34,0l28.57-19.88Zm18.56,0,28.58,19.88a.32.32,0,0,0,.34,0,.29.29,0,0,0,.15-.28c-.28-4.59-2-15.67-12.26-19.61Z"/><path class="cls-5" d="M108.94,26.68c-15.72-17.46-29.24-4.85-33.49.09a1.06,1.06,0,0,0,.81,1.75h65.36a1.07,1.07,0,0,0,.79-1.79c-15.67-17.47-29.15-5.05-33.47-.05Zm0,0"/><path class="cls-6" d="M142.73,27.79a1.05,1.05,0,0,1-1,.73H109s15.2-12.73,33.73-.73Zm0,0"/><path class="cls-6" d="M75.26,27.79a1.06,1.06,0,0,0,1,.73H109s-15.2-12.73-33.74-.73Zm0,0"/><path class="cls-3" d="M141.62,29.27H76.26a1.81,1.81,0,0,1-1.38-3c3-3.43,9.11-9.21,17.21-9.3,5.79,0,11.45,2.82,16.84,8.58,3.13-3.44,9-8.53,16.62-8.6,6-.06,11.85,3.07,17.42,9.27a1.83,1.83,0,0,1-1.35,3ZM92.29,18.48h-.18C84.6,18.57,78.81,24,76,27.26a.28.28,0,0,0,0,.32.29.29,0,0,0,.28.19h65.36a.3.3,0,0,0,.28-.19.32.32,0,0,0-.05-.35c-5.26-5.86-10.75-8.86-16.29-8.77-7.48.07-13.27,5.49-16.06,8.71a.71.71,0,0,1-.56.26.67.67,0,0,1-.56-.25C103.18,21.41,97.77,18.48,92.29,18.48Z"/><rect class="cls-7" x="21.25" y="58.94" width="51.37" height="61.85" transform="translate(-30.77 24.75) rotate(-22.46)"/><rect class="cls-8" x="24.5" y="64.27" width="41.62" height="43.32" transform="translate(-29.39 23.83) rotate(-22.46)"/><rect class="cls-9" x="35.72" y="85.38" width="2.42" height="4.89" transform="translate(-36.87 27.57) rotate(-27.96)"/><path class="cls-10" d="M36.21,81.57a2.28,2.28,0,0,0,0-2.71,2.5,2.5,0,0,0-3-1A5.17,5.17,0,0,0,28.64,79a4.42,4.42,0,0,0-1.23,4A7,7,0,0,0,28.14,85l4.74,8.92,4-2.11-3.23-6.09Zm0,0"/><path class="cls-9" d="M33.64,85.78l-2.49.35,1.44,2.72s.88,1.54-1.06,2.55l1.35,2.53,4-2.11Zm0,0"/><path class="cls-11" d="M37.05,89.12a.16.16,0,0,1,.06-.08,3.62,3.62,0,0,1,4.23-.16A9.5,9.5,0,0,1,43,90.35a3.84,3.84,0,0,1,1.45,2.56c0,.68.12,2,.22,3.1a.68.68,0,0,0,.74.62l.65,0a.85.85,0,0,1,.8.46.88.88,0,0,1-.08.92,3.55,3.55,0,0,1-1.27,1l-2.23-1a14.76,14.76,0,0,1-.63-3.79,2.72,2.72,0,0,0-.9-1.88,4.72,4.72,0,0,0-.8-.59s-3.46-1.82-3.6-1.88-.34-.65-.34-.65Zm0,0"/><path class="cls-12" d="M42.22,97.1a4,4,0,0,1,1.81.24,2.93,2.93,0,0,1,1.71,1.72l.22.6a10.59,10.59,0,0,0,1,2,23.26,23.26,0,0,0,2.56,3.42l-8.9,4.73L36.72,100Zm0,0"/><path class="cls-11" d="M41,93.35a18.36,18.36,0,0,0,2.58,4.87,2.14,2.14,0,0,1-1.11,2.34,3,3,0,0,1-1.3.37,5.74,5.74,0,0,1-3.54-.83l-2.26-4.25Zm0,0"/><path class="cls-11" d="M34.47,90.17s-3.36,1.41-1.76,4.36l3,5.48a13.75,13.75,0,0,1,.81,1.74,21,21,0,0,0,1.08,2.42A7.2,7.2,0,0,0,40.38,107h0a.68.68,0,0,0,1-.8,3.62,3.62,0,0,0-.68-1.17,7.57,7.57,0,0,1-.72-1,29.08,29.08,0,0,1-1.85-3.6c-.93-2.23-2.23-5.32-2.23-5.32Zm0,0"/><path class="cls-11" d="M32.7,86.21l1.65,3.1a1.28,1.28,0,0,1,.12.86,3,3,0,0,0,0,1.16l.36,1.75a3.14,3.14,0,0,0-.1,1.33,2,2,0,0,0,2.59,1.69,4,4,0,0,0,2-1.62A3,3,0,0,0,41.66,93a1.86,1.86,0,0,0,.05-1.41,2.91,2.91,0,0,0-2.26-1.9l-1.82-.55a1.73,1.73,0,0,1-1-.85l-1.71-3.21Zm0,0"/><path class="cls-13" d="M52.68,77.74,53.34,79a.78.78,0,0,1-.06.83l-.64.88a3.12,3.12,0,0,0-.59,2l.25,4.45-2.45-.88a2.54,2.54,0,0,0-2,.1,4.9,4.9,0,0,0-1,.65.94.94,0,0,0-.23,1.16v0a1,1,0,0,0,.58.48,1,1,0,0,0,.75-.07h0a1.94,1.94,0,0,1,1.8,0l3.52,1.79a1,1,0,0,0,.92,0,1,1,0,0,0,.51-.75l.36-2.91,1.49,2.81L62,86.67l-2.88-5.42,2.66,1.06S61.5,84,61.39,85.1a1.72,1.72,0,0,0,.51,1.33,1.41,1.41,0,0,0,1.84.21l.73-.39a1.06,1.06,0,0,0,.44-1.44.82.82,0,0,0-1.09-.34l.29-2a1.8,1.8,0,0,0-.68-1.68A22.72,22.72,0,0,0,59,78a3.3,3.3,0,0,0-2-.21l-.5.1a1.07,1.07,0,0,1-1.17-.55l-1-2Zm0,0"/><path class="cls-14" d="M52.55,73.18l1.24-.66A1.28,1.28,0,0,1,55,74.77l-1.24.66Zm0,0"/><path class="cls-14" d="M52.68,77.74l.39.74,2.41-.85a1.44,1.44,0,0,1-.18-.25l-1-2Zm0,0"/><path class="cls-15" d="M47,73.25A2,2,0,0,1,44.67,72a3.29,3.29,0,0,1-.4-1.3.72.72,0,0,1,.37-.68.73.73,0,0,1,.78.07,3.6,3.6,0,0,0,.77.49,4.17,4.17,0,0,1,0-1.27.76.76,0,0,1,.46-.58.74.74,0,0,1,.73.13l0,0a1.44,1.44,0,0,0,1.62.18l1.57-.83a1.82,1.82,0,0,1,2.53.87v0a1.85,1.85,0,0,1,1.45,1.76c.15,1.55-1.57,2.48-1.57,2.48Zm0,0"/><path class="cls-13" d="M47,73.25l2,3.78a2.85,2.85,0,0,0,3.88,1.19,2.8,2.8,0,0,0,1.4-1.69,2.83,2.83,0,0,0-.21-2.19L53,72.27a2,2,0,0,0-2.63-.8Zm0,0"/><path class="cls-16" d="M48.32,75.66l2.11-1.12a2.25,2.25,0,0,1,.34,1A1.24,1.24,0,0,1,49,76.74a1,1,0,0,1-.22-.13Zm0,0"/><path class="cls-16" d="M53.39,73l-2.18,1.16a2,2,0,0,0,.65.85,1.3,1.3,0,0,0,2-.8,1.1,1.1,0,0,0,0-.26Zm0,0"/><path class="cls-17" d="M36.26,87.66l-1.38-2.6L32.7,86.21l1.56,2.93Zm0,0"/><path class="cls-17" d="M40.62,90.18l.08,1.32.29.15a4.72,4.72,0,0,1,.8.59,2.74,2.74,0,0,1,.47.55,2.42,2.42,0,0,0-1.64-2.61Zm0,0"/><path class="cls-18" d="M56.57,89.53,62,86.67l3.17,4.8a.66.66,0,0,1,.09.51.68.68,0,0,1-.33.41l-5.14,2.73a.63.63,0,0,1-.88-.31Zm0,0"/><path class="cls-13" d="M59.75,95.12l3.8,7.43L69,99.67l-4.09-7.28Zm0,0"/><path class="cls-19" d="M44.6,81.14c0,.1,0,.17,0,.17l-.15-.07a1.54,1.54,0,0,0-1.69,2.48l0,0a1.31,1.31,0,0,0,.41.3,8.16,8.16,0,0,0,3.28.8,8.19,8.19,0,0,0,1.18-3.16,1.45,1.45,0,0,0,0-.51v-.05a1.54,1.54,0,0,0-3,0Zm0,0"/><path class="cls-11" d="M33,80.58a7.57,7.57,0,0,1-1.15,3.74l-.17.1a1.27,1.27,0,1,0,1.18,2.24l.18-.1a2.84,2.84,0,0,0,1.89.93,2.59,2.59,0,0,0,2.45-1.44,2.36,2.36,0,0,0,.27-1,2.63,2.63,0,0,0-.32-1.32l-1.12-2.12a11.67,11.67,0,0,1-3.21-1Zm0,0"/><path class="cls-20" d="M34.84,93.08a3.14,3.14,0,0,0-.1,1.33,2,2,0,0,0,2.59,1.69,4,4,0,0,0,2-1.62c-2.3.81-4.48-1.4-4.48-1.4Zm0,0"/><path class="cls-20" d="M41.66,93a1.86,1.86,0,0,0,.05-1.41,2.59,2.59,0,0,0-1.8-1.74l-.31-.08a4.64,4.64,0,0,1-.28,4.73A3,3,0,0,0,41.66,93Zm0,0"/><polygon class="cls-14" points="62.07 93.89 62.84 93.48 66.74 100.85 65.97 101.26 62.07 93.89"/><path class="cls-14" d="M65.32,93.1l-.43-.71-5.14,2.73.37.74Zm0,0"/><path class="cls-20" d="M34.53,90.09l1,3.55a1.14,1.14,0,0,1-.65-.56,13.13,13.13,0,0,0-.55-2.72.35.35,0,0,1,.05-.3.11.11,0,0,1,.19,0Zm0,0"/><path class="cls-20" d="M37.41,88.74a9.45,9.45,0,0,0,2.5,1.09l0,.49A8.33,8.33,0,0,1,37.25,89a.14.14,0,0,1,0-.23.13.13,0,0,1,.16,0Zm0,0"/><path class="cls-20" d="M38.37,94.81l1.52-1-.23.64-.64.45Zm0,0"/><path class="cls-21" d="M42.71,108.69l6.81-3.62A23.26,23.26,0,0,1,47,101.65c-.18-.28-.34-.57-.5-.86a10,10,0,0,1-3.75,7.9Zm0,0"/><path class="cls-20" d="M44.22,82.43a.49.49,0,0,1-.2.65.48.48,0,1,1,.2-.65Zm0,0"/><path class="cls-3" d="M44.94,93.22A4.33,4.33,0,0,0,43.35,90a11.82,11.82,0,0,0-2-1.63,3.48,3.48,0,0,0-2.45-.54.44.44,0,0,0,0,.87,2.65,2.65,0,0,1,1.92.4,10.12,10.12,0,0,1,1.84,1.54,3.5,3.5,0,0,1,1.33,2.57v0c0,.06.08,1.49.16,2.3A1.4,1.4,0,0,0,46.09,97h0a.46.46,0,0,1,.34.69,2.13,2.13,0,0,1-.64.55,3.28,3.28,0,0,0-1.63-1.33,3.76,3.76,0,0,0-.73-.2,19.43,19.43,0,0,1-.33-2.64,3.12,3.12,0,0,0-.87-2,2.58,2.58,0,0,0-.14-.67,3.34,3.34,0,0,0-2.56-2.17l-1.8-.55a1.28,1.28,0,0,1-.78-.64l-.32-.58A3,3,0,0,0,38.09,85a3.21,3.21,0,0,0-.37-1.54l-1-1.87a2.82,2.82,0,0,0-.09-3l0,0a2.87,2.87,0,0,0-3.45-1.25,5.49,5.49,0,0,0-4.83,1.28A4.85,4.85,0,0,0,27,83a7.6,7.6,0,0,0,.77,2.22l3.17,6a.44.44,0,1,0,.78-.41l-3.17-6a6.94,6.94,0,0,1-.69-2,4,4,0,0,1,1.1-3.56,4.73,4.73,0,0,1,4.15-1,.48.48,0,0,0,.29,0A2.12,2.12,0,0,1,36,81.09a11.18,11.18,0,0,1-2.81-.89.43.43,0,0,0-.64.38,7.23,7.23,0,0,1-1,3.41l-.08,0a1.7,1.7,0,0,0,1.25,3.15L34,89.51a1,1,0,0,1,.1.38A4.24,4.24,0,0,0,32,92.05a3.2,3.2,0,0,0,.33,2.69l3,5.48a12.93,12.93,0,0,1,.78,1.69,21.75,21.75,0,0,0,1.11,2.46,7.79,7.79,0,0,0,1.54,2L40.21,110a.44.44,0,0,0,.57.24l0,0a.44.44,0,0,0,.2-.55l-.9-2.24,0,0,0,0a1.12,1.12,0,0,0,1.08,0,.57.57,0,0,0,.18-.12,1.1,1.1,0,0,0,.37-1.21,4.25,4.25,0,0,0-.76-1.32,7.33,7.33,0,0,1-.68-1A29.84,29.84,0,0,1,39,101.17a7.61,7.61,0,0,0,2.23.2l.42-.05a3.51,3.51,0,0,1-1,.47.44.44,0,0,0,.21.85,3.79,3.79,0,0,0,.86-.35,4.41,4.41,0,0,0,2.27-2.87h0a2.6,2.6,0,0,0,.06-1.3.56.56,0,0,0-.09-.17,2.43,2.43,0,0,1-.2-.25l.17.06a2.49,2.49,0,0,1,1.45,1.46l.22.61c.08.22.18.43.27.65a6,6,0,0,1,.16,3.78.44.44,0,0,0,.81.34,4.63,4.63,0,0,0,.32-1.91,19.75,19.75,0,0,0,2.1,2.71.44.44,0,0,0,.61-.63,22.25,22.25,0,0,1-2.49-3.35,10,10,0,0,1-1-1.9l-.17-.46a3.05,3.05,0,0,0,.95-.8,1.33,1.33,0,0,0-1-2.1H46c-.51.06-.68,0-.74-.06a1.1,1.1,0,0,1-.18-.61c-.07-.77-.15-2.14-.16-2.26Zm-13.4-7.29a.82.82,0,0,1,.34-1.12l.18-.1a.4.4,0,0,0,.15-.14,7.8,7.8,0,0,0,1.18-3.32,13.57,13.57,0,0,0,2.53.72l1,1.92a2.14,2.14,0,0,1,.27,1.1,2.19,2.19,0,0,1-.22.87,2.16,2.16,0,0,1-2,1.19,2.39,2.39,0,0,1-1.58-.77.43.43,0,0,0-.54-.1l-.18.09a.83.83,0,0,1-1.12-.34Zm3.37,5.31a2.49,2.49,0,0,1,0-1,1.73,1.73,0,0,0-.17-1.16L34,87.74a3.08,3.08,0,0,0,1.85.09l.34.64a2.22,2.22,0,0,0,1.3,1.07l1.8.55a4.32,4.32,0,0,1,.1,3.33.89.89,0,0,1-.51-.23l0,0a2.22,2.22,0,0,1-.52-.79.43.43,0,1,0-.8.34,2.89,2.89,0,0,0,.7,1.06.29.29,0,0,1-.14.4l0,0a5.16,5.16,0,0,1-2.83-1.35Zm3.28,3.85a2.78,2.78,0,0,1-1,.59,1.55,1.55,0,0,1-1.29-.19,1.63,1.63,0,0,1-.74-1.14,2.1,2.1,0,0,1,0-.43,5.43,5.43,0,0,0,3,1.17Zm4.93,4,0,.07v0a1.74,1.74,0,0,1-.84.93,2.53,2.53,0,0,1-1.11.31,5.82,5.82,0,0,1-2.66-.41l-1-2.34a.43.43,0,0,0-.8.34l1.06,2.53a31.51,31.51,0,0,0,1.87,3.66,8.15,8.15,0,0,0,.77,1.08,3.39,3.39,0,0,1,.6,1,.24.24,0,0,1-.09.27.26.26,0,0,1-.28,0l0,0A6.7,6.7,0,0,1,38,104,20.75,20.75,0,0,1,37,101.6a15.59,15.59,0,0,0-.84-1.81l-3-5.47a2.38,2.38,0,0,1-.27-2A3,3,0,0,1,34,91a3.78,3.78,0,0,0,.06.47l.34,1.64a3.72,3.72,0,0,0-.09,1.41,2.5,2.5,0,0,0,1.14,1.76,2.38,2.38,0,0,0,2,.28,2.75,2.75,0,0,0,.56-.23,4.86,4.86,0,0,0,1.55-1.39,3.9,3.9,0,0,0,1.36-.49,17,17,0,0,0,2.24,4,1.75,1.75,0,0,1,0,.72Zm-2.93-5.35a5.09,5.09,0,0,0,.19-3.27,2.38,2.38,0,0,1,.92,1.2,1.44,1.44,0,0,1,0,1.08,2,2,0,0,1-1.07,1Zm2.19,1.71c-.33-.66-.58-1.26-.75-1.68a2.87,2.87,0,0,0,.39-.57,2.31,2.31,0,0,1,.24.89c0,.5.07,1,.12,1.36Zm0,0"/><path class="cls-3" d="M59.16,77.64a3.72,3.72,0,0,0-2.28-.24l-.5.1a.64.64,0,0,1-.7-.32l-.78-1.49c0-.12,0-.24,0-.36l.31-.17a1.71,1.71,0,0,0,.71-2.31l-.06-.11a1.69,1.69,0,0,0-2.22-.56l-.12.06-.09-.17a2.39,2.39,0,0,0-3.22-1l-3.32,1.76c-.2.06-1.14.23-1.81-1a2.83,2.83,0,0,1-.36-1.13.27.27,0,0,1,.14-.26.29.29,0,0,1,.31,0A4.46,4.46,0,0,0,46,71a.43.43,0,0,0,.6-.5,3.45,3.45,0,0,1,0-1.11.28.28,0,0,1,.18-.23.29.29,0,0,1,.28,0l0,0a1.88,1.88,0,0,0,2.11.24l1.57-.84a1.36,1.36,0,0,1,1.1-.08,1.41,1.41,0,0,1,.82.75v0a.43.43,0,0,0,.33.25A1.41,1.41,0,0,1,54.09,71a.44.44,0,0,0,.88-.08,2.34,2.34,0,0,0-1.59-2.1,2.26,2.26,0,0,0-3-.91l-1.57.83a1,1,0,0,1-1.13-.12l0,0a1.16,1.16,0,0,0-1.17-.21,1.18,1.18,0,0,0-.74.94,3.87,3.87,0,0,0,0,.48,1.14,1.14,0,0,0-1.25-.1h0a1.12,1.12,0,0,0-.6,1.09,3.71,3.71,0,0,0,.46,1.48,2.45,2.45,0,0,0,2.87,1.44h0l0,0h0l3.36-1.79a1.51,1.51,0,0,1,2,.63l.16.3-4.3,2.29-.36-.67a.44.44,0,1,0-.77.41l1.29,2.43a3.32,3.32,0,0,0,4.08,1.55l.22.41a.35.35,0,0,1,0,.37l-.64.88a3.52,3.52,0,0,0-.67,2.28l.21,3.8L50,85.87a3,3,0,0,0-2.31.11,5.79,5.79,0,0,0-1.13.71,1.39,1.39,0,0,0-.34,1.71v0a1.43,1.43,0,0,0,1.92.59l0,0a1.54,1.54,0,0,1,1.4,0l3.3,1.67a1.61,1.61,0,0,0,1.48,0h0a1.62,1.62,0,0,0,.84-1.23l.15-1.26.84,1.56L58.46,95a1.08,1.08,0,0,0,1.06.65l3.64,7.11a.44.44,0,0,0,.59.2h0a.43.43,0,0,0,.18-.58l-3.6-7,1.93-1,3.7,7a.44.44,0,1,0,.77-.41l-5.5-10.4.24-.12a.44.44,0,0,0-.41-.78l-1.35.72a.44.44,0,0,0,.41.77l.33-.17,1.4,2.63-2.31,1.23a.19.19,0,0,1-.28-.1l-2.14-4.9,4.68-2.48,3,4.46a.2.2,0,0,1-.07.29l-1.18.63a.44.44,0,0,0,.42.77l.8-.43,3.87,6.92a.44.44,0,0,0,.58.16h0a.43.43,0,0,0,.15-.6l-3.89-7a1.07,1.07,0,0,0,0-1.24l-2.58-3.91A2.26,2.26,0,0,0,64,87l.73-.39a1.51,1.51,0,0,0,.62-2,1.25,1.25,0,0,0-1-.65l.21-1.44a2.27,2.27,0,0,0-.85-2.09,23.56,23.56,0,0,0-4.54-2.78Zm-4.65-3.51L53.92,73,54,73a.8.8,0,0,1,1.06.25.21.21,0,0,1,0,.06.83.83,0,0,1-.35,1.12l-.12.07-.15-.32ZM52.44,74l.77-.41.25.46s0,0,0,.07a.84.84,0,0,1-.53.62.85.85,0,0,1-.8-.09,1.57,1.57,0,0,1-.31-.32Zm-3.22,2.37-.06,0-.25-.47,1.33-.7a1.57,1.57,0,0,1,.09.43.79.79,0,0,1-.35.7.77.77,0,0,1-.76.07Zm.52.93a1.46,1.46,0,0,0,.57-.18,1,1,0,0,0,.17-.1,1.68,1.68,0,0,0,.73-1.47,2.83,2.83,0,0,0-.19-.8h0a2.37,2.37,0,0,0,.57.61,1.66,1.66,0,0,0,1.64.2l.19-.08a2,2,0,0,0,.5-.4,2.43,2.43,0,0,1-4.19,2.23Zm13.94,5.11-.29,2a.44.44,0,0,0,.64.45.38.38,0,0,1,.5.15.63.63,0,0,1-.27.85l-.73.39a1,1,0,0,1-1.31-.13,1.37,1.37,0,0,1-.16-.18l-.17-.33a1.06,1.06,0,0,1-.07-.46c.11-1.08.35-2.76.35-2.78a.44.44,0,0,0-.27-.47l-2.66-1.06a.44.44,0,0,0-.55.61L61.08,86a2.34,2.34,0,0,0,.24.44l0,.09-4.61,2.45-1.28-2.41-.89-2a.44.44,0,0,0-.8.36l.85,1.9-.31,2.53a.73.73,0,0,1-.38.55h0a.71.71,0,0,1-.68,0L50,88.21a2.38,2.38,0,0,0-2.2,0h0A.54.54,0,0,1,47,88v0a.51.51,0,0,1,.12-.63,4.87,4.87,0,0,1,1-.59,2.17,2.17,0,0,1,1.64-.08l2.44.88a.44.44,0,0,0,.59-.43l-.25-4.45A2.71,2.71,0,0,1,53,81l.64-.88a1.24,1.24,0,0,0,.09-1.3l-.22-.41A3.32,3.32,0,0,0,54.61,77l.3.57a1.54,1.54,0,0,0,1.65.77l.5-.1a2.88,2.88,0,0,1,1.74.18,22.28,22.28,0,0,1,4.36,2.68,1.34,1.34,0,0,1,.52,1.26Zm-2.61,1.68-1-2,1.24.49c0,.34-.13.9-.19,1.47Zm0,0"/><path class="cls-3" d="M46.11,79.52a2,2,0,0,0-1.84,1.23A2,2,0,0,0,42.4,84l0,0a1.69,1.69,0,0,0,.54.39,8.64,8.64,0,0,0,3.46.85.43.43,0,0,0,.38-.2,8.72,8.72,0,0,0,1.24-3.34,1.89,1.89,0,0,0,0-.67v0a2,2,0,0,0-1.92-1.51Zm1.06,1.71v0a.87.87,0,0,1,0,.36,7.59,7.59,0,0,1-1,2.77,7.61,7.61,0,0,1-2.84-.74.86.86,0,0,1-.29-.21l0,0a1.06,1.06,0,0,1-.1-1.34,1.18,1.18,0,0,1,.42-.38,1.07,1.07,0,0,1,.89,0l.12,0a.41.41,0,0,0,.39,0h0a.41.41,0,0,0,.23-.32s0-.05,0-.12a1.08,1.08,0,0,1,1.08-.85,1,1,0,0,1,1.06.83Zm0,0"/><path class="cls-3" d="M56.61,82.63,56,81.4a.44.44,0,1,0-.77.41L55.84,83a.28.28,0,0,1-.11.36l-.46.24a.44.44,0,1,0,.41.77l.46-.24a1.15,1.15,0,0,0,.47-1.54Zm0,0"/><path class="cls-3" d="M58,82.19l-.65.35a.44.44,0,1,0,.41.77L58.4,83a.44.44,0,1,0-.41-.78Zm0,0"/><path class="cls-3" d="M57.94,84.51l-.18-.33a.44.44,0,1,0-.77.41l.17.33a.3.3,0,0,1-.09.4,2.61,2.61,0,0,1-.28.17.44.44,0,0,0,.41.78c.13-.07.25-.15.37-.23a1.19,1.19,0,0,0,.37-1.53Zm0,0"/><path class="cls-3" d="M59,84.38a.31.31,0,0,1-.21,0h0l-.21.85a1.23,1.23,0,0,0,.82-.13.44.44,0,1,0-.41-.77Zm0,0"/><path class="cls-3" d="M58.31,85.88a.44.44,0,0,0-.18.59l.18.34a.44.44,0,0,0,.77-.42l-.18-.33a.43.43,0,0,0-.59-.18Zm0,0"/><path class="cls-3" d="M34.23,84.49a.42.42,0,0,0,.18-.59.43.43,0,0,0,0-.07.13.13,0,0,0-.07-.06.18.18,0,0,0-.07,0,.11.11,0,0,0-.08,0,.42.42,0,0,0-.54.29.19.19,0,0,0,0,.08v.09a.31.31,0,0,0,0,.08s0,0,0,.08a.44.44,0,0,0,.59.18Zm0,0"/><path class="cls-3" d="M35.13,83.71l.07.05.08,0a.44.44,0,0,0,.26-.84l-.09,0h-.08l-.09,0a.55.55,0,0,0-.15.08l-.06.06,0,.07a.84.84,0,0,0-.05.17v.08s0,.06,0,.09a.55.55,0,0,0,.08.15l.06.06Zm0,0"/><path class="cls-3" d="M40.85,98a.45.45,0,0,0-.18.6l.09.17a.44.44,0,1,0,.78-.41l-.1-.17a.44.44,0,0,0-.59-.19Zm0,0"/><rect class="cls-7" x="68.8" y="69.66" width="69.07" height="45.16" transform="translate(35.41 -28.48) rotate(18.88)"/><path class="cls-7" d="M102,95.71c-8-12.72-16-23.29-24-36l65.35,22.35C129.51,87.32,115.77,90.44,102,95.71Z"/><path class="cls-22" d="M99.16,86.68a3.88,3.88,0,0,0-1.77,5.19L100,97.13a1.89,1.89,0,0,0,2.53.87l5.28-2.59a3.88,3.88,0,0,0-3.43-7,3.87,3.87,0,0,0-5.19-1.77Zm0,0"/><path class="cls-23" d="M7.1,99,5.25,96.3a1,1,0,0,1,1.18-1.56L9.5,95.79a1,1,0,0,0,1.15-.35l2-2.59a1,1,0,0,1,1.85.64l-.05,3.25a1,1,0,0,0,.69,1l3.06,1.07a1,1,0,0,1,0,2l-3.11,1a1,1,0,0,0-.72,1l-.07,3.24a1,1,0,0,1-1.87.57l-1.87-2.65a1,1,0,0,0-1.14-.4l-3.11.94a1,1,0,0,1-1.12-1.61l2-2.59A1,1,0,0,0,7.1,99Zm0,0"/><path class="cls-3" d="M14.73,105.92l.07-3.24a.53.53,0,0,1,.37-.5l3.1-1A1.5,1.5,0,0,0,19.34,100a1.09,1.09,0,0,0,0-.18,1.5,1.5,0,0,0-1-1.47l-3.06-1.07a.54.54,0,0,1-.36-.51L15,93.5a1.53,1.53,0,0,0-2.74-1l-2,2.59a.53.53,0,0,1-.59.18L6.59,94.26a1.52,1.52,0,0,0-1.72.53,1.5,1.5,0,0,0,0,1.79l1.85,2.67h0a.53.53,0,0,1,0,.62l-1.95,2.59a1.53,1.53,0,0,0,1.67,2.39l3.11-.94a.54.54,0,0,1,.58.2L12,106.77a1.53,1.53,0,0,0,2.78-.85Zm-2,.28-1.87-2.66A1.53,1.53,0,0,0,9.21,103l-3.11.94a.53.53,0,0,1-.59-.2.54.54,0,0,1,0-.63l2-2.59a1.53,1.53,0,0,0,0-1.79h0L5.66,96a.53.53,0,0,1,.6-.8l3.07,1.05a1.52,1.52,0,0,0,1.72-.52l2-2.58a.53.53,0,0,1,1,.33l-.05,3.24a1.53,1.53,0,0,0,1,1.47L18,99.27a.49.49,0,0,1,.35.51.51.51,0,0,1-.37.5l-3.1,1a1.54,1.54,0,0,0-1.08,1.43l-.07,3.24a.52.52,0,0,1-.38.5.51.51,0,0,1-.58-.2Zm0,0"/><path class="cls-3" d="M10.45,98.62a.49.49,0,0,0-.49-.5.5.5,0,1,0,0,1,.49.49,0,0,0,.51-.49Zm0,0"/><path class="cls-3" d="M12.62,98.8a.5.5,0,0,1,.44.55.5.5,0,1,1-1-.11.5.5,0,0,1,.55-.44Zm0,0"/></g></svg>