<svg xmlns="http://www.w3.org/2000/svg" width="70" height="70" viewBox="0 0 70 70">
  <defs>
    <style>
      .cls-1 {
        fill: #f7cca9;
      }

      .cls-2 {
        fill: #b3826b;
      }

      .cls-3 {
        fill: #d39073;
      }

      .cls-4 {
        fill: #e0b999;
      }

      .cls-5 {
        fill: #826254;
      }

      .cls-6 {
        fill: #333;
      }
    </style>
  </defs>
  <g id="Layer_159" data-name="Layer 159">
    <g>
      <path class="cls-1" d="M33,1.07h4.1a12.3,12.3,0,0,1,12.3,12.3V42.08a2.05,2.05,0,0,1-2.05,2.05H22.7a2,2,0,0,1-2.05-2.05V13.37A12.3,12.3,0,0,1,33,1.07Zm0,0"/>
      <path class="cls-2" d="M35,60.53a4.1,4.1,0,0,1-4.1-4.1V43.1h8.2V56.43a4.11,4.11,0,0,1-4.1,4.1Zm0,0"/>
      <path class="cls-3" d="M36,56.43a1,1,0,1,1-1-1,1,1,0,0,1,1,1Zm0,0"/>
      <path class="cls-3" d="M36,52.33a1,1,0,1,1-1-1,1,1,0,0,1,1,1Zm0,0"/>
      <path class="cls-4" d="M30.9,40a2.05,2.05,0,0,1-2-2.05V13.37a2.05,2.05,0,0,1,4.1,0V38A2.05,2.05,0,0,1,30.9,40Zm0,0"/>
      <path class="cls-4" d="M39.1,40A2.05,2.05,0,0,1,37.05,38V13.37a2,2,0,0,1,4.1,0V38a2.05,2.05,0,0,1-2,2.05Zm0,0"/>
      <path class="cls-5" d="M47.7,7.22A12.31,12.31,0,0,0,37.05,1.07H33a12.31,12.31,0,0,0-12.3,12.3v4.1a2.05,2.05,0,0,0,4.1,0,2.05,2.05,0,0,1,4.1,0,2,2,0,0,0,4.1,0,2,2,0,1,1,4.1,0,2.05,2.05,0,1,0,4.1,0,2,2,0,0,1,4.1,0,2,2,0,0,0,4.1,0v-4.1A12.3,12.3,0,0,0,47.7,7.22Zm0,0"/>
      <path class="cls-5" d="M47.3,35.93a4,4,0,0,0-2.28.69,4.11,4.11,0,0,0-7-1.36,4.12,4.12,0,0,0-6.15,0A4.1,4.1,0,0,0,25,36.62a4.1,4.1,0,1,0,0,6.81,4.1,4.1,0,0,0,6.94,1.36,4.1,4.1,0,0,0,6.15,0,4.11,4.11,0,0,0,7-1.36,4.1,4.1,0,1,0,2.28-7.5Zm0,0"/>
      <path class="cls-6" d="M36,56.43a1,1,0,1,1-1-1,1,1,0,0,1,1,1Zm0,0"/>
      <path class="cls-6" d="M36,52.33a1,1,0,1,1-1-1,1,1,0,0,1,1,1Zm0,0"/>
      <path class="cls-6" d="M50.37,35.93V13.37A13.33,13.33,0,0,0,37.05.05H33A13.34,13.34,0,0,0,19.62,13.37V35.93a5.13,5.13,0,0,0,4.9,8.89,5.13,5.13,0,0,0,5.35,2.28v9.33a5.13,5.13,0,0,0,10.25,0V47.1a5.14,5.14,0,0,0,5.36-2.28,5.12,5.12,0,0,0,4.89-8.89ZM21.67,13.37A11.29,11.29,0,0,1,33,2.1h4.1A11.28,11.28,0,0,1,48.32,13.37v4.1a1,1,0,1,1-2,0,3.08,3.08,0,0,0-6.15,0,1,1,0,1,1-2,0,3.08,3.08,0,0,0-6.15,0,1,1,0,1,1-2.05,0,3.08,3.08,0,0,0-6.15,0,1,1,0,1,1-2,0Zm26.65,7V35a5.19,5.19,0,0,0-2.84.23A5.2,5.2,0,0,0,42.17,33V17.47a1,1,0,0,1,2,0A3.11,3.11,0,0,0,45.52,20a3.07,3.07,0,0,0,2.8.38Zm-8.2,0V33a5.23,5.23,0,0,0-2,.93V20.37a3,3,0,0,0,2,0ZM36,17.47V33A5.44,5.44,0,0,0,34,33V17.47a1,1,0,0,1,2.05,0Zm-4.1,2.9V33.88A5.1,5.1,0,0,0,29.87,33V20.37a3,3,0,0,0,2.05,0Zm-10.25,0a3.07,3.07,0,0,0,4.1-2.9,1,1,0,0,1,2.05,0V33a5.18,5.18,0,0,0-3.3,2.28A5.23,5.23,0,0,0,21.67,35Zm16.4,36.06a3.08,3.08,0,0,1-6.15,0V46.17a5.12,5.12,0,0,0,6.15,0ZM47.3,43.1a3,3,0,0,1-1.71-.52,1.06,1.06,0,0,0-.9-.12,1,1,0,0,0-.64.63,3.08,3.08,0,0,1-5.21,1,1,1,0,0,0-.77-.35,1,1,0,0,0-.77.35,3.07,3.07,0,0,1-4.61,0,1,1,0,0,0-.77-.35,1,1,0,0,0-.77.35,3.07,3.07,0,0,1-5.2-1,1,1,0,0,0-.65-.63,1,1,0,0,0-.89.12,3.08,3.08,0,1,1,0-5.11A1,1,0,0,0,26,37a3.07,3.07,0,0,1,5.2-1,1,1,0,0,0,.77.35,1,1,0,0,0,.77-.35,3.07,3.07,0,0,1,4.61,0,1,1,0,0,0,.77.35,1,1,0,0,0,.77-.35,3.08,3.08,0,0,1,5.21,1,1,1,0,0,0,1.54.51,3.08,3.08,0,0,1,4.65,1.66,3.07,3.07,0,0,1-2.94,4Zm0,0"/>
      <path class="cls-6" d="M29.87,38a1,1,0,1,1-1-1,1,1,0,0,1,1,1Zm0,0"/>
      <path class="cls-6" d="M23.72,40a1,1,0,1,1-1-1,1,1,0,0,1,1,1Zm0,0"/>
      <path class="cls-6" d="M48.32,40a1,1,0,1,1-1-1,1,1,0,0,1,1,1Zm0,0"/>
      <path class="cls-6" d="M42.17,38a1,1,0,1,1-1-1,1,1,0,0,1,1,1Zm0,0"/>
      <path class="cls-6" d="M36,38a1,1,0,1,1-1-1,1,1,0,0,1,1,1Zm0,0"/>
      <path class="cls-6" d="M29.87,42.08a1,1,0,1,1-1-1,1,1,0,0,1,1,1Zm0,0"/>
      <path class="cls-6" d="M42.17,42.08a1,1,0,1,1-1-1,1,1,0,0,1,1,1Zm0,0"/>
      <path class="cls-6" d="M36,42.08a1,1,0,1,1-1-1,1,1,0,0,1,1,1Zm0,0"/>
    </g>
  </g>
</svg>
