<svg xmlns="http://www.w3.org/2000/svg" width="70" height="70" viewBox="0 0 70 70">
  <defs>
    <style>
      .cls-1 {
        fill: #d3e284;
      }

      .cls-2 {
        fill: #adc46e;
      }

      .cls-3 {
        fill: #d29b6e;
      }

      .cls-4 {
        fill: #d9ab80;
      }

      .cls-5 {
        fill: #d9ad80;
      }

      .cls-6 {
        fill: #333;
      }
    </style>
  </defs>
  <g id="Layer_175" data-name="Layer 175">
    <g>
      <path class="cls-1" d="M47.55,34.42,15.78,5.68c.49,20.62,11.9,37.11,25.91,37.11,7.37,0,14-4.56,18.73-11.88Zm0,0"/>
      <path class="cls-2" d="M45.54,41.12c-11.9,0-21.84-13-24.23-30.43l-5.53-5c.49,20.62,11.9,37.11,25.91,37.11a18.67,18.67,0,0,0,9.55-2.71,16.48,16.48,0,0,1-5.7,1Zm0,0"/>
      <path class="cls-3" d="M31.63,19.36,15.39,41.92l5.39-1.75L34,21.87Zm0,0"/>
      <path class="cls-4" d="M60.88,30.66a1.67,1.67,0,0,0-2-1.2L10.32,42a1.68,1.68,0,0,0-1.2,2,1.66,1.66,0,0,0,1.62,1.26,1.52,1.52,0,0,0,.42-.06L59.68,32.7a1.68,1.68,0,0,0,1.2-2Zm0,0"/>
      <path class="cls-5" d="M59.54,42.38,17.71,4.73a1.67,1.67,0,1,0-2.23,2.49L57.31,44.87a1.62,1.62,0,0,0,1.11.43,1.67,1.67,0,0,0,1.12-2.92Zm0,0"/>
      <path class="cls-6" d="M59.65,33.51l.23-.06a2.45,2.45,0,1,0-1.23-4.75L48.44,31.34,18.24,4.15A2.46,2.46,0,0,0,15,7.8l.11.11a48.74,48.74,0,0,0,7.08,23.3L16,39.73l-5.89,1.52a2.45,2.45,0,0,0,.62,4.83,2.55,2.55,0,0,0,.61-.08l20.32-5.25a19.23,19.23,0,0,0,19.95.06l5.16,4.64a2.44,2.44,0,0,0,1.64.63,2.49,2.49,0,0,0,1.83-.81,2.46,2.46,0,0,0-.18-3.47l-4.39-3.95a30.75,30.75,0,0,0,4-4.34ZM59,30.21a.89.89,0,0,1,1.08.64.88.88,0,0,1-.64,1.09l-8,2.08-1.59-1.43ZM30.71,22,32,23.18l-11,15.23-2.7.7ZM25.22,35.33q.75.86,1.53,1.62l-3.3.85Zm3.32,1.15A27.68,27.68,0,0,1,26.16,34l7.05-9.79,9.53,8.57ZM41.69,42a17.64,17.64,0,0,1-7.79-1.84l7.15-1.85a.78.78,0,0,0-.39-1.51L11,44.49a.83.83,0,0,1-.22,0,.89.89,0,0,1-.22-1.76l33.61-8.69,1.59,1.43L44,35.94a.78.78,0,0,0,.19,1.54l.2,0,2.72-.71,3.27,3A17.88,17.88,0,0,1,41.69,42Zm17.4,2.21a.89.89,0,0,1-.67.3.91.91,0,0,1-.59-.23L21.3,11.41a.78.78,0,0,0-1.1.06.79.79,0,0,0,.05,1.11l9.29,8.35-6.42,8.91A47,47,0,0,1,16.74,9.41l1,.91a.78.78,0,0,0,1.1-.06.79.79,0,0,0-.06-1.11L16,6.64a.89.89,0,1,1,1.19-1.32L59,43a.91.91,0,0,1,.07,1.26Zm-4.58-7.43-1.69-1.51,4.28-1.11a27.92,27.92,0,0,1-2.59,2.62Zm0,0"/>
    </g>
  </g>
</svg>