<svg xmlns="http://www.w3.org/2000/svg" width="70" height="70" viewBox="0 0 70 70">
  <defs>
    <style>
      .cls-1 {
        fill: #dddbd1;
      }

      .cls-2 {
        fill: #404b3c;
      }

      .cls-3 {
        fill: #545f4e;
      }

      .cls-4 {
        fill: #3b4536;
      }

      .cls-5 {
        fill: #262626;
      }
    </style>
  </defs>
  <g id="Layer_211" data-name="Layer 211">
    <g>
      <polygon class="cls-1" points="24.2 34.26 18.36 34.26 22.49 30.13 21.71 29.35 17.58 33.48 17.58 27.65 16.48 27.65 16.48 33.48 12.35 29.35 11.57 30.13 15.7 34.26 9.86 34.26 9.86 35.37 15.69 35.37 11.57 39.49 12.35 40.27 16.48 36.14 16.48 41.98 17.58 41.98 17.58 36.14 21.71 40.27 22.49 39.49 18.37 35.37 24.2 35.37 24.2 34.26"/>
      <path class="cls-2" d="M17,25.11a9.71,9.71,0,1,0,9.7,9.7,9.7,9.7,0,0,0-9.7-9.7Zm0,16.32a6.62,6.62,0,1,1,6.61-6.62A6.63,6.63,0,0,1,17,41.43Zm0,0"/>
      <path class="cls-3" d="M17.39,25.12a8.71,8.71,0,0,0-1.62.08.52.52,0,0,0,.07,1H16a9.75,9.75,0,0,1,9.65,9.64V36a.51.51,0,0,0,1,.06,10.86,10.86,0,0,0,.08-1.62,9.75,9.75,0,0,0-9.34-9.34Zm0,0"/>
      <path class="cls-4" d="M21.88,39.67a2.06,2.06,0,0,1-.35,0,6.6,6.6,0,0,1-9.34-9.33c0-.13,0-.24,0-.36v0a1.6,1.6,0,0,0-2.86-1,9.57,9.57,0,0,0-2,6,9.7,9.7,0,0,0,15.6,7.62,1.59,1.59,0,0,0-1-2.85Zm0,0"/>
      <path class="cls-5" d="M19.8,28.81a6.48,6.48,0,0,1,1.65,1.09l2-2.36a9.83,9.83,0,0,0-2.23-1.48Zm0,0"/>
      <polygon class="cls-1" points="60.14 34.26 54.29 34.26 58.43 30.13 57.65 29.35 53.52 33.47 53.52 27.65 52.42 27.65 52.42 33.48 48.29 29.35 47.51 30.13 51.65 34.26 45.8 34.26 45.8 35.37 51.63 35.37 47.51 39.48 48.29 40.26 52.42 36.13 52.42 41.98 53.52 41.98 53.52 36.14 57.65 40.26 58.43 39.48 54.31 35.37 60.14 35.37 60.14 34.26"/>
      <path class="cls-2" d="M53,25.11a9.71,9.71,0,1,0,9.7,9.7,9.7,9.7,0,0,0-9.7-9.7Zm0,16.32a6.62,6.62,0,1,1,6.62-6.62A6.62,6.62,0,0,1,53,41.43Zm0,0"/>
      <path class="cls-3" d="M53.34,25.12a8.78,8.78,0,0,0-1.63.08.52.52,0,0,0,.07,1h.14a9.73,9.73,0,0,1,9.65,9.64V36a.52.52,0,0,0,1,.06,10.86,10.86,0,0,0,.07-1.62,9.73,9.73,0,0,0-9.33-9.34Zm0,0"/>
      <path class="cls-4" d="M57.82,39.67a2.06,2.06,0,0,1-.35,0,6.61,6.61,0,0,1-9.34-9.33c0-.13,0-.24,0-.36v0a1.6,1.6,0,0,0-2.86-1,9.7,9.7,0,0,0,13.61,13.6,1.59,1.59,0,0,0-1-2.85Zm0,0"/>
      <path class="cls-2" d="M31.74,12.59s0,0,0-.05a1.55,1.55,0,0,0-.46-1.09A1.53,1.53,0,0,0,30.2,11H22.43a1.54,1.54,0,0,0-1.54,1.54v1.65a1.55,1.55,0,0,0,1.86,1.51l7.77-1.65a1.53,1.53,0,0,0,1.22-1.46h0Z"/>
      <path class="cls-2" d="M38.05,34.81a3,3,0,1,1-3-3.05,3.05,3.05,0,0,1,3,3.05Zm0,0"/>
      <path class="cls-5" d="M61.3,28.83l-.9.64a9,9,0,0,1,1.72,5.34A9.15,9.15,0,1,1,49,26.56l.73,1.85a7.16,7.16,0,1,0,3.2-.76,7.72,7.72,0,0,0-1.18.1l-.48-1.93A9.05,9.05,0,0,1,59,27.92l.73-.82A10.22,10.22,0,0,0,53,24.56a10.08,10.08,0,0,0-1.92.19L46.46,6.26h5.85a2.1,2.1,0,1,1,0,4.19h-3.2v1.1h3.2a3.2,3.2,0,1,0,0-6.39H45.74a.54.54,0,0,0-.43.2.59.59,0,0,0-.1.48L48.1,17.49H28.31l-.93-2.21,3.24-.69a2.11,2.11,0,0,0,1.67-2.05,2.09,2.09,0,0,0-2.1-2.09H27.4v1.1h2.79a1,1,0,0,1,1,1,1,1,0,0,1-.79,1l-7.77,1.65a1,1,0,0,1-.83-.2,1,1,0,0,1-.36-.77V12.54a1,1,0,0,1,1-1h2.8v-1.1H22.44a2.08,2.08,0,0,0-2.09,2.09v1.65a2.07,2.07,0,0,0,.77,1.63,2.15,2.15,0,0,0,1.31.46,1.93,1.93,0,0,0,.42,0l3.43-.73,1,2.48-5.18,8a10.25,10.25,0,1,0,5,10.53h4.68a3.5,3.5,0,0,0,4,1.83l.47,1.13a.56.56,0,0,0,.51.35H41V38.66H37.22l-.34-.79a3.55,3.55,0,0,0,.8-5.44L48.54,19.24,50,25A10.26,10.26,0,1,0,61.3,28.83ZM17,44a9.16,9.16,0,0,1,0-18.31,9.07,9.07,0,0,1,4.51,1.2l-1.08,1.67a7.16,7.16,0,0,0-10.6,6.28A7.16,7.16,0,0,0,24,36.47h2A9.16,9.16,0,0,1,17,44Zm9.15-9.16c0,.19,0,.37,0,.56h-2c0-.19,0-.37,0-.56s0-.36,0-.55h2C26.16,34.45,26.18,34.63,26.18,34.81Zm-3.32-1.65h-4.1l2-3.1A6.11,6.11,0,0,1,22.86,33.16Zm-5.42,0h-1.3a1.66,1.66,0,1,0,0,3.31h6.72a6.07,6.07,0,1,1-3-7Zm-1.3,2.21a.56.56,0,1,1,0-1.11h6.92a5.07,5.07,0,0,1,0,.55,5.25,5.25,0,0,1,0,.56ZM24,33.16a7.13,7.13,0,0,0-2.61-4l1.09-1.67A9.13,9.13,0,0,1,26,33.16Zm3.26,2.21c0-.19,0-.37,0-.56s0-.36,0-.55h4.2a3.43,3.43,0,0,0-.06.55,3.55,3.55,0,0,0,.06.56Zm4.57-2.21H27.14a10.27,10.27,0,0,0-4.07-6.61l4.77-7.33,5.3,12.53A3.58,3.58,0,0,0,31.82,33.16Zm4.63,3.69-1-2.26-1,.43,1,2.25a2,2,0,0,1-.43,0,2.51,2.51,0,1,1,1.45-.47Zm.38-5.12A3.58,3.58,0,0,0,35,31.21a3.48,3.48,0,0,0-.85.11L28.78,18.61H47.65Zm16.14-3a6.07,6.07,0,1,1-2,.34L52.43,35l1.08-.27-1.45-5.85A5.5,5.5,0,0,1,53,28.75Z"/>
    </g>
  </g>
</svg>