<svg xmlns="http://www.w3.org/2000/svg" width="70" height="70" viewBox="0 0 70 70">
  <defs>
    <style>
      .cls-1 {
        fill: #763e46;
      }

      .cls-2 {
        fill: #522129;
      }

      .cls-3 {
        fill: #b6b39f;
      }

      .cls-4 {
        fill: #dddbd1;
      }

      .cls-5 {
        fill: #677061;
      }

      .cls-6 {
        fill: #fff;
      }

      .cls-7 {
        fill: #3c4438;
      }

      .cls-8 {
        fill: #191717;
      }
    </style>
  </defs>
  <g id="Layer_210" data-name="Layer 210">
    <g>
      <path class="cls-1" d="M53.56,21.17H16.61l-3.83,8.16H57.4Zm0,0"/>
      <path class="cls-2" d="M47.87,27.6H23l-2.11-2.85h-6l-2.15,4.58H57.4l-2.16-4.58H50Zm0,0"/>
      <path class="cls-3" d="M50.84,26.49l-2.11,2.84H21.26l-2.1-2.84H3.94l4.33,7.92v5H57.4l8.66-12.87Zm0,0"/>
      <path class="cls-4" d="M64.2,26.49,55.54,39.36H57.4l8.66-12.87Zm0,0"/>
      <path class="cls-5" d="M13.1,32.92l-4-6.43H3.94l4.33,7.92v5H57.4L59,37H17.18a4.08,4.08,0,0,1-4.08-4.08Zm0,0"/>
      <path class="cls-4" d="M42.93,13.25H19.16v7.9H50.84a7.91,7.91,0,0,0-7.91-7.9Zm0,0"/>
      <path class="cls-6" d="M37.75,18.17h-12a1.46,1.46,0,1,1,0-2.92h12a1.46,1.46,0,1,1,0,2.92Zm0,0"/>
      <path class="cls-1" d="M29,13.25H22.87V5.33H27Zm0,0"/>
      <rect class="cls-2" x="22.87" y="5.33" width="1.86" height="7.92"/>
      <path class="cls-1" d="M38,13.25H31.91V5.33H36Zm0,0"/>
      <rect class="cls-2" x="31.91" y="5.33" width="1.86" height="7.92"/>
      <path class="cls-4" d="M22.87,10.77h5.45l-.72-3H22.87Zm0,0"/>
      <rect class="cls-3" x="22.87" y="7.8" width="1.86" height="2.97"/>
      <path class="cls-4" d="M31.91,10.77h5.44l-.72-3H31.91Zm0,0"/>
      <path class="cls-5" d="M48.64,15.72H40.32a3,3,0,0,0,3,3h7.16a8.15,8.15,0,0,0-1.81-3Zm0,0"/>
      <path class="cls-7" d="M27.7,33.5a1.86,1.86,0,1,1-1.86-1.85A1.86,1.86,0,0,1,27.7,33.5Zm0,0"/>
      <path class="cls-7" d="M36.86,33.5A1.86,1.86,0,1,1,35,31.65a1.86,1.86,0,0,1,1.86,1.85Zm0,0"/>
      <path class="cls-7" d="M46,33.5a1.86,1.86,0,1,1-1.85-1.85A1.85,1.85,0,0,1,46,33.5Zm0,0"/>
      <rect class="cls-3" x="31.91" y="7.8" width="1.86" height="2.97"/>
      <path class="cls-3" d="M48.36,18.69H45.68l-2.35-3H46Zm0,0"/>
      <g>
        <path class="cls-8" d="M66.57,26.83a.6.6,0,0,0,0-.63.61.61,0,0,0-.54-.33H56.45l-2.33-5a.6.6,0,0,0-.56-.36H51.43a8.4,8.4,0,0,0-.39-2v0c0-.1-.09-.2-.12-.3s-.13-.33-.2-.49,0-.09-.07-.14a8.52,8.52,0,0,0-7.72-4.93H38.47l-.5-2h0l-.73-3,0-.06-.6-2.41A.64.64,0,0,0,36,4.71H31.91a.61.61,0,0,0-.62.62v7.3H29.44l-.5-2-.73-3,0-.06-.61-2.41a.63.63,0,0,0-.6-.47h-4.1a.62.62,0,0,0-.62.62v7.3H19.16a.61.61,0,0,0-.62.62v7.28H16.62a.61.61,0,0,0-.55.36l-2.34,5H10.5v1.24h8.35l1.92,2.59a.63.63,0,0,0,.49.25H48.73a.58.58,0,0,0,.5-.25l1.92-2.59H64.91L57.07,38.74H8.89V34.41a.63.63,0,0,0-.07-.3L5,27.11H8V25.87H3.94a.62.62,0,0,0-.54.91l4.25,7.79v4.17H3.32V40H66.68V38.74H58.55ZM48.36,16.34A7.41,7.41,0,0,1,49.47,18l.06.11H43.29A2.34,2.34,0,0,1,41,16.34ZM32.52,8.42h3.62l.43,1.73h-4Zm3-2.47.31,1.23H32.52V6Zm-3,5.44h4.36l.31,1.24H32.52Zm-5-1.24H23.49V8.42H27.1l.44,1.73ZM26.49,6l.31,1.23H23.49V6Zm-3,5.44h4.36l.31,1.24H23.49ZM50.84,25.87a.59.59,0,0,0-.5.25l-1.91,2.59H21.57l-1.91-2.59a.64.64,0,0,0-.5-.25H15.09L17,21.77H36.76V20.53h-17V13.86H42.93A7.26,7.26,0,0,1,47,15.1H40.32a.61.61,0,0,0-.62.62,3.59,3.59,0,0,0,3.59,3.59H50a7.14,7.14,0,0,1,.22,1.24h-11v1.23h14l1.92,4.09Z"/>
        <rect class="cls-8" x="19.16" y="24.26" width="4.95" height="1.24"/>
        <rect class="cls-8" x="28.07" y="24.26" width="4.95" height="1.24"/>
        <rect class="cls-8" x="36.98" y="24.26" width="4.95" height="1.24"/>
        <rect class="cls-8" x="45.89" y="24.26" width="4.95" height="1.24"/>
        <path class="cls-8" d="M28.32,33.5A2.48,2.48,0,1,0,25.84,36,2.48,2.48,0,0,0,28.32,33.5Zm-3.71,0a1.24,1.24,0,1,1,1.23,1.24A1.24,1.24,0,0,1,24.61,33.5Z"/>
        <path class="cls-8" d="M37.47,33.5A2.48,2.48,0,1,0,35,36,2.48,2.48,0,0,0,37.47,33.5Zm-3.71,0A1.24,1.24,0,1,1,35,34.74,1.25,1.25,0,0,1,33.76,33.5Z"/>
        <path class="cls-8" d="M46.63,33.5A2.48,2.48,0,1,0,44.16,36,2.48,2.48,0,0,0,46.63,33.5Zm-3.71,0a1.24,1.24,0,1,1,1.24,1.24A1.25,1.25,0,0,1,42.92,33.5Z"/>
        <rect class="cls-8" x="34.26" y="16.09" width="1.24" height="1.24"/>
        <rect class="cls-8" x="31.41" y="16.09" width="1.24" height="1.24"/>
        <rect class="cls-8" x="28.57" y="16.09" width="1.24" height="1.24"/>
        <rect class="cls-8" x="25.72" y="16.09" width="1.24" height="1.24"/>
        <rect class="cls-8" x="22.87" y="16.09" width="1.24" height="1.24"/>
      </g>
    </g>
  </g>
</svg>