<svg xmlns="http://www.w3.org/2000/svg" width="70" height="70" viewBox="0 0 70 70">
  <defs>
    <style>
      .cls-1 {
        fill: #3c5d8f;
      }

      .cls-2 {
        fill: #213766;
      }

      .cls-3 {
        fill: #b6b39f;
      }

      .cls-4 {
        fill: #dddbd1;
      }

      .cls-5 {
        fill: #e3cb91;
      }

      .cls-6 {
        fill: #34402e;
      }

      .cls-7 {
        fill: #3c4438;
      }

      .cls-8 {
        fill: #293325;
      }

      .cls-9 {
        fill: #677061;
      }

      .cls-10 {
        fill: #485ea0;
      }

      .cls-11 {
        fill: #ece04b;
      }

      .cls-12 {
        fill: #1e1e1e;
      }
    </style>
  </defs>
  <g id="Layer_213" data-name="Layer 213">
    <g>
      <path class="cls-1" d="M67.69,26a11.6,11.6,0,0,0-10.42-6.42H20.1l-1.8-2-16,4.58v2.25l1.47,6L18.3,32.77H51.7l14.74-2.4,1.3-4.28Zm0,0"/>
      <path class="cls-2" d="M3.34,28.8l.39,1.56L18.3,32.72H51.7l14.74-2.39.46-1.53Zm0,0"/>
      <path class="cls-3" d="M35,12.51h2.22l5.84,7.07H38.65Zm0,0"/>
      <path class="cls-4" d="M36.41,12.5l3.65,7h3l-5.84-7Zm0,0"/>
      <path class="cls-5" d="M24.89,19.58H20.1l-1.8-2h4.57a2,2,0,0,1,2,2Zm0,0"/>
      <path class="cls-6" d="M20.1,29.65a6.35,6.35,0,1,1-1.86-4.49,6.35,6.35,0,0,1,1.86,4.49Zm0,0"/>
      <path class="cls-7" d="M14,23.3a5.66,5.66,0,0,0-1.54.12.46.46,0,0,0,.1.92h.1a6.38,6.38,0,0,1,6.35,6.35v.1a.46.46,0,0,0,.92.1,6.5,6.5,0,0,0,.12-1.54A6.36,6.36,0,0,0,14,23.3Zm0,0"/>
      <path class="cls-8" d="M16.6,32.73a6.4,6.4,0,0,1-5.94-5.94v-.07a1.2,1.2,0,0,0-2.2-.6A6.26,6.26,0,0,0,7.4,29.94a6.4,6.4,0,0,0,6,6.05,6.3,6.3,0,0,0,3.82-1.06,1.2,1.2,0,0,0-.6-2.2.09.09,0,0,1-.07,0Zm0,0"/>
      <path class="cls-9" d="M16.87,29.65a3.12,3.12,0,1,1-3.12-3.12,3.12,3.12,0,0,1,3.12,3.12Zm0,0"/>
      <path class="cls-6" d="M62.39,29.65A6.35,6.35,0,1,1,56,23.3a6.35,6.35,0,0,1,6.35,6.35Zm0,0"/>
      <path class="cls-8" d="M58.88,32.73A6.39,6.39,0,0,1,53,26.79v-.07a1.21,1.21,0,0,0-2.21-.6,6.25,6.25,0,0,0-1.05,3.82A6.39,6.39,0,0,0,55.74,36a6.3,6.3,0,0,0,3.82-1.06,1.2,1.2,0,0,0-.6-2.2.11.11,0,0,1-.08,0Zm0,0"/>
      <path class="cls-9" d="M59.13,29.65A3.12,3.12,0,1,1,56,26.53a3.12,3.12,0,0,1,3.12,3.12Zm0,0"/>
      <path class="cls-7" d="M56.3,23.3a5.66,5.66,0,0,0-1.54.12.46.46,0,0,0,.11.92H55a6.38,6.38,0,0,1,6.35,6.35v.1a.47.47,0,0,0,.93.1,6.51,6.51,0,0,0,.11-1.54A6.36,6.36,0,0,0,56.3,23.3Zm0,0"/>
      <path class="cls-2" d="M24.57,32.76H23.26a11.68,11.68,0,0,0-1.39-5.52l-2.52-4.63v-3h1.3v2.71L23,26.61a13,13,0,0,1,1.56,6.15Zm0,0"/>
      <path class="cls-10" d="M62.71,20.85a12.74,12.74,0,0,0-4.45-1.31H19.35L2.27,22.16v1.11l17.87-2.42Zm0,0"/>
      <path class="cls-11" d="M61.44,22.45H65a11.7,11.7,0,0,0-6.35-2.83,2.83,2.83,0,0,0,2.83,2.83Zm0,0"/>
      <g>
        <rect class="cls-12" x="22.35" y="21.76" width="5.09" height="1.3"/>
        <path class="cls-12" d="M13.75,25.88a3.77,3.77,0,0,0-1.58,7.2l.55-1.19a2.47,2.47,0,1,1,2.06,0l.55,1.19a3.77,3.77,0,0,0-1.58-7.2Z"/>
        <path class="cls-12" d="M56,25.88a3.77,3.77,0,1,0,3.77,3.77A3.79,3.79,0,0,0,56,25.88Zm0,6.24a2.47,2.47,0,1,1,2.47-2.47A2.47,2.47,0,0,1,56,32.12Z"/>
        <rect class="cls-12" x="43.78" y="26.24" width="6.11" height="1.3" transform="translate(5.54 61.7) rotate(-70)"/>
        <rect class="cls-12" x="41.04" y="26.24" width="6.11" height="1.3" transform="translate(3.75 59.13) rotate(-70.01)"/>
        <path class="cls-12" d="M68.39,27.5H68l.37-1.21a.64.64,0,0,0,0-.49l0-.1a12.23,12.23,0,0,0-11-6.82H43.38L37.74,12a.7.7,0,0,0-.51-.23H35a.65.65,0,0,0-.58.95L35.57,15l1.17-.6-.67-1.28h.85l4.76,5.77H39.06l-1-1.88-1.16.6.66,1.28H25.45a2.64,2.64,0,0,0-2.54-2H18.3A.59.59,0,0,0,18,17l-16,4.56a.65.65,0,0,0-.47.63v2.43l.72,2.92H1.61v1.3h1l.43,1.78a.68.68,0,0,0,.54.48L7,31.61a7,7,0,0,0,12.62,1.81h30.5a7,7,0,0,0,12.6-1.79L66.53,31a.68.68,0,0,0,.52-.46l.53-1.76h.81ZM63,21.8H61.44a2.2,2.2,0,0,1-2-1.4A11,11,0,0,1,63,21.8ZM22.91,18.2a1.32,1.32,0,0,1,1.16.68H20.39l-.61-.68ZM13.75,35.35a5.7,5.7,0,1,1,5.7-5.7A5.71,5.71,0,0,1,13.75,35.35Zm42.29,0a5.7,5.7,0,1,1,5.7-5.7A5.71,5.71,0,0,1,56,35.35Zm9.9-5.56L63,30.27c0-.21,0-.41,0-.62a7,7,0,1,0-13.55,2.47H20.3A7,7,0,1,0,6.75,29.65a5.68,5.68,0,0,0,0,.59l-2.52-.41L4,28.8H5.91V27.5H3.69l-.78-3.17v-1.7l15.18-4.34L19.62,20a.68.68,0,0,0,.48.21H57.27q.38,0,.75,0a3.47,3.47,0,0,0,3.42,2.89h3.3a11.07,11.07,0,0,1,2.31,3l-.41,1.35h-1.9v1.3h1.5Z"/>
      </g>
    </g>
  </g>
</svg>