<svg xmlns="http://www.w3.org/2000/svg" width="70" height="70" viewBox="0 0 70 70">
  <defs>
    <style>
      .cls-1 {
        fill: #96ce90;
      }

      .cls-2 {
        fill: #fbc5b4;
      }

      .cls-3 {
        fill: #7a726c;
      }

      .cls-4 {
        fill: #ed9283;
      }

      .cls-5 {
        fill: #484b54;
      }

      .cls-6 {
        fill: #d9de8d;
      }

      .cls-7 {
        fill: #333;
      }

      .cls-8 {
        fill: #c1ca60;
      }

      .cls-9 {
        fill: #9fa543;
      }
    </style>
  </defs>
  <g id="Layer_180" data-name="Layer 180">
    <path class="cls-1" d="M57,27.86l-3.32-1.78A2.15,2.15,0,0,0,52,25.92a2.1,2.1,0,0,0-1.25,1l-.07.13L31.73,17l-10.09-5.4.08-.14a2.11,2.11,0,0,0-.87-2.86L17.52,6.77a2.35,2.35,0,0,0-1.78-.17,2.32,2.32,0,0,0-1.39,1.14l-1,1.81a2.35,2.35,0,0,0,1,3.18l3.33,1.78a2.1,2.1,0,0,0,2.85-.87l.08-.15L38.33,23,49.66,29l-.08.16A2.12,2.12,0,0,0,50.44,32l3.33,1.78a2.37,2.37,0,0,0,1.79.17A2.32,2.32,0,0,0,57,32.85l1-1.81a2.35,2.35,0,0,0-1-3.18Zm0,0"/>
    <g>
      <path class="cls-2" d="M45.11,18.83a5.4,5.4,0,0,0-4.2-2.66l-4.51-.41-.28-2.44H33.25V16l-1,.42A10.86,10.86,0,0,0,29,18.55l-3.25,3v3l5.05-3.05.2,6.27H38.7V19.63l2.17-.3a1.67,1.67,0,0,1,1.57.63,4.94,4.94,0,0,1,.44.65l2.67-.88a9.37,9.37,0,0,0-.44-.9Zm0,0"/>
      <path class="cls-3" d="M49.66,29l1-1.94L31.73,17l-10.09-5.4-1,1.94L38.33,23Zm0,0"/>
      <path class="cls-2" d="M43.17,21.27a1.55,1.55,0,0,1-.49,1.62,2,2,0,0,0-.53.71A1.83,1.83,0,0,0,43.22,26a2.34,2.34,0,0,0,1.26.07,1.8,1.8,0,0,0,1.44-1.41,8.23,8.23,0,0,0-.37-4.93l-2.67.88a3.89,3.89,0,0,1,.29.66Zm0,0"/>
      <path class="cls-2" d="M28.08,16.29a3.82,3.82,0,0,1-1.07,2,1.9,1.9,0,0,0-.51,1.31v3.63a1.59,1.59,0,0,1-1.58,1.57,1.57,1.57,0,0,1-1.57-1.57V16.51a3.63,3.63,0,0,1,.41-1.74,2.32,2.32,0,0,1,4.32,1.52Zm0,0"/>
      <path class="cls-4" d="M36.29,14.8l-.17-1.48H33.25v2.4Zm0,0"/>
      <path class="cls-4" d="M30.43,9.07h1.85v3.1H30.43a1.56,1.56,0,0,1-1.1-2.65,1.58,1.58,0,0,1,1.1-.45Zm0,0"/>
      <path class="cls-4" d="M39.3,12.17H37.45V9.07H39.3a1.55,1.55,0,0,1,0,3.1Zm0,0"/>
      <path class="cls-5" d="M32.82,3s-2.12-.93-3.46,1.84a4,4,0,0,0,.14,3.81,3.21,3.21,0,0,0,2.36,1.54h6.27l.55-1.27a7,7,0,0,0,2.4-1.61A.92.92,0,0,0,41,5.94l-1.06-.82.75-.74a1,1,0,0,0,.27-.68A.94.94,0,0,0,40.62,3c-1.51-1.36-5.17-3.94-7.8,0Zm0,0"/>
      <path class="cls-2" d="M32.59,5.74a3.48,3.48,0,0,0,1.62,2.7.92.92,0,0,0,1.46-.51l.17-.68a3.67,3.67,0,0,0,2.84,1.67,5.35,5.35,0,0,1-1.38,4.16,3.65,3.65,0,0,1-4.53.36,3.84,3.84,0,0,1-1.59-2.73,6.79,6.79,0,0,1,1.41-5Zm0,0"/>
      <path class="cls-6" d="M51.61,28.86c-3.28.16-11,0-16-5a1,1,0,0,0-1.39,0c-5,4.93-12.72,5.13-16,5a1.45,1.45,0,0,0-1.52,1.23A1.43,1.43,0,0,0,18,31.7c10.32,1,15.23-2.61,16.56-3.82a.57.57,0,0,1,.77,0c1.33,1.21,6.24,4.8,16.55,3.82a1.41,1.41,0,0,0,1-.54,1.38,1.38,0,0,0,.3-1.07,1.47,1.47,0,0,0-1.52-1.23Zm0,0"/>
      <path class="cls-7" d="M53.91,25.56a2.7,2.7,0,0,0-3.42.73l-2.56-1.37a.6.6,0,1,0-.57,1l3.06,1.64a.59.59,0,0,0,.8-.25l.07-.13a1.51,1.51,0,0,1,2.05-.62l3.33,1.77a1.75,1.75,0,0,1,.72,2.38l-1,1.81a1.74,1.74,0,0,1-2.37.72L53.42,33a.6.6,0,1,0-.56,1l.63.33a2.93,2.93,0,0,0,4-1.21l1-1.81a3,3,0,0,0-1.21-4Zm0,0"/>
      <path class="cls-7" d="M33.56,9.91A.59.59,0,0,0,33.23,11l.11.05.11,0h.23l.11,0L33.9,11l.09-.07a.6.6,0,0,0-.43-1Zm0,0"/>
      <path class="cls-7" d="M36,9.92l-.11,0-.1,0-.1.07-.07.09a.85.85,0,0,0-.09.22.45.45,0,0,0,0,.11.6.6,0,0,0,.27.5l.1.05.11,0h.12a.59.59,0,0,0,.59-.65A.59.59,0,0,0,36,9.92Zm0,0"/>
      <path class="cls-7" d="M11.18,41.43a9,9,0,0,0,4.22-.94,7.48,7.48,0,0,1,2.75-.8A.6.6,0,1,0,18,38.5a8.67,8.67,0,0,0-3.13.9,7.83,7.83,0,0,1-3.73.84.6.6,0,0,0,0,1.19Zm0,0"/>
      <path class="cls-7" d="M58.82,40.24a7.83,7.83,0,0,1-3.73-.84,8.77,8.77,0,0,0-3.38-.92.6.6,0,0,0-.09,1.19,7.43,7.43,0,0,1,3,.82,9,9,0,0,0,4.22.94.6.6,0,0,0,0-1.19Zm0,0"/>
      <path class="cls-8" d="M35,41.88a9,9,0,0,1,4.21.94,8.55,8.55,0,0,0,1.75.64c3.4-1.21,7.68-4.11,9.42-11.05-.68,0-1.34.05-2,.05-7.16,0-11.16-2.28-12.9-3.62V40a.58.58,0,0,1-.6.6v1.25Z"/>
      <path class="cls-9" d="M34.32,40V28.84c-1.74,1.34-5.74,3.62-12.91,3.62-.63,0-1.28,0-2-.05h0c1.75,7,6.06,9.87,9.48,11.07a8.68,8.68,0,0,0,1.85-.66,8.86,8.86,0,0,1,4.13-.94V40.63A.57.57,0,0,1,34.32,40Z"/>
      <path class="cls-7" d="M58.82,43.66a7.71,7.71,0,0,1-3.73-.84,9.92,9.92,0,0,0-8.43,0,7.61,7.61,0,0,1-3.17.83c3.24-1.72,6.66-5,8.14-11.33l.28,0a2,2,0,0,0-.29-4c-.56,0-1.26,0-2.06,0v0l-3.92-2.09a2.51,2.51,0,0,0,.88-1.4,9,9,0,0,0-.41-5.29,8.74,8.74,0,0,0-.48-1,6,6,0,0,0-4.65-3l-4-.36-.13-1.07a3.78,3.78,0,0,0,.9-.64,3.85,3.85,0,0,0,.64-.75h.95a2.14,2.14,0,0,0,.35-4.26l-.16,0c-.17,0-.33-.05-.48-.09l-.2-.05h0A3.2,3.2,0,0,1,36.37,7a.59.59,0,0,0-1.11.12l-.17.68a.31.31,0,0,1-.2.23.33.33,0,0,1-.32,0,3,3,0,0,1-1.38-2.21.6.6,0,0,0-1.08-.37A8.22,8.22,0,0,0,30.7,8.47h-.27c-.1,0-.21,0-.31,0L30,8.34a3.36,3.36,0,0,1-.12-3.24c1.05-2.16,2.53-1.62,2.69-1.56a.59.59,0,0,0,.74-.21,3.63,3.63,0,0,1,2.51-1.78c1.72-.21,3.49,1.12,4.39,1.93a.33.33,0,0,1,0,.48l-.74.74a.59.59,0,0,0,.06.89l1.06.82a.34.34,0,0,1,.13.24.3.3,0,0,1-.09.25c-.1.11-.21.21-.32.31a.6.6,0,1,0,.79.89l.39-.37a1.52,1.52,0,0,0-.17-2.26l-.53-.41.27-.26a1.55,1.55,0,0,0,.44-1.12A1.53,1.53,0,0,0,41,2.59C40,1.65,37.87.1,35.68.37A4.62,4.62,0,0,0,32.59,2.3c-1-.21-2.7.06-3.77,2.28A4.52,4.52,0,0,0,29,9l0,0a2.16,2.16,0,0,0-.6,2.37,2.13,2.13,0,0,0,2,1.39h.87a4.06,4.06,0,0,0,1.13,1.17l.22.14v1.81a.6.6,0,1,0,1.19,0V14.55a4.49,4.49,0,0,0,1,.11,4.12,4.12,0,0,0,.86-.09l.15,1.26a.61.61,0,0,0,.54.53l4.51.41a4.8,4.8,0,0,1,3.73,2.35A7.1,7.1,0,0,1,45,20a7.67,7.67,0,0,1,.34,4.59,1.22,1.22,0,0,1-1,.95,1.81,1.81,0,0,1-.95,0,1.23,1.23,0,0,1-.7-.66,1.21,1.21,0,0,1,0-1,1.28,1.28,0,0,1,.37-.49,2.14,2.14,0,0,0,.67-2.24,4.18,4.18,0,0,0-.34-.78,5.17,5.17,0,0,0-.49-.73,2.27,2.27,0,0,0-2.12-.85l-1.06.15a.58.58,0,0,0-.5.67.6.6,0,0,0,.67.51L41,19.92a1.11,1.11,0,0,1,1,.41,4.35,4.35,0,0,1,.38.57,2.7,2.7,0,0,1,.24.55.91.91,0,0,1,0,.61L28.3,14.44A3,3,0,0,0,25.56,13l-3.15-1.69A2.69,2.69,0,0,0,21.13,8L17.8,6.25a2.93,2.93,0,0,0-4,1.21l-1,1.81a2.92,2.92,0,0,0-.22,2.24,3,3,0,0,0,1.43,1.75L17.39,15a2.7,2.7,0,0,0,3.43-.75l2.07,1.11a4.31,4.31,0,0,0-.13,1.13v6.75a2.17,2.17,0,0,0,2.16,2.17,2.91,2.91,0,0,0,1.29-.33h0l0,0,3.94-2.45.05,1.59a.59.59,0,0,0,.61.58.6.6,0,0,0,.58-.62l-.09-2.62a.59.59,0,0,0-.9-.48l-4.78,3a1.74,1.74,0,0,1-.77.21,1,1,0,0,1-1-1V16.48a3.18,3.18,0,0,1,.33-1.42,1.61,1.61,0,0,1,2-.81,1.75,1.75,0,0,1,1.2,1.95,3.18,3.18,0,0,1-.92,1.72,2.57,2.57,0,0,0-.67,1.73v2.13a.6.6,0,0,0,1.19,0V19.65a1.4,1.4,0,0,1,.35-.92,4.37,4.37,0,0,0,1.23-2.36l0-.37,13.1,7c-.07.12-.14.24-.2.37a2.44,2.44,0,0,0-.15.59L30,17.82a.6.6,0,1,0-.56,1.05l12.33,6.59A2.42,2.42,0,0,0,43,26.56a2.89,2.89,0,0,0,1,.16h.11l2.57,1.37c-3.69-.46-8.19-1.8-11.29-5.32a.59.59,0,0,0-.89,0c-4.8,5.46-13,5.66-16.26,5.5a2,2,0,0,0-.29,4l.28,0c1.47,6.29,4.88,9.59,8.12,11.32a7.7,7.7,0,0,1-3-.82,9,9,0,0,0-4.21-.94,9,9,0,0,0-4.21.94,7.83,7.83,0,0,1-3.73.84.6.6,0,0,0,0,1.2,9,9,0,0,0,4.22-1,7.78,7.78,0,0,1,3.72-.84,7.86,7.86,0,0,1,3.73.84,8.93,8.93,0,0,0,4.21,1A9.12,9.12,0,0,0,30,44.43c.47-.16.88-.34,1.28-.52a7.73,7.73,0,0,1,3.64-.84H35a7.78,7.78,0,0,1,3.72.84c.38.17.77.34,1.21.49a8.84,8.84,0,0,0,3,.46,8.93,8.93,0,0,0,4.21-1,8.68,8.68,0,0,1,7.45,0,9,9,0,0,0,4.22,1A.6.6,0,0,0,58.82,43.66Zm-19.53-34h0l.14,0a1,1,0,0,1-.15,1.89H39A6.31,6.31,0,0,0,39.29,9.65Zm-8.86,1.92a1,1,0,0,1,0-1.91h.11a4.8,4.8,0,0,0,.05,1.14,6.6,6.6,0,0,0,.17.77ZM33.11,13h0a3.24,3.24,0,0,1-1.34-2.33,0,0,0,0,0,0,0,5.85,5.85,0,0,1,.63-3.36,4.85,4.85,0,0,0,1.46,1.69,1.51,1.51,0,0,0,1.23.28,1.54,1.54,0,0,0,1-.75,4.89,4.89,0,0,0,2,1,4.48,4.48,0,0,1-1.2,3.23A3,3,0,0,1,33.11,13Zm-9.75,1.34L20.88,13a.58.58,0,0,0-.8.24l-.08.15A1.51,1.51,0,0,1,18,14l-3.33-1.77a1.77,1.77,0,0,1-.72-2.38l1-1.81a1.74,1.74,0,0,1,2.37-.72l3.33,1.78a1.51,1.51,0,0,1,.62,2.05l-.08.14a.61.61,0,0,0,.25.81l2.7,1.44A2.71,2.71,0,0,0,23.36,14.29ZM18,31.11a.84.84,0,0,1-.75-.89.82.82,0,0,1,.87-.76c3.37.17,11.59,0,16.76-5.42,5.18,5.38,13.4,5.59,16.77,5.42a.82.82,0,0,1,.87.76.84.84,0,0,1-.75.89l-.54,0c-5.89.47-9.87-.6-12.18-1.61a11.06,11.06,0,0,1-3.71-2.42h0l-.05-.05,0,0L35.18,27h0a.53.53,0,0,0-.25-.05.69.69,0,0,0-.24.05h0l-.08.05,0,0-.06.05h0a11.06,11.06,0,0,1-3.71,2.42c-2.31,1-6.29,2.08-12.18,1.61ZM39.21,42.82A9,9,0,0,0,35,41.88h-.09a8.86,8.86,0,0,0-4.13.94,8.68,8.68,0,0,1-1.85.66c-3.42-1.2-7.73-4.09-9.48-11.07h0c.68,0,1.33.05,2,.05,7.17,0,11.17-2.28,12.91-3.62V40a.6.6,0,1,0,1.19,0V28.84c1.74,1.34,5.74,3.62,12.9,3.62.63,0,1.29,0,2-.05-1.74,6.94-6,9.84-9.42,11.05A8.55,8.55,0,0,1,39.21,42.82Z"/>
    </g>
  </g>
</svg>
