<svg xmlns="http://www.w3.org/2000/svg" width="70" height="70" viewBox="0 0 70 70">
  <defs>
    <style>
      .cls-1 {
        fill: #ffd782;
      }

      .cls-2 {
        fill: #ebb561;
      }

      .cls-3 {
        fill: #fbeb96;
      }

      .cls-4 {
        fill: none;
        stroke: #333;
        stroke-miterlimit: 10;
      }

      .cls-5 {
        fill: #333;
      }
    </style>
  </defs>
  <g id="Layer_167" data-name="Layer 167">
    <g>
      <path class="cls-1" d="M61.23,34.09s-8.07-4-10.09-4V26c2,0,10.09-4,10.09-4a2.28,2.28,0,0,1,3,2v8.07a2.28,2.28,0,0,1-3,2Zm0,0"/>
      <path class="cls-1" d="M18.86,38.12S27.94,45.18,35,45.18s-3-7.06-3-7.06Zm0,0"/>
      <path class="cls-1" d="M38,37.11s11.09,3,12.1,0a3.13,3.13,0,0,0-2-4Zm0,0"/>
      <path class="cls-1" d="M17.85,19s5-9.08,19.17-9.08S36,19,36,19Zm0,0"/>
      <path class="cls-1" d="M41.05,20s5.05-4,10.09-4,3,6.05-4,7.06Zm0,0"/>
      <path class="cls-2" d="M53.16,28c0,2-9.08,11.09-25.22,11.09S5.75,30.05,5.75,28s8.07-11.1,22.19-11.1C43.07,16.94,53.16,26,53.16,28Zm0,0"/>
      <path class="cls-3" d="M17.25,37.54a30.34,30.34,0,0,0,5.51,1.25c1.93-3.31,6-12.23.1-21.44a28.21,28.21,0,0,0-5.11,1.32c1.87,3.42,3.85,10-.5,18.87Zm0,0"/>
      <path class="cls-3" d="M38.09,37.83c-.46-6.14-.71-14,.32-19.4A37.63,37.63,0,0,0,31,17.07,49.27,49.27,0,0,0,30,25c0,5,3,5,3,8.07a27.25,27.25,0,0,1-.91,5.82,37.41,37.41,0,0,0,6-1.07Zm0,0"/>
      <path class="cls-3" d="M40.68,37.05a33,33,0,0,0,5.12-2.27,19.76,19.76,0,0,0,.34-13.1,35.59,35.59,0,0,0-4.8-2.26c1.69,3.52,3.1,9.58-.66,17.63Zm0,0"/>
      <path class="cls-4" d="M10.79,15.93a2,2,0,1,1-2-2,2,2,0,0,1,2,2Zm0,0"/>
      <path class="cls-4" d="M17.85,9.88a3,3,0,1,1-3-3,3,3,0,0,1,3,3Zm0,0"/>
      <path class="cls-5" d="M63.8,21.4a3.21,3.21,0,0,0-3-.32,75.16,75.16,0,0,1-8.65,3.73,19.21,19.21,0,0,0-1.87-1.62c3.2-1.3,4.88-3.67,4.68-5.58-.14-1.31-1.2-2.69-3.79-2.69-3.94,0-7.8,2.23-9.64,3.48-.62-.23-1.26-.46-1.92-.66C44.7,13.88,44.15,12,44,11.35c-.4-1.3-1.8-2.06-4.34-2.35l0,0,0,0A23.82,23.82,0,0,0,37,8.87c-12.1,0-17.84,6.43-19.55,8.81C9.28,20.55,4.74,26.14,4.74,28c0,2.24,4.15,8.18,13.43,10.81l.07.07c.38.3,9.44,7.27,16.76,7.27.71,0,2.89,0,3.42-1.56.18-.55.63-1.9-3.1-5.16a38.78,38.78,0,0,0,4.1-1,33.56,33.56,0,0,0,7.12,1c3.87,0,4.35-1.45,4.55-2a3.9,3.9,0,0,0-1-4.26,18.68,18.68,0,0,0,2.11-1.87A78.67,78.67,0,0,1,60.84,35a2.92,2.92,0,0,0,1.13.22,3.25,3.25,0,0,0,1.83-.57,3.16,3.16,0,0,0,1.46-2.6V24a3.16,3.16,0,0,0-1.46-2.6ZM51.14,16.94c.51,0,1.7.08,1.79.87.11,1.12-1.52,3.09-4.74,3.92a34.73,34.73,0,0,0-4.41-2.39,15.65,15.65,0,0,1,7.36-2.4ZM36,10.92c-1.15.65-2.4,1.4-3.54,2.15l1.12,1.68c2.28-1.52,5.18-3.05,6.38-3.68,1.89.3,2.09.84,2.1.87.18.58-1,2.4-4.92,5.1a38.21,38.21,0,0,0-9.16-1.11,32.23,32.23,0,0,0-6.92.75c2.54-2.43,7.24-5.49,14.94-5.76ZM31,30.8a3.38,3.38,0,0,1,1,2.28,25.42,25.42,0,0,1-.72,4.9c-1.07.09-2.16.14-3.31.14s-2.44-.07-3.58-.18c2-4,4.54-11.67.14-19.78A28.24,28.24,0,0,1,27.94,18c.62,0,1.23,0,1.83.06A43.41,43.41,0,0,0,29,25a8.21,8.21,0,0,0,2,5.78ZM16.72,36.26c-7.06-2.62-10-7.16-10-8.21s3.81-5.56,10.5-8.15C19,23.46,20,29,16.72,36.26Zm1.93.63c3.55-8,2.11-14.18.51-17.65a29,29,0,0,1,3.19-.76c4.72,8,1.77,15.69-.13,19.2a30.69,30.69,0,0,1-3.57-.79Zm17.89,7s-.28.26-1.54.26c-3.93,0-8.61-2.38-11.8-4.34a37.47,37.47,0,0,0,4.74.3,40.84,40.84,0,0,0,4.69-.27c3.2,2.5,3.89,3.86,3.91,4.05ZM37,37.06a34.56,34.56,0,0,1-3.65.7A25.43,25.43,0,0,0,34,33.08a5.32,5.32,0,0,0-1.44-3.52A6.42,6.42,0,0,1,31,25a45,45,0,0,1,.83-6.84,37.34,37.34,0,0,1,5.47,1c-.83,5.29-.62,12.43-.24,17.9Zm2.91-.81-.92.28a86.42,86.42,0,0,1,.2-16.79c.48.16.94.32,1.39.49,1.54,3.42,2.55,8.86-.67,16Zm3.24-14.94c.74.34,1.46.7,2.12,1.06A18.93,18.93,0,0,1,45,34.09c-.77.41-1.58.82-2.47,1.2a20.8,20.8,0,0,0,.67-14Zm6,15.49c-.18.53-2,1-6,.35a32.21,32.21,0,0,0,5.26-2.77,1.94,1.94,0,0,1,.74,2.42Zm-1.66-4.23a20.7,20.7,0,0,0,.24-8.69c2.66,1.8,4.22,3.49,4.4,4.16-.15.64-1.72,2.55-4.64,4.53ZM63.25,27h-5v2h5v3a1.33,1.33,0,0,1-.55.9,1.31,1.31,0,0,1-1,.21q-4-2-8.09-3.56A3.48,3.48,0,0,0,54.17,28a3.17,3.17,0,0,0-.64-1.57,86.69,86.69,0,0,0,8.09-3.56,1.28,1.28,0,0,1,1.06.17,1.34,1.34,0,0,1,.57.92Zm0,0"/>
      <rect class="cls-5" x="12.81" y="25.01" width="2.02" height="2.02"/>
    </g>
  </g>
</svg>
