<svg xmlns="http://www.w3.org/2000/svg" width="70" height="70" viewBox="0 0 70 70">
  <defs>
    <style>
      .cls-1 {
        fill: #b1d683;
      }

      .cls-2 {
        fill: #96cd82;
      }

      .cls-3 {
        fill: #f37e88;
      }

      .cls-4 {
        fill: #e6646e;
      }

      .cls-5 {
        fill: #dc4755;
      }

      .cls-6 {
        fill: #bf4150;
      }

      .cls-7 {
        fill: #2b2b2b;
      }
    </style>
  </defs>
  <g id="Layer_171" data-name="Layer 171">
    <g>
      <path class="cls-1" d="M45.13,44.58A16.72,16.72,0,0,0,59.7,47a.86.86,0,0,0,.61-.86A16.88,16.88,0,0,0,38.05,31a16.69,16.69,0,0,0,7.08,13.62Zm0,0"/>
      <path class="cls-2" d="M49.8,44.92A16.68,16.68,0,0,1,42.71,31.3,16.45,16.45,0,0,1,47,30.43a16.53,16.53,0,0,0-8.94.53,16.69,16.69,0,0,0,7.08,13.62A16.85,16.85,0,0,0,56.05,47.7a16.8,16.8,0,0,1-6.25-2.78Zm0,0"/>
      <path class="cls-1" d="M24.51,15.16a16.71,16.71,0,0,0-14-4.83.87.87,0,0,0-.75.75,16.71,16.71,0,0,0,4.83,14,16.68,16.68,0,0,0,14.61,4.73,16.71,16.71,0,0,0-4.73-14.61Zm0,0"/>
      <path class="cls-2" d="M29.18,24A15.17,15.17,0,0,1,29,25.47a16.69,16.69,0,0,1-14.61-4.73A16.83,16.83,0,0,1,9.72,11.9,16.72,16.72,0,0,0,14.63,25a16.68,16.68,0,0,0,14.61,4.73A16.21,16.21,0,0,0,29.18,24Zm0,0"/>
      <path class="cls-3" d="M47.35,15A12.35,12.35,0,1,1,35,2.6,12.35,12.35,0,0,1,47.35,15Zm0,0"/>
      <path class="cls-4" d="M38.19,24.11A12.34,12.34,0,0,1,28,4.78,12.35,12.35,0,1,0,45.18,21.94a12.29,12.29,0,0,1-7,2.17Zm0,0"/>
      <path class="cls-4" d="M24.47,8.53a1.63,1.63,0,0,0,.45.86,1.65,1.65,0,0,0,2.33,0,1.65,1.65,0,0,0,2.33-2.33,1.63,1.63,0,0,0-.8-2.76,12.38,12.38,0,0,0-4.31,4.23Zm0,0"/>
      <path class="cls-5" d="M26,9.86a12.25,12.25,0,0,1,2-5,12.32,12.32,0,0,0-3.5,3.69,1.63,1.63,0,0,0,.45.86A1.61,1.61,0,0,0,26,9.86Zm0,0"/>
      <path class="cls-4" d="M55.58,28.12A12.35,12.35,0,1,1,43.23,15.78,12.35,12.35,0,0,1,55.58,28.12Zm0,0"/>
      <path class="cls-5" d="M46.42,37.28A12.34,12.34,0,0,1,36.24,18,12.35,12.35,0,1,0,53.41,35.11a12.27,12.27,0,0,1-7,2.17Zm0,0"/>
      <path class="cls-4" d="M37.47,34.71A12.35,12.35,0,1,1,25.12,22.36,12.35,12.35,0,0,1,37.47,34.71Zm0,0"/>
      <path class="cls-5" d="M25.46,32.72a1.65,1.65,0,1,0-2.33-2.33,1.65,1.65,0,0,0-2.33,2.33,1.65,1.65,0,0,0,2.33,2.33,1.65,1.65,0,1,0,2.33-2.33Zm0,0"/>
      <path class="cls-5" d="M28.31,43.87A12.35,12.35,0,0,1,18.13,24.53,12.35,12.35,0,1,0,35.3,41.7a12.34,12.34,0,0,1-7,2.17Zm0,0"/>
      <path class="cls-6" d="M23.89,32.65a.83.83,0,1,1-.83-.82.83.83,0,0,1,.83.82Zm0,0"/>
      <path class="cls-5" d="M49.82,31.42a1.65,1.65,0,0,0,0-3.3,1.65,1.65,0,0,0-3.3,0,1.65,1.65,0,0,0,0,3.3,1.65,1.65,0,0,0,3.3,0Zm0,0"/>
      <path class="cls-6" d="M49,29.67a.82.82,0,1,1-1.64,0,.82.82,0,0,1,1.64,0Zm0,0"/>
      <path class="cls-7" d="M55.2,33.5a13.13,13.13,0,0,0-7.12-17.57c0-.32,0-.65,0-1A13.11,13.11,0,0,0,28.55,3.53a.81.81,0,0,0-.39.23,13.19,13.19,0,0,0-6,8.52A18.53,18.53,0,0,0,9.51,9.73a.79.79,0,0,0-.65.67,18.89,18.89,0,0,0,.82,8.35,18.35,18.35,0,0,0,4.63,7.35l.52.49A13.11,13.11,0,1,0,37.22,39.78a12.86,12.86,0,0,0,3.07,1.13A18.5,18.5,0,0,0,44.36,45a18.29,18.29,0,0,0,8,3.38,18.74,18.74,0,0,0,3,.24,18.94,18.94,0,0,0,5.39-.78.78.78,0,0,0,.55-.75A18.58,18.58,0,0,0,55.2,33.5ZM28.86,5.14l.17.14a.84.84,0,0,1,.26.62.87.87,0,0,1-.26.62.77.77,0,0,0-.22.54.8.8,0,0,0,.22.55.84.84,0,0,1,.26.62.87.87,0,0,1-.88.87.9.9,0,0,1-.62-.25.75.75,0,0,0-1.09,0,.87.87,0,0,1-1.23,0,.82.82,0,0,1-.16-.22,11.7,11.7,0,0,1,3.55-3.49ZM11.14,18.26a17.16,17.16,0,0,1-.81-7.08A16.9,16.9,0,0,1,21.92,14c0,.32,0,.65,0,1a13.07,13.07,0,0,0,1.85,6.72,11,11,0,0,0-1.3.2l-6.64-6.64a.77.77,0,0,0-1.09,1.09l6,6a13.06,13.06,0,0,0-4.88,3.09L15.38,25a16.83,16.83,0,0,1-4.24-6.74Zm14,28A11.58,11.58,0,1,1,36.7,34.71,11.59,11.59,0,0,1,25.12,46.29Zm7.35-22.44a11.64,11.64,0,0,1,9.58-7.24.77.77,0,0,0-.15-1.54,13.18,13.18,0,0,0-10.77,8,13.07,13.07,0,0,0-5.61-1.45,11.55,11.55,0,0,1-1-11.54,2.42,2.42,0,0,0,2.74.28,2.33,2.33,0,0,0,1.16.3,2.42,2.42,0,0,0,2.42-2.41,2.34,2.34,0,0,0-.3-1.17,2.33,2.33,0,0,0,.3-1.16,2.39,2.39,0,0,0-.54-1.52,11.4,11.4,0,0,1,4.71-1A11.59,11.59,0,0,1,46.58,15c0,.16,0,.32,0,.48l-.79-.18a.77.77,0,0,0-.9.61.78.78,0,0,0,.61.91A11.58,11.58,0,0,1,43.23,39.7a11.71,11.71,0,0,1-5.5-1.38,13.09,13.09,0,0,0-5.26-14.47Zm20.14,23a16.81,16.81,0,0,1-7.33-3.1,16.56,16.56,0,0,1-2.78-2.57l.73,0a13,13,0,0,0,6-1.43l4.58,3.47a.79.79,0,0,0,.46.15.76.76,0,0,0,.62-.3.78.78,0,0,0-.15-1.08L50.62,39a13.26,13.26,0,0,0,3.84-4.05,17.08,17.08,0,0,1,5.27,11.64,17.46,17.46,0,0,1-7.12.34Zm0,0"/>
      <path class="cls-7" d="M26,29.85a2.41,2.41,0,0,0-1.71-.71h0a2.45,2.45,0,0,0-1.17.3,2.42,2.42,0,0,0-3.28,3.28A2.42,2.42,0,0,0,23.13,36a2.53,2.53,0,0,0,1.17.29A2.42,2.42,0,0,0,26,35.6a2.45,2.45,0,0,0,.41-2.88A2.44,2.44,0,0,0,26,29.85Zm-1.09,3.42a.88.88,0,0,1-1.24,1.24.76.76,0,0,0-1.09,0,.88.88,0,1,1-1.24-1.24.77.77,0,0,0,0-1.09.88.88,0,0,1,1.24-1.24.77.77,0,0,0,1.09,0,.84.84,0,0,1,.62-.26.87.87,0,0,1,.62.26.88.88,0,0,1,0,1.24.77.77,0,0,0,0,1.09Zm0,0"/>
      <path class="cls-7" d="M45.85,32.09a2.42,2.42,0,0,0,4.64,0,2.42,2.42,0,0,0,0-4.64,2.42,2.42,0,0,0-4.64,0,2.42,2.42,0,0,0,0,4.64Zm.67-3.2a.76.76,0,0,0,.77-.77.88.88,0,0,1,1.76,0,.76.76,0,0,0,.77.77.88.88,0,0,1,0,1.76.76.76,0,0,0-.77.77.88.88,0,0,1-1.76,0,.76.76,0,0,0-.77-.77.88.88,0,0,1,0-1.76Zm0,0"/>
    </g>
  </g>
</svg>
