<svg xmlns="http://www.w3.org/2000/svg" width="70" height="70" viewBox="0 0 70 70">
  <defs>
    <style>
      .cls-1 {
        fill: #fcce79;
      }

      .cls-2 {
        fill: #e6a3a4;
      }

      .cls-3 {
        fill: #d39073;
      }

      .cls-4 {
        fill: #b37a60;
      }

      .cls-5 {
        fill: #946b5b;
      }

      .cls-6 {
        fill: #856759;
      }

      .cls-7 {
        fill: #f7cca9;
      }

      .cls-8 {
        fill: #333;
      }
    </style>
  </defs>
  <g id="Layer_160" data-name="Layer 160">
    <g>
      <path class="cls-1" d="M37,21.2a7.8,7.8,0,1,1-7.8-7.8A7.8,7.8,0,0,1,37,21.2Zm0,0"/>
      <path class="cls-2" d="M48.65,21.2a7.8,7.8,0,1,1-7.8-7.8,7.8,7.8,0,0,1,7.8,7.8Zm0,0"/>
      <rect class="cls-3" x="23.3" y="30.96" width="23.4" height="3.9"/>
      <path class="cls-4" d="M46.7,31H23.3a2,2,0,0,1,0-3.91H46.7a2,2,0,0,1,0,3.91Zm0,0"/>
      <path class="cls-4" d="M44.75,34.86,43,40.07h0l-.95,2.87-1.41,4.21h0l-1,2.94-1.58,4.73-1,3-.15.44h-3.9l-7.8-23.4Zm0,0"/>
      <path class="cls-3" d="M38.09,54.82l-1,3a1.74,1.74,0,0,1-.1-.19L29.2,35.18a1.25,1.25,0,0,1-.05-.32h2Zm0,0"/>
      <path class="cls-3" d="M40.65,47.15h0l-1,2.94L34.09,35.2a1,1,0,0,1-.07-.34h2Zm0,0"/>
      <path class="cls-3" d="M43,40.07h0l-.95,2.87L39,35.22a.92.92,0,0,1-.07-.36h2Zm0,0"/>
      <path class="cls-5" d="M36.71,19.25H35a2,2,0,0,0-1.38.58,1.91,1.91,0,0,0-.57,1.37,1.95,1.95,0,1,1-3.9,0,1.95,1.95,0,0,0-3.9,0,1.95,1.95,0,0,1-3.9,0,7.81,7.81,0,0,1,15.36-1.95Zm0,0"/>
      <path class="cls-6" d="M48.41,19.25H46.7a2,2,0,0,0-2,1.95,1.95,1.95,0,0,1-3.9,0,1.95,1.95,0,0,0-3.9,0,1.95,1.95,0,1,1-3.9,0,7.81,7.81,0,0,1,15.36-1.95Zm0,0"/>
      <path class="cls-7" d="M42.8,9.5A7.8,7.8,0,1,1,35,1.7a7.8,7.8,0,0,1,7.8,7.8Zm0,0"/>
      <path class="cls-6" d="M42.56,7.55H40.85a2,2,0,0,0-1.38.57A2,2,0,0,0,38.9,9.5a1.95,1.95,0,1,1-3.9,0,1.95,1.95,0,1,0-3.9,0,1.95,1.95,0,0,1-3.9,0A7.81,7.81,0,0,1,42.56,7.55Zm0,0"/>
      <path class="cls-8" d="M48,26.36a8.77,8.77,0,0,0-4.79-13.62,8.84,8.84,0,0,0,.44-5l.61-.31a1,1,0,0,0,.44-1.31,1,1,0,0,0-1.31-.43L43,5.88a8.75,8.75,0,0,0-2.27-3l.57-.29A.94.94,0,0,0,41.78,2,1,1,0,0,0,40.41.83l-1.57.79a8.71,8.71,0,0,0-7.68,0L29.59.83a1,1,0,0,0-.88,1.74l.57.29a8.75,8.75,0,0,0-2.27,3l-.35-.17a1,1,0,1,0-.87,1.74l.61.31a8.84,8.84,0,0,0,.44,5,8.76,8.76,0,0,0-6.47,8.46c0,.06,0,.11,0,.16a8.74,8.74,0,0,0,1.67,5,2.93,2.93,0,0,0,.27,5.4v3.1a1,1,0,0,0,1,1h1.25l7.58,22.74a1,1,0,0,0,.92.66H37a1,1,0,0,0,.92-.66l7.58-22.74H46.7a1,1,0,0,0,1-1v-3.1a2.93,2.93,0,0,0,.27-5.4Zm-23.58-.28a6.77,6.77,0,0,1-1.39-2,2.91,2.91,0,0,0,2.27-.73,2.87,2.87,0,0,0,1-2.18,1,1,0,0,1,2,0,2.93,2.93,0,0,0,4.3,2.59,8.89,8.89,0,0,0,1.08,2.29Zm11.71,0-.35-.36a6.9,6.9,0,0,1-1.06-1.61,2.92,2.92,0,0,0,3.26-2.91,1,1,0,0,1,2,0,2.93,2.93,0,1,0,5.85,0,1,1,0,0,1,1-1h.91a6.84,6.84,0,0,1-2,5.85ZM47,18.28H46.7a2.92,2.92,0,0,0-2.92,2.92,1,1,0,1,1-2,0,2.93,2.93,0,0,0-5.85,0,1,1,0,1,1-2,0,6.79,6.79,0,0,1,.67-2.93H35a8.77,8.77,0,0,0,7.2-3.77A6.83,6.83,0,0,1,47,18.28ZM41.75,8.53a6.82,6.82,0,0,1-12.92,3.88,2.91,2.91,0,0,0,2.27-.73,2.87,2.87,0,0,0,1-2.18,1,1,0,0,1,2,0,2.93,2.93,0,0,0,5.86,0,1,1,0,0,1,1-1Zm-13.5,0a1,1,0,0,0,.5-1.75,6.82,6.82,0,0,1,12.42-.19h-.32A2.92,2.92,0,0,0,37.93,9.5a1,1,0,1,1-2,0,2.93,2.93,0,0,0-5.86,0,1,1,0,1,1-1.95,0,6.58,6.58,0,0,1,.08-1Zm-.45,6A8.85,8.85,0,0,0,32.69,18a8.75,8.75,0,0,0-.62,3.23,1,1,0,1,1-1.95,0,2.93,2.93,0,0,0-5.85,0,1,1,0,1,1-1.95,0,6.82,6.82,0,0,1,5.48-6.69Zm5.95,42.77L26.6,35.83h2.83l7.13,20.52-.31.93Zm5.47-21.45,2.28,5.7L40.11,45.7l-3.7-9.87Zm-4.9,0,4.81,12.81-1.56,4.67L31.5,35.83Zm8.13,2.84-1.13-2.84H43.4ZM24.27,33.88v-2H45.73v2ZM46.7,30H23.3a1,1,0,1,1,0-1.95H46.7a1,1,0,1,1,0,1.95Zm0,0"/>
      <path class="cls-8" d="M33.59,5.5l1.95,1a1,1,0,0,0,.75,0A.93.93,0,0,0,36.85,6a1,1,0,0,0,.06-.75,1.05,1.05,0,0,0-.5-.56l-1.95-1a1,1,0,0,0-.87,1.74Zm0,0"/>
    </g>
  </g>
</svg>
