<svg xmlns="http://www.w3.org/2000/svg" width="70" height="70" viewBox="0 0 70 70">
  <defs>
    <style>
      .cls-1 {
        fill: #dedede;
      }

      .cls-2 {
        fill: #bdbdbd;
      }

      .cls-3 {
        fill: #a3a3a3;
      }

      .cls-4 {
        fill: #2b2b2b;
      }
    </style>
  </defs>
  <g id="Layer_177" data-name="Layer 177">
    <g>
      <path class="cls-1" d="M13.71,46.66V23.85l2.47-1.57,2.47,1.57V46.66l-2.47,1.73Zm0,0"/>
      <path class="cls-1" d="M56.29,46.66V23.85l-2.47-1.57-2.47,1.57V46.66l2.47,1.73Zm0,0"/>
      <path class="cls-1" d="M26.25,46.66V23.85l2.48-1.57,2.47,1.57V46.66l-2.47,1.73Zm0,0"/>
      <path class="cls-1" d="M38.8,46.66V23.85l2.47-1.57,2.48,1.57V46.66l-2.48,1.73Zm0,0"/>
      <path class="cls-2" d="M13.71,23.85v2.56h4.94V23.85l-2.47-1.57Zm0,0"/>
      <path class="cls-2" d="M51.35,23.85v2.56h4.94V23.85l-2.47-1.57Zm0,0"/>
      <path class="cls-2" d="M26.25,23.85v2.56H31.2V23.85l-2.47-1.57Zm0,0"/>
      <path class="cls-2" d="M38.8,23.85v2.56h5V23.85l-2.48-1.57Zm0,0"/>
      <path class="cls-3" d="M16.18,18.89l-4,1.81v1.66a1.5,1.5,0,0,0,1.5,1.49h4.94a1.49,1.49,0,0,0,1.49-1.49V20.7Zm0,0"/>
      <path class="cls-3" d="M53.82,18.89l4,1.81v1.66a1.5,1.5,0,0,1-1.5,1.49H51.35a1.49,1.49,0,0,1-1.49-1.49V20.7Zm0,0"/>
      <path class="cls-3" d="M28.73,18.89l-4,1.81v1.66a1.49,1.49,0,0,0,1.49,1.49H31.2a1.49,1.49,0,0,0,1.49-1.49V20.7Zm0,0"/>
      <path class="cls-3" d="M41.27,18.89l-4,1.81v1.66a1.49,1.49,0,0,0,1.49,1.49h5a1.49,1.49,0,0,0,1.49-1.49V20.7Zm0,0"/>
      <path class="cls-1" d="M36.69,3.5a3.3,3.3,0,0,0-3.38,0L10.64,17.08l5.54,1.81H53.82l5.54-1.81Zm0,0"/>
      <path class="cls-2" d="M59.36,17.08H10.64a1,1,0,0,0-1,1V19.7a1,1,0,0,0,1,1H59.36a1,1,0,0,0,1-1V18.09a1,1,0,0,0-1-1Zm0,0"/>
      <path class="cls-2" d="M13.71,44.1v2.56l2.47,1.73,2.47-1.73V44.1Zm0,0"/>
      <path class="cls-2" d="M26.25,44.1v2.56l2.48,1.73,2.47-1.73V44.1Zm0,0"/>
      <path class="cls-2" d="M43.75,46.66V44.1h-5v2.56l2.47,1.73Zm0,0"/>
      <path class="cls-2" d="M56.29,44.1H51.35v2.56l2.47,1.73,2.47-1.73Zm0,0"/>
      <path class="cls-1" d="M56.29,46.66H13.71a1,1,0,0,0-1,1v1.61a1,1,0,0,0,1,1L35,52.09l21.29-1.81a1,1,0,0,0,1-1V47.67a1,1,0,0,0-1-1Zm0,0"/>
      <path class="cls-2" d="M59.36,50.28H10.64a1,1,0,0,0-1,1V52.9a1,1,0,0,0,1,1H59.36a1,1,0,0,0,1-1V51.29a1,1,0,0,0-1-1Zm0,0"/>
      <path class="cls-4" d="M8.87,51.29V52.9a1.77,1.77,0,0,0,1.77,1.77H59.36a1.77,1.77,0,0,0,1.77-1.77V51.29a1.77,1.77,0,0,0-1.77-1.77H58.05a1.94,1.94,0,0,0,0-.24V47.67a1.78,1.78,0,0,0-1-1.6V24.48a2.26,2.26,0,0,0,1.49-2.12v-.89h.81a1.77,1.77,0,0,0,1.77-1.77V18.09a1.78,1.78,0,0,0-1.53-1.76L43.05,6.42a.76.76,0,0,0-.79,1.31l14.32,8.59H13.42L33.7,4.16a2.53,2.53,0,0,1,2.6,0l3.48,2.09a.76.76,0,0,0,1-.27.77.77,0,0,0-.26-1.05L37.09,2.84a4.07,4.07,0,0,0-4.18,0L10.4,16.33a1.78,1.78,0,0,0-1.53,1.76V19.7a1.77,1.77,0,0,0,1.77,1.77h.81v.89a2.26,2.26,0,0,0,1.49,2.12V46.07a1.78,1.78,0,0,0-1,1.6v1.61a1.94,1.94,0,0,0,0,.24H10.64a1.77,1.77,0,0,0-1.77,1.77ZM44.51,45.9V24.48A2.26,2.26,0,0,0,46,22.36v-.89h3.09v.89a2.26,2.26,0,0,0,1.49,2.12V45.9ZM32,45.9V24.48a2.27,2.27,0,0,0,1.49-2.12v-.89h3.08v.89A2.27,2.27,0,0,0,38,24.48V45.9Zm-12.55,0V24.48a2.26,2.26,0,0,0,1.49-2.12v-.89H24v.89a2.26,2.26,0,0,0,1.49,2.12V45.9Zm-5-21.28h3.41V45.9H14.47Zm17.45-2.26a.72.72,0,0,1-.72.72H26.25a.72.72,0,0,1-.72-.72v-.89h6.39ZM27,24.62h3.41V45.9H27Zm17.45-2.26a.72.72,0,0,1-.72.72h-5a.72.72,0,0,1-.72-.72v-.89h6.39Zm-4.9,2.26H43V45.9H39.57Zm12.55,0h3.41V45.9H52.12ZM57,22.36a.73.73,0,0,1-.73.72H51.35a.72.72,0,0,1-.72-.72v-.89H57ZM10.41,19.7V18.09a.23.23,0,0,1,.23-.24H59.36a.23.23,0,0,1,.23.24V19.7a.23.23,0,0,1-.23.24H10.64a.23.23,0,0,1-.23-.24Zm9,1.77v.89a.72.72,0,0,1-.72.72H13.71a.73.73,0,0,1-.73-.72v-.89Zm-5.9,27.81V47.67a.24.24,0,0,1,.24-.24H56.29a.24.24,0,0,1,.24.24v1.61a.24.24,0,0,1-.24.24H22.72a.77.77,0,1,0,0,1.53H59.36a.23.23,0,0,1,.23.24V52.9a.23.23,0,0,1-.23.24H10.64a.23.23,0,0,1-.23-.24V51.29a.23.23,0,0,1,.23-.24h9a.77.77,0,0,0,0-1.53H13.71a.24.24,0,0,1-.24-.24Zm0,0"/>
    </g>
  </g>
</svg>