<svg xmlns="http://www.w3.org/2000/svg" width="70" height="70" viewBox="0 0 70 70">
  <defs>
    <style>
      .cls-1 {
        fill: #333;
      }

      .cls-2 {
        fill: #b78463;
      }

      .cls-3 {
        fill: #f9be64;
      }
    </style>
  </defs>
  <g id="Layer_163" data-name="Layer 163">
    <g>
      <path class="cls-1" d="M63.84,13.1V41.94A2.88,2.88,0,0,1,61,44.83H9a2.88,2.88,0,0,1-2.88-2.89V13.1A2.88,2.88,0,0,1,9,10.22H11V8.3a1,1,0,0,1,1-1h6.73a1,1,0,0,1,1,1v1.92h5.76V5.41a1,1,0,0,1,1-1h17.3a1,1,0,0,1,1,1v4.81h5.77V8.3a1,1,0,0,1,1-1h6.73a1,1,0,0,1,1,1v1.92H61A2.88,2.88,0,0,1,63.84,13.1ZM61.92,41.94V13.1a1,1,0,0,0-1-1H57.11V42.91H61A1,1,0,0,0,61.92,41.94ZM57.11,10.22v-1H52.3v1h4.81ZM55.19,42.91V12.14h-1V42.91Zm-2.89,0V12.14H17.69V42.91ZM42.69,10.22V6.37H27.31v3.85Zm-25,0v-1h-4.8v1h4.8ZM15.77,42.91V12.14h-1V42.91Zm-2.88,0V12.14H9a1,1,0,0,0-1,1V41.94a1,1,0,0,0,1,1Z"/>
      <path class="cls-2" d="M61.92,13.1V41.94a1,1,0,0,1-1,1H57.11V12.14H61A1,1,0,0,1,61.92,13.1Z"/>
      <polygon class="cls-3" points="57.11 9.26 57.11 10.22 56.15 10.22 53.27 10.22 52.3 10.22 52.3 9.26 57.11 9.26"/>
      <rect class="cls-3" x="54.23" y="12.14" width="0.96" height="30.77"/>
      <polygon class="cls-2" points="52.3 12.14 52.3 42.91 17.7 42.91 17.7 12.14 18.66 12.14 26.35 12.14 43.65 12.14 51.34 12.14 52.3 12.14"/>
      <polygon class="cls-3" points="17.7 9.26 17.7 10.22 16.73 10.22 13.85 10.22 12.89 10.22 12.89 9.26 17.7 9.26"/>
      <rect class="cls-3" x="14.81" y="12.14" width="0.96" height="30.77"/>
      <path class="cls-2" d="M12.89,12.14V42.91H9a1,1,0,0,1-1-1V13.1a1,1,0,0,1,1-1h3.85Z"/>
    </g>
  </g>
</svg>
