<svg xmlns="http://www.w3.org/2000/svg" width="70" height="70" viewBox="0 0 70 70">
  <defs>
    <style>
      .cls-1 {
        fill: #b2bd6f;
      }

      .cls-2 {
        fill: #333;
      }

      .cls-3 {
        fill: #e9edf1;
      }

      .cls-3, .cls-4, .cls-5, .cls-6 {
        stroke: #333;
        stroke-linejoin: round;
      }

      .cls-4 {
        fill: #f4bd57;
      }

      .cls-5 {
        fill: #636a6e;
      }

      .cls-6 {
        fill: #6a7173;
      }
    </style>
  </defs>
  <g id="Layer_169" data-name="Layer 169">
    <path class="cls-1" d="M62.1,19.75,61,16.34a4.17,4.17,0,0,0-4-2.85H8.94a4.17,4.17,0,0,0-4.17,4.17V46.85H65.23V30.17Z"/>
    <g>
      <path class="cls-2" d="M65.23,29.59h-39V20.33H62.1a.58.58,0,0,0,.47-.24.59.59,0,0,0,.08-.53l-1.13-3.4h0A4.75,4.75,0,0,0,57,12.91H8.94a4.75,4.75,0,0,0-4.75,4.75V46.85a.58.58,0,0,0,.58.58H65.23a.58.58,0,0,0,.58-.58V30.17A.58.58,0,0,0,65.23,29.59ZM5.35,17.66a3.59,3.59,0,0,1,3.59-3.59H57a3.59,3.59,0,0,1,3.41,2.46l.88,2.64H25.62a.58.58,0,0,0-.58.58V46.27H5.35ZM26.2,30.75H45.89V46.27H26.2ZM64.65,46.27H47.05V30.75h17.6Z"/>
      <path class="cls-3" d="M65.23,30.17H46.47V19.75H62.1L63.67,25,64.29,27Zm0,0"/>
      <path class="cls-4" d="M63.14,42.68h2.09v4.17H61.06V44.76a2.08,2.08,0,0,1,2.08-2.08Zm0,0"/>
      <path class="cls-4" d="M4.77,42.68H8.94A2.09,2.09,0,0,1,11,44.76v2.09H4.77Zm0,0"/>
      <rect class="cls-3" x="25.62" y="19.75" width="20.85" height="10.42"/>
      <path class="cls-5" d="M57.93,46.85a6.26,6.26,0,1,1-6.25-6.25,6.25,6.25,0,0,1,6.25,6.25Zm0,0"/>
      <path class="cls-6" d="M53.76,46.85a2.09,2.09,0,1,1-2.08-2.09,2.08,2.08,0,0,1,2.08,2.09Zm0,0"/>
      <path class="cls-5" d="M26.66,46.85a6.26,6.26,0,1,1-6.25-6.25,6.25,6.25,0,0,1,6.25,6.25Zm0,0"/>
      <path class="cls-6" d="M22.49,46.85a2.09,2.09,0,1,1-2.08-2.09,2.08,2.08,0,0,1,2.08,2.09Zm0,0"/>
      <rect class="cls-3" x="11.03" y="19.75" width="14.59" height="10.42"/>
      <path class="cls-2" d="M52.72,33.3H50.64a1,1,0,1,0,0,2.08h2.08a1,1,0,0,0,0-2.08Zm0,0"/>
      <path class="cls-2" d="M42.3,33.3H40.21a1,1,0,0,0,0,2.08H42.3a1,1,0,0,0,0-2.08Zm0,0"/>
    </g>
  </g>
</svg>