<svg xmlns="http://www.w3.org/2000/svg" width="70" height="70" viewBox="0 0 70 70">
  <defs>
    <style>
      .cls-1 {
        fill: #efb55f;
      }

      .cls-2 {
        fill: #ec815e;
      }

      .cls-3 {
        fill: #333;
      }
    </style>
  </defs>
  <g id="Layer_162" data-name="Layer 162">
    <g>
      <path class="cls-1" d="M61.4,25.05c0,6.42-12.77,11.62-28.51,11.62S4.38,31.47,4.38,25.05,17.14,13.44,32.89,13.44,61.4,18.64,61.4,25.05Zm0,0"/>
      <path class="cls-1" d="M33.42,3.94a13.19,13.19,0,0,1,13.19,13.2A6.86,6.86,0,0,1,39.75,24H27.08a6.86,6.86,0,0,1-6.86-6.86,13.2,13.2,0,0,1,13.2-13.2Zm0,0"/>
      <path class="cls-2" d="M20.22,15.55l-1.06,6.34.66.29a45.62,45.62,0,0,0,18.52,3.93h4l5.28-3.17-1.06-6.33-1.55,1.16a10.66,10.66,0,0,0-3.72,5.17H36.06l-.51-.51A10.75,10.75,0,0,0,31.83,20Zm0,0"/>
      <path class="cls-2" d="M35,21.89l-1.62,3.57a58.78,58.78,0,0,1-9.53,14.65L21.27,43,27.61,42l1.05,4.22,1.25-1.59a58.39,58.39,0,0,0,9.31-17.41Zm0,0"/>
      <path class="cls-2" d="M39.22,27.17l9.44,4.4A64.5,64.5,0,0,0,62,36.09l2.62.58-1.06-4.22,2.11-3.17a64.78,64.78,0,0,1-18.29-4.82l-6-2.57Zm0,0"/>
      <path class="cls-2" d="M35.79,21.89H41.6a.79.79,0,0,1,.79.79v3.69a.79.79,0,0,1-.79.8H35.79a.79.79,0,0,1-.79-.8V22.68a.79.79,0,0,1,.79-.79Zm0,0"/>
      <path class="cls-3" d="M3.32,25.05c0,3.14,2.43,6,7,8.3a45.74,45.74,0,0,0,14.54,3.92c-.59.72-1.19,1.44-1.81,2.14L20.48,42.3a1.07,1.07,0,0,0-.13,1.22,1.06,1.06,0,0,0,1.1.53l5.37-.9.82,3.28a1.05,1.05,0,0,0,1.86.39l1.24-1.59a59.21,59.21,0,0,0,5-7.56,55.29,55.29,0,0,0,17.12-3.19,65,65,0,0,0,8.87,2.64l2.61.58a1.05,1.05,0,0,0,1.25-1.29l-.94-3.77,1.85-2.78a1,1,0,0,0,.08-1,1.07,1.07,0,0,0-.84-.6c-1.3-.15-2.6-.33-3.88-.56a6,6,0,0,0,.59-2.62c0-4.75-5.65-8.88-15.14-11.1a14.26,14.26,0,0,0-27.73-.25A34.66,34.66,0,0,0,8.24,17.94C5,20,3.32,22.46,3.32,25.05ZM29.16,43.81l-.53-2.12a1,1,0,0,0-1.19-.78l-3.39.56.59-.66c1.07-1.2,2.09-2.45,3.05-3.73l0-.07A59.2,59.2,0,0,0,34,26.68a1.85,1.85,0,0,0,1.82,1.54h2a57.45,57.45,0,0,1-8.58,15.59Zm6.9-17.7V22.94h5.28v3.17Zm.84,9.39a61.31,61.31,0,0,0,2.94-6.88l8.38,3.91c.55.26,1.1.51,1.66.75a55.89,55.89,0,0,1-13,2.22ZM60.34,25.05a4.31,4.31,0,0,1-.65,2.21,64.08,64.08,0,0,1-11.33-3.52,1.05,1.05,0,0,0,.35-1l-1.05-6.34h0c0-.07,0-.15,0-.22,7.76,2,12.7,5.38,12.7,8.85Zm3.46,5.06-1.17,1.75a1,1,0,0,0-.14.84l.64,2.57-1-.21a63.55,63.55,0,0,1-13.07-4.44l-6.23-2.91a1.87,1.87,0,0,0,.57-1.34V23.94l3.46,1.49A65.62,65.62,0,0,0,63.8,30.11ZM45.86,18.49l.65,3.92-.53.32-2.85-1.22a9.61,9.61,0,0,1,2.57-2.89ZM33.42,5a12.17,12.17,0,0,1,12.1,11.12l-1.09.82a11.83,11.83,0,0,0-3.34,3.9h-5.3a1.83,1.83,0,0,0-.4.05A11.66,11.66,0,0,0,32.21,19L21.48,14.91A12.14,12.14,0,0,1,33.42,5ZM21.05,17l10.4,4a9.78,9.78,0,0,1,2.24,1.23l-1.12,2.45a44.47,44.47,0,0,1-12.23-3.43ZM9.38,19.72A31.38,31.38,0,0,1,19.08,16l-1,5.73a1,1,0,0,0,.61,1.14l.66.29a46.3,46.3,0,0,0,12.24,3.54,57.6,57.6,0,0,1-5.25,8.63c-12-1.17-20.95-5.53-20.95-10.26,0-2.31,2.15-4.18,4-5.33Zm0,0"/>
      <path class="cls-3" d="M10.71,28.22h1.06a1.06,1.06,0,1,0,0-2.11H10.71a1.06,1.06,0,0,0,0,2.11Zm0,0"/>
      <path class="cls-3" d="M16,28.22a1.06,1.06,0,0,0,0,2.11h1.06a1.06,1.06,0,0,0,0-2.11Zm0,0"/>
      <path class="cls-3" d="M14.94,26.11H16A1.06,1.06,0,1,0,16,24H14.94a1.06,1.06,0,1,0,0,2.11Zm0,0"/>
      <path class="cls-3" d="M32.89,11.36a1.07,1.07,0,0,0-1-1.1,9.36,9.36,0,0,1-3.79-.9,1.06,1.06,0,0,0-1,1.88,11.43,11.43,0,0,0,4.67,1.13h0a1.06,1.06,0,0,0,1.06-1Zm0,0"/>
      <path class="cls-3" d="M36.06,11.8a1,1,0,0,0,.34-.06,6.78,6.78,0,0,0,3-1.83,1.05,1.05,0,1,0-1.58-1.39,5,5,0,0,1-2.06,1.23,1.05,1.05,0,0,0,.35,2.05Zm0,0"/>
    </g>
  </g>
</svg>
