<svg xmlns="http://www.w3.org/2000/svg" xmlns:xlink="http://www.w3.org/1999/xlink" width="250" height="250" viewBox="0 0 250 250">
  <defs>
    <style>
      .cls-1 {
        fill: none;
      }

      .cls-2 {
        fill: #f7f3e8;
      }

      .cls-13, .cls-14, .cls-19, .cls-2, .cls-3, .cls-9 {
        stroke: #4d2419;
      }

      .cls-13, .cls-14, .cls-2, .cls-3, .cls-9 {
        stroke-linejoin: round;
      }

      .cls-2, .cls-3, .cls-9 {
        stroke-width: 1.5px;
      }

      .cls-3 {
        fill: #e5ecf6;
      }

      .cls-4 {
        clip-path: url(#clip-path);
      }

      .cls-5 {
        fill: #3279af;
      }

      .cls-6 {
        fill: #4893cc;
      }

      .cls-7 {
        fill: #d84761;
      }

      .cls-8 {
        fill: #4d2419;
      }

      .cls-9 {
        fill: #e3f1e0;
      }

      .cls-10, .cls-19 {
        fill: #f89723;
      }

      .cls-11 {
        fill: #dd7f27;
      }

      .cls-12 {
        fill: #e17084;
      }

      .cls-13, .cls-17 {
        fill: #ffcb5d;
      }

      .cls-13, .cls-14 {
        stroke-linecap: round;
      }

      .cls-14, .cls-16 {
        fill: #ffdca3;
      }

      .cls-15 {
        fill: #faae52;
      }

      .cls-18 {
        fill: #fcb216;
      }

      .cls-19 {
        stroke-miterlimit: 10;
      }

      .cls-20 {
        fill: #389348;
      }
    </style>
    <clipPath id="clip-path">
      <rect class="cls-1" x="82.12" y="99.33" width="133.98" height="84.61" transform="translate(-14.05 16.44) rotate(-6.03)"/>
    </clipPath>
  </defs>
  <g id="Layer_223" data-name="Layer 223">
    <g>
      <rect class="cls-2" x="71.31" y="89.07" width="155.6" height="105.15" transform="translate(-14.05 16.44) rotate(-6.03)"/>
      <rect class="cls-3" x="82.12" y="99.33" width="133.98" height="84.61" transform="translate(-14.05 16.44) rotate(-6.03)"/>
      <g class="cls-4">
        <g>
          <path class="cls-5" d="M149,149.86l26.65-42.1,33.71,7.38L198.78,148Zm0,0"/>
          <path class="cls-6" d="M154.14,141.74a40.15,40.15,0,0,0,46.31-28.54l-24.82-5.44Zm0,0"/>
          <path class="cls-7" d="M104.42,175.51l.58,10,7.73-4.45Zm0,0"/>
          <path class="cls-7" d="M96.1,170l8.32,5.52-.59-10Zm0,0"/>
          <path class="cls-7" d="M117.09,160.49l.59,10,7.73-4.45Zm0,0"/>
          <path class="cls-7" d="M108.77,155l8.32,5.52-.58-10Zm0,0"/>
          <path class="cls-7" d="M149,149.86l.59,10,7.73-4.45Zm0,0"/>
          <path class="cls-7" d="M140.67,144.35l8.31,5.51-.58-10Zm0,0"/>
          <path class="cls-7" d="M136.24,160.75l.59,10,7.73-4.45Zm0,0"/>
          <path class="cls-7" d="M127.93,155.23l8.31,5.52-.58-10Zm0,0"/>
          <path class="cls-8" d="M210.17,114.68a.94.94,0,0,0-.62-.46l-33.71-7.38a.91.91,0,0,0-1,.42L168.67,117l1.61,1,5.58-8.84a74.77,74.77,0,0,1,13.85,16.14l-37.83,21.76,16.06-25.36-1.6-1-16.59,26.2-.42-7.07a.92.92,0,0,0-.49-.78,1,1,0,0,0-.93,0l-7.72,4.45a1,1,0,0,0-.05,1.62l7.66,5.08a20.14,20.14,0,0,1-3.72,5.61,12.82,12.82,0,0,1-7,4l-.54-9.09a.93.93,0,0,0-.49-.78,1,1,0,0,0-.93,0l-7.72,4.44a1,1,0,0,0-.47.8.92.92,0,0,0,.42.82l5.91,3.92a17,17,0,0,1-2.35-.45c-5.26-1.42-9.52-1.45-13-.14l-.53-8.88a.93.93,0,0,0-.49-.78,1,1,0,0,0-.93,0l-7.73,4.44a1,1,0,0,0-.47.8,1,1,0,0,0,.43.82l7.27,4.82c-2.74,1.8-4.81,4.69-6.25,8.87-1.2,3.46-3,4.58-4,4.95l-.53-8.91a1,1,0,0,0-1.41-.78l-7.73,4.45a1,1,0,0,0-.47.8.94.94,0,0,0,.42.82l7.94,5.26.56,9.5a.92.92,0,0,0,.49.78.52.52,0,0,0,.2.07,1,1,0,0,0,.73-.07l7.72-4.45a1,1,0,0,0,.47-.8.94.94,0,0,0-.42-.82l-6.63-4.4c1.42-.72,3.21-2.29,4.41-5.79,1.11-3.2,2.8-6.52,6.18-8.36l6.41,4.25-5.09,2.92-.23-3.94-1.89.11.32,5.48a1,1,0,0,0,.5.78.52.52,0,0,0,.2.08,1.06,1.06,0,0,0,.75-.1l7.73-4.44a1,1,0,0,0,.47-.8,1,1,0,0,0-.43-.82l-6.62-4.39c2.74-.81,6.33-.83,11.13.47a16.49,16.49,0,0,0,4.9.59l.52,8.89a1,1,0,0,0,.5.78.52.52,0,0,0,.2.08,1.06,1.06,0,0,0,.72-.08L145,167.1a.94.94,0,0,0,.47-.79,1,1,0,0,0-.42-.83l-6.29-4.16a15.32,15.32,0,0,0,6.66-4.21,21,21,0,0,0,2.79-3.7l.39,6.48a.93.93,0,0,0,.49.78.77.77,0,0,0,.2.07,1,1,0,0,0,.72-.07l7.73-4.45a1,1,0,0,0,.05-1.62L152,150.71l26.36-1c-7.61,11.1-20.91,26.52-43.51,43.18l1.12,1.52a222.52,222.52,0,0,0,30-26.28,147.66,147.66,0,0,0,14.78-18.51l18.14-.68a.92.92,0,0,0,.86-.65l10.57-32.85A1,1,0,0,0,210.17,114.68ZM97.91,170l5.08-2.92.38,6.53Zm7.94,13.83-.38-6.53,5.46,3.61Zm9.82-31.77.37,6.53-5.46-3.6Zm22,17-.38-6.53,5.46,3.61Zm-2.86-16.75.37,6.53-5.46-3.61ZM192.32,126l15.39-8.85L199,144.27A72.76,72.76,0,0,0,192.32,126ZM179,109.47l27.72,6.08-15.36,8.83A72.64,72.64,0,0,0,179,109.47Zm-31.44,32,.37,6.53-5.45-3.61Zm2.86,16.75L150,151.7l5.46,3.61Zm2.32-9.45,36.84-21.19a76.44,76.44,0,0,1-8.48,17.87c-.46.75-1,1.52-1.48,2.31Zm30.06-2.43a78.39,78.39,0,0,0,8.57-18.07,76.06,76.06,0,0,1,6.3,18.82l-15.72.59C182.23,147.24,182.53,146.8,182.8,146.35Z"/>
        </g>
      </g>
    </g>
    <g>
      <g>
        <rect class="cls-2" x="32.1" y="48.07" width="155.6" height="105.15" transform="translate(-0.2 0.22) rotate(-0.12)"/>
        <rect class="cls-9" x="42.91" y="58.33" width="133.98" height="84.61" transform="translate(-0.2 0.22) rotate(-0.12)"/>
      </g>
      <g>
        <path class="cls-10" d="M86.52,84c-1.33,1.12-4.87,2.32-8.83,3.58-.2-3.54-.65-10.48-1.34-11-.92-.74-8.84-4.81-8.84-4.81l.32,2.89s4,2.66,6,3.84.59,10.15.59,10.15c-4.76,1.52-9.4,3.13-11,4.78-3.4,3.46-3.67,19.81-6.83,22.32S43,124.24,43,124.24l0,7.06s15.51-8.81,17.06-11.1,2.28-6,2.91-9.9c1.88-.35,7.54-1.33,10.38-.85,3.44.58,10.47,8.85,10.47,8.85l-.32-2.86s-6-6.69-9.36-8.61c-2.44-1.4-7.84-.79-10.56-.35.72-4.39,1.59-8.36,3.63-9.89,4.42-3.3,16.8-6.23,21.35-9.66,4.34-3.27,8.74-19.08,8.74-19.08L96.89,64S90.54,80.69,86.52,84Zm0,0"/>
        <path class="cls-11" d="M97.32,67.85l-.15-1.35s-6.83,16.74-8.94,19S72,91.77,69,93.31a4.71,4.71,0,0,0-2.84,4.28h.14a5,5,0,0,1,1-1c4.42-3.3,16.8-6.23,21.35-9.66,4.34-3.27,8.74-19.08,8.74-19.08Zm0,0"/>
        <path class="cls-7" d="M86.89,72.34a4.83,4.83,0,0,1,1.24-6.2s3.43,2.48,2.38,6c0,0,2.17-3.61,7-2.2,0,0,.39,5.73-5.64,5.6,0,0,4.9,1.87,2.45,8,0,0-5-1-4.87-5.16,0,0,.11,5.37-6.29,6.39,0,0-1.77-5.75,2.95-8.28,0,0-3.91,1-6.31-3.32,0,0,1.39-3.14,7.07-.83Zm0,0"/>
        <path class="cls-12" d="M90.52,72.1c1-3.49-2.38-6-2.38-6a4.83,4.83,0,0,0-1.24,6.19c-5.68-2.3-7.06.82-7.06.82,2.4,4.27,6.31,3.31,6.31,3.31A6,6,0,0,0,83.6,79a12.74,12.74,0,0,0,7.56-7.7,5.37,5.37,0,0,0-.64.79Zm0,0"/>
        <path class="cls-7" d="M87.61,112.38a4.81,4.81,0,0,1,6.19,1.24s-2.47,3.43-6,2.38c0,0,3.61,2.17,2.2,7,0,0-5.73.39-5.59-5.65,0,0-1.87,4.91-8,2.46,0,0,1-5,5.16-4.87,0,0-5.37.11-6.39-6.29,0,0,5.75-1.78,8.28,3,0,0-1-3.91,3.32-6.31,0,0,3.14,1.39.84,7.07Zm0,0"/>
        <path class="cls-12" d="M86.78,105.32c-4.28,2.4-3.32,6.31-3.32,6.31-2.53-4.72-8.27-2.95-8.27-2.95.93,5.85,5.51,6.26,6.28,6.29-2.72,0-4.07,2.14-4.65,3.61A12.12,12.12,0,0,0,87,105.44l-.22-.12Zm0,0"/>
        <path class="cls-7" d="M67.69,79.19a4.84,4.84,0,0,1-1.25,6.2s-3.43-2.48-2.38-6c0,0-2.16,3.62-7,2.21,0,0-.39-5.73,5.65-5.6,0,0-4.9-1.87-2.45-8,0,0,5,1,4.87,5.16,0,0-.11-5.37,6.28-6.39,0,0,1.78,5.75-2.94,8.28,0,0,3.91-1,6.3,3.32,0,0-1.39,3.14-7.06.83Zm0,0"/>
        <path class="cls-12" d="M68.84,67.54a6.41,6.41,0,0,0-3.74,5.52C65.15,69,60.23,68,60.23,68c-2.45,6.18,2.45,8,2.45,8-6-.15-5.65,5.59-5.65,5.59a1,1,0,0,0,.23.06A13.28,13.28,0,0,0,68.84,67.54Zm0,0"/>
        <path class="cls-12" d="M70.06,96.49a3.24,3.24,0,0,1-4.14-.84s1.65-2.29,4-1.59a4,4,0,0,1-1.47-4.68,3.43,3.43,0,0,1,3.73,3.77s1.25-3.27,5.36-1.64c0,0-.68,3.34-3.45,3.25,0,0,3.59-.07,4.27,4.19,0,0-3.83,1.18-5.51-2a3.93,3.93,0,0,1-2.21,4.21s-2.09-.93-.55-4.71Zm0,0"/>
        <path class="cls-12" d="M58,88.13S49.81,85,46.36,91.94c0,0,6.34,3.7,11.63-3.81Zm0,0"/>
        <path class="cls-12" d="M91.73,94.78s-4.35,9.75,3.93,11.61c0,0,3.22-8.3-3.93-11.61Zm0,0"/>
        <path class="cls-11" d="M60.08,120.2c1.54-2.27,2.28-6,2.91-9.9-2.78.81-2.15,3.7-3.91,7.81S42.65,128,42.65,128L43,131.3s15.51-8.81,17.06-11.1Zm0,0"/>
        <path class="cls-12" d="M56.12,114.53a3.23,3.23,0,0,1-.83,4.14s-2.29-1.65-1.6-4A4,4,0,0,1,49,116.17a3.43,3.43,0,0,1,3.77-3.73s-3.27-1.25-1.64-5.36c0,0,3.34.68,3.25,3.44,0,0-.07-3.58,4.19-4.26,0,0,1.18,3.83-2,5.51A3.93,3.93,0,0,1,60.83,114s-.93,2.09-4.71.55Zm0,0"/>
        <path class="cls-12" d="M75.27,136s-1.24-6.65-7.21-6.09c0,0,.14,5.66,7.21,6.09Zm0,0"/>
        <g>
          <polygon class="cls-8" points="87.16 77.95 88.25 78.44 89.23 76.22 90.66 78.17 91.62 77.45 89.98 75.22 92.33 73.72 91.69 72.71 89.57 74.06 89.28 71.43 88.09 71.56 88.38 74.19 86.06 73.34 85.65 74.47 88.28 75.42 87.16 77.95"/>
          <polygon class="cls-8" points="85.47 111.14 84.52 113.76 81.98 112.64 81.5 113.73 83.73 114.72 81.78 116.15 82.49 117.11 84.72 115.47 86.22 117.82 87.24 117.18 85.89 115.06 88.51 114.77 88.38 113.58 85.75 113.87 86.6 111.55 85.47 111.14"/>
          <path class="cls-8" d="M88.64,111.36c1.56-5.11-1.44-6.52-1.58-6.57a.6.6,0,0,0-.54,0A6.78,6.78,0,0,0,83,109.25c0,.17-.07.34-.1.52a6.69,6.69,0,0,0-4.41-2,10.4,10.4,0,0,0-1.88,0,15.43,15.43,0,0,0-2.13-1.52c-2.35-1.35-7.06-1-10.13-.55.6-3.42,1.4-7,3-8.44a3.83,3.83,0,0,0,1.78.14c-.87,3.3,1.15,4.25,1.25,4.28a.49.49,0,0,0,.31.05.43.43,0,0,0,.23-.07,4.8,4.8,0,0,0,2.47-3.09,5.69,5.69,0,0,0,5.15.89.59.59,0,0,0,.4-.67,5.21,5.21,0,0,0-2.73-4.13,5,5,0,0,0,1.65-2.26l.08,0c1.89-.71,3.87-1.45,5.64-2.19l-.46-1.1c-1.6.67-3.38,1.34-5.14,2a.46.46,0,0,0-.23-.18,5.14,5.14,0,0,0-4-.16,4.21,4.21,0,0,0-1.12.75,3.64,3.64,0,0,0-.77-1.39c.8-.27,1.69-.57,2.8-.92a.61.61,0,0,0,.41-.48c.11-.74,1-7,0-9.62a2,2,0,0,0,.33-.52.6.6,0,0,0,0-.54,6.87,6.87,0,0,0-4.44-3.56l-.52-.1a3.44,3.44,0,0,0,.3-.35c4,2.08,5,2.74,5.32,3,.3.51.78,3.57,1.16,10.62a.62.62,0,0,0,.25.47.66.66,0,0,0,.41.1s.09,0,.11,0c3.93-1.25,7.59-2.48,9-3.69A14.57,14.57,0,0,0,89.57,81,5.68,5.68,0,0,0,91,82.65a11.92,11.92,0,0,1-2.83,3.8,17.34,17.34,0,0,1-2.84,1.67l.53,1.07a17.46,17.46,0,0,0,3-1.78,12.69,12.69,0,0,0,3.12-4.11,8.53,8.53,0,0,0,2.18.82h.18a.62.62,0,0,0,.51-.38,7.51,7.51,0,0,0,.24-5.85,4.71,4.71,0,0,0-.35-.67c.26-.64.51-1.32.76-2a4.82,4.82,0,0,0,1-.8,6.46,6.46,0,0,0,1.58-4.57.59.59,0,0,0-.43-.53l-.19,0c.23-.78.36-1.24.35-1.25a.46.46,0,0,0,0-.23l-.42-3.89a.6.6,0,0,0-1.15-.15s-.88,2.32-2.16,5.33A6.68,6.68,0,0,0,91.9,70c-.21.14-.4.28-.58.42a7.17,7.17,0,0,0-2.82-4.73.62.62,0,0,0-.75,0,5.45,5.45,0,0,0-1.88,5.64c-5.11-1.56-6.51,1.44-6.57,1.58a.6.6,0,0,0,0,.54A6.87,6.87,0,0,0,83.76,77l.52.1a6.73,6.73,0,0,0-2,4.41A10,10,0,0,0,82.64,85a.49.49,0,0,0,.19.26c-1.37.53-3,1.07-4.6,1.6-.57-9.93-1.2-10.44-1.52-10.69-.16-.14-.67-.54-5.39-3a7.11,7.11,0,0,0,1-3.08A10,10,0,0,0,72,66.59a.61.61,0,0,0-.67-.41,7.73,7.73,0,0,0-6,3.9c-.08.18-.17.35-.23.51a7.35,7.35,0,0,0-4.73-3.16.58.58,0,0,0-.67.36,7.48,7.48,0,0,0-.23,5.84,5.55,5.55,0,0,0,1.44,2A5.16,5.16,0,0,0,58,77.11a6.51,6.51,0,0,0-1.59,4.58.61.61,0,0,0,.44.53,6.94,6.94,0,0,0,5.82-.66,6.6,6.6,0,0,0,.58-.41,7.2,7.2,0,0,0,2.82,4.73.65.65,0,0,0,.42.11.71.71,0,0,0,.33-.15,5.45,5.45,0,0,0,1.88-5.64C71.36,81,73,80.59,74,80c.53,2,.15,6.24-.13,8.24-1.28.4-2.28.74-3.18,1a5,5,0,0,0-2.3-.49.61.61,0,0,0-.53.43,5.82,5.82,0,0,0-.21,1.16A14.29,14.29,0,0,0,62.91,93c-1.84,1.88-2.75,6.76-3.7,11.94-.05.31-.11.61-.17.92a.59.59,0,0,0-.56-.21,5.21,5.21,0,0,0-4.13,2.73,5.22,5.22,0,0,0-3.09-1.9.57.57,0,0,0-.67.36,5.18,5.18,0,0,0-.16,4,4.21,4.21,0,0,0,.75,1.12,3.51,3.51,0,0,0-1.65,1,4.62,4.62,0,0,0-1.11,3.2.61.61,0,0,0,.44.53,4.84,4.84,0,0,0,4.17-.53,3.9,3.9,0,0,0,.34,1c-4.2,2.76-10.56,6.44-10.62,6.48a.59.59,0,0,0-.3.59l0,7.06a.62.62,0,0,0,.67.53l.21,0c1.52-.8,15.68-9,17.27-11.29s2.32-6.06,2.93-9.73c2.06-.38,7.18-1.22,9.75-.78a5.67,5.67,0,0,1,2,.91,7.13,7.13,0,0,0,3.3,3.79c.18.08.34.17.51.23a7.35,7.35,0,0,0-3.17,4.73.59.59,0,0,0,.36.67,10.49,10.49,0,0,0,2.25.63l.18-1.19a7.42,7.42,0,0,1-1.49-.38c.35-1.14,1.48-3.91,4.29-3.89h.17a.61.61,0,0,0,.58-.6.57.57,0,0,0-.57-.6h-.18c-.8,0-4.53-.47-5.55-5.24,1.38-.27,5.2-.66,7,2.78a.6.6,0,0,0,1.11-.42A5.21,5.21,0,0,1,86.8,106c.58.45,1.94,2,.26,6.14a.62.62,0,0,0,.17.68.6.6,0,0,0,.71,0,4.2,4.2,0,0,1,5.07.78c-.72.8-2.59,2.49-5,1.78a.61.61,0,0,0-.73.33.62.62,0,0,0,.24.76,5.34,5.34,0,0,1,2.06,5.9,5.2,5.2,0,0,1-3.24-1.25,4.89,4.89,0,0,1-1.29-3.78.58.58,0,0,0-.48-.59.57.57,0,0,0-.67.37,4.68,4.68,0,0,1-3.11,2.62l.27,1.16A5.49,5.49,0,0,0,84,119.19a5.2,5.2,0,0,0,1.51,2.86,6.51,6.51,0,0,0,4.57,1.58h0a.69.69,0,0,0,.54-.42,6.9,6.9,0,0,0-.65-5.82,4.54,4.54,0,0,0-.41-.58A7.2,7.2,0,0,0,94.33,114a.63.63,0,0,0,0-.76A5.42,5.42,0,0,0,88.64,111.36Zm5.3-35.22-.23-.22a3.37,3.37,0,0,0,.34-.09C94,75.93,94,76,93.94,76.14Zm2.62-9.7.15,1.36c0,.19-.18.63-.36,1.24a6.15,6.15,0,0,0-.84-.06C95.92,68,96.27,67.17,96.56,66.44ZM86.43,77a.6.6,0,0,0-.36-1.13l-.09,0a5.22,5.22,0,0,1-5.47-2.73c.45-.58,2-2,6.14-.27a.59.59,0,0,0,.72-.87,4.28,4.28,0,0,1-.51-1.72A4.23,4.23,0,0,1,88.15,67c.8.71,2.5,2.59,1.78,5a.6.6,0,0,0,1.09.48,5.35,5.35,0,0,1,5.9-2.06,5.21,5.21,0,0,1-1.25,3.25,4.85,4.85,0,0,1-3.78,1.28A.59.59,0,0,0,91.67,76a4.79,4.79,0,0,1,2.38,2.36A6.06,6.06,0,0,1,94,82.81c-1.15-.36-3.91-1.49-3.9-4.3,0-.09,0-.15,0-.17a.6.6,0,0,0-.6-.58.59.59,0,0,0-.6.57,1.08,1.08,0,0,1,0,.18c0,.8-.47,4.54-5.23,5.55C83.37,82.69,83,78.86,86.43,77ZM67.91,78.64a.6.6,0,0,0-.68.17.62.62,0,0,0,0,.71,4.37,4.37,0,0,1,.52,1.71,4.26,4.26,0,0,1-1.3,3.36c-.8-.72-2.5-2.59-1.77-5a.6.6,0,0,0-.34-.72.56.56,0,0,0-.73.24,5.35,5.35,0,0,1-5.91,2.06,5.29,5.29,0,0,1,1.26-3.25,4.85,4.85,0,0,1,3.78-1.28.59.59,0,0,0,.6-.48.6.6,0,0,0-.38-.67,4.75,4.75,0,0,1-2.38-2.36,6.06,6.06,0,0,1,.08-4.41c1.15.36,3.91,1.49,3.9,4.3a1.49,1.49,0,0,0,0,.17.6.6,0,0,0,.59.58.58.58,0,0,0,.6-.57c0-.06,0-.12,0-.18,0-.8.46-4.54,5.23-5.55.27,1.38.67,5.2-2.78,7a.61.61,0,0,0-.28.74.62.62,0,0,0,.71.37A5.2,5.2,0,0,1,74,78.37C73.59,79,72,80.32,67.91,78.64Zm2.3,15A3.37,3.37,0,0,1,68.9,90a3.1,3.1,0,0,1,1.86.77,3,3,0,0,1,.79,2.37.62.62,0,0,0,.49.6.6.6,0,0,0,.67-.38,3,3,0,0,1,1.45-1.46,3.72,3.72,0,0,1,2.62,0c-.29.8-1,2.3-2.66,2.27h-.07a.6.6,0,0,0-.58.6.58.58,0,0,0,.57.6.48.48,0,0,1,.12,0,3.75,3.75,0,0,1,3.46,3.13,3.86,3.86,0,0,1-4.28-1.79.59.59,0,0,0-.74-.28.6.6,0,0,0-.37.7,3.28,3.28,0,0,1-1.61,3.35c-.36-.37-1-1.39,0-3.77a.6.6,0,0,0-.17-.68.56.56,0,0,0-.45-.14.28.28,0,0,0-.24.12,2.52,2.52,0,0,1-3-.36,3,3,0,0,1,3-1,.58.58,0,0,0,.71-.33A.59.59,0,0,0,70.21,93.6ZM49.66,115.68a3.1,3.1,0,0,1,.77-1.86A3,3,0,0,1,52.8,113a.6.6,0,0,0,.59-.49.58.58,0,0,0-.37-.67,3,3,0,0,1-1.46-1.46,3.69,3.69,0,0,1,0-2.61c.8.29,2.3,1,2.27,2.66a.32.32,0,0,0,0,.07.6.6,0,0,0,.6.58.58.58,0,0,0,.6-.57.48.48,0,0,1,0-.12A3.75,3.75,0,0,1,58.14,107a3.86,3.86,0,0,1-1.79,4.28.57.57,0,0,0-.28.74.6.6,0,0,0,.7.37A3.28,3.28,0,0,1,60.12,114c-.37.36-1.39,1-3.77,0a.6.6,0,0,0-.68.17.62.62,0,0,0-.06.71,2.52,2.52,0,0,1-.36,3,3,3,0,0,1-1-3,.6.6,0,0,0-.33-.71.57.57,0,0,0-.31-.05.51.51,0,0,0-.42.26A3.36,3.36,0,0,1,49.66,115.68Zm23.8-6.81c-2.88-.49-8.37.44-10.59.85a.61.61,0,0,0-.48.49c-.58,3.5-1.3,7.43-2.82,9.66-1,1.52-10.16,7.36-16,10.5l.16-5.8c1.38-.81,6.67-3.91,10.34-6.32a6.09,6.09,0,0,0,.92.9.55.55,0,0,0,.42.11.54.54,0,0,0,.34-.16,3.94,3.94,0,0,0,1.39-3.62c3.3.87,4.25-1.15,4.29-1.25a.64.64,0,0,0,0-.54,5,5,0,0,0-2.26-2.18c.48-1.86.88-4,1.3-6.32.84-4.55,1.78-9.7,3.37-11.31a12.46,12.46,0,0,1,3.93-2.22,4.45,4.45,0,0,0,.69,1.73,5.14,5.14,0,0,0-2.94,1.92.59.59,0,0,0,0,.75,4,4,0,0,0,.73.66c-1.82,2-2.6,5.83-3.23,9.65a.64.64,0,0,0,.17.53.62.62,0,0,0,.52.17c4.82-.77,8.53-.67,10.18.28a13.12,13.12,0,0,1,1.15.78.62.62,0,0,0-.39.66c0,.19.08.35.11.52A5.21,5.21,0,0,0,73.46,108.87Z"/>
          <polygon class="cls-8" points="67.42 73.57 66.33 73.09 65.35 75.31 63.92 73.37 62.96 74.08 64.6 76.31 62.25 77.81 62.89 78.82 65.01 77.47 65.3 80.1 66.48 79.97 66.2 77.35 68.52 78.2 68.92 77.06 66.3 76.11 67.42 73.57"/>
          <path class="cls-8" d="M46.05,92.45a8.65,8.65,0,0,0,4.15,1,6.56,6.56,0,0,0,.87,0c2.12-.24,4.89-1.35,7.4-4.94a.55.55,0,0,0,.09-.51.61.61,0,0,0-.36-.39,13.65,13.65,0,0,0-4.76-.74,8.38,8.38,0,0,0-7.62,4.85A.59.59,0,0,0,46.05,92.45ZM53.46,88a12.43,12.43,0,0,1,3.55.43c-4,5.07-8.34,3.85-9.83,3.23A7.11,7.11,0,0,1,53.46,88Z"/>
          <path class="cls-8" d="M68,129.46a.45.45,0,0,0-.42.47,6.68,6.68,0,0,0,1,3.12,3.19,3.19,0,0,0,.38.55c1,1.3,2.86,2.67,6.24,2.86a.41.41,0,0,0,.37-.15.47.47,0,0,0,.11-.39,10.38,10.38,0,0,0-1.44-3.42A6.46,6.46,0,0,0,68,129.46Zm.55.89A5.47,5.47,0,0,1,73.51,133a9.61,9.61,0,0,1,1.16,2.5C69.73,134.94,68.77,131.58,68.57,130.35Z"/>
          <path class="cls-8" d="M92,94.23a.61.61,0,0,0-.46,0,.58.58,0,0,0-.34.31c-.09.22-2.32,5.31-.45,9a6.63,6.63,0,0,0,4.8,3.41.41.41,0,0,0,.19,0,.57.57,0,0,0,.49-.38A13.26,13.26,0,0,0,97,101.8,8.18,8.18,0,0,0,92,94.23Zm3.29,11.45A5.26,5.26,0,0,1,91.81,103c-1.28-2.54-.26-6,.24-7.42a6.94,6.94,0,0,1,3.73,6.2A12.53,12.53,0,0,1,95.27,105.68Z"/>
        </g>
      </g>
      <g>
        <path class="cls-13" d="M174,87.92c0,1.76-2.49,1.85-2.49,1.85s1.8.87,1.24,2.44-2.9-.77-2.9-.77,1.38,3-.64,3-1.94-3-1.94-3-.8,3.19-2.34,1.66.87-2.58.87-2.58-3.3,1.11-3.31-1.06,2.72-1.2,2.72-1.2-2.89-2.06-1.57-3.4,2.8,1.14,2.8,1.14S165.74,83,167.81,83s1.62,3,1.62,3,.92-2,2.25-1.52-.08,2.71-.08,2.71,2.43-.94,2.44.81Zm0,0"/>
        <path class="cls-14" d="M101.85,88.07c0,1.75,2.49,1.83,2.49,1.83s-1.79.88-1.23,2.45,2.9-.78,2.9-.78-1.39,3,.64,3,1.92-3,1.92-3,.82,3.19,2.35,1.65-.87-2.57-.87-2.57,3.31,1.1,3.31-1.07-2.72-1.19-2.72-1.19,2.88-2.08,1.56-3.41-2.8,1.15-2.8,1.15.72-3.07-1.35-3.07-1.6,3-1.6,3-.93-2-2.26-1.5.09,2.7.09,2.7-2.43-.92-2.43.84Zm0,0"/>
        <path class="cls-11" d="M164.07,138l-52,.1a5.75,5.75,0,0,1-5.77-5.74l-.06-33.93,63.55-.13.07,33.94a5.75,5.75,0,0,1-5.74,5.76Zm0,0"/>
        <path class="cls-10" d="M132.29,138.1l-20.27,0a5.75,5.75,0,0,1-5.77-5.74l-.06-33.93L138,98.4l.07,33.94a5.74,5.74,0,0,1-5.74,5.76Zm0,0"/>
        <rect class="cls-10" x="101.88" y="98.4" width="72.18" height="7.19" transform="translate(-0.21 0.28) rotate(-0.12)"/>
        <rect class="cls-15" x="101.88" y="98.44" width="40.41" height="7.19" transform="translate(-0.21 0.25) rotate(-0.12)"/>
        <path class="cls-15" d="M160.23,88.15l0,17.4H156l0-17.4a18,18,0,0,0-35.95.07l0,10.21h-4.31l0-10.21a22.29,22.29,0,0,1,44.57-.09Zm0,0"/>
        <path class="cls-16" d="M122.12,121.44l-14.42-23,28.75-.06Zm0,0"/>
        <path class="cls-7" d="M125.86,115.44l-3.74,6-3.76-6,3.74-6Zm0,0"/>
        <path class="cls-7" d="M118.61,103.91l-3.73,6-3.49-5.55,3.67-5.9h.13Zm0,0"/>
        <path class="cls-7" d="M125.57,103.89l-3.47,5.56-3.49-5.54L122,98.44h.11Zm0,0"/>
        <path class="cls-7" d="M132.79,104.31l-3.47,5.56-3.75-6L129,98.42h.13Zm0,0"/>
        <path class="cls-17" d="M119.76,98.44s-5.83-9.52-5.84-17.6c0-15,20.16,17.57,20.16,17.57Zm0,0"/>
        <path class="cls-18" d="M125.8,86.32a6.29,6.29,0,0,1-6.48-.53l4.1-2.48c.8,1,1.59,2,2.38,3Zm0,0"/>
        <path class="cls-18" d="M131,93.73c-3,2.29-7.6-.69-7.6-.69l5-3.09c.93,1.34,1.81,2.63,2.58,3.78Zm0,0"/>
        <path class="cls-19" d="M170.2,88.71a1.92,1.92,0,1,1-1.92-1.91,1.92,1.92,0,0,1,1.92,1.91Zm0,0"/>
        <path class="cls-19" d="M109.52,88.83a1.92,1.92,0,1,1-1.92-1.91,1.92,1.92,0,0,1,1.92,1.91Zm0,0"/>
        <path class="cls-7" d="M145.13,87.61a10.78,10.78,0,0,0-10.76,10.8l21.57,0a10.78,10.78,0,0,0-10.81-10.76Zm0,0"/>
        <path class="cls-20" d="M143.91,85.39a6.2,6.2,0,0,1,6.53-4.19s.37,5.22-6.53,4.19Zm0,0"/>
        <g>
          <path class="cls-8" d="M161.72,114.49a.75.75,0,0,0,.65.4.67.67,0,0,0,.62-.4l2.15-4.32-1.28-.65-1.51,3-1.51-3-1.28.65Z"/>
          <path class="cls-8" d="M162.37,122.34l-1.51-3-1.28.65,2.16,4.31a.75.75,0,0,0,.65.4.67.67,0,0,0,.62-.4l2.15-4.32-1.28-.65Z"/>
          <path class="cls-8" d="M162.39,132.12l-1.51-3-1.28.65,2.16,4.31a.75.75,0,0,0,.65.4A.67.67,0,0,0,163,134l2.15-4.32-1.29-.64Z"/>
          <path class="cls-8" d="M153.72,112.58l-1.51-3-1.28.65,2.17,4.31a.74.74,0,0,0,.64.4.66.66,0,0,0,.62-.41l2.15-4.31-1.28-.65Z"/>
          <path class="cls-8" d="M153.74,122.36l-1.51-3L151,120l2.16,4.31a.75.75,0,0,0,.65.4.66.66,0,0,0,.62-.41l2.15-4.32-1.28-.64Z"/>
          <path class="cls-8" d="M153.76,132.14l-1.51-3-1.28.65,2.16,4.31a.71.71,0,0,0,.65.4.65.65,0,0,0,.62-.4l2.15-4.32-1.28-.64Z"/>
          <path class="cls-8" d="M145.1,112.6l-1.52-3-1.28.65,2.17,4.3a.73.73,0,0,0,.65.41.65.65,0,0,0,.61-.41l2.15-4.32-1.28-.64Z"/>
          <path class="cls-8" d="M145.12,122.38l-1.52-3-1.28.65,2.17,4.31a.72.72,0,0,0,.65.4.64.64,0,0,0,.61-.4L147.9,120l-1.28-.64Z"/>
          <path class="cls-8" d="M145.14,132.15l-1.52-3-1.28.65,2.17,4.31a.72.72,0,0,0,.64.4.66.66,0,0,0,.62-.4l2.15-4.32-1.28-.64Z"/>
          <path class="cls-8" d="M174.05,97.61l-7.73,0,1.71-6-1.38-.4-1.82,6.36H161l0-9.49a23,23,0,0,0-43-11.24,3.36,3.36,0,0,0-2.75-.66c-2,.56-2,3.6-2,4.59a27.94,27.94,0,0,0,1.74,8.94l0,8h-3.85l-1.85-6.35-1.38.4,1.73,5.95h-7.74a.72.72,0,0,0-.72.72l0,7.19a.72.72,0,0,0,.72.72l9.92,0,2.47,3.93h0l7.24,11.52a.73.73,0,0,0,.6.33.83.83,0,0,0,.64-.33l9.64-15.51h4.86l.05,26a5,5,0,0,1-5,5l-20.27.05a5.05,5.05,0,0,1-5-5l0-23.87h-1.44l.05,23.87a6.47,6.47,0,0,0,6.48,6.45l52.05-.1a6.48,6.48,0,0,0,6.46-6.49l-.05-26h3.59a.71.71,0,0,0,.72-.72V98.33A.73.73,0,0,0,174.05,97.61Zm-36.15-31a21.58,21.58,0,0,1,21.61,21.52l0,16.68h-2.88l0-16.68A18.68,18.68,0,0,0,140.9,69.73l-.23,1.42a17.18,17.18,0,0,1,14.53,17v4.65a11.52,11.52,0,0,0-10.08-5.92H145l-.17-.67.76,0a5.9,5.9,0,0,0,4.08-1.34,5.06,5.06,0,0,0,1.47-3.74.72.72,0,0,0-.69-.68h-.4a6.87,6.87,0,0,0-5.92,2.93l-.27-1.07-1.39.34L143.55,87a11.52,11.52,0,0,0-9.75,9.61c-1.31-2-3.91-6-6.77-9.87-1.84-2.47-3.39-4.38-4.72-5.86a17.28,17.28,0,0,1,15.6-10V69.5a18.72,18.72,0,0,0-16.65,10.26,24,24,0,0,0-2.17-2A21.46,21.46,0,0,1,137.9,66.63ZM143,104.87V99.11l12.22,0v5.75Zm-17.16,9.23-2.91-4.65,2.62-4.21,2.91,4.64Zm-1.31,2.1-2.42,3.88-2.44-3.88-.47-.75,2.89-4.63,2.91,4.62Zm-8.82-6.3,2.89-4.64,2.64,4.21-2.88,4.65Zm-3.48-5.55,2.89-4.63,2.64,4.19-2.89,4.64-2.63-4.17Zm7.52-5.19h1l-2.11,3.4-2.13-3.39Zm5.8,3.4-2.14-3.41h4.26Zm-3.47,5.54-2.64-4.19,2.63-4.21,2.64,4.2Zm4.32-4.21,2.63-4.2,2.9,4.62-2.62,4.2Zm6.36-.92-2.4-3.83h4.79Zm3.7-5.28h-1.35a10.08,10.08,0,0,1,8.77-9.28l.53,2.1,1.39-.34-.45-1.83a10.07,10.07,0,0,1,9.83,9.31Zm8.47-12.9a5.44,5.44,0,0,1,4.72-2.86,3.21,3.21,0,0,1-1,1.9A4.88,4.88,0,0,1,144.94,84.79Zm-29.41-7.16c.46-.13,2.17,0,6.8,5.5l-3.39,2.05.74,1.23,3.58-2.16c.79,1,1.65,2.08,2.59,3.35.54.72,1.06,1.45,1.57,2.17l-4.35,2.67.76,1.22,4.42-2.72c2,2.82,3.64,5.37,4.52,6.76l-10.64,0h-2c-1-1.77-5.51-10-5.54-16.88C114.62,79,114.94,77.8,115.53,77.63Zm3,20.1h-2.12V93.44C117.2,95.27,118,96.78,118.51,97.73Zm-4.74,1.44L111.39,103,109,99.18ZM102.6,105V99.2h4.71l3.48,5.54h0l.11.19Zm34.28-5.82h4.68v5.75H133.3Zm32.21,33.15a5,5,0,0,1-5,5l-27.72.06a6.44,6.44,0,0,0,2.4-5l-.05-26,17.25,0h4.32l8.77,0Zm4.26-27.48-12.37,0V99.08l12.37,0Z"/>
        </g>
      </g>
    </g>
  </g>
</svg>
