<?xml version="1.0" encoding="utf-8"?>
<!-- Generator: Adobe Illustrator 25.0.0, SVG Export Plug-In . SVG Version: 6.00 Build 0)  -->
<svg version="1.1" xmlns="http://www.w3.org/2000/svg" xmlns:xlink="http://www.w3.org/1999/xlink" x="0px" y="0px" width="350" height="200"
	 viewBox="0 0 400 200" style="enable-background:new 0 0 400 200;" xml:space="preserve">
<style type="text/css">
	.st0{display:none;opacity:0.34;}
	.st1{display:inline;fill:none;stroke:#000000;stroke-width:0.75;stroke-miterlimit:10;}
	.st2{display:inline;fill:#FFFFFF;stroke:#000000;stroke-width:0.75;stroke-miterlimit:10;}
	.st3{display:none;}
	.st4{display:inline;}
	.st5{fill:#FFFFFF;}
	.st6{clip-path:url(#SVGID_2_);}
	.st7{opacity:0.21;clip-path:url(#SVGID_2_);}
	.st8{display:inline;opacity:0.21;}
	.st9{fill:#A6DBF1;}
	.st10{clip-path:url(#SVGID_4_);}
	.st11{opacity:0.5;clip-path:url(#SVGID_4_);}
	.st12{opacity:0.36;}
	.st13{opacity:0.5;}
	.st14{clip-path:url(#SVGID_6_);}
	.st15{opacity:0.5;clip-path:url(#SVGID_6_);}
</style>
<g id="Слой_1">
	<g class="st0">
		<line class="st1" x1="111.2" y1="278.38" x2="300.85" y2="280.29"/>
		<path class="st2" d="M170.91,297.81c0.63-0.95,37.74-41.07,37.74-41.07l39.64,43.29"/>
		<path class="st2" d="M111.2,278.38c11.21,17.97,22.41,35.94,33.62,53.91c41.12,0,82.24,0,123.36,0
			c10.89-17.34,21.78-34.67,32.66-52.01c-31.4,8.03-62.79,16.07-94.19,24.1C174.84,295.72,143.02,287.05,111.2,278.38z"/>
	</g>
	<g class="st3">
		<g class="st4">
			<path class="st5" d="M50.46,102.2c9.05,0.19,22.77,0.49,39.52,0.94c18.77,0.51,21.3,0.6,35.67,1.06
				c10.03,0.32,40.49,1.21,76.92,1.03c9.44-0.05,22.11-0.18,37.16-0.54c-14.1,13.08-28.19,26.16-42.29,39.23
				c-34.8-0.36-69.6-0.71-104.4-1.07C78.85,129.31,64.65,115.75,50.46,102.2z"/>
			<g>
				<path d="M50.46,103.8c13.34,0.3,26.67,0.64,40.01,1.01c10.6,0.3,21.19,0.62,31.79,0.97c8.65,0.28,17.29,0.53,25.94,0.72
					c14.21,0.31,28.42,0.48,42.63,0.5c14.2,0.02,28.4-0.11,42.6-0.4c2.1-0.04,4.2-0.09,6.3-0.14c-0.42-1-0.83-2.01-1.25-3.01
					c-14.1,13.07-28.2,26.15-42.3,39.22c0.42-0.17,0.84-0.35,1.26-0.52c-27.14-0.28-54.28-0.57-81.42-0.85
					c-7.66-0.08-15.32-0.16-22.98-0.24c0.42,0.18,0.85,0.35,1.27,0.53c-14.19-13.56-28.37-27.13-42.58-40.67
					c-1.68-1.6-4.23,0.94-2.55,2.55c10.58,10.12,21.17,20.22,31.76,30.33c2.65,2.53,5.29,5.05,7.94,7.58c0.6,0.57,1.2,1.15,1.8,1.72
					c0.56,0.54,1.11,1.25,1.88,1.5c0.8,0.25,1.89,0.08,2.73,0.09c1.08,0.01,2.16,0.02,3.25,0.03c7.16,0.07,14.32,0.14,21.48,0.22
					c14.65,0.15,29.31,0.29,43.96,0.44c7.33,0.07,14.65,0.15,21.98,0.22c3.66,0.04,7.34,0.2,10.99,0.11
					c0.95-0.02,1.41-0.22,2.12-0.85c0.62-0.55,1.22-1.13,1.82-1.69c1.4-1.3,2.79-2.59,4.19-3.89c11.97-11.11,23.93-22.22,35.9-33.33
					c1.11-1.03,0.26-3.05-1.25-3.01c-14.2,0.35-28.4,0.55-42.6,0.58c-14.79,0.04-29.59-0.08-44.38-0.35
					c-8.87-0.16-17.74-0.37-26.61-0.64c-9.96-0.31-19.92-0.62-29.89-0.88c-14.02-0.37-28.05-0.7-42.07-0.98
					c-1.24-0.02-2.48-0.05-3.72-0.07C48.4,100.56,48.4,103.75,50.46,103.8z"/>
			</g>
		</g>
		<g class="st4">
			<defs>
				<path id="SVGID_1_" d="M50.46,102.2c9.05,0.19,22.77,0.49,39.52,0.94c18.77,0.51,21.3,0.6,35.67,1.06
					c10.03,0.32,40.49,1.21,76.92,1.03c9.44-0.05,22.11-0.18,37.16-0.54c-14.1,13.08-28.19,26.16-42.29,39.23
					c-34.8-0.36-69.6-0.71-104.4-1.07C78.85,129.31,64.65,115.75,50.46,102.2z"/>
			</defs>
			<clipPath id="SVGID_2_">
				<use xlink:href="#SVGID_1_"  style="overflow:visible;"/>
			</clipPath>
			<g class="st6">
				<g>
					<path d="M76.37,94.56c-1.07,4.74-2.97,9.25-4.77,13.75c-1.85,4.64-3.41,9.46-4.86,14.24c-0.3,0.98,1.27,1.7,1.7,0.72
						c0.97-2.23,1.6-4.63,2.31-6.96c0.76-2.47,1.59-4.9,2.53-7.3c1.8-4.58,3.64-9.18,4.67-14.01C78.18,93.96,76.6,93.52,76.37,94.56
						L76.37,94.56z"/>
				</g>
			</g>
			<g class="st6">
				<g>
					<path d="M91.44,93.42c-2.96,10.36-7.64,20.22-10.03,30.76c-0.32,1.4,1.79,1.99,2.15,0.59c2.72-10.44,6.94-20.42,9.58-30.88
						C93.42,92.78,91.75,92.32,91.44,93.42L91.44,93.42z"/>
				</g>
			</g>
			<g class="st6">
				<g>
					<path d="M103.48,94.54c-0.94,5.77-2.99,11.31-4.9,16.82c-0.95,2.73-1.87,5.48-2.64,8.27c-0.39,1.42-0.73,2.86-1.01,4.31
						c-0.21,1.11-0.76,2.48,0.06,3.42c0.32,0.37,0.88,0.36,1.28,0.17c0.01-0.01,0.03-0.01,0.04-0.02c0.31-0.15,0.54-0.56,0.52-0.9
						c-0.01-0.06-0.01-0.13-0.01-0.19c0.25-0.88-0.92-1.6-1.56-0.91c-0.17,0.18-0.27,0.36-0.38,0.57c0.3-0.17,0.6-0.35,0.9-0.52
						c-0.02,0-0.03,0-0.05-0.01c0.34,0.26,0.68,0.52,1.02,0.78c-0.13-0.37,0.22-1.41,0.29-1.8c0.12-0.65,0.26-1.3,0.41-1.95
						c0.3-1.3,0.64-2.58,1.01-3.86c0.78-2.71,1.7-5.38,2.61-8.05c1.77-5.22,3.41-10.41,4.14-15.89
						C105.35,93.79,103.64,93.55,103.48,94.54L103.48,94.54z"/>
				</g>
			</g>
			<g class="st6">
				<g>
					<path d="M119.74,95.1c-1.86,5.58-3.5,11.23-5.47,16.77c-1.78,5-3.84,10.02-4.04,15.4c-0.05,1.43,2.17,1.43,2.23,0
						c0.19-5.3,2.37-10.28,4.07-15.22c1.86-5.43,3.24-11,4.91-16.48C121.76,94.48,120.1,94.04,119.74,95.1L119.74,95.1z"/>
				</g>
			</g>
			<g class="st6">
				<g>
					<path d="M178.53,94.49c0.04,4.67-1.35,9.25-2.43,13.75c-1.19,4.94-2.59,9.95-3.08,15.02c-0.07,0.72,0.78,1.29,1.43,1.09
						c0.08-0.03,0.17-0.05,0.25-0.08c0.33-0.1,0.7-0.39,0.76-0.76c0.02-0.08,0.03-0.15,0.05-0.23c0.51-1.14-0.93-1.99-1.67-0.98
						c0.11-0.06,0.21-0.11,0.32-0.17c0.38,0.38,0.75,0.75,1.13,1.13c0.65-5.14,1.91-10.19,3.06-15.23
						c1.01-4.43,2.15-8.96,1.99-13.53C180.27,93.35,178.52,93.34,178.53,94.49L178.53,94.49z"/>
				</g>
			</g>
			<g class="st6">
				<g>
					<path d="M190.08,92.87c-1.33,5.91-2.04,11.96-3.61,17.81c-1.39,5.16-4.24,10.31-4.23,15.76c0,1.44,2.08,1.39,2.2,0
						c0.5-5.46,2.9-10.39,4.22-15.66c1.44-5.74,1.87-11.66,3.07-17.45C191.95,92.25,190.32,91.79,190.08,92.87L190.08,92.87z"/>
				</g>
			</g>
			<g class="st6">
				<g>
					<path d="M200.44,93.93c0,5.05-2.03,9.95-3.37,14.75c-1.38,4.91-1.93,10.02-3.24,14.95c-0.34,1.3,1.53,1.77,1.99,0.55
						c1.84-4.89,1.97-10.32,3.37-15.34c1.36-4.88,3.05-9.78,2.9-14.91C202.07,92.87,200.44,92.87,200.44,93.93L200.44,93.93z"/>
				</g>
			</g>
			<g class="st6">
				<g>
					<path d="M215.69,94.36c-1.26,2.67-2.28,5.39-3.19,8.2c-0.87,2.7-1.78,5.47-2.36,8.25c-0.48,2.3-0.66,4.64-0.97,6.97
						c-0.17,1.27-0.37,2.55-0.68,3.79c-0.27,1.11-0.78,2.13-1.07,3.23c-0.22,0.81,0.88,1.54,1.47,0.86
						c1.41-1.63,1.76-4.22,2.08-6.28c0.37-2.44,0.54-4.9,0.97-7.33c0.47-2.66,1.34-5.27,2.09-7.86c0.89-3.04,1.83-6.08,3.07-9
						C217.5,94.24,216.15,93.4,215.69,94.36L215.69,94.36z"/>
				</g>
			</g>
			<g class="st7">
				<path d="M93.41,120.83c4.3-8.78,8.59-17.56,12.89-26.33c5.23,8.22,10.46,16.44,15.69,24.65
					C112.46,119.71,102.94,120.27,93.41,120.83z"/>
			</g>
			<g class="st7">
				<path d="M226.77,104.96c-19.1,0.38-38.2,0.76-57.31,1.14c3.92,4.51,7.83,9.02,11.75,13.52
					C196.4,114.74,211.58,109.85,226.77,104.96z"/>
			</g>
		</g>
		<g class="st4">
			<g>
				<path class="st5" d="M146.35,79.76c2.99,3.08,7.86,8.2,13.6,14.86c7.04,8.16,9.7,12.03,16.28,19.51
					c3.19,3.63,8.16,9.08,14.73,15.47c-29.19-0.29-58.37-0.59-87.56-0.88c3.02-3.18,7.65-8.17,13.14-14.5
					c6.03-6.95,8.62-10.37,14.61-17.39C134.64,92.74,139.79,86.82,146.35,79.76z"/>
				<g>
					<path d="M145.22,80.9c6.15,6.37,12.06,12.99,17.69,19.82c5.13,6.22,10.13,12.53,15.57,18.49c3.64,3.98,7.4,7.85,11.26,11.61
						c0.41-0.98,0.81-1.96,1.22-2.95c-22.72-0.24-45.44-0.49-68.16-0.73c-6.47-0.07-12.94-0.14-19.4-0.21
						c0.42,1.02,0.84,2.04,1.27,3.05c5.85-6.17,11.53-12.5,17.01-19c5.1-6.05,10.09-12.19,15.31-18.14
						c3.49-3.98,7.05-7.91,10.66-11.8c1.59-1.71-0.98-4.3-2.57-2.57c-5.87,6.32-11.6,12.78-17.16,19.38
						c-5.68,6.74-11.23,13.57-17.1,20.15c-2.85,3.19-5.74,6.34-8.67,9.45c-1.06,1.12-0.31,3.04,1.27,3.05
						c22.72,0.21,45.44,0.41,68.16,0.63c6.47,0.06,12.94,0.12,19.4,0.19c1.49,0.01,2.29-1.9,1.22-2.95
						c-6.35-6.19-12.43-12.65-18.16-19.43c-5.86-6.93-11.45-14.05-17.54-20.78c-2.94-3.24-5.93-6.42-8.99-9.55
						C146.04,77.14,143.78,79.41,145.22,80.9z"/>
				</g>
			</g>
			<g>
				<path class="st5" d="M146.21,80.74c-0.84,1.98-1.92,4.85-2.81,8.4c-0.86,3.42-1.16,6.03-1.68,10.18
					c-0.41,3.21-0.82,6.36-0.82,9.62c0,2.5-0.16,5.6,0.24,9.61c0.27,2.63,0.79,6.13,1.9,10.2c1.3,0.08,2.61,0.16,3.91,0.24
					c0.15-0.55,0.36-1.37,0.59-2.36c1.07-4.72,1.27-8.37,1.44-12.66c0.28-6.73,0.41-10.09,0.4-13.78
					c-0.03-8.57-0.54-11.63-1.34-14.43C147.44,83.63,146.74,81.91,146.21,80.74z"/>
				<g>
					<path d="M144.9,79.97c-3.32,7.78-4.58,16-5.38,24.38c-0.8,8.3-0.24,16.79,1.93,24.85c0.2,0.74,0.87,1.17,1.59,1.21
						c1.3,0.08,2.61,0.16,3.91,0.24c0.72,0.04,1.42-0.55,1.6-1.22c2.04-7.51,2.14-15.28,2.4-23.02c0.2-5.96,0.39-12.08-0.57-17.99
						c-0.48-2.96-1.49-5.81-2.71-8.55c-0.88-1.98-3.79-0.26-2.91,1.7c2.11,4.73,2.75,9.49,2.9,14.62
						c0.19,6.62-0.09,13.25-0.42,19.86c-0.21,4.24-0.77,8.38-1.87,12.48c0.53-0.41,1.06-0.81,1.6-1.22
						c-1.3-0.08-2.61-0.16-3.91-0.24c0.53,0.4,1.06,0.81,1.59,1.21c-2.08-7.71-2.59-15.78-1.91-23.73
						c0.69-8.02,1.86-15.97,4.95-23.45C148.33,79.56,145.57,78.39,144.9,79.97z"/>
				</g>
			</g>
		</g>
		<g class="st4">
			<path class="st5" d="M146.07,127.19c-8.96-2.08-16.38-3.89-21.97-5.28c-4.91-1.22-8.41-2.09-13.27-3.38
				c-6.71-1.78-9.6-2.67-22.52-5.9c-5.81-1.45-6.26-1.75-21.2-5.87c-7.06-1.95-12.84-3.53-16.66-4.57c1.24,2.1,2.95,4.97,4.99,8.35
				c2.06,3.41,6.61,10.93,11.8,19.09c4.21,6.62,9.96,15.39,17.22,25.81c7.38,0.5,17.82,1.1,30.36,1.44
				c12.66,0.34,22.24,0.28,33.44,0.17c15.3-0.16,35.57-0.43,59.96-0.94c7.43-12.22,14.92-24.47,22.46-36.73
				c3.01-4.9,6.03-9.8,9.04-14.68c-4.9,0.71-12.92,1.98-22.73,4.12c-16.81,3.66-25.12,6.85-46.29,12.39
				C165.14,122.66,156.63,124.82,146.07,127.19z"/>
			<g>
				<path d="M146.5,125.63c-14.13-3.3-28.23-6.76-42.23-10.55c-9.33-2.53-18.7-4.84-28-7.47c-8.45-2.38-16.91-4.69-25.38-7.01
					c-1.38-0.38-2.6,1.18-1.86,2.42c7.41,12.53,15.03,24.94,23.04,37.09c2.23,3.37,4.48,6.73,6.76,10.07c1.3,1.9,2.59,3.8,3.92,5.68
					c0.65,0.92,1.18,1.19,2.3,1.26c0.72,0.05,1.44,0.1,2.16,0.14c7.66,0.49,15.34,0.86,23.01,1.12c15.89,0.53,31.78,0.39,47.67,0.2
					c16.28-0.19,32.56-0.46,48.84-0.8c1.14-0.02,2.16,0.13,2.92-0.86c0.74-0.95,1.3-2.13,1.92-3.16c1.2-1.97,2.4-3.94,3.6-5.9
					c2.49-4.08,4.98-8.16,7.48-12.24c4.95-8.09,9.91-16.17,14.89-24.24c1.21-1.96,2.41-3.91,3.62-5.87
					c0.84-1.37-0.55-2.64-1.88-2.45c-12.16,1.76-24.23,4.19-36.11,7.35c-11.73,3.12-23.34,6.69-35.1,9.72
					c-7.45,1.92-14.94,3.73-22.45,5.42c-2.1,0.47-1.21,3.7,0.89,3.22c13.2-2.98,26.32-6.31,39.34-10
					c11.12-3.15,22.18-6.39,33.49-8.79c6.9-1.46,13.84-2.7,20.82-3.71c-0.63-0.82-1.26-1.63-1.88-2.45
					c-10.56,17.1-21.06,34.24-31.5,51.41c0.48-0.27,0.96-0.55,1.44-0.82c-16.6,0.35-33.2,0.63-49.8,0.83
					c-16.15,0.2-32.29,0.34-48.44-0.2c-8.51-0.29-17.02-0.72-25.52-1.29c0.48,0.27,0.95,0.55,1.43,0.82
					c-9.67-13.87-18.83-28.07-27.59-42.53c-2.16-3.56-4.3-7.13-6.42-10.71c-0.62,0.81-1.24,1.62-1.86,2.42
					c11.63,3.18,23.21,6.56,34.87,9.66c5.59,1.49,11.23,2.83,16.82,4.32c5.71,1.53,11.41,3.08,17.15,4.51
					c8.91,2.23,17.84,4.39,26.79,6.47C147.67,129.22,148.53,126.11,146.5,125.63z"/>
			</g>
		</g>
		<g class="st4">
			<g>
				<path d="M145.6,129.34c4.47,1.45,8.85,3.21,13.25,4.86c4.18,1.56,7.99,3.99,12.26,5.32c2.08,0.65,2.9-2.52,0.89-3.23
					c-4.21-1.49-8.08-3.77-12.27-5.31c-4.41-1.62-8.8-3.32-13.32-4.63C144.5,125.8,143.72,128.72,145.6,129.34L145.6,129.34z"/>
			</g>
		</g>
		<g class="st4">
			<g>
				<path d="M144.71,125.98c-4.47,1.44-8.81,3.27-13.17,5.02c-4.14,1.66-7.94,4.06-12.11,5.67c-1.97,0.76-1.18,3.94,0.89,3.23
					c4.23-1.46,7.98-3.98,12.1-5.68c4.35-1.79,8.68-3.67,13.11-5.25C147.39,128.3,146.63,125.36,144.71,125.98L144.71,125.98z"/>
			</g>
		</g>
		<path class="st8" d="M146.69,127.47c-20.98,8.98-41.96,17.97-62.93,26.95c15.9,1.38,32.71,2.34,50.35,2.71
			c26.74,0.57,51.73-0.28,74.72-2.01C188.11,145.91,167.4,136.69,146.69,127.47z"/>
		<g class="st8">
			<g>
				<path d="M143.44,85.44c-1.36,5.96-1.21,12.04-1.26,18.11c-0.03,3.36-0.33,6.71-0.43,10.07c-0.05,1.72-0.06,3.44,0.02,5.16
					c0.09,1.7,0.1,3.73,0.73,5.32c0.52,1.31,1.62,2.26,3.11,2.03c1.39-0.21,2.45-1.34,2.46-2.79c0.01-1.58-0.39-3.21-0.48-4.8
					c-0.09-1.64-0.09-3.28-0.06-4.93c0.07-3.29,0.23-6.58,0.2-9.87c-0.02-2.85-0.1-5.7-0.07-8.56c0.03-2.78,0.02-5.71,0.5-8.45
					c0.23-1.3-0.35-2.64-1.71-3.01C145.22,83.39,143.73,84.14,143.44,85.44L143.44,85.44z"/>
			</g>
		</g>
	</g>
	<g class="st3">
		<g class="st4">
			<path class="st9" d="M50.46,102.2c9.05,0.19,22.77,0.49,39.52,0.94c18.77,0.51,21.3,0.6,35.67,1.06
				c10.03,0.32,40.49,1.21,76.92,1.03c9.44-0.05,22.11-0.18,37.16-0.54c-14.1,13.08-28.19,26.16-42.29,39.23
				c-34.8-0.36-69.6-0.71-104.4-1.07C78.85,129.31,64.65,115.75,50.46,102.2z"/>
			<g>
				<path d="M50.46,103.8c13.34,0.3,26.67,0.64,40.01,1.01c10.6,0.3,21.19,0.62,31.79,0.97c8.65,0.28,17.29,0.53,25.94,0.72
					c14.21,0.31,28.42,0.48,42.63,0.5c14.2,0.02,28.4-0.11,42.6-0.4c2.1-0.04,4.2-0.09,6.3-0.14c-0.42-1-0.83-2.01-1.25-3.01
					c-14.1,13.07-28.2,26.15-42.3,39.22c0.42-0.17,0.84-0.35,1.26-0.52c-27.14-0.28-54.28-0.57-81.42-0.85
					c-7.66-0.08-15.32-0.16-22.98-0.24c0.42,0.18,0.85,0.35,1.27,0.53c-14.19-13.56-28.37-27.13-42.58-40.67
					c-1.68-1.6-4.23,0.94-2.55,2.55c10.58,10.12,21.17,20.22,31.76,30.33c2.65,2.53,5.29,5.05,7.94,7.58c0.6,0.57,1.2,1.15,1.8,1.72
					c0.56,0.54,1.11,1.25,1.88,1.5c0.8,0.25,1.89,0.08,2.73,0.09c1.08,0.01,2.16,0.02,3.25,0.03c7.16,0.07,14.32,0.14,21.48,0.22
					c14.65,0.15,29.31,0.29,43.96,0.44c7.33,0.07,14.65,0.15,21.98,0.22c3.66,0.04,7.34,0.2,10.99,0.11
					c0.95-0.02,1.41-0.22,2.12-0.85c0.62-0.55,1.22-1.13,1.82-1.69c1.4-1.3,2.79-2.59,4.19-3.89c11.97-11.11,23.93-22.22,35.9-33.33
					c1.11-1.03,0.26-3.05-1.25-3.01c-14.2,0.35-28.4,0.55-42.6,0.58c-14.79,0.04-29.59-0.08-44.38-0.35
					c-8.87-0.16-17.74-0.37-26.61-0.64c-9.96-0.31-19.92-0.62-29.89-0.88c-14.02-0.37-28.05-0.7-42.07-0.98
					c-1.24-0.02-2.48-0.05-3.72-0.07C48.4,100.56,48.4,103.75,50.46,103.8z"/>
			</g>
		</g>
		<g class="st4">
			<defs>
				<path id="SVGID_3_" d="M50.46,102.2c9.05,0.19,22.77,0.49,39.52,0.94c18.77,0.51,21.3,0.6,35.67,1.06
					c10.03,0.32,40.49,1.21,76.92,1.03c9.44-0.05,22.11-0.18,37.16-0.54c-14.1,13.08-28.19,26.16-42.29,39.23
					c-34.8-0.36-69.6-0.71-104.4-1.07C78.85,129.31,64.65,115.75,50.46,102.2z"/>
			</defs>
			<clipPath id="SVGID_4_">
				<use xlink:href="#SVGID_3_"  style="overflow:visible;"/>
			</clipPath>
			<g class="st10">
				<g>
					<path d="M76.37,94.56c-1.07,4.74-2.97,9.25-4.77,13.75c-1.85,4.64-3.41,9.46-4.86,14.24c-0.3,0.98,1.27,1.7,1.7,0.72
						c0.97-2.23,1.6-4.63,2.31-6.96c0.76-2.47,1.59-4.9,2.53-7.3c1.8-4.58,3.64-9.18,4.67-14.01C78.18,93.96,76.6,93.52,76.37,94.56
						L76.37,94.56z"/>
				</g>
			</g>
			<g class="st10">
				<g>
					<path d="M91.44,93.42c-2.96,10.36-7.64,20.22-10.03,30.76c-0.32,1.4,1.79,1.99,2.15,0.59c2.72-10.44,6.94-20.42,9.58-30.88
						C93.42,92.78,91.75,92.32,91.44,93.42L91.44,93.42z"/>
				</g>
			</g>
			<g class="st10">
				<g>
					<path d="M103.48,94.54c-0.94,5.77-2.99,11.31-4.9,16.82c-0.95,2.73-1.87,5.48-2.64,8.27c-0.39,1.42-0.73,2.86-1.01,4.31
						c-0.21,1.11-0.76,2.48,0.06,3.42c0.32,0.37,0.88,0.36,1.28,0.17c0.01-0.01,0.03-0.01,0.04-0.02c0.31-0.15,0.54-0.56,0.52-0.9
						c-0.01-0.06-0.01-0.13-0.01-0.19c0.25-0.88-0.92-1.6-1.56-0.91c-0.17,0.18-0.27,0.36-0.38,0.57c0.3-0.17,0.6-0.35,0.9-0.52
						c-0.02,0-0.03,0-0.05-0.01c0.34,0.26,0.68,0.52,1.02,0.78c-0.13-0.37,0.22-1.41,0.29-1.8c0.12-0.65,0.26-1.3,0.41-1.95
						c0.3-1.3,0.64-2.58,1.01-3.86c0.78-2.71,1.7-5.38,2.61-8.05c1.77-5.22,3.41-10.41,4.14-15.89
						C105.35,93.79,103.64,93.55,103.48,94.54L103.48,94.54z"/>
				</g>
			</g>
			<g class="st10">
				<g>
					<path d="M119.74,95.1c-1.86,5.58-3.5,11.23-5.47,16.77c-1.78,5-3.84,10.02-4.04,15.4c-0.05,1.43,2.17,1.43,2.23,0
						c0.19-5.3,2.37-10.28,4.07-15.22c1.86-5.43,3.24-11,4.91-16.48C121.76,94.48,120.1,94.04,119.74,95.1L119.74,95.1z"/>
				</g>
			</g>
			<g class="st10">
				<g>
					<path d="M178.53,94.49c0.04,4.67-1.35,9.25-2.43,13.75c-1.19,4.94-2.59,9.95-3.08,15.02c-0.07,0.72,0.78,1.29,1.43,1.09
						c0.08-0.03,0.17-0.05,0.25-0.08c0.33-0.1,0.7-0.39,0.76-0.76c0.02-0.08,0.03-0.15,0.05-0.23c0.51-1.14-0.93-1.99-1.67-0.98
						c0.11-0.06,0.21-0.11,0.32-0.17c0.38,0.38,0.75,0.75,1.13,1.13c0.65-5.14,1.91-10.19,3.06-15.23
						c1.01-4.43,2.15-8.96,1.99-13.53C180.27,93.35,178.52,93.34,178.53,94.49L178.53,94.49z"/>
				</g>
			</g>
			<g class="st10">
				<g>
					<path d="M190.08,92.87c-1.33,5.91-2.04,11.96-3.61,17.81c-1.39,5.16-4.24,10.31-4.23,15.76c0,1.44,2.08,1.39,2.2,0
						c0.5-5.46,2.9-10.39,4.22-15.66c1.44-5.74,1.87-11.66,3.07-17.45C191.95,92.25,190.32,91.79,190.08,92.87L190.08,92.87z"/>
				</g>
			</g>
			<g class="st10">
				<g>
					<path d="M200.44,93.93c0,5.05-2.03,9.95-3.37,14.75c-1.38,4.91-1.93,10.02-3.24,14.95c-0.34,1.3,1.53,1.77,1.99,0.55
						c1.84-4.89,1.97-10.32,3.37-15.34c1.36-4.88,3.05-9.78,2.9-14.91C202.07,92.87,200.44,92.87,200.44,93.93L200.44,93.93z"/>
				</g>
			</g>
			<g class="st10">
				<g>
					<path d="M215.69,94.36c-1.26,2.67-2.28,5.39-3.19,8.2c-0.87,2.7-1.78,5.47-2.36,8.25c-0.48,2.3-0.66,4.64-0.97,6.97
						c-0.17,1.27-0.37,2.55-0.68,3.79c-0.27,1.11-0.78,2.13-1.07,3.23c-0.22,0.81,0.88,1.54,1.47,0.86
						c1.41-1.63,1.76-4.22,2.08-6.28c0.37-2.44,0.54-4.9,0.97-7.33c0.47-2.66,1.34-5.27,2.09-7.86c0.89-3.04,1.83-6.08,3.07-9
						C217.5,94.24,216.15,93.4,215.69,94.36L215.69,94.36z"/>
				</g>
			</g>
			<g class="st11">
				<path d="M93.41,120.83c4.3-8.78,8.59-17.56,12.89-26.33c5.23,8.22,10.46,16.44,15.69,24.65
					C112.46,119.71,102.94,120.27,93.41,120.83z"/>
			</g>
			<g class="st11">
				<path d="M226.77,104.96c-19.1,0.38-38.2,0.76-57.31,1.14c3.92,4.51,7.83,9.02,11.75,13.52
					C196.4,114.74,211.58,109.85,226.77,104.96z"/>
			</g>
		</g>
		<g class="st4">
			<g>
				<path class="st9" d="M146.35,79.76c2.99,3.08,7.86,8.2,13.6,14.86c7.04,8.16,9.7,12.03,16.28,19.51
					c3.19,3.63,8.16,9.08,14.73,15.47c-29.19-0.29-58.37-0.59-87.56-0.88c3.02-3.18,7.65-8.17,13.14-14.5
					c6.03-6.95,8.62-10.37,14.61-17.39C134.64,92.74,139.79,86.82,146.35,79.76z"/>
				<g>
					<path d="M145.22,80.9c6.15,6.37,12.06,12.99,17.69,19.82c5.13,6.22,10.13,12.53,15.57,18.49c3.64,3.98,7.4,7.85,11.26,11.61
						c0.41-0.98,0.81-1.96,1.22-2.95c-22.72-0.24-45.44-0.49-68.16-0.73c-6.47-0.07-12.94-0.14-19.4-0.21
						c0.42,1.02,0.84,2.04,1.27,3.05c5.85-6.17,11.53-12.5,17.01-19c5.1-6.05,10.09-12.19,15.31-18.14
						c3.49-3.98,7.05-7.91,10.66-11.8c1.59-1.71-0.98-4.3-2.57-2.57c-5.87,6.32-11.6,12.78-17.16,19.38
						c-5.68,6.74-11.23,13.57-17.1,20.15c-2.85,3.19-5.74,6.34-8.67,9.45c-1.06,1.12-0.31,3.04,1.27,3.05
						c22.72,0.21,45.44,0.41,68.16,0.63c6.47,0.06,12.94,0.12,19.4,0.19c1.49,0.01,2.29-1.9,1.22-2.95
						c-6.35-6.19-12.43-12.65-18.16-19.43c-5.86-6.93-11.45-14.05-17.54-20.78c-2.94-3.24-5.93-6.42-8.99-9.55
						C146.04,77.14,143.78,79.41,145.22,80.9z"/>
				</g>
			</g>
			<g>
				<path class="st9" d="M146.21,80.74c-0.84,1.98-1.92,4.85-2.81,8.4c-0.86,3.42-1.16,6.03-1.68,10.18
					c-0.41,3.21-0.82,6.36-0.82,9.62c0,2.5-0.16,5.6,0.24,9.61c0.27,2.63,0.79,6.13,1.9,10.2c1.3,0.08,2.61,0.16,3.91,0.24
					c0.15-0.55,0.36-1.37,0.59-2.36c1.07-4.72,1.27-8.37,1.44-12.66c0.28-6.73,0.41-10.09,0.4-13.78
					c-0.03-8.57-0.54-11.63-1.34-14.43C147.44,83.63,146.74,81.91,146.21,80.74z"/>
				<g>
					<path d="M144.9,79.97c-3.32,7.78-4.58,16-5.38,24.38c-0.8,8.3-0.24,16.79,1.93,24.85c0.2,0.74,0.87,1.17,1.59,1.21
						c1.3,0.08,2.61,0.16,3.91,0.24c0.72,0.04,1.42-0.55,1.6-1.22c2.04-7.51,2.14-15.28,2.4-23.02c0.2-5.96,0.39-12.08-0.57-17.99
						c-0.48-2.96-1.49-5.81-2.71-8.55c-0.88-1.98-3.79-0.26-2.91,1.7c2.11,4.73,2.75,9.49,2.9,14.62
						c0.19,6.62-0.09,13.25-0.42,19.86c-0.21,4.24-0.77,8.38-1.87,12.48c0.53-0.41,1.06-0.81,1.6-1.22
						c-1.3-0.08-2.61-0.16-3.91-0.24c0.53,0.4,1.06,0.81,1.59,1.21c-2.08-7.71-2.59-15.78-1.91-23.73
						c0.69-8.02,1.86-15.97,4.95-23.45C148.33,79.56,145.57,78.39,144.9,79.97z"/>
				</g>
			</g>
		</g>
		<g class="st4">
			<path class="st9" d="M146.07,127.19c-8.96-2.08-16.38-3.89-21.97-5.28c-4.91-1.22-8.41-2.09-13.27-3.38
				c-6.71-1.78-9.6-2.67-22.52-5.9c-5.81-1.45-6.26-1.75-21.2-5.87c-7.06-1.95-12.84-3.53-16.66-4.57c1.24,2.1,2.95,4.97,4.99,8.35
				c2.06,3.41,6.61,10.93,11.8,19.09c4.21,6.62,9.96,15.39,17.22,25.81c7.38,0.5,17.82,1.1,30.36,1.44
				c12.66,0.34,22.24,0.28,33.44,0.17c15.3-0.16,35.57-0.43,59.96-0.94c7.43-12.22,14.92-24.47,22.46-36.73
				c3.01-4.9,6.03-9.8,9.04-14.68c-4.9,0.71-12.92,1.98-22.73,4.12c-16.81,3.66-25.12,6.85-46.29,12.39
				C165.14,122.66,156.63,124.82,146.07,127.19z"/>
			<g>
				<path d="M146.5,125.63c-14.13-3.3-28.23-6.76-42.23-10.55c-9.33-2.53-18.7-4.84-28-7.47c-8.45-2.38-16.91-4.69-25.38-7.01
					c-1.38-0.38-2.6,1.18-1.86,2.42c7.41,12.53,15.03,24.94,23.04,37.09c2.23,3.37,4.48,6.73,6.76,10.07c1.3,1.9,2.59,3.8,3.92,5.68
					c0.65,0.92,1.18,1.19,2.3,1.26c0.72,0.05,1.44,0.1,2.16,0.14c7.66,0.49,15.34,0.86,23.01,1.12c15.89,0.53,31.78,0.39,47.67,0.2
					c16.28-0.19,32.56-0.46,48.84-0.8c1.14-0.02,2.16,0.13,2.92-0.86c0.74-0.95,1.3-2.13,1.92-3.16c1.2-1.97,2.4-3.94,3.6-5.9
					c2.49-4.08,4.98-8.16,7.48-12.24c4.95-8.09,9.91-16.17,14.89-24.24c1.21-1.96,2.41-3.91,3.62-5.87
					c0.84-1.37-0.55-2.64-1.88-2.45c-12.16,1.76-24.23,4.19-36.11,7.35c-11.73,3.12-23.34,6.69-35.1,9.72
					c-7.45,1.92-14.94,3.73-22.45,5.42c-2.1,0.47-1.21,3.7,0.89,3.22c13.2-2.98,26.32-6.31,39.34-10
					c11.12-3.15,22.18-6.39,33.49-8.79c6.9-1.46,13.84-2.7,20.82-3.71c-0.63-0.82-1.26-1.63-1.88-2.45
					c-10.56,17.1-21.06,34.24-31.5,51.41c0.48-0.27,0.96-0.55,1.44-0.82c-16.6,0.35-33.2,0.63-49.8,0.83
					c-16.15,0.2-32.29,0.34-48.44-0.2c-8.51-0.29-17.02-0.72-25.52-1.29c0.48,0.27,0.95,0.55,1.43,0.82
					c-9.67-13.87-18.83-28.07-27.59-42.53c-2.16-3.56-4.3-7.13-6.42-10.71c-0.62,0.81-1.24,1.62-1.86,2.42
					c11.63,3.18,23.21,6.56,34.87,9.66c5.59,1.49,11.23,2.83,16.82,4.32c5.71,1.53,11.41,3.08,17.15,4.51
					c8.91,2.23,17.84,4.39,26.79,6.47C147.67,129.22,148.53,126.11,146.5,125.63z"/>
			</g>
		</g>
		<g class="st4">
			<g>
				<g>
					<path d="M145.6,129.34c4.47,1.45,8.85,3.21,13.25,4.86c4.18,1.56,7.99,3.99,12.26,5.32c2.08,0.65,2.9-2.52,0.89-3.23
						c-4.21-1.49-8.08-3.77-12.27-5.31c-4.41-1.62-8.8-3.32-13.32-4.63C144.5,125.8,143.72,128.72,145.6,129.34L145.6,129.34z"/>
				</g>
			</g>
			<g>
				<g>
					<path d="M144.71,125.98c-4.47,1.44-8.81,3.27-13.17,5.02c-4.14,1.66-7.94,4.06-12.11,5.67c-1.97,0.76-1.18,3.94,0.89,3.23
						c4.23-1.46,7.98-3.98,12.1-5.68c4.35-1.79,8.68-3.67,13.11-5.25C147.39,128.3,146.63,125.36,144.71,125.98L144.71,125.98z"/>
				</g>
			</g>
			<path class="st12" d="M146.69,127.47c-20.98,8.98-41.96,17.97-62.93,26.95c15.9,1.38,32.71,2.34,50.35,2.71
				c26.74,0.57,51.73-0.28,74.72-2.01C188.11,145.91,167.4,136.69,146.69,127.47z"/>
			<g class="st13">
				<g>
					<path d="M143.44,85.44c-1.36,5.96-1.21,12.04-1.26,18.11c-0.03,3.36-0.33,6.71-0.43,10.07c-0.05,1.72-0.06,3.44,0.02,5.16
						c0.09,1.7,0.1,3.73,0.73,5.32c0.52,1.31,1.62,2.26,3.11,2.03c1.39-0.21,2.45-1.34,2.46-2.79c0.01-1.58-0.39-3.21-0.48-4.8
						c-0.09-1.64-0.09-3.28-0.06-4.93c0.07-3.29,0.23-6.58,0.2-9.87c-0.02-2.85-0.1-5.7-0.07-8.56c0.03-2.78,0.02-5.71,0.5-8.45
						c0.23-1.3-0.35-2.64-1.71-3.01C145.22,83.39,143.73,84.14,143.44,85.44L143.44,85.44z"/>
				</g>
			</g>
		</g>
	</g>
</g>
<g id="Paintable">
	<g>
		<path class="st9" d="M50.46,102.2c9.05,0.19,22.77,0.49,39.52,0.94c18.77,0.51,21.3,0.6,35.67,1.06
			c10.03,0.32,40.49,1.21,76.92,1.03c9.44-0.05,22.11-0.18,37.16-0.54c-14.1,13.08-28.19,26.16-42.29,39.23
			c-34.8-0.36-69.6-0.71-104.4-1.07C78.85,129.31,64.65,115.75,50.46,102.2z"/>
		<g>
			<path d="M50.46,103.8c13.34,0.3,26.67,0.64,40.01,1.01c10.6,0.3,21.19,0.62,31.79,0.97c8.65,0.28,17.29,0.53,25.94,0.72
				c14.21,0.31,28.42,0.48,42.63,0.5c14.2,0.02,28.4-0.11,42.6-0.4c2.1-0.04,4.2-0.09,6.3-0.14c-0.42-1-0.83-2.01-1.25-3.01
				c-14.1,13.07-28.2,26.15-42.3,39.22c0.42-0.17,0.84-0.35,1.26-0.52c-27.14-0.28-54.28-0.57-81.42-0.85
				c-7.66-0.08-15.32-0.16-22.98-0.24c0.42,0.18,0.85,0.35,1.27,0.53c-14.19-13.56-28.37-27.13-42.58-40.67
				c-1.68-1.6-4.23,0.94-2.55,2.55c10.58,10.12,21.17,20.22,31.76,30.33c2.65,2.53,5.29,5.05,7.94,7.58c0.6,0.57,1.2,1.15,1.8,1.72
				c0.56,0.54,1.11,1.25,1.88,1.5c0.8,0.25,1.89,0.08,2.73,0.09c1.08,0.01,2.16,0.02,3.25,0.03c7.16,0.07,14.32,0.14,21.48,0.22
				c14.65,0.15,29.31,0.29,43.96,0.44c7.33,0.07,14.65,0.15,21.98,0.22c3.66,0.04,7.34,0.2,10.99,0.11
				c0.95-0.02,1.41-0.22,2.12-0.85c0.62-0.55,1.22-1.13,1.82-1.69c1.4-1.3,2.79-2.59,4.19-3.89c11.97-11.11,23.93-22.22,35.9-33.33
				c1.11-1.03,0.26-3.05-1.25-3.01c-14.2,0.35-28.4,0.55-42.6,0.58c-14.79,0.04-29.59-0.08-44.38-0.35
				c-8.87-0.16-17.74-0.37-26.61-0.64c-9.96-0.31-19.92-0.62-29.89-0.88c-14.02-0.37-28.05-0.7-42.07-0.98
				c-1.24-0.02-2.48-0.05-3.72-0.07C48.4,100.56,48.4,103.75,50.46,103.8z"/>
		</g>
	</g>
</g>
<g id="Слой_5">
	<g>
		<defs>
			<path id="SVGID_5_" d="M50.46,102.2c9.05,0.19,22.77,0.49,39.52,0.94c18.77,0.51,21.3,0.6,35.67,1.06
				c10.03,0.32,40.49,1.21,76.92,1.03c9.44-0.05,22.11-0.18,37.16-0.54c-14.1,13.08-28.19,26.16-42.29,39.23
				c-34.8-0.36-69.6-0.71-104.4-1.07C78.85,129.31,64.65,115.75,50.46,102.2z"/>
		</defs>
		<clipPath id="SVGID_6_">
			<use xlink:href="#SVGID_5_"  style="overflow:visible;"/>
		</clipPath>
		<g class="st14">
			<g>
				<path d="M76.37,94.56c-1.07,4.74-2.97,9.25-4.77,13.75c-1.85,4.64-3.41,9.46-4.86,14.24c-0.3,0.98,1.27,1.7,1.7,0.72
					c0.97-2.23,1.6-4.63,2.31-6.96c0.76-2.47,1.59-4.9,2.53-7.3c1.8-4.58,3.64-9.18,4.67-14.01C78.18,93.96,76.6,93.52,76.37,94.56
					L76.37,94.56z"/>
			</g>
		</g>
		<g class="st14">
			<g>
				<path d="M91.44,93.42c-2.96,10.36-7.64,20.22-10.03,30.76c-0.32,1.4,1.79,1.99,2.15,0.59c2.72-10.44,6.94-20.42,9.58-30.88
					C93.42,92.78,91.75,92.32,91.44,93.42L91.44,93.42z"/>
			</g>
		</g>
		<g class="st14">
			<g>
				<path d="M103.48,94.54c-0.94,5.77-2.99,11.31-4.9,16.82c-0.95,2.73-1.87,5.48-2.64,8.27c-0.39,1.42-0.73,2.86-1.01,4.31
					c-0.21,1.11-0.76,2.48,0.06,3.42c0.32,0.37,0.88,0.36,1.28,0.17c0.01-0.01,0.03-0.01,0.04-0.02c0.31-0.15,0.54-0.56,0.52-0.9
					c-0.01-0.06-0.01-0.13-0.01-0.19c0.25-0.88-0.92-1.6-1.56-0.91c-0.17,0.18-0.27,0.36-0.38,0.57c0.3-0.17,0.6-0.35,0.9-0.52
					c-0.02,0-0.03,0-0.05-0.01c0.34,0.26,0.68,0.52,1.02,0.78c-0.13-0.37,0.22-1.41,0.29-1.8c0.12-0.65,0.26-1.3,0.41-1.95
					c0.3-1.3,0.64-2.58,1.01-3.86c0.78-2.71,1.7-5.38,2.61-8.05c1.77-5.22,3.41-10.41,4.14-15.89
					C105.35,93.79,103.64,93.55,103.48,94.54L103.48,94.54z"/>
			</g>
		</g>
		<g class="st14">
			<g>
				<path d="M119.74,95.1c-1.86,5.58-3.5,11.23-5.47,16.77c-1.78,5-3.84,10.02-4.04,15.4c-0.05,1.43,2.17,1.43,2.23,0
					c0.19-5.3,2.37-10.28,4.07-15.22c1.86-5.43,3.24-11,4.91-16.48C121.76,94.48,120.1,94.04,119.74,95.1L119.74,95.1z"/>
			</g>
		</g>
		<g class="st14">
			<g>
				<path d="M178.53,94.49c0.04,4.67-1.35,9.25-2.43,13.75c-1.19,4.94-2.59,9.95-3.08,15.02c-0.07,0.72,0.78,1.29,1.43,1.09
					c0.08-0.03,0.17-0.05,0.25-0.08c0.33-0.1,0.7-0.39,0.76-0.76c0.02-0.08,0.03-0.15,0.05-0.23c0.51-1.14-0.93-1.99-1.67-0.98
					c0.11-0.06,0.21-0.11,0.32-0.17c0.38,0.38,0.75,0.75,1.13,1.13c0.65-5.14,1.91-10.19,3.06-15.23c1.01-4.43,2.15-8.96,1.99-13.53
					C180.27,93.35,178.52,93.34,178.53,94.49L178.53,94.49z"/>
			</g>
		</g>
		<g class="st14">
			<g>
				<path d="M190.08,92.87c-1.33,5.91-2.04,11.96-3.61,17.81c-1.39,5.16-4.24,10.31-4.23,15.76c0,1.44,2.08,1.39,2.2,0
					c0.5-5.46,2.9-10.39,4.22-15.66c1.44-5.74,1.87-11.66,3.07-17.45C191.95,92.25,190.32,91.79,190.08,92.87L190.08,92.87z"/>
			</g>
		</g>
		<g class="st14">
			<g>
				<path d="M200.44,93.93c0,5.05-2.03,9.95-3.37,14.75c-1.38,4.91-1.93,10.02-3.24,14.95c-0.34,1.3,1.53,1.77,1.99,0.55
					c1.84-4.89,1.97-10.32,3.37-15.34c1.36-4.88,3.05-9.78,2.9-14.91C202.07,92.87,200.44,92.87,200.44,93.93L200.44,93.93z"/>
			</g>
		</g>
		<g class="st14">
			<g>
				<path d="M215.69,94.36c-1.26,2.67-2.28,5.39-3.19,8.2c-0.87,2.7-1.78,5.47-2.36,8.25c-0.48,2.3-0.66,4.64-0.97,6.97
					c-0.17,1.27-0.37,2.55-0.68,3.79c-0.27,1.11-0.78,2.13-1.07,3.23c-0.22,0.81,0.88,1.54,1.47,0.86c1.41-1.63,1.76-4.22,2.08-6.28
					c0.37-2.44,0.54-4.9,0.97-7.33c0.47-2.66,1.34-5.27,2.09-7.86c0.89-3.04,1.83-6.08,3.07-9C217.5,94.24,216.15,93.4,215.69,94.36
					L215.69,94.36z"/>
			</g>
		</g>
		<g class="st15">
			<path d="M93.41,120.83c4.3-8.78,8.59-17.56,12.89-26.33c5.23,8.22,10.46,16.44,15.69,24.65
				C112.46,119.71,102.94,120.27,93.41,120.83z"/>
		</g>
		<g class="st15">
			<path d="M226.77,104.96c-19.1,0.38-38.2,0.76-57.31,1.14c3.92,4.51,7.83,9.02,11.75,13.52
				C196.4,114.74,211.58,109.85,226.77,104.96z"/>
		</g>
	</g>
</g>
<g id="Paintable_1_">
	<g>
		<g>
			<path class="st9" d="M146.35,79.76c2.99,3.08,7.86,8.2,13.6,14.86c7.04,8.16,9.7,12.03,16.28,19.51
				c3.19,3.63,8.16,9.08,14.73,15.47c-29.19-0.29-58.37-0.59-87.56-0.88c3.02-3.18,7.65-8.17,13.14-14.5
				c6.03-6.95,8.62-10.37,14.61-17.39C134.64,92.74,139.79,86.82,146.35,79.76z"/>
			<g>
				<path d="M145.22,80.9c6.15,6.37,12.06,12.99,17.69,19.82c5.13,6.22,10.13,12.53,15.57,18.49c3.64,3.98,7.4,7.85,11.26,11.61
					c0.41-0.98,0.81-1.96,1.22-2.95c-22.72-0.24-45.44-0.49-68.16-0.73c-6.47-0.07-12.94-0.14-19.4-0.21
					c0.42,1.02,0.84,2.04,1.27,3.05c5.85-6.17,11.53-12.5,17.01-19c5.1-6.05,10.09-12.19,15.31-18.14
					c3.49-3.98,7.05-7.91,10.66-11.8c1.59-1.71-0.98-4.3-2.57-2.57c-5.87,6.32-11.6,12.78-17.16,19.38
					c-5.68,6.74-11.23,13.57-17.1,20.15c-2.85,3.19-5.74,6.34-8.67,9.45c-1.06,1.12-0.31,3.04,1.27,3.05
					c22.72,0.21,45.44,0.41,68.16,0.63c6.47,0.06,12.94,0.12,19.4,0.19c1.49,0.01,2.29-1.9,1.22-2.95
					c-6.35-6.19-12.43-12.65-18.16-19.43c-5.86-6.93-11.45-14.05-17.54-20.78c-2.94-3.24-5.93-6.42-8.99-9.55
					C146.04,77.14,143.78,79.41,145.22,80.9z"/>
			</g>
		</g>
		<g>
			<path class="st9" d="M146.21,80.74c-0.84,1.98-1.92,4.85-2.81,8.4c-0.86,3.42-1.16,6.03-1.68,10.18
				c-0.41,3.21-0.82,6.36-0.82,9.62c0,2.5-0.16,5.6,0.24,9.61c0.27,2.63,0.79,6.13,1.9,10.2c1.3,0.08,2.61,0.16,3.91,0.24
				c0.15-0.55,0.36-1.37,0.59-2.36c1.07-4.72,1.27-8.37,1.44-12.66c0.28-6.73,0.41-10.09,0.4-13.78
				c-0.03-8.57-0.54-11.63-1.34-14.43C147.44,83.63,146.74,81.91,146.21,80.74z"/>
			<g>
				<path d="M144.9,79.97c-3.32,7.78-4.58,16-5.38,24.38c-0.8,8.3-0.24,16.79,1.93,24.85c0.2,0.74,0.87,1.17,1.59,1.21
					c1.3,0.08,2.61,0.16,3.91,0.24c0.72,0.04,1.42-0.55,1.6-1.22c2.04-7.51,2.14-15.28,2.4-23.02c0.2-5.96,0.39-12.08-0.57-17.99
					c-0.48-2.96-1.49-5.81-2.71-8.55c-0.88-1.98-3.79-0.26-2.91,1.7c2.11,4.73,2.75,9.49,2.9,14.62c0.19,6.62-0.09,13.25-0.42,19.86
					c-0.21,4.24-0.77,8.38-1.87,12.48c0.53-0.41,1.06-0.81,1.6-1.22c-1.3-0.08-2.61-0.16-3.91-0.24c0.53,0.4,1.06,0.81,1.59,1.21
					c-2.08-7.71-2.59-15.78-1.91-23.73c0.69-8.02,1.86-15.97,4.95-23.45C148.33,79.56,145.57,78.39,144.9,79.97z"/>
			</g>
		</g>
	</g>
</g>
<g id="Paintable_2_">
	<g>
		<path class="st9" d="M146.07,127.19c-8.96-2.08-16.38-3.89-21.97-5.28c-4.91-1.22-8.41-2.09-13.27-3.38
			c-6.71-1.78-9.6-2.67-22.52-5.9c-5.81-1.45-6.26-1.75-21.2-5.87c-7.06-1.95-12.84-3.53-16.66-4.57c1.24,2.1,2.95,4.97,4.99,8.35
			c2.06,3.41,6.61,10.93,11.8,19.09c4.21,6.62,9.96,15.39,17.22,25.81c7.38,0.5,17.82,1.1,30.36,1.44
			c12.66,0.34,22.24,0.28,33.44,0.17c15.3-0.16,35.57-0.43,59.96-0.94c7.43-12.22,14.92-24.47,22.46-36.73
			c3.01-4.9,6.03-9.8,9.04-14.68c-4.9,0.71-12.92,1.98-22.73,4.12c-16.81,3.66-25.12,6.85-46.29,12.39
			C165.14,122.66,156.63,124.82,146.07,127.19z"/>
		<g>
			<path d="M146.5,125.63c-14.13-3.3-28.23-6.76-42.23-10.55c-9.33-2.53-18.7-4.84-28-7.47c-8.45-2.38-16.91-4.69-25.38-7.01
				c-1.38-0.38-2.6,1.18-1.86,2.42c7.41,12.53,15.03,24.94,23.04,37.09c2.23,3.37,4.48,6.73,6.76,10.07c1.3,1.9,2.59,3.8,3.92,5.68
				c0.65,0.92,1.18,1.19,2.3,1.26c0.72,0.05,1.44,0.1,2.16,0.14c7.66,0.49,15.34,0.86,23.01,1.12c15.89,0.53,31.78,0.39,47.67,0.2
				c16.28-0.19,32.56-0.46,48.84-0.8c1.14-0.02,2.16,0.13,2.92-0.86c0.74-0.95,1.3-2.13,1.92-3.16c1.2-1.97,2.4-3.94,3.6-5.9
				c2.49-4.08,4.98-8.16,7.48-12.24c4.95-8.09,9.91-16.17,14.89-24.24c1.21-1.96,2.41-3.91,3.62-5.87c0.84-1.37-0.55-2.64-1.88-2.45
				c-12.16,1.76-24.23,4.19-36.11,7.35c-11.73,3.12-23.34,6.69-35.1,9.72c-7.45,1.92-14.94,3.73-22.45,5.42
				c-2.1,0.47-1.21,3.7,0.89,3.22c13.2-2.98,26.32-6.31,39.34-10c11.12-3.15,22.18-6.39,33.49-8.79c6.9-1.46,13.84-2.7,20.82-3.71
				c-0.63-0.82-1.26-1.63-1.88-2.45c-10.56,17.1-21.06,34.24-31.5,51.41c0.48-0.27,0.96-0.55,1.44-0.82
				c-16.6,0.35-33.2,0.63-49.8,0.83c-16.15,0.2-32.29,0.34-48.44-0.2c-8.51-0.29-17.02-0.72-25.52-1.29
				c0.48,0.27,0.95,0.55,1.43,0.82c-9.67-13.87-18.83-28.07-27.59-42.53c-2.16-3.56-4.3-7.13-6.42-10.71
				c-0.62,0.81-1.24,1.62-1.86,2.42c11.63,3.18,23.21,6.56,34.87,9.66c5.59,1.49,11.23,2.83,16.82,4.32
				c5.71,1.53,11.41,3.08,17.15,4.51c8.91,2.23,17.84,4.39,26.79,6.47C147.67,129.22,148.53,126.11,146.5,125.63z"/>
		</g>
	</g>
</g>
<g id="Слой_2">
	<g>
		<g>
			<g>
				<path d="M145.6,129.34c4.47,1.45,8.85,3.21,13.25,4.86c4.18,1.56,7.99,3.99,12.26,5.32c2.08,0.65,2.9-2.52,0.89-3.23
					c-4.21-1.49-8.08-3.77-12.27-5.31c-4.41-1.62-8.8-3.32-13.32-4.63C144.5,125.8,143.72,128.72,145.6,129.34L145.6,129.34z"/>
			</g>
		</g>
		<g>
			<g>
				<path d="M144.71,125.98c-4.47,1.44-8.81,3.27-13.17,5.02c-4.14,1.66-7.94,4.06-12.11,5.67c-1.97,0.76-1.18,3.94,0.89,3.23
					c4.23-1.46,7.98-3.98,12.1-5.68c4.35-1.79,8.68-3.67,13.11-5.25C147.39,128.3,146.63,125.36,144.71,125.98L144.71,125.98z"/>
			</g>
		</g>
		<path class="st12" d="M146.69,127.47c-20.98,8.98-41.96,17.97-62.93,26.95c15.9,1.38,32.71,2.34,50.35,2.71
			c26.74,0.57,51.73-0.28,74.72-2.01C188.11,145.91,167.4,136.69,146.69,127.47z"/>
		<g class="st13">
			<g>
				<path d="M143.44,85.44c-1.36,5.96-1.21,12.04-1.26,18.11c-0.03,3.36-0.33,6.71-0.43,10.07c-0.05,1.72-0.06,3.44,0.02,5.16
					c0.09,1.7,0.1,3.73,0.73,5.32c0.52,1.31,1.62,2.26,3.11,2.03c1.39-0.21,2.45-1.34,2.46-2.79c0.01-1.58-0.39-3.21-0.48-4.8
					c-0.09-1.64-0.09-3.28-0.06-4.93c0.07-3.29,0.23-6.58,0.2-9.87c-0.02-2.85-0.1-5.7-0.07-8.56c0.03-2.78,0.02-5.71,0.5-8.45
					c0.23-1.3-0.35-2.64-1.71-3.01C145.22,83.39,143.73,84.14,143.44,85.44L143.44,85.44z"/>
			</g>
		</g>
	</g>
</g>
</svg>
