<?xml version="1.0" encoding="utf-8"?>
<!-- Generator: Adobe Illustrator 25.0.0, SVG Export Plug-In . SVG Version: 6.00 Build 0)  -->
<svg version="1.1" xmlns="http://www.w3.org/2000/svg" xmlns:xlink="http://www.w3.org/1999/xlink" x="0px" y="0px"
	 viewBox="0 0 143.5 91.8" style="enable-background:new 0 0 143.5 91.8;" xml:space="preserve">
<style type="text/css">
	.st0{clip-path:url(#SVGID_2_);}
	.st1{fill:#F0F6FC;}
	.st2{fill:#E1EBF7;}
	.st3{fill:#CFDFF8;}
	.st4{fill:#CBD9F4;}
	.st5{fill:#A0BCEB;}
	.st6{fill:#E3EAFA;}
	.st7{fill:#FFFFFF;}
	.st8{fill:#BBC9E6;}
	.st9{fill:#7096BD;}
	.st10{fill:#FFFDFE;}
	.st11{fill:#C4D0EA;}
	.st12{fill:#38293C;}
	.st13{fill:#975354;}
	.st14{fill:#D84B59;}
	.st15{fill:#97544E;}
	.st16{fill:#FAA89D;}
	.st17{fill:#F18D7D;}
	.st18{clip-path:url(#SVGID_4_);}
	.st19{clip-path:url(#Paintable_6_);}
	.st20{fill:#C63C50;}
	.st21{clip-path:url(#Paintable_7_);}
	.st22{fill:#567CA1;}
	.st23{fill:#FCFAE0;}
	.st24{clip-path:url(#SVGID_6_);}
	.st25{fill:#589BA1;}
</style>
<g id="background">
	<g>
		<defs>
			<rect id="SVGID_1_" x="0" width="143.5" height="91.8"/>
		</defs>
		<clipPath id="SVGID_2_">
			<use xlink:href="#SVGID_1_"  style="overflow:visible;"/>
		</clipPath>
		<g class="st0">
			<rect x="0" y="50.3" class="st1" width="143.5" height="41.6"/>
			<rect x="0" class="st2" width="143.5" height="63.4"/>
			<g>
				<rect x="51.5" y="28.2" class="st3" width="40" height="32.7"/>
				<rect x="53.5" y="30.5" class="st2" width="35.9" height="28.1"/>
				<rect x="52.5" y="48.6" class="st3" width="37.9" height="1.2"/>
				<rect x="52.5" y="38.7" class="st3" width="37.9" height="1.2"/>
				<g>
					<g>
						<polygon class="st4" points="55.1,38.8 58.4,38.8 58.4,35 56.7,33.2 55.1,35 						"/>
						<rect x="56.6" y="32.1" class="st4" width="0.3" height="1.6"/>
						<polygon class="st5" points="55.9,34.9 56.7,34 57.5,34.9 						"/>
						<rect x="55.4" y="36.9" class="st5" width="2.6" height="1.5"/>
					</g>
					<g>
						<polygon class="st4" points="59.2,38.8 62.6,38.8 62.5,35 60.9,33.2 59.3,35 						"/>
						<rect x="60.7" y="32.1" class="st4" width="0.3" height="1.6"/>
						<polygon class="st5" points="60.1,34.9 60.9,34 61.7,34.9 						"/>
						<rect x="59.6" y="36.9" class="st5" width="2.6" height="1.5"/>
					</g>
					<g>
						<polygon class="st4" points="63.4,38.8 66.7,38.8 66.7,35 65,33.2 63.4,35 						"/>
						<rect x="64.9" y="32.1" class="st4" width="0.3" height="1.6"/>
						<polygon class="st5" points="64.2,34.9 65,34 65.8,34.9 						"/>
						<rect x="63.7" y="36.9" class="st5" width="2.6" height="1.5"/>
					</g>
					<g>
						<polygon class="st4" points="67.6,38.8 70.9,38.8 70.8,35 69.2,33.2 67.6,35 						"/>
						<rect x="69" y="32.1" class="st4" width="0.3" height="1.6"/>
						<polygon class="st5" points="68.4,34.9 69.2,34 70,34.9 						"/>
						<rect x="67.9" y="36.9" class="st5" width="2.6" height="1.5"/>
					</g>
					<g>
						<polygon class="st4" points="71.7,38.8 75,38.8 75,35 73.3,33.2 71.7,35 						"/>
						<rect x="73.2" y="32.1" class="st4" width="0.3" height="1.6"/>
						<polygon class="st5" points="72.5,34.9 73.3,34 74.2,34.9 						"/>
						<rect x="72" y="36.9" class="st5" width="2.6" height="1.5"/>
					</g>
					<g>
						<polygon class="st4" points="75.9,38.8 79.2,38.8 79.1,35 77.5,33.2 75.9,35 						"/>
						<rect x="77.3" y="32.1" class="st4" width="0.3" height="1.6"/>
						<polygon class="st5" points="76.7,34.9 77.5,34 78.3,34.9 						"/>
						<rect x="76.2" y="36.9" class="st5" width="2.6" height="1.5"/>
					</g>
					<g>
						<polygon class="st4" points="80,38.8 83.3,38.8 83.3,35 81.6,33.2 80,35 						"/>
						<rect x="81.5" y="32.1" class="st4" width="0.3" height="1.6"/>
						<polygon class="st5" points="80.8,34.9 81.6,34 82.5,34.9 						"/>
						<rect x="80.3" y="36.9" class="st5" width="2.6" height="1.5"/>
					</g>
					<g>
						<polygon class="st4" points="84.2,38.8 87.5,38.8 87.5,35 85.8,33.2 84.2,35 						"/>
						<rect x="85.7" y="32.1" class="st4" width="0.3" height="1.6"/>
						<polygon class="st5" points="85,34.9 85.8,34 86.6,34.9 						"/>
						<rect x="84.5" y="36.9" class="st5" width="2.6" height="1.5"/>
					</g>
				</g>
				<g>
					<polygon class="st4" points="57.2,48.7 54.8,48.7 54.1,43.8 57.8,43.8 					"/>
					<polygon class="st5" points="61.5,48.7 59.1,48.7 58.5,43.8 62.2,43.8 					"/>
					<polygon class="st4" points="66,48.7 63.6,48.7 63,43.8 66.7,43.8 					"/>
					<polygon class="st5" points="70.4,48.7 68,48.7 67.3,43.8 71.1,43.8 					"/>
					<polygon class="st4" points="74.9,48.7 72.5,48.7 71.8,43.8 75.6,43.8 					"/>
					<polygon class="st5" points="79.3,48.7 76.9,48.7 76.2,43.8 80,43.8 					"/>
					<polygon class="st4" points="83.8,48.7 81.4,48.7 80.7,43.8 84.5,43.8 					"/>
					<polygon class="st5" points="88.1,48.7 85.7,48.7 85.1,43.8 88.8,43.8 					"/>
				</g>
				<g>
					<g>
						<path class="st5" d="M59.7,58.6h-3.2c-0.5,0-0.8-0.4-0.8-0.8l0,0c0-0.5,0.4-0.8,0.8-0.8h3.2c0.5,0,0.8,0.4,0.8,0.8l0,0
							C60.5,58.2,60.1,58.6,59.7,58.6z"/>
						<path class="st4" d="M59.7,56.9h-3.2c-0.5,0-0.8-0.4-0.8-0.8l0,0c0-0.5,0.4-0.8,0.8-0.8h3.2c0.5,0,0.8,0.4,0.8,0.8l0,0
							C60.5,56.5,60.1,56.9,59.7,56.9z"/>
						<path class="st5" d="M59.7,55.2h-3.2c-0.5,0-0.8-0.4-0.8-0.8l0,0c0-0.5,0.4-0.8,0.8-0.8h3.2c0.5,0,0.8,0.4,0.8,0.8l0,0
							C60.5,54.8,60.1,55.2,59.7,55.2z"/>
						<path class="st4" d="M59.7,53.5h-3.2c-0.5,0-0.8-0.4-0.8-0.8l0,0c0-0.5,0.4-0.8,0.8-0.8h3.2c0.5,0,0.8,0.4,0.8,0.8l0,0
							C60.5,53.1,60.1,53.5,59.7,53.5z"/>
					</g>
					<g>
						<path class="st5" d="M65.1,58.6h-3.2c-0.5,0-0.8-0.4-0.8-0.8l0,0c0-0.5,0.4-0.8,0.8-0.8h3.2c0.5,0,0.8,0.4,0.8,0.8l0,0
							C65.9,58.2,65.5,58.6,65.1,58.6z"/>
						<path class="st4" d="M65.1,56.9h-3.2c-0.5,0-0.8-0.4-0.8-0.8l0,0c0-0.5,0.4-0.8,0.8-0.8h3.2c0.5,0,0.8,0.4,0.8,0.8l0,0
							C65.9,56.5,65.5,56.9,65.1,56.9z"/>
						<path class="st5" d="M65.1,55.2h-3.2c-0.5,0-0.8-0.4-0.8-0.8l0,0c0-0.5,0.4-0.8,0.8-0.8h3.2c0.5,0,0.8,0.4,0.8,0.8l0,0
							C65.9,54.8,65.5,55.2,65.1,55.2z"/>
						<path class="st4" d="M65.1,53.5h-3.2c-0.5,0-0.8-0.4-0.8-0.8l0,0c0-0.5,0.4-0.8,0.8-0.8h3.2c0.5,0,0.8,0.4,0.8,0.8l0,0
							C65.9,53.1,65.5,53.5,65.1,53.5z"/>
					</g>
					<g>
						<path class="st5" d="M70.5,58.6h-3.2c-0.5,0-0.8-0.4-0.8-0.8l0,0c0-0.5,0.4-0.8,0.8-0.8h3.2c0.5,0,0.8,0.4,0.8,0.8l0,0
							C71.3,58.2,70.9,58.6,70.5,58.6z"/>
						<path class="st4" d="M70.5,56.9h-3.2c-0.5,0-0.8-0.4-0.8-0.8l0,0c0-0.5,0.4-0.8,0.8-0.8h3.2c0.5,0,0.8,0.4,0.8,0.8l0,0
							C71.3,56.5,70.9,56.9,70.5,56.9z"/>
						<path class="st5" d="M70.5,55.2h-3.2c-0.5,0-0.8-0.4-0.8-0.8l0,0c0-0.5,0.4-0.8,0.8-0.8h3.2c0.5,0,0.8,0.4,0.8,0.8l0,0
							C71.3,54.8,70.9,55.2,70.5,55.2z"/>
						<path class="st4" d="M70.5,53.5h-3.2c-0.5,0-0.8-0.4-0.8-0.8l0,0c0-0.5,0.4-0.8,0.8-0.8h3.2c0.5,0,0.8,0.4,0.8,0.8l0,0
							C71.3,53.1,70.9,53.5,70.5,53.5z"/>
					</g>
					<g>
						<path class="st5" d="M75.9,58.6h-3.2c-0.5,0-0.8-0.4-0.8-0.8l0,0c0-0.5,0.4-0.8,0.8-0.8h3.2c0.5,0,0.8,0.4,0.8,0.8l0,0
							C76.7,58.2,76.3,58.6,75.9,58.6z"/>
						<path class="st4" d="M75.9,56.9h-3.2c-0.5,0-0.8-0.4-0.8-0.8l0,0c0-0.5,0.4-0.8,0.8-0.8h3.2c0.5,0,0.8,0.4,0.8,0.8l0,0
							C76.7,56.5,76.3,56.9,75.9,56.9z"/>
						<path class="st5" d="M75.9,55.2h-3.2c-0.5,0-0.8-0.4-0.8-0.8l0,0c0-0.5,0.4-0.8,0.8-0.8h3.2c0.5,0,0.8,0.4,0.8,0.8l0,0
							C76.7,54.8,76.3,55.2,75.9,55.2z"/>
						<path class="st4" d="M75.9,53.5h-3.2c-0.5,0-0.8-0.4-0.8-0.8l0,0c0-0.5,0.4-0.8,0.8-0.8h3.2c0.5,0,0.8,0.4,0.8,0.8l0,0
							C76.7,53.1,76.3,53.5,75.9,53.5z"/>
					</g>
					<g>
						<path class="st5" d="M81.3,58.6H78c-0.5,0-0.8-0.4-0.8-0.8l0,0c0-0.5,0.4-0.8,0.8-0.8h3.2c0.5,0,0.8,0.4,0.8,0.8l0,0
							C82.1,58.2,81.7,58.6,81.3,58.6z"/>
						<path class="st4" d="M81.3,56.9H78c-0.5,0-0.8-0.4-0.8-0.8l0,0c0-0.5,0.4-0.8,0.8-0.8h3.2c0.5,0,0.8,0.4,0.8,0.8l0,0
							C82.1,56.5,81.7,56.9,81.3,56.9z"/>
						<path class="st5" d="M81.3,55.2H78c-0.5,0-0.8-0.4-0.8-0.8l0,0c0-0.5,0.4-0.8,0.8-0.8h3.2c0.5,0,0.8,0.4,0.8,0.8l0,0
							C82.1,54.8,81.7,55.2,81.3,55.2z"/>
						<path class="st4" d="M81.3,53.5H78c-0.5,0-0.8-0.4-0.8-0.8l0,0c0-0.5,0.4-0.8,0.8-0.8h3.2c0.5,0,0.8,0.4,0.8,0.8l0,0
							C82.1,53.1,81.7,53.5,81.3,53.5z"/>
					</g>
					<g>
						<path class="st5" d="M86.6,58.6h-3.2c-0.5,0-0.8-0.4-0.8-0.8l0,0c0-0.5,0.4-0.8,0.8-0.8h3.2c0.5,0,0.8,0.4,0.8,0.8l0,0
							C87.5,58.2,87.1,58.6,86.6,58.6z"/>
						<path class="st4" d="M86.6,56.9h-3.2c-0.5,0-0.8-0.4-0.8-0.8l0,0c0-0.5,0.4-0.8,0.8-0.8h3.2c0.5,0,0.8,0.4,0.8,0.8l0,0
							C87.5,56.5,87.1,56.9,86.6,56.9z"/>
						<path class="st5" d="M86.6,55.2h-3.2c-0.5,0-0.8-0.4-0.8-0.8l0,0c0-0.5,0.4-0.8,0.8-0.8h3.2c0.5,0,0.8,0.4,0.8,0.8l0,0
							C87.5,54.8,87.1,55.2,86.6,55.2z"/>
						<path class="st4" d="M86.6,53.5h-3.2c-0.5,0-0.8-0.4-0.8-0.8l0,0c0-0.5,0.4-0.8,0.8-0.8h3.2c0.5,0,0.8,0.4,0.8,0.8l0,0
							C87.5,53.1,87.1,53.5,86.6,53.5z"/>
					</g>
				</g>
			</g>
			<g>
				<rect x="2.9" y="17.2" class="st3" width="40" height="43.8"/>
				<rect x="4.9" y="19.4" class="st2" width="35.9" height="39.3"/>
				<rect x="3.9" y="38.3" class="st3" width="37.9" height="1.2"/>
				<rect x="3.9" y="48.2" class="st3" width="37.9" height="1.2"/>
				<rect x="3.9" y="28.4" class="st3" width="37.9" height="1.2"/>
				<g>
					<g>
						<path class="st4" d="M10.1,38.4H6.3v-3.9c0-0.4,0.4-0.8,0.8-0.8l2.2,0c0.4,0,0.8,0.4,0.8,0.8V38.4z"/>
						<path class="st6" d="M8.2,38L8.2,38c-0.7,0-1.3-0.6-1.3-1.3v-0.1c0-0.7,0.6-1.3,1.3-1.3h0c0.7,0,1.3,0.6,1.3,1.3v0.1
							C9.4,37.5,8.9,38,8.2,38z"/>
					</g>
					<g>
						<path class="st4" d="M14.3,38.4h-3.8v-3.9c0-0.4,0.4-0.8,0.8-0.8l2.2,0c0.4,0,0.8,0.4,0.8,0.8V38.4z"/>
						<path class="st6" d="M12.4,38L12.4,38c-0.7,0-1.3-0.6-1.3-1.3v-0.1c0-0.7,0.6-1.3,1.3-1.3h0c0.7,0,1.3,0.6,1.3,1.3v0.1
							C13.7,37.5,13.1,38,12.4,38z"/>
					</g>
					<g>
						<path class="st4" d="M18.5,38.4h-3.8v-3.9c0-0.4,0.4-0.8,0.8-0.8l2.2,0c0.4,0,0.8,0.4,0.8,0.8V38.4z"/>
						<path class="st6" d="M16.7,38L16.7,38c-0.7,0-1.3-0.6-1.3-1.3v-0.1c0-0.7,0.6-1.3,1.3-1.3h0c0.7,0,1.3,0.6,1.3,1.3v0.1
							C17.9,37.5,17.3,38,16.7,38z"/>
					</g>
					<g>
						<path class="st4" d="M22.8,38.4H19v-3.9c0-0.4,0.4-0.8,0.8-0.8l2.2,0c0.4,0,0.8,0.4,0.8,0.8V38.4z"/>
						<path class="st6" d="M20.9,38L20.9,38c-0.7,0-1.3-0.6-1.3-1.3v-0.1c0-0.7,0.6-1.3,1.3-1.3h0c0.7,0,1.3,0.6,1.3,1.3v0.1
							C22.1,37.5,21.6,38,20.9,38z"/>
					</g>
					<g>
						<path class="st4" d="M27,38.4h-3.8v-3.9c0-0.4,0.4-0.8,0.8-0.8l2.2,0c0.4,0,0.8,0.4,0.8,0.8V38.4z"/>
						<path class="st6" d="M25.1,38L25.1,38c-0.7,0-1.3-0.6-1.3-1.3v-0.1c0-0.7,0.6-1.3,1.3-1.3h0c0.7,0,1.3,0.6,1.3,1.3v0.1
							C26.4,37.5,25.8,38,25.1,38z"/>
					</g>
					<g>
						<path class="st4" d="M31.3,38.4h-3.8v-3.9c0-0.4,0.4-0.8,0.8-0.8l2.2,0c0.4,0,0.8,0.4,0.8,0.8V38.4z"/>
						<path class="st6" d="M29.4,38L29.4,38c-0.7,0-1.3-0.6-1.3-1.3v-0.1c0-0.7,0.6-1.3,1.3-1.3h0c0.7,0,1.3,0.6,1.3,1.3v0.1
							C30.6,37.5,30.1,38,29.4,38z"/>
					</g>
					<g>
						<path class="st4" d="M35.5,38.4h-3.8v-3.9c0-0.4,0.4-0.8,0.8-0.8l2.2,0c0.4,0,0.8,0.4,0.8,0.8V38.4z"/>
						<path class="st6" d="M33.6,38L33.6,38c-0.7,0-1.3-0.6-1.3-1.3v-0.1c0-0.7,0.6-1.3,1.3-1.3h0c0.7,0,1.3,0.6,1.3,1.3v0.1
							C34.9,37.5,34.3,38,33.6,38z"/>
					</g>
					<g>
						<path class="st4" d="M39.8,38.4H36v-3.9c0-0.4,0.4-0.8,0.8-0.8l2.2,0c0.4,0,0.8,0.4,0.8,0.8V38.4z"/>
						<path class="st6" d="M37.9,38L37.9,38c-0.7,0-1.3-0.6-1.3-1.3v-0.1c0-0.7,0.6-1.3,1.3-1.3h0c0.7,0,1.3,0.6,1.3,1.3v0.1
							C39.1,37.5,38.6,38,37.9,38z"/>
					</g>
				</g>
				<g>
					<g>
						<path class="st4" d="M10.2,58.7H6.4v-3.9c0-0.4,0.4-0.8,0.8-0.8l2.2,0c0.4,0,0.8,0.4,0.8,0.8V58.7z"/>
						<path class="st6" d="M8.3,58.4L8.3,58.4c-0.7,0-1.3-0.6-1.3-1.3V57c0-0.7,0.6-1.3,1.3-1.3h0c0.7,0,1.3,0.6,1.3,1.3v0.1
							C9.6,57.8,9,58.4,8.3,58.4z"/>
					</g>
					<g>
						<path class="st4" d="M14.4,58.7h-3.8v-3.9c0-0.4,0.4-0.8,0.8-0.8l2.2,0c0.4,0,0.8,0.4,0.8,0.8V58.7z"/>
						<path class="st6" d="M12.5,58.4L12.5,58.4c-0.7,0-1.3-0.6-1.3-1.3V57c0-0.7,0.6-1.3,1.3-1.3h0c0.7,0,1.3,0.6,1.3,1.3v0.1
							C13.8,57.8,13.2,58.4,12.5,58.4z"/>
					</g>
					<g>
						<path class="st4" d="M18.7,58.7h-3.8v-3.9c0-0.4,0.4-0.8,0.8-0.8l2.2,0c0.4,0,0.8,0.4,0.8,0.8V58.7z"/>
						<path class="st6" d="M16.8,58.4L16.8,58.4c-0.7,0-1.3-0.6-1.3-1.3V57c0-0.7,0.6-1.3,1.3-1.3h0c0.7,0,1.3,0.6,1.3,1.3v0.1
							C18,57.8,17.5,58.4,16.8,58.4z"/>
					</g>
					<g>
						<path class="st4" d="M22.9,58.7h-3.8v-3.9c0-0.4,0.4-0.8,0.8-0.8l2.2,0c0.4,0,0.8,0.4,0.8,0.8V58.7z"/>
						<path class="st6" d="M21,58.4L21,58.4c-0.7,0-1.3-0.6-1.3-1.3V57c0-0.7,0.6-1.3,1.3-1.3h0c0.7,0,1.3,0.6,1.3,1.3v0.1
							C22.3,57.8,21.7,58.4,21,58.4z"/>
					</g>
					<g>
						<path class="st4" d="M27.2,58.7h-3.8v-3.9c0-0.4,0.4-0.8,0.8-0.8l2.2,0c0.4,0,0.8,0.4,0.8,0.8V58.7z"/>
						<path class="st6" d="M25.3,58.4L25.3,58.4c-0.7,0-1.3-0.6-1.3-1.3V57c0-0.7,0.6-1.3,1.3-1.3h0c0.7,0,1.3,0.6,1.3,1.3v0.1
							C26.5,57.8,26,58.4,25.3,58.4z"/>
					</g>
					<g>
						<path class="st4" d="M31.4,58.7h-3.8v-3.9c0-0.4,0.4-0.8,0.8-0.8l2.2,0c0.4,0,0.8,0.4,0.8,0.8V58.7z"/>
						<path class="st6" d="M29.5,58.4L29.5,58.4c-0.7,0-1.3-0.6-1.3-1.3V57c0-0.7,0.6-1.3,1.3-1.3h0c0.7,0,1.3,0.6,1.3,1.3v0.1
							C30.8,57.8,30.2,58.4,29.5,58.4z"/>
					</g>
					<g>
						<path class="st4" d="M35.7,58.7h-3.8v-3.9c0-0.4,0.4-0.8,0.8-0.8l2.2,0c0.4,0,0.8,0.4,0.8,0.8V58.7z"/>
						<path class="st6" d="M33.8,58.4L33.8,58.4c-0.7,0-1.3-0.6-1.3-1.3V57c0-0.7,0.6-1.3,1.3-1.3h0c0.7,0,1.3,0.6,1.3,1.3v0.1
							C35,57.8,34.5,58.4,33.8,58.4z"/>
					</g>
					<g>
						<path class="st4" d="M39.9,58.7h-3.8v-3.9c0-0.4,0.4-0.8,0.8-0.8l2.2,0c0.4,0,0.8,0.4,0.8,0.8V58.7z"/>
						<path class="st6" d="M38,58.4L38,58.4c-0.7,0-1.3-0.6-1.3-1.3V57c0-0.7,0.6-1.3,1.3-1.3h0c0.7,0,1.3,0.6,1.3,1.3v0.1
							C39.3,57.8,38.7,58.4,38,58.4z"/>
					</g>
				</g>
				<g>
					<g>
						<rect x="6" y="23.8" class="st4" width="3.8" height="4.7"/>
						<circle class="st6" cx="7.9" cy="26.2" r="1.3"/>
					</g>
					<g>
						<rect x="10.2" y="23.8" class="st4" width="3.8" height="4.7"/>
						<circle class="st6" cx="12.1" cy="26.2" r="1.3"/>
					</g>
					<g>
						<rect x="14.5" y="23.8" class="st4" width="3.8" height="4.7"/>
						<circle class="st6" cx="16.4" cy="26.2" r="1.3"/>
					</g>
					<g>
						<rect x="18.7" y="23.8" class="st4" width="3.8" height="4.7"/>
						<circle class="st6" cx="20.6" cy="26.2" r="1.3"/>
					</g>
					<g>
						<rect x="23" y="23.8" class="st4" width="3.8" height="4.7"/>
						<circle class="st6" cx="24.9" cy="26.2" r="1.3"/>
					</g>
					<g>
						<rect x="27.2" y="23.8" class="st4" width="3.8" height="4.7"/>
						<circle class="st6" cx="29.1" cy="26.2" r="1.3"/>
					</g>
					<g>
						<rect x="31.5" y="23.8" class="st4" width="3.8" height="4.7"/>
						<circle class="st6" cx="33.4" cy="26.2" r="1.3"/>
					</g>
					<g>
						<rect x="35.7" y="23.8" class="st4" width="3.8" height="4.7"/>
						<circle class="st6" cx="37.6" cy="26.2" r="1.3"/>
					</g>
				</g>
				<g>
					<g>
						<rect x="6.4" y="43.6" class="st4" width="3.8" height="4.7"/>
						<circle class="st6" cx="8.3" cy="46" r="1.3"/>
					</g>
					<g>
						<rect x="10.7" y="43.6" class="st4" width="3.8" height="4.7"/>
						<circle class="st6" cx="12.6" cy="46" r="1.3"/>
					</g>
					<g>
						<rect x="14.9" y="43.6" class="st4" width="3.8" height="4.7"/>
						<circle class="st6" cx="16.8" cy="46" r="1.3"/>
					</g>
					<g>
						<rect x="19.2" y="43.6" class="st4" width="3.8" height="4.7"/>
						<circle class="st6" cx="21.1" cy="46" r="1.3"/>
					</g>
					<g>
						<rect x="23.4" y="43.6" class="st4" width="3.8" height="4.7"/>
						<circle class="st6" cx="25.3" cy="46" r="1.3"/>
					</g>
					<g>
						<rect x="27.7" y="43.6" class="st4" width="3.8" height="4.7"/>
						<circle class="st6" cx="29.6" cy="46" r="1.3"/>
					</g>
					<g>
						<rect x="31.9" y="43.6" class="st4" width="3.8" height="4.7"/>
						<circle class="st6" cx="33.8" cy="46" r="1.3"/>
					</g>
					<g>
						<rect x="36.2" y="43.6" class="st4" width="3.8" height="4.7"/>
						<circle class="st6" cx="38.1" cy="46" r="1.3"/>
					</g>
				</g>
			</g>
			<g>
				<rect x="100.2" y="17.2" class="st3" width="40" height="43.8"/>
				<rect x="102.3" y="19.4" class="st2" width="35.9" height="39.3"/>
				<rect x="101.3" y="38.3" class="st3" width="37.9" height="1.2"/>
				<rect x="101.3" y="48.2" class="st3" width="37.9" height="1.2"/>
				<rect x="101.3" y="28.4" class="st3" width="37.9" height="1.2"/>
				<g>
					<g>
						<path class="st4" d="M107.4,38.4h-3.8v-3.9c0-0.4,0.4-0.8,0.8-0.8l2.2,0c0.4,0,0.8,0.4,0.8,0.8V38.4z"/>
						<path class="st6" d="M105.5,38L105.5,38c-0.7,0-1.3-0.6-1.3-1.3v-0.1c0-0.7,0.6-1.3,1.3-1.3h0c0.7,0,1.3,0.6,1.3,1.3v0.1
							C106.8,37.5,106.2,38,105.5,38z"/>
					</g>
					<g>
						<path class="st4" d="M111.6,38.4h-3.8v-3.9c0-0.4,0.4-0.8,0.8-0.8l2.2,0c0.4,0,0.8,0.4,0.8,0.8V38.4z"/>
						<path class="st6" d="M109.7,38L109.7,38c-0.7,0-1.3-0.6-1.3-1.3v-0.1c0-0.7,0.6-1.3,1.3-1.3h0c0.7,0,1.3,0.6,1.3,1.3v0.1
							C111,37.5,110.4,38,109.7,38z"/>
					</g>
					<g>
						<path class="st4" d="M115.9,38.4h-3.8v-3.9c0-0.4,0.4-0.8,0.8-0.8l2.2,0c0.4,0,0.8,0.4,0.8,0.8V38.4z"/>
						<path class="st6" d="M114,38L114,38c-0.7,0-1.3-0.6-1.3-1.3v-0.1c0-0.7,0.6-1.3,1.3-1.3h0c0.7,0,1.3,0.6,1.3,1.3v0.1
							C115.2,37.5,114.7,38,114,38z"/>
					</g>
					<g>
						<path class="st4" d="M120.1,38.4h-3.8v-3.9c0-0.4,0.4-0.8,0.8-0.8l2.2,0c0.4,0,0.8,0.4,0.8,0.8V38.4z"/>
						<path class="st6" d="M118.2,38L118.2,38c-0.7,0-1.3-0.6-1.3-1.3v-0.1c0-0.7,0.6-1.3,1.3-1.3l0,0c0.7,0,1.3,0.6,1.3,1.3v0.1
							C119.5,37.5,118.9,38,118.2,38z"/>
					</g>
					<g>
						<path class="st4" d="M124.4,38.4h-3.8v-3.9c0-0.4,0.4-0.8,0.8-0.8l2.2,0c0.4,0,0.8,0.4,0.8,0.8V38.4z"/>
						<path class="st6" d="M122.5,38L122.5,38c-0.7,0-1.3-0.6-1.3-1.3v-0.1c0-0.7,0.6-1.3,1.3-1.3l0,0c0.7,0,1.3,0.6,1.3,1.3v0.1
							C123.7,37.5,123.2,38,122.5,38z"/>
					</g>
					<g>
						<path class="st4" d="M128.6,38.4h-3.8v-3.9c0-0.4,0.4-0.8,0.8-0.8l2.2,0c0.4,0,0.8,0.4,0.8,0.8V38.4z"/>
						<path class="st6" d="M126.7,38L126.7,38c-0.7,0-1.3-0.6-1.3-1.3v-0.1c0-0.7,0.6-1.3,1.3-1.3h0c0.7,0,1.3,0.6,1.3,1.3v0.1
							C128,37.5,127.4,38,126.7,38z"/>
					</g>
					<g>
						<path class="st4" d="M132.9,38.4h-3.8v-3.9c0-0.4,0.4-0.8,0.8-0.8l2.2,0c0.4,0,0.8,0.4,0.8,0.8V38.4z"/>
						<path class="st6" d="M131,38L131,38c-0.7,0-1.3-0.6-1.3-1.3v-0.1c0-0.7,0.6-1.3,1.3-1.3l0,0c0.7,0,1.3,0.6,1.3,1.3v0.1
							C132.2,37.5,131.6,38,131,38z"/>
					</g>
					<g>
						<path class="st4" d="M137.1,38.4h-3.8v-3.9c0-0.4,0.4-0.8,0.8-0.8l2.2,0c0.4,0,0.8,0.4,0.8,0.8V38.4z"/>
						<path class="st6" d="M135.2,38L135.2,38c-0.7,0-1.3-0.6-1.3-1.3v-0.1c0-0.7,0.6-1.3,1.3-1.3l0,0c0.7,0,1.3,0.6,1.3,1.3v0.1
							C136.5,37.5,135.9,38,135.2,38z"/>
					</g>
				</g>
				<g>
					<g>
						<path class="st4" d="M107.5,58.7h-3.8v-3.9c0-0.4,0.4-0.8,0.8-0.8l2.2,0c0.4,0,0.8,0.4,0.8,0.8V58.7z"/>
						<path class="st6" d="M105.6,58.4L105.6,58.4c-0.7,0-1.3-0.6-1.3-1.3V57c0-0.7,0.6-1.3,1.3-1.3h0c0.7,0,1.3,0.6,1.3,1.3v0.1
							C106.9,57.8,106.3,58.4,105.6,58.4z"/>
					</g>
					<g>
						<path class="st4" d="M111.8,58.7H108v-3.9c0-0.4,0.4-0.8,0.8-0.8l2.2,0c0.4,0,0.8,0.4,0.8,0.8V58.7z"/>
						<path class="st6" d="M109.9,58.4L109.9,58.4c-0.7,0-1.3-0.6-1.3-1.3V57c0-0.7,0.6-1.3,1.3-1.3h0c0.7,0,1.3,0.6,1.3,1.3v0.1
							C111.1,57.8,110.6,58.4,109.9,58.4z"/>
					</g>
					<g>
						<path class="st4" d="M116,58.7h-3.8v-3.9c0-0.4,0.4-0.8,0.8-0.8l2.2,0c0.4,0,0.8,0.4,0.8,0.8V58.7z"/>
						<path class="st6" d="M114.1,58.4L114.1,58.4c-0.7,0-1.3-0.6-1.3-1.3V57c0-0.7,0.6-1.3,1.3-1.3h0c0.7,0,1.3,0.6,1.3,1.3v0.1
							C115.4,57.8,114.8,58.4,114.1,58.4z"/>
					</g>
					<g>
						<path class="st4" d="M120.3,58.7h-3.8v-3.9c0-0.4,0.4-0.8,0.8-0.8l2.2,0c0.4,0,0.8,0.4,0.8,0.8V58.7z"/>
						<path class="st6" d="M118.4,58.4L118.4,58.4c-0.7,0-1.3-0.6-1.3-1.3V57c0-0.7,0.6-1.3,1.3-1.3h0c0.7,0,1.3,0.6,1.3,1.3v0.1
							C119.6,57.8,119.1,58.4,118.4,58.4z"/>
					</g>
					<g>
						<path class="st4" d="M124.5,58.7h-3.8v-3.9c0-0.4,0.4-0.8,0.8-0.8l2.2,0c0.4,0,0.8,0.4,0.8,0.8V58.7z"/>
						<path class="st6" d="M122.6,58.4L122.6,58.4c-0.7,0-1.3-0.6-1.3-1.3V57c0-0.7,0.6-1.3,1.3-1.3h0c0.7,0,1.3,0.6,1.3,1.3v0.1
							C123.9,57.8,123.3,58.4,122.6,58.4z"/>
					</g>
					<g>
						<path class="st4" d="M128.7,58.7H125v-3.9c0-0.4,0.4-0.8,0.8-0.8l2.2,0c0.4,0,0.8,0.4,0.8,0.8V58.7z"/>
						<path class="st6" d="M126.9,58.4L126.9,58.4c-0.7,0-1.3-0.6-1.3-1.3V57c0-0.7,0.6-1.3,1.3-1.3h0c0.7,0,1.3,0.6,1.3,1.3v0.1
							C128.1,57.8,127.5,58.4,126.9,58.4z"/>
					</g>
					<g>
						<path class="st4" d="M133,58.7h-3.8v-3.9c0-0.4,0.4-0.8,0.8-0.8l2.2,0c0.4,0,0.8,0.4,0.8,0.8V58.7z"/>
						<path class="st6" d="M131.1,58.4L131.1,58.4c-0.7,0-1.3-0.6-1.3-1.3V57c0-0.7,0.6-1.3,1.3-1.3h0c0.7,0,1.3,0.6,1.3,1.3v0.1
							C132.4,57.8,131.8,58.4,131.1,58.4z"/>
					</g>
					<g>
						<path class="st4" d="M137.2,58.7h-3.8v-3.9c0-0.4,0.4-0.8,0.8-0.8l2.2,0c0.4,0,0.8,0.4,0.8,0.8V58.7z"/>
						<path class="st6" d="M135.3,58.4L135.3,58.4c-0.7,0-1.3-0.6-1.3-1.3V57c0-0.7,0.6-1.3,1.3-1.3l0,0c0.7,0,1.3,0.6,1.3,1.3v0.1
							C136.6,57.8,136,58.4,135.3,58.4z"/>
					</g>
				</g>
				<g>
					<g>
						<rect x="103.3" y="23.8" class="st4" width="3.8" height="4.7"/>
						<circle class="st6" cx="105.2" cy="26.2" r="1.3"/>
					</g>
					<g>
						<rect x="107.5" y="23.8" class="st4" width="3.8" height="4.7"/>
						<circle class="st6" cx="109.4" cy="26.2" r="1.3"/>
					</g>
					<g>
						<rect x="111.8" y="23.8" class="st4" width="3.8" height="4.7"/>
						<circle class="st6" cx="113.7" cy="26.2" r="1.3"/>
					</g>
					<g>
						<rect x="116.1" y="23.8" class="st4" width="3.8" height="4.7"/>
						<circle class="st6" cx="117.9" cy="26.2" r="1.3"/>
					</g>
					<g>
						<rect x="120.3" y="23.8" class="st4" width="3.8" height="4.7"/>
						<circle class="st6" cx="122.2" cy="26.2" r="1.3"/>
					</g>
					<g>
						<rect x="124.6" y="23.8" class="st4" width="3.8" height="4.7"/>
						<circle class="st6" cx="126.5" cy="26.2" r="1.3"/>
					</g>
					<g>
						<rect x="128.8" y="23.8" class="st4" width="3.8" height="4.7"/>
						<circle class="st6" cx="130.7" cy="26.2" r="1.3"/>
					</g>
					<g>
						<rect x="133.1" y="23.8" class="st4" width="3.8" height="4.7"/>
						<circle class="st6" cx="135" cy="26.2" r="1.3"/>
					</g>
				</g>
				<g>
					<g>
						<rect x="103.7" y="43.6" class="st4" width="3.8" height="4.7"/>
						<circle class="st6" cx="105.6" cy="46" r="1.3"/>
					</g>
					<g>
						<rect x="108" y="43.6" class="st4" width="3.8" height="4.7"/>
						<circle class="st6" cx="109.9" cy="46" r="1.3"/>
					</g>
					<g>
						<rect x="112.3" y="43.6" class="st4" width="3.8" height="4.7"/>
						<circle class="st6" cx="114.1" cy="46" r="1.3"/>
					</g>
					<g>
						<rect x="116.5" y="43.6" class="st4" width="3.8" height="4.7"/>
						<circle class="st6" cx="118.4" cy="46" r="1.3"/>
					</g>
					<g>
						<rect x="120.8" y="43.6" class="st4" width="3.8" height="4.7"/>
						<circle class="st6" cx="122.7" cy="46" r="1.3"/>
					</g>
					<g>
						<rect x="125" y="43.6" class="st4" width="3.8" height="4.7"/>
						<circle class="st6" cx="126.9" cy="46" r="1.3"/>
					</g>
					<g>
						<rect x="129.3" y="43.6" class="st4" width="3.8" height="4.7"/>
						<circle class="st6" cx="131.2" cy="46" r="1.3"/>
					</g>
					<g>
						<rect x="133.5" y="43.6" class="st4" width="3.8" height="4.7"/>
						<circle class="st6" cx="135.4" cy="46" r="1.3"/>
					</g>
				</g>
			</g>
			<g>
				<rect x="50.1" y="5.6" class="st7" width="43.5" height="8.9"/>
				<g>
					<g>
						<path class="st8" d="M92.5,13.7H51V6.5h41.6V13.7z M51.3,13.4h40.9V6.8H51.3V13.4z"/>
					</g>
					<rect x="53.9" y="-11.7" class="st8" width="1.6" height="18.2"/>
					<rect x="88.3" y="-11.7" class="st8" width="1.6" height="18.2"/>
					<g>
						<path class="st9" d="M58.1,11.3c-0.2,0-0.3-0.1-0.4-0.2l0.2-0.5c0.1,0.1,0.2,0.1,0.4,0.2c0.1,0,0.3,0.1,0.4,0.1
							c0.3,0,0.4-0.1,0.4-0.2c0-0.1,0-0.1-0.1-0.2c-0.1,0-0.2-0.1-0.4-0.1c-0.2,0-0.3-0.1-0.5-0.1c-0.1,0-0.2-0.1-0.3-0.2
							c-0.1-0.1-0.1-0.2-0.1-0.4c0-0.1,0-0.3,0.1-0.4C57.9,9.1,58,9.1,58.2,9c0.2-0.1,0.4-0.1,0.6-0.1c0.2,0,0.3,0,0.5,0.1
							c0.2,0,0.3,0.1,0.4,0.2l-0.2,0.5c-0.2-0.1-0.4-0.2-0.7-0.2c-0.1,0-0.2,0-0.3,0.1c-0.1,0-0.1,0.1-0.1,0.2c0,0.1,0,0.1,0.1,0.1
							c0.1,0,0.2,0.1,0.4,0.1c0.2,0,0.3,0.1,0.5,0.1c0.1,0,0.2,0.1,0.3,0.2c0.1,0.1,0.1,0.2,0.1,0.4c0,0.1,0,0.3-0.1,0.4
							c-0.1,0.1-0.2,0.2-0.4,0.3c-0.2,0.1-0.4,0.1-0.6,0.1C58.5,11.4,58.3,11.3,58.1,11.3z"/>
						<path class="st9" d="M60.3,11.1c-0.2-0.2-0.3-0.5-0.3-0.8V8.9h0.7v1.3c0,0.4,0.2,0.6,0.5,0.6c0.3,0,0.5-0.2,0.5-0.6V8.9h0.7
							v1.3c0,0.4-0.1,0.6-0.3,0.8c-0.2,0.2-0.5,0.3-0.8,0.3C60.8,11.4,60.5,11.3,60.3,11.1z"/>
						<path class="st9" d="M64.4,9c0.2,0.1,0.3,0.2,0.4,0.3c0.1,0.1,0.1,0.3,0.1,0.5c0,0.2,0,0.3-0.1,0.5c-0.1,0.1-0.2,0.2-0.4,0.3
							c-0.2,0.1-0.3,0.1-0.6,0.1h-0.4v0.6h-0.7V8.9h1.1C64,8.9,64.2,9,64.4,9z M64.1,10.1c0.1-0.1,0.1-0.1,0.1-0.3
							c0-0.1,0-0.2-0.1-0.3c-0.1-0.1-0.2-0.1-0.3-0.1h-0.4v0.7h0.4C63.9,10.2,64,10.1,64.1,10.1z"/>
						<path class="st9" d="M67.1,10.8v0.5h-1.9V8.9h1.9v0.5h-1.2v0.4h1.1v0.5h-1.1v0.4H67.1z"/>
						<path class="st9" d="M68.6,10.7h-0.4v0.6h-0.7V8.9h1.1c0.2,0,0.4,0,0.6,0.1c0.2,0.1,0.3,0.2,0.4,0.3c0.1,0.1,0.1,0.3,0.1,0.5
							c0,0.2,0,0.3-0.1,0.5c-0.1,0.1-0.2,0.2-0.3,0.3l0.5,0.8H69L68.6,10.7z M68.9,9.6c-0.1-0.1-0.2-0.1-0.3-0.1h-0.4v0.7h0.4
							c0.1,0,0.2,0,0.3-0.1C68.9,10,69,9.9,69,9.8C69,9.7,68.9,9.6,68.9,9.6z"/>
						<path class="st9" d="M72.2,11.3l0-1.3l-0.6,1h-0.3l-0.6-1v1.2H70V8.9h0.6l0.8,1.4l0.8-1.4h0.6l0,2.4H72.2z"/>
						<path class="st9" d="M74.9,10.9h-1l-0.2,0.5H73l1.1-2.4h0.7l1.1,2.4h-0.7L74.9,10.9z M74.7,10.4l-0.3-0.8l-0.3,0.8H74.7z"/>
						<path class="st9" d="M77,10.7h-0.4v0.6H76V8.9h1.1c0.2,0,0.4,0,0.6,0.1c0.2,0.1,0.3,0.2,0.4,0.3c0.1,0.1,0.1,0.3,0.1,0.5
							c0,0.2,0,0.3-0.1,0.5c-0.1,0.1-0.2,0.2-0.3,0.3l0.5,0.8h-0.7L77,10.7z M77.3,9.6c-0.1-0.1-0.2-0.1-0.3-0.1h-0.4v0.7H77
							c0.1,0,0.2,0,0.3-0.1c0.1-0.1,0.1-0.1,0.1-0.3C77.4,9.7,77.4,9.6,77.3,9.6z"/>
						<path class="st9" d="M79.4,10.5l-0.3,0.3v0.6h-0.7V8.9h0.7v1l0.9-1h0.7l-1,1.1l1,1.3h-0.8L79.4,10.5z"/>
						<path class="st9" d="M83,10.8v0.5h-1.9V8.9h1.9v0.5h-1.2v0.4h1.1v0.5h-1.1v0.4H83z"/>
						<path class="st9" d="M83.9,9.5h-0.7V8.9h2.1v0.5h-0.7v1.9h-0.7V9.5z"/>
					</g>
				</g>
			</g>
			<g>
				<path class="st10" d="M32.2,8.3H13.5c-0.8,0-1.5-0.7-1.5-1.5l0,0c0-0.8,0.7-1.5,1.5-1.5h18.7c0.8,0,1.5,0.7,1.5,1.5l0,0
					C33.7,7.6,33,8.3,32.2,8.3z"/>
				<path class="st11" d="M33.6,6.7h-21c-0.8,0-1.5-0.7-1.5-1.5v0c0-0.8,0.7-1.5,1.5-1.5h21c0.8,0,1.5,0.7,1.5,1.5v0
					C35.1,6.1,34.4,6.7,33.6,6.7z"/>
				<rect x="13.1" y="-3.1" class="st11" width="0.8" height="7.7"/>
				<rect x="32.5" y="-2.9" class="st11" width="0.8" height="7.7"/>
			</g>
			<g>
				<path class="st10" d="M128.7,8.3h-18.7c-0.8,0-1.5-0.7-1.5-1.5l0,0c0-0.8,0.7-1.5,1.5-1.5h18.7c0.8,0,1.5,0.7,1.5,1.5l0,0
					C130.2,7.6,129.6,8.3,128.7,8.3z"/>
				<path class="st11" d="M130.1,6.7h-21c-0.8,0-1.5-0.7-1.5-1.5v0c0-0.8,0.7-1.5,1.5-1.5h21c0.8,0,1.5,0.7,1.5,1.5v0
					C131.6,6.1,130.9,6.7,130.1,6.7z"/>
				<rect x="109.7" y="-3.1" class="st11" width="0.8" height="7.7"/>
				<rect x="129" y="-2.9" class="st11" width="0.8" height="7.7"/>
			</g>
		</g>
	</g>
</g>
<g id="foreground">
	<g>
		<g>
			<ellipse class="st2" cx="23.2" cy="84" rx="14.5" ry="4"/>
		</g>
		<g>
			<ellipse class="st2" cx="108.8" cy="82.6" rx="16.1" ry="4"/>
		</g>
		<g>
			<ellipse class="st2" cx="64.4" cy="81.1" rx="18.9" ry="4"/>
		</g>
		<g>
			<g>
				<g>
					<polygon class="st12" points="87.7,61.3 89.8,61.3 89.7,63.3 87.5,63.4 					"/>
				</g>
				<g>
					<path class="st9" d="M83.2,61.6c0,0,1,0.4,1.7,0.3c0.6-0.2,1.4-0.7,2.8-0.6l-0.1,2.1c0,0,0.3,1.3,0.7,1.6
						c0.7,0.5,1.8,1.7,0.9,4.2c0,0-2.7-0.3-3.3-1.7c-0.6-1.5-1.2-3-3-2.8L83.2,61.6z"/>
				</g>
			</g>
			<g>
				<path class="st13" d="M65.5,40.3c0,0,7.8,16.7,18.6,18.7l-1.3,9.9c0,0-15.9-2.8-20.3-16.1l0.5,20.5l-10.8,2.7
					c0,0,0.6-27.2,4.4-33.7L65.5,40.3z"/>
			</g>
			<g id="u">
				<path id="Paintable_3_" class="st14" d="M61.8,29.7c0.1,0,4.3,0.6,4.3,0.6l2.4,9.9l-11.8,2.2L57,31.8L61.8,29.7z"/>
			</g>
			<g>
				<path class="st15" d="M59.4,21c0,0,1-0.6,2.4-0.2c1.4,0.3,3.1,1.4,4,2.5s2.2,2.6,2.1,4.1c-0.2,1.5-2.5,2.2-3.5,2.2
					c-1,0-5.3,0.4-6.2,0.5c-0.9,0.1-3.1,0-3.4-0.3c-0.3-0.2,0-0.6,0.6-1.2c0.6-0.6,0.4-0.7,0.4-0.7s-0.8,0.3-0.9,0
					c-0.1-0.3,1.1-0.8,1.4-1.5C56.5,25.6,57.3,22.2,59.4,21z"/>
			</g>
			<g>
				<path class="st7" d="M62.5,29.6c0,0-0.5,0.1-0.1,2.8s4.2,11.5,4.2,11.5L66,45.2l1.8,2.5l0.7-0.6l6.8,11l7.7-5.2
					c0,0-12.2-21.6-14-22.5C67.2,29.5,62.5,29.6,62.5,29.6z"/>
			</g>
			<g>
				<path class="st7" d="M60.6,29.9c0,0-1.7,10.5-1.7,13.4c0,2.9-2.2,13.4-3.4,15.1c0,0-4-0.4-4.7-0.4l1.9-9.5l-1.9-0.8
					c0,0,2.3-12,3.3-13.8C55.1,32.2,56.4,30.4,60.6,29.9z"/>
			</g>
			<g>
				<path class="st16" d="M52,52.3c0,0-0.7-0.2-0.2-2c0,0-0.8,0-0.2-2.3l1.2,0.5L52,52.3z"/>
			</g>
			<g>
				<g>
					<path class="st12" d="M66.7,44.1L66.4,44c0,0,1.6-4.8,1.9-6.2l0.3,0.1C68.3,39.2,66.8,43.9,66.7,44.1z"/>
				</g>
				<g>
					<path class="st12" d="M68.1,47.7l-0.2-0.2c0,0,3-2.9,4.6-7.5l0.3,0.1C71.1,44.7,68.1,47.7,68.1,47.7z"/>
				</g>
				<g>
					
						<rect x="47.2" y="42.5" transform="matrix(0.2123 -0.9772 0.9772 0.2123 0.8524 86.4145)" class="st12" width="13.8" height="0.3"/>
				</g>
			</g>
			<g>
				<ellipse class="st16" cx="60.7" cy="25.7" rx="2.6" ry="2.7"/>
			</g>
			<g>
				<path class="st17" d="M62.5,26.9c0,0.1,0.2,2,0.4,3.3c0.1,0.7-0.4,1.4-1.1,1.5h0c-0.8,0.2-1.5-0.4-1.6-1.2l-0.4-3.3L62.5,26.9z"
					/>
			</g>
			<g>
				<g>
					<polygon class="st12" points="62.1,78.1 62.8,80.1 60.8,80.7 60.1,78.5 					"/>
				</g>
				<g>
					<path class="st9" d="M60.4,73.9c0,0-0.1,1.1,0.3,1.7c0.4,0.5,1.1,1.1,1.4,2.5l-2,0.6c0,0-1.2,0.7-1.3,1.2
						c-0.2,0.8-1.1,2.2-3.7,2.2c0,0-0.6-2.6,0.6-3.7c1.2-1,2.5-2,1.8-3.7L60.4,73.9z"/>
				</g>
			</g>
			<g>
				<path class="st9" d="M67,42.8c0,0-0.9,1.1,2.7,3.2v-0.4l0.6-0.9c0,0,0.4,0.4,0.5,0.8c0,0,3.2,1,4.3,3.2c1.2,2.1-0.3,3.7-2.4,4.3
					s-4.1-0.9-4.2-2.6c-0.1-1.7,0.5-3.6,0.5-3.6s-2.7-0.8-3-2.1C65.6,43.3,65.9,42.9,67,42.8z"/>
			</g>
			<g>
				<path class="st12" d="M69.6,47c-0.6,0-1.4-0.5-2-0.8c-0.2-0.1-0.4-0.2-0.4-0.2c0,0,0,0,0.1,0l-0.1-0.3c0.1,0,0.2,0,0.6,0.2
					c0.5,0.3,1.5,0.9,2,0.7c0,0,0,0,0,0c-0.2-0.1-0.4-0.2-0.4-0.3c-0.1-0.1-0.1-0.2,0-0.4c0.2-0.2,0.6-0.3,0.9-0.1
					c0.1,0.1,0.2,0.3,0.1,0.7c0.1,0,0.1,0,0.2,0c0.3-0.1,0.6-0.6,0.6-1.3l0.3,0c-0.1,0.9-0.4,1.4-0.8,1.6c-0.1,0-0.3,0-0.4,0
					C70,46.9,69.9,47,69.8,47C69.7,47,69.7,47,69.6,47z M69.6,46.2c0.1,0.1,0.2,0.2,0.4,0.3c0.1-0.3,0.1-0.4,0.1-0.4
					c0,0-0.1-0.1-0.2,0C69.7,46.1,69.6,46.2,69.6,46.2z"/>
			</g>
			<g>
				<path class="st12" d="M68.3,45.9c-1.8-0.9-2.1-2.3-2.1-2.3l0.3-0.1c0,0,0.3,1.4,2,2.2L68.3,45.9z"/>
			</g>
			<g>
				<path class="st12" d="M70.3,51.6c-1.2-1.4-0.7-3.3-0.6-3.4l0.3,0.1l-0.1,0l0.1,0c0,0-0.5,1.8,0.6,3.1L70.3,51.6z"/>
			</g>
			<g>
				<path class="st12" d="M74.3,50.2c-0.1-1.3-1.7-2.5-1.8-2.5l0.2-0.2c0.1,0.1,1.8,1.3,1.9,2.7L74.3,50.2z"/>
			</g>
			<g>
				<path class="st12" d="M72.5,51.9c-0.9-0.5-1.2-2.6-1.2-2.7l0.3,0c0,0,0.3,2,1.1,2.5L72.5,51.9z"/>
			</g>
			<g>
				<path class="st12" d="M64.2,56.6c0,0-0.8-1-1.6-2.9c-0.7-1.8-1.5-4.9-1.5-9.3l0.3,0c-0.1,4.4,0.7,7.4,1.4,9.2
					c0.8,1.9,1.5,2.9,1.5,2.9L64.2,56.6z"/>
			</g>
			<g>
				<defs>
					<path id="SVGID_3_" d="M63.4,25.8l-0.3-0.1c0,0-2.7-1-5,0.4c0,0-0.1,1.6,1.3,2.2c1.4,0.6,3.1-0.1,3.5-0.5
						C63.3,27.4,63.4,25.8,63.4,25.8z"/>
				</defs>
				<use xlink:href="#SVGID_3_"  style="overflow:visible;fill:#38293C;"/>
				<clipPath id="SVGID_4_">
					<use xlink:href="#SVGID_3_"  style="overflow:visible;"/>
				</clipPath>
				<g class="st18">
					<g>
						<path class="st9" d="M60.1,25.1c-0.8,0-0.8,1.3,0,1.3C60.9,26.4,60.9,25.1,60.1,25.1z"/>
					</g>
					<g>
						<path class="st9" d="M58.5,26.7c-0.8,0-0.8,1.3,0,1.3C59.3,28,59.3,26.7,58.5,26.7z"/>
					</g>
					<g>
						<path class="st9" d="M61.1,26.8c-0.8,0-0.8,1.3,0,1.3C61.9,28.1,61.9,26.8,61.1,26.8z"/>
					</g>
					<g>
						<path class="st9" d="M63.1,25.3c0-0.1-0.1-0.1-0.1-0.2c-0.1-0.1-0.1-0.1-0.2-0.1c-0.1,0-0.2-0.1-0.2-0.1c-0.1,0-0.1,0-0.2,0
							c-0.1,0-0.2,0.1-0.3,0.2c0,0-0.1,0.1-0.1,0.1c-0.1,0.1-0.1,0.2-0.1,0.3v0c0,0.1,0,0.2,0.1,0.2c0,0.1,0.1,0.1,0.1,0.2
							c0.1,0.1,0.1,0.1,0.2,0.1c0.1,0,0.2,0.1,0.2,0.1c0.1,0,0.1,0,0.2,0c0.1,0,0.2-0.1,0.3-0.2c0,0,0.1-0.1,0.1-0.1
							c0.1-0.1,0.1-0.2,0.1-0.3v0C63.2,25.5,63.2,25.4,63.1,25.3z"/>
					</g>
					<g>
						<path class="st9" d="M63.1,26.9c-0.8,0-0.8,1.3,0,1.3C63.9,28.2,63.9,26.9,63.1,26.9z"/>
					</g>
					<g>
						<path class="st9" d="M60.3,28.6c0-0.1-0.1-0.1-0.1-0.2c-0.1-0.1-0.1-0.1-0.2-0.1c-0.1,0-0.2-0.1-0.2-0.1c-0.1,0-0.1,0-0.2,0
							c-0.1,0-0.2,0.1-0.3,0.2c0,0-0.1,0.1-0.1,0.1c-0.1,0.1-0.1,0.2-0.1,0.3v0c0,0.1,0,0.2,0.1,0.2c0,0.1,0.1,0.1,0.1,0.2
							c0.1,0.1,0.1,0.1,0.2,0.1c0.1,0,0.2,0.1,0.2,0.1c0.1,0,0.1,0,0.2,0c0.1,0,0.2-0.1,0.3-0.2c0,0,0.1-0.1,0.1-0.1
							c0.1-0.1,0.1-0.2,0.1-0.3v0C60.3,28.7,60.3,28.7,60.3,28.6z"/>
					</g>
				</g>
			</g>
			<g>
				<path class="st15" d="M60.6,23.3c0,0,0.8,1,1.9,1c0,0,1.3,2.7-1.2,4.4l1.1-0.5l-0.5,0.7l0.3,0.1l-0.3,0.5c0,0,0.7,0.4,1.8,0.2
					c1.1-0.2,2-4.4,1.3-5.4c-0.8-1-3.2-2.7-3.2-2.7l-2.3-0.1l-1.7,2.7l-0.2,0.6c0,0,0.9,0.4,1.3-0.3C58.9,24.5,60.5,24.9,60.6,23.3z
					"/>
			</g>
			<g>
				<g>
					<path class="st12" d="M59.1,25.1c0,0.2-0.1,0.4-0.2,0.4c-0.1,0-0.2-0.2-0.2-0.4c0-0.2,0.1-0.4,0.2-0.4
						C59,24.7,59.1,24.9,59.1,25.1z"/>
				</g>
				<g>
					<path class="st12" d="M59.3,24.6c-0.3-0.4-0.9,0.1-0.9,0.1L59.3,24.6z"/>
				</g>
			</g>
			<g>
				<g>
					<path class="st12" d="M61.9,24.9c0,0.2,0.1,0.4,0.2,0.4c0.1,0,0.2-0.2,0.2-0.4c0-0.2-0.1-0.4-0.2-0.4
						C61.9,24.5,61.9,24.7,61.9,24.9z"/>
				</g>
				<g>
					<path class="st12" d="M62.5,24.4c0,0-0.6-0.4-0.9,0.1L62.5,24.4z"/>
				</g>
			</g>
		</g>
		<g>
			<g>
				<g>
					<rect x="105.8" y="73.7" class="st16" width="2.3" height="4.9"/>
				</g>
				<g>
					<path class="st13" d="M105.2,76.8c0,0,0.2,1.2-0.5,2.6c-0.6,1.4-1.6,2.5-1.6,4.1l3.4-0.8c0,0,0.6-3.3,0.6-3s0.2,3.1,0.2,3.1
						s1.2,0.1,1.2-0.1c0-0.2,0-6.5,0-6.5s-0.5,0-0.8,0.4s-0.3,1.5-0.7,1.3c-0.5-0.2-0.7-1.1-0.9-1.2C106,76.5,105.2,76.8,105.2,76.8
						z"/>
				</g>
				<g>
					<g>
						<path class="st12" d="M107.3,78c-0.4,0-0.7-0.4-0.8-0.7c-0.1-0.1-0.1-0.2-0.2-0.3c-0.2-0.4-0.9,0-0.9,0l-0.1-0.2
							c0,0,0.9-0.5,1.3,0c0.1,0.1,0.1,0.2,0.2,0.4c0.2,0.4,0.4,0.6,0.7,0.6l0,0.3C107.3,78,107.3,78,107.3,78z"/>
					</g>
					<g>
						<polygon class="st12" points="107.3,82.9 107.2,79.6 107.5,79.6 107.6,82.6 108.6,82.5 108.7,82.8 						"/>
					</g>
				</g>
			</g>
			<g>
				<g>
					
						<rect x="113.8" y="71.5" transform="matrix(-1 -1.224647e-16 1.224647e-16 -1 229.9727 149.7652)" class="st16" width="2.3" height="6.9"/>
				</g>
				<g>
					<path class="st13" d="M116.8,76.5c0,0-0.2,1.2,0.5,2.6c0.6,1.4,1.6,2.5,1.6,4.1l-3.4-0.8c0,0-0.6-3.3-0.6-3s-0.2,3.1-0.2,3.1
						s-1.2,0.1-1.2-0.1c0-0.2,0-6.5,0-6.5s0.5,0,0.8,0.4c0.3,0.5,0.3,1.5,0.7,1.3c0.5-0.2,0.7-1.1,0.9-1.2
						C116,76.2,116.8,76.5,116.8,76.5z"/>
				</g>
				<g>
					<g>
						<path class="st12" d="M114.6,77.7c-0.4,0-0.5-0.8-0.6-1.2l0.3,0c0.1,0.5,0.2,0.9,0.3,0.9c0.1,0,0.5-0.4,0.7-0.7l0.2,0.1
							C115.5,76.9,115,77.7,114.6,77.7C114.7,77.7,114.7,77.7,114.6,77.7z"/>
					</g>
					<g>
						<polygon class="st12" points="118.1,83.2 115.4,82.5 115.3,82.4 114.8,80.3 114.6,82.5 114.4,82.4 114.5,79.4 114.8,79.3 
							115.5,82.3 118.1,82.9 						"/>
					</g>
				</g>
			</g>
			<g>
				<g>
					<defs>
						<path id="Paintable_4_" d="M103,48.6c0,0-0.9,6.6-1.1,10.1c-0.2,3.5-0.2,5.2-0.4,7.6c-0.2,2.5,0.2,4.5-0.5,6.3
							c-0.7,1.8,0.2,1.9,0.2,1.9s5.9,1.2,8.1,0c2.2-1.2,4.3-2.4,5.4-2.3c1.1,0.2,3,0.1,3.8-0.1s1.2-0.4,2.2-0.2c1,0.2,1-0.9,1-0.9
							s-1.7-4.6-1.8-6.3c-0.1-1.7-1.6-8-2.2-9.4c-0.6-1.5-2.3-7.3-2.3-7.3L103,48.6z"/>
					</defs>
					<use xlink:href="#Paintable_4_"  style="overflow:visible;fill:#D84B59;"/>
					<clipPath id="Paintable_6_">
						<use xlink:href="#Paintable_4_"  style="overflow:visible;"/>
					</clipPath>
					<g class="st19">
						<g>
							<path class="st20" d="M103.1,75.9c-0.1,0-0.2-0.1-0.2-0.2L101,49c0-0.1,0.1-0.2,0.2-0.2c0.1,0,0.2,0.1,0.2,0.2l2,26.7
								C103.3,75.8,103.2,75.9,103.1,75.9C103.1,75.9,103.1,75.9,103.1,75.9z"/>
						</g>
						<g>
							<path class="st20" d="M106.2,77.8c-0.1,0-0.2-0.1-0.2-0.2c0-0.3-2.2-29.8-2.2-30.4c0-0.1,0.1-0.2,0.2-0.2
								c0.1,0,0.2,0.1,0.2,0.2c0.1,0.6,2.1,29.2,2.2,30.4C106.4,77.7,106.4,77.8,106.2,77.8C106.3,77.8,106.2,77.8,106.2,77.8z"/>
						</g>
						<g>
							<path class="st20" d="M108.9,77.3c-0.1,0-0.2-0.1-0.2-0.2c-0.5-7-2-29.8-2-30.1c0-0.1,0.1-0.2,0.2-0.2c0.1,0,0.2,0.1,0.2,0.2
								c0,0.5,1.3,19.8,2,30C109.1,77.2,109,77.3,108.9,77.3C108.9,77.3,108.9,77.3,108.9,77.3z M107.1,47.1
								C107.1,47.1,107.1,47.1,107.1,47.1C107.1,47.1,107.1,47.1,107.1,47.1z"/>
						</g>
						<g>
							<path class="st20" d="M111.7,77.2C111.7,77.2,111.6,77.2,111.7,77.2c-0.2,0-0.2-0.1-0.2-0.2c0.1-0.8-0.4-20.9-0.6-31.5
								c0-0.1,0.1-0.2,0.2-0.2c0,0,0,0,0,0c0.1,0,0.2,0.1,0.2,0.2c0,0.1,0.2,8,0.3,15.7c0.1,4.6,0.2,8.2,0.2,10.8
								c0,1.6,0,2.8,0.1,3.6c0,1.5,0,1.5-0.1,1.5C111.8,77.2,111.7,77.2,111.7,77.2z"/>
						</g>
						<g>
							<path class="st20" d="M115,77.9C115,77.9,115,77.9,115,77.9c-0.1,0-0.2-0.1-0.2-0.2l0.2-31.7c0-0.1,0.1-0.2,0.2-0.2
								c0,0,0,0,0,0c0.1,0,0.2,0.1,0.2,0.2l-0.2,31.7C115.2,77.8,115.1,77.9,115,77.9z"/>
						</g>
						<g>
							<path class="st20" d="M119.9,79.1c-0.1,0-0.2-0.1-0.2-0.2c-0.1-8.9-0.5-32.3-0.7-33.1c0-0.1,0-0.2,0.1-0.2
								c0.1,0,0.2,0,0.2,0.1c0.3,0.9,0.7,31.9,0.7,33.2C120.1,79,120,79.1,119.9,79.1C119.9,79.1,119.9,79.1,119.9,79.1z"/>
						</g>
						<g>
							<path class="st20" d="M97.3,52.5c-0.1,0-0.2-0.1-0.2-0.2c0-0.1,0.1-0.2,0.2-0.2l24.3-3.3c0.1,0,0.2,0.1,0.2,0.2
								c0,0.1-0.1,0.2-0.2,0.2L97.3,52.5C97.3,52.5,97.3,52.5,97.3,52.5z"/>
						</g>
						<g>
							<path class="st20" d="M98.2,56.6c-0.1,0-0.2-0.1-0.2-0.2c0-0.1,0.1-0.2,0.2-0.2c7.7-1.1,22.3-3.2,23-3.4c0,0,0.1,0,0.1,0
								c0.1,0,0.2,0.1,0.2,0.2c0,0.2-0.1,0.2-0.4,0.2c-0.2,0-0.4,0.1-0.7,0.1c-0.6,0.1-1.5,0.2-2.6,0.4c-1.9,0.3-4.6,0.7-7.9,1.2
								C104,55.7,98.3,56.6,98.2,56.6C98.2,56.6,98.2,56.6,98.2,56.6z M121.1,52.9c0,0,0,0.1,0,0.1C121,53,121,52.9,121.1,52.9z"/>
						</g>
						<g>
							<path class="st20" d="M98.3,60.6c-0.1,0-0.2-0.1-0.2-0.2c0-0.1,0.1-0.2,0.2-0.2l22.1-2.1c0.1,0,0.2,0.1,0.2,0.2
								c0,0.1-0.1,0.2-0.2,0.2L98.3,60.6C98.3,60.6,98.3,60.6,98.3,60.6z"/>
						</g>
						<g>
							<path class="st20" d="M99.8,64.9c-0.1,0-0.2-0.1-0.2-0.2c0-0.1,0.1-0.2,0.2-0.2l21.7-2.2c0.1,0,0.2,0.1,0.2,0.2
								c0,0.1-0.1,0.2-0.2,0.2L99.8,64.9C99.8,64.9,99.8,64.9,99.8,64.9z"/>
						</g>
						<g>
							<path class="st20" d="M123.1,69.7C123.1,69.7,123.1,69.7,123.1,69.7L100,68.3c-0.1,0-0.2-0.1-0.2-0.2c0-0.1,0.1-0.2,0.2-0.2
								l23.1,1.3c0.1,0,0.2,0.1,0.2,0.2C123.3,69.6,123.2,69.7,123.1,69.7z"/>
						</g>
						<g>
							<path class="st20" d="M122,73.7C122,73.7,122,73.7,122,73.7c-0.2,0-21-0.2-21.6-0.2c-0.1,0-0.2-0.1-0.2-0.2
								c0-0.1,0.1-0.2,0.2-0.2c0.6,0,21.4,0.2,21.6,0.2c0.1,0,0.2,0.1,0.2,0.2C122.2,73.6,122.2,73.7,122,73.7z"/>
						</g>
					</g>
				</g>
			</g>
			<g>
				<g>
					<path class="st12" d="M105.4,64.1c-0.2-4.2,0.9-15.7,0.9-15.8l0.3,0c0,0.1-1.2,11.5-0.9,15.7L105.4,64.1z"/>
				</g>
				<g>
					<path class="st12" d="M116.1,65.7l-0.3,0c0.1-3.9-3-17.4-3-17.5l0.3-0.1C113.1,48.2,116.2,61.7,116.1,65.7z"/>
				</g>
				<g>
					<path class="st12" d="M110,57.4l-0.3,0c0-1.2,0-9.1,0-9.2l0.3,0C109.9,48.2,110,56.1,110,57.4z"/>
				</g>
			</g>
			<g>
				<path class="st15" d="M109.3,21.5c0,0,0.5-0.2,1.1,0c0.6,0.1,1.9,0.8,2.2,1.2c0.3,0.4,0.5,1,0.9,1.3c0.4,0.4,1.2,1,1.4,1.4
					c0.2,0.4,0.6,1,0.6,2.2s0.1,2.6,0.3,3c0.2,0.4,0.4,1.4,0.4,2.2c0,0.8,0.1,0.8,0.2,1.4c0.1,0.6-0.1,1.4-0.1,1.4l-5-1
					c0,0-1.4-8.7-1.4-8.7S109.3,21.5,109.3,21.5z"/>
			</g>
			<g>
				<polygon class="st17" points="108.9,29.6 108.8,32.7 111.5,32.7 111.5,29.3 				"/>
			</g>
			<g>
				<defs>
					<path id="Paintable_5_" d="M108.2,31.7l4.2,0.1l-0.3,2.7c0,0,5.7,0.8,5.9,2c0.2,1.3-1.4,11.7-1.4,11.7L101,49l-0.1-1
						c0,0-2.9-0.1-1.7-3.8c1.2-3.6,1.7-8.3,3.5-8.9c1.8-0.6,5.2-1,5.2-1L108.2,31.7z"/>
				</defs>
				<use xlink:href="#Paintable_5_"  style="overflow:visible;fill:#7096BD;"/>
				<clipPath id="Paintable_7_">
					<use xlink:href="#Paintable_5_"  style="overflow:visible;"/>
				</clipPath>
				<g class="st21">
					<g>
						<path class="st22" d="M114.1,32.6c-1.3,0-2.6-0.2-3.9-0.2c-1.3-0.1-2.7,0-4,0c-0.3,0-0.3,0.4,0,0.4c1.3,0,2.7,0,4,0
							c1.3,0.1,2.6,0.2,3.9,0.2C114.3,33,114.3,32.6,114.1,32.6z"/>
					</g>
					<g>
						<path class="st22" d="M115.3,33.6c-3.5,0-6.9-0.3-10.3-0.4c-0.3,0-0.3,0.4,0,0.4c3.4,0.1,6.9,0.4,10.3,0.4
							C115.6,34,115.6,33.6,115.3,33.6z"/>
					</g>
					<g>
						<path class="st22" d="M118.9,35.5c-1.2,0-2.5-0.2-3.7-0.2c-1.2,0-2.5,0.1-3.7,0.1c-2.5,0-5.1,0.1-7.6,0c-1.4,0-2.8,0-4.3,0.1
							c-0.3,0-0.3,0.4,0,0.4c2.5-0.2,5-0.1,7.5-0.1c2.5,0,5-0.1,7.6-0.1c0.7,0,1.4,0,2.1,0c0.7,0.1,1.4,0.1,2.1,0.2c0,0,0,0,0,0
							c0,0,0.1,0,0.1,0C119.1,35.9,119.1,35.5,118.9,35.5z"/>
					</g>
					<g>
						<path class="st22" d="M121.7,37.9c-3,0-6-0.4-9-0.6c-3.1-0.3-6.1-0.5-9.2-0.6c-1.8-0.1-3.6,0-5.3,0c-0.3,0-0.3,0.4,0,0.4
							c1.6,0,3.2-0.1,4.7,0c1.6,0.1,3.1,0.2,4.7,0.3c3,0.2,6.1,0.5,9.1,0.7c1.7,0.1,3.4,0.3,5,0.3C122,38.3,122,37.9,121.7,37.9z"/>
					</g>
					<g>
						<path class="st22" d="M122,39.5c-3.2,0-6.5-0.2-9.7-0.4c-3.2-0.2-6.5-0.3-9.7-0.4c-1.8-0.1-3.7-0.1-5.5-0.1
							c-0.3,0-0.3,0.4,0,0.4c6.5-0.1,13,0.4,19.5,0.7c1.7,0.1,3.5,0.1,5.2,0.2c0,0,0,0,0,0h0.2C122.3,39.9,122.3,39.5,122,39.5z"/>
					</g>
					<g>
						<path class="st22" d="M123.4,41.7c-1.6,0-3.2-0.2-4.8-0.3c-1.6-0.1-3.3-0.2-4.9-0.3c-3.3-0.1-6.6-0.1-9.8-0.1
							c-1.8,0-3.7,0-5.5,0c-0.3,0-0.3,0.4,0,0.4c6.6,0,13.1-0.1,19.7,0.4c1.8,0.1,3.6,0.4,5.4,0.4C123.7,42.1,123.7,41.7,123.4,41.7
							z"/>
					</g>
					<g>
						<path class="st22" d="M110.6,42.2c-2,0-4-0.1-6-0.1c-2,0-4.1,0-6.1,0c-0.3,0-0.3,0.4,0,0.4c2,0,4.1,0,6.1,0c2,0,4,0.1,6,0.1
							C110.8,42.6,110.8,42.2,110.6,42.2z"/>
					</g>
					<g>
						<path class="st22" d="M120.6,42.8c-1.9-0.2-3.8-0.3-5.8-0.3c-0.3,0-0.3,0.4,0,0.4c1.9,0,3.7,0.1,5.5,0.3c0,0,0.1,0,0.1,0
							c0,0,0.1,0,0.1,0C120.9,43.2,120.8,42.8,120.6,42.8z"/>
					</g>
					<g>
						<path class="st22" d="M103.8,43.1c-2.8,0-5.6-0.1-8.5-0.1c-0.3,0-0.3,0.4,0,0.4c2.8,0,5.6,0.1,8.5,0.1
							C104.1,43.5,104.1,43.1,103.8,43.1z"/>
					</g>
					<g>
						<path class="st22" d="M104.2,43.6c-0.6,0.1-1.1,0.2-1.7,0.4c-0.6,0.1-1.2,0.2-1.8,0.2c-1.2,0.1-2.3,0.3-3.5,0.4
							c-0.3,0-0.1,0.4,0.1,0.4c1.2-0.2,2.4-0.3,3.6-0.5c0.5-0.1,1.1-0.1,1.6-0.2c0.6-0.1,1.1-0.3,1.7-0.4
							C104.5,44,104.4,43.6,104.2,43.6z"/>
					</g>
					<g>
						<path class="st22" d="M113.9,42.6c-0.1,0-0.2,0-0.3,0.1c-0.1,0-0.1,0-0.1,0.1c-0.9,0.4-1.9,0.6-2.8,0.9c-1,0.3-2,0.7-3.1,1
							c-1.1,0.3-2.2,0.5-3.3,0.7c-1.1,0.2-2.3,0.3-3.4,0.5c-1.2,0.1-2.5,0.2-3.7,0.4c-0.3,0-0.1,0.4,0.1,0.4
							c2.3-0.4,4.5-0.5,6.8-0.8c1.1-0.2,2.2-0.4,3.3-0.6c1.1-0.3,2.1-0.6,3.1-1c1.1-0.4,2.3-0.6,3.4-1.1
							C114.3,42.8,114.1,42.5,113.9,42.6z"/>
					</g>
					<g>
						<path class="st22" d="M113.5,43.8c-0.5,0.3-1.1,0.4-1.6,0.6c-0.6,0.2-1.2,0.4-1.8,0.5c-1.3,0.4-2.6,0.7-3.9,0.9
							c-2.6,0.6-5.2,1-7.9,1.4c-0.3,0-0.1,0.4,0.1,0.4c2.7-0.4,5.3-0.9,8-1.4c1.3-0.3,2.6-0.6,3.9-1c0.7-0.2,1.3-0.4,2-0.6
							c0.5-0.1,1-0.2,1.5-0.5C113.9,44,113.7,43.7,113.5,43.8z"/>
					</g>
					<g>
						<path class="st22" d="M120,43.8c-0.5,0-1-0.1-1.4-0.2c-0.5-0.1-1-0.1-1.5-0.2c-1-0.1-2.1-0.1-3.1-0.1c-0.3,0-0.3,0.4,0,0.4
							c1,0,2.1,0,3.1,0.1c0.5,0,1.1,0.1,1.6,0.2c0.4,0.1,0.9,0.2,1.3,0.2C120.2,44.2,120.2,43.8,120,43.8z"/>
					</g>
					<g>
						<path class="st22" d="M118.8,44.4c-0.8-0.2-1.6-0.1-2.4-0.1c-0.9,0-1.8,0-2.7,0c-0.3,0-0.3,0.4,0,0.4c0.8,0,1.7,0,2.5,0
							c0.8,0,1.6-0.1,2.4,0.1C119,44.8,119.1,44.4,118.8,44.4z"/>
					</g>
					<g>
						<path class="st22" d="M122.4,46.2C122.4,46.2,122.4,46.2,122.4,46.2c0-0.1-0.1-0.1-0.2-0.1c0,0,0,0,0,0
							c-0.7-0.1-1.5-0.1-2.2-0.2c-0.9-0.1-1.7-0.2-2.6-0.3c-0.8-0.1-1.7-0.2-2.5-0.3c-0.9-0.1-1.7-0.2-2.6-0.2c-0.3,0-0.3,0.4,0,0.4
							c0.8,0,1.6,0.1,2.5,0.2c0.9,0.1,1.7,0.2,2.6,0.3c0.8,0.1,1.6,0.2,2.4,0.3c0.8,0.1,1.5,0.1,2.3,0.2c0,0,0.1,0,0.1,0
							c0,0,0,0,0,0C122.3,46.5,122.4,46.4,122.4,46.2z"/>
					</g>
					<g>
						<path class="st22" d="M121.8,46.8c-1.9,0.2-3.9,0.1-5.8-0.1c-1.9-0.2-3.9-0.6-5.8-0.6c-0.3,0-0.3,0.4,0,0.4
							c2,0,3.9,0.4,5.8,0.6c1.9,0.2,3.8,0.3,5.8,0.1C122,47.2,122,46.8,121.8,46.8z"/>
					</g>
					<g>
						<path class="st22" d="M118.5,47.5c-1.2,0-2.5-0.2-3.7-0.2c-1.2,0-2.5,0-3.7,0.1c-1.2,0.1-2.5,0.1-3.7,0.2
							c-1.2,0.1-2.4,0.4-3.6,0.5c-0.7,0.1-1.4,0.1-2,0.2c-0.7,0.1-1.4,0.2-2.1,0.2c-0.3,0-0.3,0.4,0,0.4c1.2,0,2.4-0.2,3.6-0.3
							c1.2-0.1,2.3-0.3,3.5-0.5c1.2-0.2,2.5-0.2,3.8-0.3c1.2-0.1,2.5-0.1,3.7-0.1c1.4,0,2.8,0.2,4.2,0.2
							C118.8,47.9,118.8,47.5,118.5,47.5z"/>
					</g>
				</g>
			</g>
			<g>
				<ellipse class="st16" cx="110.1" cy="26.8" rx="3" ry="3.4"/>
			</g>
			<g>
				<path class="st16" d="M112.7,28.3c2,0.2,1.9-1,1.7-1.6c-0.2-0.6-1.4-0.4-1.4-0.4L112.7,28.3z"/>
			</g>
			<g>
				<path class="st12" d="M113.5,47.5c-1.6,0-4.4-0.8-4.5-0.8l0.1-0.3c0,0,3.3,0.9,4.7,0.8c0.3,0,0.5,0,0.8,0c0,0,0,0,0.1,0
					c1.1,0,1.9,0,2.4-2.7l0.3,0c-0.5,2.9-1.5,2.9-2.7,2.9c-0.2,0-0.5,0-0.7,0C113.7,47.5,113.6,47.5,113.5,47.5z"/>
			</g>
			<g>
				<path class="st16" d="M113.1,41.8c0,0,0.8-2.8,1.2-2.8c0.4,0,0.4,0.6,0.4,0.6s0.8-0.5,1,0c0.2,0.5-0.7,4-2.3,5.1L113.1,41.8z"/>
			</g>
			<g>
				<g>
					<path class="st16" d="M103.4,44.3c0,0-0.3-2.1-0.1-2.3s0.2-0.7,0.3-0.7c0.1-0.1,0.2-0.7,0.5-0.7c0.3-0.1,0.8,0.7,0.8,0.7
						s0.5,0.1,0.6,0.3c0.1,0.2,0.6,2.1,0.6,2.1L103.4,44.3z"/>
				</g>
				<g>
					
						<rect x="103.3" y="41.7" transform="matrix(0.9883 -0.1525 0.1525 0.9883 -5.2574 16.2746)" class="st12" width="0.3" height="1.4"/>
				</g>
				<g>
					
						<rect x="103.9" y="40.7" transform="matrix(0.9839 -0.1789 0.1789 0.9839 -5.8167 19.2884)" class="st12" width="0.3" height="2.4"/>
				</g>
				<g>
					
						<rect x="104.7" y="41.2" transform="matrix(0.9892 -0.1463 0.1463 0.9892 -5.017 15.8019)" class="st12" width="0.3" height="1.7"/>
				</g>
			</g>
			<g>
				<g>
					
						<rect x="112.7" y="40.5" transform="matrix(0.2646 -0.9644 0.9644 0.2646 44.8306 139.9788)" class="st12" width="2.9" height="0.3"/>
				</g>
				<g>
					
						<rect x="113" y="40.9" transform="matrix(0.3413 -0.94 0.94 0.3413 37.0038 134.8555)" class="st12" width="3.5" height="0.3"/>
				</g>
				<g>
					<path class="st12" d="M114.4,43.7l-0.3-0.1c0.3-0.5,0.9-1.8,1-1.9l0.2,0.2l0,0C115.2,42,114.7,43,114.4,43.7z"/>
				</g>
			</g>
			<g>
				<g>
					<path class="st12" d="M113.9,27.2c0-0.2-0.1-0.3-0.2-0.3c-0.2-0.1-0.4,0-0.5,0l-0.1-0.3c0,0,0.5-0.2,0.8,0
						c0.2,0.1,0.3,0.3,0.3,0.5L113.9,27.2z"/>
				</g>
				<g>
					<rect x="113" y="27.1" transform="matrix(0.3212 -0.947 0.947 0.3212 51.243 125.9585)" class="st12" width="1" height="0.3"/>
				</g>
			</g>
			<g>
				<path class="st22" d="M112.4,26.6c0,0,0.5-0.5,1.1-0.3c0,0-0.2-0.6-1.2,0.2C111.4,27.3,112.4,26.6,112.4,26.6z"/>
			</g>
			<g>
				<path class="st22" d="M112.3,28.4c0,0,0.7,0.1,1.1-0.1C113.4,28.3,112.7,28.9,112.3,28.4z"/>
			</g>
			<g>
				<path class="st23" d="M113.6,31.6L113.6,31.6c-0.5,0-1-0.4-1-1v-0.7c0-0.5,0.4-1,1-1l0,0c0.5,0,1,0.4,1,1v0.7
					C114.6,31.1,114.1,31.6,113.6,31.6z"/>
			</g>
			<g>
				<ellipse class="st9" cx="113.7" cy="28.6" rx="0.7" ry="0.7"/>
			</g>
			<g>
				<path class="st12" d="M101.3,48.1c-0.2,0-0.3,0-0.4,0l0-0.3c0,0,1.6,0.1,3.9-0.3c2.1-0.3,5.2-1.1,8.3-2.9L113,42
					c-1.3,0.4-8.7,2.4-9.8,2.5l0-0.3c1.1-0.1,9.8-2.5,9.9-2.5l0.2,0l0.2,3.1l-0.1,0c-3.2,1.9-6.4,2.7-8.5,3
					C103.2,48.1,101.9,48.1,101.3,48.1z"/>
			</g>
			<g>
				<polygon class="st12" points="109.9,25.7 109.4,28.4 110.2,28.4 				"/>
			</g>
			<g>
				<g>
					<path class="st12" d="M108.6,25.8c0,0.2-0.1,0.4-0.2,0.4c-0.1,0-0.2-0.2-0.2-0.4c0-0.2,0.1-0.4,0.2-0.4
						C108.4,25.4,108.5,25.6,108.6,25.8z"/>
				</g>
				<g>
					<path class="st12" d="M108.7,25.3c-0.3-0.4-0.9,0.1-0.9,0.1L108.7,25.3z"/>
				</g>
			</g>
			<g>
				<g>
					<path class="st12" d="M111.3,25.6c0,0.2,0.1,0.4,0.2,0.4c0.1,0,0.2-0.2,0.2-0.4c0-0.2-0.1-0.4-0.2-0.4
						C111.4,25.2,111.3,25.4,111.3,25.6z"/>
				</g>
				<g>
					<path class="st12" d="M112,25.1c0,0-0.6-0.4-0.9,0.1L112,25.1z"/>
				</g>
			</g>
			<g>
				<defs>
					<path id="SVGID_5_" d="M107.1,26.5c0,0,3-1.2,5.4-0.1l0.1,2.1c0,0-1.8,2.9-5,1.1C107.7,29.5,106.6,28.6,107.1,26.5z"/>
				</defs>
				<use xlink:href="#SVGID_5_"  style="overflow:visible;fill:#567CA1;"/>
				<clipPath id="SVGID_6_">
					<use xlink:href="#SVGID_5_"  style="overflow:visible;"/>
				</clipPath>
				<g class="st24">
					<g>
						<path class="st23" d="M108.5,27.2c0-0.1-0.1-0.2-0.3-0.2c-0.1,0.1-0.1,0.2-0.1,0.3c0,0,0,0,0,0c-0.1-0.1-0.2-0.1-0.3-0.1
							c-0.1,0-0.1,0.1-0.1,0.1c0,0.3,0.3,0.5,0.6,0.6c0.1,0,0.1,0,0.1-0.1c0,0,0,0,0,0c0,0,0,0,0-0.1
							C108.5,27.6,108.6,27.4,108.5,27.2z M108,27.6C108,27.6,108,27.6,108,27.6C108,27.6,108,27.6,108,27.6
							C108,27.6,108,27.5,108,27.6C108,27.5,108,27.5,108,27.6C108,27.5,108,27.5,108,27.6c0.1,0,0.1,0,0.1,0.1c0,0,0,0,0,0
							C108.1,27.7,108.1,27.7,108,27.6C108.1,27.6,108,27.6,108,27.6z"/>
					</g>
					<g>
						<path class="st23" d="M110.2,26.4c0-0.1-0.1-0.3-0.2-0.3c-0.1,0-0.2,0.1-0.3,0.2c0,0,0,0,0,0.1c-0.1-0.1-0.2-0.1-0.3-0.1
							c-0.1,0-0.2,0.2-0.1,0.3c0,0.1,0.1,0.2,0.2,0.3c0.1,0.1,0.2,0.2,0.3,0.2c0,0,0.1,0,0.1,0c0,0,0.1,0,0.1,0c0,0,0-0.1,0.1-0.2
							c0,0,0,0,0,0c0,0,0,0,0,0c0,0,0,0,0,0c0,0,0,0,0-0.1C110.2,26.7,110.2,26.6,110.2,26.4z"/>
					</g>
					<g>
						<path class="st23" d="M109.6,27.9c-0.1,0-0.2,0.1-0.2,0.2c0,0,0,0,0,0c0,0,0,0,0,0c-0.1,0-0.1,0-0.2,0c0,0-0.1,0.1-0.1,0.2
							c0,0.1,0,0.2,0.1,0.3c0,0.1,0.1,0.1,0.1,0.2c0,0,0,0.1,0,0.1c0,0,0,0,0.1,0c0,0,0.1,0,0.1,0c0,0,0.1-0.1,0-0.1
							c0-0.1,0-0.1,0.1-0.2c0-0.1,0.1-0.2,0.1-0.3C109.7,28.1,109.7,27.9,109.6,27.9z"/>
					</g>
					<g>
						<path class="st23" d="M108.2,29.3c0-0.1,0-0.2,0-0.3c0-0.1-0.1-0.2-0.2-0.2c-0.1,0-0.1,0.1-0.1,0.1c0,0,0,0.1,0,0.1
							c0,0-0.1-0.1-0.1-0.1c-0.1,0-0.1,0-0.2,0c-0.1,0-0.1,0.1-0.1,0.2c0,0.1,0,0.1,0.1,0.2c0,0,0.1,0.1,0.1,0.1
							c0.1,0.1,0.1,0.1,0.2,0.2c0,0,0.1,0.1,0.1,0.1c0,0,0,0,0,0c0,0.1,0.1,0.1,0.1,0.1c0,0,0,0,0.1,0c0,0,0.1,0,0.1-0.1
							c0-0.1,0-0.1,0-0.1c0,0,0-0.1,0-0.1C108.2,29.4,108.2,29.3,108.2,29.3z"/>
					</g>
					<g>
						<g>
							<path class="st23" d="M109.9,29.4c0,0-0.1-0.1-0.2-0.1c-0.1,0-0.1,0.1-0.1,0.1c0,0.1,0,0.1-0.1,0.2c0,0-0.1-0.1-0.1-0.1
								c0,0-0.1,0-0.2,0c-0.1,0-0.1,0.1-0.1,0.1c0,0.2,0,0.3,0.1,0.4c0,0.1,0.1,0.1,0.2,0.2c0,0,0.1,0.1,0.1,0.1c0,0,0,0,0,0
								c0,0,0,0,0,0c0,0,0,0,0,0c0,0,0,0,0,0c0,0,0,0,0,0c0,0.1,0.2,0.1,0.2,0c0-0.2,0.1-0.3,0.1-0.5C110,29.7,110,29.5,109.9,29.4z
								 M109.5,29.9C109.5,29.9,109.4,29.9,109.5,29.9C109.4,29.8,109.4,29.8,109.5,29.9c0-0.1,0-0.1,0-0.1
								C109.4,29.8,109.5,29.9,109.5,29.9C109.5,29.9,109.5,29.9,109.5,29.9C109.5,29.9,109.5,29.9,109.5,29.9z"/>
						</g>
						<g>
							<polygon class="st23" points="109.4,29.7 109.4,29.7 109.4,29.7 							"/>
						</g>
					</g>
					<g>
						<path class="st23" d="M111.4,28.2c0-0.1-0.1-0.1-0.1-0.1c-0.1,0-0.1,0.1-0.2,0.1c0,0,0,0,0,0.1c0,0,0-0.1-0.1-0.1
							c0,0-0.1-0.1-0.1,0c-0.2,0.1-0.1,0.4-0.1,0.6c0.1,0.2,0.1,0.4,0.2,0.5c0,0,0,0.1,0,0.1c0,0,0.1,0,0.1,0
							c0.1-0.2,0.1-0.4,0.2-0.5c0-0.1,0-0.2,0-0.3C111.4,28.3,111.4,28.2,111.4,28.2z"/>
					</g>
					<g>
						<path class="st23" d="M111.9,26.4c0-0.1-0.1-0.1-0.1-0.1c-0.1,0-0.1,0-0.2,0c0,0,0,0.1-0.1,0.1c0,0,0,0-0.1-0.1
							c-0.1,0-0.1,0-0.2,0.1c0,0.1,0,0.3,0,0.4c0,0.1,0.1,0.3,0.2,0.4c0,0,0.1,0,0.1,0c0,0,0.1,0,0.1-0.1c0-0.1,0.1-0.2,0.1-0.3
							C111.9,26.7,112,26.6,111.9,26.4z"/>
					</g>
					<g>
						<path class="st23" d="M112.5,28.6c0,0-0.1-0.1-0.1,0c-0.1,0-0.1,0.1-0.2,0.2c0-0.1-0.1-0.1-0.1-0.1c0,0-0.1,0-0.1,0
							c-0.1,0.3,0.1,0.7,0.2,1c0,0.1,0.2,0.1,0.2,0c0,0,0,0,0,0c0.1,0,0.1,0,0.1-0.1C112.5,29.2,112.7,28.9,112.5,28.6z"/>
					</g>
				</g>
			</g>
			<g>
				<path class="st15" d="M109.8,21.4c0,0-2.3,0.2-3.2,1.8c-0.8,1.6-1.2,2.5-1.4,3.8c-0.2,1.3-0.2,2.2-0.6,3.2
					c-0.4,1.1-0.5,1.2-0.5,1.9c0,0.8,0.3,1.3-0.1,2.1c-0.3,0.8-0.3,0.7-0.4,1.1c0,0.4-0.2,0.2-0.2,1.1c0,0.9,0.1,3-0.1,3.4
					c0,0,4.9-1.1,5-1.8s-0.5-2-0.3-2.4c0.2-0.4,1-1.3,0.9-1.7c-0.1-0.5-0.6-1.9-0.3-2.1c0.3-0.2,0.2-0.2,0.2-0.2l0.1-1.8
					c0,0-1.1-0.5-1.4-1.7s-0.5-1.8-0.1-2.6c0.3-0.8,1.5-1.9,2.1-2c0.6-0.1,0.5-0.2,0.5-0.2L109.8,21.4z"/>
			</g>
			<g>
				
					<rect x="110.7" y="32.8" transform="matrix(0.1014 -0.9948 0.9948 0.1014 65.5159 141.0197)" class="st12" width="0.3" height="2.9"/>
			</g>
		</g>
		<g>
			<path class="st25" d="M41.4,21.4h-8.6c-1.1,0-2.1-0.9-2.1-2.1v0c0-1.1,0.9-2.1,2.1-2.1h8.6c1.1,0,2.1,0.9,2.1,2.1v0
				C43.5,20.5,42.6,21.4,41.4,21.4z"/>
			<g>
				<g>
					<g>
						<path class="st7" d="M34.9,19.4c0.1,0.1,0.1,0.2,0.1,0.3c0,0.1,0,0.2-0.1,0.3c0,0.1-0.1,0.1-0.2,0.2c-0.1,0-0.2,0.1-0.4,0.1
							c-0.1,0-0.2,0-0.3,0c-0.1,0-0.2-0.1-0.3-0.1l0.2-0.3c0.1,0,0.1,0.1,0.2,0.1c0.1,0,0.1,0,0.2,0c0.1,0,0.1,0,0.2,0
							c0,0,0.1-0.1,0.1-0.1c0-0.1-0.1-0.1-0.2-0.1h-0.2v-0.3l0.3-0.3h-0.6v-0.3h1.1v0.3l-0.3,0.3C34.7,19.3,34.8,19.4,34.9,19.4z"/>
						<path class="st7" d="M36.2,19.3c0.1,0,0.1,0.1,0.2,0.2c0,0.1,0.1,0.2,0.1,0.3c0,0.1,0,0.2-0.1,0.3c-0.1,0.1-0.1,0.1-0.2,0.2
							c-0.1,0-0.2,0.1-0.3,0.1c-0.2,0-0.4-0.1-0.5-0.2c-0.1-0.1-0.2-0.3-0.2-0.6c0-0.2,0-0.3,0.1-0.5c0.1-0.1,0.2-0.2,0.3-0.3
							c0.1-0.1,0.3-0.1,0.4-0.1c0.1,0,0.2,0,0.2,0c0.1,0,0.1,0,0.2,0.1l-0.2,0.3C36.2,19,36.1,19,35.9,19c-0.1,0-0.2,0-0.3,0.1
							c-0.1,0.1-0.1,0.1-0.1,0.3c0.1-0.1,0.2-0.1,0.3-0.1C36,19.2,36.1,19.3,36.2,19.3z M36,19.9c0,0,0.1-0.1,0.1-0.1
							c0-0.1,0-0.1-0.1-0.1c0,0-0.1-0.1-0.2-0.1c-0.1,0-0.1,0-0.2,0.1c0,0-0.1,0.1-0.1,0.1c0,0.1,0,0.1,0.1,0.1c0,0,0.1,0.1,0.2,0.1
							C35.9,19.9,35.9,19.9,36,19.9z"/>
						<path class="st7" d="M36.6,20.2c0,0-0.1-0.1-0.1-0.2c0-0.1,0-0.1,0.1-0.2c0,0,0.1-0.1,0.2-0.1c0.1,0,0.1,0,0.2,0.1
							c0,0,0.1,0.1,0.1,0.2c0,0.1,0,0.1-0.1,0.2c0,0-0.1,0.1-0.2,0.1C36.7,20.2,36.7,20.2,36.6,20.2z"/>
						<path class="st7" d="M38.4,19.9v0.3h-1.2v-0.3l0.6-0.5c0.1-0.1,0.1-0.1,0.1-0.1c0,0,0-0.1,0-0.1c0,0,0-0.1-0.1-0.1
							c0,0-0.1,0-0.1,0c-0.1,0-0.1,0-0.2,0c0,0-0.1,0.1-0.1,0.1L37.1,19c0.1-0.1,0.1-0.2,0.3-0.2c0.1-0.1,0.2-0.1,0.4-0.1
							c0.1,0,0.2,0,0.3,0.1c0.1,0,0.2,0.1,0.2,0.2c0.1,0.1,0.1,0.2,0.1,0.2c0,0.1,0,0.2-0.1,0.2c0,0.1-0.1,0.2-0.2,0.3l-0.3,0.3
							H38.4z"/>
						<path class="st7" d="M40.2,20.1c-0.1-0.1-0.2-0.2-0.3-0.3c-0.1-0.1-0.1-0.3-0.1-0.4c0-0.2,0-0.3,0.1-0.4
							c0.1-0.1,0.2-0.2,0.3-0.3c0.1-0.1,0.3-0.1,0.4-0.1c0.1,0,0.3,0,0.4,0.1c0.1,0,0.2,0.1,0.3,0.2L41,19.2
							c-0.1-0.1-0.2-0.2-0.4-0.2c-0.1,0-0.2,0-0.2,0.1c-0.1,0-0.1,0.1-0.2,0.2c0,0.1-0.1,0.1-0.1,0.2c0,0.1,0,0.2,0.1,0.2
							c0,0.1,0.1,0.1,0.2,0.2c0.1,0,0.1,0.1,0.2,0.1c0.1,0,0.3-0.1,0.4-0.2l0.3,0.2c-0.1,0.1-0.2,0.2-0.3,0.2
							c-0.1,0-0.2,0.1-0.4,0.1C40.5,20.2,40.3,20.2,40.2,20.1z"/>
					</g>
				</g>
				<g>
					<path class="st7" d="M38.8,18.8c-0.2,0-0.4-0.2-0.4-0.4s0.2-0.4,0.4-0.4c0.2,0,0.4,0.2,0.4,0.4S39.1,18.8,38.8,18.8z
						 M38.8,18.2c-0.1,0-0.2,0.1-0.2,0.2c0,0.1,0.1,0.2,0.2,0.2c0.1,0,0.2-0.1,0.2-0.2C39,18.3,38.9,18.2,38.8,18.2z"/>
				</g>
			</g>
		</g>
		<g>
			<g>
				<rect x="49.7" y="23.9" class="st7" width="0.3" height="0.5"/>
			</g>
			<g>
				<path class="st7" d="M56.1,24.3h-0.5v-0.5h0.5V24.3z M55.1,24.3h-0.5v-0.5h0.5V24.3z M54.1,24.3h-0.5v-0.5h0.5V24.3z M53,24.3
					h-0.5v-0.5H53V24.3z M52,24.3h-0.5v-0.5H52V24.3z M51,24.3h-0.5v-0.5H51V24.3z"/>
			</g>
			<g>
				<rect x="56.6" y="23.9" class="st7" width="0.3" height="0.5"/>
			</g>
		</g>
		<g>
			<g>
				<g>
					<rect x="34" y="51.2" class="st9" width="1.8" height="20.7"/>
				</g>
				<g>
					<rect x="30.3" y="71.6" class="st22" width="9.2" height="1.4"/>
				</g>
				<g>
					<rect x="32.2" y="50.2" class="st22" width="11" height="1.6"/>
				</g>
			</g>
			<g>
				<g>
					<rect x="35.7" y="45.2" class="st7" width="4.2" height="5"/>
				</g>
				<g>
					<polygon class="st7" points="35.7,45.2 37.3,43 38.3,43 39.9,45.2 					"/>
				</g>
				<g>
					<rect x="35.7" y="45.9" class="st12" width="4.2" height="2.8"/>
				</g>
				<g>
					<rect x="37.2" y="41.6" class="st25" width="1.2" height="1.4"/>
				</g>
				<g>
					<path class="st25" d="M39.3,41.2h-2.1C37,41.2,37,41.1,37,41l0,0c0-0.1,0.1-0.2,0.2-0.2h2.1c0.1,0,0.2,0.1,0.2,0.2l0,0
						C39.5,41.1,39.4,41.2,39.3,41.2z"/>
				</g>
				<g>
					
						<rect x="37.1" y="41.6" transform="matrix(-1.836970e-16 1 -1 -1.836970e-16 79.6068 3.9227)" class="st25" width="1.5" height="0.4"/>
				</g>
				<g>
					<g>
						<rect x="37.6" y="46.2" class="st25" width="0.5" height="1.8"/>
					</g>
					<g>
						
							<rect x="37.6" y="46.2" transform="matrix(6.123234e-17 -1 1 6.123234e-17 -9.3249 84.9303)" class="st25" width="0.5" height="1.8"/>
					</g>
				</g>
			</g>
		</g>
		<g>
			<g>
				<rect x="47.9" y="54.8" class="st12" width="84.1" height="2.5"/>
			</g>
			<g>
				<g>
					<rect x="47.3" y="51.9" class="st5" width="1.9" height="32.5"/>
				</g>
				<g>
					<path class="st5" d="M50.2,85.1h-4c-0.4,0-0.6-0.3-0.6-0.6l0,0c0-0.4,0.3-0.6,0.6-0.6h4c0.4,0,0.6,0.3,0.6,0.6v0
						C50.9,84.8,50.6,85.1,50.2,85.1z"/>
				</g>
			</g>
			<g>
				<g>
					<rect x="131.2" y="51.9" class="st5" width="1.9" height="32.5"/>
				</g>
				<g>
					<path class="st5" d="M134.1,85.1h-4c-0.4,0-0.6-0.3-0.6-0.6l0,0c0-0.4,0.3-0.6,0.6-0.6h4c0.4,0,0.6,0.3,0.6,0.6v0
						C134.8,84.8,134.5,85.1,134.1,85.1z"/>
				</g>
			</g>
			<g>
				<g>
					<path class="st5" d="M93,85.1h-4c-0.4,0-0.6-0.3-0.6-0.6v0c0-0.4,0.3-0.6,0.6-0.6h4c0.4,0,0.6,0.3,0.6,0.6v0
						C93.7,84.8,93.4,85.1,93,85.1z"/>
				</g>
				<g>
					<rect x="90" y="51.9" class="st5" width="1.9" height="32.5"/>
				</g>
			</g>
		</g>
		<g>
			<g id="Paintable_2_">
				<g>
					<path class="st9" d="M125.6,77c0.3,0.7-0.1-6.7-4-7.4c-3.9-0.7-4,0.9-3.1,2.2c0.9,1.3,1.4,0.9,1.2,1.9c-0.2,1,0.4,1.7,1.9,2.1
						C123.2,76.1,125.3,76.4,125.6,77z"/>
				</g>
				<g>
					<path class="st9" d="M127.2,77.2c0,0,0.2-4.8,3.3-5.1c3.1-0.3,4.9-0.3,5.5-0.8c0.6-0.5,3,0,3.1,3s-3,1.1-4.3,3.5
						C133.5,80.3,127.2,77.2,127.2,77.2z"/>
				</g>
				<g>
					<path class="st9" d="M126.8,72.3c0,0-0.7-1.6-1.8-3.1c-1-1.5-0.3-3.2,0.6-4c0,0-2.4-6,1.7-6.6c4.1-0.6,3.5,3.6,3.1,4.9
						s-0.4,1.3-0.4,1.3s-0.6,1.8,0,2.8C130.5,68.7,129.3,70.5,126.8,72.3z"/>
				</g>
			</g>
			<g>
				<g>
					<path class="st22" d="M126.5,79.9c-0.4-3.7-5.5-8.6-5.5-8.7l0.3-0.3c0.2,0.2,5.2,5.1,5.6,8.9L126.5,79.9z"/>
				</g>
				<g>
					<path class="st22" d="M126.8,80c0-0.1-0.5-1.6,0.4-3.1c0.8-1.3,2.4-2,4.7-2.3l0,0.4c-2.2,0.2-3.7,1-4.4,2.1
						c-0.9,1.3-0.4,2.8-0.4,2.8L126.8,80z"/>
				</g>
				<g>
					<path class="st22" d="M127.2,80c-0.7-1.9-0.8-5.7-0.3-11.4c0.4-4.3,1-8,1-8.1l0.4,0.1c0,0.1-2.4,15-0.7,19.3L127.2,80z"/>
				</g>
			</g>
			<g>
				<polygon class="st12" points="121.6,79.2 123.1,88.3 130.3,88.3 131.8,79.3 				"/>
			</g>
		</g>
		<g>
			<g>
				<g>
					<path class="st12" d="M14.7,78l-0.4,3.2l6.9,1.3c-0.1-2-3.5-2.6-3.5-2.6l0.1-1.6L14.7,78z"/>
				</g>
				<g>
					<path class="st22" d="M14.2,81.2l-0.1,0.4l7,1.3c0-0.1,0-0.2,0-0.4L14.2,81.2z"/>
				</g>
			</g>
			<g>
				<g>
					<path class="st12" d="M26.8,78.2l-0.2,3.3l7,0.8c-0.3-2-3.7-2.3-3.7-2.3l0-1.6L26.8,78.2z"/>
				</g>
				<g>
					<path class="st22" d="M26.6,81.4l0,0.4l7.1,0.8c0-0.1,0-0.2,0-0.4L26.6,81.4z"/>
				</g>
			</g>
			<g>
				<g>
					<path class="st25" d="M16.5,51.7c0,0,1.1,2.1,0.8,2.5c-0.2,0.4-1.1-0.6-1.1-0.6s-0.1,1.8-0.1,2.4c-0.1,0.6-0.8,0.1-0.7-0.1
						c0,0,0.2,0.6-0.1,0.8c-0.3,0.2-0.6-0.8-0.6-0.8s0.1,0.4-0.3,0.5C14,56.5,14,55.5,14,55.5s-0.1,0.6-0.4,0.3
						c-0.3-0.3,0.3-3.9,0.3-3.9L16.5,51.7z"/>
				</g>
			</g>
			<g>
				<path class="st25" d="M42.1,28.7c0,0-0.3-3.3,0.8-3.3c1.1,0,1.4,1.5,1.4,1.7c0,0.2-0.9,2.8-0.9,2.8L42.1,28.7z"/>
			</g>
			<g id="Paintable_1_">
				<path class="st22" d="M19.8,50l10.3-0.3L29.6,37c0,0,5.1,3.1,7.2,1.5c2.1-1.6,7.3-8,7.3-8l-2-1.8l-6.8,5c0,0-8.8-6.1-13.3-5.2
					c0,0-3.4,0.8-4.1,1.7c-2.6,3.5-3.6,8.3-4.2,11.4c-1,5,0,10.8,0,10.8s3.3,0.2,3.4,0.3c0.1,0.1,0.4-2.7,0.4-2.7l2.2-0.1L19.8,50z"
					/>
			</g>
			<g>
				<g>
					<path class="st14" d="M44,23c0.1,0,4.8-0.1,4.8-0.1L48,25l-2.7,1.1l-1.4,3.6l0.6,1.3L41.8,31L44,23z"/>
				</g>
				<g>
					<polygon class="st7" points="44.8,23.7 44.4,25.1 47.2,24.4 47.5,23.5 					"/>
				</g>
				<g>
					<polygon class="st25" points="48.7,22.9 49.4,22.8 48.9,25 48,25 					"/>
				</g>
			</g>
			<g>
				<path class="st25" d="M45.1,26.5c-0.1,0-1.8,0.4-1.7,1.1C43.6,28.2,44,28,44,28s-0.8,0.5-0.5,0.8c0.2,0.3,0.7,0.2,0.7,0.2
					s-0.7,0.5-0.4,0.9c0.3,0.3,2,0.3,2.2-1.2C46.2,27.2,46.1,26.3,45.1,26.5z"/>
			</g>
			<g id="Paintable">
				<polygon class="st9" points="16.8,45.4 12.3,78.8 21.8,78.5 23.4,53.8 24.6,78.4 33,78.4 30,45 				"/>
			</g>
			<g>
				
					<rect x="12.8" y="40.3" transform="matrix(0.2326 -0.9726 0.9726 0.2326 -25.5127 48.4657)" class="st12" width="10.2" height="0.3"/>
			</g>
			<g>
				<path class="st12" d="M28,37.8l-3.2-0.1L25,34l0.1,0c0,0,0.6,0,1.2-0.1c1.3-0.1,1.3,0,1.4,0l0,0l0,0.1c0,0.1,0.2,2.6,0.3,3.6
					L28,37.8z M25.2,37.4l2.6,0.1c-0.1-0.7-0.2-2.8-0.3-3.4c-0.3,0-1.3,0-2.2,0.1L25.2,37.4z M27.5,34C27.5,34,27.5,34,27.5,34
					C27.5,34,27.5,34,27.5,34z"/>
			</g>
			<g>
				
					<rect x="18.7" y="53.1" transform="matrix(6.272066e-02 -0.998 0.998 6.272066e-02 -31.159 73.3376)" class="st12" width="9.5" height="0.3"/>
			</g>
			<g>
				<polygon class="st12" points="22.8,33.1 19.6,29.3 19.8,29.1 22.7,32.6 23.4,31.1 24.5,32.6 26.4,29 26.7,29.2 24.5,33.1 
					23.4,31.7 				"/>
			</g>
			<g>
				<path class="st12" d="M27,19.5c0,0-1.1-1.6-3.1-1.1c-2,0.4-2-0.7-3.7,1.6c-1.8,2.3-1.7,1.9-1.7,3.3c0,1.4,2.5,3.6,3,3.6
					c0.5,0,2.1-4.7,2.4-4.9C24.1,21.9,27,19.5,27,19.5z"/>
			</g>
			<g>
				<path class="st17" d="M23,31.5L23,31.5c0.8,0,1.5-0.6,1.5-1.4l0.1-5.4l-3,0.4l0.1,5C21.7,30.8,22.3,31.4,23,31.5z"/>
			</g>
			<g>
				<ellipse class="st16" cx="24.7" cy="23.8" rx="3.6" ry="4.2"/>
			</g>
			<g>
				<path class="st12" d="M27.2,20.7c0,0,0.3-1.6-1-1.8C25,18.8,23,18,21.8,18.8c-1.1,0.8-1.7,4.3-1.9,6.7c0,0,0.8-0.3,1.5-2.1
					c0.6-1.8,0.5,1.2,1,1.2c0,0,0.4-1.8,1.3-2c0.9-0.2,1.5-0.7,0.9-1.6C24.1,20.3,25.3,19.3,27.2,20.7z"/>
			</g>
			<g>
				<path class="st16" d="M21.9,23c0,0-1.9-0.4-2.1,0.7c-0.2,1,0.8,2,1.9,1.8L21.9,23z"/>
			</g>
			<g>
				<path class="st25" d="M23.5,23.7c0,0-0.7,1.4-0.3,2.9c0,0,4.2,2.4,5.2-1.6S23.5,23.7,23.5,23.7z"/>
			</g>
			<g>
				<path class="st25" d="M21.4,22.9c0,0,0.1-0.3,0.7-0.5c0.7-0.2,1.7,1.3,1.7,1.3l-0.3,0.1c0,0-0.5-0.4-0.9-0.9
					c-0.4-0.5-0.8,0-0.8,0L21.4,22.9z"/>
			</g>
			<g>
				<path class="st25" d="M20.8,25.3l0.4,0.1c0,0,0.9,1.7,2.2,0.9l0.2,0.2C23.5,26.6,21.8,27.5,20.8,25.3z"/>
			</g>
			<g>
				<g>
					<path class="st12" d="M20.7,24.2l-0.3,0c0-0.3,0.2-0.5,0.3-0.6c0.3-0.2,0.8,0,0.8,0l-0.1,0.3l0.1-0.1l-0.1,0.1
						c-0.1,0-0.4-0.1-0.6,0C20.8,23.9,20.7,24,20.7,24.2z"/>
				</g>
				<g>
					<rect x="20.9" y="23.8" transform="matrix(0.947 -0.3212 0.3212 0.947 -6.674 8.0571)" class="st12" width="0.3" height="1"/>
				</g>
			</g>
			<g>
				<g>
					<path class="st12" d="M27.4,22.5c0,0.2,0.1,0.4,0.2,0.4c0.1,0,0.2-0.2,0.2-0.4c0-0.2-0.1-0.4-0.2-0.4
						C27.5,22.1,27.4,22.3,27.4,22.5z"/>
				</g>
				<g>
					<path class="st12" d="M28.2,22c0,0-0.6-0.5-0.9,0L28.2,22z"/>
				</g>
			</g>
			<g>
				<g>
					<path class="st12" d="M25.4,22.6c0,0.2-0.1,0.4-0.2,0.4c-0.1,0-0.2-0.2-0.2-0.4c0-0.2,0.1-0.4,0.2-0.4
						C25.3,22.2,25.4,22.3,25.4,22.6z"/>
				</g>
				<g>
					<path class="st12" d="M25.6,22c-0.3-0.4-0.9,0.1-0.9,0.1L25.6,22z"/>
				</g>
			</g>
			<g>
				
					<rect x="23.5" y="31.4" transform="matrix(0.9995 -3.078676e-02 3.078676e-02 0.9995 -1.1674 0.7446)" class="st12" width="0.3" height="13.8"/>
			</g>
		</g>
	</g>
</g>
</svg>
