<?xml version="1.0" encoding="utf-8"?>
<!-- Generator: Adobe Illustrator 25.0.0, SVG Export Plug-In . SVG Version: 6.00 Build 0)  -->
<svg version="1.1" xmlns="http://www.w3.org/2000/svg" xmlns:xlink="http://www.w3.org/1999/xlink" x="0px" y="0px"
	 viewBox="0 0 480 320" style="enable-background:new 0 0 480 320;" xml:space="preserve">
<style type="text/css">
	.st0{clip-path:url(#SVGID_2_);}
	.st1{fill:#F0F6FC;}
	.st2{fill:#E1EBF7;}
	.st3{fill:#CFDFF8;}
	.st4{fill:#CBD9F4;}
	.st5{fill:#A0BCEB;}
	.st6{fill:#E3EAFA;}
	.st7{fill:#FFFFFF;}
	.st8{fill:#BBC9E6;}
	.st9{fill:#7096BD;}
	.st10{fill:#FFFDFE;}
	.st11{fill:#C4D0EA;}
	.st12{fill:#38293C;}
	.st13{fill:#975354;}
	.st14{fill:#D84B59;}
	.st15{fill:#97544E;}
	.st16{fill:#FAA89D;}
	.st17{fill:#F18D7D;}
	.st18{clip-path:url(#SVGID_4_);}
	.st19{clip-path:url(#Paintable_1_);}
	.st20{fill:#C63C50;}
	.st21{clip-path:url(#Paintable_7_);}
	.st22{fill:#567CA1;}
	.st23{fill:#FCFAE0;}
	.st24{clip-path:url(#SVGID_6_);}
	.st25{fill:#589BA1;}
</style>
<g id="background">
	<g>
		<defs>
			<rect id="SVGID_1_" x="0" y="0" width="480" height="320"/>
		</defs>
		<clipPath id="SVGID_2_">
			<use xlink:href="#SVGID_1_"  style="overflow:visible;"/>
		</clipPath>
		<g class="st0">
			<rect x="0" y="175.2" class="st1" width="480" height="144.8"/>
			<rect x="0" y="0" class="st2" width="480" height="220.9"/>
			<g>
				<rect x="172.2" y="98.3" class="st3" width="133.7" height="114.1"/>
				<rect x="179.1" y="106.1" class="st2" width="120" height="97.9"/>
				<rect x="175.7" y="169.5" class="st3" width="126.7" height="4.2"/>
				<rect x="175.7" y="135" class="st3" width="126.7" height="4.2"/>
				<g>
					<g>
						<polygon class="st4" points="184.3,135.1 195.4,135.1 195.3,121.9 189.7,115.8 184.3,122 						"/>
						<rect x="189.2" y="112" class="st4" width="1.1" height="5.6"/>
						<polygon class="st5" points="187.1,121.5 189.7,118.4 192.5,121.5 						"/>
						<rect x="185.3" y="128.5" class="st5" width="8.8" height="5.4"/>
					</g>
					<g>
						<polygon class="st4" points="198.2,135.1 209.3,135.1 209.2,121.9 203.6,115.8 198.2,122 						"/>
						<rect x="203.1" y="112" class="st4" width="1.1" height="5.6"/>
						<polygon class="st5" points="201,121.5 203.6,118.4 206.4,121.5 						"/>
						<rect x="199.2" y="128.5" class="st5" width="8.8" height="5.4"/>
					</g>
					<g>
						<polygon class="st4" points="212.1,135.1 223.2,135.1 223.1,121.9 217.5,115.8 212.1,122 						"/>
						<rect x="217" y="112" class="st4" width="1.1" height="5.6"/>
						<polygon class="st5" points="214.9,121.5 217.5,118.4 220.3,121.5 						"/>
						<rect x="213.1" y="128.5" class="st5" width="8.8" height="5.4"/>
					</g>
					<g>
						<polygon class="st4" points="226,135.1 237.1,135.1 237,121.9 231.4,115.8 226,122 						"/>
						<rect x="230.9" y="112" class="st4" width="1.1" height="5.6"/>
						<polygon class="st5" points="228.8,121.5 231.4,118.4 234.2,121.5 						"/>
						<rect x="227" y="128.5" class="st5" width="8.8" height="5.4"/>
					</g>
					<g>
						<polygon class="st4" points="239.9,135.1 251,135.1 250.9,121.9 245.3,115.8 239.9,122 						"/>
						<rect x="244.8" y="112" class="st4" width="1.1" height="5.6"/>
						<polygon class="st5" points="242.7,121.5 245.3,118.4 248.1,121.5 						"/>
						<rect x="240.9" y="128.5" class="st5" width="8.8" height="5.4"/>
					</g>
					<g>
						<polygon class="st4" points="253.8,135.1 264.9,135.1 264.8,121.9 259.2,115.8 253.8,122 						"/>
						<rect x="258.7" y="112" class="st4" width="1.1" height="5.6"/>
						<polygon class="st5" points="256.6,121.5 259.2,118.4 262,121.5 						"/>
						<rect x="254.8" y="128.5" class="st5" width="8.8" height="5.4"/>
					</g>
					<g>
						<polygon class="st4" points="267.7,135.1 278.8,135.1 278.7,121.9 273.1,115.8 267.7,122 						"/>
						<rect x="272.6" y="112" class="st4" width="1.1" height="5.6"/>
						<polygon class="st5" points="270.5,121.5 273.1,118.4 275.9,121.5 						"/>
						<rect x="268.7" y="128.5" class="st5" width="8.8" height="5.4"/>
					</g>
					<g>
						<polygon class="st4" points="281.6,135.1 292.7,135.1 292.6,121.9 287,115.8 281.6,122 						"/>
						<rect x="286.5" y="112" class="st4" width="1.1" height="5.6"/>
						<polygon class="st5" points="284.4,121.5 287,118.4 289.8,121.5 						"/>
						<rect x="282.6" y="128.5" class="st5" width="8.8" height="5.4"/>
					</g>
				</g>
				<g>
					<polygon class="st4" points="191.2,169.5 183.2,169.5 180.9,152.7 193.5,152.7 					"/>
					<polygon class="st5" points="205.8,169.5 197.8,169.5 195.6,152.7 208.1,152.7 					"/>
					<polygon class="st4" points="220.9,169.5 212.9,169.5 210.6,152.7 223.2,152.7 					"/>
					<polygon class="st5" points="235.5,169.5 227.5,169.5 225.2,152.7 237.8,152.7 					"/>
					<polygon class="st4" points="250.6,169.5 242.6,169.5 240.3,152.7 252.9,152.7 					"/>
					<polygon class="st5" points="265.2,169.5 257.2,169.5 254.9,152.7 267.5,152.7 					"/>
					<polygon class="st4" points="280.3,169.5 272.2,169.5 270,152.7 282.5,152.7 					"/>
					<polygon class="st5" points="294.9,169.5 286.9,169.5 284.6,152.7 297.1,152.7 					"/>
				</g>
				<g>
					<g>
						<path class="st5" d="M200,204h-11.6c-1.3,0-2.4-1.1-2.4-2.4v-1c0-1.3,1.1-2.4,2.4-2.4H200c1.3,0,2.4,1.1,2.4,2.4v1
							C202.5,202.9,201.4,204,200,204z"/>
						<path class="st4" d="M200,198.3h-11.6c-1.3,0-2.4-1.1-2.4-2.4v-1c0-1.3,1.1-2.4,2.4-2.4H200c1.3,0,2.4,1.1,2.4,2.4v1
							C202.5,197.2,201.4,198.3,200,198.3z"/>
						<path class="st5" d="M200,192.3h-11.6c-1.3,0-2.4-1.1-2.4-2.4v-1c0-1.3,1.1-2.4,2.4-2.4H200c1.3,0,2.4,1.1,2.4,2.4v1
							C202.5,191.2,201.4,192.3,200,192.3z"/>
						<path class="st4" d="M200,186.5h-11.6c-1.3,0-2.4-1.1-2.4-2.4v-1c0-1.3,1.1-2.4,2.4-2.4H200c1.3,0,2.4,1.1,2.4,2.4v1
							C202.5,185.4,201.4,186.5,200,186.5z"/>
					</g>
					<g>
						<path class="st5" d="M218.1,204h-11.6c-1.3,0-2.4-1.1-2.4-2.4v-1c0-1.3,1.1-2.4,2.4-2.4h11.6c1.3,0,2.4,1.1,2.4,2.4v1
							C220.5,202.9,219.4,204,218.1,204z"/>
						<path class="st4" d="M218.1,198.3h-11.6c-1.3,0-2.4-1.1-2.4-2.4v-1c0-1.3,1.1-2.4,2.4-2.4h11.6c1.3,0,2.4,1.1,2.4,2.4v1
							C220.5,197.2,219.4,198.3,218.1,198.3z"/>
						<path class="st5" d="M218.1,192.3h-11.6c-1.3,0-2.4-1.1-2.4-2.4v-1c0-1.3,1.1-2.4,2.4-2.4h11.6c1.3,0,2.4,1.1,2.4,2.4v1
							C220.5,191.2,219.4,192.3,218.1,192.3z"/>
						<path class="st4" d="M218.1,186.5h-11.6c-1.3,0-2.4-1.1-2.4-2.4v-1c0-1.3,1.1-2.4,2.4-2.4h11.6c1.3,0,2.4,1.1,2.4,2.4v1
							C220.5,185.4,219.4,186.5,218.1,186.5z"/>
					</g>
					<g>
						<path class="st5" d="M236.1,204h-11.6c-1.3,0-2.4-1.1-2.4-2.4v-1c0-1.3,1.1-2.4,2.4-2.4h11.6c1.3,0,2.4,1.1,2.4,2.4v1
							C238.6,202.9,237.5,204,236.1,204z"/>
						<path class="st4" d="M236.1,198.3h-11.6c-1.3,0-2.4-1.1-2.4-2.4v-1c0-1.3,1.1-2.4,2.4-2.4h11.6c1.3,0,2.4,1.1,2.4,2.4v1
							C238.6,197.2,237.5,198.3,236.1,198.3z"/>
						<path class="st5" d="M236.1,192.3h-11.6c-1.3,0-2.4-1.1-2.4-2.4v-1c0-1.3,1.1-2.4,2.4-2.4h11.6c1.3,0,2.4,1.1,2.4,2.4v1
							C238.6,191.2,237.5,192.3,236.1,192.3z"/>
						<path class="st4" d="M236.1,186.5h-11.6c-1.3,0-2.4-1.1-2.4-2.4v-1c0-1.3,1.1-2.4,2.4-2.4h11.6c1.3,0,2.4,1.1,2.4,2.4v1
							C238.6,185.4,237.5,186.5,236.1,186.5z"/>
					</g>
					<g>
						<path class="st5" d="M254.2,204h-11.6c-1.3,0-2.4-1.1-2.4-2.4v-1c0-1.3,1.1-2.4,2.4-2.4h11.6c1.3,0,2.4,1.1,2.4,2.4v1
							C256.6,202.9,255.5,204,254.2,204z"/>
						<path class="st4" d="M254.2,198.3h-11.6c-1.3,0-2.4-1.1-2.4-2.4v-1c0-1.3,1.1-2.4,2.4-2.4h11.6c1.3,0,2.4,1.1,2.4,2.4v1
							C256.6,197.2,255.5,198.3,254.2,198.3z"/>
						<path class="st5" d="M254.2,192.3h-11.6c-1.3,0-2.4-1.1-2.4-2.4v-1c0-1.3,1.1-2.4,2.4-2.4h11.6c1.3,0,2.4,1.1,2.4,2.4v1
							C256.6,191.2,255.5,192.3,254.2,192.3z"/>
						<path class="st4" d="M254.2,186.5h-11.6c-1.3,0-2.4-1.1-2.4-2.4v-1c0-1.3,1.1-2.4,2.4-2.4h11.6c1.3,0,2.4,1.1,2.4,2.4v1
							C256.6,185.4,255.5,186.5,254.2,186.5z"/>
					</g>
					<g>
						<path class="st5" d="M272.2,204h-11.6c-1.3,0-2.4-1.1-2.4-2.4v-1c0-1.3,1.1-2.4,2.4-2.4h11.6c1.3,0,2.4,1.1,2.4,2.4v1
							C274.6,202.9,273.5,204,272.2,204z"/>
						<path class="st4" d="M272.2,198.3h-11.6c-1.3,0-2.4-1.1-2.4-2.4v-1c0-1.3,1.1-2.4,2.4-2.4h11.6c1.3,0,2.4,1.1,2.4,2.4v1
							C274.6,197.2,273.5,198.3,272.2,198.3z"/>
						<path class="st5" d="M272.2,192.3h-11.6c-1.3,0-2.4-1.1-2.4-2.4v-1c0-1.3,1.1-2.4,2.4-2.4h11.6c1.3,0,2.4,1.1,2.4,2.4v1
							C274.6,191.2,273.5,192.3,272.2,192.3z"/>
						<path class="st4" d="M272.2,186.5h-11.6c-1.3,0-2.4-1.1-2.4-2.4v-1c0-1.3,1.1-2.4,2.4-2.4h11.6c1.3,0,2.4,1.1,2.4,2.4v1
							C274.6,185.4,273.5,186.5,272.2,186.5z"/>
					</g>
					<g>
						<path class="st5" d="M290.2,204h-11.6c-1.3,0-2.4-1.1-2.4-2.4v-1c0-1.3,1.1-2.4,2.4-2.4h11.6c1.3,0,2.4,1.1,2.4,2.4v1
							C292.7,202.9,291.6,204,290.2,204z"/>
						<path class="st4" d="M290.2,198.3h-11.6c-1.3,0-2.4-1.1-2.4-2.4v-1c0-1.3,1.1-2.4,2.4-2.4h11.6c1.3,0,2.4,1.1,2.4,2.4v1
							C292.7,197.2,291.6,198.3,290.2,198.3z"/>
						<path class="st5" d="M290.2,192.3h-11.6c-1.3,0-2.4-1.1-2.4-2.4v-1c0-1.3,1.1-2.4,2.4-2.4h11.6c1.3,0,2.4,1.1,2.4,2.4v1
							C292.7,191.2,291.6,192.3,290.2,192.3z"/>
						<path class="st4" d="M290.2,186.5h-11.6c-1.3,0-2.4-1.1-2.4-2.4v-1c0-1.3,1.1-2.4,2.4-2.4h11.6c1.3,0,2.4,1.1,2.4,2.4v1
							C292.7,185.4,291.6,186.5,290.2,186.5z"/>
					</g>
				</g>
			</g>
			<g>
				<rect x="9.7" y="59.8" class="st3" width="133.7" height="152.5"/>
				<rect x="16.5" y="67.6" class="st2" width="120" height="136.9"/>
				<rect x="13.2" y="133.6" class="st3" width="126.7" height="4.2"/>
				<rect x="13.2" y="168.1" class="st3" width="126.7" height="4.2"/>
				<rect x="13.2" y="99.1" class="st3" width="126.7" height="4.2"/>
				<g>
					<g>
						<path class="st4" d="M33.7,133.7H21v-13.6c0-1.6,1.2-2.8,2.7-2.8l7.3,0c1.5,0,2.7,1.3,2.7,2.8V133.7z"/>
						<path class="st6" d="M27.9,132.6h-1.1c-2,0-3.6-1.6-3.6-3.6v-2c0-2,1.6-3.6,3.6-3.6h1.1c2,0,3.6,1.6,3.6,3.6v2
							C31.5,130.9,29.9,132.6,27.9,132.6z"/>
					</g>
					<g>
						<path class="st4" d="M47.8,133.7H35.2v-13.6c0-1.6,1.2-2.8,2.7-2.8l7.3,0c1.5,0,2.7,1.3,2.7,2.8V133.7z"/>
						<path class="st6" d="M42.1,132.6h-1.1c-2,0-3.6-1.6-3.6-3.6v-2c0-2,1.6-3.6,3.6-3.6h1.1c2,0,3.6,1.6,3.6,3.6v2
							C45.7,130.9,44.1,132.6,42.1,132.6z"/>
					</g>
					<g>
						<path class="st4" d="M62,133.7H49.4v-13.6c0-1.6,1.2-2.8,2.7-2.8l7.3,0c1.5,0,2.7,1.3,2.7,2.8V133.7z"/>
						<path class="st6" d="M56.3,132.6h-1.1c-2,0-3.6-1.6-3.6-3.6v-2c0-2,1.6-3.6,3.6-3.6h1.1c2,0,3.6,1.6,3.6,3.6v2
							C59.9,130.9,58.3,132.6,56.3,132.6z"/>
					</g>
					<g>
						<path class="st4" d="M76.2,133.7H63.6v-13.6c0-1.6,1.2-2.8,2.7-2.8l7.3,0c1.5,0,2.7,1.3,2.7,2.8V133.7z"/>
						<path class="st6" d="M70.5,132.6h-1.1c-2,0-3.6-1.6-3.6-3.6v-2c0-2,1.6-3.6,3.6-3.6h1.1c2,0,3.6,1.6,3.6,3.6v2
							C74.1,130.9,72.5,132.6,70.5,132.6z"/>
					</g>
					<g>
						<path class="st4" d="M90.4,133.7H77.8v-13.6c0-1.6,1.2-2.8,2.7-2.8l7.3,0c1.5,0,2.7,1.3,2.7,2.8V133.7z"/>
						<path class="st6" d="M84.7,132.6h-1.1c-2,0-3.6-1.6-3.6-3.6v-2c0-2,1.6-3.6,3.6-3.6h1.1c2,0,3.6,1.6,3.6,3.6v2
							C88.3,130.9,86.7,132.6,84.7,132.6z"/>
					</g>
					<g>
						<path class="st4" d="M104.6,133.7H92v-13.6c0-1.6,1.2-2.8,2.7-2.8l7.3,0c1.5,0,2.7,1.3,2.7,2.8V133.7z"/>
						<path class="st6" d="M98.9,132.6h-1.1c-2,0-3.6-1.6-3.6-3.6v-2c0-2,1.6-3.6,3.6-3.6h1.1c2,0,3.6,1.6,3.6,3.6v2
							C102.5,130.9,100.9,132.6,98.9,132.6z"/>
					</g>
					<g>
						<path class="st4" d="M118.8,133.7h-12.7v-13.6c0-1.6,1.2-2.8,2.7-2.8l7.3,0c1.5,0,2.7,1.3,2.7,2.8V133.7z"/>
						<path class="st6" d="M113.1,132.6h-1.1c-2,0-3.6-1.6-3.6-3.6v-2c0-2,1.6-3.6,3.6-3.6h1.1c2,0,3.6,1.6,3.6,3.6v2
							C116.7,130.9,115,132.6,113.1,132.6z"/>
					</g>
					<g>
						<path class="st4" d="M133,133.7h-12.7v-13.6c0-1.6,1.2-2.8,2.7-2.8l7.3,0c1.5,0,2.7,1.3,2.7,2.8V133.7z"/>
						<path class="st6" d="M127.2,132.6h-1.1c-2,0-3.6-1.6-3.6-3.6v-2c0-2,1.6-3.6,3.6-3.6h1.1c2,0,3.6,1.6,3.6,3.6v2
							C130.9,130.9,129.2,132.6,127.2,132.6z"/>
					</g>
				</g>
				<g>
					<g>
						<path class="st4" d="M34.1,204.6H21.5V191c0-1.6,1.2-2.8,2.7-2.8l7.3,0c1.5,0,2.7,1.3,2.7,2.8V204.6z"/>
						<path class="st6" d="M28.4,203.4h-1.1c-2,0-3.6-1.6-3.6-3.6v-2c0-2,1.6-3.6,3.6-3.6h1.1c2,0,3.6,1.6,3.6,3.6v2
							C32,201.8,30.4,203.4,28.4,203.4z"/>
					</g>
					<g>
						<path class="st4" d="M48.3,204.6H35.6V191c0-1.6,1.2-2.8,2.7-2.8l7.3,0c1.5,0,2.7,1.3,2.7,2.8V204.6z"/>
						<path class="st6" d="M42.6,203.4h-1.1c-2,0-3.6-1.6-3.6-3.6v-2c0-2,1.6-3.6,3.6-3.6h1.1c2,0,3.6,1.6,3.6,3.6v2
							C46.2,201.8,44.5,203.4,42.6,203.4z"/>
					</g>
					<g>
						<path class="st4" d="M62.5,204.6H49.8V191c0-1.6,1.2-2.8,2.7-2.8l7.3,0c1.5,0,2.7,1.3,2.7,2.8V204.6z"/>
						<path class="st6" d="M56.7,203.4h-1.1c-2,0-3.6-1.6-3.6-3.6v-2c0-2,1.6-3.6,3.6-3.6h1.1c2,0,3.6,1.6,3.6,3.6v2
							C60.4,201.8,58.7,203.4,56.7,203.4z"/>
					</g>
					<g>
						<path class="st4" d="M76.7,204.6H64V191c0-1.6,1.2-2.8,2.7-2.8l7.3,0c1.5,0,2.7,1.3,2.7,2.8V204.6z"/>
						<path class="st6" d="M70.9,203.4h-1.1c-2,0-3.6-1.6-3.6-3.6v-2c0-2,1.6-3.6,3.6-3.6h1.1c2,0,3.6,1.6,3.6,3.6v2
							C74.6,201.8,72.9,203.4,70.9,203.4z"/>
					</g>
					<g>
						<path class="st4" d="M90.9,204.6H78.2V191c0-1.6,1.2-2.8,2.7-2.8l7.3,0c1.5,0,2.7,1.3,2.7,2.8V204.6z"/>
						<path class="st6" d="M85.1,203.4H84c-2,0-3.6-1.6-3.6-3.6v-2c0-2,1.6-3.6,3.6-3.6h1.1c2,0,3.6,1.6,3.6,3.6v2
							C88.8,201.8,87.1,203.4,85.1,203.4z"/>
					</g>
					<g>
						<path class="st4" d="M105.1,204.6H92.4V191c0-1.6,1.2-2.8,2.7-2.8l7.3,0c1.5,0,2.7,1.3,2.7,2.8V204.6z"/>
						<path class="st6" d="M99.3,203.4h-1.1c-2,0-3.6-1.6-3.6-3.6v-2c0-2,1.6-3.6,3.6-3.6h1.1c2,0,3.6,1.6,3.6,3.6v2
							C103,201.8,101.3,203.4,99.3,203.4z"/>
					</g>
					<g>
						<path class="st4" d="M119.3,204.6h-12.7V191c0-1.6,1.2-2.8,2.7-2.8l7.3,0c1.5,0,2.7,1.3,2.7,2.8V204.6z"/>
						<path class="st6" d="M113.5,203.4h-1.1c-2,0-3.6-1.6-3.6-3.6v-2c0-2,1.6-3.6,3.6-3.6h1.1c2,0,3.6,1.6,3.6,3.6v2
							C117.1,201.8,115.5,203.4,113.5,203.4z"/>
					</g>
					<g>
						<path class="st4" d="M133.5,204.6h-12.7V191c0-1.6,1.2-2.8,2.7-2.8l7.3,0c1.5,0,2.7,1.3,2.7,2.8V204.6z"/>
						<path class="st6" d="M127.7,203.4h-1.1c-2,0-3.6-1.6-3.6-3.6v-2c0-2,1.6-3.6,3.6-3.6h1.1c2,0,3.6,1.6,3.6,3.6v2
							C131.3,201.8,129.7,203.4,127.7,203.4z"/>
					</g>
				</g>
				<g>
					<g>
						<rect x="19.9" y="82.8" class="st4" width="12.7" height="16.3"/>
						<ellipse class="st6" cx="26.3" cy="91.4" rx="4.5" ry="4.7"/>
					</g>
					<g>
						<rect x="34.2" y="82.8" class="st4" width="12.7" height="16.3"/>
						<ellipse class="st6" cx="40.5" cy="91.4" rx="4.5" ry="4.7"/>
					</g>
					<g>
						<rect x="48.4" y="82.8" class="st4" width="12.7" height="16.3"/>
						<ellipse class="st6" cx="54.7" cy="91.4" rx="4.5" ry="4.7"/>
					</g>
					<g>
						<rect x="62.6" y="82.8" class="st4" width="12.7" height="16.3"/>
						<ellipse class="st6" cx="69" cy="91.4" rx="4.5" ry="4.7"/>
					</g>
					<g>
						<rect x="76.9" y="82.8" class="st4" width="12.7" height="16.3"/>
						<ellipse class="st6" cx="83.2" cy="91.4" rx="4.5" ry="4.7"/>
					</g>
					<g>
						<rect x="91.1" y="82.8" class="st4" width="12.7" height="16.3"/>
						<ellipse class="st6" cx="97.4" cy="91.4" rx="4.5" ry="4.7"/>
					</g>
					<g>
						<rect x="105.3" y="82.8" class="st4" width="12.7" height="16.3"/>
						<ellipse class="st6" cx="111.7" cy="91.4" rx="4.5" ry="4.7"/>
					</g>
					<g>
						<rect x="119.6" y="82.8" class="st4" width="12.7" height="16.3"/>
						<ellipse class="st6" cx="125.9" cy="91.4" rx="4.5" ry="4.7"/>
					</g>
				</g>
				<g>
					<g>
						<rect x="21.5" y="151.8" class="st4" width="12.7" height="16.3"/>
						<ellipse class="st6" cx="27.8" cy="160.3" rx="4.5" ry="4.7"/>
					</g>
					<g>
						<rect x="35.7" y="151.8" class="st4" width="12.7" height="16.3"/>
						<ellipse class="st6" cx="42" cy="160.3" rx="4.5" ry="4.7"/>
					</g>
					<g>
						<rect x="49.9" y="151.8" class="st4" width="12.7" height="16.3"/>
						<ellipse class="st6" cx="56.3" cy="160.3" rx="4.5" ry="4.7"/>
					</g>
					<g>
						<rect x="64.2" y="151.8" class="st4" width="12.7" height="16.3"/>
						<ellipse class="st6" cx="70.5" cy="160.3" rx="4.5" ry="4.7"/>
					</g>
					<g>
						<rect x="78.4" y="151.8" class="st4" width="12.7" height="16.3"/>
						<ellipse class="st6" cx="84.7" cy="160.3" rx="4.5" ry="4.7"/>
					</g>
					<g>
						<rect x="92.6" y="151.8" class="st4" width="12.7" height="16.3"/>
						<ellipse class="st6" cx="99" cy="160.3" rx="4.5" ry="4.7"/>
					</g>
					<g>
						<rect x="106.9" y="151.8" class="st4" width="12.7" height="16.3"/>
						<ellipse class="st6" cx="113.2" cy="160.3" rx="4.5" ry="4.7"/>
					</g>
					<g>
						<rect x="121.1" y="151.8" class="st4" width="12.7" height="16.3"/>
						<ellipse class="st6" cx="127.4" cy="160.3" rx="4.5" ry="4.7"/>
					</g>
				</g>
			</g>
			<g>
				<rect x="335.3" y="59.8" class="st3" width="133.7" height="152.5"/>
				<rect x="342.1" y="67.6" class="st2" width="120" height="136.9"/>
				<rect x="338.8" y="133.6" class="st3" width="126.7" height="4.2"/>
				<rect x="338.8" y="168.1" class="st3" width="126.7" height="4.2"/>
				<rect x="338.8" y="99.1" class="st3" width="126.7" height="4.2"/>
				<g>
					<g>
						<path class="st4" d="M359.3,133.7h-12.7v-13.6c0-1.6,1.2-2.8,2.7-2.8l7.3,0c1.5,0,2.7,1.3,2.7,2.8V133.7z"/>
						<path class="st6" d="M353.5,132.6h-1.1c-2,0-3.6-1.6-3.6-3.6v-2c0-2,1.6-3.6,3.6-3.6h1.1c2,0,3.6,1.6,3.6,3.6v2
							C357.1,130.9,355.5,132.6,353.5,132.6z"/>
					</g>
					<g>
						<path class="st4" d="M373.5,133.7h-12.7v-13.6c0-1.6,1.2-2.8,2.7-2.8l7.3,0c1.5,0,2.7,1.3,2.7,2.8V133.7z"/>
						<path class="st6" d="M367.7,132.6h-1.1c-2,0-3.6-1.6-3.6-3.6v-2c0-2,1.6-3.6,3.6-3.6h1.1c2,0,3.6,1.6,3.6,3.6v2
							C371.3,130.9,369.7,132.6,367.7,132.6z"/>
					</g>
					<g>
						<path class="st4" d="M387.7,133.7H375v-13.6c0-1.6,1.2-2.8,2.7-2.8l7.3,0c1.5,0,2.7,1.3,2.7,2.8V133.7z"/>
						<path class="st6" d="M381.9,132.6h-1.1c-2,0-3.6-1.6-3.6-3.6v-2c0-2,1.6-3.6,3.6-3.6h1.1c2,0,3.6,1.6,3.6,3.6l0,2
							C385.5,130.9,383.9,132.6,381.9,132.6z"/>
					</g>
					<g>
						<path class="st4" d="M401.8,133.7h-12.7v-13.6c0-1.6,1.2-2.8,2.7-2.8l7.3,0c1.5,0,2.7,1.3,2.7,2.8V133.7z"/>
						<path class="st6" d="M396.1,132.6h-1.1c-2,0-3.6-1.6-3.6-3.6v-2c0-2,1.6-3.6,3.6-3.6h1.1c2,0,3.6,1.6,3.6,3.6v2
							C399.7,130.9,398.1,132.6,396.1,132.6z"/>
					</g>
					<g>
						<path class="st4" d="M416,133.7h-12.7v-13.6c0-1.6,1.2-2.8,2.7-2.8l7.3,0c1.5,0,2.7,1.3,2.7,2.8V133.7z"/>
						<path class="st6" d="M410.3,132.6h-1.1c-2,0-3.6-1.6-3.6-3.6v-2c0-2,1.6-3.6,3.6-3.6h1.1c2,0,3.6,1.6,3.6,3.6v2
							C413.9,130.9,412.3,132.6,410.3,132.6z"/>
					</g>
					<g>
						<path class="st4" d="M430.2,133.7h-12.7v-13.6c0-1.6,1.2-2.8,2.7-2.8l7.3,0c1.5,0,2.7,1.3,2.7,2.8V133.7z"/>
						<path class="st6" d="M424.5,132.6h-1.1c-2,0-3.6-1.6-3.6-3.6v-2c0-2,1.6-3.6,3.6-3.6h1.1c2,0,3.6,1.6,3.6,3.6v2
							C428.1,130.9,426.5,132.6,424.5,132.6z"/>
					</g>
					<g>
						<path class="st4" d="M444.4,133.7h-12.7v-13.6c0-1.6,1.2-2.8,2.7-2.8l7.3,0c1.5,0,2.7,1.3,2.7,2.8V133.7z"/>
						<path class="st6" d="M438.7,132.6h-1.1c-2,0-3.6-1.6-3.6-3.6v-2c0-2,1.6-3.6,3.6-3.6h1.1c2,0,3.6,1.6,3.6,3.6v2
							C442.3,130.9,440.7,132.6,438.7,132.6z"/>
					</g>
					<g>
						<path class="st4" d="M458.6,133.7H446v-13.6c0-1.6,1.2-2.8,2.7-2.8l7.3,0c1.5,0,2.7,1.3,2.7,2.8V133.7z"/>
						<path class="st6" d="M452.9,132.6h-1.1c-2,0-3.6-1.6-3.6-3.6v-2c0-2,1.6-3.6,3.6-3.6h1.1c2,0,3.6,1.6,3.6,3.6v2
							C456.5,130.9,454.8,132.6,452.9,132.6z"/>
					</g>
				</g>
				<g>
					<g>
						<path class="st4" d="M359.7,204.6h-12.7V191c0-1.6,1.2-2.8,2.7-2.8l7.3,0c1.5,0,2.7,1.3,2.7,2.8V204.6z"/>
						<path class="st6" d="M354,203.4h-1.1c-2,0-3.6-1.6-3.6-3.6v-2c0-2,1.6-3.6,3.6-3.6h1.1c2,0,3.6,1.6,3.6,3.6v2
							C357.6,201.8,356,203.4,354,203.4z"/>
					</g>
					<g>
						<path class="st4" d="M373.9,204.6h-12.7V191c0-1.6,1.2-2.8,2.7-2.8l7.3,0c1.5,0,2.7,1.3,2.7,2.8V204.6z"/>
						<path class="st6" d="M368.2,203.4H367c-2,0-3.6-1.6-3.6-3.6v-2c0-2,1.6-3.6,3.6-3.6h1.1c2,0,3.6,1.6,3.6,3.6v2
							C371.8,201.8,370.2,203.4,368.2,203.4z"/>
					</g>
					<g>
						<path class="st4" d="M388.1,204.6h-12.7V191c0-1.6,1.2-2.8,2.7-2.8l7.3,0c1.5,0,2.7,1.3,2.7,2.8V204.6z"/>
						<path class="st6" d="M382.4,203.4h-1.1c-2,0-3.6-1.6-3.6-3.6v-2c0-2,1.6-3.6,3.6-3.6h1.1c2,0,3.6,1.6,3.6,3.6v2
							C386,201.8,384.3,203.4,382.4,203.4z"/>
					</g>
					<g>
						<path class="st4" d="M402.3,204.6h-12.7V191c0-1.6,1.2-2.8,2.7-2.8l7.3,0c1.5,0,2.7,1.3,2.7,2.8V204.6z"/>
						<path class="st6" d="M396.5,203.4h-1.1c-2,0-3.6-1.6-3.6-3.6v-2c0-2,1.6-3.6,3.6-3.6h1.1c2,0,3.6,1.6,3.6,3.6v2
							C400.2,201.8,398.5,203.4,396.5,203.4z"/>
					</g>
					<g>
						<path class="st4" d="M416.5,204.6h-12.7V191c0-1.6,1.2-2.8,2.7-2.8l7.3,0c1.5,0,2.7,1.3,2.7,2.8V204.6z"/>
						<path class="st6" d="M410.7,203.4h-1.1c-2,0-3.6-1.6-3.6-3.6v-2c0-2,1.6-3.6,3.6-3.6h1.1c2,0,3.6,1.6,3.6,3.6v2
							C414.4,201.8,412.7,203.4,410.7,203.4z"/>
					</g>
					<g>
						<path class="st4" d="M430.7,204.6H418V191c0-1.6,1.2-2.8,2.7-2.8l7.3,0c1.5,0,2.7,1.3,2.7,2.8V204.6z"/>
						<path class="st6" d="M424.9,203.4h-1.1c-2,0-3.6-1.6-3.6-3.6v-2c0-2,1.6-3.6,3.6-3.6h1.1c2,0,3.6,1.6,3.6,3.6v2
							C428.6,201.8,426.9,203.4,424.9,203.4z"/>
					</g>
					<g>
						<path class="st4" d="M444.9,204.6h-12.7V191c0-1.6,1.2-2.8,2.7-2.8l7.3,0c1.5,0,2.7,1.3,2.7,2.8V204.6z"/>
						<path class="st6" d="M439.1,203.4H438c-2,0-3.6-1.6-3.6-3.6v-2c0-2,1.6-3.6,3.6-3.6h1.1c2,0,3.6,1.6,3.6,3.6v2
							C442.8,201.8,441.1,203.4,439.1,203.4z"/>
					</g>
					<g>
						<path class="st4" d="M459.1,204.6h-12.7V191c0-1.6,1.2-2.8,2.7-2.8l7.3,0c1.5,0,2.7,1.3,2.7,2.8V204.6z"/>
						<path class="st6" d="M453.3,203.4h-1.1c-2,0-3.6-1.6-3.6-3.6v-2c0-2,1.6-3.6,3.6-3.6h1.1c2,0,3.6,1.6,3.6,3.6v2
							C456.9,201.8,455.3,203.4,453.3,203.4z"/>
					</g>
				</g>
				<g>
					<g>
						<rect x="345.5" y="82.8" class="st4" width="12.7" height="16.3"/>
						<ellipse class="st6" cx="351.9" cy="91.4" rx="4.5" ry="4.7"/>
					</g>
					<g>
						<rect x="359.8" y="82.8" class="st4" width="12.7" height="16.3"/>
						<ellipse class="st6" cx="366.1" cy="91.4" rx="4.5" ry="4.7"/>
					</g>
					<g>
						<rect x="374" y="82.8" class="st4" width="12.7" height="16.3"/>
						<ellipse class="st6" cx="380.3" cy="91.4" rx="4.5" ry="4.7"/>
					</g>
					<g>
						<rect x="388.2" y="82.8" class="st4" width="12.7" height="16.3"/>
						<ellipse class="st6" cx="394.6" cy="91.4" rx="4.5" ry="4.7"/>
					</g>
					<g>
						<rect x="402.5" y="82.8" class="st4" width="12.7" height="16.3"/>
						<ellipse class="st6" cx="408.8" cy="91.4" rx="4.5" ry="4.7"/>
					</g>
					<g>
						<rect x="416.7" y="82.8" class="st4" width="12.7" height="16.3"/>
						<ellipse class="st6" cx="423" cy="91.4" rx="4.5" ry="4.7"/>
					</g>
					<g>
						<rect x="430.9" y="82.8" class="st4" width="12.7" height="16.3"/>
						<ellipse class="st6" cx="437.3" cy="91.4" rx="4.5" ry="4.7"/>
					</g>
					<g>
						<rect x="445.2" y="82.8" class="st4" width="12.7" height="16.3"/>
						<ellipse class="st6" cx="451.5" cy="91.4" rx="4.5" ry="4.7"/>
					</g>
				</g>
				<g>
					<g>
						<rect x="347.1" y="151.8" class="st4" width="12.7" height="16.3"/>
						<ellipse class="st6" cx="353.4" cy="160.3" rx="4.5" ry="4.7"/>
					</g>
					<g>
						<rect x="361.3" y="151.8" class="st4" width="12.7" height="16.3"/>
						<ellipse class="st6" cx="367.6" cy="160.3" rx="4.5" ry="4.7"/>
					</g>
					<g>
						<rect x="375.5" y="151.8" class="st4" width="12.7" height="16.3"/>
						<ellipse class="st6" cx="381.9" cy="160.3" rx="4.5" ry="4.7"/>
					</g>
					<g>
						<rect x="389.8" y="151.8" class="st4" width="12.7" height="16.3"/>
						<ellipse class="st6" cx="396.1" cy="160.3" rx="4.5" ry="4.7"/>
					</g>
					<g>
						<rect x="404" y="151.8" class="st4" width="12.7" height="16.3"/>
						<ellipse class="st6" cx="410.3" cy="160.3" rx="4.5" ry="4.7"/>
					</g>
					<g>
						<rect x="418.2" y="151.8" class="st4" width="12.7" height="16.3"/>
						<ellipse class="st6" cx="424.6" cy="160.3" rx="4.5" ry="4.7"/>
					</g>
					<g>
						<rect x="432.5" y="151.8" class="st4" width="12.7" height="16.3"/>
						<ellipse class="st6" cx="438.8" cy="160.3" rx="4.5" ry="4.7"/>
					</g>
					<g>
						<rect x="446.7" y="151.8" class="st4" width="12.7" height="16.3"/>
						<ellipse class="st6" cx="453" cy="160.3" rx="4.5" ry="4.7"/>
					</g>
				</g>
			</g>
			<g>
				<rect x="167.6" y="19.6" class="st7" width="145.5" height="31"/>
				<g>
					<g>
						<path class="st8" d="M309.6,47.7h-139V22.5h139V47.7z M171.6,46.7h137V23.6h-137V46.7z"/>
					</g>
					<rect x="180.3" y="-40.9" class="st8" width="5.5" height="63.6"/>
					<rect x="295.3" y="-40.9" class="st8" width="5.5" height="63.6"/>
					<g>
						<path class="st9" d="M194.4,39.4c-0.6-0.2-1.1-0.4-1.5-0.7l0.7-1.7c0.4,0.2,0.8,0.4,1.2,0.6c0.5,0.2,0.9,0.2,1.4,0.2
							c0.9,0,1.3-0.2,1.3-0.7c0-0.2-0.1-0.4-0.4-0.5c-0.2-0.1-0.6-0.2-1.2-0.4c-0.6-0.1-1.1-0.3-1.5-0.4c-0.4-0.2-0.7-0.4-1-0.7
							c-0.3-0.3-0.4-0.8-0.4-1.4c0-0.5,0.1-1,0.4-1.4c0.3-0.4,0.7-0.7,1.2-1c0.5-0.2,1.2-0.4,1.9-0.4c0.5,0,1,0.1,1.6,0.2
							c0.5,0.1,1,0.3,1.3,0.5l-0.7,1.7c-0.8-0.4-1.5-0.6-2.2-0.6c-0.4,0-0.8,0.1-1,0.2c-0.2,0.1-0.3,0.3-0.3,0.5
							c0,0.2,0.1,0.4,0.4,0.5c0.2,0.1,0.6,0.2,1.2,0.3c0.6,0.1,1.1,0.3,1.5,0.4c0.4,0.2,0.7,0.4,1,0.7c0.3,0.3,0.4,0.8,0.4,1.4
							c0,0.5-0.1,1-0.4,1.4c-0.3,0.4-0.7,0.7-1.2,1c-0.5,0.2-1.2,0.4-1.9,0.4C195.7,39.6,195,39.5,194.4,39.4z"/>
						<path class="st9" d="M201.8,38.6c-0.7-0.7-1-1.6-1-2.9v-4.6h2.3v4.5c0,1.3,0.5,2,1.5,2c1,0,1.5-0.7,1.5-2v-4.5h2.2v4.6
							c0,1.2-0.3,2.2-1,2.9c-0.7,0.7-1.6,1-2.8,1C203.4,39.6,202.5,39.3,201.8,38.6z"/>
						<path class="st9" d="M215.4,31.5c0.5,0.2,0.9,0.6,1.2,1.1c0.3,0.5,0.4,1,0.4,1.6c0,0.6-0.1,1.2-0.4,1.6
							c-0.3,0.5-0.7,0.8-1.2,1.1c-0.5,0.2-1.2,0.4-1.9,0.4h-1.4v2.2h-2.3v-8.3h3.7C214.2,31.1,214.9,31.2,215.4,31.5z M214.4,35.1
							c0.2-0.2,0.4-0.5,0.4-0.9c0-0.4-0.1-0.7-0.4-0.9c-0.2-0.2-0.6-0.3-1.1-0.3h-1.3v2.4h1.3C213.8,35.4,214.2,35.3,214.4,35.1z"/>
						<path class="st9" d="M224.6,37.6v1.8h-6.4v-8.3h6.3v1.8h-4v1.4h3.5v1.8h-3.5v1.5H224.6z"/>
						<path class="st9" d="M229.3,37.2h-1.2v2.2h-2.3v-8.3h3.7c0.7,0,1.4,0.1,1.9,0.4c0.5,0.2,0.9,0.6,1.2,1.1
							c0.3,0.5,0.4,1,0.4,1.6c0,0.6-0.1,1.1-0.4,1.6c-0.3,0.4-0.7,0.8-1.2,1.1l1.7,2.6h-2.4L229.3,37.2z M230.4,33.3
							c-0.2-0.2-0.6-0.3-1.1-0.3h-1.3v2.4h1.3c0.5,0,0.8-0.1,1.1-0.3c0.2-0.2,0.4-0.5,0.4-0.9C230.8,33.8,230.6,33.5,230.4,33.3z"/>
						<path class="st9" d="M241.5,39.4l0-4.4l-2.1,3.6h-1l-2-3.5v4.3h-2.1v-8.3h1.9l2.8,4.8l2.7-4.8h1.9l0,8.3H241.5z"/>
						<path class="st9" d="M250.5,37.8h-3.4l-0.6,1.6h-2.3l3.5-8.3h2.2l3.5,8.3h-2.4L250.5,37.8z M249.9,36.1l-1-2.7l-1,2.7H249.9z"
							/>
						<path class="st9" d="M257.6,37.2h-1.2v2.2h-2.3v-8.3h3.7c0.7,0,1.4,0.1,1.9,0.4c0.5,0.2,0.9,0.6,1.2,1.1
							c0.3,0.5,0.4,1,0.4,1.6c0,0.6-0.1,1.1-0.4,1.6c-0.3,0.4-0.7,0.8-1.2,1.1l1.7,2.6h-2.4L257.6,37.2z M258.7,33.3
							c-0.2-0.2-0.6-0.3-1.1-0.3h-1.3v2.4h1.3c0.5,0,0.8-0.1,1.1-0.3c0.2-0.2,0.4-0.5,0.4-0.9C259.1,33.8,258.9,33.5,258.7,33.3z"/>
						<path class="st9" d="M265.7,36.4l-0.8,0.9v2.1h-2.2v-8.3h2.2v3.5l3.1-3.5h2.5l-3.3,3.7l3.4,4.6H268L265.7,36.4z"/>
						<path class="st9" d="M277.6,37.6v1.8h-6.4v-8.3h6.3v1.8h-4v1.4h3.6v1.8h-3.6v1.5H277.6z"/>
						<path class="st9" d="M280.5,33h-2.5v-1.9h7.2V33h-2.4v6.5h-2.3V33z"/>
					</g>
				</g>
			</g>
			<g>
				<path class="st10" d="M107.7,28.8H45.3c-2.8,0-5-2.4-5-5.2l0,0c0-2.9,2.3-5.2,5-5.2h62.4c2.8,0,5,2.4,5,5.2l0,0
					C112.7,26.4,110.5,28.8,107.7,28.8z"/>
				<path class="st11" d="M113,23.5H41.5c-2.4,0-4.4-2-4.4-4.4v-1.8c0-2.4,2-4.4,4.4-4.4H113c2.4,0,4.4,2,4.4,4.4v1.8
					C117.4,21.5,115.4,23.5,113,23.5z"/>
				<rect x="43.9" y="-10.7" class="st11" width="2.6" height="26.9"/>
				<rect x="108.8" y="-10.3" class="st11" width="2.6" height="26.9"/>
			</g>
			<g>
				<path class="st10" d="M430.6,28.8h-62.4c-2.8,0-5-2.4-5-5.2l0,0c0-2.9,2.3-5.2,5-5.2h62.4c2.8,0,5,2.4,5,5.2l0,0
					C435.7,26.4,433.4,28.8,430.6,28.8z"/>
				<path class="st11" d="M436,23.5h-71.6c-2.4,0-4.4-2-4.4-4.4v-1.8c0-2.4,2-4.4,4.4-4.4H436c2.4,0,4.4,2,4.4,4.4v1.8
					C440.3,21.5,438.4,23.5,436,23.5z"/>
				<rect x="366.8" y="-10.7" class="st11" width="2.6" height="26.9"/>
				<rect x="431.7" y="-10.3" class="st11" width="2.6" height="26.9"/>
			</g>
		</g>
	</g>
</g>
<g id="Слой_4">
	<g>
		<ellipse class="st2" cx="77.7" cy="292.9" rx="48.4" ry="13.9"/>
	</g>
	<g>
		<ellipse class="st2" cx="363.8" cy="287.8" rx="53.8" ry="13.9"/>
	</g>
	<g>
		<ellipse class="st2" cx="215.5" cy="282.7" rx="63.2" ry="13.9"/>
	</g>
	<g>
		<g>
			<g>
				<polygon class="st12" points="293.2,213.6 300.3,213.5 300.1,220.7 292.6,220.8 				"/>
			</g>
			<g>
				<path class="st9" d="M278.2,214.8c0,0,3.4,1.6,5.6,0.9c2.1-0.6,4.5-2.5,9.5-2l-0.3,7.4c0,0,0.9,4.6,2.5,5.7
					c2.4,1.7,5.9,6,3.1,14.7c0,0-8.9-0.9-11-6.1c-2-5.2-3.9-10.4-9.9-9.8L278.2,214.8z"/>
			</g>
		</g>
		<g>
			<path class="st13" d="M219.2,140.5c0,0,26.1,58.1,62.2,65l-4.4,34.6c0,0-53.3-9.6-67.8-56.1l1.8,71.4l-36,9.6
				c0,0,2.1-94.8,14.6-117.6L219.2,140.5z"/>
		</g>
		<g id="u">
			<path id="Paintable_3_" class="st14" d="M206.8,103.4c0.4-0.1,14.3,2,14.3,2l8.2,34.4l-39.6,7.7l0.9-36.8L206.8,103.4z"/>
		</g>
		<g>
			<path class="st15" d="M198.7,73c0.1-0.1,3.4-2,8-0.9c4.5,1.2,10.4,4.7,13.3,8.7c2.9,4,7.4,9,6.9,14.3c-0.5,5.3-8.4,7.8-11.7,7.7
				c-3.4-0.1-17.7,1.5-20.9,1.8c-3.2,0.3-10.5-0.1-11.3-0.9c-0.9-0.8,0.1-1.9,2-4.1s1.3-2.4,1.3-2.4s-2.8,0.9-3-0.1
				c-0.3-1,3.6-2.7,4.6-5.4C188.9,89,191.7,77.5,198.7,73z"/>
		</g>
		<g>
			<path class="st7" d="M209.1,103.1c0,0-1.7,0.3-0.3,9.9c1.4,9.6,14,40.1,14,40.1l-2.1,4.5l6.1,8.8l2.4-2.2l22.9,38.3l25.7-18.3
				c0,0-40.8-75.1-46.9-78.3C224.7,102.6,209.1,103.1,209.1,103.1z"/>
		</g>
		<g>
			<path class="st7" d="M202.8,104.3c0.1,0-5.8,36.7-5.7,46.7c0.1,10-7.3,46.7-11.4,52.6c0,0-13.3-1.3-15.6-1.4l6.3-33l-6.3-2.7
				c0,0,7.8-41.9,11-48.1C184.2,112.1,188.8,106.1,202.8,104.3z"/>
		</g>
		<g>
			<path class="st16" d="M173.9,182.4c0,0-2.3-0.8-0.8-7c0,0-2.5,0.1-0.7-8l4,1.7L173.9,182.4z"/>
		</g>
		<g>
			<g>
				<path class="st12" d="M223.1,153.6l-0.9-0.3c0.1-0.2,5.4-16.9,6.3-21.7l0.9,0.2C228.5,136.7,223.4,152.9,223.1,153.6z"/>
			</g>
			<g>
				<path class="st12" d="M227.7,166.2l-0.7-0.7c0.1-0.1,9.9-10.2,15.3-26.1l0.9,0.3C237.8,155.8,227.8,166.1,227.7,166.2z"/>
			</g>
			<g>
				<polygon class="st12" points="176.3,172.2 175.4,172 185.2,125.2 186.1,125.4 				"/>
			</g>
		</g>
		<g>
			<ellipse class="st16" cx="203.1" cy="89.5" rx="8.8" ry="9.5"/>
		</g>
		<g>
			<path class="st17" d="M209.2,93.8c0.1,0.4,0.8,7,1.3,11.6c0.3,2.5-1.3,4.7-3.6,5.2h0c-2.6,0.5-5.1-1.4-5.4-4.1l-1.2-11.5
				L209.2,93.8z"/>
		</g>
		<g>
			<g>
				<polygon class="st12" points="207.8,272.1 210,279 203.4,281.1 201,273.7 				"/>
			</g>
			<g>
				<path class="st9" d="M202,257.6c0,0-0.4,3.9,0.9,5.8c1.2,1.9,3.7,3.7,4.7,8.8l-6.8,2c0,0-3.9,2.3-4.4,4.2
					c-0.8,2.9-3.7,7.7-12.5,7.7c0,0-1.9-9.1,2.1-12.8c4.1-3.6,8.3-7.1,5.9-12.9L202,257.6z"/>
			</g>
		</g>
		<g>
			<path class="st9" d="M224.1,149.1c0,0-2.9,3.8,9,11.1v-1.4l2-3.2c0,0,1.3,1.2,1.5,2.8c0,0,10.6,3.6,14.5,11c3.9,7.4-1,13-8.1,15
				c-7.2,2-13.7-3.2-14.1-9.2c-0.3-6,1.7-12.6,1.7-12.6s-9.1-2.8-10.2-7.2C219.5,150.8,220.5,149.3,224.1,149.1z"/>
		</g>
		<g>
			<path class="st12" d="M232.7,163.9c-2,0-4.7-1.6-6.5-2.8c-0.6-0.3-1.2-0.7-1.4-0.8c0,0,0.1,0,0.2,0l-0.3-0.9c0.3-0.1,0.7,0,2,0.9
				c1.7,1.1,5,3.1,6.7,2.5c0,0,0.1,0,0.1,0c-0.7-0.4-1.2-0.8-1.5-1.2c-0.2-0.3-0.3-0.8,0.1-1.2c0.6-0.6,2-1.1,2.9-0.5
				c0.4,0.3,0.8,1,0.2,2.4c0.2,0,0.4,0,0.5-0.1c1.1-0.3,1.9-1.9,2.1-4.6l0.9,0.1c-0.3,3.2-1.2,5-2.8,5.5c-0.4,0.1-0.9,0.1-1.4,0
				c-0.3,0.3-0.6,0.4-0.9,0.6C233.3,163.9,233,163.9,232.7,163.9z M232.7,161.1c0.2,0.3,0.8,0.8,1.5,1c0.4-0.9,0.3-1.3,0.3-1.3
				c-0.1-0.1-0.4-0.2-0.7-0.2C233.2,160.7,232.8,160.9,232.7,161.1z"/>
		</g>
		<g>
			<path class="st12" d="M228.5,160c-6-3-7-8-7.1-8.2l0.9-0.2c0,0,1,4.7,6.5,7.5L228.5,160z"/>
		</g>
		<g>
			<path class="st12" d="M235.3,179.8c-4-4.9-2.2-11.4-2.2-11.7l0.9,0.3l-0.4-0.1l0.4,0.1c0,0.1-1.7,6.3,2,10.8L235.3,179.8z"/>
		</g>
		<g>
			<path class="st12" d="M248.7,174.9c-0.3-4.4-5.8-8.6-5.9-8.7l0.6-0.8c0.2,0.2,5.9,4.6,6.3,9.4L248.7,174.9z"/>
		</g>
		<g>
			<path class="st12" d="M242.5,180.9c-3-1.9-3.9-9-4-9.3l0.9-0.1c0,0.1,0.9,7,3.5,8.6L242.5,180.9z"/>
		</g>
		<g>
			<path class="st12" d="M214.9,197.1c-0.1-0.1-2.7-3.3-5.3-10.2c-2.4-6.3-5.1-17.1-4.9-32.4l0.9,0c-0.2,15.2,2.5,25.8,4.8,32
				c2.5,6.8,5.1,10,5.2,10L214.9,197.1z"/>
		</g>
		<g>
			<defs>
				<path id="SVGID_3_" d="M212,89.8l-1-0.2c0,0-9-3.6-16.6,1.2c0,0-0.5,5.5,4.3,7.6c4.7,2.1,10.5-0.5,11.7-1.7
					C211.6,95.6,212,89.8,212,89.8z"/>
			</defs>
			<use xlink:href="#SVGID_3_"  style="overflow:visible;fill:#38293C;"/>
			<clipPath id="SVGID_4_">
				<use xlink:href="#SVGID_3_"  style="overflow:visible;"/>
			</clipPath>
			<g class="st18">
				<g>
					<path class="st9" d="M200.9,87.5c-2.7,0-2.7,4.4,0,4.4C203.6,91.8,203.6,87.5,200.9,87.5z"/>
				</g>
				<g>
					<path class="st9" d="M195.7,93c-2.7,0-2.7,4.4,0,4.4C198.4,97.4,198.4,93,195.7,93z"/>
				</g>
				<g>
					<path class="st9" d="M204.4,93.5c-2.7,0-2.7,4.4,0,4.4C207.1,97.9,207.1,93.5,204.4,93.5z"/>
				</g>
				<g>
					<path class="st9" d="M211.2,88.3c-0.1-0.3-0.2-0.5-0.4-0.7c-0.2-0.2-0.4-0.4-0.7-0.5c-0.3-0.1-0.5-0.2-0.8-0.2
						c-0.2,0-0.4,0.1-0.6,0.1c-0.4,0.1-0.7,0.3-0.9,0.6c-0.1,0.1-0.2,0.3-0.3,0.4c-0.2,0.3-0.3,0.7-0.3,1.1v0.1c0,0.3,0,0.6,0.2,0.8
						c0.1,0.3,0.2,0.5,0.4,0.7c0.2,0.2,0.4,0.4,0.7,0.5c0.3,0.1,0.5,0.2,0.8,0.2c0.2,0,0.4-0.1,0.6-0.1c0.4-0.1,0.7-0.3,0.9-0.6
						c0.1-0.1,0.2-0.3,0.3-0.4c0.2-0.3,0.3-0.7,0.3-1.1v-0.1C211.4,88.8,211.3,88.6,211.2,88.3z"/>
				</g>
				<g>
					<path class="st9" d="M211.1,93.9c-2.7,0-2.7,4.4,0,4.4C213.8,98.3,213.8,93.9,211.1,93.9z"/>
				</g>
				<g>
					<path class="st9" d="M201.6,99.6c-0.1-0.3-0.2-0.5-0.4-0.7c-0.2-0.2-0.4-0.4-0.7-0.5c-0.3-0.1-0.5-0.2-0.8-0.2
						c-0.2,0-0.4,0.1-0.6,0.1c-0.4,0.1-0.7,0.3-0.9,0.6c-0.1,0.1-0.2,0.3-0.3,0.4c-0.2,0.3-0.3,0.7-0.3,1.1v0.1c0,0.3,0,0.6,0.2,0.8
						c0.1,0.3,0.2,0.5,0.4,0.7c0.2,0.2,0.4,0.4,0.7,0.5c0.3,0.1,0.5,0.2,0.8,0.2c0.2,0,0.4-0.1,0.6-0.1c0.4-0.1,0.7-0.3,0.9-0.6
						c0.1-0.1,0.2-0.3,0.3-0.4c0.2-0.3,0.3-0.7,0.3-1.1v-0.1C201.8,100.2,201.7,99.9,201.6,99.6z"/>
				</g>
			</g>
		</g>
		<g>
			<path class="st15" d="M202.6,81.2c0,0,2.7,3.5,6.4,3.4c0,0,4.3,9.5-3.9,15.4l3.5-1.9l-1.7,2.4l1.1,0.4l-1,1.9
				c0,0,2.5,1.3,6.1,0.6c3.6-0.6,6.7-15.4,4.2-18.8c-2.6-3.3-10.7-9.5-10.7-9.5l-7.8-0.5l-5.8,9.4l-0.5,2.2c0,0,2.9,1.5,4.3-1.1
				C196.9,85.4,202.3,86.7,202.6,81.2z"/>
		</g>
		<g>
			<g>
				<path class="st12" d="M197.8,87.4c0.1,0.7-0.2,1.4-0.5,1.4c-0.4,0-0.7-0.5-0.8-1.3c-0.1-0.7,0.2-1.4,0.5-1.4
					C197.4,86.1,197.7,86.6,197.8,87.4z"/>
			</g>
			<g>
				<path class="st12" d="M198.4,85.6c-1.1-1.4-3,0.4-3,0.4L198.4,85.6z"/>
			</g>
		</g>
		<g>
			<g>
				<path class="st12" d="M207,86.8c0.1,0.7,0.4,1.3,0.8,1.3c0.4,0,0.6-0.7,0.5-1.4c-0.1-0.7-0.4-1.3-0.8-1.3
					C207.2,85.4,207,86.1,207,86.8z"/>
			</g>
			<g>
				<path class="st12" d="M209.2,85c0,0-2.2-1.4-3,0.2L209.2,85z"/>
			</g>
		</g>
	</g>
	<g>
		<g>
			<g>
				<rect x="354" y="256.8" class="st16" width="7.8" height="17.2"/>
			</g>
			<g>
				<path class="st13" d="M352,267.8c0,0,0.6,4.2-1.5,8.9s-5.3,8.6-5.2,14.2l11.5-2.8c0,0,2.1-11.7,2.1-10.5s0.6,10.7,0.6,10.7
					s3.9,0.3,3.9-0.2c0-0.6,0.1-22.7,0.1-22.7s-1.8-0.2-2.7,1.4s-0.8,5.2-2.4,4.4s-2.3-3.8-3.1-4.2C354.6,266.7,352,267.8,352,267.8
					z"/>
			</g>
			<g>
				<g>
					<path class="st12" d="M358.8,271.8c-1.5,0-2.2-1.4-2.8-2.6c-0.2-0.4-0.4-0.8-0.6-1.2c-0.8-1.3-3.1,0.1-3.1,0.2l-0.5-0.8
						c0.1-0.1,3.1-1.9,4.4,0.2c0.3,0.4,0.5,0.8,0.7,1.2c0.7,1.4,1.2,2.2,2.3,2l0.1,1C359.1,271.8,358.9,271.8,358.8,271.8z"/>
				</g>
				<g>
					<polygon class="st12" points="359.1,288.9 358.7,277.4 359.6,277.4 360,287.9 363.4,287.7 363.5,288.6 					"/>
				</g>
			</g>
		</g>
		<g>
			<g>
				
					<rect x="380.8" y="249" transform="matrix(-1 -1.224647e-16 1.224647e-16 -1 769.3313 521.8876)" class="st16" width="7.8" height="23.9"/>
			</g>
			<g>
				<path class="st13" d="M390.6,266.7c0,0-0.6,4.2,1.5,8.9s5.3,8.6,5.2,14.2l-11.5-2.8c0,0-2.1-11.7-2.1-10.5s-0.6,10.7-0.6,10.7
					s-3.9,0.3-3.9-0.2s-0.1-22.7-0.1-22.7s1.8-0.2,2.7,1.4c1,1.6,0.8,5.2,2.4,4.4s2.3-3.8,3.1-4.2
					C387.9,265.6,390.6,266.7,390.6,266.7z"/>
			</g>
			<g>
				<g>
					<path class="st12" d="M383.5,270.7c-1.3,0-1.8-2.8-1.9-4.1l0.9-0.1c0.2,1.7,0.7,3.2,1,3.2c0.5-0.1,1.5-1.4,2.2-2.6l0.8,0.5
						C386.3,268.1,384.8,270.6,383.5,270.7C383.6,270.7,383.5,270.7,383.5,270.7z"/>
				</g>
				<g>
					<polygon class="st12" points="395,289.8 386.1,287.6 385.7,287.3 383.9,279.8 383.5,287.3 382.5,287.3 383.2,276.6 
						384.1,276.5 386.5,286.8 395.2,288.9 					"/>
				</g>
			</g>
		</g>
		<g>
			<g>
				<defs>
					<path id="Paintable_4_" d="M344.5,169.2c0,0-2.9,23-3.7,35.1c-0.8,12.1-0.6,18-1.3,26.6c-0.7,8.6,0.8,15.8-1.6,21.9
						c-2.4,6.1,0.7,6.6,0.7,6.6s19.7,4.1,27.1,0c7.5-4.1,14.4-8.5,18.2-7.9c3.8,0.6,10,0.4,12.8-0.4c2.8-0.7,3.9-1.4,7.4-0.7
						c3.4,0.7,3.4-3.1,3.4-3.1s-5.6-15.9-5.9-21.9c-0.2-6-5.3-27.8-7.4-32.9c-2.1-5.1-7.6-25.5-7.6-25.5L344.5,169.2z"/>
				</defs>
				<use xlink:href="#Paintable_4_"  style="overflow:visible;fill:#D84B59;"/>
				<clipPath id="Paintable_1_">
					<use xlink:href="#Paintable_4_"  style="overflow:visible;"/>
				</clipPath>
				<g class="st19">
					<g>
						<path class="st20" d="M345,264.5c-0.3,0-0.6-0.3-0.6-0.6l-6.6-93.2c0-0.4,0.2-0.7,0.6-0.7c0.4,0,0.7,0.3,0.7,0.6l6.6,93.2
							C345.6,264.2,345.4,264.5,345,264.5C345,264.5,345,264.5,345,264.5z"/>
					</g>
					<g>
						<path class="st20" d="M355.4,271.1c-0.3,0-0.6-0.3-0.6-0.6c-0.1-1-7.2-103.8-7.5-106.1c0-0.4,0.2-0.7,0.6-0.7
							c0.4,0,0.7,0.2,0.7,0.6c0.2,2.3,7.2,101.9,7.5,106.1C356.1,270.7,355.8,271.1,355.4,271.1
							C355.4,271.1,355.4,271.1,355.4,271.1z"/>
					</g>
					<g>
						<path class="st20" d="M364.3,269.3c-0.3,0-0.6-0.3-0.6-0.6c-1.6-24.4-6.8-103.9-6.7-104.8c0.1-0.4,0.4-0.6,0.7-0.6
							c0.3,0.1,0.6,0.4,0.6,0.7c0,1.8,4.4,69.1,6.7,104.5C364.9,268.9,364.7,269.3,364.3,269.3C364.3,269.3,364.3,269.3,364.3,269.3
							z M358.2,164C358.2,164.1,358.2,164.1,358.2,164C358.2,164.1,358.2,164.1,358.2,164z"/>
					</g>
					<g>
						<path class="st20" d="M373.6,269.1c-0.1,0-0.1,0-0.2,0c-0.3-0.1-0.5-0.5-0.4-0.8c0.2-2.8-1.3-72.8-2.1-109.7
							c0-0.4,0.3-0.7,0.6-0.7c0,0,0,0,0,0c0.4,0,0.6,0.3,0.6,0.7c0,0.3,0.6,27.7,1.2,54.9c0.3,15.9,0.6,28.6,0.7,37.8
							c0.1,5.4,0.2,9.6,0.2,12.5c0.1,5.1,0.1,5.1-0.3,5.3C373.9,269,373.7,269.1,373.6,269.1z"/>
					</g>
					<g>
						<path class="st20" d="M384.8,271.6C384.8,271.6,384.8,271.6,384.8,271.6c-0.4,0-0.6-0.3-0.6-0.7l0.6-110.4
							c0-0.4,0.3-0.7,0.6-0.7c0,0,0,0,0,0c0.4,0,0.6,0.3,0.6,0.7l-0.6,110.4C385.5,271.3,385.2,271.6,384.8,271.6z"/>
					</g>
					<g>
						<path class="st20" d="M401.2,275.8c-0.4,0-0.6-0.3-0.6-0.7c-0.4-31.1-1.7-112.5-2.4-115.2c-0.1-0.4,0.1-0.7,0.4-0.8
							c0.3-0.1,0.7,0.1,0.8,0.5c0.9,3.3,2.4,111,2.4,115.6C401.8,275.5,401.5,275.8,401.2,275.8
							C401.2,275.8,401.2,275.8,401.2,275.8z"/>
					</g>
					<g>
						<path class="st20" d="M325.5,183c-0.3,0-0.6-0.2-0.6-0.6c0-0.4,0.2-0.7,0.6-0.8l81.4-11.7c0.4-0.1,0.7,0.2,0.7,0.6
							c0,0.4-0.2,0.7-0.6,0.8L325.5,183C325.6,183,325.6,183,325.5,183z"/>
					</g>
					<g>
						<path class="st20" d="M328.4,197.1c-0.3,0-0.6-0.2-0.6-0.6c-0.1-0.4,0.2-0.7,0.5-0.8c25.7-3.8,74.7-11.1,76.9-11.7
							c0.1,0,0.2-0.1,0.3-0.1c0.4,0,0.6,0.3,0.6,0.7c0,0.6-0.4,0.7-1.4,0.9c-0.6,0.1-1.4,0.2-2.5,0.4c-2,0.3-4.9,0.8-8.7,1.4
							c-6.4,1-15.3,2.3-26.5,4C348,194.2,328.7,197.1,328.4,197.1C328.5,197.1,328.4,197.1,328.4,197.1z M405,184.3
							c-0.1,0.1-0.1,0.2-0.1,0.4C404.9,184.6,404.9,184.4,405,184.3z"/>
					</g>
					<g>
						<path class="st20" d="M328.9,211.2c-0.3,0-0.6-0.3-0.6-0.6c0-0.4,0.2-0.7,0.6-0.7l73.8-7.3c0.4,0,0.7,0.2,0.7,0.6
							c0,0.4-0.2,0.7-0.6,0.7L328.9,211.2C328.9,211.2,328.9,211.2,328.9,211.2z"/>
					</g>
					<g>
						<path class="st20" d="M333.8,226.1c-0.3,0-0.6-0.3-0.6-0.6c0-0.4,0.2-0.7,0.6-0.7l72.6-7.8c0.4,0,0.7,0.2,0.7,0.6
							c0,0.4-0.2,0.7-0.6,0.7L333.8,226.1C333.9,226.1,333.8,226.1,333.8,226.1z"/>
					</g>
					<g>
						<path class="st20" d="M411.9,242.7C411.8,242.7,411.8,242.7,411.9,242.7l-77.3-4.7c-0.4,0-0.6-0.3-0.6-0.7
							c0-0.4,0.3-0.7,0.7-0.6l77.2,4.7c0.4,0,0.6,0.3,0.6,0.7C412.5,242.4,412.2,242.7,411.9,242.7z"/>
					</g>
					<g>
						<path class="st20" d="M408.3,256.7C408.3,256.7,408.3,256.7,408.3,256.7c-0.7,0-70.2-0.6-72.2-0.6c-0.4,0-0.6-0.3-0.6-0.7
							c0-0.4,0.3-0.7,0.6-0.7c1.9,0,71.5,0.6,72.2,0.6c0.4,0,0.6,0.3,0.6,0.7C408.9,256.4,408.6,256.7,408.3,256.7z"/>
					</g>
				</g>
			</g>
		</g>
		<g>
			<g>
				<path class="st12" d="M352.4,223.2c-0.8-14.7,3.1-54.6,3.2-55l0.9,0.1c0,0.4-4,40.2-3.2,54.9L352.4,223.2z"/>
			</g>
			<g>
				<path class="st12" d="M388.5,228.8l-0.9,0c0.3-13.7-10-60.6-10.1-61l0.9-0.2C378.5,168,388.8,215,388.5,228.8z"/>
			</g>
			<g>
				<path class="st12" d="M367.9,199.9l-0.9,0c0.2-4.3-0.2-31.7-0.2-32l0.9,0C367.8,168.1,368.1,195.6,367.9,199.9z"/>
			</g>
		</g>
		<g>
			<path class="st15" d="M365.6,74.9c0,0,1.7-0.6,3.8-0.1c2.1,0.4,6.4,2.9,7.4,4.2c1,1.3,1.7,3.3,3,4.7c1.3,1.4,4.1,3.7,4.8,4.9
				c0.7,1.3,2.1,3.5,1.9,7.8c-0.2,4.3,0.3,8.9,1.1,10.3s1.4,5,1.2,7.7c-0.1,2.7,0.4,2.6,0.6,4.7c0.2,2.1-0.2,4.9-0.2,4.9l-16.7-3.5
				c0,0-4.6-30.3-4.7-30.4S365.6,74.9,365.6,74.9z"/>
		</g>
		<g>
			<polygon class="st17" points="364.2,103.1 363.8,114 373.1,114 372.8,102.2 			"/>
		</g>
		<g>
			<defs>
				<path id="Paintable_5_" d="M362.1,110.3l14.2,0.2l-1.1,9.5c0,0,19,2.6,19.7,7.1c0.7,4.4-4.7,40.7-4.7,40.7l-52.2,2.9l-0.4-3.5
					c0,0-9.8-0.4-5.7-13.1c4.1-12.7,5.7-29,11.8-31c6.1-2,17.2-3.4,17.2-3.4L362.1,110.3z"/>
			</defs>
			<use xlink:href="#Paintable_5_"  style="overflow:visible;fill:#7096BD;"/>
			<clipPath id="Paintable_7_">
				<use xlink:href="#Paintable_5_"  style="overflow:visible;"/>
			</clipPath>
			<g class="st21">
				<g>
					<path class="st22" d="M381.6,113.7c-4.4,0-8.8-0.6-13.2-0.8c-4.5-0.2-9-0.1-13.5-0.1c-0.9,0-0.9,1.4,0,1.4
						c4.5,0,9-0.1,13.5,0.1c4.4,0.2,8.8,0.8,13.2,0.8C382.5,115.1,382.5,113.7,381.6,113.7z"/>
				</g>
				<g>
					<path class="st22" d="M385.9,117.2c-11.5,0-23.1-1-34.6-1.4c-0.9,0-0.9,1.4,0,1.4c11.5,0.4,23,1.4,34.6,1.4
						C386.7,118.6,386.7,117.2,385.9,117.2z"/>
				</g>
				<g>
					<path class="st22" d="M397.6,123.5c-4.2-0.1-8.3-0.8-12.5-0.7c-4.2,0.1-8.3,0.2-12.5,0.2c-8.5,0.1-17,0.3-25.5,0.2
						c-4.8-0.1-9.5-0.1-14.3,0.3c-0.8,0.1-0.9,1.5,0,1.4c8.4-0.7,16.8-0.2,25.2-0.3c8.4-0.1,16.9-0.2,25.3-0.4
						c2.3,0,4.6-0.1,6.9,0.1c2.3,0.2,4.6,0.5,6.9,0.5c0,0,0.1,0,0.2,0c0.1,0,0.2,0,0.3,0C398.5,125,398.5,123.6,397.6,123.5z"/>
				</g>
				<g>
					<path class="st22" d="M407.1,132.2c-10.1-0.1-20.1-1.2-30.2-2.2c-10.3-1-20.6-1.6-30.9-2.1c-5.9-0.3-11.9,0-17.8,0
						c-0.9,0-0.9,1.4,0,1.4c5.3,0,10.6-0.3,15.8-0.1c5.2,0.2,10.5,0.6,15.7,0.9c10.2,0.7,20.3,1.7,30.5,2.6
						c5.6,0.5,11.2,0.9,16.8,0.9C408,133.6,408,132.2,407.1,132.2z"/>
				</g>
				<g>
					<path class="st22" d="M408.2,137.8c-10.9,0-21.7-0.7-32.5-1.4c-10.9-0.6-21.7-1.1-32.6-1.4c-6.1-0.2-12.3-0.3-18.4-0.2
						c-0.9,0-0.9,1.4,0,1.4c21.7-0.2,43.5,1.3,65.2,2.4c5.8,0.3,11.7,0.5,17.5,0.6c0,0,0,0,0.1,0h0.8
						C409,139.2,409,137.8,408.2,137.8z"/>
				</g>
				<g>
					<path class="st22" d="M412.9,145.3c-5.3,0.1-10.6-0.7-16-1.1c-5.5-0.4-10.9-0.7-16.4-1c-11-0.5-22-0.5-32.9-0.5
						c-6.2,0-12.3,0-18.5,0c-0.9,0-0.9,1.4,0,1.4c22,0.1,43.9-0.2,65.9,1.4c6,0.4,11.9,1.4,17.9,1.3
						C413.7,146.7,413.7,145.3,412.9,145.3z"/>
				</g>
				<g>
					<path class="st22" d="M369.9,146.9c-6.7,0-13.4-0.4-20.1-0.5c-6.8,0-13.7,0.1-20.5,0.1c-0.9,0-0.9,1.4,0,1.4
						c6.8,0,13.7-0.1,20.5-0.1c6.7,0,13.4,0.4,20.1,0.5C370.8,148.3,370.8,146.9,369.9,146.9z"/>
				</g>
				<g>
					<path class="st22" d="M403.4,149.2c-6.4-0.8-12.8-1.1-19.3-1.2c-0.9,0-0.9,1.4,0,1.4c6.2,0.1,12.4,0.4,18.5,1.1
						c0.1,0,0.2,0.1,0.3,0.1c0.1,0,0.3,0,0.4,0C404.3,150.6,404.2,149.3,403.4,149.2z"/>
				</g>
				<g>
					<path class="st22" d="M347.4,150.1c-9.4-0.1-18.8-0.4-28.3-0.4c-0.9,0-0.9,1.4,0,1.4c9.4,0,18.8,0.3,28.3,0.4
						C348.2,151.5,348.2,150.1,347.4,150.1z"/>
				</g>
				<g>
					<path class="st22" d="M348.5,152.1c-1.9,0.3-3.7,0.9-5.6,1.3c-1.9,0.4-3.9,0.5-5.9,0.8c-3.9,0.4-7.7,0.9-11.5,1.6
						c-0.8,0.1-0.5,1.5,0.4,1.3c4-0.7,8-1.2,12-1.6c1.8-0.2,3.6-0.3,5.4-0.7c1.9-0.4,3.7-1,5.6-1.3
						C349.7,153.3,349.3,151.9,348.5,152.1z"/>
				</g>
				<g>
					<path class="st22" d="M381,148.4c-0.3,0.1-0.6,0.1-0.8,0.2c-0.2,0.1-0.3,0.2-0.4,0.3c-3,1.2-6.2,2-9.3,3.1
						c-3.4,1.2-6.8,2.5-10.3,3.4c-3.6,1-7.4,1.7-11.1,2.3c-3.8,0.7-7.5,1.2-11.3,1.6c-4.2,0.4-8.3,0.8-12.5,1.5
						c-0.8,0.1-0.5,1.5,0.4,1.3c7.5-1.3,15.2-1.6,22.7-2.9c3.7-0.6,7.5-1.3,11.2-2.2c3.6-0.9,7-2.2,10.5-3.4
						c3.8-1.3,7.8-2.2,11.5-3.9C382.3,149.3,381.7,148.2,381,148.4z"/>
				</g>
				<g>
					<path class="st22" d="M379.8,152.6c-1.6,1-3.6,1.4-5.4,1.9c-2,0.7-4.1,1.3-6.1,1.9c-4.3,1.2-8.7,2.3-13.1,3.3
						c-8.7,2-17.5,3.5-26.3,4.9c-0.8,0.1-0.5,1.5,0.4,1.3c9-1.5,17.9-3,26.8-5c4.4-1,8.7-2.1,13.1-3.3c2.2-0.6,4.4-1.3,6.5-2
						c1.7-0.5,3.4-0.8,4.9-1.8C381.2,153.3,380.5,152.1,379.8,152.6z"/>
				</g>
				<g>
					<path class="st22" d="M401.4,152.5c-1.6,0-3.2-0.4-4.8-0.7c-1.6-0.2-3.3-0.4-5-0.5c-3.5-0.2-7-0.3-10.4-0.3
						c-0.9,0-0.9,1.4,0,1.4c3.5,0,7,0,10.4,0.3c1.8,0.1,3.6,0.3,5.4,0.6c1.5,0.3,2.9,0.6,4.4,0.6
						C402.2,153.9,402.2,152.5,401.4,152.5z"/>
				</g>
				<g>
					<path class="st22" d="M397.5,154.7c-2.6-0.6-5.3-0.3-7.9-0.3c-3,0-5.9,0.1-8.9,0.1c-0.9,0-0.9,1.4,0,1.4c2.8,0,5.6-0.1,8.5-0.1
						c2.6,0,5.5-0.4,8,0.2C398,156.2,398.4,154.9,397.5,154.7z"/>
				</g>
				<g>
					<path class="st22" d="M409.3,161.1C409.3,161.1,409.3,161.1,409.3,161.1c-0.1-0.2-0.4-0.4-0.6-0.4c0,0,0,0-0.1,0
						c-2.5-0.5-5-0.5-7.5-0.7c-2.9-0.3-5.7-0.8-8.6-1.2c-2.8-0.4-5.5-0.6-8.3-1c-2.9-0.3-5.7-0.6-8.6-0.7c-0.9,0-0.9,1.4,0,1.4
						c2.7,0,5.5,0.3,8.2,0.6c2.9,0.3,5.7,0.6,8.6,1c2.7,0.4,5.4,0.8,8.1,1.1c2.5,0.3,5.1,0.2,7.6,0.7c0.1,0.1,0.2,0.1,0.4,0.1
						c0,0,0.1,0,0.1,0C409.2,162.2,409.6,161.7,409.3,161.1z"/>
				</g>
				<g>
					<path class="st22" d="M407.4,163.2c-6.4,0.7-12.9,0.2-19.3-0.4c-6.5-0.7-13-1.9-19.5-1.9c-0.9,0-0.9,1.4,0,1.4
						c6.5,0,13,1.3,19.5,1.9c6.4,0.7,12.9,1.1,19.3,0.4C408.2,164.5,408.2,163.1,407.4,163.2z"/>
				</g>
				<g>
					<path class="st22" d="M396.4,165.7c-4.1,0-8.2-0.6-12.4-0.7c-4.1-0.1-8.3,0.2-12.4,0.4c-4.1,0.2-8.3,0.3-12.4,0.7
						c-4,0.5-7.9,1.4-11.9,1.8c-2.3,0.2-4.6,0.3-6.8,0.6c-2.3,0.3-4.6,0.6-6.9,0.6c-0.9,0-0.9,1.4,0,1.4c4-0.1,8-0.8,12-1.1
						c4-0.3,7.8-1.1,11.8-1.7c4.2-0.6,8.4-0.6,12.6-0.9c4.1-0.3,8.2-0.5,12.4-0.5c4.7,0,9.4,0.7,14.1,0.7
						C397.3,167.1,397.3,165.7,396.4,165.7z"/>
				</g>
			</g>
		</g>
		<g>
			<ellipse class="st16" cx="368.3" cy="93.3" rx="10" ry="11.8"/>
		</g>
		<g>
			<path class="st16" d="M376.9,98.5c6.6,0.6,6.2-3.4,5.6-5.6c-0.7-2.2-4.7-1.3-4.7-1.3L376.9,98.5z"/>
		</g>
		<g>
			<path class="st12" d="M379.6,165.6c-5.4,0-14.6-2.6-15-2.8l0.3-0.9c0.1,0,10.9,3.1,15.9,2.7c0.9-0.1,1.7-0.1,2.5-0.1
				c0.1,0,0.1,0,0.2,0c3.7,0,6.4-0.2,8-9.3l0.9,0.2c-1.8,10.2-5.2,10.2-9.1,10.1c-0.8,0-1.6,0-2.5,0.1
				C380.5,165.6,380.1,165.6,379.6,165.6z"/>
		</g>
		<g>
			<path class="st16" d="M378.4,145.7c0,0,2.6-9.9,3.9-9.9c1.3,0,1.2,2,1.2,2s2.6-1.6,3.3,0.2c0.7,1.8-2.3,13.8-7.7,17.7
				L378.4,145.7z"/>
		</g>
		<g>
			<g>
				<path class="st16" d="M345.8,154.5c0,0-0.9-7.4-0.5-8s0.6-2.3,1.1-2.6c0.5-0.2,0.7-2.4,1.7-2.6c1-0.2,2.6,2.6,2.6,2.6
					s1.6,0.4,2,1c0.4,0.6,2.1,7.3,2.1,7.3L345.8,154.5z"/>
			</g>
			<g>
				<polygon class="st12" points="346.1,150.2 345.4,145.5 346.3,145.4 347,150.1 				"/>
			</g>
			<g>
				<polygon class="st12" points="348.3,150.3 346.9,141.9 347.8,141.7 349.2,150.1 				"/>
			</g>
			<g>
				<polygon class="st12" points="350.8,149.3 350,143.5 350.9,143.4 351.8,149.2 				"/>
			</g>
		</g>
		<g>
			<g>
				<polygon class="st12" points="381.2,146.5 380.3,146.2 382.9,136.4 383.8,136.7 				"/>
			</g>
			<g>
				<polygon class="st12" points="382.2,148.8 381.3,148.5 385.3,137.1 386.2,137.4 				"/>
			</g>
			<g>
				<path class="st12" d="M382.7,152.3l-0.8-0.4c0.9-1.8,2.9-6.1,3.4-6.5l0.7,0.7l0,0C385.5,146.4,383.8,149.9,382.7,152.3z"/>
			</g>
		</g>
		<g>
			<g>
				<path class="st12" d="M380.9,94.8c-0.1-0.6-0.3-1-0.6-1.2c-0.6-0.3-1.5,0-1.8,0.1l-0.4-0.9c0.1,0,1.5-0.7,2.6-0.1
					c0.6,0.3,1,1,1.1,1.9L380.9,94.8z"/>
			</g>
			<g>
				<polygon class="st12" points="379.6,96.6 378.7,96.3 379.7,93.2 380.6,93.5 				"/>
			</g>
		</g>
		<g>
			<path class="st22" d="M376,92.7c0,0,1.5-1.8,3.8-1.2c0,0-0.7-2.1-3.9,0.7C372.6,95,376,92.7,376,92.7z"/>
		</g>
		<g>
			<path class="st22" d="M375.6,99.1c0,0,2.3,0.3,3.6-0.5C379.2,98.7,376.9,100.8,375.6,99.1z"/>
		</g>
		<g>
			<path class="st23" d="M380.5,110.1h-0.9c-1.5,0-2.8-1.3-2.8-2.8v-3.6c0-1.5,1.3-2.8,2.8-2.8h0.9c1.5,0,2.8,1.3,2.8,2.8v3.6
				C383.3,108.8,382,110.1,380.5,110.1z"/>
		</g>
		<g>
			<ellipse class="st9" cx="380.2" cy="99.7" rx="2.3" ry="2.4"/>
		</g>
		<g>
			<path class="st12" d="M338.8,167.7c-0.8,0-1.2,0-1.2,0l0-1c0.1,0,5.3,0.2,13-1.1c7-1.2,17.5-3.9,27.9-10.3l-0.5-9
				c-4.2,1.2-29.2,8.4-32.7,8.7l-0.1-1c3.6-0.2,32.8-8.7,33.1-8.8l0.6-0.2l0.6,10.8l-0.2,0.2c-10.6,6.5-21.3,9.3-28.5,10.5
				C345.1,167.5,340.8,167.7,338.8,167.7z"/>
		</g>
		<g>
			<polygon class="st12" points="367.5,89.7 366.1,99 368.7,98.9 			"/>
		</g>
		<g>
			<g>
				<path class="st12" d="M363.2,89.9c0.1,0.7-0.2,1.4-0.5,1.4c-0.4,0-0.7-0.5-0.8-1.3c-0.1-0.7,0.2-1.4,0.5-1.4
					C362.7,88.6,363.1,89.2,363.2,89.9z"/>
			</g>
			<g>
				<path class="st12" d="M363.7,88.2c-1.1-1.4-3,0.4-3,0.4L363.7,88.2z"/>
			</g>
		</g>
		<g>
			<g>
				<path class="st12" d="M372.4,89.3c0.1,0.7,0.4,1.3,0.8,1.3c0.4,0,0.6-0.7,0.5-1.4c-0.1-0.7-0.4-1.3-0.8-1.3
					C372.5,88,372.3,88.6,372.4,89.3z"/>
			</g>
			<g>
				<path class="st12" d="M374.5,87.5c0,0-2.2-1.4-3,0.2L374.5,87.5z"/>
			</g>
		</g>
		<g>
			<defs>
				<path id="SVGID_5_" d="M358.3,92.2c0,0,9.9-4.2,18.1-0.4l0.4,7.3c0,0-6,10.2-16.6,3.7C360.2,102.7,356.8,99.7,358.3,92.2z"/>
			</defs>
			<use xlink:href="#SVGID_5_"  style="overflow:visible;fill:#567CA1;"/>
			<clipPath id="SVGID_6_">
				<use xlink:href="#SVGID_5_"  style="overflow:visible;"/>
			</clipPath>
			<g class="st24">
				<g>
					<path class="st23" d="M363,94.7c-0.1-0.4-0.5-0.9-0.9-0.6c-0.4,0.2-0.4,0.7-0.5,1.1c0,0,0,0.1,0,0.1c-0.3-0.2-0.7-0.3-1-0.2
						c-0.2,0.1-0.3,0.2-0.2,0.5c0.1,1,1.2,1.8,2.1,2c0.2,0,0.4,0,0.4-0.3c0,0,0-0.1,0-0.1c0,0,0-0.1,0-0.2
						C362.9,96.3,363.2,95.5,363,94.7z M361.4,96.2C361.3,96.1,361.3,96.1,361.4,96.2C361.3,96.1,361.3,96.1,361.4,96.2
						c-0.1-0.1-0.1-0.2-0.2-0.2c0,0,0,0,0-0.1C361.3,95.9,361.3,96,361.4,96.2c0.2,0.1,0.3,0.2,0.4,0.3c0,0,0,0,0,0
						c-0.1,0-0.1-0.1-0.1-0.1C361.5,96.3,361.4,96.2,361.4,96.2z"/>
				</g>
				<g>
					<path class="st23" d="M368.7,92.1c0-0.4-0.2-0.9-0.6-1c-0.4-0.1-0.8,0.3-0.9,0.7c0,0.1,0,0.1,0,0.2c-0.2-0.2-0.5-0.4-0.9-0.3
						c-0.4,0.1-0.6,0.7-0.4,1.1c0.1,0.4,0.4,0.7,0.7,1c0.3,0.3,0.6,0.5,0.9,0.7c0.1,0,0.2,0.1,0.3,0c0.1,0,0.3,0,0.4-0.2
						c0.1-0.2,0.1-0.4,0.2-0.5c0,0,0-0.1,0-0.1c0,0,0-0.1,0-0.1c0,0,0,0,0,0c0-0.1,0-0.2,0-0.3C368.5,92.9,368.7,92.5,368.7,92.1z"
						/>
				</g>
				<g>
					<path class="st23" d="M366.6,97.1c-0.4-0.1-0.6,0.2-0.8,0.5c0,0,0,0.1,0,0.1c0,0,0,0,0,0c-0.2-0.1-0.4-0.1-0.5,0.1
						c-0.1,0.1-0.2,0.3-0.2,0.5c0,0.4,0.1,0.8,0.3,1.1c0.1,0.2,0.2,0.5,0.4,0.7c0,0.1,0,0.2,0.1,0.3c0.1,0.1,0.1,0.1,0.2,0.1
						c0.1,0.1,0.2,0.1,0.3,0c0.1-0.1,0.2-0.3,0.2-0.4c0.1-0.2,0.1-0.5,0.2-0.7c0.1-0.4,0.3-0.7,0.4-1.1
						C367.1,97.9,367.1,97.3,366.6,97.1z"/>
				</g>
				<g>
					<path class="st23" d="M362.1,101.9c0-0.3,0-0.7-0.1-1c-0.1-0.3-0.3-0.9-0.7-0.8c-0.2,0-0.4,0.3-0.5,0.5c0,0.1-0.1,0.2-0.1,0.4
						c-0.1-0.1-0.3-0.3-0.5-0.3c-0.2-0.1-0.4-0.1-0.6,0c-0.2,0.1-0.3,0.3-0.3,0.6c0,0.2,0.1,0.4,0.3,0.6c0.1,0.2,0.3,0.3,0.4,0.5
						c0.2,0.2,0.4,0.4,0.6,0.6c0.1,0.1,0.3,0.2,0.4,0.3c0,0,0,0,0,0c0,0.2,0.2,0.4,0.4,0.4c0.1,0,0.1,0,0.2,0c0.1,0,0.3,0,0.4-0.2
						c0.1-0.2,0-0.4-0.1-0.5c0-0.1,0.1-0.2,0.1-0.3C362,102.4,362.1,102.2,362.1,101.9z"/>
				</g>
				<g>
					<g>
						<path class="st23" d="M367.7,102.6c-0.2-0.1-0.4-0.2-0.6-0.2c-0.2,0.1-0.3,0.2-0.4,0.4c-0.1,0.2-0.1,0.4-0.2,0.6
							c-0.1-0.2-0.2-0.3-0.4-0.4c-0.2-0.1-0.4-0.1-0.5,0c-0.2,0.1-0.3,0.3-0.3,0.5c-0.1,0.5,0.1,1,0.4,1.4c0.2,0.2,0.3,0.4,0.5,0.6
							c0.1,0.1,0.2,0.2,0.3,0.3c0,0,0.1,0.1,0.1,0.1c0,0,0,0,0,0.1c0,0,0,0,0,0c0,0,0,0,0,0c0,0,0.1,0.1,0.1,0.1
							c0.1,0.2,0.5,0.2,0.6-0.1c0.2-0.6,0.4-1.2,0.5-1.8C368,103.6,368.1,102.9,367.7,102.6z M366.2,104.2c0-0.1-0.1-0.2-0.1-0.2
							c0,0,0-0.1,0-0.1c0,0,0-0.1,0-0.1C366.1,104,366.2,104.1,366.2,104.2c0,0,0.1,0.1,0.1,0.1
							C366.3,104.3,366.2,104.3,366.2,104.2z"/>
					</g>
					<g>
						<polygon class="st23" points="366.1,103.5 366.1,103.5 366.1,103.5 						"/>
					</g>
				</g>
				<g>
					<path class="st23" d="M372.6,98.2c-0.1-0.2-0.2-0.5-0.5-0.5c-0.3,0-0.5,0.2-0.6,0.4c0,0.1-0.1,0.1-0.1,0.2
						c-0.1-0.1-0.1-0.2-0.2-0.3c-0.1-0.2-0.3-0.2-0.5-0.1c-0.6,0.4-0.3,1.4-0.2,2c0.2,0.6,0.4,1.2,0.7,1.8c0,0.1,0,0.2,0.2,0.3
						c0.1,0.1,0.4,0.1,0.5-0.1c0.3-0.6,0.5-1.2,0.6-1.9c0.1-0.3,0.1-0.6,0.2-1C372.7,98.7,372.7,98.4,372.6,98.2z"/>
				</g>
				<g>
					<path class="st23" d="M374.5,92.2c-0.1-0.2-0.2-0.4-0.5-0.5c-0.2-0.1-0.4,0-0.5,0.2c-0.1,0.1-0.1,0.2-0.2,0.3
						c-0.1-0.1-0.2-0.2-0.3-0.2c-0.2-0.1-0.5,0-0.5,0.2c-0.1,0.5-0.1,1,0,1.5c0.1,0.5,0.4,1,0.8,1.3c0.1,0.1,0.3,0.1,0.4,0
						c0.1,0,0.2-0.1,0.2-0.3c0.1-0.4,0.3-0.7,0.4-1.1C374.5,93.1,374.6,92.6,374.5,92.2z"/>
				</g>
				<g>
					<path class="st23" d="M376.4,99.6c-0.1-0.2-0.3-0.2-0.5-0.1c-0.3,0.2-0.4,0.4-0.5,0.6c-0.1-0.2-0.2-0.3-0.5-0.4
						c-0.1-0.1-0.3,0-0.4,0.2c-0.5,1.1,0.3,2.4,0.8,3.4c0.2,0.3,0.5,0.2,0.6-0.1c0,0,0.1,0,0.1,0c0.2,0,0.4-0.2,0.4-0.4
						C376.4,101.7,377,100.6,376.4,99.6z"/>
				</g>
			</g>
		</g>
		<g>
			<path class="st15" d="M367.3,74.7c0,0-7.9,0.7-10.7,6.4c-2.8,5.7-3.9,8.7-4.6,13.1c-0.6,4.4-0.8,7.5-2.1,11.3
				c-1.3,3.8-1.8,4.2-1.8,6.8c-0.1,2.6,0.8,4.6-0.3,7.3c-1.1,2.7-1.1,2.5-1.2,3.8c-0.2,1.3-0.8,0.8-0.7,4c0,3.2,0.2,10.4-0.2,11.8
				c0,0,16.3-3.7,16.7-6.2c0.5-2.5-1.6-6.9-1-8.3c0.5-1.4,3.3-4.4,2.9-6c-0.4-1.6-2.1-6.7-1.1-7.4c1-0.7,0.8-0.8,0.8-0.8l0.2-6.2
				c0,0-3.8-1.9-4.8-5.9c-1-4-1.5-6.2-0.4-9.2c1.2-2.9,5-6.6,7-6.9c2-0.4,1.8-0.6,1.8-0.6L367.3,74.7z"/>
		</g>
		<g>
			<polygon class="st12" points="375.4,120.3 365.9,119.3 366,118.3 375.5,119.3 			"/>
		</g>
	</g>
	<g>
		<path class="st25" d="M139.6,74.6h-30.7c-3.3,0-6-2.7-6-6v-2.5c0-3.3,2.7-6,6-6h30.7c3.3,0,6,2.7,6,6v2.5
			C145.6,71.9,142.9,74.6,139.6,74.6z"/>
		<g>
			<g>
				<g>
					<path class="st7" d="M116.7,67.8c0.2,0.3,0.3,0.6,0.3,1c0,0.3-0.1,0.6-0.2,0.9c-0.2,0.3-0.4,0.5-0.7,0.7
						c-0.3,0.2-0.7,0.2-1.2,0.2c-0.4,0-0.7,0-1.1-0.1c-0.4-0.1-0.7-0.2-0.9-0.4l0.5-1.1c0.2,0.1,0.4,0.3,0.7,0.3
						c0.3,0.1,0.5,0.1,0.7,0.1c0.2,0,0.4,0,0.6-0.1c0.1-0.1,0.2-0.2,0.2-0.4c0-0.3-0.3-0.5-0.8-0.5h-0.6v-1l0.9-1h-2v-1.2h3.7V66
						l-1.1,1.2C116.1,67.3,116.5,67.5,116.7,67.8z"/>
					<path class="st7" d="M121,67.2c0.3,0.1,0.5,0.3,0.6,0.6c0.2,0.3,0.2,0.6,0.2,0.9c0,0.4-0.1,0.7-0.3,1c-0.2,0.3-0.4,0.5-0.7,0.6
						c-0.3,0.1-0.6,0.2-1,0.2c-0.7,0-1.3-0.2-1.7-0.7c-0.4-0.5-0.6-1.1-0.6-2c0-0.6,0.1-1.1,0.3-1.6c0.2-0.4,0.5-0.8,1-1
						c0.4-0.2,0.9-0.3,1.4-0.3c0.3,0,0.6,0,0.8,0.1c0.3,0.1,0.5,0.2,0.7,0.3l-0.5,1.1c-0.2-0.2-0.6-0.3-0.9-0.3
						c-0.4,0-0.7,0.1-0.9,0.3c-0.2,0.2-0.4,0.5-0.4,0.9c0.3-0.3,0.7-0.4,1.2-0.4C120.4,67,120.7,67.1,121,67.2z M120.3,69.3
						c0.1-0.1,0.2-0.3,0.2-0.5c0-0.2-0.1-0.4-0.2-0.5c-0.1-0.1-0.3-0.2-0.5-0.2c-0.2,0-0.4,0.1-0.5,0.2c-0.1,0.1-0.2,0.3-0.2,0.5
						c0,0.2,0.1,0.4,0.2,0.5c0.1,0.1,0.3,0.2,0.5,0.2C120,69.4,120.2,69.4,120.3,69.3z"/>
					<path class="st7" d="M122.5,70.2c-0.2-0.2-0.2-0.4-0.2-0.6c0-0.3,0.1-0.5,0.2-0.6c0.2-0.2,0.4-0.2,0.6-0.2
						c0.2,0,0.4,0.1,0.6,0.2c0.2,0.2,0.2,0.4,0.2,0.6c0,0.2-0.1,0.5-0.2,0.6c-0.2,0.2-0.4,0.2-0.6,0.2
						C122.9,70.5,122.7,70.4,122.5,70.2z"/>
					<path class="st7" d="M128.4,69.2v1.2h-4v-0.9l1.9-1.9c0.2-0.2,0.3-0.3,0.4-0.5c0.1-0.1,0.1-0.3,0.1-0.4c0-0.2-0.1-0.3-0.2-0.4
						c-0.1-0.1-0.3-0.1-0.5-0.1c-0.2,0-0.4,0-0.5,0.1c-0.2,0.1-0.3,0.2-0.4,0.4l-1.1-0.6c0.2-0.3,0.5-0.6,0.8-0.8
						c0.4-0.2,0.8-0.3,1.3-0.3c0.4,0,0.7,0.1,1,0.2c0.3,0.1,0.5,0.3,0.7,0.6c0.2,0.2,0.3,0.5,0.3,0.9c0,0.3-0.1,0.6-0.2,0.8
						c-0.1,0.3-0.4,0.5-0.7,0.9l-1,0.9H128.4z"/>
					<path class="st7" d="M134.5,70.2c-0.4-0.2-0.8-0.6-1-1c-0.2-0.4-0.4-0.9-0.4-1.4c0-0.5,0.1-1,0.4-1.4c0.2-0.4,0.6-0.8,1-1
						c0.4-0.2,0.9-0.4,1.4-0.4c0.5,0,0.9,0.1,1.3,0.3c0.4,0.2,0.7,0.4,0.9,0.7l-0.9,0.9c-0.3-0.4-0.7-0.6-1.2-0.6
						c-0.3,0-0.5,0.1-0.7,0.2c-0.2,0.1-0.4,0.3-0.5,0.5c-0.1,0.2-0.2,0.5-0.2,0.8c0,0.3,0.1,0.6,0.2,0.8c0.1,0.2,0.3,0.4,0.5,0.5
						c0.2,0.1,0.5,0.2,0.7,0.2c0.5,0,0.9-0.2,1.2-0.6l0.9,0.9c-0.2,0.3-0.6,0.6-0.9,0.7c-0.4,0.2-0.8,0.3-1.3,0.3
						C135.4,70.5,134.9,70.4,134.5,70.2z"/>
				</g>
			</g>
			<g>
				<path class="st7" d="M129.9,65.6c-0.8,0-1.4-0.6-1.4-1.4c0-0.8,0.6-1.4,1.4-1.4s1.4,0.6,1.4,1.4
					C131.3,64.9,130.7,65.6,129.9,65.6z M129.9,63.6c-0.3,0-0.5,0.2-0.5,0.5c0,0.3,0.2,0.5,0.5,0.5c0.3,0,0.5-0.2,0.5-0.5
					C130.4,63.8,130.2,63.6,129.9,63.6z"/>
			</g>
		</g>
	</g>
	<g>
		<g>
			<rect x="166.2" y="83.2" class="st7" width="0.9" height="1.6"/>
		</g>
		<g>
			<path class="st7" d="M187.8,84.8H186v-1.6h1.7V84.8z M184.3,84.8h-1.7v-1.6h1.7V84.8z M180.9,84.8h-1.7v-1.6h1.7V84.8z
				 M177.4,84.8h-1.7v-1.6h1.7V84.8z M174,84.8h-1.7v-1.6h1.7V84.8z M170.5,84.8h-1.7v-1.6h1.7V84.8z"/>
		</g>
		<g>
			<rect x="189.5" y="83.2" class="st7" width="0.9" height="1.6"/>
		</g>
	</g>
	<g>
		<g>
			<g>
				<rect x="113.7" y="178.5" class="st9" width="6" height="72.3"/>
			</g>
			<g>
				<rect x="101.2" y="249.4" class="st22" width="30.9" height="4.8"/>
			</g>
			<g>
				<rect x="107.9" y="174.9" class="st22" width="36.8" height="5.6"/>
			</g>
		</g>
		<g>
			<g>
				<rect x="119.5" y="157.5" class="st7" width="14" height="17.4"/>
			</g>
			<g>
				<polygon class="st7" points="119.5,157.5 124.8,149.9 128.1,149.9 133.5,157.5 				"/>
			</g>
			<g>
				<rect x="119.5" y="159.9" class="st12" width="14" height="9.7"/>
			</g>
			<g>
				<rect x="124.5" y="145.1" class="st25" width="4" height="5"/>
			</g>
			<g>
				<path class="st25" d="M131.4,143.5h-7.2c-0.3,0-0.6-0.3-0.6-0.7l0,0c0-0.4,0.3-0.7,0.6-0.7h7.2c0.3,0,0.6,0.3,0.6,0.7l0,0
					C132,143.2,131.8,143.5,131.4,143.5z"/>
			</g>
			<g>
				
					<rect x="123.9" y="144.9" transform="matrix(-1.836970e-16 1 -1 -1.836970e-16 272.1316 18.9443)" class="st25" width="5.4" height="1.3"/>
			</g>
			<g>
				<g>
					<rect x="125.7" y="161" class="st25" width="1.5" height="6.4"/>
				</g>
				<g>
					
						<rect x="125.7" y="161.2" transform="matrix(6.123234e-17 -1 1 6.123234e-17 -37.7638 290.6877)" class="st25" width="1.6" height="6.1"/>
				</g>
			</g>
		</g>
	</g>
	<g>
		<g>
			<rect x="160.3" y="191" class="st12" width="281.4" height="8.5"/>
		</g>
		<g>
			<g>
				<rect x="158.1" y="181" class="st5" width="6.5" height="113.4"/>
			</g>
			<g>
				<path class="st5" d="M168.3,296.5h-13.9c-1,0-1.9-0.8-1.9-1.9v-0.8c0-1,0.8-1.9,1.9-1.9h13.9c1,0,1.9,0.8,1.9,1.9v0.8
					C170.2,295.7,169.3,296.5,168.3,296.5z"/>
			</g>
		</g>
		<g>
			<g>
				<rect x="438.7" y="180.9" class="st5" width="6.5" height="113.4"/>
			</g>
			<g>
				<path class="st5" d="M448.9,296.6h-13.9c-1,0-1.9-0.8-1.9-1.9V294c0-1,0.8-1.9,1.9-1.9h13.9c1,0,1.9,0.8,1.9,1.9v0.8
					C450.8,295.8,450,296.6,448.9,296.6z"/>
			</g>
		</g>
		<g>
			<g>
				<path class="st5" d="M311.4,296.6h-13.9c-1,0-1.9-0.8-1.9-1.9V294c0-1,0.8-1.9,1.9-1.9h13.9c1,0,1.9,0.8,1.9,1.9v0.8
					C313.3,295.8,312.5,296.6,311.4,296.6z"/>
			</g>
			<g>
				<rect x="301.2" y="180.9" class="st5" width="6.5" height="113.4"/>
			</g>
		</g>
	</g>
	<g>
		<g id="Paintable_2_">
			<g>
				<path class="st9" d="M420.3,268.3c1,2.3-0.3-23.2-13.3-25.7c-13-2.5-13.3,3.2-10.3,7.6s4.8,3.1,4.1,6.5
					c-0.7,3.4,1.3,5.8,6.4,7.2C412.2,265.2,419.3,266.1,420.3,268.3z"/>
			</g>
			<g>
				<path class="st9" d="M425.5,269.1c0,0,0.7-16.7,11.1-17.8c10.5-1,16.4-1,18.4-2.7c2-1.7,10.2,0.2,10.3,10.4
					c0.2,10.2-10,3.9-14.4,12.3C446.5,279.7,425.5,269.1,425.5,269.1z"/>
			</g>
			<g>
				<path class="st9" d="M424.1,252c0,0-2.5-5.5-5.9-10.8c-3.4-5.3-1-11.3,2.1-14c0,0-8-21,5.6-23.1c13.6-2,11.6,12.5,10.3,16.9
					s-1.3,4.4-1.3,4.4s-2,6.1-0.2,9.9C436.6,239.2,432.5,245.6,424.1,252z"/>
			</g>
		</g>
		<g>
			<g>
				<path class="st22" d="M423.1,278.6c-1.4-13-18.3-30.1-18.5-30.3l0.9-1c0.7,0.7,17.4,17.6,18.9,31.1L423.1,278.6z"/>
			</g>
			<g>
				<path class="st22" d="M424.1,278.7c-0.1-0.2-1.7-5.7,1.5-10.9c2.7-4.4,8-7,15.8-7.9l0.1,1.3c-7.4,0.8-12.4,3.3-14.9,7.3
					c-2.9,4.6-1.3,9.7-1.3,9.7L424.1,278.7z"/>
			</g>
			<g>
				<path class="st22" d="M425.4,278.7c-2.4-6.4-2.8-19.9-1-39.9c1.3-14.9,3.3-28,3.3-28.1l1.3,0.2c-0.1,0.5-7.9,52.4-2.3,67.3
					L425.4,278.7z"/>
			</g>
		</g>
		<g>
			<polygon class="st12" points="407,276.1 411.9,307.6 436,307.6 440.9,276.3 			"/>
		</g>
	</g>
</g>
<g id="Paintable_6_">
	<g id="s_1_">
		<path class="st22" d="M66.1,174.1l34.5-0.9l-1.6-44.3c0,0,17.2,10.7,24.1,5.2c6.9-5.4,24.3-27.8,24.3-27.8l-6.8-6.1l-22.9,17.4
			c0,0-29.5-21.3-44.4-18.1c0,0-11.3,2.7-13.7,6c-8.8,12.2-12.1,29.1-14.1,39.6c-3.2,17.3-0.1,37.6-0.1,37.6s11,0.8,11.4,1.1
			c0.4,0.2,1.3-9.5,1.3-9.5l7.3-0.2L66.1,174.1z"/>
	</g>
	<g id="s">
		<polygon class="st9" points="56.1,158.2 41.1,274.8 72.9,273.4 78.3,187.6 82.3,273.3 110.5,273.2 100.2,156.9 		"/>
	</g>
</g>
<g id="foreground">
	<g>
		<g>
			<g>
				<g>
					<path class="st12" d="M49,271.7l-1.5,11.3l23.2,4.6c-0.5-7.1-11.8-9-11.8-9l0.3-5.6L49,271.7z"/>
				</g>
				<g>
					<path class="st22" d="M47.5,282.9l-0.2,1.4l23.4,4.4c0-0.4,0.1-0.9,0-1.3L47.5,282.9z"/>
				</g>
			</g>
			<g>
				<g>
					<path class="st12" d="M89.7,272.4l-0.8,11.4l23.5,2.9c-0.9-7.1-12.4-8.2-12.4-8.2l-0.1-5.6L89.7,272.4z"/>
				</g>
				<g>
					<path class="st22" d="M88.9,283.7l-0.1,1.4l23.6,2.7c0-0.4,0-0.9-0.1-1.3L88.9,283.7z"/>
				</g>
			</g>
			<g>
				<g>
					<path class="st25" d="M55.2,180.1c0,0,3.5,7.4,2.7,8.7c-0.8,1.3-3.8-2.3-3.8-2.3s-0.3,6.4-0.5,8.3c-0.2,2-2.6,0.3-2.4-0.3
						c0,0,0.7,2.1-0.5,2.7c-1.1,0.6-1.9-2.7-1.9-2.7s0.4,1.5-0.9,1.9c-1.3,0.3-1.2-2.9-1.2-2.9s-0.4,2.1-1.5,1.1c-1-1,1-13.7,1-13.7
						L55.2,180.1z"/>
				</g>
			</g>
			<g>
				<path class="st25" d="M140.7,100.2c0,0-1-11.6,2.8-11.6c3.8,0,4.7,5.1,4.7,5.8c0,0.7-3,9.9-3,9.9L140.7,100.2z"/>
			</g>
			<g>
				<g>
					<path class="st14" d="M147,80.1c0.4,0,16-0.5,16-0.5l-2.4,7.5l-9.1,3.9l-4.6,12.6l1.9,4.6l-8.9-0.3L147,80.1z"/>
				</g>
				<g>
					<polygon class="st7" points="149.7,82.5 148.4,87.4 158,85.1 158.9,82.1 					"/>
				</g>
				<g>
					<polygon class="st25" points="163,79.7 165.3,79.6 163.5,87 160.6,87.3 					"/>
				</g>
			</g>
			<g>
				<path class="st25" d="M150.9,92.4c-0.3,0.1-5.9,1.5-5.6,3.7c0.3,2.2,1.9,1.4,1.9,1.4s-2.5,1.7-1.7,2.9c0.8,1.2,2.4,0.5,2.4,0.5
					s-2.3,1.9-1.4,3.1c1,1.2,6.7,1.1,7.3-4.1S154.2,91.7,150.9,92.4z"/>
			</g>
			<g>
				<polygon class="st12" points="56.6,158.3 55.6,158 63.6,123.3 64.5,123.5 				"/>
			</g>
			<g>
				<path class="st12" d="M93.8,131.8l-10.7-0.4l0.6-12.9l0.4,0c0,0,2-0.2,4-0.3c4.2-0.3,4.3-0.2,4.5,0l0.2,0.2l0,0.2
					c0,0.3,0.7,9.2,1,12.6L93.8,131.8z M84.2,130.4l8.6,0.3c-0.2-2.6-0.8-9.8-0.9-11.7c-1,0-4.2,0.2-7.2,0.4L84.2,130.4z
					 M91.9,118.6C91.9,118.6,91.9,118.7,91.9,118.6C91.9,118.6,91.9,118.6,91.9,118.6z"/>
			</g>
			<g>
				<polygon class="st12" points="78,202.2 77,202.1 79,169 80,169.1 				"/>
			</g>
			<g>
				<polygon class="st12" points="76.2,115.3 65.4,102.2 66.1,101.5 75.9,113.4 78.1,108.3 81.9,113.4 88.3,101.1 89.2,101.6 
					82,115.3 78.3,110.3 				"/>
			</g>
			<g>
				<path class="st12" d="M90.4,68c0,0-3.6-5.4-10.2-4c-6.6,1.4-6.6-2.5-12.5,5.6S62,76.3,62,81.2c0,4.9,8.4,12.5,10.2,12.5
					c1.7,0,7.2-16.5,7.9-17C80.7,76.2,90.4,68,90.4,68z"/>
			</g>
			<g>
				<path class="st17" d="M77,109.7L77,109.7c2.7,0.1,4.9-2.1,5-4.9l0.3-18.8l-10.1,1.2l0.3,17.5C72.5,107.5,74.5,109.6,77,109.7z"
					/>
			</g>
			<g>
				<ellipse class="st16" cx="82.5" cy="82.8" rx="12.1" ry="14.6"/>
			</g>
			<g>
				<path class="st12" d="M91.1,72.1c0,0,1.1-5.7-3.2-6.2c-4.3-0.5-11-3.1-14.8-0.3s-5.7,14.8-6.4,23.5c0,0,2.8-1.1,4.9-7.3
					c2.1-6.1,1.7,4.2,3.5,4.2c0,0,1.5-6.3,4.4-7c2.9-0.7,4.9-2.5,2.9-5.4C80.5,70.7,84.6,67.1,91.1,72.1z"/>
			</g>
			<g>
				<path class="st16" d="M73.4,80.1c0,0-6.4-1.3-6.9,2.3c-0.5,3.6,2.6,6.9,6.2,6.3L73.4,80.1z"/>
			</g>
			<g>
				<path class="st25" d="M78.6,82.6c0,0-2.4,5-0.8,10.1c0,0,14,8.2,17.4-5.6C98.6,73.4,78.6,82.6,78.6,82.6z"/>
			</g>
			<g>
				<path class="st25" d="M71.5,79.9c0,0,0.3-1.1,2.5-1.8c2.2-0.7,5.7,4.5,5.7,4.5l-1,0.4c0,0-1.6-1.3-3.1-3c-1.5-1.7-2.8,0-2.8,0
					L71.5,79.9z"/>
			</g>
			<g>
				<path class="st25" d="M69.6,88.3l1.2,0.4c0,0,3,6,7.2,3.2l0.6,0.9C78.7,92.7,72.9,95.9,69.6,88.3z"/>
			</g>
			<g>
				<g>
					<path class="st12" d="M69.2,84.4l-1-0.1c0.1-1,0.5-1.6,1.1-2c1.2-0.6,2.7,0.1,2.7,0.1l-0.4,0.9l0.2-0.5l-0.2,0.5
						c-0.3-0.2-1.2-0.5-1.8-0.1C69.5,83.4,69.3,83.8,69.2,84.4z"/>
				</g>
				<g>
					<polygon class="st12" points="70.6,86.3 69.5,83 70.4,82.7 71.5,86 					"/>
				</g>
			</g>
			<g>
				<g>
					<path class="st12" d="M91.8,78.4c0,0.8,0.3,1.4,0.7,1.4c0.4,0,0.7-0.6,0.7-1.4c0-0.8-0.3-1.4-0.7-1.4
						C92.1,77,91.8,77.6,91.8,78.4z"/>
				</g>
				<g>
					<path class="st12" d="M94.2,76.8c0,0-2.1-1.7-3.1-0.1L94.2,76.8z"/>
				</g>
			</g>
			<g>
				<g>
					<path class="st12" d="M85,78.6c0,0.8-0.2,1.4-0.6,1.4c-0.4,0-0.7-0.6-0.8-1.3c0-0.8,0.2-1.4,0.6-1.4C84.6,77.2,85,77.8,85,78.6
						z"/>
				</g>
				<g>
					<path class="st12" d="M85.6,76.8c-1.1-1.5-3.1,0.3-3.1,0.3L85.6,76.8z"/>
				</g>
			</g>
			<g>
				<polygon class="st12" points="79.2,157.5 77.7,109.3 78.7,109.3 80.1,157.5 				"/>
			</g>
		</g>
	</g>
</g>
</svg>
