<svg xmlns="http://www.w3.org/2000/svg" xmlns:xlink="http://www.w3.org/1999/xlink" width="250" height="250" viewBox="0 0 250 250"><defs><style>.cls-1{fill:none;}.cls-2{fill:#f7f3e8;}.cls-13,.cls-14,.cls-19,.cls-2,.cls-3,.cls-9{stroke:#4d2419;}.cls-13,.cls-14,.cls-2,.cls-3,.cls-9{stroke-linejoin:round;}.cls-2,.cls-3,.cls-9{stroke-width:1.5px;}.cls-3{fill:#e5ecf6;}.cls-4{clip-path:url(#clip-path);}.cls-5{fill:#3279af;}.cls-6{fill:#4893cc;}.cls-7{fill:#d84761;}.cls-8{fill:#4d2419;}.cls-9{fill:#e3f1e0;}.cls-10,.cls-19{fill:#f89723;}.cls-11{fill:#dd7f27;}.cls-12{fill:#e17084;}.cls-13,.cls-17{fill:#ffcb5d;}.cls-13,.cls-14{stroke-linecap:round;}.cls-14,.cls-16{fill:#ffdca3;}.cls-15{fill:#faae52;}.cls-18{fill:#fcb216;}.cls-19{stroke-miterlimit:10;}.cls-20{fill:#389348;}</style><clipPath id="clip-path"><rect class="cls-1" x="74.31" y="95.31" width="154.98" height="97.88" transform="translate(-14.3 16.73) rotate(-6.03)"/></clipPath></defs><g id="Layer_223" data-name="Layer 223"><rect class="cls-2" x="61.8" y="83.43" width="179.99" height="121.63" transform="translate(-14.3 16.73) rotate(-6.03)"/><rect class="cls-3" x="74.31" y="95.31" width="154.98" height="97.88" transform="translate(-14.3 16.73) rotate(-6.03)"/><g class="cls-4"><path class="cls-5" d="M151.65,153.76l30.82-48.7,39,8.54-12.21,38Zm0,0"/><path class="cls-6" d="M157.61,144.37a46.45,46.45,0,0,0,53.57-33l-28.71-6.29Zm0,0"/><path class="cls-7" d="M100.09,183.42l.68,11.53,8.94-5.15Zm0,0"/><path class="cls-7" d="M90.47,177l9.62,6.38-.68-11.52Zm0,0"/><path class="cls-7" d="M114.76,166.05l.68,11.53,8.94-5.15Zm0,0"/><path class="cls-7" d="M105.13,159.67l9.63,6.38-.68-11.53Zm0,0"/><path class="cls-7" d="M151.65,153.76l.68,11.53,8.94-5.15Zm0,0"/><path class="cls-7" d="M142,147.38l9.63,6.38L151,142.24Zm0,0"/><path class="cls-7" d="M136.91,166.35l.68,11.53,8.94-5.15Zm0,0"/><path class="cls-7" d="M127.29,160l9.62,6.38-.68-11.53Zm0,0"/><path class="cls-8" d="M222.42,113.06a1.06,1.06,0,0,0-.71-.53l-39-8.54a1.09,1.09,0,0,0-1.15.48l-7.15,11.28,1.86,1.18,6.46-10.22c2.68,2.36,10.59,9.67,16,18.67L155,150.56l18.58-29.34L171.72,120l-19.19,30.3-.48-8.18a1.1,1.1,0,0,0-1.64-.89l-8.94,5.14a1.15,1.15,0,0,0-.55.92,1.1,1.1,0,0,0,.5.95l8.86,5.88a23.43,23.43,0,0,1-4.3,6.49,14.84,14.84,0,0,1-8,4.61l-.62-10.51a1.08,1.08,0,0,0-.57-.9,1.1,1.1,0,0,0-1.07,0L126.73,159a1.11,1.11,0,0,0,0,1.87l6.83,4.53a18.3,18.3,0,0,1-2.72-.52c-6.07-1.63-11-1.68-15-.16l-.61-10.27a1.1,1.1,0,0,0-1.64-.89l-8.94,5.14a1.15,1.15,0,0,0-.55.92,1.12,1.12,0,0,0,.5.95l8.4,5.58c-3.16,2.08-5.55,5.42-7.23,10.26-1.39,4-3.41,5.3-4.6,5.72l-.6-10.31a1.11,1.11,0,0,0-1.65-.89l-8.94,5.14a1.11,1.11,0,0,0-.54.92,1.09,1.09,0,0,0,.49.95L99,184l.65,11a1.08,1.08,0,0,0,.57.9,1,1,0,0,0,.23.09,1.23,1.23,0,0,0,.84-.09l8.94-5.15a1.11,1.11,0,0,0,0-1.87l-7.67-5.09c1.64-.83,3.71-2.65,5.11-6.69,1.28-3.71,3.24-7.55,7.15-9.67l7.4,4.9-5.88,3.39-.26-4.57-2.19.14.37,6.34a1.09,1.09,0,0,0,.58.9.63.63,0,0,0,.22.08,1.17,1.17,0,0,0,.87-.1l8.94-5.15a1.09,1.09,0,0,0,.55-.92,1.12,1.12,0,0,0-.5-1l-7.65-5.07c3.16-.95,7.32-1,12.87.54a19.21,19.21,0,0,0,5.67.68l.61,10.29a1.06,1.06,0,0,0,.57.9,1,1,0,0,0,.23.09,1.18,1.18,0,0,0,.84-.1l8.94-5.14a1.11,1.11,0,0,0,0-1.87L139.87,167a17.86,17.86,0,0,0,7.7-4.86,25.46,25.46,0,0,0,3.23-4.29l.44,7.5a1.09,1.09,0,0,0,.58.9.91.91,0,0,0,.22.09,1.22,1.22,0,0,0,.84-.09l9-5.15a1.09,1.09,0,0,0,.54-.92,1.11,1.11,0,0,0-.49-.95l-6.79-4.5,30.49-1.15c-8.8,12.84-24.19,30.68-50.33,49.95l1.3,1.76a256.31,256.31,0,0,0,34.67-30.4,168.88,168.88,0,0,0,17.1-21.41l21-.79a1.07,1.07,0,0,0,1-.75l12.21-38A1.16,1.16,0,0,0,222.42,113.06Zm-129.86,64,5.88-3.38.44,7.56Zm9.19,16-.44-7.56,6.32,4.18Zm11.36-36.75.43,7.56-6.31-4.18ZM138.57,176l-.44-7.56,6.31,4.18Zm-3.31-19.38.43,7.56L129.38,160Zm66.51-30.48,17.81-10.24-10.07,31.36A84.47,84.47,0,0,0,201.77,126.17ZM186.37,107l32.06,7-17.76,10.22A84.73,84.73,0,0,0,186.37,107Zm-36.37,37,.43,7.56-6.31-4.18Zm3.3,19.38-.43-7.56,6.31,4.18Zm2.7-10.93L198.61,128c-1.06,3.55-3.73,10.87-9.81,20.68q-.81,1.29-1.71,2.67Zm34.77-2.81c6.07-9.83,8.78-17.15,9.9-20.9A87.45,87.45,0,0,1,208,150.56l-18.18.68C190.11,150.73,190.45,150.21,190.77,149.7Z"/></g><rect class="cls-2" x="16.44" y="36.01" width="179.99" height="121.63" transform="translate(-0.2 0.22) rotate(-0.12)"/><rect class="cls-9" x="28.95" y="47.88" width="154.98" height="97.88" transform="translate(-0.2 0.22) rotate(-0.12)"/><path class="cls-10" d="M79.39,77.62c-1.54,1.29-5.64,2.68-10.21,4.15C69,77.66,68.43,69.64,67.63,69c-1.07-.86-10.23-5.56-10.23-5.56l.37,3.34s4.66,3.07,6.9,4.44S65.36,83,65.36,83c-5.5,1.76-10.87,3.62-12.78,5.53-3.94,4-4.25,22.9-7.91,25.81s-15.57,9.81-15.57,9.81l0,8.17S47,122.1,48.81,119.45s2.63-7,3.36-11.45c2.18-.41,8.73-1.55,12-1,4,.68,12.11,10.24,12.11,10.24l-.37-3.31s-7-7.73-10.82-10c-2.83-1.62-9.08-.91-12.23-.41.84-5.07,1.85-9.66,4.21-11.43C62.19,88.32,76.51,84.93,81.77,81c5-3.78,10.11-22.07,10.11-22.07l-.49-4.49S84,73.75,79.39,77.62Zm0,0"/><path class="cls-11" d="M91.88,58.89l-.17-1.56S83.81,76.7,81.37,79.27,62.6,86.56,59.1,88.34a5.49,5.49,0,0,0-3.29,5H56a5.49,5.49,0,0,1,1.1-1.15C62.19,88.32,76.51,84.93,81.77,81c5-3.78,10.11-22.07,10.11-22.07Zm0,0"/><path class="cls-7" d="M79.82,64.08a5.58,5.58,0,0,1,1.44-7.17s4,2.87,2.75,6.9c0,0,2.51-4.18,8.12-2.55,0,0,.45,6.63-6.53,6.48,0,0,5.67,2.16,2.83,9.3,0,0-5.8-1.17-5.63-6,0,0,.13,6.21-7.27,7.39,0,0-2.06-6.64,3.41-9.57,0,0-4.52,1.09-7.3-3.84,0,0,1.61-3.64,8.18-1Zm0,0"/><path class="cls-12" d="M84,63.81c1.22-4-2.75-6.9-2.75-6.9a5.59,5.59,0,0,0-1.44,7.17c-6.57-2.67-8.16.94-8.16.94C74.44,70,79,68.86,79,68.86A6.78,6.78,0,0,0,76,71.8a14.75,14.75,0,0,0,8.75-8.91,5.79,5.79,0,0,0-.74.92Zm0,0"/><path class="cls-7" d="M80.65,110.4a5.59,5.59,0,0,1,7.17,1.44s-2.87,4-6.91,2.75c0,0,4.18,2.51,2.55,8.12,0,0-6.62.45-6.47-6.53,0,0-2.16,5.67-9.3,2.84,0,0,1.17-5.81,6-5.64,0,0-6.22.13-7.39-7.27,0,0,6.64-2,9.57,3.41,0,0-1.1-4.52,3.84-7.29,0,0,3.63,1.6,1,8.17Zm0,0"/><path class="cls-12" d="M79.69,102.24c-5,2.77-3.84,7.29-3.84,7.29-2.92-5.46-9.57-3.41-9.57-3.41,1.08,6.77,6.37,7.25,7.27,7.27-3.14,0-4.7,2.49-5.38,4.18A14,14,0,0,0,80,102.38a1.36,1.36,0,0,0-.26-.14Zm0,0"/><path class="cls-7" d="M57.61,72a5.59,5.59,0,0,1-1.44,7.17s-4-2.86-2.75-6.9c0,0-2.51,4.18-8.13,2.55,0,0-.45-6.62,6.54-6.47,0,0-5.68-2.17-2.84-9.31,0,0,5.8,1.18,5.63,6,0,0-.12-6.21,7.27-7.39,0,0,2.06,6.65-3.4,9.58,0,0,4.52-1.1,7.29,3.83,0,0-1.61,3.64-8.17,1Zm0,0"/><path class="cls-12" d="M58.94,58.53a7.45,7.45,0,0,0-4.33,6.39c.06-4.69-5.63-5.85-5.63-5.85-2.84,7.14,2.83,9.3,2.83,9.3-7-.16-6.53,6.48-6.53,6.48l.26.07a15.38,15.38,0,0,0,13.4-16.39Zm0,0"/><path class="cls-12" d="M60.35,92a3.74,3.74,0,0,1-4.79-1s1.92-2.65,4.6-1.84a4.63,4.63,0,0,1-1.7-5.42,4,4,0,0,1,4.31,4.37s1.44-3.79,6.2-1.9c0,0-.78,3.86-4,3.76,0,0,4.15-.08,4.94,4.85,0,0-4.43,1.36-6.38-2.27A4.53,4.53,0,0,1,61,97.47S58.56,96.4,60.35,92Zm0,0"/><path class="cls-12" d="M46.38,82.35s-9.46-3.66-13.45,4.41c0,0,7.34,4.28,13.45-4.41Zm0,0"/><path class="cls-12" d="M85.42,90s-5,11.29,4.54,13.44c0,0,3.73-9.61-4.54-13.44Zm0,0"/><path class="cls-11" d="M48.81,119.45c1.77-2.62,2.63-7,3.36-11.45-3.21.94-2.48,4.27-4.52,9s-19,11.41-19,11.41l.42,3.85S47,122.1,48.81,119.45Zm0,0"/><path class="cls-12" d="M44.22,112.89a3.73,3.73,0,0,1-1,4.78s-2.65-1.91-1.84-4.59a4.63,4.63,0,0,1-5.42,1.7,4,4,0,0,1,4.36-4.31s-3.78-1.44-1.89-6.2c0,0,3.86.78,3.75,4,0,0-.08-4.15,4.85-4.94,0,0,1.37,4.43-2.26,6.38a4.52,4.52,0,0,1,4.86,2.56s-1.07,2.42-5.45.63Zm0,0"/><path class="cls-12" d="M66.37,137.74s-1.43-7.69-8.34-7.05c0,0,.17,6.55,8.34,7.05Zm0,0"/><polygon class="cls-8" points="80.13 70.58 81.39 71.14 82.52 68.58 84.18 70.83 85.29 70 83.39 67.42 86.11 65.69 85.37 64.51 82.92 66.08 82.58 63.04 81.21 63.19 81.54 66.22 78.86 65.24 78.39 66.55 81.42 67.65 80.13 70.58"/><polygon class="cls-8" points="78.18 108.97 77.08 112 74.14 110.71 73.59 111.97 76.16 113.1 73.91 114.76 74.73 115.87 77.31 113.97 79.04 116.69 80.23 115.95 78.66 113.5 81.69 113.17 81.54 111.79 78.5 112.12 79.48 109.44 78.18 108.97"/><path class="cls-8" d="M81.84,109.22c1.8-5.91-1.66-7.54-1.83-7.6a.71.71,0,0,0-.62,0,7.9,7.9,0,0,0-4.12,5.14c0,.2-.08.4-.11.6a7.73,7.73,0,0,0-5.1-2.28,11.06,11.06,0,0,0-2.18,0,18.75,18.75,0,0,0-2.46-1.76c-2.72-1.56-8.16-1.14-11.72-.64.69-3.95,1.62-8,3.5-9.76a4.33,4.33,0,0,0,2,.16c-1,3.82,1.34,4.91,1.45,5a.74.74,0,0,0,.36.06.85.85,0,0,0,.27-.09,5.57,5.57,0,0,0,2.85-3.57,6.56,6.56,0,0,0,5.95,1,.7.7,0,0,0,.47-.78A6.06,6.06,0,0,0,67.44,90a5.78,5.78,0,0,0,1.91-2.61l.09,0c2.19-.82,4.48-1.67,6.52-2.52l-.53-1.28c-1.85.78-3.91,1.55-5.94,2.31a.62.62,0,0,0-.27-.21,6,6,0,0,0-4.68-.18,4.61,4.61,0,0,0-1.3.87,4.16,4.16,0,0,0-.89-1.61c.92-.31,2-.66,3.24-1.06a.7.7,0,0,0,.47-.56c.13-.86,1.15-8.07,0-11.13a2.92,2.92,0,0,0,.38-.6.68.68,0,0,0,0-.62,7.9,7.9,0,0,0-5.13-4.12c-.2,0-.4-.08-.6-.11.13-.13.23-.28.35-.41a67.81,67.81,0,0,1,6.15,3.41c.35.59.9,4.13,1.34,12.29a.7.7,0,0,0,.77.65c.06,0,.1,0,.12,0,4.55-1.45,8.79-2.88,10.46-4.27a17.08,17.08,0,0,0,3.09-4A6.78,6.78,0,0,0,84.62,76a13.89,13.89,0,0,1-3.27,4.39,19.52,19.52,0,0,1-3.29,1.92l.61,1.25a20.62,20.62,0,0,0,3.51-2.06,14.68,14.68,0,0,0,3.61-4.75,9.91,9.91,0,0,0,2.52.94,1.47,1.47,0,0,0,.21,0,.74.74,0,0,0,.59-.44,8.67,8.67,0,0,0,.28-6.76,5.61,5.61,0,0,0-.41-.77c.3-.75.59-1.53.88-2.34A5.66,5.66,0,0,0,91,66.48a7.56,7.56,0,0,0,1.83-5.28.71.71,0,0,0-.5-.62l-.22,0a13.78,13.78,0,0,0,.4-1.45.47.47,0,0,0,0-.26l-.49-4.49a.71.71,0,0,0-.6-.62.7.7,0,0,0-.73.44s-1,2.68-2.5,6.17a7.24,7.24,0,0,0-2.62,1,6.05,6.05,0,0,0-.67.47c-.25-3.23-3.12-5.35-3.27-5.46a.71.71,0,0,0-.87,0,6.29,6.29,0,0,0-2.17,6.53c-5.91-1.81-7.53,1.66-7.6,1.82a.7.7,0,0,0,0,.63,7.83,7.83,0,0,0,5.13,4.11q.3.08.6.12a7.73,7.73,0,0,0-2.28,5.1,11.71,11.71,0,0,0,.38,4,.63.63,0,0,0,.22.31c-1.58.61-3.43,1.23-5.32,1.84-.65-11.48-1.39-12.07-1.75-12.37-.2-.15-.78-.62-6.24-3.49a8.24,8.24,0,0,0,1.11-3.57,11.63,11.63,0,0,0-.38-4,.7.7,0,0,0-.78-.48c-4.09.66-6,2.81-6.93,4.52-.09.2-.19.39-.27.58A8.5,8.5,0,0,0,49.1,58.4a.67.67,0,0,0-.78.42c-1,2.58-1.11,4.86-.27,6.76a6.46,6.46,0,0,0,1.67,2.28,6,6,0,0,0-3.3,1.75,7.47,7.47,0,0,0-1.83,5.29.68.68,0,0,0,.5.61,8,8,0,0,0,6.73-.75,7.77,7.77,0,0,0,.67-.48,8.26,8.26,0,0,0,3.27,5.46.67.67,0,0,0,.48.13.68.68,0,0,0,.39-.17,6.28,6.28,0,0,0,2.17-6.52c3.05.93,5,.45,6.09-.24.62,2.35.18,7.21-.14,9.52-1.48.47-2.64.86-3.69,1.22a5.55,5.55,0,0,0-2.65-.56.67.67,0,0,0-.61.5A6.16,6.16,0,0,0,57.55,85,16.63,16.63,0,0,0,52.08,88C50,90.18,48.9,95.83,47.8,101.82c-.06.36-.13.71-.19,1.06a.75.75,0,0,0-.65-.25,6.07,6.07,0,0,0-4.78,3.16,6,6,0,0,0-3.58-2.19.67.67,0,0,0-.77.41,6,6,0,0,0-.18,4.69,5,5,0,0,0,.86,1.3,4.12,4.12,0,0,0-1.91,1.13,5.29,5.29,0,0,0-1.28,3.7.7.7,0,0,0,.5.61,5.58,5.58,0,0,0,4.83-.61,4.17,4.17,0,0,0,.4,1.19c-4.86,3.19-12.22,7.45-12.3,7.5a.71.71,0,0,0-.34.68l0,8.17a.67.67,0,0,0,.37.53.62.62,0,0,0,.4.08l.24,0c1.77-.93,18.15-10.36,20-13.07s2.68-7,3.39-11.25c2.39-.43,8.3-1.41,11.29-.9a6.6,6.6,0,0,1,2.27,1,8.22,8.22,0,0,0,3.82,4.39l.58.27a8.46,8.46,0,0,0-3.66,5.46.67.67,0,0,0,.42.78,12.8,12.8,0,0,0,2.6.73l.21-1.38a8.46,8.46,0,0,1-1.73-.44c.41-1.32,1.72-4.52,5-4.5h.19a.71.71,0,0,0,.68-.69.69.69,0,0,0-.66-.7h-.21c-.93,0-5.25-.54-6.42-6,1.59-.32,6-.78,8.15,3.21a.69.69,0,0,0,.86.32.71.71,0,0,0,.43-.81c0-.16-.84-3.85,3.16-6.33.67.53,2.25,2.34.31,7.11a.69.69,0,0,0,.2.78.68.68,0,0,0,.81,0,5.15,5.15,0,0,1,2-.59,4.91,4.91,0,0,1,3.89,1.49c-.83.93-3,2.88-5.77,2.06a.69.69,0,0,0-.55,1.26A6.2,6.2,0,0,1,83,122a6.06,6.06,0,0,1-3.76-1.45,5.63,5.63,0,0,1-1.48-4.37.71.71,0,0,0-.57-.69.68.68,0,0,0-.77.43,5.38,5.38,0,0,1-3.6,3l.32,1.35a6.4,6.4,0,0,0,3.4-2,6.08,6.08,0,0,0,1.74,3.31,7.58,7.58,0,0,0,5.29,1.83h0a.83.83,0,0,0,.63-.48,8,8,0,0,0-.76-6.73,7.39,7.39,0,0,0-.48-.68c3.24-.24,5.36-3.11,5.47-3.26a.71.71,0,0,0,0-.87A6.29,6.29,0,0,0,81.84,109.22ZM88,68.48a3,3,0,0,0-.26-.25l.39-.11Zm3-11.22.17,1.57c-.06.23-.21.73-.42,1.44a8.2,8.2,0,0,0-1-.07C90.26,59.1,90.67,58.1,91,57.26ZM79.28,69.49a.7.7,0,0,0-.41-1.31l-.11,0c-.16,0-3.85.84-6.32-3.17.52-.67,2.33-2.25,7.1-.3a.7.7,0,0,0,.79-.2.71.71,0,0,0,0-.82,5.07,5.07,0,0,1-.59-2,4.89,4.89,0,0,1,1.5-3.88c.92.83,2.89,3,2,5.76a.7.7,0,0,0,.39.84.69.69,0,0,0,.87-.28,6.19,6.19,0,0,1,6.83-2.38A6,6,0,0,1,90,65.55,5.62,5.62,0,0,1,85.6,67a.67.67,0,0,0-.69.55.69.69,0,0,0,.44.77A5.59,5.59,0,0,1,88.1,71.1a7,7,0,0,1-.1,5.09c-1.32-.41-4.52-1.71-4.5-5,0-.11,0-.18,0-.2a.71.71,0,0,0-.69-.68.67.67,0,0,0-.69.67c0,.07,0,.14,0,.21,0,.92-.54,5.24-6.05,6.42C75.75,76.05,75.29,71.63,79.28,69.49ZM57.86,71.37a.69.69,0,0,0-.84,1,5,5,0,0,1,.6,2,4.92,4.92,0,0,1-1.5,3.88c-.93-.83-2.89-3-2-5.76a.71.71,0,0,0-.39-.84.64.64,0,0,0-.85.28A6.2,6.2,0,0,1,46,74.31a6.06,6.06,0,0,1,1.45-3.76,5.63,5.63,0,0,1,4.37-1.48.66.66,0,0,0,.69-.55.69.69,0,0,0-.43-.78A5.47,5.47,0,0,1,49.33,65a6.92,6.92,0,0,1,.09-5.1c1.33.41,4.52,1.72,4.5,5v.2a.69.69,0,0,0,.69.67.67.67,0,0,0,.69-.66,1.47,1.47,0,0,0,0-.21c0-.92.54-5.24,6.06-6.42.31,1.59.77,6-3.22,8.16a.7.7,0,0,0-.32.86.71.71,0,0,0,.81.42c.17,0,3.85-.84,6.33,3.17C64.44,71.74,62.63,73.31,57.86,71.37Zm2.67,17.31A3.89,3.89,0,0,1,59,84.56a3.65,3.65,0,0,1,2.16.89,3.49,3.49,0,0,1,.92,2.74.68.68,0,0,0,.56.69.69.69,0,0,0,.78-.43,3.44,3.44,0,0,1,1.68-1.69,4.32,4.32,0,0,1,3,0c-.33.93-1.18,2.67-3.07,2.63H65a.7.7,0,0,0-.68.69.68.68,0,0,0,.66.7h.14a4.39,4.39,0,0,1,4,3.63c-1.16.2-3.69.31-4.95-2.07a.69.69,0,0,0-.86-.33.72.72,0,0,0-.43.82A3.79,3.79,0,0,1,61,96.66c-.42-.43-1.14-1.61,0-4.36a.68.68,0,0,0-.2-.79.63.63,0,0,0-.51-.17.39.39,0,0,0-.28.15,2.93,2.93,0,0,1-3.46-.42A3.5,3.5,0,0,1,60,89.94a.68.68,0,0,0,.82-.38A.68.68,0,0,0,60.53,88.68ZM36.75,114.22a3.67,3.67,0,0,1,.89-2.16,3.46,3.46,0,0,1,2.74-.91.7.7,0,0,0,.69-.57.68.68,0,0,0-.43-.77A3.49,3.49,0,0,1,39,108.13a4.27,4.27,0,0,1,0-3c.93.33,2.66,1.18,2.62,3.07a.17.17,0,0,0,0,.08.69.69,0,0,0,1.38,0,.65.65,0,0,1,0-.14,4.36,4.36,0,0,1,3.62-4,4.47,4.47,0,0,1-2.07,5,.67.67,0,0,0-.32.86.7.7,0,0,0,.81.42,3.79,3.79,0,0,1,3.87,1.86c-.43.43-1.6,1.14-4.36,0a.7.7,0,0,0-.79.2.69.69,0,0,0-.06.82,2.9,2.9,0,0,1-.42,3.46,3.54,3.54,0,0,1-1.13-3.45.67.67,0,0,0-.38-.82.74.74,0,0,0-.36-.06.6.6,0,0,0-.48.31A3.89,3.89,0,0,1,36.75,114.22Zm27.53-7.88c-3.33-.56-9.68.51-12.25,1a.68.68,0,0,0-.55.56c-.67,4-1.51,8.6-3.26,11.18-1.18,1.76-11.75,8.51-18.57,12.14l.19-6.71c1.59-.93,7.71-4.51,12-7.31a6.21,6.21,0,0,0,1.07,1,.68.68,0,0,0,.49.13.59.59,0,0,0,.38-.18A4.54,4.54,0,0,0,45.35,114c3.82,1,4.91-1.34,5-1.45a.77.77,0,0,0,0-.63,5.84,5.84,0,0,0-2.62-2.52c.55-2.15,1-4.65,1.51-7.31,1-5.26,2-11.22,3.9-13.08a14.35,14.35,0,0,1,4.53-2.56,5.42,5.42,0,0,0,.81,2A5.85,5.85,0,0,0,55,90.66a.71.71,0,0,0,.05.87,6.3,6.3,0,0,0,.84.75c-2.1,2.3-3,6.75-3.72,11.17a.7.7,0,0,0,.8.81c5.57-.89,9.86-.78,11.77.32.38.23.84.54,1.33.9a.71.71,0,0,0-.45.77,5.29,5.29,0,0,0,.13.6A5.8,5.8,0,0,0,64.28,106.34Z"/><polygon class="cls-8" points="57.3 65.51 56.04 64.95 54.9 67.52 53.24 65.28 52.13 66.09 54.03 68.67 51.31 70.41 52.05 71.58 54.5 70.02 54.84 73.06 56.22 72.91 55.88 69.88 58.57 70.86 59.04 69.54 56 68.44 57.3 65.51"/><path class="cls-8" d="M32.58,87.35a10.12,10.12,0,0,0,4.79,1.15,9.12,9.12,0,0,0,1-.06c2.45-.27,5.65-1.55,8.55-5.71a.6.6,0,0,0,.1-.59.64.64,0,0,0-.41-.44,15.1,15.1,0,0,0-5.5-.86,9.68,9.68,0,0,0-8.82,5.61A.69.69,0,0,0,32.58,87.35Zm8.56-5.13a14.09,14.09,0,0,1,4.11.49c-4.59,5.86-9.64,4.45-11.36,3.73A8.18,8.18,0,0,1,41.14,82.22Z"/><path class="cls-8" d="M58,130.16a.53.53,0,0,0-.49.54,7.9,7.9,0,0,0,1.19,3.61,6.24,6.24,0,0,0,.45.64c1.17,1.5,3.31,3.08,7.21,3.31a.49.49,0,0,0,.43-.18.52.52,0,0,0,.13-.45,12.33,12.33,0,0,0-1.67-4A7.48,7.48,0,0,0,58,130.16Zm.64,1a6.33,6.33,0,0,1,5.71,3.05,10.75,10.75,0,0,1,1.34,2.9C60,136.5,58.86,132.61,58.63,131.19Z"/><path class="cls-8" d="M85.71,89.41a.7.7,0,0,0-.53,0,.62.62,0,0,0-.39.37c-.12.25-2.69,6.13-.53,10.45a7.71,7.71,0,0,0,5.55,4,.9.9,0,0,0,.23,0,.68.68,0,0,0,.56-.44,15.12,15.12,0,0,0,.88-5.56A9.45,9.45,0,0,0,85.71,89.41Zm3.8,13.24a6.09,6.09,0,0,1-4-3.06c-1.48-2.94-.3-7,.28-8.59a8,8,0,0,1,4.31,7.18A14.58,14.58,0,0,1,89.51,102.65Z"/><path class="cls-13" d="M180.62,82.11c0,2-2.87,2.13-2.87,2.13s2.08,1,1.44,2.83-3.36-.89-3.36-.89,1.6,3.5-.75,3.51-2.23-3.46-2.23-3.46-.93,3.7-2.71,1.92,1-3,1-3-3.82,1.29-3.83-1.22,3.14-1.39,3.14-1.39-3.35-2.39-1.82-3.94S171.89,80,171.89,80s-.86-3.56,1.54-3.57,1.87,3.41,1.87,3.41,1.06-2.28,2.6-1.75-.09,3.13-.09,3.13,2.81-1.09,2.81.94Zm0,0"/><path class="cls-14" d="M97.13,82.28c0,2,2.88,2.12,2.88,2.12s-2.08,1-1.43,2.83,3.36-.9,3.36-.9-1.61,3.49.74,3.49,2.22-3.47,2.22-3.47.94,3.69,2.72,1.91-1-3-1-3,3.83,1.27,3.83-1.24-3.15-1.38-3.15-1.38,3.34-2.4,1.8-3.94-3.24,1.33-3.24,1.33.84-3.56-1.55-3.55-1.86,3.41-1.86,3.41-1.07-2.27-2.61-1.74.1,3.13.1,3.13-2.81-1.06-2.8,1Zm0,0"/><path class="cls-11" d="M169.1,140.08l-60.21.12a6.65,6.65,0,0,1-6.67-6.64l-.08-39.25,73.52-.15.08,39.26a6.65,6.65,0,0,1-6.64,6.66Zm0,0"/><path class="cls-10" d="M132.34,140.16l-23.45,0a6.65,6.65,0,0,1-6.67-6.64l-.08-39.25,36.76-.07.08,39.25a6.66,6.66,0,0,1-6.64,6.67Zm0,0"/><rect class="cls-10" x="97.16" y="94.24" width="83.5" height="8.32" transform="translate(-0.2 0.28) rotate(-0.12)"/><rect class="cls-15" x="97.16" y="94.27" width="46.74" height="8.32" transform="translate(-0.2 0.24) rotate(-0.12)"/><path class="cls-15" d="M164.66,82.37l0,20.13h-5l0-20.13a20.8,20.8,0,0,0-41.59.09l0,11.81h-5l0-11.81a25.79,25.79,0,0,1,51.57-.11Zm0,0"/><path class="cls-16" d="M120.57,120.89,103.89,94.31l33.26-.07Zm0,0"/><path class="cls-7" d="M124.9,113.94l-4.33,7L116.22,114l4.33-6.95Zm0,0"/><path class="cls-7" d="M116.51,100.6l-4.31,6.93-4-6.41,4.24-6.83h.15Zm0,0"/><path class="cls-7" d="M124.56,100.59l-4,6.42-4-6.41,3.94-6.33h.14Zm0,0"/><path class="cls-7" d="M132.91,101.07l-4,6.43-4.34-6.91,3.93-6.33h.15Zm0,0"/><path class="cls-17" d="M117.84,94.28s-6.74-11-6.76-20.36c0-17.39,23.33,20.32,23.33,20.32Zm0,0"/><path class="cls-18" d="M124.83,80.26a7.3,7.3,0,0,1-7.5-.62l4.75-2.87c.92,1.11,1.83,2.29,2.75,3.49Zm0,0"/><path class="cls-18" d="M130.89,88.83c-3.51,2.65-8.79-.8-8.79-.8l5.8-3.57c1.09,1.55,2.1,3,3,4.37Zm0,0"/><path class="cls-19" d="M176.19,83A2.22,2.22,0,1,1,174,80.81,2.21,2.21,0,0,1,176.19,83Zm0,0"/><path class="cls-19" d="M106,83.16A2.21,2.21,0,1,1,103.78,81,2.2,2.2,0,0,1,106,83.16Zm0,0"/><path class="cls-7" d="M147.19,81.74a12.49,12.49,0,0,0-12.45,12.5l24.95,0a12.48,12.48,0,0,0-12.5-12.45Zm0,0"/><path class="cls-20" d="M145.77,79.18s1.41-5.09,7.56-4.85c0,0,.43,6-7.56,4.85Zm0,0"/><path class="cls-8" d="M166.38,112.84a.85.85,0,0,0,.75.47.78.78,0,0,0,.72-.47l2.48-5-1.48-.74-1.74,3.51-1.75-3.5-1.48.75Z"/><path class="cls-8" d="M167.13,121.92l-1.75-3.5-1.48.75,2.5,5a.86.86,0,0,0,.75.47.78.78,0,0,0,.72-.47l2.48-5-1.48-.74Z"/><path class="cls-8" d="M167.16,133.23l-1.76-3.5-1.48.75,2.51,5a.84.84,0,0,0,.75.47.77.77,0,0,0,.71-.47l2.49-5-1.49-.75Z"/><path class="cls-8" d="M157.13,110.63l-1.75-3.5-1.48.75,2.5,5a.85.85,0,0,0,.75.47.78.78,0,0,0,.72-.47l2.48-5-1.48-.74Z"/><path class="cls-8" d="M157.15,121.94l-1.75-3.5-1.48.75,2.5,5a.86.86,0,0,0,.75.47.78.78,0,0,0,.72-.47l2.48-5-1.48-.75Z"/><path class="cls-8" d="M157.18,133.25l-1.76-3.5-1.48.75,2.51,5a.84.84,0,0,0,.75.47.77.77,0,0,0,.71-.47l2.49-5-1.49-.75Z"/><path class="cls-8" d="M147.15,110.65l-1.75-3.5-1.48.75,2.5,5a.85.85,0,0,0,.75.47.78.78,0,0,0,.72-.47l2.48-5-1.48-.74Z"/><path class="cls-8" d="M147.17,122l-1.75-3.5-1.48.75,2.5,5a.86.86,0,0,0,.75.47.78.78,0,0,0,.72-.47l2.48-5-1.48-.75Z"/><path class="cls-8" d="M147.2,133.27l-1.76-3.5-1.48.75,2.51,5a.84.84,0,0,0,.75.47.77.77,0,0,0,.71-.47l2.49-5-1.49-.75Z"/><path class="cls-8" d="M180.65,93.32l-9,0,2-6.9-1.6-.45L170,93.34h-4.46l0-11a26.6,26.6,0,0,0-49.79-13,3.89,3.89,0,0,0-3.18-.76c-2.28.65-2.27,4.16-2.27,5.31a32.68,32.68,0,0,0,2,10.34v9.2h-4.45l-2.13-7.35-1.6.46,2,6.89h-2.2l-6.75,0a.82.82,0,0,0-.83.83v8.32a.84.84,0,0,0,.84.83l11.47,0L111.5,108h0l8.37,13.34a.83.83,0,0,0,.69.38,1,1,0,0,0,.74-.39l11.16-17.93h5.62l.06,30.1a5.84,5.84,0,0,1-5.81,5.84l-23.46,0a5.83,5.83,0,0,1-5.83-5.81L103,106h-1.66l.06,27.61a7.5,7.5,0,0,0,7.5,7.47l60.21-.13a7.48,7.48,0,0,0,7.47-7.5l-.06-30.1h4.16a.83.83,0,0,0,.83-.83l0-8.32A.82.82,0,0,0,180.65,93.32ZM138.82,57.48a25,25,0,0,1,25,24.9l0,19.29h-3.32l0-19.3a21.63,21.63,0,0,0-18.21-21.32L142,62.71a19.86,19.86,0,0,1,16.81,19.68v5.38a13.34,13.34,0,0,0-11.66-6.86H147l-.2-.77.88,0a6.86,6.86,0,0,0,4.72-1.56,5.87,5.87,0,0,0,1.71-4.32.86.86,0,0,0-.81-.79h-.46A8,8,0,0,0,146,76.89l-.31-1.24-1.61.4,1.25,5a13.32,13.32,0,0,0-11.28,11.12c-1.51-2.37-4.52-7-7.83-11.42-2.13-2.87-3.92-5.07-5.46-6.78a20,20,0,0,1,18-11.51V60.8a21.64,21.64,0,0,0-19.25,11.87,28.36,28.36,0,0,0-2.51-2.33A24.81,24.81,0,0,1,138.82,57.48Zm5.92,44.23,0-6.65,14.14,0v6.65Zm-19.86,10.68L121.52,107l3-4.88,3.37,5.37Zm-1.51,2.43-2.8,4.49-2.83-4.49-.54-.86,3.35-5.37,3.37,5.35Zm-10.2-7.28,3.34-5.38,3.06,4.87-3.34,5.38Zm-4-6.42,3.35-5.37,3.05,4.85L112.19,106l-3-4.83Zm8.7-6H119L116.51,99l-2.46-3.92Zm6.71,3.94-2.48-4H127Zm-4,6.4-3.05-4.85,3-4.86,3.06,4.85Zm5-4.87,3-4.86,3.36,5.35-3,4.86Zm7.35-1.06-2.77-4.44h5.54Zm4.28-6.11H135.6a11.65,11.65,0,0,1,10.16-10.73l.6,2.43L148,84.7l-.53-2.11a11.64,11.64,0,0,1,11.37,10.77ZM147,78.48a6.28,6.28,0,0,1,5.46-3.3,3.83,3.83,0,0,1-1.12,2.2A5.68,5.68,0,0,1,147,78.48ZM113,70.2c.53-.15,2.51,0,7.87,6.37l-3.93,2.37.86,1.43,4.14-2.51c.91,1.13,1.9,2.41,3,3.88.62.84,1.22,1.67,1.81,2.5l-5,3.1.87,1.41,5.13-3.15c2.28,3.26,4.2,6.21,5.22,7.82l-12.31,0H118.3c-1.16-2-6.37-11.52-6.4-19.54C111.89,71.75,112.27,70.4,113,70.2Zm3.45,23.25H114v-5C114.88,90.61,115.79,92.35,116.4,93.45Zm-5.48,1.67-2.76,4.44-2.78-4.43ZM98,101.8l0-6.65h5.45l4,6.41v0l.14.21Zm39.65-6.73h5.41v6.65l-9.57,0Zm37.26,38.35a5.83,5.83,0,0,1-5.81,5.83l-32.07.07a7.49,7.49,0,0,0,2.78-5.83l-.06-30.11,20,0h5l10.15,0Zm4.92-31.78-14.3,0,0-6.66,14.31,0Z"/></g></svg>