<svg xmlns="http://www.w3.org/2000/svg" width="250" height="250" viewBox="0 0 250 250"><defs><style>.cls-1{fill:#f7f3e8;}.cls-1,.cls-10,.cls-12,.cls-13,.cls-16,.cls-2,.cls-3,.cls-5,.cls-6{stroke:#4d2419;stroke-linejoin:round;}.cls-1,.cls-2,.cls-3,.cls-5,.cls-6{stroke-width:1.5px;}.cls-2{fill:#e5ecf6;}.cls-3{fill:#e3f1e0;}.cls-4{fill:#4d2419;}.cls-5{fill:#c1dbdc;}.cls-16,.cls-6{fill:#e6e8ea;}.cls-12,.cls-7{fill:#dedede;}.cls-8{fill:#bdbdbd;}.cls-9{fill:#a3a3a3;}.cls-10{fill:#3c494b;}.cls-11{fill:#f7f7f7;}.cls-13{fill:#a8dbdd;}.cls-14{fill:#fee07b;}.cls-15{fill:#fad864;}.cls-16{stroke-width:0.75px;}.cls-17{fill:#538dc9;}.cls-18{fill:#8db8e2;}.cls-19{fill:#896091;}.cls-20{fill:#c0c5d7;}.cls-21{fill:#9499a9;}.cls-22{fill:#fdeaac;}.cls-23{fill:#ffc965;}.cls-24{fill:#fff;opacity:0.7;}</style></defs><g id="Layer_180" data-name="Layer 180"><rect class="cls-1" x="39.36" y="19.21" width="104.82" height="70.83" transform="matrix(0.96, 0.27, -0.27, 0.96, 17.89, -22.5)"/><rect class="cls-2" x="46.65" y="26.12" width="90.25" height="57" transform="translate(17.89 -22.5) rotate(15.47)"/><rect class="cls-1" x="99.31" y="154.2" width="110.69" height="74.79" transform="translate(36.76 -24.57) rotate(10.3)"/><rect class="cls-3" x="107" y="161.5" width="95.31" height="60.19" transform="translate(36.76 -24.57) rotate(10.3)"/><rect class="cls-1" x="9.54" y="19.31" width="111.72" height="75.49" transform="translate(-3.21 3.9) rotate(-3.33)"/><rect class="cls-3" x="17.3" y="26.68" width="96.2" height="60.75" transform="translate(-3.21 3.9) rotate(-3.33)"/><path class="cls-4" d="M73.4,37.61a3,3,0,1,1,2.82-3.16,3,3,0,0,1-2.82,3.16Zm-.23-4.08a1.1,1.1,0,1,0,.12,2.19,1.11,1.11,0,0,0,1-1.16,1.1,1.1,0,0,0-1.16-1Zm0,0"/><path class="cls-4" d="M23.57,63.33a3,3,0,1,1,2.82-3.17,3,3,0,0,1-2.82,3.17Zm-.23-4.09a1.11,1.11,0,0,0-1,1.16,1.1,1.1,0,0,0,2.2-.13,1.11,1.11,0,0,0-1.16-1Zm0,0"/><path class="cls-4" d="M25.21,49.78a1.48,1.48,0,0,1-1.38,1.55,1.47,1.47,0,0,1-.18-2.93,1.48,1.48,0,0,1,1.56,1.38Zm0,0"/><path class="cls-4" d="M75.62,83a1.47,1.47,0,1,1-1.56-1.38A1.48,1.48,0,0,1,75.62,83Zm0,0"/><path class="cls-4" d="M46.28,36.19a1.47,1.47,0,1,1-1.55-1.38,1.47,1.47,0,0,1,1.55,1.38Zm0,0"/><path class="cls-4" d="M20.47,38.9a.88.88,0,0,1-.68-.24.94.94,0,0,1-.08-1.34l3.15-3.54A.95.95,0,0,1,24.28,35l-3.16,3.55a.93.93,0,0,1-.65.31Zm0,0"/><path class="cls-4" d="M23.82,38.71a1,1,0,0,1-.69-.24l-3.54-3.16a.95.95,0,1,1,1.26-1.41l3.55,3.15a1,1,0,0,1-.58,1.66Zm0,0"/><path class="cls-4" d="M88.29,41.2A1,1,0,0,1,87.6,41a1,1,0,0,1-.08-1.34l3.16-3.54a.95.95,0,1,1,1.41,1.26l-3.15,3.54a1,1,0,0,1-.65.32Zm0,0"/><path class="cls-4" d="M91.63,41a.88.88,0,0,1-.68-.24l-3.54-3.15a.95.95,0,0,1,1.26-1.42l3.54,3.16A.94.94,0,0,1,91.63,41Zm0,0"/><path class="cls-5" d="M54.37,86.1,54.24,84a2.36,2.36,0,0,1,2.49-2.5l4.62.23a9.59,9.59,0,0,0,6.49-2.1l2.87-2.31a2.48,2.48,0,1,0-3.15-3.82l-2.75,2.31a5.76,5.76,0,0,1-3.38,1.34l-2.38.14a2.33,2.33,0,0,1-2.47-2.2,3.64,3.64,0,0,1,1.78-3.36l4.26-2.54a14.4,14.4,0,0,1,6.51-2L72.74,67a2.37,2.37,0,1,0-.28-4.74l-2.1.13a2.16,2.16,0,0,1-1.27-4l4.19-2.62a2.39,2.39,0,1,0-2.57-4L67.29,54A7.64,7.64,0,0,0,64,58.71l-1.13,5a1.11,1.11,0,0,1-2.19-.17l-.12-2.08a2.37,2.37,0,0,0-4.74.28l.18,3.1a6.19,6.19,0,0,1-2.33,5.21l-.37.29A6,6,0,0,0,51,74.48l-.51,4.68-1.76-6.74A12.68,12.68,0,0,1,50,62.91a12.76,12.76,0,0,0,1.65-7l0-.69a3,3,0,0,1,4-3l2.64.88a2,2,0,1,0,1.17-3.88l-1.08-.29.83-1.94a5.21,5.21,0,0,1,4.48-3.15l3-.17a2.38,2.38,0,0,0-.27-4.76L64,39l-.14-2.39a2.37,2.37,0,0,0-4.74.27l.08,1.34a2.34,2.34,0,0,1-4.13,1.65l-.34-.41a2.5,2.5,0,1,0-3.82,3.23l.76.91a3,3,0,0,1-3.8,4.52l-3.19-1.87a9.24,9.24,0,0,1-3.32-3.34L39.9,40.39a2.67,2.67,0,0,0-4.62,2.66l2.66,4.62-4.85,1.76A2.45,2.45,0,1,0,35,53.94l3.91-1.83a5.62,5.62,0,0,1,5.65.5A5.8,5.8,0,0,1,47,57a6.38,6.38,0,0,1-.89,3.62l-1.29,2.15-1.37-2.37A2.59,2.59,0,1,0,39,63.12l2.32,3.55a13.73,13.73,0,0,1,2,4.78l1.15,5.68-3.21-1.07a8,8,0,0,1-4.39-3.59l-.4-.7A3.57,3.57,0,0,1,36.07,69l.15-.56a2.76,2.76,0,0,0-.82-2.77l-.74-.66a2,2,0,0,0-3,.47,1.92,1.92,0,0,1-2.63.69l-.08,0a2.28,2.28,0,0,0-2.53,3.78l5.71,4.35a1.18,1.18,0,0,1-.13,2L29.54,77.7a2.78,2.78,0,1,0,3.06,4.63l2-1.53a5.89,5.89,0,0,1,5.89-.7l1.49.65a4.66,4.66,0,0,1,2.78,4l.12,1.91,9.47-.55Zm0,0"/><rect class="cls-1" x="19.53" y="48.22" width="111.72" height="75.49" transform="translate(-25.98 33.06) rotate(-21.19)"/><rect class="cls-6" x="27.29" y="55.59" width="96.2" height="60.75" transform="translate(-25.98 33.06) rotate(-21.19)"/><path class="cls-7" d="M65.94,70,53.68,72.52,42.9,78.91l3.35,3.22,10.56-1.55,8.83-6Zm0,0"/><path class="cls-8" d="M48.65,81.2,45.31,78l-2.41.93,3.35,3.22Zm0,0"/><path class="cls-4" d="M57,81.05l-.08,0L46.32,82.63a.51.51,0,0,1-.42-.14l-3.35-3.22a.53.53,0,0,1-.15-.42.51.51,0,0,1,.25-.37l10.77-6.39a.44.44,0,0,1,.16-.06l12.26-2.54a.51.51,0,0,1,.43.11.49.49,0,0,1,.17.41l-.3,4.64a.5.5,0,0,1-.22.38l-8.83,6A.31.31,0,0,1,57,81.05Zm-10.54.55,10.2-1.5,8.54-5.76.24-3.74L53.86,73,43.72,79Z"/><path class="cls-8" d="M56.05,114.08l-9.8-31.95,19.41-7.52L80,104.81l1.11,2.88L57.17,117Zm0,0"/><path class="cls-9" d="M48.65,81.2l-2.4.93,9.8,32L57.17,117l2.4-.94-1.11-2.88Zm0,0"/><path class="cls-4" d="M57.32,117.43a.5.5,0,0,1-.36,0,.49.49,0,0,1-.26-.27l-1.12-2.88a.06.06,0,0,0,0,0l-9.8-31.94a.49.49,0,0,1,.3-.61l19.4-7.53a.5.5,0,0,1,.64.25L80.4,104.6l1.13,2.91a.46.46,0,0,1,0,.38.48.48,0,0,1-.27.27l-23.9,9.26Zm-.8-3.52.93,2.4,23-8.9L79.48,105,65.4,75.24,46.86,82.43Z"/><path class="cls-10" d="M64.58,92.56a3,3,0,0,0-5.43,2.11l.76,4.24,4.19.47,2.77-3.17Zm0,0"/><path class="cls-8" d="M63.85,64.59A.66.66,0,0,0,63,64.2l-1.3.5a.69.69,0,0,0-.39.88l.64,1.63-2.56,1-.64-1.63a.67.67,0,0,0-.87-.39l-1.3.51a.67.67,0,0,0-.39.87l.64,1.64-2.56,1-.64-1.63a.67.67,0,0,0-.87-.39l-1.3.5a.69.69,0,0,0-.39.88l.63,1.63-2.56,1-.63-1.63a.66.66,0,0,0-.87-.38l-1.3.5a.68.68,0,0,0-.39.87l.63,1.64-2.56,1-.63-1.63a.68.68,0,0,0-.88-.39l-1.29.5a.69.69,0,0,0-.39.88l2.09,5.39,23-8.93Zm0,0"/><path class="cls-9" d="M43.18,72.26a.69.69,0,0,0-.69-.12l-1.29.5a.69.69,0,0,0-.39.88l2.09,5.39L45.31,78l-2.09-5.39a.63.63,0,0,1,0-.33Zm0,0"/><path class="cls-4" d="M43.05,79.39a.49.49,0,0,1-.61-.3l-2.1-5.39A1.18,1.18,0,0,1,41,72.18l1.29-.5a1.17,1.17,0,0,1,1.53.67l.45,1.16,1.63-.63-.45-1.16a1.18,1.18,0,0,1,.67-1.53l1.3-.5a1.13,1.13,0,0,1,.9,0,1.23,1.23,0,0,1,.62.65l.45,1.17L51,70.9l-.45-1.17a1.17,1.17,0,0,1,.67-1.52l1.29-.51a1.24,1.24,0,0,1,.91,0,1.18,1.18,0,0,1,.62.66l.45,1.16,1.63-.63-.45-1.17a1.13,1.13,0,0,1,0-.9,1.2,1.2,0,0,1,.65-.62l1.3-.5a1.13,1.13,0,0,1,.9,0,1.16,1.16,0,0,1,.62.65l.45,1.17,1.63-.63-.45-1.17a1.17,1.17,0,0,1,.67-1.52l1.3-.51a1.18,1.18,0,0,1,1.52.67h0l2.09,5.39a.5.5,0,0,1-.29.64l-23,8.94Zm-.37-6.79h0l-1.29.5a.17.17,0,0,0-.1.23l1.91,4.92L65.3,69.69l-1.91-4.92a.2.2,0,0,0-.23-.11l-1.3.51a.17.17,0,0,0-.1.23L62.39,67a.46.46,0,0,1,0,.38.51.51,0,0,1-.27.27l-2.56,1a.48.48,0,0,1-.65-.29l-.63-1.63a.18.18,0,0,0-.23-.1l-1.3.5a.18.18,0,0,0-.1.23L57.27,69a.51.51,0,0,1-.28.65l-2.56,1a.5.5,0,0,1-.65-.28l-.63-1.63a.16.16,0,0,0-.23-.1l-1.3.5a.2.2,0,0,0-.1.23L52.15,71a.46.46,0,0,1,0,.38.51.51,0,0,1-.27.27l-2.57,1a.48.48,0,0,1-.64-.29L48,70.72a.18.18,0,0,0-.23-.1l-1.3.5a.18.18,0,0,0-.1.23L47,73a.5.5,0,0,1-.29.64l-2.56,1a.49.49,0,0,1-.64-.28l-.63-1.63A.19.19,0,0,0,42.68,72.6Z"/><path class="cls-8" d="M93.2,76.16a5,5,0,0,0-2.85,6.46l2.35,6.07L102,85.08,99.66,79a5,5,0,0,0-6.46-2.85Zm0,0"/><path class="cls-9" d="M94.47,75.86a4.79,4.79,0,0,0-1.27.3,5,5,0,0,0-2.85,6.46l2.35,6.07,2.41-.93-2.35-6.07a5,5,0,0,1,1.71-5.83Zm0,0"/><path class="cls-4" d="M92.86,89.16a.5.5,0,0,1-.36,0,.49.49,0,0,1-.26-.27L89.89,82.8A5.47,5.47,0,0,1,93,75.7h0a5.48,5.48,0,0,1,7.1,3.13l2.36,6.07a.5.5,0,0,1,0,.38.53.53,0,0,1-.28.27l-9.3,3.6Zm.52-12.53a4.49,4.49,0,0,0-2.56,5.81L93,88l8.38-3.24-2.18-5.61a4.41,4.41,0,0,0-2.37-2.48,4.51,4.51,0,0,0-3.44-.08Z"/><path class="cls-8" d="M74.83,83.29a5,5,0,0,1,6.45,2.85l2.36,6.06-9.31,3.61L72,89.75a5,5,0,0,1,2.85-6.46Zm0,0"/><path class="cls-9" d="M76.09,83a5.16,5.16,0,0,0-1.26.31A5,5,0,0,0,72,89.75l2.35,6.06,2.4-.93-2.35-6.07A5,5,0,0,1,76.09,83Zm0,0"/><path class="cls-4" d="M74.48,96.29a.47.47,0,0,1-.35,0,.5.5,0,0,1-.27-.28l-2.35-6.06a5.51,5.51,0,0,1,3.14-7.11h0A5.49,5.49,0,0,1,81.75,86L84.1,92a.48.48,0,0,1,0,.39.49.49,0,0,1-.27.26l-9.31,3.61ZM75,83.75a4.5,4.5,0,0,0-2.57,5.81l2.17,5.61L83,91.92l-2.17-5.6A4.5,4.5,0,0,0,75,83.75Z"/><path class="cls-11" d="M100.74,78.53l-2.32.9a1.22,1.22,0,0,0-.7,1.58l.68,1.74-4.6,1.78-.67-1.74a1.23,1.23,0,0,0-1.58-.7l-2.32.9a1.22,1.22,0,0,0-.7,1.58l.68,1.74-4.6,1.78-.67-1.74a1.22,1.22,0,0,0-1.58-.7l-2.32.9a1.22,1.22,0,0,0-.7,1.58L80,89.87l-4.59,1.78-.68-1.74a1.22,1.22,0,0,0-1.58-.7l-2.32.9a1.22,1.22,0,0,0-.69,1.58L77,109.28l32.16-12.47-6.81-17.59a1.23,1.23,0,0,0-1.58-.69Zm0,0"/><path class="cls-7" d="M90.94,83.63a1.22,1.22,0,0,1,.65-1.56l0,0-2.32.9a1.22,1.22,0,0,0-.7,1.58l.68,1.74,2.4-.93Zm0,0"/><path class="cls-7" d="M100.13,80.07a1.22,1.22,0,0,1,.65-1.56l0,0-2.32.9a1.22,1.22,0,0,0-.7,1.58l.68,1.74,2.4-.94Zm0,0"/><path class="cls-7" d="M72.56,90.76a1.23,1.23,0,0,1,.66-1.56h0l-2.32.9a1.22,1.22,0,0,0-.69,1.58L77,109.28l2.41-.93Zm0,0"/><path class="cls-7" d="M81.75,87.2a1.22,1.22,0,0,1,.65-1.56h0l-2.32.9a1.22,1.22,0,0,0-.7,1.58L80,89.87l2.41-.93Zm0,0"/><path class="cls-4" d="M77.13,109.75a.5.5,0,0,1-.62-.29L69.69,91.87a1.72,1.72,0,0,1,1-2.22l2.32-.9a1.71,1.71,0,0,1,2.23,1L75.71,91l3.66-1.41-.49-1.28a1.68,1.68,0,0,1,0-1.32,1.73,1.73,0,0,1,1-.91l2.32-.89a1.7,1.7,0,0,1,2.22,1l.5,1.27L88.56,86l-.49-1.27a1.73,1.73,0,0,1,1-2.23l2.32-.9a1.71,1.71,0,0,1,2.22,1l.5,1.27,3.66-1.42-.49-1.27a1.68,1.68,0,0,1,0-1.32,1.7,1.7,0,0,1,.95-.91l2.32-.9h0a1.73,1.73,0,0,1,2.22,1l6.82,17.59a.51.51,0,0,1-.29.65L77.16,109.74ZM73.39,89.67h0l-2.31.9a.72.72,0,0,0-.42.93l6.64,17.12,31.23-12.11L101.85,79.4a.73.73,0,0,0-.93-.41l-2.32.9a.74.74,0,0,0-.4.38.7.7,0,0,0,0,.55l.67,1.74a.51.51,0,0,1-.28.65L94,85a.42.42,0,0,1-.38,0,.46.46,0,0,1-.26-.27L92.66,83a.72.72,0,0,0-.93-.42l-2.32.9a.74.74,0,0,0-.41.94l.67,1.74a.5.5,0,0,1,0,.38.51.51,0,0,1-.28.26l-4.6,1.78a.48.48,0,0,1-.64-.28l-.68-1.74a.71.71,0,0,0-.93-.41l-2.32.9a.71.71,0,0,0-.4.38.75.75,0,0,0,0,.55l.68,1.74a.5.5,0,0,1-.29.65l-4.59,1.78a.53.53,0,0,1-.39,0,.55.55,0,0,1-.26-.28l-.67-1.74A.72.72,0,0,0,73.39,89.67Z"/><rect class="cls-12" x="77.85" y="94.34" width="4.12" height="4.15" transform="translate(-29.45 35.41) rotate(-21.19)"/><rect class="cls-12" x="87.04" y="90.78" width="4.12" height="4.15" transform="translate(-27.54 38.49) rotate(-21.19)"/><rect class="cls-12" x="96.23" y="87.22" width="4.12" height="4.15" transform="translate(-25.63 41.57) rotate(-21.19)"/><path class="cls-13" d="M37.28,120.32a10.76,10.76,0,0,1,10-3.86,10.76,10.76,0,0,0,10-3.87,10.76,10.76,0,0,1,10-3.87,10.75,10.75,0,0,0,10-3.87,10.75,10.75,0,0,1,10-3.86,10.77,10.77,0,0,0,10-3.87,10.75,10.75,0,0,1,10-3.87,10.77,10.77,0,0,0,10-3.86,10.72,10.72,0,0,1,10-3.87l4.38,11.3-89.77,34.8Zm0,0"/><path class="cls-12" d="M66.87,96.21l-7,2.7a1.28,1.28,0,0,0-.73,1.64l1,2.47,9.33-3.62-1-2.47a1.26,1.26,0,0,0-1.64-.72Zm0,0"/><rect class="cls-1" x="126.9" y="128.93" width="111.31" height="75.21" transform="translate(61.44 -48.85) rotate(18.28)"/><rect class="cls-6" x="134.64" y="136.27" width="95.84" height="60.53" transform="translate(61.44 -48.85) rotate(18.28)"/><path class="cls-14" d="M162.88,163.21c-.21-1.16-.42-2.12-.58-2.82,0-.19-.1-.48-.18-.83-1.3-5.71-1.89-7.41-3.43-10.26-2-3.67-2.07-10.71-2.06-12.78a.48.48,0,0,0-.59-.47c-11.68,3-13.16,8.06-11,20.16,1.89,9.52,8,18,17.43,17.74.43-.06,1.2.06,1.24-.55,0-1.5,0-2.78-.09-3.75A54.9,54.9,0,0,0,162.88,163.21Z"/><path class="cls-15" d="M168.94,137.44c-2.7-2.24-7.9-2.35-12-1.57-1.14,1,0,10.35,1.67,13.48,1.5,2.83,2.57,7,3.43,10.26,0,.16.09.38.17.68a49.61,49.61,0,0,1,.86,4.92c.06.46.09.69.1.81a45.09,45.09,0,0,1,.47,7.23.48.48,0,0,0,.57.47C179.2,171,177.89,144.94,168.94,137.44Z"/><path class="cls-4" d="M175.38,150.1c-1.37-6.76-3.28-10.76-6.22-12.94-4.66-4.46-21.15-1.14-23.72,4.77-1.86,3.16-2.08,7.58-.72,14.35,1.25,6.21,3.94,11.2,7.78,14.44a13.36,13.36,0,0,0,21.29-4.29c2.29-4.47,2.84-10.12,1.59-16.33Zm-22.34,20c-3.69-3.12-6.29-8-7.5-14-1.32-6.55-1.13-10.79.62-13.75,1.62-2.74,4.71-4.55,10-5.85,0,2.05.08,9.23,2.12,13a44,44,0,0,1,3.38,10.15,4,4,0,0,1-1.62-.36.42.42,0,0,0-.37.75,4.45,4.45,0,0,0,2.14.43h0c.35,1.62.64,3.24.86,4.83-2.21.59-6.61-.64-7.73-1.38a3.3,3.3,0,0,1,1.28-1.12c.49-.23.1-1-.38-.74a4.75,4.75,0,0,0-2.45,4.14.42.42,0,0,0,.84,0,4.48,4.48,0,0,1,.31-1.53c1.25.81,5.78,2.09,8.24,1.46a55.23,55.23,0,0,1,.46,7.25A13.23,13.23,0,0,1,153,170.08Zm20-4a13.07,13.07,0,0,1-9,7.21,54.44,54.44,0,0,0-.47-7.3,10.44,10.44,0,0,0,6-4.28,4.63,4.63,0,0,1,.86,1.27.42.42,0,0,0,.77-.31,4.74,4.74,0,0,0-3.86-2.88.42.42,0,0,0-.06.84,3.3,3.3,0,0,1,1.64.55,9.61,9.61,0,0,1-5.41,4c-.23-1.65-.52-3.26-.86-4.81a2.94,2.94,0,0,0,1.57-1.23c.31-.44-.4-.92-.7-.46a2.19,2.19,0,0,1-1.05.87A45.09,45.09,0,0,0,159,149.13c-2-3.68-2-11.11-2-12.79,5.47-.89,9.08-.43,11.66,1.49,2.76,2,4.58,5.89,5.9,12.44,1.21,6,.69,11.48-1.51,15.78Zm0,0"/><path class="cls-16" d="M155.13,151.71a2.74,2.74,0,0,1,1.37,1c-2.13,1.31-3.95,1.75-5.28,1.3a3,3,0,0,1-1.62-1.36C151.88,151.55,153.78,151.21,155.13,151.71Z"/><path class="cls-16" d="M164,149.94c1-1,2.95-1.43,5.49-1.26a3.06,3.06,0,0,1-1,1.87c-1.05.94-2.9,1.23-5.37.86A2.72,2.72,0,0,1,164,149.94Z"/><path class="cls-4" d="M170.86,144.91a7,7,0,0,0-6.64-.13,7.8,7.8,0,0,0-2.48,2,.42.42,0,0,0,.66.51,6.39,6.39,0,0,1,8.08-1.61.42.42,0,0,0,.38-.75Zm0,0"/><path class="cls-4" d="M155.59,148.64a.41.41,0,0,0,.41-.72,7.84,7.84,0,0,0-3.06-.87,7,7,0,0,0-6.07,2.69c-.35.41.3,1,.64.54a6.41,6.41,0,0,1,8.08-1.64Zm0,0"/><path class="cls-17" d="M181.22,168.59a75.12,75.12,0,0,0-5.43,9,17.54,17.54,0,0,0,11.49,1.78c4.68-1,7.71-3.95,10.5-6.67a26.3,26.3,0,0,0,4.69-5.84c1.83-3.13,3.92-6.7,3.18-11-1-5.62-6.19-8.61-7.16-9.14a22.8,22.8,0,0,1-6,9.63c-1.6,1.49-2.66,2-4.94,4.33a70.08,70.08,0,0,0-4.59,5.46C182.66,166.63,182,167.55,181.22,168.59Z"/><path class="cls-18" d="M198.46,146.41c-3.86-3-9.2-5-13.21-3.24-7.09,2.61-15.59,15.65-14.87,23.49.19,4.47,2,8.94,5.55,10.82,3.32-5.74,4.73-8,5.35-8.77l1-1.3,1.34-1.79a74.71,74.71,0,0,1,7.52-7.78,31.54,31.54,0,0,0,7.56-11Z"/><path class="cls-4" d="M206.18,156.83c-.31-3.51-2.4-6.92-7.22-10.51-10.14-7.54-15.46-5.11-23.31,4.94-3.81,5.06-5.76,10.39-5.63,15.41a13.37,13.37,0,0,0,17.35,13.07c4.86-1.26,9.45-4.6,13.26-9.66,4.15-5.51,5.86-9.6,5.55-13.25Zm-35.32,9.82c-.12-4.83,1.76-10,5.46-14.88,7-9.7,13.09-11.34,21.85-5-.71,1.53-4,8.2-7.34,10.67a45,45,0,0,0-7.62,7.86,2.2,2.2,0,0,1-.57-1.24.42.42,0,0,0-.83.12,3,3,0,0,0,.88,1.78q-.66.86-1.32,1.77a13.79,13.79,0,0,0-6.35-1.46,3.88,3.88,0,0,1,.33-1.32.42.42,0,0,0-.75-.37A4.35,4.35,0,0,0,175,169c.32.43,1-.09.66-.52a3,3,0,0,1-.6-1.35,13.13,13.13,0,0,1,5.83,1.3,57.43,57.43,0,0,0-5.06,8.59,13.07,13.07,0,0,1-5-10.37Zm29.1,2.93c-3.7,4.9-8.12,8.14-12.8,9.35a13.22,13.22,0,0,1-10.65-1.42,56.69,56.69,0,0,1,5.11-8.65,8.53,8.53,0,0,1,3.69,6,3.11,3.11,0,0,1-1.5-.19.42.42,0,0,0-.31.77,4.37,4.37,0,0,0,4.34-.84.42.42,0,0,0-.57-.62,4.07,4.07,0,0,1-1.14.67,9.33,9.33,0,0,0-4-6.43c.41-.57.84-1.14,1.27-1.7h0a4.38,4.38,0,0,0,2.12.53.42.42,0,0,0,0-.83,4.37,4.37,0,0,1-1.61-.39,44.38,44.38,0,0,1,7.43-7.68c3.47-2.53,6.66-9,7.53-10.81,4.2,3.45,6.21,6.42,6.48,9.59.3,3.42-1.36,7.33-5.38,12.67Zm0,0"/><path class="cls-16" d="M186,156a2.74,2.74,0,0,1,.13,1.72c-2.38-.74-3.92-1.8-4.47-3.09a3,3,0,0,1-.06-2.11C183.94,153.47,185.45,154.67,186,156Z"/><path class="cls-16" d="M197.77,164.73a2.92,2.92,0,0,1-2,.52c-1.41-.16-2.86-1.35-4.22-3.44C193.78,160.72,195.78,162.25,197.77,164.73Z"/><path class="cls-4" d="M181.39,150.44a.39.39,0,0,0,.32,0,6.38,6.38,0,0,1,7.66,3,.42.42,0,0,0,.75-.38,8,8,0,0,0-2.09-2.4,7,7,0,0,0-6.56-1,.42.42,0,0,0-.08.76Zm0,0"/><path class="cls-4" d="M194.91,157.23a6.4,6.4,0,0,1,4.46,6.93.42.42,0,0,0,.84.08A7,7,0,0,0,197.9,158a8,8,0,0,0-2.76-1.58.42.42,0,0,0-.23.8Zm0,0"/><rect class="cls-1" x="119.61" y="165.21" width="111.31" height="75.21" transform="translate(-13.8 12.8) rotate(-4.02)"/><rect class="cls-6" x="127.35" y="172.56" width="95.84" height="60.53" transform="matrix(1, -0.07, 0.07, 1, -13.8, 12.8)"/><path class="cls-19" d="M174,176.57c-27.8,2.46-24.88,43.82,3,42.36,27.79-2.46,24.88-43.82-3-42.36Z"/><path class="cls-20" d="M190,215.12c-.3-.54-.51-1.36-1.13-1-6.87,5.83-17,6.08-24.58,1.66-3.39,5.94,4.59,7.34,13,6.7,8.36-.82,14.3-2,12.73-7.36Zm0,0"/><path class="cls-21" d="M190.21,217.87c-1.79,2.44-5.32,4-13,4.5-7.16.51-11.57-.32-13.1-2.47a.43.43,0,0,0-.66,0c-6.51,8.22,1.54,10.95,14.28,9.84,12.79-.61,20.83-5,12.45-11.84Z"/><path class="cls-22" d="M198,178.2c-.9-3-.72-3-2.71-.55-3,.91-3,.72-.55,2.72.9,3,.72,3,2.71.55,3-.91,3-.72.55-2.72Zm0,0"/><path class="cls-4" d="M195.74,183a.43.43,0,0,1-.16,0c-.48-.09-.65-.67-1.06-2.06l-.12-.38-.35-.3c-1.09-.89-1.54-1.26-1.45-1.74s.67-.65,2.06-1.06l.39-.11.29-.35c.89-1.1,1.27-1.55,1.74-1.45s.65.67,1.06,2.05l.12.4.34.28c1.1.9,1.55,1.27,1.46,1.75s-.67.65-2.06,1.05l-.39.12-.29.35C196.53,182.53,196.15,183,195.74,183Zm-2.45-4.35a8.51,8.51,0,0,0,1.19,1.08l.52.42.17.59a8,8,0,0,0,.55,1.57,7.73,7.73,0,0,0,1.07-1.2l.43-.51.59-.18a8.78,8.78,0,0,0,1.56-.54,7.63,7.63,0,0,0-1.2-1.08l-.51-.42-.17-.59a8,8,0,0,0-.55-1.57,8.78,8.78,0,0,0-1.08,1.2l-.42.51-.59.18A8.78,8.78,0,0,0,193.29,178.67Z"/><path class="cls-22" d="M190,190.45l-3.13-.92c-3.08-3.53-2.47-3.63-3.8.82-3.52,3.07-3.63,2.47.83,3.79,3.07,3.53,2.46,3.64,3.79-.82l2.47-2.15a.42.42,0,0,0-.16-.72Zm0,0"/><path class="cls-4" d="M186.41,197.07c-.47,0-.89-.47-1.83-1.58-.26-.31-.55-.66-.89-1.05l-1.35-.38c-1.48-.42-2.09-.59-2.2-1.09s.38-.92,1.57-1.92c.31-.25.66-.55,1-.89.15-.51.27-1,.38-1.35.41-1.48.59-2.09,1.09-2.2s.91.39,1.92,1.58l.89,1,3,.9a.76.76,0,0,1,.28,1.31L188,193.51l-.39,1.35c-.41,1.48-.58,2.09-1.08,2.2Zm-2.07-9.79a11.25,11.25,0,0,0-.54,1.71c-.12.42-.25.9-.42,1.46l0,.09-.07.07c-.43.37-.8.69-1.13,1a6.24,6.24,0,0,0-1.34,1.29,10.85,10.85,0,0,0,1.71.54l1.46.42.09,0,.07.08c.37.43.69.8,1,1.13a6.86,6.86,0,0,0,1.28,1.34,9.7,9.7,0,0,0,.55-1.72c.11-.41.25-.89.41-1.45l0-.09,2.55-2.21a.09.09,0,0,0,0-.08.07.07,0,0,0,0-.06h0l-3.24-.95-.06-.08c-.37-.42-.69-.8-1-1.12A6.66,6.66,0,0,0,184.34,187.28Z"/><path class="cls-22" d="M175,208.44c-.48-4.66.07-4.4-3.57-1.51-4.65.49-4.39-.07-1.5,3.58.48,4.65-.07,4.39,3.57,1.5,4.65-.49,4.39.07,1.5-3.57Zm0,0"/><path class="cls-4" d="M170.68,214.45a.66.66,0,0,1-.28,0c-.48-.2-.54-.84-.67-2.39,0-.4-.08-.85-.13-1.37l-.89-1.09c-1-1.18-1.37-1.67-1.17-2.15s.84-.53,2.39-.67c.4,0,.85-.07,1.36-.13l1.1-.88c1.18-1,1.67-1.37,2.14-1.18s.53.84.67,2.39c0,.4.08.85.13,1.37.33.42.63.78.88,1.09,1,1.19,1.38,1.68,1.18,2.15s-.84.53-2.39.67c-.39,0-.85.07-1.37.13l-1.09.88C171.59,214,171.09,214.42,170.68,214.45Zm3.57-9.29a9.58,9.58,0,0,0-1.43,1.08l-1.18,1-.08.06h-.1l-1.47.14a6.53,6.53,0,0,0-1.84.28,11.31,11.31,0,0,0,1.09,1.43c.27.33.59.72.95,1.18l.06.07v.1c.06.56.11,1.05.14,1.48a7.12,7.12,0,0,0,.28,1.84,11.61,11.61,0,0,0,1.43-1.09c.33-.28.72-.6,1.18-1l.08-.06h.1l1.47-.14a6.61,6.61,0,0,0,1.84-.28,11.31,11.31,0,0,0-1.09-1.43c-.28-.33-.59-.72-.95-1.17l-.06-.08v-.1c-.06-.56-.11-1.05-.15-1.48A6.65,6.65,0,0,0,174.25,205.16Z"/><path class="cls-23" d="M185.08,202c-1.11-4.83-.46-4.61-3.93-1.12-4.82,1.11-4.6.46-1.11,3.92,1.1,4.83.45,4.61,3.92,1.12,4.82-1.11,4.61-.46,1.12-3.92Zm0,0"/><path class="cls-4" d="M181.23,208.86l-.21,0c-.5-.14-.64-.78-1-2.34-.09-.43-.19-.92-.32-1.49l-1.13-1.09c-1.13-1.07-1.59-1.52-1.45-2s.79-.64,2.35-1l1.48-.32,1.09-1.12c1.08-1.13,1.52-1.6,2-1.46s.64.79,1,2.35c.09.42.2.92.33,1.48.42.42.79.78,1.12,1.09,1.13,1.08,1.59,1.53,1.45,2s-.79.63-2.34,1l-1.49.33c-.42.42-.78.8-1.09,1.12C182.12,208.35,181.66,208.83,181.23,208.86Zm2.65-10.19a10.56,10.56,0,0,0-1.32,1.28c-.33.34-.71.74-1.17,1.2l-.07.07-.09,0-1.59.35a6.79,6.79,0,0,0-1.85.51,9.87,9.87,0,0,0,1.28,1.32l1.21,1.17.07.07,0,.1c.14.61.25,1.13.35,1.59a6.43,6.43,0,0,0,.51,1.84,10.56,10.56,0,0,0,1.32-1.28q.48-.51,1.17-1.2l.07-.07.09,0c.61-.14,1.14-.26,1.6-.35a7.21,7.21,0,0,0,1.84-.51,10.05,10.05,0,0,0-1.29-1.33c-.34-.32-.74-.71-1.19-1.16l-.07-.07,0-.1c-.14-.61-.25-1.14-.35-1.59A6.32,6.32,0,0,0,183.88,198.67Z"/><path class="cls-23" d="M177.58,190.19l-6.56-.87c-7.14-5.76-5.23-6.45-6.62,2.57-5.76,7.13-6.45,5.22,2.57,6.61,7.14,5.77,5.22,6.45,6.61-2.56l4.27-5.07a.42.42,0,0,0-.27-.68Zm0,0"/><path class="cls-4" d="M172.35,203.13c-.51,0-1.15-.53-2.45-1.68-.79-.7-1.77-1.57-3.08-2.62-1.68-.26-3-.41-4-.51-1.94-.21-2.74-.29-3-.85s.33-1.17,1.64-2.65c.7-.79,1.56-1.77,2.62-3.07.26-1.69.4-3.05.51-4.05.2-1.94.29-2.74.84-2.95s1.18.32,2.66,1.63c.79.7,1.76,1.56,3.07,2.62l6.46.85a.76.76,0,0,1,.48,1.25l-4.2,5c-.25,1.69-.4,3-.5,4-.21,1.93-.29,2.73-.85,3A.73.73,0,0,1,172.35,203.13Zm-6.67-17.75h0a8.33,8.33,0,0,0-.41,2.39c-.1,1-.25,2.43-.52,4.17l0,.09-.05.07c-1.1,1.36-2,2.41-2.7,3.17a7.53,7.53,0,0,0-1.51,2,8,8,0,0,0,2.39.41c1,.11,2.43.26,4.17.53h.09l.07.06c1.35,1.09,2.4,2,3.17,2.7a8.17,8.17,0,0,0,2,1.51h0a8,8,0,0,0,.41-2.39c.11-1,.26-2.43.52-4.17l0-.1,4.33-5.13a.08.08,0,0,0,0-.08.09.09,0,0,0,0-.06h0l-6.66-.87-.08-.06c-1.35-1.09-2.4-2-3.16-2.7A8.06,8.06,0,0,0,165.68,185.38Z"/><path class="cls-23" d="M156.44,222.58a.42.42,0,0,0,.69-.25l.45-3c2.86-3.28,3-2.77-1.26-3.42-3.27-2.86-2.77-3-3.41,1.26-2.86,3.27-3,2.77,1.25,3.41Zm0,0"/><path class="cls-4" d="M156.76,223a.7.7,0,0,1-.55-.19l-2.2-1.92-1.2-.16c-1.48-.21-2.1-.29-2.27-.76s.24-1,1.26-2.08l.79-.88c.06-.45.12-.85.16-1.2.21-1.49.29-2.1.76-2.28s1,.25,2.08,1.27l.88.78,1.21.17c1.48.2,2.09.28,2.27.76s-.25.94-1.26,2.08c-.24.25-.5.55-.79.88l-.43,2.89a.75.75,0,0,1-.49.6A.93.93,0,0,1,156.76,223Zm-3-8.82a11.19,11.19,0,0,0-.29,1.72c-.05.38-.11.81-.19,1.31v.1l-.07.07c-.32.37-.6.69-.86,1a6.6,6.6,0,0,0-1.12,1.41,11.45,11.45,0,0,0,1.72.29l1.31.19h.1l2.36,2.06s.06,0,.07,0,0,0,0-.05l.47-3.1.06-.07.86-1a6.47,6.47,0,0,0,1.12-1.42,11.78,11.78,0,0,0-1.71-.28l-1.32-.19-.1,0-.07-.06-1-.86A6.27,6.27,0,0,0,153.72,214.2Z"/><path class="cls-4" d="M197,196.24a21.54,21.54,0,1,0-33.25,19.55,4.41,4.41,0,0,0-.34,3.68c-.76.83-3.59,4.2-2.29,7,1.39,3,7,4.21,16.66,3.53s15.05-2.64,16-5.82c.89-3-2.38-5.92-3.25-6.64a4.39,4.39,0,0,0-.85-3.59A21.55,21.55,0,0,0,197,196.24ZM193.07,224c-1.06,3.56-8.93,4.85-15.34,5.3s-14.39.28-15.94-3.1c-1-2.23,1.16-5.07,2-6,1.63,2.27,6.16,3.16,13.48,2.64s11.68-2,13-4.5c1,.85,3.54,3.35,2.83,5.7Zm-3.48-8.7a3,3,0,0,1,.11,2.41c-.66,1.64-3.37,3.72-12.48,4.36s-12-1.07-13-2.57a3.6,3.6,0,0,1,.14-3.31,21.47,21.47,0,0,0,24.73-1.74,4.84,4.84,0,0,1,.48.85ZM177,218.51a20.81,20.81,0,1,1,19.29-22.22A20.84,20.84,0,0,1,177,218.51Zm0,0"/><path class="cls-24" d="M156.7,190.56a21.7,21.7,0,0,0-.12,12.84c.19.63,1.15.29,1-.34a20.72,20.72,0,0,1,.16-12.3c.2-.63-.8-.82-1-.2Z"/><path class="cls-24" d="M158.06,206.77a13.5,13.5,0,0,0,2.24,3.12.52.52,0,0,0,.72,0,.53.53,0,0,0-.05-.72,12.67,12.67,0,0,1-1.12-1.36,13.81,13.81,0,0,1-.95-1.56.51.51,0,0,0-.71-.14.53.53,0,0,0-.13.71Z"/></g></svg>